<svg width="100" height="96" viewBox="0 0 100 96" fill="none" xmlns="http://www.w3.org/2000/svg">
<path d="M67.5724 20.6343L16.0931 60.297C15.5626 60.3556 14.7742 60.2237 13.728 59.901C12.4165 59.4904 11.1713 58.8818 9.99246 58.0752C6.63271 55.7873 4.59918 52.5023 3.89187 48.22C3.19929 44.1137 3.83292 39.7067 5.79278 34.9991C6.44115 33.4445 7.23688 31.8387 8.17997 30.1815L9.90405 27.2997C11.3039 24.8213 12.4607 22.3721 13.3743 19.9523C14.8921 15.9047 15.3047 12.9129 14.6121 10.9771L15.3194 11.0651C15.8499 11.1677 16.2773 11.3584 16.6014 11.637C16.5572 11.1677 16.432 10.6178 16.2257 9.98717C15.7983 8.69661 15.1868 7.61136 14.3911 6.73144L16.7783 6.40146C18.7971 6.41613 20.8453 6.98808 22.9231 8.11732L22.7684 6.90742C22.7094 6.08616 22.7905 5.63153 23.0115 5.54354C23.3504 5.41155 23.8367 5.73419 24.4703 6.51146C24.4851 5.86618 24.6251 5.1329 24.8903 4.31164C25.406 2.69844 26.2755 1.48121 27.4985 0.659943L28.7142 2.88176C29.8489 4.48029 31.234 5.58753 32.8697 6.20348C34.2991 6.76077 37.5409 7.18607 42.5953 7.47937C47.4876 7.77268 50.9357 8.37397 52.9398 9.28322L55.0617 9.45921C56.7858 9.67919 58.3773 10.0825 59.8361 10.6691C64.5368 12.561 67.1156 15.8827 67.5724 20.6343Z" fill="#68AE28"/>
<path d="M5.41701 52.5316C2.08673 46.2842 2.88246 39.1054 7.8042 30.9954C5.31386 37.5509 6.1538 42.7938 10.324 46.7241C12.1365 48.4253 14.4205 49.6719 17.1761 50.4638C19.8728 51.2264 22.7315 51.4757 25.7523 51.2117L15.452 60.473C13.949 60.341 12.2765 59.615 10.4345 58.2951C8.32732 56.7553 6.65481 54.8341 5.41701 52.5316Z" fill="#56931F"/>
<path d="M87.7751 17.7305C89.0866 18.3025 90.2286 20.2457 91.2011 23.5601C92.0705 26.5665 92.3653 28.693 92.0853 29.9395C93.8241 31.9487 95.5187 35.8717 97.1691 41.7085C99.0406 48.2493 99.3574 53.0083 98.1196 55.9854C97.7217 56.9386 96.5576 58.2365 94.6272 59.879C92.6231 61.6096 90.6412 62.9441 88.6813 63.8827L89.676 65.4886C90.4717 66.8964 91.1864 68.4143 91.82 70.0422C93.8388 75.2924 94.6788 80.7333 94.3398 86.3648C94.2367 88.154 92.7484 89.6206 89.8749 90.7645C87.0604 91.8644 84.0617 92.231 80.8787 91.8644C79.803 91.7177 78.381 90.4638 76.6127 88.1027C74.5939 85.3602 73.393 82.5151 73.0099 79.5674C70.3132 81.1219 68.0365 82.1705 66.1798 82.7131L65.6051 83.6811C65.1041 84.473 64.5147 85.2063 63.8369 85.8809C61.7002 88.0514 59.173 89.2613 56.2553 89.5106C53.3524 89.7599 51.0978 89.5326 49.4916 88.8286C48.9906 88.6086 48.578 88.352 48.2538 88.0587L47.9444 87.6847L30.2836 88.2787L28.4711 89.8625C26.8501 90.9331 24.9787 91.4977 22.8567 91.5564C19.9538 91.6444 17.6698 91.3804 16.0046 90.7645C13.9122 89.9725 12.4238 88.528 11.5397 86.4308C10.2577 83.4097 9.57984 79.9487 9.50616 76.0477C9.40301 70.9734 10.545 66.8231 12.9322 63.5967C15.231 60.4876 18.2297 57.3199 21.9284 54.0935C22.9599 53.1989 25.7671 50.9258 30.3499 47.2741C32.6929 45.4262 34.778 43.6371 36.6052 41.9065C38.4619 40.1467 39.5892 38.8854 39.9871 38.1228C40.4144 35.2044 40.9743 32.242 41.6669 29.2356C43.0668 23.2228 44.4225 20.011 45.734 19.6004C47.0455 19.2044 48.9759 19.6224 51.5251 20.8543C52.7924 21.4849 53.9271 22.1448 54.9291 22.8341L56.4321 22.3062C57.7584 21.9102 59.2098 21.5729 60.7866 21.2942C65.8262 20.429 71.1753 20.3777 76.8338 21.1403C77.6885 20.231 79.5746 19.3511 82.4923 18.5005C85.3068 17.6792 87.0678 17.4226 87.7751 17.7305Z" fill="#7CBEB3"/>
<path d="M91.7758 26.4858L92.2179 29.9395L89.9412 26.5738C90.177 25.5912 90.2801 24.264 90.2507 22.5921L90.118 20.3923C90.7959 21.8442 91.3485 23.8753 91.7758 26.4858Z" fill="#68A198"/>
<path d="M41.1585 30.3795C42.3521 24.9239 43.5236 21.7709 44.673 20.9203C44.393 24.088 44.2973 27.2191 44.3857 30.3135C44.4446 32.132 44.6362 34.9038 44.9604 38.6288C45.1519 40.8433 44.9235 42.8084 44.2752 44.5243C43.7005 46.0202 42.9489 47.0394 42.0206 47.582C41.107 48.11 40.3555 47.9927 39.766 47.2301C39.1324 46.3941 38.9187 44.9569 39.125 42.9184C39.5376 38.8561 40.2155 34.6764 41.1585 30.3795Z" fill="#68A198"/>
<path d="M81.0556 86.2988C82.1902 88.4107 83.5459 89.7305 85.1226 90.2585L84.2827 91.9304C82.0576 92.3703 80.0904 91.791 78.381 90.1925C76.3328 88.242 74.5203 84.7003 72.9435 79.5674C70.3942 81.1073 67.565 82.2585 64.4557 83.0211C61.3907 83.7837 57.7068 84.2457 53.4039 84.407C52.7261 84.627 52.2324 85.0963 51.923 85.8149C51.6135 86.5041 51.6062 87.1274 51.9009 87.6847L50.6631 89.1366L48.0107 87.5307C48.0843 87.0321 48.4969 85.5436 49.2485 83.0651C49.9852 80.6893 50.4494 78.6288 50.641 76.8836C51.2009 71.6627 49.7421 66.9404 46.2645 62.7168C49.359 65.8112 54.7817 67.7544 62.5327 68.5463C70.8142 69.3822 77.8505 68.6343 83.6417 66.3025C81.785 67.4904 80.4588 69.3382 79.663 71.846C78.9557 74.1045 78.7421 76.605 79.022 79.3474C79.302 81.9872 79.9798 84.3043 81.0556 86.2988Z" fill="#68A198"/>
<path d="M9.28512 73.6719C9.91875 78.8194 12.748 82.1265 17.7729 83.593C19.7033 84.1503 21.7368 84.3556 23.8735 84.209C25.8186 84.077 27.4174 83.6957 28.67 83.0651L30.2836 88.4766C29.1342 89.5912 27.5869 90.4638 25.6418 91.0944C21.7516 92.3556 17.8392 91.8057 13.9048 89.4446C12.0039 88.3007 10.6408 85.3969 9.8156 80.7333C9.55036 79.1641 9.37353 77.5729 9.28512 75.9597C9.21144 74.6105 9.21144 73.8479 9.28512 73.6719Z" fill="#68A198"/>
<path d="M56.609 37.8149C57.1837 37.7122 57.7952 37.8075 58.4436 38.1008C56.2185 39.802 55.0543 42.4125 54.9512 45.9322C54.848 49.1439 55.5848 52.1577 57.1616 54.9734C54.0671 54.6361 51.8862 53.9322 50.6189 52.8616C50.2505 52.539 50.0958 51.637 50.1547 50.1558C50.2137 48.616 50.4863 47.0028 50.9725 45.3162C52.2398 40.8286 54.1186 38.3281 56.609 37.8149Z" fill="white"/>
<path d="M64.2568 46.1962C64.9494 48.044 65.3768 49.7085 65.5388 51.1897C65.7157 52.7736 65.5388 53.8295 65.0084 54.3575C64.6547 54.7094 63.7042 54.9514 62.157 55.0834C60.5803 55.2007 58.9151 55.1641 57.1616 54.9734C55.5848 52.1577 54.8481 49.1439 54.9512 45.9322C55.0544 42.4125 56.2185 39.802 58.4436 38.1008C60.6392 39.1127 62.577 41.8112 64.2568 46.1962Z" fill="#D60040"/>
<path d="M90.1402 36.7149C91.9821 38.2108 93.0799 40.4473 93.4336 43.4244C93.6546 45.2869 93.5662 47.9047 93.1683 51.2777C92.52 51.527 91.8937 51.6957 91.2895 51.7837C90.6706 51.8863 90.2065 51.8863 89.897 51.7837C89.0276 51.505 88.5929 49.2906 88.5929 45.1402C88.5782 40.9019 89.0939 38.0935 90.1402 36.7149Z" fill="#D60040"/>
<path d="M90.1401 36.715C90.4054 36.3483 90.6854 36.1357 90.9801 36.077C92.4094 35.769 93.7946 37.5069 95.1356 41.2906C96.447 45.0449 96.7049 47.7287 95.9092 49.3419C95.5408 50.1045 94.6272 50.7498 93.1683 51.2777C93.5662 47.9047 93.6546 45.2869 93.4336 43.4244C93.0799 40.4473 91.9821 38.2108 90.1401 36.715Z" fill="white"/>
<path d="M77.1653 34.4711C76.738 34.6325 75.6255 34.1852 73.8277 33.1292C71.9415 32.044 71.0353 31.1567 71.109 30.4675C71.2121 29.5582 72.7373 28.3043 75.6844 26.7058C78.6758 25.0926 80.6651 24.4986 81.6524 24.9239C82.286 25.1879 81.9545 26.7424 80.6577 29.5875C79.3462 32.4473 78.1821 34.0752 77.1653 34.4711Z" fill="#006359"/>
<path d="M67.3293 36.363C67.285 36.1723 67.5061 35.813 67.9924 35.2851C68.4934 34.7424 68.9428 34.4198 69.3407 34.3171L69.827 34.9991C70.2396 35.6884 70.6522 36.6563 71.0648 37.9028L70.7774 38.5848C70.4974 39.0834 70.1511 39.428 69.7385 39.6187L68.6776 38.6068C67.9408 37.8002 67.4913 37.0522 67.3293 36.363Z" fill="#006359"/>
<path d="M84.4153 41.1586C84.8721 43.7544 84.9089 45.2063 84.5258 45.5142C84.1869 45.7929 83.1554 45.6829 81.4313 45.1843C79.6925 44.6856 78.7052 44.2017 78.4694 43.7324C78.5431 42.6471 79.1031 41.2906 80.1493 39.6627C81.225 38.0349 82.0944 37.2209 82.7575 37.2209C83.4059 37.2209 83.9585 38.5335 84.4153 41.1586Z" fill="#006359"/>
<path d="M85.7415 79.4134C85.6826 78.5775 86.1983 77.3822 87.2888 75.8277C88.3498 74.3025 89.116 73.5692 89.5876 73.6279C90.2949 73.7012 90.7812 75.1751 91.0464 78.0495C91.2969 80.9386 91.0685 82.5005 90.3612 82.7351C89.5802 82.9991 88.6445 82.8525 87.554 82.2952C86.3015 81.6352 85.6973 80.6746 85.7415 79.4134Z" fill="#006359"/>
<path d="M15.6731 67.0504L19.3202 67.2044C20.9559 67.527 21.8989 67.8863 22.1494 68.2823C22.562 68.9423 22.2894 70.3355 21.3316 72.462C20.3885 74.5738 19.5928 75.659 18.9444 75.7177C18.3845 75.7617 17.2498 75.2044 15.5405 74.0458C13.8164 72.8873 12.9617 72.0807 12.9764 71.626C12.9912 71.0394 13.2785 70.2035 13.8385 69.1182C14.4574 67.901 15.0689 67.2117 15.6731 67.0504Z" fill="#006359"/>
<path d="M36.6936 48.198C37.0768 48.8579 36.4579 50.6911 34.8369 53.6975C33.216 56.7039 31.9708 58.3025 31.1014 58.4931C30.3057 58.6838 29.0089 58.3391 27.2112 57.4592C25.5166 56.6526 24.3893 55.912 23.8293 55.2374C23.6525 55.0174 23.7704 54.3721 24.183 53.3015L24.8461 51.7397L27.808 49.4079C29.812 47.8387 30.932 47.0247 31.1677 46.9661L33.9307 47.208C35.5516 47.4867 36.4726 47.8167 36.6936 48.198Z" fill="#006359"/>
<path d="M59.1288 40.3226C59.6003 40.3226 60.0129 40.7846 60.3666 41.7085C60.7202 42.6911 60.8897 43.9157 60.8749 45.3822C60.8455 46.7754 60.6539 47.8753 60.3003 48.6819C59.9761 49.4152 59.5782 49.7818 59.1067 49.7818C58.6646 49.7818 58.2815 49.3859 57.9573 48.5939C57.6036 47.758 57.412 46.7021 57.3826 45.4262C57.3236 43.8863 57.4857 42.6324 57.8689 41.6645C58.2078 40.7699 58.6277 40.3226 59.1288 40.3226Z" fill="white"/>
<path d="M89.1013 40.8066L89.5433 38.8268C89.7202 38.5921 89.8896 38.4821 90.0517 38.4968C90.317 38.5115 90.5675 38.7974 90.8032 39.3547C91.1422 40.1027 91.3264 41.1586 91.3558 42.5225C91.3706 43.813 91.2527 44.8176 91.0022 45.5362C90.7664 46.1815 90.4717 46.5041 90.118 46.5041C89.897 46.5041 89.676 46.3428 89.4549 46.0202C89.2191 45.6682 89.0571 45.2062 88.9686 44.6343C88.7918 43.6224 88.836 42.3465 89.1013 40.8066Z" fill="white"/>
<path d="M79.6852 22.1522C75.6476 21.3749 71.5584 21.0743 67.4177 21.2503C62.9675 21.4262 58.8783 22.1448 55.1501 23.4061C55.0175 23.4501 54.8333 23.3034 54.5976 22.9661C54.3471 22.6288 54.2881 22.4308 54.4207 22.3722C58.6499 20.9496 63.2327 20.187 68.1692 20.0843C72.5015 19.9817 76.458 20.385 80.0388 21.2942C81.8661 21.7635 82.7355 22.1082 82.647 22.3282L79.6852 22.1522Z" fill="#0D131A"/>
<path d="M91.6211 28.2897C94.6125 32.6013 96.7934 37.6022 98.1638 43.2924C99.3574 48.2493 99.6521 52.0843 99.0479 54.7974C98.3848 57.8039 95.084 60.8836 89.1455 64.0367C83.2512 67.1751 77.5558 68.9129 72.0594 69.2502C66.1799 69.6022 60.6466 69.1183 55.4596 67.7984C50.2726 66.4785 46.9276 64.6966 45.4246 62.4528C44.9383 61.7195 44.7836 61.2722 44.9604 61.1109C45.1519 60.9496 45.5866 61.2356 46.2645 61.9688C48.2538 64.1393 51.7978 65.7965 56.8963 66.9404C61.7444 68.0257 66.8061 68.407 72.0815 68.0843C77.5927 67.747 83.1554 66.0238 88.7697 62.9148C94.163 59.923 97.1544 57.0926 97.7438 54.4235C98.3627 51.6517 98.1048 47.912 96.9702 43.2044C95.7029 37.9395 93.6767 33.2026 90.8917 28.9936C89.7423 27.2484 89.2929 26.2805 89.5434 26.0898C89.7791 25.8992 90.4717 26.6325 91.6211 28.2897Z" fill="#0D131A"/>
<path d="M40.407 38.3648C39.4345 40.1833 37.4673 42.3465 34.5054 44.8543C32.7371 46.3355 29.7605 48.682 25.5755 51.8937C21.759 54.9148 18.8118 57.5765 16.7341 59.879C13.8753 63.0468 11.9744 66.1632 11.0313 69.2282C9.89669 72.9093 9.83775 77.0449 10.8545 81.6352C11.7976 85.9615 13.1386 88.6306 14.8774 89.6425C16.7488 90.7278 19.2686 91.2044 22.4368 91.0724C25.7081 90.9404 27.9701 90.1778 29.2226 88.7846C31.153 86.6288 31.9045 83.1384 31.4772 78.3135C31.0351 73.3859 29.5321 69.4556 26.968 66.5225C25.966 65.3639 25.5387 64.66 25.686 64.4106C25.8334 64.1613 26.4597 64.6233 27.5648 65.7965C30.792 69.2429 32.5897 73.4592 32.9581 78.4455C33.297 83.1824 32.3024 86.8488 29.9741 89.4446C28.5742 91.0138 26.0544 91.8937 22.4147 92.0843C18.8929 92.275 16.1004 91.769 14.0374 90.5665C11.945 89.3492 10.4124 86.4748 9.43988 81.9432C8.45258 77.2796 8.54837 72.9679 9.72723 69.0083C10.6261 66.0165 12.4018 63.0174 15.0542 60.011C16.9846 57.8112 19.777 55.2374 23.4315 52.2897L32.494 44.9863C35.7653 42.1852 38.2041 39.6114 39.8102 37.2649C39.8839 37.1622 40.0165 37.2869 40.2081 37.6389C40.4144 38.0055 40.4807 38.2475 40.407 38.3648Z" fill="#0D131A"/>
<path d="M45.8224 18.9404C46.736 18.6471 48.2759 18.9404 50.442 19.8204C52.6229 20.715 54.4133 21.8075 55.8132 23.0981C56.9184 24.1247 57.3457 24.704 57.0952 24.8359C56.8595 24.9826 56.1816 24.6233 55.0617 23.758C53.6176 22.6728 51.9451 21.7562 50.0442 21.0083C48.1875 20.2603 46.9423 19.9963 46.3087 20.2163C45.2772 20.5536 44.0836 23.1567 42.7279 28.0257C41.2985 33.1732 40.3702 38.5701 39.9428 44.2163C39.8249 45.8442 39.6186 46.5921 39.3239 46.4601C39.0145 46.3282 38.8892 45.5582 38.9482 44.1503C39.1397 39.2667 39.8765 34.1558 41.1585 28.8176C42.6174 22.7754 44.172 19.4831 45.8224 18.9404Z" fill="#0D131A"/>
<path d="M76.1264 20.8323C77.4084 19.8644 79.3757 18.9404 82.0281 18.0605C85.0195 17.0633 87.0972 16.8286 88.2613 17.3566C89.4107 17.8698 90.4569 19.593 91.4 22.5261C92.2694 25.2539 92.7557 27.9963 92.8589 30.7534C92.8589 30.8854 92.6747 30.7461 92.3063 30.3355C91.9232 29.9248 91.7316 29.6462 91.7316 29.4995C91.6432 27.2704 91.1274 24.9239 90.1843 22.4601C89.2855 20.1137 88.4529 18.7644 87.6866 18.4125C86.9646 18.0898 85.3142 18.2951 82.7354 19.0284C80.1272 19.7617 78.2705 20.5463 77.1653 21.3822C77.0622 21.4702 76.8338 21.4262 76.4801 21.2502C76.1412 21.0596 76.0233 20.9203 76.1264 20.8323Z" fill="#0D131A"/>
<path d="M76.9443 33.8552C77.6664 33.8405 78.6757 32.4693 79.9725 29.7415C81.2545 27.0578 81.7334 25.6352 81.4092 25.4739C80.6872 25.1073 78.8968 25.6425 76.038 27.0798C73.1646 28.517 71.7205 29.6242 71.7057 30.4015C71.691 30.8854 72.3246 31.5674 73.6067 32.4473C74.9181 33.3272 76.0307 33.7965 76.9443 33.8552ZM75.176 26.4858C78.3147 24.7993 80.5546 24.0807 81.8955 24.33C82.3523 24.418 82.4849 25.0193 82.2934 26.1338C82.1165 27.1604 81.7187 28.363 81.0998 29.7415C79.5525 33.1733 78.1674 34.8598 76.9443 34.8011C75.9717 34.7425 74.675 34.1852 73.0541 33.1293C71.3595 32.0293 70.5121 31.0981 70.5121 30.3355C70.5121 29.4409 72.0668 28.1577 75.176 26.4858Z" fill="#0D131A"/>
<path d="M70.6227 38.0348C70.6669 37.9175 70.5048 37.3749 70.1364 36.407C69.768 35.4244 69.5028 34.9258 69.3407 34.9111C69.208 34.8964 68.9133 35.0944 68.4565 35.505C67.9997 35.9157 67.7713 36.2236 67.7713 36.429C67.7861 36.6196 68.0955 37.1182 68.6997 37.9248C69.3038 38.7021 69.6575 39.0907 69.7606 39.0907C69.8491 39.0907 70.0038 38.9441 70.2248 38.6508L70.6227 38.0348ZM70.6669 35.725C71.1237 36.8103 71.3595 37.5509 71.3742 37.9468C71.3889 38.2695 71.1532 38.7094 70.6669 39.2667C70.1659 39.8387 69.7901 40.066 69.5396 39.9487C69.2449 39.8167 68.7365 39.2741 68.0145 38.3208C67.2335 37.3089 66.8724 36.6123 66.9314 36.231C66.9903 35.835 67.3366 35.3364 67.9702 34.7351C68.6039 34.1631 69.0828 33.8845 69.407 33.8992C69.7459 33.9285 70.1659 34.5371 70.6669 35.725Z" fill="#0D131A"/>
<path d="M82.6028 37.8589C82.146 37.8295 81.3945 38.6875 80.3483 40.4327C79.3315 42.1632 78.882 43.1971 78.9999 43.5344C79.1178 43.8424 79.9504 44.2163 81.4976 44.6563C83.0596 45.0963 83.9511 45.2136 84.1722 45.0083C84.5111 44.6856 84.4448 43.4171 83.9732 41.2026C83.5017 39.0028 83.0449 37.8882 82.6028 37.8589ZM79.5967 39.7067C80.8787 37.5069 81.8881 36.4436 82.6249 36.517C83.5533 36.605 84.2974 38.1302 84.8574 41.0926C85.4026 44.0403 85.3584 45.6682 84.7248 45.9762C84.1795 46.2548 82.9786 46.0862 81.1219 45.4702C79.2946 44.8689 78.2926 44.3557 78.1158 43.9304C77.8358 43.2997 78.3295 41.8919 79.5967 39.7067Z" fill="#0D131A"/>
<path d="M51.503 42.2365C53.2271 38.7608 55.0764 37.1329 57.051 37.3529C59.8361 37.6755 62.2306 40.0147 64.2347 44.3703C65.0746 46.2182 65.6272 48.044 65.8925 49.8478C66.1724 51.725 66.0767 53.2209 65.6051 54.3355C65.3546 54.9514 64.4115 55.3621 62.7759 55.5674C61.2728 55.7434 59.5266 55.7287 57.5373 55.5234C55.5332 55.3181 53.8239 54.9588 52.4093 54.4455C50.8473 53.9028 50 53.2796 49.8673 52.5756C49.2042 49.2319 49.7495 45.7855 51.503 42.2365ZM61.8917 42.5445C60.3445 39.934 58.6941 38.5335 56.9405 38.3428C56.2479 38.2695 55.4964 38.6508 54.6859 39.4867C53.4629 40.7479 52.4756 42.5665 51.7241 44.9423C50.9283 47.5234 50.6925 49.9945 51.0167 52.3556C51.1346 53.2649 53.3376 53.9542 57.6257 54.4235C61.9138 54.9074 64.2421 54.7241 64.6105 53.8735C64.9936 52.9496 64.9273 51.3364 64.4115 49.0339C63.8663 46.6288 63.0264 44.4656 61.8917 42.5445Z" fill="#0D131A"/>
<path d="M94.4503 40.7846C93.3452 38.0568 92.2326 36.6929 91.1127 36.6929C90.1254 36.6929 89.5212 39.0174 89.3002 43.6664C89.0792 48.286 89.3591 50.8231 90.1401 51.2777C90.6559 51.571 91.6284 51.4097 93.0578 50.7938C94.4872 50.1778 95.2608 49.5985 95.3787 49.0559C95.9534 46.4601 95.6439 43.703 94.4503 40.7846ZM88.2613 43.2924C88.5118 38.2182 89.4623 35.681 91.1127 35.681C92.5421 35.681 93.9272 37.1989 95.2682 40.2347C96.6681 43.4317 97.0586 46.4161 96.4397 49.1879C96.2186 50.1265 95.1282 50.9624 93.1683 51.6957C91.2674 52.4143 90.0591 52.5536 89.5433 52.1137C89.0571 51.7177 88.696 50.6325 88.4603 48.8579C88.2245 47.1567 88.1582 45.3016 88.2613 43.2924Z" fill="#0D131A"/>
<path d="M30.9246 46.5481L34.7927 46.7901C36.2958 47.0541 37.1578 47.3987 37.3788 47.824C37.7767 48.6306 37.0547 50.6984 35.2127 54.0275C33.3707 57.3859 31.9635 59.0651 30.9909 59.0651C30.0626 59.0651 28.5448 58.6031 26.4376 57.6792C24.2125 56.7113 23.0999 55.9193 23.0999 55.3034C23.0999 54.9514 23.262 54.4234 23.5862 53.7195L24.6472 51.6517C24.7208 51.5343 24.9198 51.461 25.244 51.4317C25.5829 51.417 25.7155 51.4684 25.6418 51.5857C25.244 52.319 24.9271 53.0302 24.6914 53.7195C24.4851 54.3208 24.3819 54.7534 24.3819 55.0174C24.4409 55.4134 25.3913 56.022 27.2333 56.8432C29.0311 57.6498 30.2762 58.0605 30.9688 58.0751C31.6172 57.8698 32.6781 56.3739 34.1517 53.5875C35.6253 50.8011 36.2589 49.0999 36.0526 48.4839C35.9347 48.2346 35.3011 48 34.1517 47.78L30.7257 47.538C30.5783 47.5527 30.5415 47.3914 30.6151 47.0541C30.6888 46.7314 30.792 46.5628 30.9246 46.5481Z" fill="#0D131A"/>
<path d="M15.872 67.4464C15.4152 67.6664 14.8921 68.275 14.3027 69.2723C13.7132 70.2548 13.4406 70.9368 13.4848 71.3181C13.5438 71.7141 14.3248 72.44 15.8278 73.4959C17.3309 74.5518 18.3034 75.0504 18.7455 74.9918C19.1876 74.9331 19.8728 73.9212 20.8011 71.956C21.7295 69.9909 22.0758 68.8836 21.84 68.6343C21.5748 68.3703 20.6096 68.0624 18.9444 67.7104C17.2498 67.3584 16.2257 67.2704 15.872 67.4464ZM13.4185 68.7003C14.1111 67.5564 14.7669 66.8231 15.3858 66.5005L19.2097 66.6765C21.3316 67.0724 22.5694 67.5491 22.9231 68.1064C23.2473 68.6196 22.8789 70.0569 21.8179 72.418C20.7569 74.7645 19.8875 76.0624 19.2097 76.3117C18.6939 76.517 17.4782 75.9524 15.5626 74.6178C13.6175 73.2686 12.5933 72.2127 12.4902 71.4501C12.4165 70.7901 12.726 69.8735 13.4185 68.7003Z" fill="#0D131A"/>
<path d="M86.2278 79.3694V79.3914C86.2573 80.6086 86.8541 81.4959 88.0182 82.0531C89.0644 82.5518 89.7717 82.6324 90.1401 82.2951C90.5233 81.9432 90.6559 80.6086 90.538 78.2915C90.4201 75.9303 90.0738 74.6178 89.4991 74.3538C89.1897 74.2218 88.5634 74.8817 87.6203 76.3336C86.692 77.7855 86.2278 78.7974 86.2278 79.3694ZM86.8688 75.5857C88.0035 73.7818 88.8802 72.8872 89.4991 72.9019C90.5012 72.9166 91.1274 74.5078 91.3779 77.6755C91.6285 80.7846 91.4222 82.5811 90.759 83.0651C90.2138 83.4757 89.2192 83.4024 87.7751 82.8451C86.1247 82.1998 85.2773 81.1219 85.2331 79.6114C85.2184 78.7021 85.7636 77.3602 86.8688 75.5857Z" fill="#0D131A"/>
<path d="M96.5723 53.7635C96.5576 54.3355 96.4765 54.8047 96.3292 55.1714L95.8871 55.8973C95.1651 56.7479 93.441 57.8185 90.7149 59.1091C87.9003 60.4436 85.4616 61.3162 83.3986 61.7268C79.6409 62.4894 73.8719 62.5554 66.0914 61.9248C58.311 61.3089 53.3966 60.385 51.3483 59.1531C51.0094 58.9331 50.6999 58.5738 50.42 58.0751C50.1695 57.6498 49.9853 57.1805 49.8674 56.6673C49.6463 55.7433 49.6316 55.2227 49.8232 55.1054C50.0147 54.9881 50.3168 55.4134 50.7294 56.3813C50.9799 56.9532 51.2452 57.3932 51.5251 57.7012L52.4093 58.3611C54.0597 59.2557 58.4731 60.0476 65.6494 60.7369C73.4151 61.4849 79.2652 61.4629 83.1996 60.6709C84.9679 60.3043 87.0678 59.593 89.4992 58.5371C91.7537 57.5545 93.441 56.6599 94.5609 55.8533C94.9735 55.5454 95.2756 55.23 95.4671 54.9074C95.6734 54.5701 95.8061 54.1595 95.865 53.6755C95.9681 52.7956 96.1155 52.3849 96.3071 52.4436C96.4986 52.5169 96.5871 52.9569 96.5723 53.7635Z" fill="#0D131A"/>
<path d="M63.0633 35.703C63.579 36.1723 64.08 36.7443 64.5663 37.4189C65.0821 38.1228 65.4504 38.7608 65.6715 39.3327C65.9957 40.154 66.0104 40.616 65.7157 40.7186C65.4062 40.8066 65.0599 40.484 64.6768 39.7507C64.0432 38.5041 63.2696 37.3749 62.3559 36.363C61.5013 35.3804 61.1623 34.8084 61.3392 34.6471C61.5307 34.4858 62.1054 34.8378 63.0633 35.703Z" fill="#0D131A"/>
<path d="M87.974 35.857C87.694 36.6636 87.5172 37.5289 87.4435 38.4528C87.3845 39.2594 87.2003 39.6554 86.8909 39.6407C86.5814 39.6407 86.4488 39.2448 86.493 38.4528C86.5372 37.4849 86.7877 36.5316 87.2446 35.5931C87.6572 34.7571 87.9592 34.3612 88.1508 34.4052C88.3276 34.4638 88.2687 34.9478 87.974 35.857Z" fill="#0D131A"/>
<path d="M78.2705 58.9111C77.9463 58.7498 77.6885 58.5445 77.4969 58.2951C77.3053 58.0605 77.239 57.8918 77.298 57.7892L77.9832 57.8112C78.4105 57.8992 78.7273 58.0385 78.9336 58.2291C79.1989 58.4931 79.2505 58.7204 79.0884 58.9111C78.9263 59.1017 78.6537 59.1017 78.2705 58.9111Z" fill="#0D131A"/>
<path d="M85.8079 57.8112C85.4984 58.1925 85.2184 58.3245 84.9679 58.2072C84.7174 58.0898 84.7027 57.8479 84.9237 57.4812C85.0858 57.2172 85.3437 56.9826 85.6974 56.7773C86.0215 56.572 86.2278 56.506 86.3163 56.5793C86.3752 56.638 86.3605 56.7919 86.272 57.0413L85.8079 57.8112Z" fill="#0D131A"/>
<path d="M59.2393 38.2108C59.3719 38.2548 59.4308 38.4675 59.4161 38.8488C59.4014 39.2301 59.3351 39.3841 59.2172 39.3107C58.4656 38.8414 57.7583 39.2007 57.0952 40.3886C56.4763 41.4739 56.049 42.9771 55.8132 44.8983C55.5627 46.8781 55.5922 48.726 55.9016 50.4418C56.27 52.3923 56.9552 53.7855 57.9573 54.6215C58.0751 54.7095 58.0015 54.8414 57.7362 55.0174C57.471 55.1787 57.2794 55.2154 57.1615 55.1274C55.9532 54.2328 55.1206 52.7516 54.6638 50.6838C54.266 48.8213 54.2218 46.8268 54.5312 44.7003C54.8407 42.6031 55.408 40.9313 56.2332 39.6847C57.1321 38.3502 58.1341 37.8589 59.2393 38.2108Z" fill="#0D131A"/>
<path d="M89.7644 36.8909C90.2801 36.495 90.8769 36.6636 91.5548 37.3969C92.2326 38.1155 92.8147 39.1861 93.301 40.6086C94.5093 44.1723 94.5609 47.6774 93.4557 51.1238C93.4115 51.2557 93.242 51.3511 92.9473 51.4097C92.6526 51.4537 92.52 51.4097 92.5494 51.2777C93.4483 48.4913 93.4778 45.3309 92.6379 41.7965C92.2989 40.374 91.879 39.2521 91.378 38.4308C90.8769 37.5949 90.4201 37.2869 90.0075 37.5069C89.8896 37.5802 89.7939 37.5142 89.7202 37.3089C89.6465 37.1183 89.6612 36.9789 89.7644 36.8909Z" fill="#0D131A"/>
<path d="M88.1287 64.2127C88.0551 64.0954 88.2098 63.9194 88.5929 63.6847C88.9613 63.4354 89.175 63.3694 89.2339 63.4867C93.4189 70.2182 95.2829 78.0715 94.8261 87.0468C94.7819 87.8827 94.1409 88.748 92.9031 89.6426C91.7243 90.4931 90.2654 91.2044 88.5266 91.7764C84.3122 93.1549 81.144 93.1036 79.0221 91.6224C77.6222 90.6398 76.1707 88.7626 74.6676 85.9909C73.2235 83.3364 72.4867 81.3199 72.4573 79.9414C72.4573 79.8094 72.6636 79.6627 73.0762 79.5014L73.673 79.4354C73.7024 80.7993 74.3877 82.7278 75.7286 85.2209C77.158 87.8754 78.5947 89.7086 80.0388 90.7205C81.8808 91.9964 84.6585 92.033 88.3719 90.8305C89.8749 90.3465 91.1422 89.7452 92.1737 89.0266C93.2494 88.2933 93.802 87.6187 93.8315 87.0028C94.2588 78.6141 92.3579 71.0174 88.1287 64.2127Z" fill="#0D131A"/>
<path d="M75.7728 78.1595C71.9562 81.1366 67.4029 83.1531 62.1127 84.209C57.2057 85.1769 52.8219 85.1256 48.9611 84.055C48.8285 84.011 48.8064 83.7837 48.8948 83.3731C48.9685 82.9771 49.0716 82.7938 49.2042 82.8231C52.9913 83.879 57.2278 83.945 61.9138 83.0211C66.6735 82.0825 70.991 80.3007 74.8665 77.6755C76.3401 76.6783 77.1579 76.2823 77.32 76.4876C77.4674 76.6783 76.9516 77.2356 75.7728 78.1595Z" fill="#0D131A"/>
<path d="M65.4504 82.6031C65.5241 82.4858 65.863 82.3832 66.4672 82.2952L67.2629 82.3612C66.1135 84.2383 64.6915 85.8735 62.9969 87.2668C61.0518 88.8653 59.1435 89.7819 57.2721 90.0165L50.641 89.8185C48.9022 89.3932 47.8781 88.748 47.5686 87.8827C47.5244 87.7507 47.6349 87.5307 47.9002 87.2228C48.1507 86.9001 48.298 86.8048 48.3422 86.9368C48.637 87.758 49.5432 88.374 51.061 88.7846C52.7114 89.2393 54.7376 89.3199 57.1395 89.0266C58.5394 88.8506 60.0203 88.154 61.5823 86.9368C63.1296 85.7342 64.4189 84.2897 65.4504 82.6031Z" fill="#0D131A"/>
<path d="M14.0153 10.5591C14.1332 10.4711 14.4205 10.4711 14.8773 10.5591C15.5847 10.6911 16.2036 11.0064 16.734 11.505C16.8519 11.593 16.8593 11.7324 16.7562 11.923C16.6677 12.099 16.5646 12.143 16.4467 12.055C16.1373 11.791 15.8352 11.615 15.5405 11.527L15.1205 11.505L15.2089 12.209L15.3415 13.5289C15.3857 15.5234 14.73 18.1338 13.3743 21.3602C12.3133 23.9267 10.9503 26.5811 9.28513 29.3236C4.03921 37.9908 2.88245 45.4702 5.81486 51.7617C6.92004 54.1375 8.50414 56.0807 10.5671 57.5912C12.3944 58.9111 14.1479 59.6297 15.8278 59.747C15.9604 59.7617 15.9383 59.9304 15.7615 60.253C15.5994 60.5903 15.4447 60.7516 15.2973 60.7369C13.3375 60.605 11.3776 59.835 9.41775 58.4271C7.23686 56.8433 5.57909 54.7901 4.44444 52.2677C1.49729 45.7269 2.77193 37.9322 8.26836 28.8836C10.8619 24.6013 12.6228 21.0816 13.5511 18.3245C14.5384 15.4061 14.7005 13.0376 14.0374 11.2191C13.9048 10.8818 13.8974 10.6618 14.0153 10.5591Z" fill="#0D131A"/>
<path d="M25.465 9.7892C25.5681 9.89186 25.5681 10.0532 25.465 10.2732C25.3618 10.5078 25.2587 10.5738 25.1555 10.4711C24.0503 9.32724 22.6136 8.41065 20.8453 7.72137C19.1802 7.09076 17.6845 6.81211 16.3583 6.88544C15.7394 6.92944 15.4078 7.0101 15.3636 7.12742C15.3194 7.23008 15.4668 7.54538 15.8057 8.07334C17.4119 10.5958 17.4561 14.3208 15.9383 19.2484C15.1131 21.8882 13.8237 25.1733 12.0702 29.1036C9.47669 35.8937 9.27039 41.9505 11.4513 47.2741C12.3502 49.4739 13.5953 51.3364 15.1868 52.8616C16.6604 54.2842 18.2518 55.2447 19.9612 55.7434C20.0791 55.7727 19.9906 55.9194 19.6959 56.1833C19.4012 56.4326 19.1875 56.5426 19.0549 56.5133C14.531 55.1934 11.4292 51.835 9.7493 46.4381C7.99574 40.8506 8.42308 34.8964 11.0313 28.5756L12.9764 24.198C13.9048 22.0568 14.6047 20.187 15.0763 18.5885C16.5204 13.7782 16.3509 10.2365 14.5679 7.96335C13.9637 7.18608 13.6837 6.68746 13.7279 6.46747C13.7722 6.21816 14.2142 6.04218 15.0542 5.93952C16.6309 5.7342 18.3992 5.97618 20.359 6.66546C22.4368 7.39873 24.1388 8.43998 25.465 9.7892Z" fill="#0D131A"/>
<path d="M23.9177 5.54356L24.7355 6.2035C24.824 6.30616 24.8019 6.51881 24.6692 6.84145C24.5366 7.14942 24.4261 7.25208 24.3377 7.14942L23.8735 6.59947C23.6083 6.33549 23.4093 6.23283 23.2767 6.29149C23.1588 6.35015 23.1146 6.54081 23.1441 6.86345L23.343 8.11734C23.3725 8.23466 23.2546 8.29333 22.9894 8.29333C22.7241 8.27866 22.5841 8.20533 22.5694 8.07334L22.3484 6.70946C22.2894 5.96152 22.4073 5.47023 22.702 5.23558C22.9525 5.04493 23.3578 5.14759 23.9177 5.54356Z" fill="#0D131A"/>
<path d="M57.8247 11.747C60.9929 14.2841 62.658 17.3492 62.8201 20.9423C62.8348 21.0889 62.6433 21.1989 62.2454 21.2722C61.8475 21.3602 61.6486 21.3309 61.6486 21.1842C61.5013 17.8992 60.0129 15.0614 57.1837 12.6709C53.7797 9.79652 49.0201 8.24932 42.9047 8.02934C37.6736 7.83869 33.9307 7.2594 31.6761 6.29148C29.8489 5.51421 28.53 4.20166 27.7196 2.35381C27.5427 1.95784 27.3954 1.74519 27.2775 1.71586C27.1449 1.67187 26.9312 1.81852 26.6365 2.15583C25.6492 3.24107 25.0671 4.56829 24.8903 6.1375C24.7135 7.75069 25.0524 9.00459 25.9071 9.89918C27.6312 11.659 28.9942 13.7342 29.9962 16.1247C30.6151 17.6059 31.3667 20.077 32.2508 23.538C33.3265 27.747 34.5127 30.8781 35.8095 32.9313C36.8557 34.5885 38.3882 36.0843 40.407 37.4189C40.4955 37.4629 40.4365 37.6755 40.2302 38.0568C40.0387 38.4235 39.8839 38.5701 39.766 38.4968C37.1725 36.7956 35.3085 34.9918 34.1738 33.0852C33.1276 31.3254 32.1182 28.4656 31.1456 24.506C30.0994 20.209 29.3184 17.4152 28.8026 16.1247C28.0069 14.0862 26.806 12.2383 25.1998 10.5811C24.0504 9.39322 23.682 7.6407 24.0946 5.32356C24.4924 3.13841 25.2955 1.57654 26.5039 0.637954C27.0491 0.212656 27.4322 0.0220051 27.6533 0.0660014C27.8743 0.109998 28.088 0.417972 28.2943 0.989924C29.1784 3.27773 30.4457 4.78827 32.0961 5.52155C33.9528 6.32815 37.563 6.8341 42.9269 7.03942C49.2338 7.2594 54.1997 8.8286 57.8247 11.747Z" fill="#0D131A"/>
<path d="M64.2789 12.8469C67.0935 15.2521 68.3092 17.8552 67.926 20.6563C67.9113 20.7883 67.6903 20.8469 67.2629 20.8323C66.8356 20.8176 66.6293 20.7443 66.644 20.6123C66.9682 18.2072 66.0104 15.9487 63.7706 13.8369C61.1918 11.4171 57.6037 10.0385 53.0061 9.70121C52.8587 9.68654 52.4314 9.51056 51.7241 9.17325C51.002 8.82128 50.7073 8.64529 50.84 8.64529C56.5279 8.64529 61.0076 10.0458 64.2789 12.8469Z" fill="#0D131A"/>
<path d="M29.3773 69.5362C30.1731 66.4418 31.2856 64.1246 32.715 62.5848L49.0938 67.3364C50.5231 72.7626 50.6631 77.9322 49.5137 82.8451C48.8211 85.7635 47.7381 88.3666 46.2645 90.6544C45.4688 91.901 43.8478 92.7223 41.4017 93.1182C38.8229 93.5435 36.34 93.2869 33.9528 92.3483C32.214 91.6737 30.8509 90.0238 29.8636 87.3987C28.95 85.0082 28.4563 82.1411 28.3827 78.7974C28.309 75.527 28.6405 72.44 29.3773 69.5362Z" fill="#7CBEB3"/>
<path d="M32.8918 75.5857C32.9802 74.6911 34.0633 73.4812 36.141 71.956C38.2188 70.4308 39.5376 69.8809 40.0976 70.3062C40.6723 70.7315 40.7828 73.0486 40.4291 77.2576C40.0755 81.4666 39.5376 83.6004 38.8156 83.659C38.3882 83.6884 37.283 82.5151 35.5 80.1393C33.7023 77.7342 32.8328 76.2163 32.8918 75.5857Z" fill="#006359"/>
<path d="M28.9574 70.4601C29.031 76.7516 30.453 81.9945 33.2234 86.1888C35.8758 90.2512 39.1913 92.4876 43.17 92.8983C41.5491 93.3089 39.7955 93.4409 37.9093 93.2942C34.137 93.0009 31.5951 91.4464 30.2836 88.6306C28.9721 85.8295 28.3606 81.9579 28.449 77.0156L28.9574 70.4601Z" fill="#68A198"/>
<path d="M31.7645 65.0046C29.8489 68.275 28.9795 72.9606 29.1563 79.0614C29.3479 85.4115 30.6888 89.4959 33.1792 91.3144C34.8738 92.5463 37.1431 93.0376 39.9871 92.7883C42.7279 92.539 44.5404 91.791 45.4246 90.5444C47.4286 87.714 48.7401 84.297 49.359 80.2933C49.919 76.6856 49.8453 73.2539 49.138 69.9982C48.7843 68.3703 48.7401 67.4977 49.0053 67.3804C49.2706 67.2631 49.6242 67.9963 50.0663 69.5802C50.9799 72.8799 51.1641 76.451 50.6189 80.2933C50.0295 84.473 48.6812 88.0587 46.5739 91.0504C45.4835 92.5903 43.2289 93.4922 39.8102 93.7562C36.4652 94.0055 33.9454 93.5142 32.2508 92.2823C31.0277 91.3877 30.0183 89.8038 29.2226 87.5307C28.4563 85.3602 27.9922 82.8671 27.8301 80.0513C27.4322 73.6572 28.449 68.4876 30.8804 64.5426C31.7351 63.1494 32.3245 62.4821 32.6487 62.5408C32.9876 62.5848 32.6929 63.406 31.7645 65.0046Z" fill="#0D131A"/>
<path d="M33.4223 75.3657C33.3928 75.879 34.1517 77.3162 35.699 79.6774C37.2757 82.0825 38.2851 83.2557 38.7272 83.1971C39.2134 83.1238 39.6113 81.1366 39.9207 77.2356C40.2302 73.3199 40.1565 71.2007 39.6997 70.8781C39.2724 70.5848 38.123 71.1348 36.2515 72.528C34.3948 73.9212 33.4518 74.8671 33.4223 75.3657ZM32.4055 75.1458C32.4497 74.0752 33.6802 72.726 36.0968 71.0981C38.4693 69.5142 39.8913 68.9423 40.3628 69.3822C41.1438 70.1302 41.3648 72.6746 41.0259 77.0156C40.6723 81.3566 40.046 83.7837 39.1471 84.297C38.5282 84.6636 37.2388 83.5051 35.279 80.8213C33.3191 78.1522 32.3613 76.2603 32.4055 75.1458Z" fill="#0D131A"/>
<path d="M15.7394 90.6984C15.6657 90.4785 15.9457 90.1045 16.5793 89.5765C17.2277 89.0486 17.7139 88.8066 18.0381 88.8506C18.6276 88.9239 19.0328 89.5619 19.2538 90.7644C19.4601 91.879 19.4749 92.517 19.298 92.6783C19.0917 92.8689 18.517 92.7516 17.574 92.3263C16.5572 91.8717 15.9457 91.3291 15.7394 90.6984Z" fill="white"/>
<path d="M22.3262 92.3483C21.2947 91.879 20.779 91.4097 20.779 90.9404C20.779 90.5298 21.0811 90.0312 21.6852 89.4445C22.2747 88.8579 22.7241 88.6379 23.0336 88.7846C23.5198 89.0192 23.9177 89.7085 24.2272 90.8524C24.5219 91.9523 24.5366 92.5903 24.2714 92.7663C23.9914 92.9569 23.343 92.8176 22.3262 92.3483Z" fill="white"/>
<path d="M25.7965 91.0064C25.6934 90.2438 25.9734 89.5399 26.6365 88.8946L27.6753 88.1467C28.2206 88.3813 28.6479 89.0853 28.9573 90.2585C29.2373 91.3144 29.3036 91.9304 29.1563 92.1063L27.4101 92.0623C26.3786 91.813 25.8407 91.4611 25.7965 91.0064Z" fill="white"/>
<path d="M34.4833 92.8542C34.4538 92.4729 34.5864 92.0623 34.8811 91.6223C35.2348 91.0944 35.6842 90.8377 36.2295 90.8524C36.7747 90.8671 37.1946 91.0724 37.4894 91.4684C37.7251 91.835 37.8283 92.2823 37.7988 92.8102C37.7693 93.2942 37.5999 93.8368 37.2904 94.4381C36.9957 95.0394 36.7599 95.34 36.5831 95.34C36.3915 95.34 36.0084 95.0247 35.4337 94.3941C34.8296 93.7342 34.5127 93.2209 34.4833 92.8542Z" fill="white"/>
<path d="M38.8819 93.3382C38.8377 92.6196 39.0366 92.0256 39.4787 91.5564C39.8323 91.1604 40.186 90.9624 40.5397 90.9624C40.8049 90.9624 41.1143 91.1604 41.468 91.5564C41.8217 91.967 42.0427 92.3776 42.1311 92.7883C42.1901 93.0522 42.1237 93.5069 41.9322 94.1521C41.7406 94.8414 41.5122 95.252 41.247 95.384C40.9817 95.5307 40.5397 95.3694 39.9208 94.9001C39.2576 94.4161 38.9114 93.8955 38.8819 93.3382Z" fill="white"/>
<path d="M43.2363 93.2062C42.8237 92.7663 42.8605 92.099 43.3468 91.2044C43.8331 90.3098 44.312 89.9285 44.7835 90.0605C45.2256 90.2071 45.653 90.8231 46.0656 91.9083C46.4487 92.9496 46.5445 93.6169 46.3529 93.9102C46.1761 94.1741 45.7193 94.2328 44.9825 94.0862C44.231 93.9248 43.6489 93.6315 43.2363 93.2062Z" fill="white"/>
<path d="M50.7515 89.2026C50.6926 88.8946 50.9799 88.5133 51.6136 88.0587C52.2325 87.6187 52.6819 87.4574 52.9619 87.5747C53.4482 87.7947 53.765 88.4106 53.9124 89.4226C54.0597 90.4051 54.0008 90.9551 53.7355 91.0724C53.4703 91.1897 52.9472 91.0504 52.1662 90.6545C51.3262 90.2145 50.8547 89.7305 50.7515 89.2026Z" fill="white"/>
<path d="M56.7416 90.6984C55.8427 90.3905 55.3196 90.0385 55.1722 89.6425C55.0396 89.3052 55.268 88.8213 55.8574 88.1907C56.4469 87.5747 56.8742 87.3254 57.1394 87.4427C57.6552 87.6627 58.0162 88.2273 58.2225 89.1366C58.3993 89.9285 58.4141 90.4711 58.2667 90.7644L56.7416 90.6984Z" fill="white"/>
<path d="M59.1509 88.8726C58.9741 88.5206 59.2246 88.0147 59.9024 87.3547C60.5655 86.7094 61.0444 86.4455 61.3391 86.5628C61.6781 86.7094 62.0096 87.2447 62.3338 88.1687C62.6433 89.0779 62.7243 89.6352 62.5769 89.8405L60.8971 89.7965C59.9245 89.5619 59.3425 89.2539 59.1509 88.8726Z" fill="white"/>
<path d="M84.2164 92.2603C84.0101 92.055 84.1722 91.5271 84.7027 90.6765C85.2332 89.8112 85.6826 89.3859 86.051 89.4006C86.5373 89.4299 87.0825 89.9579 87.6867 90.9844C88.2614 91.9524 88.4824 92.5243 88.3498 92.7003C88.1877 92.9056 87.5614 92.9716 86.471 92.8983C85.3363 92.825 84.5848 92.6123 84.2164 92.2603Z" fill="white"/>
<path d="M89.035 91.0504C88.8287 90.8304 88.9613 90.2805 89.4328 89.4005C89.8897 88.5206 90.2875 88.0953 90.6264 88.1246C90.9506 88.154 91.4074 88.6673 91.9969 89.6645C92.5568 90.6471 92.7852 91.2484 92.6821 91.4684C92.5495 91.6884 92.0116 91.769 91.0685 91.7104C90.0665 91.6517 89.3886 91.4317 89.035 91.0504Z" fill="white"/>
<path d="M92.7263 89.0266C92.4905 88.7333 92.5642 88.176 92.9473 87.3547C93.3157 86.5628 93.6104 86.1815 93.8315 86.2108C94.2146 86.2548 94.6861 86.7388 95.2461 87.6627C95.7913 88.5719 95.9976 89.1439 95.865 89.3785C95.7618 89.6278 95.2977 89.7232 94.4725 89.6645C93.6031 89.6058 93.021 89.3932 92.7263 89.0266Z" fill="white"/>
<path d="M16.6898 89.4446L17.6624 90.6545C18.3108 91.5491 18.6718 92.2457 18.7455 92.7443L17.1982 91.9524C16.1815 91.3804 15.7026 90.9698 15.7615 90.7205C15.8204 90.4712 15.9973 90.1852 16.292 89.8625L16.6898 89.4446Z" fill="#DBDCDC"/>
<path d="M21.6632 89.5325L22.5031 90.5664C23.0925 91.3877 23.483 92.1283 23.6746 92.7883C21.8621 92.1577 20.9338 91.5344 20.8896 90.9184C20.8601 90.5371 20.978 90.1925 21.2432 89.8845L21.6632 89.5325Z" fill="#DBDCDC"/>
<path d="M28.6037 92.2603C27.6606 92.055 26.9828 91.8497 26.5702 91.6444C26.0986 91.4244 25.8334 91.1531 25.7744 90.8305C25.7155 90.5518 25.7744 90.2292 25.9513 89.8625L26.2386 89.4006C26.6365 89.5912 27.1227 90.0605 27.6974 90.8085C28.1837 91.4537 28.4858 91.9377 28.6037 92.2603Z" fill="#DBDCDC"/>
<path d="M35.3674 91.3144L35.5884 92.6563C35.78 93.6682 36.0158 94.4601 36.2958 95.0321L35.4558 94.3061C34.9106 93.7048 34.6527 93.0889 34.6822 92.4583C34.7117 92.0183 34.8222 91.6957 35.0138 91.4904C35.1611 91.329 35.279 91.2704 35.3674 91.3144Z" fill="#DBDCDC"/>
<path d="M39.346 92.0183L40.186 93.3822L41.2912 95.406C40.8786 95.274 40.466 95.0834 40.0534 94.8341C39.2282 94.3354 38.845 93.8002 38.904 93.2282C38.9629 92.6709 39.0513 92.3043 39.1692 92.1283L39.346 92.0183Z" fill="#DBDCDC"/>
<path d="M43.3468 91.2264L44.3856 92.2163C45.1224 92.9642 45.5719 93.5875 45.734 94.0861L44.3635 93.6462C43.4499 93.2942 43.0079 92.9496 43.0373 92.6123L43.2142 91.6223L43.3468 91.2264Z" fill="#DBDCDC"/>
<path d="M51.4809 88.2126C51.6135 88.3006 51.8935 88.6306 52.3208 89.2026C52.8513 89.9212 53.146 90.5005 53.205 90.9404L51.6135 90.1925C51.2009 89.9432 50.9873 89.6279 50.9725 89.2466C50.9578 88.9679 51.0388 88.7113 51.2157 88.4766L51.4809 88.2126Z" fill="#DBDCDC"/>
<path d="M55.6143 88.3447L56.3437 88.8506C56.9037 89.3639 57.39 90.0385 57.8026 90.8745L56.609 90.5445C55.7985 90.2512 55.3491 89.9139 55.2607 89.5326C55.1723 89.1513 55.2017 88.8433 55.3491 88.6086L55.6143 88.3447Z" fill="#DBDCDC"/>
<path d="M59.7698 87.4647L60.676 88.1247C61.3244 88.6966 61.7665 89.2906 62.0022 89.9065L60.7423 89.7305C59.8582 89.5106 59.3351 89.1806 59.173 88.7406C59.0846 88.5353 59.1214 88.2787 59.2835 87.9707C59.4308 87.6774 59.5929 87.5087 59.7698 87.4647Z" fill="#DBDCDC"/>
<path d="M84.7911 90.5665C86.0289 91.1531 87.0236 91.8864 87.7751 92.7663L86.1173 92.7883C85.0121 92.7296 84.4374 92.5096 84.3932 92.1283C84.349 91.747 84.4006 91.3731 84.548 91.0064L84.7911 90.5665Z" fill="#DBDCDC"/>
<path d="M89.4107 89.6205C89.6612 89.6939 90.0812 89.9139 90.6706 90.2805C91.4664 90.7644 91.96 91.2264 92.1516 91.6664L90.6043 91.6004C89.5581 91.4831 89.0276 91.2557 89.0129 90.9184C88.9834 90.5958 89.0423 90.2805 89.1897 89.9725L89.4107 89.6205Z" fill="#DBDCDC"/>
<path d="M92.9031 87.4647L93.8757 88.0587C94.5977 88.5573 95.0988 89.0853 95.3787 89.6425L94.2294 89.5545C93.4336 89.4372 92.94 89.2392 92.7484 88.9606C92.5568 88.682 92.5274 88.3447 92.66 87.9487L92.9031 87.4647Z" fill="#DBDCDC"/>
<path d="M83.7964 92.3923C83.6786 91.967 83.9143 91.285 84.5038 90.3464C85.0932 89.3932 85.6016 88.9092 86.0289 88.8946C86.4562 88.8799 87.053 89.4372 87.8193 90.5664C88.5708 91.6663 88.895 92.4143 88.7919 92.8102C88.7034 93.1622 87.8782 93.2722 86.3163 93.1402C84.7543 93.0082 83.9143 92.7589 83.7964 92.3923ZM85.2332 90.6764C84.8648 91.263 84.7174 91.6883 84.7911 91.9523C84.9385 92.1576 85.4616 92.3263 86.3605 92.4583C87.2299 92.5903 87.7014 92.5829 87.7751 92.4363C87.8488 92.275 87.6498 91.8057 87.1783 91.0284C86.6773 90.2365 86.2868 89.8332 86.0068 89.8185C85.8447 89.8038 85.5868 90.0898 85.2332 90.6764Z" fill="#0D131A"/>
<path d="M92.2179 91.2924C92.3063 91.1604 92.1147 90.6911 91.6432 89.8845C91.1864 89.0779 90.8401 88.6526 90.6043 88.6086C90.4275 88.594 90.177 88.9019 89.8528 89.5326C89.5139 90.1632 89.3739 90.6031 89.4328 90.8524C89.477 91.0724 89.9412 91.2337 90.8253 91.3364L92.2179 91.2924ZM90.7148 87.6187C91.1864 87.6774 91.7463 88.33 92.3947 89.5766C93.0136 90.7645 93.2567 91.4977 93.1241 91.7764C92.9915 92.0697 92.2915 92.1577 91.0243 92.0404C89.7275 91.9084 88.9465 91.659 88.6813 91.2924C88.4455 90.9698 88.6002 90.2732 89.1455 89.2026C89.6907 88.088 90.2138 87.5601 90.7148 87.6187Z" fill="#0D131A"/>
<path d="M93.2347 87.5967C93.0136 88.0953 92.9694 88.506 93.1021 88.8286C93.161 89.0046 93.5515 89.1439 94.2735 89.2466L95.445 89.1806C95.5334 89.0339 95.3787 88.6086 94.9809 87.9047C94.583 87.1567 94.2367 86.7901 93.942 86.8048C93.6915 86.8341 93.4557 87.0981 93.2347 87.5967ZM92.7484 87.0467C93.2052 86.2108 93.5957 85.7928 93.9199 85.7928C94.4651 85.7928 95.0398 86.4015 95.644 87.6187C96.2334 88.7919 96.4397 89.5252 96.2629 89.8185L94.2957 89.8845C93.0873 89.7379 92.4316 89.5325 92.3284 89.2686C92.1074 88.6966 92.2474 87.956 92.7484 87.0467Z" fill="#0D131A"/>
<path d="M41.247 91.8643C40.9964 91.571 40.7533 91.439 40.5175 91.4684C40.1786 91.483 39.8765 91.6957 39.6113 92.1063C39.346 92.5023 39.2355 92.8836 39.2797 93.2502C39.3239 93.5875 39.6113 93.9688 40.1418 94.3941C40.6575 94.7901 41.0038 94.9514 41.1806 94.8781C41.2985 94.8341 41.4238 94.6214 41.5564 94.2401C41.7332 93.8002 41.7922 93.3895 41.7332 93.0082C41.689 92.5536 41.5269 92.1723 41.247 91.8643ZM38.9482 91.5784C39.4492 90.8451 39.9944 90.5004 40.5838 90.5444C41.0112 90.5738 41.3943 90.7938 41.7332 91.2044C42.0722 91.615 42.2858 92.121 42.3742 92.7223C42.4774 93.3089 42.4332 93.9468 42.2416 94.6361C42.0501 95.3107 41.8143 95.6993 41.5343 95.802C41.1806 95.934 40.6133 95.7433 39.8323 95.2301C38.9924 94.6581 38.5135 94.0348 38.3956 93.3602C38.3072 92.8469 38.4914 92.253 38.9482 91.5784Z" fill="#0D131A"/>
<path d="M37.0252 91.8204C36.8336 91.5564 36.6199 91.4097 36.3842 91.3804C36.1042 91.3511 35.8095 91.4684 35.5 91.7324C35.1758 91.9963 35.0137 92.2823 35.0137 92.5903C35.0285 92.9716 35.2421 93.4262 35.6547 93.9542C36.0231 94.4528 36.2958 94.7021 36.4726 94.7021C36.6347 94.6874 36.8115 94.4748 37.0031 94.0642C37.2094 93.6535 37.3199 93.2429 37.3346 92.8323C37.3494 92.451 37.2462 92.1137 37.0252 91.8204ZM34.7485 91.0944C35.2937 90.6104 35.8611 90.4051 36.4505 90.4785C36.9368 90.5371 37.3567 90.8011 37.7104 91.2704C38.0493 91.7397 38.204 92.2603 38.1746 92.8323C38.1598 93.3016 37.9756 93.9028 37.622 94.6361C37.2388 95.3987 36.9073 95.7947 36.6273 95.824C36.3031 95.868 35.7947 95.494 35.1022 94.7021C34.3654 93.8808 33.9822 93.1842 33.9528 92.6123C33.9233 92.0697 34.1885 91.5637 34.7485 91.0944Z" fill="#0D131A"/>
<path d="M45.5351 91.3804C45.1962 90.9111 44.8867 90.6765 44.6067 90.6765C44.3267 90.6471 44.0468 90.8525 43.7668 91.2924C43.4721 91.747 43.3616 92.1723 43.4352 92.5683C43.5089 92.9203 43.9215 93.2283 44.673 93.4922C45.3951 93.7269 45.8151 93.7929 45.9329 93.6902C46.0361 93.6022 46.0582 93.2943 45.9992 92.7663C45.9403 92.1943 45.7856 91.7324 45.5351 91.3804ZM44.7614 89.7086C45.4835 89.8112 46.0508 90.5665 46.4634 91.9744C46.8466 93.2943 46.9202 94.0862 46.6845 94.3502L44.6067 94.2182C43.3689 93.8809 42.6984 93.4409 42.5953 92.8983C42.4774 92.297 42.6469 91.6077 43.1037 90.8305C43.6047 89.9945 44.1573 89.6206 44.7614 89.7086Z" fill="#0D131A"/>
<path d="M29.3552 90.0825C29.7236 91.4904 29.7604 92.2823 29.4657 92.4583C29.0826 92.6783 28.3311 92.6343 27.2112 92.3263C26.047 92.0037 25.3987 91.615 25.266 91.1604C25.0892 90.6178 25.2955 89.9212 25.8849 89.0706C26.4891 88.1907 27.0933 87.7727 27.6974 87.8167C28.4048 87.8607 28.9573 88.6159 29.3552 90.0825ZM26.1944 90.8084C26.2386 91.1164 26.6438 91.395 27.4101 91.6444C28.1469 91.879 28.5963 91.923 28.7584 91.7764C28.8763 91.6737 28.81 91.1824 28.5595 90.3025C28.2942 89.3639 27.9848 88.8653 27.6311 88.8066C27.3364 88.7626 27.0122 88.9606 26.6586 89.4006C26.2607 89.8698 26.106 90.3391 26.1944 90.8084Z" fill="#0D131A"/>
<path d="M21.3095 90.9405C21.3095 91.2778 21.7147 91.6297 22.5252 91.9964C23.3209 92.3483 23.7777 92.4437 23.8956 92.2823C24.0282 92.121 23.9914 91.6444 23.7851 90.8525C23.564 90.0019 23.2767 89.5399 22.923 89.4666C22.5841 89.3932 22.2305 89.5472 21.8621 89.9285C21.5231 90.2805 21.339 90.6031 21.3095 90.8965V90.9405ZM21.2874 89.2026C21.921 88.616 22.481 88.3667 22.9673 88.4547C23.704 88.5866 24.2345 89.3566 24.5587 90.7645C24.8682 92.099 24.8755 92.891 24.5808 93.1403C24.3008 93.4042 23.5198 93.2576 22.2378 92.7003C20.8969 92.143 20.2559 91.5124 20.3148 90.8085C20.359 90.3098 20.6832 89.7745 21.2874 89.2026Z" fill="#0D131A"/>
<path d="M59.593 88.5646C59.6372 88.8579 60.0645 89.1366 60.875 89.4005C61.656 89.6498 62.098 89.7085 62.2012 89.5765C62.3043 89.4445 62.238 88.9899 62.0023 88.2126C61.7518 87.3914 61.4791 86.9661 61.1844 86.9367C60.9339 86.9074 60.595 87.0981 60.1677 87.5087C59.7403 87.934 59.5488 88.286 59.593 88.5646ZM59.6151 87.0907C60.3813 86.3575 60.9855 86.0641 61.4276 86.2108C61.9875 86.4161 62.4443 87.1127 62.798 88.3006C63.1369 89.4299 63.1959 90.0971 62.9748 90.3025C62.7538 90.4931 62.0317 90.4271 60.8087 90.1045C59.5561 89.7672 58.8562 89.3932 58.7088 88.9826C58.532 88.4693 58.8341 87.8387 59.6151 87.0907Z" fill="#0D131A"/>
<path d="M56.7858 90.3245C57.4342 90.5444 57.81 90.6031 57.9131 90.5004C58.0163 90.3978 57.9941 89.9798 57.8468 89.2466C57.6847 88.4693 57.4563 88.044 57.1616 87.9707C56.8669 87.8973 56.5206 88.0586 56.1227 88.4546C55.7248 88.8652 55.5627 89.2246 55.6364 89.5325C55.7248 89.8405 56.108 90.1045 56.7858 90.3245ZM57.3384 87.1567C57.8247 87.274 58.2299 87.912 58.5541 89.0706C58.8488 90.1998 58.8783 90.9404 58.6425 91.2924C58.4952 91.5124 57.8394 91.417 56.6753 91.0064C55.467 90.5811 54.8186 90.1338 54.7302 89.6645C54.627 89.1952 54.907 88.6306 55.5701 87.9707C56.248 87.2961 56.8374 87.0247 57.3384 87.1567Z" fill="#0D131A"/>
<path d="M52.3209 90.2805C52.9693 90.6325 53.3598 90.7645 53.4924 90.6765C53.6103 90.6031 53.625 90.1778 53.5366 89.4006C53.4334 88.5793 53.2271 88.1173 52.9177 88.0147C52.623 87.912 52.2693 88.0147 51.8567 88.3227C51.4588 88.616 51.2673 88.9093 51.282 89.2026C51.2967 89.5546 51.643 89.9139 52.3209 90.2805ZM53.1608 87.2008C53.7797 87.3327 54.1481 88.0587 54.266 89.3786C54.3692 90.6251 54.2955 91.3364 54.045 91.5124C53.765 91.6884 53.0724 91.4831 51.9672 90.8964C50.8473 90.2805 50.2652 89.7452 50.221 89.2906C50.1768 88.8653 50.4937 88.3813 51.1715 87.8387C51.8935 87.2814 52.5567 87.0688 53.1608 87.2008Z" fill="#0D131A"/>
<path d="M17.4856 91.6664C18.2666 92.0623 18.716 92.187 18.8339 92.0403C18.9665 91.8937 18.9444 91.4317 18.7676 90.6544C18.576 89.8478 18.3476 89.4079 18.0824 89.3346C17.7729 89.2319 17.3972 89.3492 16.9551 89.6865C16.513 90.0238 16.292 90.3538 16.292 90.6764C16.3067 90.9258 16.7046 91.2557 17.4856 91.6664ZM18.2813 88.3446C18.9149 88.4766 19.3644 89.2466 19.6296 90.6544C19.8801 92.0037 19.8728 92.7589 19.6075 92.9203C19.1507 93.2282 18.3255 93.0669 17.1319 92.4363C15.9531 91.8203 15.3415 91.2704 15.2973 90.7864C15.2384 90.2291 15.5847 89.6499 16.3362 89.0486C17.073 88.462 17.7214 88.2273 18.2813 88.3446Z" fill="#0D131A"/>
</svg>
