<svg width="201" height="209" viewBox="0 0 201 209" fill="none" xmlns="http://www.w3.org/2000/svg">
<path d="M152.917 173.858L156.234 175.532C158.714 176.875 160.647 178.136 162.031 179.314C163.705 180.761 163.891 182.714 162.589 185.174C161.267 187.654 159.262 189.018 156.575 189.266C154.57 189.431 151.274 190.237 146.685 191.684C141.601 193.276 138.356 194.195 136.951 194.443C134.656 194.857 130.471 194.061 124.395 192.056C119.6 190.465 115.662 188.894 112.583 187.344C110.64 186.393 109.555 185.029 109.328 183.252C109.121 181.825 109.452 180.327 110.32 178.756L118.318 175.098L152.917 173.858Z" fill="#3396CD"/>
<path d="M152.917 173.858L154.622 174.664L158.404 176.772C154.27 176.09 149.858 175.811 145.166 175.935C140.02 176.059 135.679 176.689 132.145 177.826C128.074 179.108 125.593 180.926 124.705 183.283C123.671 186.011 124.829 189.318 128.177 193.203C125.407 192.439 122.39 191.426 119.124 190.165C116.313 189.07 114.133 188.129 112.583 187.344C110.64 186.393 109.555 185.029 109.328 183.252C109.121 181.825 109.452 180.327 110.32 178.756L118.318 175.098L152.917 173.858Z" fill="#2880AE"/>
<path d="M156.637 149.242C161.163 154.368 162.879 158.16 161.783 160.62C159.696 165.353 157.732 168.856 155.893 171.13C152.524 175.263 148.421 177.599 143.585 178.136C137.963 178.756 133.055 178.591 128.859 177.64L123.837 176.524L117.326 175.935L149.537 142.298L151.832 144.344L156.637 149.242Z" fill="#3396CD"/>
<path d="M151.832 144.344L156.637 149.242C161.163 154.368 162.879 158.16 161.783 160.62L160.295 163.906C154.219 163.266 147.936 164.227 141.446 166.789C134.646 169.476 130.151 173.031 127.96 177.454L123.341 176.431L117.326 175.935L149.537 142.298L151.832 144.344Z" fill="#2880AE"/>
<path d="M166.713 183.686C168.428 185.401 170.009 187.447 171.456 189.824L163.24 189.545C160.698 189.214 158.642 188.718 157.071 188.057C157.546 186.114 158.394 184.409 159.613 182.942C160.729 181.578 161.69 180.916 162.496 180.957C163.55 181.019 164.956 181.929 166.713 183.686Z" fill="#EEEEEF"/>
<path d="M136.703 193.513C137.178 192.067 138.449 190.413 140.516 188.553C142.603 186.693 144.174 185.825 145.228 185.949C146.303 186.052 148.235 187.509 151.026 190.32C153.795 193.131 155.283 195.115 155.49 196.273C153.154 196.376 149.889 196.128 145.693 195.528C141.394 194.908 138.397 194.237 136.703 193.513Z" fill="#EEEEEF"/>
<path d="M46.6721 120.999C47.0235 118.726 47.3025 115.016 47.5092 109.869C47.6745 105.942 47.7572 102.584 47.7572 99.7936C47.7572 97.8714 48.6873 96.2593 50.5474 94.9572C52.3869 93.6551 53.7613 93.6448 54.6707 94.9262C55.7248 96.3523 57.1302 97.7371 58.887 99.0805C61.4705 101.044 63.961 102.057 66.3585 102.119C68.6527 102.181 69.5414 103.08 69.0247 104.816C68.7767 105.705 68.291 106.573 67.5676 107.42L46.6721 120.999Z" fill="#3396CD"/>
<path d="M69.0247 104.816C68.7767 105.705 68.291 106.573 67.5676 107.42L64.0954 109.683C61.7599 107.906 59.4347 105.488 57.1199 102.429C55.1771 99.8246 53.9886 97.8612 53.5546 96.5384C53.2653 95.6083 53.3169 95.009 53.7096 94.7403C54.0817 94.4716 54.402 94.5336 54.6707 94.9263C55.7248 96.3524 57.1302 97.7372 58.887 99.0806C61.4705 101.044 63.961 102.057 66.3585 102.119C68.6527 102.181 69.5414 103.08 69.0247 104.816Z" fill="#2880AE"/>
<path d="M77.8913 68.9464C79.2968 69.8765 81.6013 71.1992 84.8049 72.9147C88.3391 74.7955 91.057 76.1182 92.9584 76.883L95.1596 79.8282L77.9844 98.3055C76.5169 99.4836 75.0908 100.352 73.706 100.91C70.9779 102.046 69.8824 101.096 70.4198 98.0575C70.9779 94.9159 71.2465 90.4619 71.2259 84.6955C71.2052 80.8099 71.0709 77.224 70.8228 73.9378C70.6782 72.0776 71.5152 70.5585 73.334 69.3804C75.0908 68.2437 76.6099 68.099 77.8913 68.9464Z" fill="#3396CD"/>
<path d="M91.1912 84.1065C88.525 82.2877 85.6314 79.8695 82.5106 76.852C79.6377 74.0618 78.0152 72.2326 77.6432 71.3646C77.3539 70.7032 77.2918 70.0935 77.4572 69.5354C77.6019 69.0394 77.7465 68.8431 77.8912 68.9464C79.2967 69.8765 81.6012 71.1992 84.8047 72.9147C88.339 74.7955 91.0568 76.1182 92.9583 76.883L95.1595 79.8282L91.1912 84.1065Z" fill="#2880AE"/>
<path d="M94.1675 79.7661L87.595 182.942C79.8858 183.004 72.8586 181.691 66.5135 179.004C60.499 176.441 56.3964 171.812 54.2056 165.115C52.3868 159.556 51.9528 152.807 52.9035 144.871C53.6682 138.464 55.1977 131.984 57.4918 125.432C59.4966 119.769 61.3154 115.935 62.9482 113.931C64.209 112.38 69.5724 106.686 79.0384 96.8484C87.533 88.0644 92.576 82.3703 94.1675 79.7661Z" fill="white"/>
<path d="M128.053 67.7993C150.023 61.4955 161.174 60.9374 161.504 66.1251C162.352 79.0427 162.207 90.9063 161.07 101.716C159.024 121.433 153.971 137.761 145.91 150.699C139.751 160.579 132.114 168.05 122.999 173.114C113.781 178.24 101.98 181.515 87.5949 182.942C80.8158 183.603 74.9357 181.319 69.9546 176.09C65.5937 171.543 62.3178 165.26 60.1269 157.241C58.1015 149.883 57.3471 142.546 57.8638 135.229C58.3598 127.83 60.0339 122.384 62.8861 118.891L95.1595 78.8051L105.421 75.0848C113.606 72.2119 121.15 69.7834 128.053 67.7993Z" fill="#3396CD"/>
<path d="M126.813 88.9738C128.818 85.9769 131.794 82.7113 135.741 79.1771C139.338 75.9529 143.151 73.018 147.181 70.3724C151.17 67.7476 154.477 66.0011 157.102 65.1331C159.933 64.2237 161.401 64.5544 161.504 66.1251C162.352 79.0427 162.207 90.9063 161.07 101.716C159.024 121.433 153.971 137.761 145.91 150.699C139.978 160.186 132.714 167.451 124.116 172.494C115.414 177.578 104.398 180.926 91.0672 182.539C92.886 181.939 94.8495 180.492 96.9576 178.198C100.203 174.685 102.393 172.442 103.53 171.471C113.885 169.383 123.423 164.103 132.145 155.629C140.247 147.733 145.993 138.815 149.382 128.874C152.855 118.643 152.896 109.942 149.506 102.77C145.745 94.7712 138.18 90.1725 126.813 88.9738Z" fill="#2880AE"/>
<path d="M90.4782 165.735L98.0737 164.991C109.049 167.823 118.701 167.895 127.03 165.208C129.758 164.34 132.476 163.11 135.183 161.519L140.175 158.45C138.501 160.579 136.403 162.78 133.881 165.053C129.81 168.712 125.314 171.884 120.395 174.571C115.125 177.464 109.503 179.624 103.53 181.05C98.7971 182.187 93.227 182.983 86.8199 183.438C82.0249 183.768 80.0304 183.231 80.8365 181.825C81.1052 181.35 81.7562 180.699 82.7896 179.872L85.2698 177.95C87.3159 176.214 88.8041 173.662 89.7341 170.293L90.4782 165.735Z" fill="#FFF1AC"/>
<path d="M86.8199 183.438C82.0249 183.768 80.0304 183.231 80.8365 181.825C81.1052 181.35 81.7562 180.699 82.7896 179.872L85.2698 177.95C86.8406 176.627 88.0807 174.819 88.9901 172.525C99.6135 172.835 108.563 171.037 115.838 167.13C121.584 166.903 126.906 165.622 131.804 163.286C134.408 162.046 137.199 160.434 140.175 158.45C138.501 160.579 136.403 162.78 133.881 165.053C129.81 168.712 125.314 171.884 120.395 174.571C115.125 177.464 109.503 179.624 103.53 181.05C98.7971 182.187 93.227 182.983 86.8199 183.438Z" fill="#DCD096"/>
<path d="M1.59478 117.341C1.96681 116.7 2.41118 116.297 2.92788 116.132C3.42392 115.966 3.84761 116.039 4.19897 116.349C8.12592 119.759 11.5982 122.477 14.6157 124.502C17.2819 126.301 19.9274 127.778 22.5523 128.936L46.238 136.841L42.5487 174.974C26.6963 168.257 15.2564 158.698 8.22926 146.297C5.89376 142.184 4.09563 137.823 2.83487 133.214L1.19175 125.37C0.46837 121.733 0.602713 119.056 1.59478 117.341Z" fill="#3396CD"/>
<path d="M28.5357 164.34C32.69 166.138 37.547 167.792 43.1067 169.301L42.5487 174.974C32.1113 170.53 23.5443 164.826 16.8478 157.861C20.3408 160.32 24.2367 162.48 28.5357 164.34Z" fill="#2880AE"/>
<path d="M27.7297 120.844L29.4039 113.59C29.6726 112.412 30.644 112.112 32.3181 112.691C33.9509 113.249 34.9843 114.106 35.4183 115.264L38.0845 122.27C39.5313 126.073 40.4717 128.481 40.9057 129.494L37.6195 136.066C33.6925 135.549 30.0963 134.547 26.8307 133.059C23.7511 131.633 22.325 130.444 22.5524 129.494C24.7432 127.654 26.469 124.771 27.7297 120.844Z" fill="#3396CD"/>
<path d="M35.4182 115.264L38.0844 122.27C39.5311 126.073 40.4715 128.481 40.9056 129.494L38.3324 134.671C36.8443 131.778 35.6662 128.347 34.7981 124.378C34.0541 121.071 33.7234 118.488 33.806 116.628C33.8474 115.346 34.1057 114.675 34.5811 114.613C34.9531 114.571 35.2321 114.788 35.4182 115.264Z" fill="#2880AE"/>
<path d="M172.448 112.629L172.541 119.511C172.768 124.409 173.254 127.665 173.998 129.277C174.432 130.207 174.091 130.93 172.975 131.447C171.983 131.922 170.598 132.16 168.821 132.16C167.043 132.16 165.441 131.912 164.015 131.416C162.403 130.879 161.401 130.165 161.008 129.277C159.995 127.045 159.644 123.862 159.954 119.728C160.223 116.152 160.657 113.962 161.256 113.156C161.876 112.329 163.726 112.008 166.806 112.194L172.448 112.629Z" fill="#3396CD"/>
<path d="M172.448 112.629L172.479 117.837C169.833 115.625 167.725 116.659 166.155 120.937C164.935 124.285 164.367 127.83 164.449 131.571C162.589 131.013 161.442 130.248 161.008 129.277C159.995 127.045 159.644 123.862 159.954 119.728C160.223 116.152 160.657 113.962 161.256 113.156C161.876 112.329 163.726 112.008 166.806 112.194L172.448 112.629Z" fill="#2880AE"/>
<path d="M174.773 100.259C175.373 102.408 175.559 104.651 175.331 106.986C175.166 108.97 174.825 110.262 174.308 110.861C173.606 111.667 171.735 112.184 168.697 112.411L163.085 112.504L160.729 104.816L161.442 90.0589C168.593 90.6376 173.037 94.0375 174.773 100.259Z" fill="#3396CD"/>
<path d="M172.076 94.9882C172.593 96.6003 171.766 99.2975 169.596 103.08C167.798 106.201 165.607 109.27 163.023 112.287L160.729 104.816L161.442 90.0589C166.113 90.4309 169.658 92.074 172.076 94.9882Z" fill="#2880AE"/>
<path d="M177.036 140.717C176.644 144.147 175.91 147.289 174.835 150.141C171.942 157.809 167.477 161.24 161.442 160.434C155.635 159.669 151.873 157.385 150.157 153.582C149.496 152.115 149.031 150.183 148.762 147.785L148.173 141.12L161.721 127.014C163.561 126.083 166.32 126.114 169.999 127.107C174.215 128.223 176.571 130.3 177.067 133.338C177.377 135.26 177.367 137.72 177.036 140.717Z" fill="#3396CD"/>
<path d="M169.193 126.921C164.894 128.657 162.672 133.317 162.527 140.903C162.383 147.992 163.902 154.265 167.085 159.721C165.328 160.486 163.447 160.723 161.442 160.434C155.635 159.669 151.873 157.385 150.157 153.582C149.496 152.115 149.031 150.183 148.762 147.785L148.173 141.12L161.721 127.014C162.383 126.683 163.395 126.507 164.76 126.487L169.193 126.921Z" fill="#2880AE"/>
<path d="M166.806 152.373C167.054 153.696 166.795 155.019 166.031 156.342C165.287 157.582 164.491 158.222 163.644 158.264C162.569 158.305 161.556 157.52 160.605 155.908C159.696 154.275 159.52 153.045 160.078 152.218C160.698 151.288 161.887 150.772 163.644 150.668C165.504 150.544 166.558 151.113 166.806 152.373Z" fill="#EEEEEF"/>
<path d="M160.078 152.218C160.347 151.805 160.853 151.443 161.597 151.133C162.321 150.844 163.065 150.689 163.83 150.668C162.238 151.929 162.331 154.42 164.109 158.14L163.644 158.264C162.569 158.305 161.556 157.52 160.605 155.908C159.696 154.275 159.52 153.045 160.078 152.218Z" fill="#C8C9CA"/>
<path d="M152.142 155.505C152.948 155.505 154.053 155.928 155.459 156.776C156.823 157.602 157.722 158.367 158.156 159.07C158.487 159.649 157.495 160.279 155.18 160.961L151.584 161.829L151.46 158.667C151.46 156.559 151.687 155.505 152.142 155.505Z" fill="#C8C9CA"/>
<path d="M162.248 159.504C162.744 158.863 163.902 158.243 165.721 157.644C167.457 157.086 168.728 156.869 169.534 156.993C170.175 157.096 169.648 158.098 167.953 160L165.256 162.79L163.489 161.488C162.372 160.537 161.959 159.876 162.248 159.504Z" fill="#EEEEEF"/>
<path d="M164.636 158.047C164.264 158.75 164.212 159.504 164.481 160.31C164.667 160.847 165.07 161.529 165.69 162.356L165.256 162.79L163.489 161.488C162.372 160.537 161.959 159.876 162.248 159.504C162.641 159.029 163.437 158.543 164.636 158.047Z" fill="#C8C9CA"/>
<path d="M105.886 3.65569C107.622 2.06424 109.038 1.28918 110.134 1.33052C110.774 1.35119 111.529 1.79555 112.397 2.66361C112.955 3.22165 113.079 4.08972 112.769 5.2678L111.436 8.86406C115.611 10.6209 119.403 13.318 122.814 16.9556C126.162 20.5106 128.332 24.0965 129.324 27.7134L99.5619 45.7567L93.8575 44.6406C90.2612 35.216 90.7159 26.06 95.2216 17.1727C97.6397 12.4397 101.195 7.93399 105.886 3.65569Z" fill="#3396CD"/>
<path d="M125.728 20.5209C127.485 22.9804 128.683 25.3779 129.324 27.7134L99.5619 45.7567L97.7948 45.3847C98.2908 36.2287 100.192 28.3438 103.499 21.73C107.716 13.318 113.058 10.7035 119.527 13.8864C121.946 15.8912 124.012 18.1027 125.728 20.5209Z" fill="#2880AE"/>
<path d="M147.894 24.3652C148.08 28.4575 148.287 31.7437 148.514 34.2239L150.312 37.0451C151.718 39.4012 152.968 41.7471 154.064 44.0826C157.557 51.5851 158.797 57.6306 157.784 62.2189C157.391 63.955 156.203 65.7221 154.219 67.5203C151.511 69.7111 149.351 71.5609 147.739 73.0697C145.424 75.1985 142.355 76.5729 138.532 77.193L127.495 77.658L115.993 78.34C111.797 79.1254 108.263 80.7272 105.39 83.1454L102.848 84.9745C99.9132 84.7058 97.433 83.0317 95.4075 79.9522C93.4854 77.0586 92.2659 73.4107 91.7492 69.0084C91.2119 64.5234 91.4909 60.0901 92.5863 55.7084C93.8057 50.9341 95.8519 46.9141 98.7247 43.6486C102.28 39.6183 107.581 36.146 114.629 33.2318C116.489 32.4671 118.959 31.5473 122.038 30.4726L126.72 28.7055C128.229 27.8788 130.853 25.8429 134.594 22.598L142.004 16.0256C143.368 14.8061 144.618 14.4238 145.755 14.8785C146.768 15.2918 147.357 16.2116 147.522 17.6377L147.894 24.3652Z" fill="#3396CD"/>
<path d="M145.445 24.1792C145.941 19.6735 146.086 16.5939 145.879 14.9405C146.809 15.4159 147.357 16.3149 147.522 17.6377L147.894 24.3652C148.08 28.4575 148.287 31.7437 148.514 34.2239L149.444 35.464L148.235 37.9441L147.088 40.4553L144.608 35.991C143.967 34.6476 143.75 33.6555 143.957 33.0148C144.453 31.5474 144.949 28.6021 145.445 24.1792Z" fill="#2880AE"/>
<path d="M100.678 45.2916C101.98 45.2503 102.445 46.201 102.073 48.1438C101.763 49.8386 100.926 51.8434 99.5619 54.1583C98.2184 56.4731 96.8957 58.1782 95.5936 59.2736C94.1055 60.4931 93.0927 60.4931 92.5554 59.2736C90.3025 54.2926 88.4527 50.717 87.006 48.5469C86.3859 47.6168 86.2929 46.8004 86.7269 46.0977C87.1196 45.4363 87.7604 45.116 88.6491 45.1366L93.5784 45.2916C96.0793 45.3743 98.4458 45.3743 100.678 45.2916Z" fill="#3396CD"/>
<path d="M100.678 47.0278C102.29 46.9658 102.342 49.1566 100.833 53.6003C100.254 55.2744 99.6239 56.6798 98.9419 57.8166C98.2391 59.0154 97.7431 59.4184 97.4538 59.0257C95.883 56.8349 94.4362 54.6647 93.1134 52.5152C90.9226 48.9603 90.1579 47.1002 90.8193 46.9348C91.398 46.7901 92.7207 46.7798 94.7876 46.9038C97.4331 47.0278 99.3966 47.0692 100.678 47.0278Z" fill="#2880AE"/>
<path d="M137.447 49.1979L139.896 52.0811C141.632 54.7473 142.769 57.9096 143.306 61.5678C140.33 63.5726 136.806 64.9471 132.734 65.6911C129.696 66.2698 126.058 66.5178 121.821 66.4352C122.566 62.2809 124.725 58.4676 128.301 54.9954C131.277 52.1018 134.326 50.1693 137.447 49.1979Z" fill="white"/>
<path d="M140.268 52.7012C137.788 52.5152 134.532 53.7863 130.502 56.5145C126.058 59.532 123.299 62.8389 122.224 66.4352H121.821C122.566 62.2809 124.725 58.4676 128.301 54.9954C131.277 52.1018 134.326 50.1693 137.447 49.1979L138.315 50.035C139.017 50.7997 139.668 51.6884 140.268 52.7012Z" fill="#DBDCDC"/>
<path d="M128.084 55.2124C130.502 55.6464 132.073 57.1965 132.796 59.8627C133.499 62.4256 133.096 64.3994 131.587 65.7842C129.81 66.1975 128.167 66.4352 126.658 66.4972L121.821 66.4352C122.193 64.3271 123.051 62.1362 124.395 59.8627C125.614 57.7753 126.844 56.2251 128.084 55.2124Z" fill="#0D131A"/>
<path d="M148.669 72.8527C148.793 74.7128 148.308 76.7486 147.212 78.9601C145.001 83.4244 140.836 86.5763 134.718 88.4158C128.807 90.2139 122.121 89.9142 114.66 87.5167C112.324 86.752 110.051 85.8323 107.839 84.7575L105.235 83.3624C107.467 80.2829 113.11 78.3297 122.163 77.503C123.32 77.3996 125.376 77.3583 128.332 77.379C131.412 77.3996 133.757 77.348 135.369 77.224C141.115 76.7693 145.28 75.1262 147.863 72.2946L148.669 72.8527Z" fill="#FFF1AC"/>
<path d="M148.669 72.8527C148.793 74.7128 148.308 76.7486 147.212 78.9601C145.001 83.4244 140.836 86.5763 134.718 88.4158C130.688 89.6352 126.275 89.8729 121.48 89.1288C123.547 89.3355 125.604 89.1702 127.65 88.6328C130.089 87.9921 132.083 86.907 133.633 85.3776C135.349 83.6828 135.772 82.2567 134.904 81.0992C134.078 80.0038 132.352 79.4561 129.727 79.4561C125.283 79.4561 120.561 79.1151 115.559 78.4331L122.162 77.503C123.32 77.3996 125.376 77.3583 128.332 77.379C131.411 77.3996 133.757 77.348 135.369 77.224C141.115 76.7693 145.28 75.1262 147.863 72.2946L148.669 72.8527Z" fill="#DCD096"/>
<path d="M190.181 30.8446C189.995 34.7096 189.644 38.1508 189.127 41.1684C187.37 51.2338 183.588 58.0336 177.78 61.5678C172.551 64.7301 168.49 66.5695 165.597 67.0862C163.323 67.4996 160.337 67.1792 156.637 66.1252C155.004 65.6705 153.32 64.2444 151.584 61.8469C149.992 59.6354 148.607 56.9692 147.429 53.8483C146.251 50.6861 145.528 47.6995 145.259 44.8886C144.97 41.8298 145.29 39.4736 146.22 37.8201L149.258 31.8987C150.623 29.2325 151.832 27.0727 152.886 25.4192C156.089 20.3969 159.613 17.2656 163.457 16.0256C167.26 14.7855 173.295 14.0931 181.563 13.9484C185.82 13.8657 190.305 13.9071 195.018 14.0724C196.774 14.0724 197.922 14.4651 198.459 15.2505C199.1 16.2219 198.604 17.6687 196.971 19.5908C195.751 21.0376 194.305 22.257 192.631 23.2491C191.39 23.9725 190.667 24.7062 190.46 25.4502C190.419 25.5742 190.326 27.3724 190.181 30.8446Z" fill="#3396CD"/>
<path d="M171.27 21.2029C175.776 21.2029 178.907 22.7737 180.664 25.9152C182.627 29.3875 182.751 34.5442 181.036 41.3854C179.279 48.4745 176.21 53.9206 171.828 57.7235C167.508 61.4851 162.879 62.8699 157.939 61.8778C158.208 56.7315 157.092 52.3085 154.591 48.6089C153.826 47.4721 152.958 46.4697 151.987 45.6017L150.778 44.6406C150.943 43.2972 151.708 41.344 153.072 38.7812C154.477 36.115 156.151 33.5108 158.094 30.9686C163.075 24.4581 167.467 21.2029 171.27 21.2029Z" fill="#D8BA9D"/>
<path d="M177.594 22.753C179.372 23.8278 180.643 25.4399 181.408 27.5894C175.476 30.9376 170.795 35.929 167.364 42.5634C163.953 49.1566 162.703 55.6051 163.612 61.9088C161.711 62.2602 159.82 62.2499 157.939 61.8778C158.208 56.7315 157.092 52.3085 154.591 48.6089C153.826 47.4721 152.958 46.4697 151.987 45.6017L150.778 44.6406C150.943 43.2972 151.708 41.344 153.072 38.7812C154.477 36.115 156.151 33.5108 158.094 30.9686C163.075 24.4581 167.467 21.2029 171.27 21.2029C173.792 21.2029 175.9 21.7196 177.594 22.753Z" fill="#B19981"/>
<path d="M166.682 29.7905C168.666 30.6172 170.195 32.095 171.27 34.2238C173.068 37.8408 173.709 42.0467 173.192 46.8417C172.427 53.7862 168.748 58.7983 162.155 61.8778L157.877 62.1568C158.27 60.3794 158.259 58.2919 157.846 55.8944C157.019 51.1201 154.601 47.2138 150.591 44.1756C152.328 40.4966 154.239 37.0347 156.327 33.7898C157.36 32.157 158.228 30.8963 158.931 30.0075C161.825 28.9328 164.408 28.8605 166.682 29.7905Z" fill="#746544"/>
<path d="M158.931 30.0075C161.825 28.9328 164.408 28.8605 166.682 29.7905C168.666 30.6172 170.195 32.095 171.27 34.2238L171.766 35.3709C167.198 41.7987 164.274 48.1438 162.992 54.4063C162.352 57.5065 162.073 59.997 162.155 61.8778L157.877 62.1568C158.27 60.3794 158.259 58.2919 157.846 55.8944C157.019 51.1201 154.601 47.2138 150.591 44.1756C152.328 40.4966 154.239 37.0347 156.327 33.7898C157.36 32.157 158.228 30.8963 158.931 30.0075Z" fill="#5A4E33"/>
<path d="M140.392 119.201C141.839 117.32 144.112 115.222 147.212 112.908L154.839 107.265C157.505 105.116 159.303 103.111 160.233 101.251L162 107.854C163.075 113.166 163.344 118.116 162.806 122.704C162.083 128.905 159.53 133.772 155.149 137.306C153.557 138.588 151.873 139.569 150.095 140.251C148.607 140.81 147.429 141.037 146.561 140.934C144.494 140.706 142.603 139.652 140.888 137.771C138.594 135.229 137.447 131.726 137.447 127.262C137.447 124.451 138.428 121.764 140.392 119.201Z" fill="#FFF1AC"/>
<path d="M160.233 101.251L162 107.854C163.075 113.166 163.344 118.116 162.806 122.704C162.083 128.905 159.53 133.772 155.149 137.306C153.557 138.588 151.873 139.569 150.095 140.251C148.607 140.81 147.429 141.037 146.561 140.934C145.114 140.768 143.688 140.138 142.283 139.042C145.569 138.815 148.235 137.348 150.281 134.64C152.038 132.325 153.227 129.308 153.847 125.587C154.384 122.343 154.425 119.17 153.971 116.07C153.516 113.073 152.751 111.12 151.677 110.21C154.301 108.185 156.43 106.232 158.063 104.351C159.055 103.193 159.778 102.16 160.233 101.251Z" fill="#DCD096"/>
<path d="M122.659 122.208C123.816 123.614 124.519 125.298 124.767 127.262C125.056 129.556 124.725 131.798 123.775 133.989C122.824 136.221 121.367 138.03 119.403 139.414C114.732 142.742 108.925 142.814 101.98 139.631C100.885 138.784 99.9029 137.43 99.0348 135.57C97.278 131.85 96.937 127.499 98.0117 122.518C99.1071 117.537 100.854 113.135 103.251 109.311C104.45 107.389 105.535 105.973 106.506 105.064C109.338 109.983 113.306 114.427 118.411 118.395C120.519 120.048 121.935 121.319 122.659 122.208Z" fill="#FFF1AC"/>
<path d="M99.3758 136.252C97.7224 133.173 97.1127 129.576 97.5467 125.463C100.564 129.556 104.202 132.315 108.459 133.741C114.143 135.643 119.589 134.351 124.798 129.866C124.405 134.495 122.214 137.926 118.225 140.159C113.678 142.68 108.263 142.504 101.98 139.631C101.071 138.908 100.203 137.782 99.3758 136.252Z" fill="#DCD096"/>
<path d="M112.428 152.466C112.2 153.128 110.599 153.975 107.622 155.009L110.32 148.529C110.919 149.129 111.436 149.79 111.87 150.513C112.386 151.381 112.572 152.032 112.428 152.466Z" fill="#C8C9CA"/>
<path d="M107.529 155.257L108.863 162.015L106.227 162.573L101.174 162.883L107.529 155.257Z" fill="#C8C9CA"/>
<path d="M98.6318 163.999L97.3607 166.913C94.6739 166.376 92.5657 165.777 91.0363 165.115L98.6318 163.999Z" fill="#C8C9CA"/>
<path d="M87.378 184.368C88.7007 186.538 89.0107 188.439 88.308 190.072C86.9646 193.214 85.2078 195.694 83.0376 197.513C79.8961 200.137 76.0208 201.233 71.4118 200.799L55.8177 199.683L45.0599 199.156C41.0503 199.011 39.3245 197.151 39.8825 193.575C40.4406 190.062 43.0344 185.742 47.6641 180.616L84.7428 177.702C84.8254 179.438 85.7038 181.66 87.378 184.368Z" fill="#3396CD"/>
<path d="M84.7427 177.702C84.8254 179.438 85.7038 181.66 87.3779 184.368C88.7007 186.538 89.0107 188.439 88.308 190.072C87.6673 191.602 86.5408 193.307 84.9287 195.187C83.1306 197.296 81.3325 198.887 79.5343 199.962C78.9143 195.353 74.8737 191.323 67.4125 187.871C61.5634 185.184 54.5982 183.2 46.517 181.919L47.664 180.616L84.7427 177.702Z" fill="#2880AE"/>
<path d="M50.2682 196.242C49.8962 197.089 48.3771 198.288 45.7109 199.838C43.5407 201.078 41.3706 202.153 39.2004 203.062C38.7457 201.243 38.5597 199.311 38.6424 197.265C38.725 194.474 39.3451 192.294 40.5025 190.723C41.4326 189.442 42.59 188.749 43.9748 188.646C45.2148 188.543 46.4343 188.884 47.633 189.669C48.7904 190.454 49.6275 191.436 50.1442 192.614C50.7229 193.896 50.7642 195.105 50.2682 196.242Z" fill="#EEEEEF"/>
<path d="M75.9692 192.707C77.0232 193.183 77.9223 193.896 78.6664 194.846C79.3277 195.714 79.6584 196.459 79.6584 197.079C79.6584 198.236 78.9557 199.9 77.5503 202.07C76.1242 204.281 74.6877 205.863 73.241 206.813C71.3602 205.242 69.7894 203.114 68.5286 200.427C67.3092 197.843 67.0199 196.179 67.6606 195.435C70.3474 192.315 73.117 191.405 75.9692 192.707Z" fill="#EEEEEF"/>
<path d="M50.2682 196.242C49.8962 197.048 48.4908 198.184 46.0519 199.652C44.0471 200.809 41.9493 201.874 39.7585 202.845C43.3341 199.931 46.4033 195.932 48.9661 190.847C49.6895 191.633 50.1752 192.49 50.4233 193.42C50.6919 194.412 50.6403 195.353 50.2682 196.242Z" fill="#C8C9CA"/>
<path d="M79.6584 197.079C79.6584 198.112 79.0797 199.579 77.9223 201.481C76.7442 203.403 75.4834 204.953 74.14 206.131C74.8634 204.292 75.3181 202.091 75.5041 199.528C75.6281 198.06 75.6798 195.745 75.6591 192.583C76.7752 193.017 77.7363 193.73 78.5423 194.722C79.2864 195.632 79.6584 196.417 79.6584 197.079Z" fill="#C8C9CA"/>
<path d="M65.0564 107.73L89.6102 162.077C90.2095 167.864 89.2381 172.38 86.6959 175.625C83.3064 179.924 76.7959 182.89 67.1645 184.523C58.1119 186.073 50.4957 183.562 44.3159 176.989C40.8023 173.228 37.8984 168.257 35.6043 162.077C34.4882 159.039 34.0025 156.559 34.1472 154.637C34.2918 152.818 35.1082 150.42 36.5963 147.444C33.9921 139.487 37.4334 130.837 46.9201 121.495C51.5911 116.907 57.6365 112.319 65.0564 107.73Z" fill="#3396CD"/>
<path d="M62.7622 109.156L65.4283 107.575C69.7893 108.526 75.132 117.889 81.4565 135.663C84.6187 144.571 87.3366 153.376 89.6101 162.077C90.1681 167.409 89.4034 171.626 87.3159 174.726C84.6084 178.818 79.3484 181.794 71.5358 183.655C71.9492 182.394 71.6391 180.616 70.6057 178.322C69.6343 176.152 68.1772 173.879 66.2344 171.502C61.7081 165.963 57.2748 162.656 52.9344 161.581C55.2699 161.705 57.5228 159.876 59.6929 156.094C61.7391 152.518 63.3615 147.888 64.5603 142.205C65.759 136.356 66.2551 130.579 66.0484 124.874C65.8004 118.612 64.705 113.373 62.7622 109.156Z" fill="#2880AE"/>
<path d="M69.7687 112.97L101.298 112.256C99.8925 114.055 98.7971 117.02 98.0117 121.154C97.1023 125.97 97.2366 130.072 98.4147 133.462C99.0348 135.239 97.8877 136.893 94.9735 138.422C92.2866 139.828 88.866 140.779 84.7117 141.275C80.4128 141.812 76.7235 141.678 73.6439 140.872C70.1304 139.941 68.1876 138.298 67.8155 135.942C67.1335 131.747 67.2575 126.662 68.1876 120.689L69.7687 112.97Z" fill="#3396CD"/>
<path d="M69.2726 116.07L69.7686 112.97L101.298 112.256C99.8924 114.055 98.797 117.02 98.0116 121.154C97.1022 125.97 97.2366 130.072 98.4147 133.462C98.8487 134.723 98.3527 135.942 96.9266 137.12C95.6245 138.216 93.692 139.156 91.1292 139.941C94.25 132.894 94.1054 127.313 90.6951 123.2C87.0575 118.798 79.9167 116.421 69.2726 116.07Z" fill="#2880AE"/>
<path d="M90.5712 128.192C95.0355 129.597 98.3011 131.788 100.368 134.764C100.947 135.612 101.773 137.275 102.848 139.755C103.551 141.43 104.781 143.021 106.537 144.53L109.204 146.917C109.824 147.62 110.154 148.333 110.196 149.056C110.258 150.317 109.038 153.138 106.537 157.52C104.326 161.385 100.885 163.793 96.2136 164.743L90.6952 165.27L86.3549 165.332C84.4948 165.477 81.4979 163.017 77.3643 157.954C72.962 152.146 70.1098 148.529 68.8077 147.103C66.9269 145.078 66.1828 141.709 66.5755 136.996C66.9682 132.387 68.0326 129.793 69.7687 129.215C77.5193 126.631 84.4534 126.29 90.5712 128.192Z" fill="#3396CD"/>
<path d="M90.2921 128.13C92.7103 128.853 94.8598 129.886 96.7406 131.23C98.3114 132.346 99.5204 133.524 100.368 134.764C100.947 135.612 101.773 137.275 102.848 139.755C103.551 141.43 104.78 143.021 106.537 144.53L109.203 146.917C109.824 147.62 110.154 148.333 110.196 149.056C110.258 150.317 109.038 153.138 106.537 157.52C105.008 160.186 102.91 162.149 100.244 163.41C98.2184 164.361 95.7692 164.94 92.8963 165.146C99.6341 161.488 102.414 156.187 101.236 149.242C100.285 143.62 96.6372 136.583 90.2921 128.13Z" fill="#2880AE"/>
<path d="M102.321 93.1281C104.657 95.0296 106.031 97.6854 106.444 101.096C106.796 103.907 106.506 106.232 105.576 108.071C104.026 111.171 100.027 113.156 93.5784 114.024L76.9302 114.582C71.8459 114.582 68.539 114.013 67.0095 112.877C65.2941 111.595 64.5914 108.908 64.9014 104.816C65.1907 101.054 68.2703 96.9517 74.14 92.5081C78.9971 88.8085 83.2857 86.411 87.006 85.3155C89.3828 84.6128 91.9767 85.1812 94.7875 87.0207L102.321 93.1281Z" fill="#3396CD"/>
<path d="M102.321 93.1281C104.657 95.0296 106.031 97.6855 106.444 101.096C106.796 103.907 106.506 106.232 105.576 108.071C104.026 111.171 100.027 113.156 93.5784 114.024L76.9302 114.582L85.9519 111.947C89.2588 110.83 91.9353 109.601 93.9815 108.257C99.2725 104.723 101.67 99.3596 101.174 92.1671L102.321 93.1281Z" fill="#2880AE"/>
<path d="M125.201 59.8627C125.945 59.8627 126.575 60.1624 127.092 60.7618C127.609 61.3405 127.867 62.0535 127.867 62.9009C127.867 63.7483 127.609 64.4614 127.092 65.0401C126.575 65.6188 125.945 65.9081 125.201 65.9081C124.477 65.9081 123.847 65.6188 123.31 65.0401C122.793 64.4407 122.535 63.7276 122.535 62.9009C122.535 62.0742 122.793 61.3611 123.31 60.7618C123.847 60.1624 124.477 59.8627 125.201 59.8627Z" fill="white"/>
<path d="M108.273 184.089C107.963 183.076 108.015 181.98 108.428 180.802L109.638 178.384H111.343C110.929 179.149 110.609 179.955 110.382 180.802C110.03 182.022 109.979 183.035 110.227 183.841C110.599 185.019 111.498 185.959 112.924 186.662C116.189 188.295 120.199 189.886 124.953 191.436C130.74 193.338 134.687 194.092 136.796 193.699L137.509 193.544L139.617 194.846L137.354 195.435C134.894 195.869 130.43 194.981 123.961 192.769C119.186 191.136 115.27 189.566 112.211 188.057C111.26 187.582 110.444 187.013 109.762 186.352C109.018 185.608 108.521 184.853 108.273 184.089Z" fill="#0D131A"/>
<path d="M160.791 189.018C159.944 189.493 158.569 189.834 156.668 190.041C155.428 190.124 153.867 190.423 151.987 190.94L151.429 190.289L150.809 189.638C153.061 188.997 154.963 188.605 156.513 188.46L157.474 188.305C157.929 188.718 159.035 188.956 160.791 189.018Z" fill="#0D131A"/>
<path d="M153.32 173.796L156.761 175.222C159.2 176.359 161.122 177.527 162.527 178.725C163.333 179.407 163.83 180.275 164.016 181.329C163.643 181.081 163.096 181.019 162.372 181.143C162.186 180.668 161.907 180.255 161.535 179.903C160.192 178.767 158.311 177.537 155.893 176.214C153.888 175.119 152.793 174.571 152.607 174.571L153.32 173.796Z" fill="#0D131A"/>
<path d="M156.017 169.456C158.869 165.88 160.543 162.883 161.039 160.465L162.372 160.775C161.794 163.648 160.12 166.903 157.35 170.541C153.361 175.77 148.669 178.684 143.275 179.283C139.431 179.717 136.072 179.748 133.199 179.376L126.937 178.012L122.008 176.927C119.796 176.534 117.75 176.338 115.869 176.338L117.171 175.47C121.098 175.47 124.477 175.811 127.309 176.493C129.872 177.113 131.97 177.495 133.602 177.64L143.492 177.361C148.018 176.865 152.193 174.23 156.017 169.456Z" fill="#0D131A"/>
<path d="M151.429 156.342L151.522 156.993L151.584 157.551L146.22 157.303C144.815 157.055 143.616 156.714 142.624 156.28L143.089 155.226C143.812 155.536 144.825 155.804 146.127 156.032L151.429 156.342Z" fill="#0D131A"/>
<path d="M162.434 181.577C161.69 181.515 160.647 182.425 159.303 184.306C158.001 186.145 157.505 187.261 157.815 187.654C158.104 188.005 160.192 188.419 164.077 188.894L170.34 189.266C170.629 188.997 169.586 187.675 167.209 185.298C164.791 182.9 163.199 181.66 162.434 181.577ZM158.683 182.849C160.151 181.092 161.597 180.296 163.023 180.461C164.181 180.585 165.793 181.619 167.86 183.562C169.823 185.422 171.301 187.23 172.293 188.987C172.624 189.545 172.737 189.948 172.634 190.196C172.551 190.403 172.262 190.527 171.766 190.568C169.1 190.795 166.351 190.754 163.519 190.444C160.771 190.134 158.642 189.659 157.133 189.018C156.637 188.915 156.41 188.543 156.451 187.902C156.554 186.186 157.298 184.502 158.683 182.849Z" fill="#0D131A"/>
<path d="M145.166 186.569C144.277 186.466 142.769 187.427 140.64 189.452C138.511 191.457 137.643 192.749 138.036 193.327C138.366 193.844 141.167 194.423 146.437 195.063L154.591 195.652C154.839 195.363 153.671 193.875 151.088 191.188C148.421 188.377 146.448 186.838 145.166 186.569ZM136.113 193.327C137.023 191.178 138.459 189.256 140.423 187.561C142.366 185.907 143.988 185.163 145.29 185.329C146.613 185.473 148.432 186.579 150.746 188.646C153.289 190.919 155.19 193.358 156.451 195.963C156.699 196.479 156.771 196.82 156.668 196.986C156.523 197.172 156.12 197.254 155.459 197.234L145.011 196.366C141.043 195.828 138.191 195.063 136.454 194.071C136.041 194.03 135.927 193.782 136.113 193.327Z" fill="#0D131A"/>
<path d="M49.6793 96.7554C48.8732 97.7475 48.4702 98.7602 48.4702 99.7936C48.4702 102.563 48.3875 105.911 48.2222 109.838C48.0155 115.047 47.7261 118.808 47.3541 121.123L45.618 122.394C45.9487 120.307 46.207 116.545 46.393 111.109L46.7031 100.972C46.8064 99.0289 47.3954 97.3651 48.4702 95.9804C49.3796 94.8023 50.4647 94.0065 51.7254 93.5932C53.0275 93.1591 54.2056 93.4692 55.2597 94.5232C56.1071 95.3913 57.7709 96.6417 60.251 98.2745C62.8966 100.011 64.8807 101.106 66.2035 101.561L65.3974 103.049C63.3513 102.532 61.0571 101.323 58.5149 99.4216C56.3861 97.8302 54.9186 96.4661 54.1126 95.3293C53.6992 94.7506 53.0482 94.6163 52.1594 94.9263C51.25 95.2156 50.4233 95.8253 49.6793 96.7554Z" fill="#0D131A"/>
<path d="M75.9381 67.7683C76.8475 67.7269 77.6329 67.9233 78.2943 68.3573C79.4517 69.1427 81.7149 70.3828 85.0838 72.0776C88.432 73.7517 91.1602 75.0125 93.2684 75.8599L94.8495 78.9291C92.9273 78.1644 89.7961 76.5832 85.4558 74.1857C81.6322 72.0776 78.9763 70.5275 77.4882 69.5354C77.0749 69.246 76.5478 69.1324 75.9071 69.1944C75.2457 69.2357 74.5947 69.4527 73.954 69.8454C73.2513 70.2381 72.6726 70.7652 72.2179 71.4265C71.7012 72.1913 71.4738 73.0076 71.5358 73.8757L72.2179 83.2074C72.4245 88.0024 72.3005 91.8467 71.8458 94.7402L69.7997 95.9493C70.2751 93.0351 70.5024 89.0151 70.4817 83.8894C70.4611 80.4172 70.3474 77.1206 70.1407 73.9997C70.058 72.8216 70.3474 71.7262 71.0088 70.7135C71.5668 69.8661 72.3109 69.1634 73.2409 68.6053C74.1503 68.0886 75.0494 67.8096 75.9381 67.7683Z" fill="#0D131A"/>
<path d="M94.8494 80.2002C93.6093 82.1637 92.3382 83.9101 91.0361 85.4396L88.897 85.2846C91.5218 82.4944 93.2683 80.4172 94.1363 79.0531L94.8494 80.2002Z" fill="#0D131A"/>
<path d="M47.2301 180.275L48.2222 181.143C45.6386 183.996 43.6752 186.693 42.3317 189.235C40.885 189.648 39.7896 190.868 39.0455 192.893C38.7768 191.715 39.5415 189.814 41.3397 187.189C42.9311 184.874 44.8946 182.57 47.2301 180.275Z" fill="#0D131A"/>
<path d="M46.61 200.024C47.3747 199.59 48.0051 199.094 48.5011 198.536L67.9085 199.714C68.6112 200.168 69.0659 200.726 69.2726 201.388L46.61 200.024Z" fill="#0D131A"/>
<path d="M86.4169 184.275C85.7349 183.2 85.2492 182.321 84.9598 181.639C84.5258 180.585 84.2777 179.407 84.2157 178.105L85.2698 177.64C85.3318 178.674 85.6315 179.666 86.1689 180.616L87.75 182.973C88.7421 184.585 89.3415 185.68 89.5481 186.259C90.0235 187.602 89.9925 188.894 89.4551 190.134C88.4424 192.552 87.1093 194.65 85.4558 196.428C83.4304 198.577 81.0742 200.075 78.3873 200.923C78.8627 200.241 79.1934 199.548 79.3794 198.846C82.955 197.254 85.6935 194.226 87.595 189.762C88.0084 188.811 88.0807 187.881 87.812 186.972C87.626 186.372 87.161 185.473 86.4169 184.275Z" fill="#0D131A"/>
<path d="M40.0065 190.351C40.9159 189.111 42.0527 188.357 43.4168 188.088C44.7809 187.819 46.1553 188.088 47.5401 188.894C48.9662 189.7 50.0512 190.826 50.7953 192.273C51.6427 193.844 51.7667 195.301 51.1673 196.645C50.7126 197.699 48.8525 199.228 45.5869 201.233C42.776 202.948 40.8126 203.982 39.6965 204.333L38.3324 204.457C38.167 204.354 38.012 204.023 37.8674 203.465C37.33 201.088 37.2163 198.804 37.5263 196.613C37.8777 194.216 38.7044 192.129 40.0065 190.351ZM49.0902 191.963C48.5115 191.136 47.7881 190.475 46.92 189.979C46.1346 189.504 45.3079 189.256 44.4398 189.235C43.0757 189.194 41.9287 189.803 40.9986 191.064C39.8205 192.718 39.2315 195.043 39.2315 198.04C39.2315 198.887 39.2935 199.786 39.4175 200.737C39.5415 201.77 39.6758 202.328 39.8205 202.411C40.0065 202.514 41.6083 201.636 44.6258 199.776C47.7261 197.874 49.4105 196.613 49.6792 195.993C49.8859 195.559 49.9892 195.094 49.9892 194.598C49.9892 193.71 49.6895 192.831 49.0902 191.963Z" fill="#0D131A"/>
<path d="M76.4962 202.132C78.191 199.652 79.0384 197.967 79.0384 197.079C79.0384 196.541 78.6974 195.869 78.0153 195.063C77.2506 194.154 76.3515 193.503 75.3181 193.11C72.8793 192.222 70.4818 193.131 68.1256 195.838C68.0223 196.045 67.9706 196.293 67.9706 196.583V196.924C68.0533 197.998 68.8697 199.745 70.4198 202.163C71.9079 204.519 72.8793 205.708 73.334 205.728C73.7887 205.77 74.8428 204.571 76.4962 202.132ZM75.7522 191.963C76.9716 192.418 78.0877 193.224 79.1004 194.381C80.0511 195.497 80.5265 196.469 80.5265 197.296C80.5265 198.494 79.7308 200.334 78.1393 202.814C76.6719 205.108 75.3801 206.71 74.264 207.619C73.7887 207.991 73.3753 208.167 73.024 208.146C72.7346 208.126 72.3936 207.94 72.0009 207.588C70.9261 206.576 69.7687 204.943 68.5286 202.69C67.2472 200.354 66.5548 198.525 66.4515 197.203C66.3481 196.334 66.4928 195.673 66.8855 195.218C68.477 193.4 70.1924 192.263 72.0319 191.808L75.7522 191.963Z" fill="#0D131A"/>
<path d="M87.6259 183.717L86.3239 182.632C97.7327 182.487 108.935 179.407 119.93 173.393C130.946 167.358 139.379 159.659 145.228 150.296C147.254 147.051 149.062 143.558 150.653 139.817L151.739 139.662L152.762 139.414C151.604 142.308 150.55 144.705 149.599 146.607C148.421 148.984 147.119 151.195 145.693 153.241C139.245 162.563 130.864 169.941 120.55 175.377C110.216 180.792 99.2414 183.572 87.6259 183.717Z" fill="#0D131A"/>
<path d="M162.248 67.1173C162.517 73.297 162.651 78.2677 162.651 82.0293C162.672 89.8419 162.331 97.2204 161.628 104.165C161.38 103.07 160.822 102.315 159.954 101.902C160.843 93.8412 161.236 85.5946 161.132 77.162L160.698 66.6832L162.248 67.1173Z" fill="#0D131A"/>
<path d="M97.9498 165.487L98.1978 164.495C110.103 167.595 120.788 167.099 130.254 163.007C136.992 160.093 141.777 156.311 144.608 151.66L145.476 152.187C144.339 154.068 142.634 155.97 140.361 157.892C137.55 160.31 134.346 162.304 130.75 163.875C121.036 168.133 110.103 168.67 97.9498 165.487Z" fill="#0D131A"/>
<path d="M85.7968 176.834L86.2929 175.966C89.8064 177.992 94.3224 179.056 99.8408 179.159C104.016 179.221 108.139 178.777 112.211 177.826L109.917 179.159C105.928 180.11 102.114 180.503 98.4767 180.337C93.7024 180.131 89.4757 178.963 85.7968 176.834Z" fill="#0D131A"/>
<path d="M1.50178 115.202C1.85314 114.85 2.26651 114.664 2.74187 114.644C3.23791 114.602 3.65127 114.737 3.98196 115.047C8.03292 118.56 11.5155 121.382 14.4297 123.51C17.8606 126.011 20.8678 127.84 23.4514 128.998L22.2423 129.649C19.4314 128.409 16.5792 126.797 13.6857 124.812C10.8128 122.849 7.48521 120.224 3.70294 116.938C3.51693 116.773 3.27924 116.773 2.98989 116.938C2.47319 117.248 2.12183 118.188 1.93581 119.759C1.70847 121.599 1.79114 123.831 2.18383 126.456C3.77528 137.038 8.01225 146.4 14.8947 154.544C21.7772 162.707 30.9952 169.239 42.5487 174.137L44.2229 177.268C31.2226 171.832 21.1262 164.95 13.9337 156.621C6.76183 148.333 2.29751 138.433 0.540715 126.921C0.065347 123.8 -0.0173256 121.082 0.292697 118.767C0.540715 116.948 0.943744 115.76 1.50178 115.202Z" fill="#0D131A"/>
<path d="M12.5386 139.042C13.7994 136.645 15.4735 134.702 17.561 133.214C19.2971 131.995 21.2192 131.147 23.3274 130.672L24.2575 131.106C22.542 131.25 20.6509 132.088 18.5841 133.617C16.3726 135.25 14.6571 137.213 13.4377 139.507C12.4249 141.45 11.8669 143.61 11.7636 145.987C11.6396 149.046 12.3423 151.929 13.8717 154.637L13.0657 154.14C11.4329 151.247 10.6785 148.343 10.8025 145.429C10.8852 143.238 11.4639 141.109 12.5386 139.042Z" fill="#0D131A"/>
<path d="M33.8061 112.381C34.8395 112.98 35.6043 113.858 36.1003 115.016L41.6497 127.789L40.2546 129.773C39.3039 127.603 37.4747 122.839 34.7672 115.481C34.5605 114.923 34.0542 114.396 33.2481 113.9C32.4627 113.445 31.6773 113.197 30.8919 113.156C30.6026 113.135 30.3442 113.424 30.1169 114.024L29.8689 114.892C29.2901 117.909 28.6804 120.317 28.0397 122.115C26.841 125.443 25.2599 127.985 23.2964 129.742C23.4617 130.465 24.8982 131.416 27.6057 132.594C30.7059 133.958 34.0748 134.888 37.7124 135.384L37.4644 136.531C35.2736 136.614 32.349 135.932 28.6908 134.485C25.1358 133.08 22.976 131.819 22.2113 130.703C21.8806 130.248 21.7669 129.793 21.8703 129.339L21.9323 129.122L22.0873 128.967C23.9888 127.375 25.5182 124.957 26.6756 121.712C27.3163 119.955 27.9157 117.599 28.4738 114.644C28.4944 114.23 28.6081 113.796 28.8148 113.342C29.2281 112.432 29.8895 111.905 30.7989 111.76C31.8117 111.595 32.8141 111.802 33.8061 112.381Z" fill="#0D131A"/>
<path d="M171.177 118.457C171.156 116.369 171.301 114.344 171.611 112.38L173.161 111.822C172.934 113.166 172.913 115.429 173.099 118.612C173.347 122.849 173.988 126.187 175.021 128.626L172.882 127.82C171.787 125.257 171.218 122.136 171.177 118.457Z" fill="#0D131A"/>
<path d="M161.38 90.834L161.504 89.2528C165.287 89.5629 168.48 90.7099 171.084 92.6941C173.172 94.2855 174.67 96.187 175.579 98.3985C176.592 100.879 176.902 103.576 176.509 106.49C176.199 108.867 175.662 110.5 174.897 111.388C174.215 112.174 172.655 112.711 170.216 113.001L163.334 113.218L162.992 111.76L170.867 111.326C172.438 111.078 173.389 110.758 173.719 110.365C174.195 109.787 174.494 108.402 174.618 106.211C174.763 103.483 174.37 101.003 173.44 98.7705C171.456 93.9755 167.436 91.33 161.38 90.834Z" fill="#0D131A"/>
<path d="M152.297 155.536C151.594 155.66 151.243 156.094 151.243 156.838C150.23 155.536 149.496 154.244 149.041 152.962C148.463 151.371 148.246 149.645 148.39 147.785L148.855 146.638L149.289 145.46C149.496 147.857 149.765 149.728 150.095 151.071C150.571 152.89 151.305 154.378 152.297 155.536Z" fill="#0D131A"/>
<path d="M161.535 159.69L162.31 159.721C162.31 160.444 162.476 160.982 162.806 161.333L161.349 161.209L157.288 160.434C158.032 159.628 158.373 159.163 158.311 159.039L161.535 159.69Z" fill="#0D131A"/>
<path d="M177.843 133.214C178.38 136.521 178.132 140.52 177.098 145.212C175.9 150.751 173.926 154.936 171.177 157.768C170.04 158.905 168.811 159.783 167.488 160.403C168.356 159.432 168.914 158.47 169.162 157.52L170.061 156.683C172.603 154.079 174.443 150.121 175.579 144.809C176.551 140.303 176.788 136.521 176.292 133.462C175.962 131.375 174.784 129.814 172.758 128.781C171.022 127.892 168.935 127.375 166.496 127.231C164.408 127.127 162.93 127.293 162.062 127.727L162.341 126.239C163.437 125.701 165.028 125.494 167.116 125.618C169.513 125.742 171.683 126.311 173.626 127.324C175.982 128.522 177.388 130.486 177.843 133.214Z" fill="#0D131A"/>
<path d="M166.217 152.497C166.093 151.877 165.628 151.485 164.821 151.319L162.279 151.505C161.411 151.774 160.843 152.125 160.574 152.559C160.388 152.828 160.347 153.241 160.45 153.8C160.554 154.378 160.771 154.957 161.101 155.536C161.473 156.197 161.938 156.776 162.496 157.272C163.096 157.768 163.581 157.995 163.953 157.954C164.429 157.892 164.966 157.168 165.566 155.784C166.165 154.378 166.382 153.283 166.217 152.497ZM159.52 152.156C159.933 151.516 160.709 150.999 161.845 150.606C162.982 150.214 164.036 150.11 165.008 150.296C166.372 150.565 167.157 151.226 167.364 152.28C167.55 153.21 167.415 154.316 166.961 155.598C166.527 156.776 165.989 157.695 165.349 158.357C164.852 158.894 164.449 159.194 164.139 159.256C163.685 159.359 163.127 159.122 162.465 158.543C160.523 156.848 159.437 155.091 159.21 153.272C159.169 152.9 159.272 152.528 159.52 152.156Z" fill="#0D131A"/>
<path d="M152.297 156.125C152.069 156.166 151.935 156.745 151.894 157.861L151.863 160.496C151.863 160.827 151.935 161.033 152.08 161.116H152.824L155.366 160.372C156.73 159.897 157.474 159.535 157.598 159.287C157.722 159.039 156.937 158.429 155.242 157.458C153.568 156.507 152.586 156.063 152.297 156.125ZM158.652 158.791C158.838 159.059 158.859 159.37 158.714 159.721C158.445 160.3 157.34 160.93 155.397 161.612C153.929 162.129 152.782 162.449 151.956 162.573L151.212 162.511C151.108 162.408 151.036 162.191 150.995 161.86C150.726 158.078 150.881 155.866 151.46 155.226L152.142 154.947C153.051 154.947 154.26 155.401 155.769 156.311C157.216 157.199 158.177 158.026 158.652 158.791Z" fill="#0D131A"/>
<path d="M169.627 156.404C169.978 156.466 170.216 156.662 170.34 156.993C170.485 157.447 169.885 158.584 168.542 160.403C167.198 162.242 166.196 163.245 165.535 163.41C165.142 163.493 164.387 163.038 163.271 162.046C162.135 161.054 161.577 160.351 161.597 159.938C161.597 159.318 162.073 158.729 163.023 158.171C163.437 158.646 163.891 158.884 164.387 158.884L162.775 159.814L163.922 161.085C164.646 161.726 165.069 162.046 165.193 162.046C165.317 162.025 165.979 161.343 167.178 160L169.131 157.613L167.86 157.737L165.069 158.605L165.814 157.024C167.508 156.507 168.779 156.3 169.627 156.404Z" fill="#0D131A"/>
<path d="M129.975 26.5663L128.549 27.9304C127.598 24.4168 125.407 20.8619 121.977 17.2657C118.587 13.6901 114.97 11.1272 111.126 9.5771C110.754 9.41176 110.568 9.22574 110.568 9.01906C110.568 8.77104 110.785 8.182 111.219 7.25193L112.118 4.77176C112.242 4.04837 112.149 3.53167 111.839 3.22164C111.095 2.47759 110.454 2.10556 109.917 2.10556C109.09 2.12623 107.922 2.82895 106.413 4.21372C99.8822 10.2075 95.6246 16.7696 93.6405 23.9001C91.6977 30.9066 92.0904 37.9855 94.8186 45.1367L93.1134 44.9196C90.0752 37.7478 89.5998 30.638 91.6873 23.5901C93.7541 16.6456 98.2598 9.99046 105.204 3.62467C107.126 1.88855 108.718 0.958481 109.979 0.834472C110.991 0.731131 111.983 1.15483 112.955 2.10556C113.472 2.64294 113.73 3.29398 113.73 4.0587C113.73 4.82343 113.213 6.34254 112.18 8.61603C117.057 10.5588 121.026 13.1217 124.085 16.3046C126.978 19.3015 128.942 22.722 129.975 26.5663Z" fill="#0D131A"/>
<path d="M64.4053 107.203L64.6533 107.048L65.4594 108.381L65.2113 108.536C58.1015 112.897 52.025 117.641 46.982 122.766C39.9342 129.897 36.5343 136.376 36.7823 142.205C36.8443 143.693 37.0923 145.015 37.5263 146.173C38.0224 147.496 38.8801 148.984 40.0995 150.637C41.7323 152.89 44.0781 155.133 47.137 157.365C50.8573 160.114 54.0712 161.488 56.7787 161.488C59.8789 161.488 63.4339 160.558 67.4435 158.698C71.1224 156.982 73.2822 155.474 73.923 154.171L74.977 154.699C74.171 156.29 71.9078 158.057 68.1875 160C64.1159 162.087 60.437 163.131 57.1508 163.131C54.0299 163.131 50.3406 161.622 46.083 158.605C41.9493 155.711 38.8181 152.528 36.6893 149.056C35.5319 151.516 34.9325 153.593 34.8911 155.288C34.8705 156.92 35.3562 159.101 36.3483 161.829C38.9938 169.001 42.4557 174.478 46.734 178.26C52.3351 183.262 59.1039 185.091 67.0405 183.748C75.8864 182.259 82.0145 179.666 85.4248 175.966C87.967 173.217 89.1657 169.518 89.021 164.867H90.5712C90.6952 170.014 89.3207 174.137 86.4479 177.237C82.7689 181.226 76.3825 183.985 67.2885 185.515C59.8893 186.775 53.3375 185.463 47.6331 181.577C41.7426 177.588 37.4023 171.285 34.6121 162.666C33.6201 159.628 33.124 157.127 33.124 155.164C33.124 153.841 33.3617 152.466 33.8371 151.04C34.3124 149.531 34.9532 148.302 35.7592 147.351C34.8912 145.16 34.4571 143.434 34.4571 142.174C34.4571 135.518 38.2704 128.502 45.8969 121.123C50.7333 116.452 56.9027 111.812 64.4053 107.203Z" fill="#0D131A"/>
<path d="M100.678 44.5166C101.856 44.5373 102.404 44.7233 102.321 45.0747C102.259 45.426 101.784 45.6637 100.895 45.7877C100.234 45.8704 97.9911 45.9117 94.1675 45.9117H88.6491C88.0497 45.9117 87.626 46.1184 87.378 46.5318C87.2127 46.8418 87.3057 47.3689 87.657 48.1129L90.5712 53.6933L93.2684 58.9637C93.8058 60.1624 93.8885 61.0512 93.5164 61.6299C93.1444 62.2293 92.545 61.6402 91.7183 59.8628L88.7421 54.0343L86.2309 49.136C85.5282 47.5445 85.4042 46.3251 85.8589 45.4777C86.3549 44.5683 87.2023 44.1136 88.4011 44.1136L100.678 44.5166Z" fill="#0D131A"/>
<path d="M127.092 54.8714C130.006 51.8331 133.396 49.756 137.261 48.6399C138.542 48.2886 139.1 48.3402 138.935 48.7949L138.315 49.57L140.826 52.6392C142.438 55.1814 143.306 57.9199 143.43 60.8548C143.699 60.6068 143.967 60.6068 144.236 60.8548C144.505 61.0821 144.298 61.4748 143.616 62.0329C141.446 63.8723 138.098 65.2261 133.571 66.0942C129.686 66.8382 125.934 67.0759 122.318 66.8072C122.132 66.9726 121.956 67.0552 121.79 67.0552C121.439 67.0759 121.325 66.7349 121.449 66.0322C122.049 61.8572 123.93 58.1369 127.092 54.8714ZM137.323 49.88C134.367 50.8721 131.505 52.7219 128.735 55.4294C125.49 58.6123 123.444 62.0846 122.597 65.8462C126.524 65.8875 129.903 65.6395 132.734 65.1021C136.537 64.3787 139.844 63.0973 142.655 61.2578C142.159 58.2609 141.239 55.5948 139.896 53.2593C139.069 51.8331 138.211 50.7067 137.323 49.88Z" fill="#0D131A"/>
<path d="M116.706 59.0257C117.264 56.8142 117.822 55.5018 118.38 55.0884C118.959 54.6544 119.383 54.4994 119.651 54.6234C119.899 54.7474 119.817 55.0884 119.403 55.6464C118.969 56.2872 118.484 57.3826 117.946 58.9327C117.367 60.6275 117.016 62.0949 116.892 63.335C116.747 64.6371 116.603 65.3088 116.458 65.3501C116.293 65.3915 116.148 64.8851 116.024 63.831C115.921 62.777 116.148 61.1752 116.706 59.0257Z" fill="#0D131A"/>
<path d="M101.019 77.348C101.412 76.7072 101.835 76.2732 102.29 76.0459L103.313 76.0769C103.52 76.3456 103.406 76.6452 102.972 76.9759C102.683 77.224 102.269 77.782 101.732 78.6501L100.709 80.0142L100.275 79.9832L100.399 78.9911C100.482 78.4537 100.688 77.906 101.019 77.348Z" fill="#0D131A"/>
<path d="M148.204 73.0387C146.075 75.1262 142.975 76.5626 138.904 77.348C136.072 77.906 132.465 78.1747 128.084 78.1541C125.5 78.1127 123.547 78.1541 122.224 78.2781C118.111 78.6501 114.877 79.1978 112.521 79.9212C109.937 80.7272 107.932 81.8743 106.506 83.3624C107.974 84.7059 111.064 85.9356 115.776 87.0517C121.356 88.3745 126.606 88.7155 131.525 88.0748C135.679 87.5374 139.121 86.2766 141.849 84.2925C145.383 81.6676 147.502 77.9164 148.204 73.0387ZM150.281 69.7835C150.405 69.9075 150.395 70.1451 150.25 70.4965L149.537 71.6436C148.979 77.472 146.975 81.9157 143.523 84.9745C140.774 87.4341 137.167 88.9532 132.703 89.5319C122.183 90.896 113.172 89.1909 105.669 84.4165C104.45 85.8633 103.251 86.4833 102.073 86.2766C101.019 86.07 99.5928 85.1709 97.7947 83.5794C95.5005 81.5333 93.7954 79.1771 92.6793 76.5109C90.2818 70.8272 89.8994 64.5234 91.5322 57.5996L91.9352 59.0567C92.0179 59.5114 92.2143 59.9247 92.5243 60.2968C92.3383 61.7642 92.2453 63.2007 92.2453 64.6061C92.2453 68.8017 92.917 72.6047 94.2604 76.0149C95.1491 78.2471 96.5856 80.2415 98.5697 81.9983C100.389 83.6104 101.753 84.3235 102.662 84.1375C103.034 84.0755 103.83 83.4864 105.049 82.3704C106.806 80.6962 108.997 79.4355 111.622 78.5881C114.185 77.7407 117.677 77.1206 122.1 76.728C123.465 76.6039 125.469 76.5626 128.115 76.6039C133.013 76.6453 137.116 76.2526 140.423 75.4259C143.709 74.6198 146.086 73.4211 147.553 71.8296C149.103 70.1555 150.013 69.4734 150.281 69.7835Z" fill="#0D131A"/>
<path d="M140.454 15.6536C141.136 14.8888 142.014 14.3618 143.089 14.0724C144.143 13.7831 145.094 13.7934 145.941 14.1034C146.975 14.4961 147.76 15.1575 148.297 16.0876C148.731 16.873 148.948 17.741 148.948 18.6918L148.855 25.6983C148.835 28.9018 148.897 31.289 149.041 32.8598L147.739 34.3169C147.595 32.8701 147.398 29.7492 147.15 24.9542L146.747 17.7307C146.623 16.594 146.169 15.8706 145.383 15.5606C144.887 15.3745 144.257 15.4469 143.492 15.7776C142.479 16.2116 141.456 17.028 140.423 18.2267C139.203 19.6322 137.085 21.6163 134.067 24.1792C130.926 26.8247 128.601 28.5608 127.092 29.3875C126.079 29.9249 124.529 30.5243 122.441 31.1857C111.735 34.4926 104.026 38.8226 99.3138 44.1756L98.3218 45.3847H96.0276L97.1127 44.0516C100.089 40.6827 104.254 37.5928 109.607 34.7819C113.513 32.7358 117.615 31.041 121.914 29.6976C124.002 29.0362 125.48 28.4782 126.348 28.0235C127.733 27.2587 130.161 25.3263 133.633 22.226C136.858 19.3325 139.131 17.1417 140.454 15.6536Z" fill="#0D131A"/>
<path d="M194.429 12.8943C197.529 13.163 199.317 13.8037 199.792 14.8165C200.102 15.4985 200.185 16.1702 200.04 16.8316C199.875 17.5757 199.389 18.4334 198.583 19.4048C197.095 21.1409 195.214 22.66 192.941 23.9621C192.321 24.3548 191.928 24.6235 191.762 24.7682C191.494 24.9955 191.318 25.2952 191.235 25.6673C191.277 30.979 190.894 36.1667 190.088 41.2304C188.518 51.1511 185.056 58.0129 179.703 61.8159C174.432 65.5568 169.72 67.6856 165.566 68.2023C162.879 68.5537 160.244 68.1816 157.66 67.0862C156.255 66.5075 155.717 66.0322 156.048 65.6601L157.939 65.7221C159.592 66.4042 161.525 66.6212 163.736 66.3732C167.643 65.9392 172.19 64.11 177.377 60.8858C182.524 57.6822 186.11 50.8411 188.135 40.3623C189.148 35.0919 189.675 30.0489 189.716 25.2332C189.902 24.6132 190.223 24.0861 190.677 23.6521C190.946 23.3834 191.432 23.0424 192.135 22.629L194.026 21.3889C194.832 20.7689 195.617 20.0042 196.382 19.0948C197.663 17.586 198.159 16.4803 197.87 15.7775C197.581 15.1575 196.63 14.8475 195.018 14.8475C191.091 14.7441 186.843 14.7545 182.276 14.8785C173.14 15.0852 166.95 15.7155 163.705 16.7696C160.585 17.7617 157.443 20.5002 154.281 24.9852C152.565 27.4447 150.571 30.948 148.297 35.495C147.657 36.7764 147.099 37.7375 146.623 38.3782C146.293 38.8329 145.941 39.0706 145.569 39.0912C145.197 39.1119 145.125 38.9052 145.352 38.4712L146.902 34.8129C149.341 29.9559 151.449 26.2666 153.227 23.7451C156.492 19.1981 159.83 16.3769 163.24 15.2815C166.671 14.1654 172.572 13.4214 180.943 13.0493C187.37 12.76 191.866 12.7083 194.429 12.8943Z" fill="#0D131A"/>
<path d="M171.27 21.7919C167.694 21.7919 163.509 24.9128 158.714 31.1546C156.875 33.5728 155.242 36.084 153.816 38.6882C152.493 41.1477 151.697 43.0491 151.428 44.3926C153.702 45.55 155.448 47.2965 156.668 49.632C158.259 52.6702 158.879 56.5765 158.528 61.3508C163.323 62.1362 167.756 60.6791 171.828 56.9795C175.9 53.2385 178.783 47.9888 180.478 41.2303C182.358 33.7691 182.017 28.4161 179.455 25.1712C177.698 22.9184 174.97 21.7919 171.27 21.7919ZM176.974 21.2649C178.628 21.8436 179.94 22.7634 180.912 24.0241C182.276 25.7396 183.02 28.1784 183.144 31.3406C183.268 34.3582 182.823 37.8718 181.811 41.8814C180.013 49.0946 176.964 54.5406 172.665 58.2196C168.366 61.8985 163.416 63.3143 157.815 62.4669C156.658 62.2809 156.11 62.0225 156.172 61.6918C156.234 61.3611 156.647 61.2268 157.412 61.2888C157.598 56.9071 156.771 53.0732 154.932 49.787C153.712 47.6168 152.472 46.1804 151.211 45.4777C150.777 45.9737 150.467 46.108 150.281 45.8807C150.116 45.6947 150.085 45.2606 150.188 44.5786C150.395 43.2558 151.067 41.3854 152.204 38.9672C153.506 36.2183 155.035 33.6141 156.792 31.1546C161.525 24.5201 166.351 21.0169 171.27 20.6449C173.419 20.4795 175.321 20.6862 176.974 21.2649Z" fill="#0D131A"/>
<path d="M159.489 29.6665C162.61 28.5297 165.307 28.4471 167.581 29.4185C169.482 30.2452 170.981 31.7436 172.076 33.9138C172.903 35.5259 173.482 37.7788 173.812 40.6723C174.246 44.5786 173.895 48.1645 172.758 51.4301C171.911 53.8689 170.712 55.9357 169.162 57.6305C167.57 59.346 165.493 60.8031 162.93 62.0018L161.287 61.8158C163.747 60.6584 165.886 59.1496 167.705 57.2895C169.565 55.388 170.888 53.3005 171.673 51.027C172.748 47.9475 173.027 44.5579 172.51 40.8583C172.159 38.2334 171.57 36.115 170.743 34.5028C169.668 32.3327 168.035 30.9066 165.845 30.2245C163.695 29.5425 161.339 29.6768 158.776 30.6276L159.489 29.6665Z" fill="#0D131A"/>
<path d="M150.561 111.171C146.427 114.168 143.575 116.524 142.004 118.24C139.358 121.113 138.036 124.12 138.036 127.262C138.036 131.602 139.172 134.991 141.446 137.43C143.058 139.187 144.784 140.159 146.623 140.345C147.367 140.427 148.432 140.21 149.817 139.693C151.532 139.053 153.154 138.133 154.684 136.934C159.004 133.524 161.525 128.76 162.248 122.642C162.414 121.299 162.496 119.78 162.496 118.085C162.496 112.959 161.69 107.813 160.078 102.646C159.169 104.051 157.805 105.519 155.986 107.048L150.561 111.171ZM140.361 117.961C142.262 115.749 145.28 113.166 149.413 110.21L155.893 105.188C158.208 103.142 159.748 101.364 160.512 99.8556L160.76 101.034L162.837 107.978C164.098 113.476 164.46 118.54 163.923 123.169C163.199 129.37 160.523 134.247 155.893 137.802C154.177 139.125 152.369 140.128 150.468 140.81C148.835 141.388 147.512 141.626 146.499 141.523C144.205 141.254 142.138 140.314 140.299 138.701C137.509 136.242 136.114 132.677 136.114 128.006C136.114 124.575 137.529 121.226 140.361 117.961Z" fill="#0D131A"/>
<path d="M106.01 105.374L107.033 104.785C108.852 107.947 110.971 110.706 113.389 113.063C114.546 114.22 116.468 115.832 119.155 117.899C121.243 119.532 122.71 120.865 123.558 121.898C124.839 123.51 125.614 125.339 125.883 127.386C126.172 129.742 125.738 132.16 124.581 134.64C123.464 137.058 121.914 139.001 119.93 140.469C118.049 141.833 115.879 142.639 113.42 142.887C109.948 143.238 106.403 142.349 102.786 140.221L102.228 139.104C105.535 140.613 108.645 141.347 111.56 141.306C114.495 141.244 117.047 140.417 119.217 138.825C120.995 137.523 122.338 135.829 123.247 133.741C124.157 131.654 124.467 129.525 124.178 127.355C123.93 125.494 123.268 123.903 122.193 122.58C121.491 121.712 120.127 120.493 118.101 118.922C115.621 116.979 113.709 115.315 112.366 113.931C110.03 111.512 107.912 108.66 106.01 105.374Z" fill="#0D131A"/>
<path d="M110.289 149.087L110.723 148.126L112.397 149.862C113.389 151.123 113.761 152.105 113.513 152.807C113.368 153.262 112.604 153.779 111.219 154.358L107.84 155.567L107.902 154.575C108.894 154.223 109.803 153.8 110.63 153.303C111.332 152.869 111.746 152.528 111.87 152.28C111.953 151.991 111.859 151.536 111.591 150.916C111.281 150.255 110.847 149.645 110.289 149.087Z" fill="#0D131A"/>
<path d="M107.095 155.815L108.025 154.668L108.893 157.861C109.452 160.052 109.731 161.343 109.731 161.736L109.576 162.666C109.472 162.811 109.183 162.945 108.707 163.069L105.793 163.472C104.119 163.617 102.559 163.617 101.112 163.472L101.608 162.387L105.514 162.294C106.878 162.129 107.653 161.912 107.839 161.643C107.984 161.457 108.015 161.147 107.932 160.713L107.095 155.815Z" fill="#0D131A"/>
<path d="M90.8192 165.673L91.9662 164.867C92.9376 165.281 93.8884 165.611 94.8184 165.859L96.8646 166.045C97.34 165.839 97.7016 165.157 97.9497 163.999L99.2828 163.689L99.0967 164.743C98.9314 165.529 98.7351 166.149 98.5077 166.603C98.2804 167.141 98.053 167.461 97.8257 167.564H96.8026C95.3558 167.399 93.3613 166.769 90.8192 165.673Z" fill="#0D131A"/>
<path d="M70.3888 113.869C70.0788 114.716 69.6757 116.597 69.1797 119.511C68.4356 123.789 68.105 127.685 68.1876 131.199C67.3609 132.563 66.8132 133.896 66.5445 135.198C65.5938 131.271 65.6971 126.445 66.8545 120.72L68.8697 113.435L70.3888 113.869Z" fill="#0D131A"/>
<path d="M100.678 111.76L102.414 111.792C101.112 113.486 100.006 116.432 99.0968 120.627C98.0221 125.546 98.0014 129.628 99.0348 132.873C98.3321 132.232 97.6811 131.788 97.0817 131.54C96.3997 128.15 96.5237 124.306 97.4537 120.007C98.2805 116.225 99.3552 113.476 100.678 111.76Z" fill="#0D131A"/>
<path d="M66.3894 133.338C67.1128 130.568 68.1566 128.946 69.5207 128.471C77.3332 125.866 84.3914 125.536 90.6952 127.479C95.4282 128.925 98.8591 131.199 100.988 134.299C101.794 135.457 102.528 136.872 103.189 138.546C103.623 139.642 104.026 140.479 104.398 141.058C104.977 141.967 105.855 142.918 107.033 143.91L107.56 144.375C109.875 146.338 111.022 148.002 111.002 149.366C110.96 150.71 109.7 153.562 107.219 157.923C105.215 161.457 102.218 163.824 98.2287 165.022C95.9759 165.704 92.855 166.045 88.8661 166.045H85.6728C82.9033 166.045 78.4596 161.633 72.3419 152.807C71.7012 151.898 70.8848 150.927 69.8927 149.893L67.7845 147.785C66.4825 146.38 65.7487 144.178 65.5834 141.182C65.4387 138.598 65.7074 135.984 66.3894 133.338ZM99.7168 135.198C97.712 132.325 94.4878 130.227 90.0441 128.905C84.1331 127.127 77.4572 127.479 70.0167 129.959C69.6653 130.083 69.314 130.434 68.9626 131.013C68.5493 131.695 68.1979 132.604 67.9086 133.741C67.3298 135.994 67.1542 138.35 67.3815 140.81C67.6089 143.476 68.2702 145.398 69.3657 146.576C70.0684 147.341 71.4738 149.108 73.582 151.877C76.6409 155.846 78.8937 158.626 80.3404 160.217C83.0686 163.214 85.0631 164.661 86.3239 164.557L88.8661 164.495C92.7103 164.475 95.6659 164.154 97.7327 163.534C101.329 162.459 104.036 160.331 105.855 157.148C108.17 153.097 109.348 150.555 109.39 149.521C109.431 148.55 108.48 147.227 106.537 145.553L106.041 145.119C104.739 144.003 103.747 142.907 103.065 141.833C102.652 141.192 102.207 140.283 101.732 139.104C101.091 137.534 100.42 136.232 99.7168 135.198Z" fill="#0D131A"/>
<path d="M104.863 107.73C105.731 105.994 105.99 103.783 105.638 101.096C105.225 97.9128 103.954 95.4533 101.825 93.7172L99.2518 91.547C96.5856 89.2322 94.5912 87.7131 93.2684 86.9897C91.1396 85.8116 89.1348 85.5016 87.254 86.0596C83.513 87.155 79.2451 89.5525 74.45 93.2521C68.8696 97.5511 65.9451 101.426 65.6764 104.878C65.4077 108.247 65.8211 110.541 66.9165 111.76C67.6606 112.567 68.9006 113.125 70.6368 113.435L76.9302 113.807H79.1934L94.4465 113.125C100.027 112.257 103.499 110.458 104.863 107.73ZM107.188 100.879C107.581 103.896 107.271 106.407 106.258 108.412C104.708 111.512 100.998 113.559 95.1285 114.551L79.1934 115.388L76.9302 115.357L69.9237 115.016C67.9602 114.685 66.5238 114.034 65.6144 113.063C64.7877 112.174 64.1676 111.078 63.7543 109.776C63.2582 108.247 63.1342 106.666 63.3822 105.033C64.023 101.044 67.4125 96.7141 73.551 92.0431C78.656 88.1368 83.0687 85.6463 86.7889 84.5715C89.0211 83.9101 91.3463 84.2202 93.7644 85.5016C95.2319 86.2663 97.402 87.8888 100.275 90.3689L102.817 92.5081C105.256 94.5129 106.713 97.3031 107.188 100.879Z" fill="#0D131A"/>
</svg>
