<svg width="203" height="199" viewBox="0 0 203 199" fill="none" xmlns="http://www.w3.org/2000/svg">
<path d="M142.015 77.1935L141.658 76.941L142.117 77.9407C142.262 78.2369 142.59 78.5905 143.101 79.0013L143.868 79.7003L143.849 78.9265C143.816 78.5577 143.205 77.9801 142.015 77.1935ZM158.419 68.9997C158.649 68.1549 159.094 67.119 159.752 65.892L160.711 64.2169C160.935 63.8878 161.241 63.7806 161.627 63.8953C161.994 64.0282 162.157 64.2971 162.116 64.7019L161.798 68.5114C161.603 71.1986 161.546 73.0216 161.628 73.9803C161.678 74.4413 161.794 74.7926 161.976 75.034L162.771 75.6505L163.925 76.3538C164.455 76.7279 164.848 77.1282 165.101 77.5546C165.753 78.6116 166.178 80.2372 166.375 82.4313C166.575 84.4597 166.512 85.9695 166.188 86.9606C166.074 87.3094 166.052 87.6131 166.123 87.8717C166.175 88.1117 166.338 88.3898 166.611 88.7059L167.243 89.072L167.792 89.4924L168.003 90.4617C167.982 90.7009 167.85 90.9574 167.607 91.2311L166.99 92.0533C166.764 92.456 166.65 92.8232 166.646 93.1547L166.8 94.2892C166.867 94.8978 166.834 95.3764 166.701 95.7249C166.53 96.2388 166.186 96.5022 165.669 96.515C165.08 96.4533 164.675 96.4489 164.453 96.5018C164.009 96.6259 163.666 96.788 163.424 96.988C163.07 97.3525 162.835 97.8381 162.717 98.4447C162.582 99.0326 162.595 99.5117 162.757 99.8819L163.281 100.053L163.915 100.226L164.77 100.429C165.1 100.598 165.29 100.876 165.341 101.264L164.92 101.839L164.136 102.77L163.101 103.837C162.653 104.329 162.548 104.678 162.786 104.883C162.95 105.014 163.266 104.75 163.734 104.092C164.408 103.142 164.941 102.484 165.332 102.12C166.487 101.028 167.703 100.276 168.979 99.8665C170.515 99.2937 171.283 99.0718 171.281 99.2007L170.861 99.7488L170.413 100.269C171.636 99.6927 173.339 99.0113 175.523 98.2245L176.825 98.0176C177.489 97.9327 177.83 97.9364 177.848 98.0287C177.883 98.1948 177.631 98.4684 177.092 98.8494L176.034 99.5563L168.868 105.032C168.124 105.613 167.387 106.462 166.655 107.578C166.037 108.474 165.624 109.234 165.414 109.858C165.28 110.28 165.046 110.6 164.712 110.817L163.711 111.386L163.181 111.767L163.207 111.933C163.33 112.487 163.304 113.215 163.128 114.115L162.541 114.717L161.899 115.235C166.154 122.373 168.888 129.439 170.103 136.433C171.943 146.916 170.082 156.161 164.52 164.168C157.46 174.315 149.013 180.633 139.178 183.124C134.982 184.183 130.184 184.666 124.783 184.57L109.091 183.267C100.18 182.157 91.9218 178.706 84.3156 172.913C81.9023 171.063 79.6841 169.068 77.661 166.928L75.1208 164.027L75.6157 161.739L120.649 150.154L121.388 153.422L122.673 152.275C122.768 151.963 122.772 151.659 122.683 151.364C122.593 151.105 122.475 150.91 122.329 150.78L128.6 153.97C132.78 156.078 137.108 156.475 141.583 155.161C146.984 153.58 151.617 149.633 155.483 143.32C158.035 139.148 159.121 134.26 158.739 128.656C158.454 124.398 157.403 120.141 155.587 115.885C154.223 115.925 153.447 116.046 153.26 116.246C152.719 116.848 152.208 117.211 151.728 117.335C150.711 117.637 149.433 117.255 147.896 116.188L147.787 116.104C147.293 115.767 147.088 115.065 147.174 113.997L147.1 113.168L146.857 112.557C146.712 112.39 146.483 112.24 146.171 112.108L145.042 111.626L143.908 111.724L142.547 112.289C141.489 112.904 140.84 113.238 140.6 113.291C139.787 113.484 139.138 112.916 138.655 111.584L138.072 109.229L137.939 108.813L137.317 107.453C137.12 106.935 137.181 106.429 137.5 105.935C137.687 105.624 137.889 104.862 138.105 103.648C138.321 102.435 138.424 101.497 138.412 100.833L138.397 99.7004C138.403 99.1662 138.519 98.6609 138.745 98.1845C138.877 97.9096 139.13 97.5163 139.505 97.0046L140.433 95.5503L140.721 94.4759L140.593 93.5074C140.417 92.7871 140.35 92.1601 140.393 91.6264L140.49 90.2736C140.533 89.7399 140.639 89.2713 140.81 88.8679C140.885 88.6846 141.139 88.236 141.571 87.5223C141.871 87.0098 142.014 86.643 141.998 86.4218C141.965 86.053 141.654 85.0089 141.064 83.2894C140.473 81.6621 140.126 80.4978 140.023 79.7968C139.921 79.0773 139.874 78.2939 139.883 77.4467L139.923 76.3143C139.943 76.1119 140.047 75.938 140.233 75.7927L137.795 73.6111C137.649 73.4806 137.568 73.3231 137.552 73.1387C137.517 72.9357 137.565 72.7521 137.696 72.5877C137.79 72.4414 137.938 72.3417 138.141 72.2886L138.666 72.3772C140.371 73.2614 141.462 73.7614 141.94 73.8771L143.406 73.8654L144.071 73.7621C145.049 73.6254 146.104 74.1341 147.234 75.2884L147.453 75.5395L147.126 72.5519C147.079 71.7593 147.378 70.5192 148.023 68.8316C148.516 67.6212 149.12 66.32 149.835 64.9278C150.137 64.3416 150.389 63.1839 150.592 61.4546L150.852 57.8656C150.857 57.4604 151.053 57.223 151.441 57.1536C151.829 57.0657 152.113 57.1977 152.294 57.5496L152.643 58.4928C152.875 59.2322 152.987 59.9333 152.98 60.5964C152.974 61.0752 153.094 61.9423 153.338 63.1975L153.114 60.957C153.098 60.7542 153.146 60.5706 153.258 60.406C153.389 60.2232 153.556 60.1145 153.759 60.0799C153.962 60.0637 154.155 60.1118 154.339 60.2243C154.503 60.3366 154.603 60.4943 154.638 60.6973L154.875 61.805C155.087 62.6178 155.319 63.3019 155.571 63.8572C155.805 64.3939 155.909 65.0213 155.883 65.7394L155.641 67.588L155.434 68.8291C155.391 69.4181 155.887 70.409 156.923 71.8017L157.577 72.693L157.875 73.2212L157.971 72.0618C158.078 70.6814 158.227 69.6607 158.419 68.9997Z" fill="#0D131A"/>
<path d="M156.925 84.3459L157.426 84.0751C157.554 84.1317 157.551 84.4172 157.416 84.9315C157.224 85.6846 157.131 86.5862 157.138 87.6362C157.146 88.6126 157.238 89.4425 157.415 90.1259C157.575 90.6987 157.837 91.2265 158.2 91.7093C158.509 92.1548 158.67 92.5802 158.684 92.9856C158.692 93.9435 158.609 94.8452 158.433 95.6906C158.431 95.8748 158.495 96.0044 158.623 96.0795C158.733 96.1544 158.908 96.0918 159.15 95.8918C159.393 95.5997 159.609 95.1968 159.799 94.6831C159.894 94.4079 159.907 94.0764 159.838 93.6889C159.806 93.2096 159.884 92.7868 160.073 92.4204L160.525 91.5135C160.695 91.1838 160.862 91.0475 161.027 91.1045L161.105 91.5751L160.952 92.9826L161.278 93.4835L161.407 94.3138C161.367 94.608 161.101 95.3051 160.61 96.405L159.954 98.2491C159.745 98.8731 159.657 99.3418 159.69 99.6553C159.773 100.522 159.943 100.957 160.201 100.959L160.426 100.603L160.656 99.8592L161.559 98.1836C161.746 97.8725 162.101 97.4619 162.623 96.9518C162.209 97.6841 161.998 98.4463 161.99 99.2382C161.986 99.5882 162.074 99.9943 162.253 100.457C162.379 100.753 162.745 100.969 163.352 101.104C163.941 101.203 164.252 101.381 164.287 101.639C164.32 101.934 164.114 102.264 163.667 102.627L162.607 103.528C162.327 103.875 162.175 104.232 162.153 104.6C162.111 105.023 162.255 105.347 162.585 105.572C162.951 105.834 163.489 105.48 164.2 104.512L165.799 102.402C166.394 101.911 167.674 101.206 169.638 100.288L167.852 101.789C167.592 102.007 167.339 102.326 167.095 102.747L166.812 103.325L167.926 102.591C168.817 102.029 169.606 101.559 170.292 101.18C171.404 100.602 173.238 99.8576 175.792 98.9459L168.463 104.088C167.589 104.761 166.742 105.589 165.92 106.575C165.154 107.525 164.666 108.302 164.456 108.908C164.286 109.367 163.893 109.841 163.28 110.332L161.997 111.285C161.829 111.467 161.78 111.734 161.85 112.085L161.863 113.466C161.786 113.779 161.598 114.062 161.301 114.317L157.257 109.852L155.504 108.258L154.544 107.557L156.533 110.314L154.982 110.463L154.618 110.929L153.507 108.844L153.607 109.785C153.764 110.634 154.039 111.65 154.431 112.833L153.241 112.931L152.52 113.144L152.05 113.111C151.521 112.645 151.238 112.319 151.203 112.135C151.186 112.024 151.224 111.914 151.318 111.805L151.514 111.558C151.74 111.137 151.82 110.548 151.754 109.792C151.689 109.036 151.501 108.463 151.192 108.073C150.902 107.683 150.362 107.244 149.575 106.757C148.733 106.25 148.062 105.995 147.565 105.989C147.38 105.987 147.084 106.085 146.677 106.283L145.704 106.715C145.353 106.803 145.06 106.643 144.824 106.236C144.427 105.458 144.123 104.58 143.913 103.601C143.703 102.567 143.719 101.932 143.961 101.695C144.241 101.422 145.057 100.989 146.409 100.395L147.828 99.6095C148.236 99.3376 148.488 99.0548 148.583 98.7611C148.811 98.1558 148.58 97.4164 147.888 96.5432C146.979 95.4097 146.788 94.3301 147.315 93.3043C147.542 92.8278 148.081 92.4376 148.932 92.1337C149.45 91.9367 149.989 91.5465 150.548 90.9632L151.423 89.3978L152.165 87.223C152.357 86.562 152.535 86.2324 152.701 86.2342C152.812 86.2354 152.883 86.494 152.914 87.0101C152.944 87.692 152.899 88.3638 152.782 89.0257L152.546 90.3494C152.506 90.6068 152.523 90.7728 152.596 90.8473C152.724 90.9776 152.88 91.0253 153.065 90.9905C153.582 90.8672 154.009 90.5863 154.346 90.1479C154.739 89.5995 155.034 88.7554 155.23 87.6155C155.387 86.7331 155.719 85.917 156.225 85.1672L156.925 84.3459Z" fill="#EFE908"/>
<path d="M159.136 69.201C159.366 68.393 159.81 67.394 160.468 66.2038L161.37 64.6387L161.052 68.4482C160.838 71.172 160.781 73.041 160.88 74.0552C160.963 74.9587 161.361 75.6538 162.075 76.1404C163.044 76.7957 163.693 77.3829 164.019 77.9022C164.635 78.9036 165.097 80.4283 165.407 82.4762C165.717 84.469 165.739 85.8875 165.471 86.732C165.261 87.3928 165.374 88.0387 165.81 88.6697L166.818 90.0622C166.98 90.4139 167.005 90.6721 166.892 90.8366C166.669 91.0921 166.472 91.3847 166.302 91.7144C166.133 92.0625 166.045 92.5036 166.039 93.0378C166.032 93.6824 165.934 94.2523 165.744 94.7476C165.553 95.3166 165.134 95.6989 164.487 95.8944C163.655 96.1433 163.108 96.3952 162.847 96.6503L162.399 97.2256C161.802 97.8455 161.286 98.6411 160.852 99.6127L160.509 100.659L160.254 101.153C160.143 101.189 160.034 101.087 159.926 100.846L159.66 99.8484C159.609 99.461 159.66 99.0011 159.814 98.4686L160.356 96.8995L160.952 95.4693L161.296 94.3678L161.276 93.7044L161.058 93.3981C160.913 93.1755 160.841 92.9537 160.844 92.7327L160.993 91.712C161.051 91.4179 161.044 91.2613 160.97 91.2421C160.805 91.2034 160.571 91.5232 160.269 92.2015C159.986 92.7879 159.87 93.2655 159.921 93.6345L159.911 94.6014C159.493 95.7389 159.072 96.2685 158.649 96.1903C158.336 96.1316 158.266 95.7809 158.439 95.1381L158.599 93.2057C158.604 92.69 158.48 92.2465 158.226 91.8754C157.826 91.3369 157.573 90.8736 157.467 90.4856C157.077 89.0631 156.925 87.7076 157.013 86.4191C157.036 85.9957 157.153 85.4536 157.363 84.7927C157.63 83.9299 157.372 83.9547 156.588 84.8672C156.008 85.6161 155.612 86.4407 155.399 87.341C155.051 88.8845 154.662 89.9118 154.232 90.4229C154.101 90.5689 153.897 90.714 153.619 90.8583C153.304 91.0207 153.045 91.0916 152.842 91.071L152.513 90.8463L152.433 90.5415L152.852 87.6449C152.916 86.8167 152.865 86.4017 152.7 86.3999C152.607 86.3989 152.504 86.5728 152.39 86.9215L151.989 88.1605C151.532 89.5555 151.153 90.4263 150.855 90.7731L149.793 91.7286L148.736 92.3526C148.403 92.4779 148.152 92.6042 147.985 92.7313C147.762 92.9131 147.575 93.1873 147.423 93.5541C147.14 94.1773 147.106 94.794 147.32 95.4042L148.081 96.6834L148.705 97.7678C148.83 98.1007 148.836 98.4507 148.721 98.8179C148.645 99.0197 148.384 99.2931 147.938 99.6383L146.074 100.668C145.223 100.972 144.564 101.342 144.099 101.779C143.633 102.253 143.902 103.721 144.908 106.181C145.088 106.552 145.345 106.693 145.678 106.604L146.567 106.199C147.03 105.983 147.428 105.877 147.759 105.881C148.128 105.885 148.752 106.168 149.631 106.73C150.455 107.236 150.994 107.638 151.249 107.936C151.504 108.215 151.683 108.742 151.785 109.516C151.888 110.236 151.882 110.779 151.767 111.146L151.373 111.833C151.26 112.016 151.277 112.172 151.423 112.303L151.97 112.834C152.153 113.002 152.346 113.068 152.549 113.034L153.298 112.793L154.377 112.694L154.968 114.331L154.692 114.273C154.269 114.176 153.731 114.465 153.079 115.139L151.627 116.422C151.054 116.563 149.953 116.082 148.324 114.977C148.032 114.771 147.896 114.503 147.918 114.171C147.961 113.638 147.929 113.223 147.821 112.927C147.661 112.446 147.333 112.074 146.838 111.811C146.195 111.565 145.682 111.329 145.297 111.104L143.194 111.191L141.195 111.971C140.733 112.076 140.248 111.758 139.74 111.016C139.359 110.441 139.043 109.774 138.794 109.016L138.395 107.547C138.326 107.086 138.432 106.636 138.714 106.197C138.976 105.776 139.135 104.756 139.189 103.135L139.171 99.7089C139.178 99.1011 139.396 98.4956 139.827 97.8924L141.121 95.8895C141.46 95.2116 141.56 94.5035 141.42 93.7652C141.229 92.7132 141.144 92.0215 141.166 91.6902C141.209 91.1933 141.504 90.2756 142.053 88.9368C142.564 87.7083 142.795 86.845 142.745 86.3471C142.714 85.8495 142.403 84.7685 141.812 83.1043C141.205 81.3478 140.858 80.2112 140.771 79.6945C140.668 79.0118 140.63 78.2562 140.657 77.4276L140.696 76.3781L140.829 76.9045C140.972 77.3481 141.179 77.8109 141.45 78.2927C141.667 78.7003 142.04 79.1281 142.57 79.5759C143.154 80.0611 143.574 80.4986 143.828 80.8881C144.081 81.2777 144.251 81.7493 144.338 82.3028C144.612 80.7585 144.708 79.6083 144.624 78.8522C144.574 78.3543 144.211 77.8346 143.535 77.2931L141.833 76.1418C141.467 75.8799 140.773 75.2829 139.751 74.3508L138.299 73.0365L139.647 73.7142C140.619 74.2037 141.316 74.506 141.739 74.6211L142.982 74.7175L144.146 74.5091C144.903 74.4068 145.755 74.8397 146.703 75.8078C146.886 75.994 147.02 76.373 147.106 76.945C147.21 77.554 147.443 78.1183 147.806 78.638C148.478 79.5663 148.858 80.2888 148.944 80.8055C148.31 76.3779 147.953 73.611 147.873 72.5049C147.826 71.7676 148.143 70.5737 148.824 68.9233C149.279 67.7678 149.846 66.549 150.523 65.267C150.9 64.5343 151.192 63.0915 151.4 60.9386L151.599 57.9014L151.922 58.7062C152.136 59.3717 152.239 59.9991 152.233 60.5884C152.228 61.0857 152.329 61.9157 152.538 63.0784L152.924 65.6799C153.006 66.6938 153.084 67.1183 153.159 66.9534C153.421 66.6247 153.685 66.0749 153.952 65.3042C154.218 64.5519 154.188 63.0687 153.862 60.8548L154.126 61.9905L154.849 64.1811C155.101 64.7548 155.166 65.5016 155.046 66.4213L154.688 68.7659C154.626 69.3915 154.885 70.1588 155.465 71.0677L156.936 73.1282C157.444 73.889 157.73 74.7394 157.793 75.6795C158.15 75.0939 158.415 74.4153 158.59 73.6435L158.777 71.7115C158.824 70.7541 158.944 69.9173 159.136 69.201Z" fill="#E50020"/>
<path d="M85.0216 171.567C82.6077 169.772 80.3885 167.869 78.364 165.858L76.0408 163.346L97.6147 157.806C99.6009 161.64 102.144 165.085 105.245 168.139C110.116 172.908 115.724 175.953 122.07 177.274C134.118 179.763 145.611 177.253 156.551 169.746C158.836 168.168 160.977 166.202 162.975 163.848C156.068 173.517 147.864 179.488 138.364 181.761C134.353 182.731 129.758 183.151 124.579 183.021L109.688 181.726C100.98 180.637 92.758 177.251 85.0216 171.567Z" fill="#DDD583"/>
<path d="M99.8879 157.278L109.677 154.732C112.134 159.308 115.929 163.005 121.06 165.824C126.32 168.7 132.138 170.172 138.516 170.241C144.065 170.301 149.256 169.271 154.091 167.15C158.777 165.082 162.569 162.241 165.465 158.625C163.041 162.909 159.879 166.338 155.98 168.911C145.229 175.996 133.986 178.324 122.25 175.894C116.199 174.631 111.013 171.738 106.693 167.216C104.287 164.684 102.019 161.372 99.8879 157.278Z" fill="#D18200"/>
<path d="M154.902 110.241L154.538 108.054L155.661 109.061L156.641 110.481L159.938 115.02C162.787 119.177 165.131 124.029 166.97 129.575C168.737 134.899 169.6 139.504 169.557 143.39C169.499 148.805 168.135 153.883 165.465 158.625C162.569 162.241 158.777 165.082 154.091 167.15C149.256 169.271 144.064 170.301 138.516 170.241C132.138 170.172 126.32 168.7 121.06 165.824C115.929 163.006 112.134 159.308 109.677 154.732L121.074 151.788L121.676 152.375C122.701 153.086 124.753 154.214 127.834 155.758C132.289 157.998 136.985 158.408 141.923 156.988C147.878 155.284 152.919 151.075 157.048 144.36C159.713 140.023 160.764 134.858 160.203 128.866C159.788 124.551 158.593 120.053 156.616 115.371C155.627 113.039 154.78 111.262 154.074 110.038L153.812 108.737L154.902 110.241Z" fill="#F29600"/>
<path d="M105 165.291C103.253 163.154 101.549 160.483 99.888 157.278L121.046 151.816L121.128 151.955C121.292 152.141 121.685 152.421 122.308 152.796C122.659 154.421 122.825 156.062 122.807 157.72C122.773 160.833 122.124 163.791 120.858 166.596C119.63 169.309 117.918 171.685 115.72 173.724C111.63 171.819 108.056 169.008 105 165.291Z" fill="#D18200"/>
<path d="M81.3752 168.681C80.2896 166.791 79.482 164.765 78.9524 162.604L97.6148 157.806C99.0768 160.677 100.928 163.377 103.168 165.906C106.5 169.737 110.303 172.679 114.576 174.734C112.604 176.315 110.453 177.525 108.121 178.366C105.678 179.242 103.157 179.675 100.558 179.665C93.6874 177.399 87.2933 173.737 81.3752 168.681Z" fill="#DDD583"/>
<path d="M57.1763 26.2625L49.0337 35.071C48.6969 35.5279 48.517 36.8245 48.4938 38.961C48.4678 41.3553 48.6803 43.8535 49.1314 46.4556C49.4079 48.1533 50.0478 50.343 51.0511 53.0248C52.0718 55.7989 52.955 57.6505 53.7007 58.5795L57.7428 63.2376L61.4843 67.5609C62.0467 68.3959 62.4373 69.7724 62.6562 71.6905C63.1357 75.0666 63.5361 77.2445 63.8573 78.2242C64.3037 79.5553 64.8612 80.8415 65.5299 82.0829C66.018 82.9724 66.7516 84.1684 67.7308 85.6711C69.055 87.6564 70.5921 89.5611 72.3421 91.3853L73.564 90.9012L75.0304 90.8342C75.5262 91.0054 75.8715 91.4696 76.066 92.227L76.4051 94.1095L78.1344 95.2887C78.482 95.532 78.6994 95.8843 78.7866 96.3458C78.8373 96.77 78.7317 97.1556 78.4699 97.5028L74.3764 102.68L71.7627 109.09C71.5542 109.622 71.1637 109.931 70.5913 110.017C70.3326 110.069 69.9557 109.973 69.4607 109.728L68.4725 109.054C66.5442 106.675 64.5582 104.517 62.5145 102.579C59.4487 99.6909 56.9961 98.0618 55.1566 97.6918C53.8138 97.4194 52.4301 97.5149 51.0056 97.9783C50.5798 98.1395 49.4682 98.6524 47.6706 99.517C46.5586 100.058 45.7531 100.39 45.254 100.513C44.4221 100.725 43.6854 100.662 43.0438 100.323C42.5123 100.041 42.2132 99.5683 42.1467 98.9045L42.2158 97.6342L42.3606 97.0279C42.5381 95.9615 42.2927 94.7892 41.6245 93.5109C41.1905 92.7326 40.3419 91.9405 39.0786 91.1348C37.2114 89.9172 35.1074 89.2957 32.7664 89.2703C27.3655 89.2117 21.6454 91.3968 15.6059 95.8258C12.1682 98.3304 9.18885 101.07 6.66781 104.045C6.56725 104.818 6.55696 105.766 6.63693 106.891L6.78333 108.688C6.77334 109.609 6.54335 110.417 6.09336 111.112C5.62474 111.826 5.06785 112.179 4.4227 112.172C3.81441 112.165 3.27314 111.929 2.79888 111.463C2.19679 110.886 1.85556 110.053 1.77519 108.966L1.74934 108.8C1.40983 104.412 1.19856 100.947 1.11555 98.4039C1.06041 96.6902 1.07161 95.6588 1.14914 95.3097C1.50552 93.0479 2.28172 89.4736 3.47774 84.5869C4.59683 79.994 5.60594 76.192 6.50507 73.1809C7.28961 70.5369 8.54527 66.9494 10.272 62.4185C11.885 58.1809 12.9357 55.6412 13.4242 54.7991C14.0631 53.6825 16.6038 50.5971 21.0462 45.5429C25.4325 40.5619 28.1742 37.6352 29.2714 36.763C30.1826 36.0361 31.6291 35.2413 33.6111 34.3786L35.3893 33.5967C36.1489 33.2549 36.6123 33.0205 36.7796 32.8934L43.6942 27.6635L50.8309 22.3531C52.2242 21.3735 53.5487 20.7892 54.8043 20.6003C56.1152 20.4119 57.0893 20.6895 57.7264 21.4332C58.1997 21.991 58.4131 22.7117 58.3666 23.5953C58.3005 24.5893 57.9038 25.4784 57.1763 26.2625Z" fill="#0D131A"/>
<path d="M28.9477 48.7507C33.0217 45.3688 35.4013 43.5342 36.0866 43.247C37.0096 43.128 38.2983 43.2894 39.9527 43.731C41.6253 44.1912 42.6156 44.6717 42.9235 45.1724C43.1221 45.5613 44.254 49.1287 46.3193 55.8744L47.7908 60.4217C48.1669 61.4389 50.8381 64.1572 55.8045 68.5767C56.4435 69.1546 57.2511 71.1804 58.2273 74.6539L58.8669 76.8713L60.1121 81.8858L61.8028 89.1709C62.1737 90.6669 62.5148 91.5179 62.8259 91.7239C64.0517 92.5846 65.4383 93.9166 66.9857 95.7202C67.2769 96.0733 67.889 97.4246 68.8221 99.7741L71.3501 106.35L70.3587 108.522C68.8654 106.829 67.133 105.079 65.1617 103.271C61.2187 99.6731 58.0515 97.6402 55.66 97.1721C53.379 96.7237 50.8677 97.1017 48.1262 98.3061L45.5696 99.4664C44.7736 99.7709 44.1831 99.8198 43.7982 99.613C43.5966 99.5003 43.4625 99.1212 43.3958 98.4758L43.3504 97.5635C43.4826 97.2702 43.5515 96.8657 43.5571 96.35C43.5681 95.337 43.2755 94.2655 42.6795 93.1354C42.1739 92.1537 41.1516 91.2308 39.6124 90.3668C37.597 89.2213 35.2897 88.6344 32.6907 88.6062C27.4557 88.5494 22.0344 90.3786 16.4267 94.0938C12.9543 96.3955 9.7164 99.1786 6.71292 102.443C6.99644 95.0046 7.26292 90.8353 7.51234 89.9355C8.33994 86.7209 10.0932 81.4442 12.7723 74.1053C16.3438 64.363 19.1853 58.1863 21.2968 55.5752C22.1936 54.4797 24.7439 52.2049 28.9477 48.7507Z" fill="#008086"/>
<path d="M55.7463 25.5286C51.0476 30.4142 48.2405 33.4138 47.3251 34.5275C46.7271 35.2762 46.5141 37.0607 46.6863 39.8808C46.795 41.7608 47.0662 43.9465 47.5 46.4379C47.7768 48.1172 48.4987 50.3906 49.6659 53.2584C50.8513 56.1448 51.8804 58.1361 52.7534 59.2324L60.2334 68.1552C60.7421 68.8422 61.1774 70.3574 61.5391 72.7007C61.9871 75.579 62.3362 77.388 62.5863 78.1275C63.0503 79.5325 63.5253 80.781 64.0112 81.873L65.8247 85.4846C66.4929 86.7629 67.6184 88.3776 69.2011 90.3289C70.6748 92.1316 71.5585 93.0898 71.8522 93.2036L72.8509 92.9105C73.3327 92.6762 73.7114 92.6067 73.9869 92.7018C74.5012 92.8731 74.8339 93.6412 74.985 95.0059L77.2634 96.5503L73.0573 101.92L72.461 103.35C70.2852 98.2981 68.8786 95.4093 68.2413 94.684C66.2935 92.3972 64.6883 90.8233 63.4256 89.9623C63.0798 89.5533 62.2186 86.523 60.842 80.8716L59.57 75.7739L58.9301 73.5841L57.9422 70.3407C57.5472 69.3602 57.0851 68.6275 56.5557 68.1429L52.3427 63.9527C50.3012 61.8122 49.191 60.4923 49.0121 59.993L47.5399 55.501C45.1859 48.1811 43.9001 44.3542 43.6825 44.0203C43.2119 43.2231 41.9747 42.565 39.9709 42.0459C38.1508 41.5841 36.6869 41.43 35.5791 41.5838C34.8959 41.6869 32.3027 43.6665 27.7996 47.5227C23.4455 51.2331 20.8666 53.5905 20.063 54.5949C17.7646 57.4435 14.8169 64.0611 11.2199 74.4478C9.41218 79.641 7.82817 84.6065 6.46785 89.344C6.15973 90.5564 5.85861 95.37 5.56449 103.785L5.26257 108.672C5.25797 109.096 5.17102 109.463 5.00173 109.774C4.83263 110.067 4.64671 110.213 4.44394 110.21C4.18588 110.208 4.00235 110.132 3.89335 109.983C3.69299 109.76 3.56856 109.335 3.52006 108.708L3.22179 103.069L2.97612 97.678C3.01574 95.7259 3.58818 92.2416 4.69343 87.2249C5.66386 82.741 6.59783 79.0671 7.49537 76.2033C8.83245 71.9075 10.4309 67.3107 12.2907 62.4127C13.8462 58.3772 14.8307 55.9933 15.2442 55.261C15.8268 54.2358 18.2091 51.3052 22.3911 46.4693C26.5919 41.5968 29.2035 38.7608 30.2262 37.9614C31.0815 37.2892 32.7687 36.4049 35.2877 35.3086C36.5474 34.7513 37.7233 34.2667 38.8154 33.8549L51.1735 23.9041C52.1966 23.0679 53.2167 22.4987 54.2339 22.1966C55.2879 21.8949 55.9784 21.9761 56.3052 22.4401C56.9584 23.4051 56.7721 24.4346 55.7463 25.5286Z" fill="#F29600"/>
<path d="M42.243 51.8238C41.8212 51.6166 41.1966 51.4164 40.3691 51.2232L38.3263 50.8971C37.0264 51.7672 34.665 53.6296 31.2419 56.4844C27.633 59.4845 25.4734 61.4228 24.7634 62.2993C22.8013 64.7278 20.054 70.7214 16.5213 80.2798C13.8251 87.5081 12.0447 92.7292 11.1802 95.9433L10.9892 98.2622C9.57446 99.5178 8.14905 100.911 6.71292 102.443C6.99644 95.0046 7.26292 90.8353 7.51234 89.9355C8.33994 86.7209 10.0932 81.4442 12.7723 74.1053C16.3438 64.363 19.1853 58.1863 21.2968 55.5752C22.1936 54.4797 24.7439 52.2049 28.9477 48.7507C33.0217 45.3688 35.4013 43.5342 36.0866 43.247C37.0096 43.128 38.2983 43.2894 39.9527 43.731C41.6253 44.1912 42.6156 44.6717 42.9235 45.1724C43.1221 45.5613 44.254 49.1287 46.3193 55.8744L47.7908 60.4217C48.1669 61.4389 50.8381 64.1572 55.8045 68.5767C56.4435 69.1546 57.2511 71.1804 58.2273 74.6539L58.8669 76.8713L60.1121 81.8858L61.8028 89.1709C62.1737 90.6669 62.5148 91.5179 62.8259 91.7239C64.0517 92.5846 65.4383 93.9166 66.9857 95.7202C67.2769 96.0733 67.889 97.4246 68.8221 99.7741L71.3501 106.35L70.3587 108.522L67.9802 106.009C67.1911 103.975 66.6787 102.781 66.4428 102.428C65.0231 100.755 63.8281 99.6001 62.8579 98.9633C62.2176 98.5143 61.7274 97.8182 61.3874 96.8751C61.1365 96.2093 60.7384 94.6761 60.1929 92.2756L59.11 87.5943L57.8906 82.7459L57.2245 80.4177C56.7985 78.9026 56.3855 77.0469 55.9853 74.8506L55.5182 72.0273L47.876 65.3131C46.5802 64.1018 45.745 62.923 45.3703 61.7769L42.243 51.8238Z" fill="#00666C"/>
<path d="M197.607 76.2497C198.216 77.8588 198.958 81.7443 199.831 87.906C200.67 93.8096 201.08 97.7098 201.059 99.6069L201.052 100.215L200.838 112.287C200.574 114.549 199.604 115.653 197.927 115.598C197.19 115.572 196.668 115.225 196.362 114.559C196.074 113.93 195.937 112.897 195.953 111.46C195.963 110.557 195.88 109.728 195.703 108.971C192.038 105.284 188.188 101.604 184.154 97.9313C178.677 92.9722 175.003 90.0772 173.132 89.2464C170.875 88.2457 168.069 87.7915 164.712 87.8841C161.965 87.9832 160.007 88.3119 158.839 88.8702C158.302 89.1223 156.978 90.471 154.869 92.9164L152.435 95.5148C151.876 96.0429 151.357 96.332 150.877 96.3821L149.828 96.2325L148.204 95.5242C145.415 94.2782 143.378 93.4732 142.091 93.1093C139.095 92.2847 136.551 92.2847 134.459 93.1093C131.497 94.2745 128.186 96.0805 124.528 98.5275C121.743 100.395 119.875 101.793 118.924 102.722C118.607 103.068 117.639 104.78 116.021 107.857L111.163 117.171C110.919 117.61 110.382 117.844 109.552 117.872C108.962 117.865 108.504 117.612 108.177 117.111L95.8806 95.9233C95.5909 95.4412 95.5778 94.953 95.8412 94.4585C96.1233 93.9458 96.5411 93.674 97.0945 93.6432L102.432 93.563C103.231 91.306 103.909 89.9687 104.467 89.5511C104.783 89.3334 105.384 89.1558 106.27 89.018L108.841 89.1012L113.297 86.2208L120.068 81.4314C123.767 78.6717 126.933 75.676 129.568 72.4442C130.04 71.3626 130.813 68.9303 131.887 65.1474C133.018 61.1442 134.086 57.0113 135.091 52.7487C136.018 48.7985 136.799 44.8374 137.432 40.8656C138.006 37.2431 138.271 34.925 138.226 33.9115C138.195 33.3585 137.664 32.2568 136.631 30.6062C135.507 28.7888 133.991 26.6541 132.082 24.2019C131.318 23.2358 130.822 22.2173 130.594 21.1464C130.314 19.854 130.51 18.7325 131.184 17.782C131.69 17.0691 132.312 16.6522 133.05 16.5313C133.863 16.4111 134.755 16.5866 135.727 17.0576C136.552 17.4534 137.312 17.9774 138.005 18.6297L142.465 23.016L146.733 27.2344C146.879 27.365 147.522 27.5469 148.663 27.7803L150.925 28.2746C151.458 28.4462 153.594 29.5193 157.333 31.494L163.438 34.5996C165.238 35.1901 167.077 35.6061 168.955 35.8475L171.164 36.1754C172.01 36.332 172.543 36.522 172.761 36.7454C174.038 37.975 176.576 41.9536 180.375 48.6813L188.294 62.9967C189.922 65.8695 191.936 68.8477 194.336 71.9315L197.607 76.2497Z" fill="#0D131A"/>
<path d="M191.14 70.8194L193.701 74.3562L195.795 77.6116C196.386 79.1469 197.158 82.7748 198.11 88.4953C199.063 94.1606 199.529 97.8589 199.511 99.5902L199.445 105.64L199.295 111.773C199.215 112.417 199.09 112.885 198.921 113.178C198.695 113.562 198.371 113.743 197.947 113.72C197.671 113.698 197.472 113.328 197.351 112.608C197.264 112.11 197.224 111.557 197.23 110.949L197.202 108.49L195.543 88.1083L195.544 87.9978C193.792 81.237 190.077 72.7511 184.4 62.5401C179.246 53.2926 175.119 47.0955 172.019 43.9489C171.163 43.0554 167.3 41.4202 160.431 39.0431C154.076 36.819 150.696 35.7047 150.291 35.7003C149.149 35.5958 147.985 35.8319 146.799 36.4084C145.613 37.0034 144.701 37.804 144.063 38.8102C143.425 39.7979 141.687 45.4524 138.846 55.7736C138.001 58.9143 137.075 63.5737 136.067 69.7519C135.495 73.2455 135.124 75.1571 134.954 75.4869C134.653 76.0362 132.329 77.8345 127.983 80.8819L124.805 83.1684C124.173 83.6773 123.501 84.4896 122.788 85.6055C122.413 86.1725 121.878 87.0969 121.182 88.3787L120.561 89.5048C120.468 89.6143 119.978 89.7656 119.091 89.9586C117.353 90.3634 115.948 90.7442 114.875 91.1009C113.469 91.5646 111.61 93.8101 109.299 97.8374C107.758 100.528 106.137 103.79 104.436 107.621L97.1884 95.164L103.581 94.736L104.236 92.9472C104.729 91.7184 105.142 90.9861 105.477 90.7502C105.941 90.4421 106.717 90.3032 107.804 90.3334L109.268 90.4598L114.533 86.9803L120.967 82.6846C121.729 82.1219 123.544 80.4838 126.413 77.7703C129.263 75.0567 130.763 73.5441 130.914 73.2326C131.876 71.2168 133.689 64.6606 136.354 53.5638C139.096 42.0995 140.377 35.3441 140.196 33.2975C140.13 32.5784 139.117 30.8175 137.156 28.0148L133.449 23.0564C132.922 22.3876 132.562 21.6192 132.368 20.7514C132.139 19.8279 132.184 19.0916 132.503 18.5424C132.822 18.0117 133.45 17.9356 134.386 18.3142C135.212 18.6363 136.054 19.198 136.912 19.9994L141.341 24.6064L145.416 28.8228L147.762 29.2351L150.989 29.9609C151.742 30.2269 155.649 32.1021 162.708 35.5864L167.505 36.9924C169.949 37.6452 171.272 38.0648 171.473 38.2512C173.206 39.9462 176.904 45.7426 182.566 55.6403L191.14 70.8194Z" fill="#F29600"/>
<path d="M194.6 88.3192L196.107 107.4C192.313 103.749 188.671 100.375 185.184 97.2796C179.542 92.2818 175.702 89.3298 173.666 88.4235C171.189 87.3283 168.189 86.8813 164.666 87.0825C161.862 87.2362 159.756 87.6555 158.347 88.3401C157.736 88.6282 156.432 89.8482 154.436 92.0001C152.59 93.9694 151.316 95.0147 150.614 95.1361C150.189 95.2236 149.361 95.012 148.132 94.5013L144.305 92.9125C140.449 91.5075 137.086 91.3697 134.217 92.499C131.032 93.7723 127.557 95.5121 123.79 97.7184C120.618 99.5813 118.631 100.886 117.83 101.632C117.346 102.106 115.815 104.696 113.238 109.402L109.513 116.324L105.791 110.205C108.555 103.549 110.088 99.8906 110.39 99.2308C112.202 95.3086 113.654 93.1692 114.746 92.8127C115.523 92.5448 117.057 92.1838 119.348 91.7298L120.734 91.3856L121.57 90.7868L122.303 89.4962L123.607 86.5816C124.229 85.2805 124.792 84.4209 125.294 84.0027L126.714 83.1339L128.718 81.9123L133.707 78.3193C135.064 77.2841 135.855 76.5375 136.082 76.0794L136.601 74.1233L137.31 69.9589L138.321 63.3939C138.775 60.599 139.252 58.2925 139.751 56.4743L142.832 45.2347C143.752 41.9659 144.316 40.1669 144.522 39.8376C145.028 39.0694 145.901 38.4618 147.141 38.0148C148.27 37.5849 149.323 37.4214 150.299 37.5241C151.219 37.6814 154.562 38.7861 160.328 40.838C166.628 43.0615 170.124 44.527 170.816 45.2345C173.989 48.4924 178.145 54.5425 183.284 63.3846C189.13 73.4317 192.902 81.7432 194.6 88.3192Z" fill="#008086"/>
<path d="M191.646 103.18L190.989 94.9112C189.325 88.5382 185.643 80.4579 179.942 70.6703C174.947 62.1244 170.954 56.2972 167.965 53.1886C167.068 52.5526 163.911 51.275 158.494 49.3558C153.646 47.6454 150.422 46.5788 148.823 46.1562C148.27 46.1318 147.66 46.2449 146.994 46.4956C146.328 46.7278 145.873 46.9808 145.631 47.2544C145.346 47.9881 144.158 52.175 142.065 59.815L141.143 63.2588C140.529 65.4809 139.894 68.8173 139.237 73.2678L138.76 76.4677L137.907 81.1831C137.712 82.1757 137.492 82.8917 137.247 83.3311C136.908 84.009 136.162 84.8206 135.009 85.7659L129.099 90.1226L126.733 91.5613L125.815 92.1039C119.151 97.9628 115.412 101.026 114.598 101.293C113.557 102.129 111.454 106.463 108.291 114.294L108.29 114.322L105.791 110.205C108.555 103.549 110.088 99.8906 110.39 99.2308C112.202 95.3086 113.654 93.1692 114.746 92.8127C115.523 92.5448 117.057 92.1838 119.348 91.7298L120.734 91.3856L121.57 90.7869L122.303 89.4962L123.607 86.5816C124.229 85.2805 124.792 84.4209 125.294 84.0027L126.714 83.1339L128.718 81.9123L133.707 78.3193C135.064 77.2841 135.855 76.5375 136.082 76.0794L136.601 74.1233L137.31 69.9589L138.321 63.3939C138.775 60.599 139.252 58.2925 139.751 56.4743L142.832 45.2347C143.752 41.9659 144.316 40.1669 144.522 39.8376C145.028 39.0694 145.901 38.4618 147.141 38.0148C148.27 37.5849 149.323 37.4214 150.299 37.5241C151.219 37.6814 154.562 38.7861 160.328 40.838C166.628 43.0615 170.124 44.527 170.816 45.2345C173.989 48.4924 178.145 54.5425 183.284 63.3846C189.13 73.4317 192.902 81.7432 194.6 88.3192L196.107 107.4L191.646 103.18Z" fill="#00666C"/>
<path d="M23.0336 107.014L22.4818 106.897L21.5216 106.196C20.8844 105.452 20.6178 104.538 20.7218 103.452C20.7851 102.716 21.471 101.517 22.7795 99.8547C23.8638 98.4666 24.6756 97.5544 25.215 97.1182L25.4382 96.9272L24.365 93.9039L24.2027 93.5705C23.9504 93.0336 23.808 92.5624 23.7756 92.1568C23.7443 91.6407 23.852 91.0616 24.0986 90.4196C24.5528 89.3377 25.3168 88.5816 26.3907 88.1512C27.1313 87.8645 28.1833 87.747 29.547 87.7986L31.6733 88.0704C32.2972 88.335 33.3079 89.4788 34.7055 91.5018L35.1734 91.7003L35.7799 91.8726L37.8365 90.9279C38.7841 90.2382 39.4801 89.8129 39.9243 89.6519C40.5165 89.4373 41.1802 89.4353 41.9153 89.6459C42.9263 89.9148 43.7822 90.8911 44.4829 92.5749C45.0934 94.0736 45.3018 95.2547 45.1081 96.1184C45.0301 96.5044 44.7744 97.1371 44.3408 98.0165L43.0702 100.434L42.7601 100.983L42.8361 101.62C46.505 104.994 48.9032 106.539 50.0308 106.257L52.1932 105.755C53.6534 105.403 55.0408 104.957 56.3556 104.419C58.522 103.54 60.3751 102.657 61.9148 101.772C62.3698 100.616 62.7472 99.8188 63.0469 99.38C63.8142 98.32 64.9294 97.4848 66.3924 96.8744C67.6332 96.3537 69.6456 96.0808 72.4296 96.0557C74.0705 96.0367 75.5264 96.0801 76.7973 96.186L78.8413 96.4016L71.5981 111.52L70.5495 111.315L65.7829 109.716L62.6138 111.256L58.1668 113.335L56.2759 114.31L54.6617 115.259C52.9006 116.161 51.5126 116.653 50.4978 116.734C48.1735 116.874 45.3722 115.941 42.0941 113.935C40.0615 112.678 37.9769 111.109 35.8404 109.225C35.1542 109.604 34.5345 109.8 33.9813 109.813C33.2067 109.841 32.3615 109.583 31.4457 109.039C30.9143 108.739 30.3307 108.161 29.6947 107.307L28.4706 105.443L27.7923 106.789L27.3169 107.281L23.0336 107.014Z" fill="#0D131A"/>
<path d="M23.1045 105.578C22.8833 105.575 22.6723 105.49 22.4713 105.322C22.0509 104.986 21.8726 104.431 21.9363 103.658C21.9792 103.106 22.1881 102.537 22.5632 101.952L23.9928 100.172L25.7806 98.5056L26.8974 97.5231C27.1036 97.2122 26.6946 95.8262 25.6705 93.3653C25.2033 92.255 24.9716 91.5157 24.9756 91.1473C24.9666 90.2815 25.573 89.6065 26.795 89.1225L29.3403 89.0119L31.1895 89.3359L32.3364 90.6746L33.5352 92.3178C33.8983 92.8375 34.5495 93.1393 35.4888 93.2232L38.1292 91.9808C38.7612 91.5088 39.308 91.2292 39.7699 91.1421L41.3167 91.2971C41.8865 91.4506 42.4317 92.1749 42.9523 93.47C43.4368 94.6909 43.6208 95.5679 43.5044 96.1008C43.4263 96.5052 43.1142 97.2386 42.568 98.301L41.4949 100.362C41.2312 100.875 41.2607 101.556 41.5833 102.407L45.0645 105.236C47.6439 107.069 49.5899 107.818 50.9024 107.482L53.4834 106.626L57.3705 105.176L63.0924 102.834C63.19 102.338 63.445 101.77 63.8575 101.129C64.701 99.8491 65.9653 98.8589 67.6505 98.1588C68.7801 97.6922 70.6261 97.4635 73.1885 97.4729L76.6711 97.6213L70.7857 109.936L66.7444 107.764C62.9258 109.694 59.8871 111.107 57.6283 112.003C56.8134 112.344 55.4143 113.011 53.431 114.002C52.1333 114.67 51.1801 115.019 50.5714 115.049C48.4683 115.192 45.8327 114.279 42.6648 112.31C40.7239 111.092 38.7492 109.597 36.7405 107.825C36.6674 107.769 36.7624 107.512 37.0254 107.055L37.4477 106.369L35.9712 107.375C35.7099 107.667 35.3388 107.884 34.858 108.026C33.9145 108.329 32.884 108.161 31.7664 107.523C30.8138 106.96 30.0206 106.159 29.3866 105.121L28.738 103.732L26.7521 105.811L23.1045 105.578Z" fill="#F29600"/>
<path d="M41.2042 96.5732L38.9499 97.9026C37.6898 98.4968 36.8201 98.8005 36.3406 98.8137C36.0457 98.8105 35.7977 98.7249 35.5968 98.5569C35.2506 98.1848 35.2147 97.245 35.4891 95.7375C35.7439 94.3404 36.0402 93.3673 36.378 92.8184C36.8278 92.1417 37.4323 91.651 38.1914 91.3461L40.3213 91.2863C40.9639 91.5327 41.4291 91.9798 41.7171 92.6277C41.9691 93.183 42.0364 93.7824 41.9188 94.4258L41.8593 94.812C41.7397 95.6396 41.5213 96.2267 41.2042 96.5732Z" fill="#0D131A"/>
<path d="M40.236 91.5065L38.2717 91.5957C37.568 91.8828 37.01 92.3373 36.5977 92.9591C36.279 93.4529 35.9924 94.38 35.7379 95.7404C35.4825 97.1928 35.5007 98.0679 35.7924 98.3658C35.92 98.4961 36.0944 98.5625 36.3156 98.5649C36.7582 98.5513 37.6002 98.2565 38.8416 97.6805C40.0462 97.1042 40.7698 96.6791 41.0124 96.4055C41.3109 96.0772 41.5103 95.5359 41.6107 94.7818L41.6702 94.3956C41.769 93.7888 41.7105 93.2264 41.495 92.7083C41.2431 92.1345 40.8234 91.734 40.236 91.5065ZM36.1583 92.678C36.6456 91.9465 37.2964 91.4286 38.1109 91.1243L40.407 91.0387C41.0127 91.2847 41.4784 91.6858 41.8042 92.2419C42.0937 92.7424 42.2352 93.2966 42.2286 93.9043L42.1075 94.8701C41.9875 95.7345 41.7503 96.3582 41.3959 96.7412C41.1158 97.0697 40.3365 97.531 39.058 98.125C37.7425 98.737 36.8358 99.0495 36.3379 99.0625C35.969 99.0769 35.6661 98.9631 35.4291 98.7211C35.0097 98.2928 34.947 97.2791 35.2408 95.6797C35.4959 94.2641 35.8017 93.2636 36.1583 92.678Z" fill="#0D131A"/>
<path d="M39.8097 95.1213C39.4735 95.5229 38.2279 96.4856 36.0729 98.0095C35.9088 97.8419 35.9073 97.1327 36.0683 95.8819C36.248 94.6129 36.4789 93.722 36.761 93.2093C37.0801 92.6786 37.5269 92.2782 38.1014 92.0082C38.6944 91.7199 39.2388 91.6705 39.7345 91.8601C40.267 92.0501 40.6317 92.4224 40.8285 92.9772C40.7676 93.4923 40.643 93.9238 40.4549 94.2717L39.8097 95.1213Z" fill="white"/>
<path d="M40.4645 95.9297C40.2589 96.1854 39.526 96.6287 38.2655 97.2597C36.9496 97.9086 36.2187 98.1585 36.0728 98.0096C38.2278 96.4857 39.4734 95.5229 39.8096 95.1213L40.4549 94.2718C40.643 93.9239 40.7675 93.4924 40.8284 92.9773C40.9536 93.3286 40.9956 93.7067 40.9543 94.1115L40.8047 95.1598L40.4645 95.9297Z" fill="#DBDCDC"/>
<path d="M22.7138 103.363C23.0858 103.054 23.6136 102.838 24.297 102.717C25.0173 102.596 25.6424 102.75 26.1724 103.179C26.5378 103.478 26.7919 103.849 26.9345 104.293L28.3477 106.574C28.5481 106.797 28.9145 107.004 29.4471 107.194L30.3015 107.452L29.9057 108.249C29.4912 109.073 28.3076 109.419 26.3549 109.288L24.1186 108.959C23.347 108.712 22.7345 108.244 22.2811 107.558C21.9727 107.094 21.7849 106.567 21.7176 105.977C21.65 105.405 21.7199 104.909 21.9273 104.487L22.0117 104.35C22.2007 103.928 22.4347 103.599 22.7138 103.363Z" fill="#0D131A"/>
<path d="M22.7954 103.474C22.5536 103.674 22.3291 103.976 22.122 104.379L22.0372 104.544C21.8485 104.947 21.7788 105.425 21.8281 105.978C21.8956 106.55 22.0744 107.058 22.3646 107.504C22.8184 108.153 23.4128 108.593 24.1477 108.822L26.3563 109.15C28.2722 109.281 29.4094 108.962 29.768 108.192L30.1347 107.533L29.4182 107.304C28.8305 107.095 28.4365 106.879 28.2361 106.656C27.9813 106.358 27.5192 105.616 26.85 104.43L26.8227 104.402L26.7412 104.263C26.5984 103.838 26.3533 103.485 26.0061 103.205C25.5308 102.832 24.9607 102.706 24.2957 102.828C23.6492 102.949 23.1491 103.165 22.7954 103.474ZM22.1695 107.64C21.7524 107.009 21.5478 106.325 21.5558 105.588C21.5606 105.146 21.6477 104.761 21.8172 104.431L21.9017 104.294C22.1279 103.836 22.3712 103.497 22.6316 103.279C23.0225 102.933 23.5689 102.7 24.2708 102.579C24.9726 102.457 25.5795 102.593 26.0914 102.985C26.4755 103.266 26.7663 103.646 26.9639 104.127L28.4315 106.492C28.6134 106.715 28.9709 106.903 29.5038 107.056L30.3303 107.341L30.4127 107.398L30.4397 107.453L30.0157 108.305C29.5823 109.166 28.3616 109.531 26.3536 109.398L24.0897 109.07C23.2814 108.803 22.6414 108.326 22.1695 107.64Z" fill="#0D131A"/>
<path d="M22.6426 104.827L23.0925 104.141C23.3718 103.886 23.7884 103.715 24.3424 103.629C24.915 103.525 25.365 103.677 25.6924 104.086C25.8748 104.272 25.9924 104.476 26.0453 104.698L26.6425 105.727L27.5676 107.118C27.8589 107.453 28.3353 107.725 28.9966 107.935C25.6735 108.378 23.5555 107.342 22.6426 104.827Z" fill="white"/>
<path d="M22.8661 107.178C22.6303 106.825 22.4871 106.427 22.4366 105.985C22.4041 105.579 22.4539 105.239 22.5859 104.964L22.6427 104.827C23.5556 107.342 25.6736 108.378 28.9968 107.935C28.9401 108.063 28.7729 108.181 28.4952 108.289L26.2529 108.513L24.3198 108.271C23.7135 108.08 23.2289 107.716 22.8661 107.178Z" fill="#DBDCDC"/>
<path d="M29.207 91.1105C29.7714 91.7613 30.0029 92.5098 29.9016 93.356C29.8381 94.1106 29.6019 94.6422 29.1929 94.9509L27.992 96.0431L26.7887 97.3562C26.5637 97.7038 26.4284 98.2825 26.3827 99.0925L26.1814 99.8087L25.3798 99.7724C24.9022 99.6198 24.4445 99.3294 24.0067 98.901C23.1313 98.0257 22.7016 96.8514 22.7176 95.3779C22.7328 93.9782 23.3482 92.4744 24.564 90.8667C24.7136 90.6657 25.0199 90.4756 25.4827 90.2964C25.9083 90.1537 26.3055 90.0751 26.6743 90.0607C27.7072 90.0166 28.5514 90.3666 29.207 91.1105Z" fill="#0D131A"/>
<path d="M24.3443 90.7261C24.5314 90.4703 24.884 90.2531 25.4021 90.0745L26.6494 89.8117C27.7928 89.7689 28.7105 90.1473 29.4023 90.9468C29.9848 91.6347 30.2433 92.448 30.1778 93.3867C30.0768 94.1961 29.803 94.7917 29.3564 95.1737L28.1838 96.2109C27.5502 96.8303 27.1585 97.259 27.0084 97.4968C26.8024 97.7893 26.6766 98.3405 26.631 99.1505L26.4296 99.8667L26.3452 100.004L25.3771 100.021L25.3218 100.02C24.862 99.9234 24.3677 99.6048 23.839 99.0649C22.9087 98.1523 22.4519 96.9224 22.4687 95.3753C22.4841 93.9571 23.1093 92.4074 24.3443 90.7261ZM27.8279 95.8755L29.0291 94.7557C29.3822 94.5017 29.5901 94.025 29.653 93.3257L29.6831 93.105C29.6903 92.442 29.4664 91.8317 29.0116 91.2741C28.4472 90.6233 27.6672 90.3017 26.6716 90.3093L25.5906 90.5463L24.7557 91.0345C23.5772 92.6059 22.9808 94.0546 22.9664 95.3807C22.9516 96.7436 23.3361 97.8345 24.12 98.6535C24.5391 99.1002 24.9784 99.3904 25.4378 99.5244L25.9905 99.558L26.1342 99.0622C26.1428 98.2702 26.2877 97.6547 26.569 97.2157C26.7377 96.9597 27.1573 96.5129 27.8279 95.8755Z" fill="#0D131A"/>
<path d="M28.0698 93.9716L26.3667 95.4727C25.6192 96.404 25.432 97.5164 25.8051 98.8099L25.8036 98.948C25.4545 98.8337 25.0976 98.5996 24.7327 98.2456C24.0216 97.5195 23.6729 96.5303 23.6865 95.2778C23.6945 94.5411 23.8968 93.7329 24.2935 92.853C24.5956 92.1932 24.9336 91.6258 25.3075 91.1509C25.5503 90.8589 26.068 90.7171 26.8607 90.7257C27.7452 90.7537 28.3968 91.0187 28.8154 91.5206L29.088 91.8827C28.8936 92.8016 28.5542 93.4979 28.0698 93.9716Z" fill="white"/>
<path d="M28.9239 94.2573C27.5859 95.2375 26.7203 96.0109 26.327 96.5777C26.0643 96.9985 25.8903 97.7426 25.805 98.81C25.4319 97.5166 25.6191 96.4042 26.3666 95.4729L28.0697 93.9717C28.5542 93.4981 28.8936 92.8018 29.0879 91.8829C29.3409 92.3461 29.4185 92.8443 29.3205 93.3774C29.242 93.8187 29.1098 94.112 28.9239 94.2573Z" fill="#DBDCDC"/>
<path d="M28.7724 100.555C28.786 99.3029 29.2684 98.1753 30.2194 97.1725C31.189 96.1699 32.2822 95.6568 33.4992 95.6332C32.0971 97.4232 31.5276 98.9366 31.7907 100.174C31.9661 101.004 32.705 101.712 34.0075 102.298C35.0899 102.788 36.1562 103.058 37.2065 103.106L35.9749 104.474C35.4913 104.874 34.9268 105.071 34.2817 105.064C32.9361 105.049 31.6965 104.612 30.5628 103.752C29.3562 102.818 28.7594 101.752 28.7724 100.555Z" fill="#D18200"/>
<path d="M32.8816 96.483C33.7816 95.0928 34.3045 94.4722 34.4504 94.6212L33.2955 96.5703C32.5239 98.0171 32.2256 99.1744 32.4006 100.042C32.5593 100.707 33.2161 101.331 34.3712 101.915C35.453 102.461 36.4547 102.738 37.3763 102.749C38.0215 102.756 38.7144 102.606 39.4551 102.301L40.372 101.897C39.5336 102.717 38.5153 103.12 37.3171 103.107C36.2849 103.096 35.2 102.835 34.0626 102.326C32.7232 101.74 31.9659 101.023 31.7908 100.174C31.5802 99.195 31.9438 97.9648 32.8816 96.483Z" fill="#0D131A"/>
<path d="M63.3682 125.825L64.8967 125.124L82.3691 166.261L80.1265 166.513C78.7791 166.664 77.6246 166.882 76.6629 167.166C76.2373 167.309 75.4392 167.807 74.2685 168.66L72.4584 169.828C73.003 170.608 73.4244 171.699 73.7226 173.102C74.0033 174.413 74.0673 175.307 73.9147 175.784C73.7233 176.427 73.3762 176.985 72.8733 177.458C72.4077 177.896 71.8975 178.194 71.3427 178.354C69.255 178.773 67.5909 179.234 66.3502 179.736C65.5542 180.041 64.3579 180.709 62.7613 181.742L60.4487 183.347L59.5267 184.221C59.0624 184.529 58.4979 184.735 57.8332 184.838C57.2792 184.924 56.3592 184.758 55.0733 184.339L53.0222 184.786L50.8319 185.315C49.8513 185.636 48.9998 185.958 48.2773 186.282L47.1933 186.795C46.6375 187.047 46.2309 187.144 45.9734 187.086C45.5873 186.989 45.4442 186.592 45.5439 185.893C45.6433 185.231 45.9006 184.451 46.3159 183.553L46.9092 182.399L41.8743 182.593C41.2464 182.696 40.6455 182.856 40.0717 183.071L38.8494 183.582L37.8255 183.654C37.6423 183.542 37.5799 183.347 37.6382 183.072C37.7184 182.483 37.9096 181.85 38.2119 181.172C38.7983 179.796 39.7152 178.545 40.9626 177.416L38.8066 177.337C37.7741 177.345 36.9431 177.483 36.3133 177.752C35.3685 178.184 35.0964 177.776 35.497 176.528C35.8214 175.518 36.7829 174.405 38.3815 173.188C39.2735 172.535 40.2383 171.965 41.2759 171.479C42.1469 171.065 42.878 170.796 43.4692 170.674L43.7463 170.622L44.3829 170.573L47.8348 168.456C48.8005 167.803 49.7401 167.012 50.6535 166.082L51.9421 164.549L52.2324 163.281L50.6143 162.048C49.7554 161.357 49.0806 160.678 48.5901 160.009C46.7011 157.41 45.6197 155.132 45.346 153.177C44.8512 149.506 46.1433 145.108 49.2223 139.984C51.2877 136.525 54.5246 132.987 58.933 129.369C62.464 126.755 63.9424 125.574 63.3682 125.825Z" fill="#0D131A"/>
<path d="M59.5037 130.287C60.601 129.396 61.6784 128.644 62.7359 128.029L64.0153 127.352L79.9233 164.853C78.5022 165.003 77.2552 165.238 76.1825 165.558C75.6091 165.736 74.8759 166.198 73.9829 166.943C72.9784 167.78 72.2074 168.324 71.67 168.576C71.3549 168.739 70.8631 169.037 70.1947 169.472L69.3033 170.07L70.0763 170.189C70.6101 170.269 70.9685 170.364 71.1517 170.477C71.3713 170.627 71.5965 171.108 71.8273 171.921L72.3001 174.22C71.925 174.805 71.0895 175.358 69.7934 175.878C68.8677 176.236 67.8875 176.529 66.8526 176.758C65.8917 176.968 64.856 177.279 63.7454 177.691C62.4315 178.156 61.4217 178.624 60.716 179.095L58.6282 180.371C57.9606 180.732 57.3685 180.937 56.8518 180.987L55.4468 183.044C53.8305 182.492 51.9867 181.671 49.9154 180.58C47.6976 179.396 46.0042 178.3 44.8353 177.292C43.5019 176.154 42.7392 175.087 42.5472 174.09L42.6704 172.931L48.9615 169.103C50.0572 168.36 51.0622 167.487 51.9764 166.484C52.6854 165.699 53.1345 165.087 53.3237 164.647L53.4427 163.875L54.5174 164.218L57.4458 164.471L55.9287 164.123L54.7446 163.668C54.4506 163.572 54.0748 163.384 53.617 163.103L52.9855 162.682C52.3632 162.27 51.4708 161.265 50.3083 159.668C48.8546 157.719 47.9841 155.545 47.6967 153.147C47.2036 149.329 48.1976 145.213 50.679 140.801C53.0661 136.572 56.0077 133.067 59.5037 130.287Z" fill="#F29600"/>
<path d="M69.7935 175.878C71.0896 175.358 71.9252 174.805 72.3002 174.22C72.384 174.994 72.3973 175.464 72.3402 175.629C72.1128 176.198 71.6839 176.654 71.0534 176.997L69.4987 177.56L66.1697 178.546C65.7818 178.616 64.8086 179.112 63.25 180.034L60.3829 181.771L59.2388 182.726C58.7551 183.126 58.1809 183.378 57.5161 183.481C57.1469 183.532 56.4571 183.387 55.4469 183.044L56.8519 180.987C57.3686 180.937 57.9608 180.732 58.6283 180.371L60.7161 179.095C61.4218 178.624 62.4316 178.156 63.7455 177.691C64.8561 177.279 65.8918 176.968 66.8528 176.758C67.8876 176.529 68.8678 176.236 69.7935 175.878Z" fill="#D18200"/>
<path d="M55.0034 165.301C54.6373 165.057 54.4824 164.899 54.5385 164.826L55.0897 164.998L56.2467 165.397L57.766 165.552L58.6219 165.672L57.79 165.884L56.2699 165.812C55.8467 165.733 55.4246 165.563 55.0034 165.301Z" fill="#0D131A"/>
<path d="M63.5563 161.995C61.4703 158.859 60.4481 155.376 60.4897 151.545C60.5222 148.543 61.2256 145.733 62.5998 143.113C63.9361 140.586 65.7469 138.506 68.0322 136.873L79.9233 164.853C78.5022 165.003 77.2552 165.238 76.1825 165.558C75.6091 165.736 74.8759 166.198 73.9829 166.944C72.9784 167.78 72.2074 168.324 71.67 168.576L71.6421 168.604C68.3013 167.278 65.606 165.075 63.5563 161.995Z" fill="#D18200"/>
<path d="M44.2602 171.705C44.519 171.634 44.739 171.747 44.9202 172.044C45.1195 172.359 45.2527 172.83 45.3196 173.457C45.402 174.36 45.2982 175.428 45.0083 176.659L39.0637 176.594C38.4366 176.624 37.6883 176.782 36.8187 177.067L35.7079 177.497C35.6366 177.275 35.7046 176.954 35.912 176.532C36.3081 175.708 37.1658 174.814 38.4851 173.853C39.3771 173.199 40.5443 172.668 41.9866 172.26L44.2602 171.705Z" fill="white"/>
<path d="M41.5647 175.461C43.6124 175.336 44.7214 175.062 44.8919 174.64L44.9196 174.641L44.7083 176.268L39.0399 176.235C38.4498 176.247 37.7849 176.368 37.0449 176.6C38.2132 175.968 39.7198 175.588 41.5647 175.461Z" fill="#DBDCDC"/>
<path d="M43.8206 171.424L44.1532 171.344L44.8986 171.463C45.3378 171.763 45.6072 172.419 45.7068 173.434L45.6933 174.677L44.9194 174.641L44.9317 173.508C44.866 172.771 44.7144 172.299 44.4769 172.094C44.1475 171.869 43.3258 171.999 42.0116 172.482C40.7161 172.947 39.6132 173.506 38.7028 174.159C37.3091 175.175 36.4604 176.087 36.1567 176.894L37.0448 176.6L37.5909 177.241L35.842 177.858L35.5379 177.855C35.4095 177.798 35.3366 177.714 35.3194 177.603C35.2681 177.235 35.3461 176.839 35.5535 176.418C35.9688 175.52 36.8733 174.563 38.267 173.546C39.4933 172.657 41.3445 171.949 43.8206 171.424Z" fill="#0D131A"/>
<path d="M39.0595 176.981L37.591 177.241L37.0449 176.6C37.7849 176.368 38.4498 176.247 39.0399 176.235L44.7083 176.268L44.9196 174.641L45.6935 174.677L45.3945 176.746C45.337 176.948 45.2068 177.047 45.0041 177.045L39.0595 176.981Z" fill="#0D131A"/>
<path d="M43.8627 180.293C41.7922 180.824 40.1525 181.579 38.9436 182.561L39.4118 182.732L38.1339 183.271C38.1011 182.902 38.1983 182.433 38.4257 181.865C38.8438 180.709 39.6578 179.603 40.8675 178.548C41.7048 177.839 42.8843 177.022 44.406 176.1L46.7988 174.744C47.0771 174.581 47.5446 174.817 48.2014 175.45C48.9316 176.121 49.4119 176.872 49.6426 177.704L49.7751 178.23L48.6316 179.129C48.1307 179.419 47.6771 179.598 47.2708 179.667L43.8627 180.293Z" fill="white"/>
<path d="M42.1589 181.85C41.6234 181.936 40.7076 182.23 39.4117 182.732L38.9435 182.561C40.1524 181.579 41.7921 180.824 43.8626 180.293L47.2707 179.667C47.677 179.598 48.1306 179.419 48.6315 179.129L49.775 178.23C50.0029 179.319 50.0378 180.351 49.8797 181.326L42.1589 181.85Z" fill="#DBDCDC"/>
<path d="M38.6397 182.53L38.9441 182.506C40.4624 181.896 41.517 181.548 42.1078 181.462L49.5242 180.963C49.6472 179.822 49.5664 178.771 49.2819 177.81C49.0867 177.108 48.6883 176.45 48.0866 175.836C47.5759 175.333 47.2007 175.08 46.961 175.077L46.8219 175.159C44.1514 176.622 42.2485 177.844 41.1133 178.827C39.8665 179.9 39.0615 181.033 38.6983 182.227L38.6397 182.53ZM39.8238 182.985C38.8611 183.361 38.3518 183.577 38.2959 183.632L37.9367 183.6L37.7465 183.294C37.7326 182.87 37.8397 182.346 38.0677 181.723C38.5049 180.512 39.3562 179.36 40.6216 178.269C41.8129 177.213 43.753 175.954 46.442 174.492L46.6088 174.41C46.7943 174.302 47.0616 174.305 47.4106 174.419C47.851 174.608 48.3352 175.009 48.8632 175.623C49.4642 176.293 49.8898 176.997 50.1399 177.737C50.4793 178.735 50.6079 179.63 50.5255 180.421L50.2662 181.385C50.2273 181.569 50.1063 181.678 49.9032 181.713L42.238 182.21C41.7211 182.278 40.9163 182.536 39.8238 182.985Z" fill="#0D131A"/>
<path d="M52.1508 178.449C52.374 178.268 52.9715 178.421 53.9432 178.911C54.9701 179.419 55.683 179.971 56.0822 180.564L56.1907 180.759L55.7233 180.505C55.7161 181.168 55.379 181.653 54.7121 181.959L51.4068 183.304C49.3878 184.185 48.0244 184.962 47.3165 185.636L47.563 185.86L46.5628 186.291C46.4179 186.05 46.3756 185.709 46.4356 185.267C46.519 184.384 47.0266 183.478 47.9584 182.548C50.1396 180.306 51.5371 178.94 52.1508 178.449Z" fill="white"/>
<path d="M56.7213 182.837L51.2831 184.518C50.3767 184.803 49.1367 185.25 47.5631 185.859L47.3166 185.636C48.0245 184.962 49.3879 184.185 51.4069 183.304L54.7121 181.958C55.3791 181.652 55.7162 181.168 55.7234 180.505L56.1908 180.759C56.6614 181.556 56.8383 182.249 56.7213 182.837Z" fill="#DBDCDC"/>
<path d="M55.7481 180.782C55.4217 180.281 54.8186 179.795 53.9388 179.325C53.169 178.912 52.6365 178.722 52.3411 178.755L48.2043 182.827C47.347 183.684 46.8772 184.507 46.7949 185.299C46.7546 185.611 46.9103 185.705 47.2619 185.58L51.1487 184.158L54.3113 183.225L56.2269 182.527C56.416 182.087 56.2564 181.505 55.7481 180.782ZM51.9053 178.143C52.054 178.034 52.2941 177.99 52.6257 178.012C53.1779 178.092 53.8387 178.357 54.6081 178.807C55.4324 179.295 56.0259 179.808 56.3888 180.346C56.8785 181.089 57.1476 181.773 57.1961 182.4C57.2468 182.824 57.1881 183.137 57.02 183.337C56.9637 183.429 56.7601 183.5 56.4093 183.552L54.5244 183.973L51.3898 184.879C50.3353 185.217 49.2434 185.611 48.114 186.059L46.7252 186.624C46.5214 186.714 46.356 186.666 46.229 186.481C46.0665 186.166 46.0064 185.76 46.0487 185.263C46.1145 184.287 46.66 183.289 47.685 182.269C50.0335 179.9 51.4403 178.524 51.9053 178.143Z" fill="#0D131A"/>
<path d="M95.5588 51.6842C95.9449 51.7805 96.256 51.9865 96.4923 52.3022C96.7285 52.6179 96.8352 52.9782 96.8124 53.3832L96.3837 62.303C96.1496 68.5817 96.1235 72.6891 96.3053 74.6252C96.5381 76.9486 97.2423 80.014 98.4177 83.8213C99.6824 87.8874 101.056 91.2916 102.538 94.0338C103.297 95.4236 104.936 98.1123 107.455 102.1L113.95 112.67C116.338 116.767 117.999 120.027 118.931 122.45C121.172 128.313 122.751 133.138 123.669 136.924C125.346 143.758 125.806 149.777 125.049 154.981C124.213 160.646 121.806 165.059 117.826 168.221C113.921 171.346 108.769 173.022 102.369 173.247C94.6973 173.514 87.7421 172.287 81.5037 169.567C73.3018 166.015 66.8219 160.069 62.064 151.728C57.6861 144.036 56.5719 135.44 58.7214 125.941C60.2898 119.013 63.6526 111.516 68.8098 103.449C73.386 96.2594 76.2223 86.3249 77.3185 73.6455C77.6586 69.4862 77.2469 64.1123 76.0832 57.5238L74.2149 48.7724C74.1806 48.5326 74.3308 48.2855 74.6654 48.0313L75.5291 47.4328C75.9761 47.014 76.5029 46.8815 77.1096 47.0355L95.5588 51.6842Z" fill="#0D131A"/>
<path d="M65.3588 153.891C71.7884 159.377 78.6363 162.85 85.9023 164.31C93.1867 165.77 99.5286 164.909 104.928 161.726C105.964 164.795 107.267 167.001 108.838 168.344C109.568 168.997 110.52 169.597 111.694 170.143C108.972 171.238 105.869 171.849 102.383 171.976C95.5781 172.197 89.3852 171.228 83.8044 169.067C76.2043 166.111 70.0558 161.053 65.3588 153.891Z" fill="#DDD583"/>
<path d="M61.3012 122.653C63.0113 117.956 65.1628 114.213 67.7555 111.422C71.3555 107.556 75.559 105.825 80.3662 106.227C86.1309 106.731 91.2071 111.226 95.5948 119.71C99.5129 127.286 101.685 135.258 102.11 143.625C102.505 151.366 103.445 157.399 104.928 161.726C99.5286 164.909 93.1868 165.77 85.9023 164.31C78.6363 162.849 71.7885 159.377 65.3589 153.891L63.8372 151.416C59.043 143.019 58.1977 133.432 61.3012 122.653Z" fill="#FFF697"/>
<path d="M103.762 108.581C103.786 106.426 104.48 104.462 105.845 102.69C110.666 110.332 113.942 115.884 115.674 119.347L115.564 119.346C112.264 119.31 109.465 118.239 107.165 116.133C104.865 114.045 103.73 111.527 103.762 108.581Z" fill="#D18200"/>
<path d="M95.1261 53.3374L95.0844 54.6355L94.858 65.2983C94.8183 68.9634 94.8525 71.7544 94.9607 73.6713L95.0335 74.6115C95.2812 77.2666 95.9556 80.5251 97.0566 84.3868C98.2641 88.6365 99.5998 92.114 101.064 94.8192L109.215 108.087C113.419 114.875 116.13 119.859 117.349 123.04C119.608 128.959 121.204 133.849 122.14 137.709C123.692 144.154 124.11 149.832 123.393 154.742C122.875 158.292 121.699 161.337 119.865 163.877C118.124 166.308 115.826 168.208 112.972 169.577C111.522 169.009 110.359 168.342 109.482 167.578C107.729 166.048 106.393 163.427 105.475 159.715C104.628 156.187 104.038 151.143 103.704 144.582C103.508 140.564 102.872 136.302 101.796 131.796C100.65 126.994 99.2107 122.862 97.4785 119.399C95.5841 115.602 93.3694 112.428 90.8346 109.877C87.5886 106.618 84.1974 104.841 80.661 104.545C74.491 104.017 69.0914 107.237 64.4623 114.205C65.9539 110.961 67.7406 107.701 69.8225 104.427C74.5856 97.0001 77.5055 87.0021 78.5821 74.4329C78.7748 71.9667 78.6452 68.6221 78.1933 64.399C77.7069 59.9545 77.0368 56.3001 76.183 53.4357L76.7034 48.7995L76.7046 48.689L95.1261 53.3374Z" fill="#F29600"/>
<path d="M95.1261 53.3375L95.0843 54.6357L94.858 65.2984C94.8182 68.9635 94.8524 71.7545 94.9607 73.6714L95.0334 74.6116L95.548 78.1538C92.1834 79.0199 88.9188 78.3213 85.7541 76.0582C83.1199 74.1692 80.6901 71.2877 78.4646 67.4137C78.064 61.865 77.3034 57.2057 76.1829 53.4358L76.7033 48.7996L76.7045 48.6891L95.1261 53.3375Z" fill="#D18200"/>
<path d="M124.92 131.246C127.741 134.537 130.072 138.08 131.911 141.876C134.364 146.895 135.56 152.204 135.499 157.803C135.467 160.694 134.761 163.809 133.379 167.146C132.697 168.833 132.008 170.253 131.314 171.406C131.157 172.289 131.073 173.181 131.064 174.084C133.495 175.989 135.092 177.443 135.855 178.446L137.11 180.007L138.039 181.122C138.881 181.629 139.428 182.169 139.68 182.743C139.914 183.316 140.008 183.999 139.962 184.79L141.67 187.986C142.299 189.43 142.542 190.805 142.399 192.111C142.318 192.81 142.146 193.379 141.883 193.819C141.543 194.552 141.189 194.935 140.819 194.967L140.216 194.519L139.862 194.045C138.95 193.078 138.311 192.5 137.945 192.311L136.182 191.629L134.062 190.86L132.014 190.948L132 192.219C131.953 193.213 131.806 194.041 131.559 194.701C131.274 195.49 130.916 196.168 130.486 196.734C130.056 197.319 129.712 197.573 129.454 197.497C129.326 197.477 129.044 197.115 128.609 196.41C128.265 195.853 127.883 195.37 127.463 194.961L125.212 193.444L122.986 192.177L121.802 191.749L120.087 191.758C119.779 192.934 119.166 194.29 118.246 195.828C117.756 196.743 117.401 197.191 117.18 197.17C117.051 197.15 116.823 196.917 116.496 196.472L116.061 195.832C115.463 194.83 114.982 194.134 114.618 193.744L112.975 192.261L111.058 190.555L109.791 190.099L108.913 189.427C108.603 189.147 108.385 188.813 108.26 188.425C108.171 188.148 108.111 187.76 108.079 187.262C107.966 184.13 109.091 180.679 111.455 176.91L111.312 174.754C108.745 173.455 106.316 171.365 104.025 168.485C102.097 166.07 100.895 162.981 100.42 159.218L100.252 154.27C100.395 151.269 101.515 148.297 103.612 145.355C104.848 143.6 106.228 142.095 107.754 140.841L119.606 126.519L119.194 123.779L120.492 126.473L124.92 131.246Z" fill="#0D131A"/>
<path d="M128.898 83.2126L129.015 82.606C129.157 81.3918 129.647 80.4301 130.484 79.7208L130.651 79.5845C131.173 79.0744 131.841 78.6948 132.655 78.4458C133.783 78.0896 134.778 78.1741 135.639 78.6992C136.719 79.3372 137.565 80.4055 138.175 81.9042C138.84 83.5508 138.825 84.8861 138.132 85.9101L137.342 87.3659C137.022 88.0071 136.842 88.438 136.802 88.6586C136.855 88.8802 137.091 89.2604 137.509 89.7991L138.492 90.9702L141.013 90.5279C142.046 90.4654 142.789 90.7866 143.242 91.4915C143.478 91.8625 143.668 93.0342 143.813 95.0067C143.957 96.9976 143.916 98.2129 143.69 98.6526C143.539 98.9456 143.288 99.2192 142.935 99.4733L141.626 100.316L140.487 100.745C139.988 100.906 139.691 101.05 139.598 101.178C138.982 101.834 138.074 103.141 136.873 105.099C136.573 105.593 136.052 105.974 135.312 106.243L133.593 106.611C132.131 112.232 130.834 116.233 129.702 118.615C128.815 120.503 127.787 121.818 126.618 122.561C125.578 123.212 124.303 123.549 122.791 123.569C121.445 123.591 120.387 123.386 119.617 122.954C119.379 122.823 118.276 121.696 116.308 119.575L112.836 115.918L110.943 114.516L108.966 113.196C108.216 112.672 107.318 112.165 106.273 111.675L104.924 111.107L103.874 111.013L102.683 111.221L102.045 111.408L103.271 110.564C102.166 110.405 101.606 110.233 101.59 110.049C101.572 109.938 101.711 109.866 102.007 109.832L102.477 109.837L94.3752 97.0397C93.7453 97.3276 93.3859 97.3237 93.2969 97.028C93.2436 96.8432 93.2545 96.6868 93.3296 96.5587L93.6933 96.1758C93.8978 96.0122 94.7233 95.5423 96.1697 94.7659C97.486 94.0802 98.994 93.5716 100.694 93.2401C102.541 92.8917 103.951 92.8978 104.924 93.2584C106.687 93.9222 107.921 94.8474 108.627 96.0339C109.297 97.2017 109.628 98.9368 109.622 101.239L111.023 102.028C111.628 102.385 112.094 102.74 112.422 103.093L112.886 103.623L115.262 106.357C116.392 107.64 117.24 108.487 117.807 108.899C118.575 109.46 119.493 109.764 120.562 109.813L122.72 109.67L123.224 106.554C123.409 104.843 123.44 103.692 123.317 103.101L121.728 101.73C120.902 101.426 120.352 101.153 120.078 100.911C119.531 100.352 119.292 99.4561 119.36 98.2227L119.402 96.8969L118.937 96.4774C117.658 95.3952 116.801 94.5201 116.366 93.8523C115.695 92.8503 115.514 91.6971 115.823 90.3926C116.112 89.1985 116.6 88.4578 117.285 88.1705C117.822 87.9553 118.081 87.866 118.062 87.9026L120.786 86.5783C121.249 86.4176 121.691 86.4592 122.112 86.7032L122.961 87.4861C123.472 88.0074 123.773 88.2777 123.865 88.2972L125.77 88.5665L127.543 85.7675C128.331 84.4314 128.783 83.5798 128.898 83.2126Z" fill="#0D131A"/>
<path d="M130.415 83.5333L130.653 81.9886C130.77 81.3636 130.95 80.9511 131.192 80.7511L132.641 79.6892C133.511 79.3671 134.532 79.5348 135.705 80.1922L136.68 82.054C137.237 83.4231 137.3 84.4277 136.869 85.0677C136.588 85.4699 136.286 86.139 135.962 87.0749C135.62 88.029 135.475 88.6537 135.527 88.949C135.63 89.6317 136.111 90.3737 136.969 91.175L138.23 92.1558L139.755 91.7303C140.845 91.5579 141.58 91.7593 141.961 92.3344C142.36 92.9282 142.57 93.9712 142.591 95.4634C142.614 96.7715 142.531 97.5995 142.343 97.9475L140.754 99.0631C139.697 99.6779 139.019 100.14 138.721 100.45L136.928 102.531C136.144 103.48 135.686 104.083 135.554 104.339C135.253 104.833 134.623 105.204 133.661 105.451L132.304 105.658L131.861 108.25C131.414 110.4 130.792 112.475 129.996 114.474C129.068 116.785 128.332 118.343 127.788 119.147C127.32 119.824 126.631 120.452 125.722 121.032C124.924 121.539 123.925 121.832 122.726 121.911C121.619 121.991 120.809 121.881 120.296 121.58C120.003 121.43 119.356 120.732 118.355 119.487C117.3 118.168 116.489 117.293 115.923 116.864L113.127 114.54C111.794 113.402 110.706 112.543 109.865 111.963C108.749 111.177 106.654 110.519 103.581 109.988L102.283 109.808L101.786 109.803L94.0968 97.2028L97.9587 95.5316C100.772 94.5122 102.757 94.2114 103.914 94.6292C105.272 95.1413 106.262 95.6954 106.882 96.2916C107.448 96.8135 107.864 97.5272 108.131 98.4327C108.451 99.5597 108.548 100.777 108.423 102.083L109.577 102.759C110.438 103.302 111.096 103.825 111.551 104.327L113.956 106.978C115.159 108.225 116.126 109.12 116.858 109.662C118.449 110.822 120.26 111.329 122.289 111.186C122.136 111.7 121.735 112.156 121.085 112.554L119.692 113.506L118.551 114.157C118.254 114.393 118.093 114.732 118.07 115.174C118.046 115.671 118.241 116.437 118.654 117.473C119.067 118.491 119.347 118.973 119.495 118.919L119.201 117.949C118.879 117.098 118.75 116.231 118.815 115.348C118.817 115.163 118.939 114.981 119.18 114.799C119.329 114.709 119.691 114.501 120.266 114.175L121.49 113.498C122.176 113.063 122.801 112.407 123.364 111.529L123.59 111.034L123.993 109.602L124.719 106.432C124.895 105.439 124.934 104.482 124.833 103.56L124.596 102.48C123.41 101.306 122.625 100.635 122.239 100.465L121.332 99.9851C121.022 99.6501 120.872 99.0683 120.881 98.2395L120.924 96.8032L120.82 96.1942L119.284 95.0171C118.242 94.2874 117.557 93.6905 117.23 93.2264C116.431 92.0942 116.267 91.0793 116.738 90.1818L117.661 89.1695L121.268 88.0206L122.035 88.7197C122.545 89.2778 122.984 89.6233 123.351 89.7563L125.2 90.0803L126.584 89.9571C126.825 89.8308 127.5 88.8434 128.608 86.995C129.734 85.1468 130.336 83.9929 130.415 83.5333Z" fill="#F29600"/>
<path d="M124.67 93.0585C124.589 93.7944 124.187 94.269 123.466 94.4822C122.8 94.6776 122.266 94.5981 121.865 94.2437C121.098 93.5723 120.43 93.1138 119.861 92.8681L118.978 92.7204L118.315 92.6303C117.671 92.5128 117.225 91.983 116.977 91.0409C116.818 90.3945 116.807 89.7496 116.943 89.1064C117.136 88.3349 117.53 87.6852 118.125 87.1575C118.833 86.5389 119.683 86.2811 120.678 86.3839C121.58 86.4858 122.185 86.7595 122.494 87.2049L122.658 87.3725C123.807 88.5454 124.45 89.5839 124.588 90.488C124.742 91.5212 124.77 92.378 124.67 93.0585Z" fill="#0D131A"/>
<path d="M124.458 92.2549L124.338 90.5405C124.199 89.7285 123.583 88.7364 122.49 87.564L122.299 87.3685C122.008 86.997 121.457 86.7608 120.647 86.6599C119.764 86.5398 118.978 86.7707 118.289 87.3527C117.507 88.0441 117.111 88.9148 117.099 89.9646L117.227 90.9607C117.457 91.8105 117.83 92.2842 118.345 92.3819L119.008 92.472L119.974 92.6206C120.543 92.8847 121.147 93.2965 121.786 93.856C122.17 94.1549 122.666 94.2616 123.276 94.1761C123.94 94.0728 124.313 93.7361 124.393 93.1659L124.458 92.2549ZM124.837 90.463C125.009 91.5701 124.934 92.5732 124.61 93.4722C124.25 94.3893 123.913 94.929 123.597 95.0914C123.282 95.2538 122.86 95.0926 122.331 94.608C121.801 94.1233 120.94 93.6166 119.748 93.0879L118.257 92.8783C117.521 92.7598 117.011 92.1648 116.728 91.0934C116.551 90.4099 116.54 89.7283 116.695 89.0484C116.888 88.24 117.31 87.5538 117.961 86.9899C118.706 86.3164 119.622 86.0317 120.708 86.1356L121.921 86.4803L122.689 87.0412L122.853 87.2088C124.02 88.4003 124.681 89.4851 124.837 90.463Z" fill="#0D131A"/>
<path d="M120.698 87.1025C121.287 87.201 121.672 87.3618 121.854 87.5848L122.783 88.6448C123.328 89.3323 123.644 89.9343 123.731 90.451C123.92 91.7057 123.9 92.7185 123.67 93.4897L123.247 94.2864L123.055 94.0909C122.769 93.2589 122.023 92.3942 120.816 91.497L120.044 91.2952C119.584 91.2165 119.198 91.0742 118.887 90.8682L117.712 89.6121C117.794 88.8025 118.124 88.1614 118.7 87.6887C119.259 87.1974 119.925 87.002 120.698 87.1025Z" fill="white"/>
<path d="M118.519 91.6931C118.298 91.6539 118.098 91.4307 117.918 91.0235C117.738 90.5795 117.669 90.109 117.712 89.6121L118.887 90.8682C119.198 91.0742 119.584 91.2166 120.044 91.2952L120.816 91.497C122.023 92.3943 122.769 93.2589 123.055 94.0909C121.979 93.0477 121.019 92.3374 120.175 91.9598L119.375 91.7853L118.519 91.6931Z" fill="#DBDCDC"/>
<path d="M134.864 78.7185C135.8 79.1524 136.4 79.8772 136.666 80.8932C136.843 81.5399 136.863 82.24 136.726 82.9938C136.626 83.6558 136.465 84.1238 136.24 84.3976C133.689 86.8014 132.015 88.091 131.221 88.2666C130.852 88.3179 130.585 88.2413 130.421 88.0369C130.021 87.5352 129.747 86.4823 129.598 84.8781C129.433 83.1817 129.547 81.9396 129.943 81.1518C131.096 78.5671 132.736 77.756 134.864 78.7185Z" fill="#0D131A"/>
<path d="M134.666 79.1309C133.584 78.6402 132.661 78.6762 131.899 79.239C131.342 79.6382 130.827 80.3418 130.356 81.3497C129.997 82.1011 129.864 83.3061 129.957 84.9649C130.032 86.5499 130.224 87.5374 130.533 87.9276L130.947 87.9874C131.372 87.8999 132.273 87.2834 133.65 86.1378L135.884 84.1175L136.196 83.3472L136.348 82.0779L136.222 80.999C136.01 80.1309 135.491 79.5082 134.666 79.1309ZM129.696 80.9558C130.172 79.5978 130.892 78.6846 131.855 78.2162C132.801 77.7475 133.86 77.7775 135.034 78.306C136.172 78.8156 136.871 79.7719 137.132 81.1746C137.376 82.5035 137.134 83.6153 136.405 84.51C135.694 85.4969 134.678 86.4806 133.359 87.4609C131.965 88.5142 131.011 88.9367 130.497 88.7285C129.928 88.5013 129.533 87.5207 129.312 85.7868C129.074 83.9607 129.202 82.3503 129.696 80.9558Z" fill="#0D131A"/>
<path d="M130.634 81.2147C131.087 80.2434 131.582 79.5764 132.121 79.2139L134.527 79.1571C135.041 79.3653 135.443 79.7381 135.732 80.2754C135.647 81.3244 135.361 82.2239 134.873 82.9738C133.637 84.784 132.273 86.4085 130.783 87.8475C130.488 87.8812 130.294 86.9857 130.204 85.1612C130.113 83.2998 130.257 81.9843 130.634 81.2147Z" fill="white"/>
<path d="M133.404 85.859C132.045 87.0968 131.18 87.7597 130.811 87.8478L130.783 87.8475C132.273 86.4085 133.637 84.7839 134.873 82.9738C135.361 82.2238 135.647 81.3244 135.732 80.2754C136.021 80.8495 136.115 81.5505 136.013 82.3783C135.933 83.0037 135.808 83.4444 135.64 83.7005L133.404 85.859Z" fill="#DBDCDC"/>
<path d="M135.322 95.1634L136.676 92.6637C137.18 92.0982 137.81 91.8103 138.566 91.8001C139.321 91.8083 140 92.1288 140.602 92.7616C141.258 93.4319 141.498 94.291 141.32 95.339C141.145 96.166 140.567 96.8136 139.585 97.2819L137.448 98.0047C136.172 98.3777 135.303 98.534 134.843 98.4738L134.263 98.4122C134.12 97.987 134.473 96.9041 135.322 95.1634Z" fill="#0D131A"/>
<path d="M135.371 95.6888C134.635 97.265 134.294 98.127 134.347 98.275L135.205 98.229L137.144 97.9185C137.791 97.7597 138.578 97.4551 139.505 97.0047C140.413 96.5541 140.935 95.9795 141.072 95.281L141.106 94.7288C141.113 94.0105 140.889 93.4186 140.434 92.9532C139.85 92.339 139.236 92.0468 138.59 92.0766C137.89 92.069 137.325 92.3116 136.896 92.8042L135.371 95.6888ZM133.817 98.7665C133.616 98.5802 133.847 97.6709 134.51 96.0387C135.192 94.3514 135.85 93.1613 136.484 92.4682C137.062 91.8666 137.757 91.561 138.568 91.5514C139.398 91.5604 140.141 91.9093 140.797 92.5979C141.526 93.3426 141.783 94.2664 141.569 95.3693C141.471 95.9024 141.244 96.3973 140.889 96.8539L139.801 97.7539C139.319 98.0066 138.265 98.2806 136.639 98.5761L133.817 98.7665Z" fill="#0D131A"/>
<path d="M140.726 94.0063C140.22 94.7561 139.503 95.4759 138.574 96.1657C137.422 96.9821 136.097 97.6309 134.598 98.112C134.432 98.0917 134.801 97.2484 135.704 95.582C136.569 93.9888 137.123 93.0554 137.366 92.7818C137.683 92.4537 138.054 92.2643 138.478 92.2136C139.088 92.1281 139.656 92.3646 140.185 92.9229C140.495 93.2394 140.675 93.6005 140.726 94.0063Z" fill="white"/>
<path d="M139.619 96.702L137.176 97.532C135.789 97.959 134.93 98.1523 134.598 98.1119C136.097 97.6308 137.422 96.9821 138.574 96.1657C139.503 95.4758 140.22 94.756 140.726 94.0063C140.794 94.5596 140.677 95.1386 140.376 95.7432C140.131 96.2378 139.878 96.5575 139.619 96.702Z" fill="#DBDCDC"/>
<path d="M130.366 95.7177C129.845 96.1357 129.342 96.6368 128.856 97.2209C127.866 98.4075 127.431 99.4343 127.551 100.301C127.618 100.891 127.814 101.474 128.14 102.048C127.166 101.798 126.361 101.228 125.725 100.337C125.09 99.4273 124.778 98.4016 124.791 97.2597C124.805 95.9152 125.242 94.7687 126.1 93.8202C126.94 92.8714 127.959 92.4036 129.157 92.4166C129.894 92.4246 130.583 92.6347 131.224 93.0469C131.847 93.4404 132.357 93.971 132.756 94.6384C131.627 94.9945 130.83 95.3543 130.366 95.7177Z" fill="#D18200"/>
<path d="M130.366 95.7174C130.682 95.4814 131.228 95.211 132.006 94.9063C132.765 94.6014 133.163 94.486 133.199 94.5601L132.225 95.1021L130.751 95.915C130.249 96.2964 129.698 96.9443 129.098 97.8588C128.404 98.9565 128.099 99.8465 128.184 100.529C128.337 101.728 129.016 102.868 130.221 103.95L131.921 105.267C131.826 105.505 131.149 105.102 129.888 104.056C128.518 102.918 127.739 101.666 127.551 100.301C127.431 99.434 127.866 98.4072 128.856 97.2207C129.342 96.6365 129.845 96.1354 130.366 95.7174Z" fill="#0D131A"/>
<path d="M117.779 124.15L118.237 125.288C118.615 126.158 119.003 126.862 119.403 127.401L122.931 131.031C125.207 133.653 127.319 136.973 129.266 140.991C131.43 145.435 132.768 149.53 133.28 153.275C133.655 156.134 133.559 159.034 132.992 161.975C132.62 163.997 132.045 166.054 131.266 168.145L130.127 171.172C129.991 171.816 129.91 172.524 129.883 173.297C129.838 174.089 129.879 174.541 130.007 174.652L131.816 176.136C133.112 177.256 133.997 178.14 134.469 178.79L137.087 182.162L137.72 182.5C138.178 182.763 138.442 182.996 138.514 183.2C138.765 183.829 138.719 184.639 138.377 185.63C137.959 186.785 137.249 187.625 136.248 188.148L133.94 189.339C133.841 188.233 133.644 187.761 133.347 187.923C132.364 188.502 131.422 188.621 130.522 188.28L130.5 190.324L126.597 190.668L124.633 190.73C123.878 188.954 123.25 188.274 122.748 188.693C122.264 189.111 121.636 189.233 120.863 189.059C120.183 188.904 119.661 188.604 119.297 188.158L119.187 190.643C116.552 190.523 114.417 190.223 112.781 189.745L112.031 187.554C111.481 187.253 111.007 186.778 110.608 186.129C110.21 185.462 109.95 184.732 109.83 183.938C110.24 181.806 111.148 179.67 112.554 177.53C112.667 177.329 112.713 176.519 112.691 175.1L113.795 175.333L116.31 175.471L117.611 175.292L116.342 175.057L114.024 174.645L112.673 174.243L112.673 174.216C112.25 174.119 111.645 173.799 110.859 173.257C109.267 172.152 107.561 170.458 105.743 168.172C103.869 165.813 102.673 163.12 102.153 160.093C101.875 158.487 101.797 156.378 101.917 153.763C102.061 150.689 103.063 147.54 104.923 144.319L107.676 140.398L117.779 124.15Z" fill="#F29600"/>
<path d="M133.347 187.924C133.644 187.761 133.841 188.233 133.94 189.339C133.032 189.771 131.885 190.1 130.5 190.324L130.522 188.28C131.422 188.621 132.364 188.502 133.347 187.924Z" fill="#D18200"/>
<path d="M122.748 188.692C123.25 188.274 123.878 188.953 124.633 190.73C122.753 190.765 120.937 190.736 119.187 190.643L119.297 188.158C119.661 188.604 120.183 188.904 120.863 189.059C121.636 189.233 122.264 189.111 122.748 188.692Z" fill="#D18200"/>
<path d="M109.83 183.938C109.95 184.732 110.21 185.462 110.608 186.129C111.007 186.778 111.481 187.253 112.031 187.554L112.781 189.745C110.667 189.169 109.589 188.338 109.545 187.251C109.501 186.2 109.596 185.096 109.83 183.938Z" fill="#D18200"/>
<path d="M133.987 187.544L133.876 187.598C134.33 186.497 134.902 185.647 135.59 185.047C136.335 184.41 136.874 184.011 137.207 183.849C137.578 183.65 137.863 183.681 138.063 183.941L139.259 185.86L140.641 188.472C141.199 189.768 141.416 190.977 141.293 192.099C141.232 192.669 141.116 193.101 140.947 193.394C140.845 192.619 140.301 191.784 139.315 190.889C138.512 190.162 137.835 189.695 137.284 189.486C136.605 189.258 135.971 189.002 135.385 188.719C134.505 188.268 134.039 187.876 133.987 187.544Z" fill="white"/>
<path d="M133.581 189.252C133.343 189.157 133.441 188.606 133.876 187.598L133.987 187.544C134.039 187.876 134.505 188.268 135.385 188.719C135.971 189.002 136.605 189.257 137.284 189.486C137.835 189.694 138.512 190.162 139.315 190.889C140.301 191.784 140.845 192.619 140.947 193.394C139.89 192.277 139.114 191.587 138.619 191.324L135.977 190.218L133.581 189.252Z" fill="#DBDCDC"/>
<path d="M127.716 184.409L129.486 186.914C130.537 188.584 131.058 189.906 131.047 190.883C131.028 192.632 130.819 194.021 130.421 195.048L129.83 196.036L129.585 195.674C129.652 194.588 129.083 193.486 127.879 192.368C127.039 191.567 126.216 190.996 125.408 190.656C124.143 190.089 123.431 189.381 123.275 188.532C123.731 187.285 124.238 186.36 124.798 185.758C125.395 185.139 126.017 184.703 126.665 184.452L127.716 184.409Z" fill="white"/>
<path d="M125.409 190.656C126.216 190.996 127.039 191.567 127.879 192.368C129.083 193.486 129.652 194.588 129.585 195.675L128.411 194.253C128.046 193.899 127.086 193.234 125.529 192.26C124.046 191.323 123.176 190.816 122.919 190.739C122.809 190.72 122.793 190.489 122.871 190.048C122.931 189.607 123.066 189.102 123.275 188.533C123.431 189.382 124.143 190.089 125.409 190.656Z" fill="#DBDCDC"/>
<path d="M113.465 185.304C113.876 184.811 114.305 184.42 114.75 184.13C115.27 183.822 115.62 183.78 115.802 184.003L117.549 186.15C118.531 187.413 119.075 188.238 119.181 188.626C119.465 189.624 119.228 191.058 118.471 192.929C118.092 193.864 117.677 194.698 117.227 195.43L117.064 195.152L117.065 195.013C117.02 194.092 116.698 193.204 116.099 192.351L114.57 190.538L113.285 189.198L112.192 187.943C112.649 186.64 113.073 185.76 113.465 185.304Z" fill="white"/>
<path d="M114.57 190.538L116.099 192.351C116.698 193.204 117.02 194.092 117.065 195.013L117.064 195.152C116.375 194.094 115.875 193.398 115.566 193.063L111.954 189.487C111.808 189.375 111.887 188.86 112.192 187.943L113.285 189.198L114.57 190.538Z" fill="#DBDCDC"/>
<path d="M134.211 187.242C133.797 188.104 133.615 188.709 133.666 189.06L133.775 189.227L134.436 189.483L138.565 191.185C139.023 191.448 139.763 192.11 140.784 193.171C140.952 192.915 141.068 192.484 141.13 191.876C141.252 190.828 141.043 189.702 140.503 188.499L139.202 185.998L138.033 184.162C137.943 184.032 137.833 183.966 137.704 183.965C137.391 183.924 136.713 184.341 135.671 185.214C135.15 185.668 134.664 186.345 134.211 187.242ZM134.066 190.446L133.378 190.162C132.992 190.029 132.756 189.722 132.669 189.243C132.583 188.671 132.794 187.862 133.304 186.818C133.813 185.774 134.384 184.979 135.016 184.433L136.522 183.289C137.004 183.018 137.439 182.903 137.825 182.944C138.23 183.003 138.578 183.21 138.869 183.563L140.065 185.482L141.42 188.094C142.05 189.501 142.284 190.839 142.123 192.108C142.042 192.752 141.889 193.275 141.663 193.678L141.325 194.282L140.935 194.527C140.769 194.562 140.631 194.505 140.522 194.356L140.057 193.882C139.036 192.839 138.37 192.242 138.058 192.092C137.618 191.829 136.288 191.28 134.066 190.446Z" fill="#0D131A"/>
<path d="M123.031 190.602L123.14 190.742C123.416 190.837 124.249 191.325 125.641 192.205C127.106 193.105 128.011 193.723 128.358 194.059L129.695 195.758C129.899 195.595 130.087 195.275 130.258 194.798C130.637 193.825 130.836 192.511 130.854 190.853C130.869 189.49 129.849 187.49 127.794 184.852L127.686 184.685L127.41 184.571C127.134 184.55 126.792 184.647 126.384 184.864C125.865 185.116 125.372 185.488 124.906 185.981C124.403 186.509 123.942 187.333 123.524 188.452C123.107 189.516 122.943 190.233 123.031 190.602ZM122.798 191.705C122.43 191.59 122.184 191.311 122.06 190.868C121.901 190.295 122.058 189.376 122.533 188.11C123.025 186.863 123.57 185.92 124.167 185.282C124.69 184.717 125.257 184.281 125.868 183.974C126.461 183.667 126.998 183.526 127.477 183.55C127.919 183.591 128.267 183.77 128.522 184.086L128.603 184.225C130.803 187.049 131.894 189.262 131.877 190.864C131.857 192.669 131.63 194.122 131.194 195.222C130.947 195.846 130.666 196.294 130.349 196.567L129.903 196.921L129.487 197.055L129.13 196.802L128.831 196.302C128.469 195.708 128.078 195.207 127.659 194.797C127.367 194.517 126.534 193.947 125.161 193.084C123.824 192.241 123.037 191.781 122.798 191.705Z" fill="#0D131A"/>
<path d="M116.045 184.586L115.799 184.279C115.708 184.186 115.607 184.139 115.497 184.138C115.239 184.135 114.924 184.279 114.552 184.57C114.18 184.842 113.854 185.161 113.573 185.526C113.275 185.873 112.926 186.551 112.528 187.559C112.111 188.623 111.975 189.276 112.12 189.517L113.735 191.054L115.567 192.897C115.95 193.325 116.476 194.077 117.147 195.153C117.747 194.164 118.238 193.129 118.618 192.046C119.113 190.597 119.246 189.474 119.014 188.68C118.873 188.162 117.883 186.798 116.045 184.586ZM112.779 184.882C113.022 184.553 113.357 184.216 113.785 183.871C114.417 183.362 114.992 183.11 115.508 183.116C115.932 183.12 116.289 183.29 116.581 183.625L116.826 183.931C118.755 186.236 119.808 187.721 119.986 188.386C120.305 189.495 120.114 190.985 119.412 192.856C119.014 193.865 118.552 194.809 118.026 195.687L117.603 196.401L117.158 196.672L116.746 196.419L116.284 195.696L114.813 193.58L111.448 190.255C110.919 189.789 110.957 188.786 111.564 187.245C112.018 186.126 112.423 185.339 112.779 184.882Z" fill="#0D131A"/>
<path d="M115.909 176.682L114.364 176.334C113.832 176.144 113.585 176.003 113.622 175.911L114.313 176.002L115.721 176.21L117.989 176.18C118.985 176.135 119.482 176.141 119.482 176.196L118.068 176.512L115.909 176.682Z" fill="#0D131A"/>
<path d="M92.3031 2.60556C93.6313 2.52788 94.7271 3.47919 95.5905 5.4595C95.8245 5.9778 96.0979 7.1136 96.4107 8.8669L97.0599 12.7421C97.1808 13.4987 97.7863 16.3051 98.8766 21.1614C99.2629 22.9339 100.534 25.5633 102.69 29.0497L104.236 31.8295L104.69 33.3541C104.757 33.9442 104.438 35.2946 103.733 37.4053C104.071 38.5694 104.182 40.2284 104.066 42.3823L105.808 47.5128L106.749 50.0097L107.858 52.2597C108.003 52.5008 108.269 52.6326 108.656 52.6552C108.987 52.6957 109.306 53.0123 109.613 53.605C110.209 54.772 109.568 56.9294 107.69 60.0772L104.711 64.4657C104.934 66.0338 104.186 67.0572 102.466 67.5359L98.5622 67.9632C98.1376 68.0139 97.5174 68.2558 96.7016 68.689C95.9601 69.0678 95.11 69.252 94.1515 69.2416C93.0087 69.2292 91.6861 68.7912 90.1838 67.9275C88.8827 67.2134 88.0872 66.6154 87.7975 66.1333L86.079 63.9595L83.705 61.0326L80.5084 57.4613L77.5835 54.335C77.2012 53.8887 76.7344 53.5797 76.1832 53.408L75.4932 53.29C74.2518 52.1713 73.1982 50.7231 72.3327 48.9454C71.6476 47.5196 71.3083 46.512 71.3147 45.9226C71.3193 45.499 71.4299 44.6437 71.6467 43.3567C71.8829 41.9777 72.1254 40.8659 72.3742 40.0213C72.9484 38.075 73.2425 36.4573 73.2565 35.168C73.2687 34.0445 72.8014 32.0869 71.8546 29.2952C71.4443 28.0382 70.1166 25.5187 67.8717 21.7366L65.4983 18.7545L62.7137 15.4363C62.1317 14.7116 61.8742 13.8062 61.9413 12.7202C62.0068 11.7814 62.2346 11.1761 62.6247 10.904C63.0148 10.6319 63.6707 10.4917 64.5926 10.4833C65.4589 10.4927 66.1399 10.6014 66.6353 10.8094C67.0575 10.9797 67.8887 11.6795 69.1289 12.9087L72.7664 16.623C75.7749 19.6949 78.3677 21.9979 80.5448 23.532C81.4595 24.1866 82.7575 24.3389 84.4389 23.9887C85.7875 23.7271 87.1296 23.2167 88.4651 22.4575C89.4112 21.9152 90.0217 20.8719 90.2965 19.3276C90.4147 18.6289 90.4844 17.3034 90.5056 15.3511L90.2578 10.154C90.1005 7.66558 90.0333 6.20967 90.0564 5.78626C90.102 4.97627 90.2752 4.30582 90.5759 3.7749C90.9526 3.04219 91.5283 2.65241 92.3031 2.60556Z" fill="#F29600"/>
<path d="M97.8181 57.5387L99.1122 58.0501L100.217 58.2003L101.185 58.1831L101.712 58.0507L102.015 58.1092C102.069 58.2572 101.92 58.3937 101.568 58.5188L100.239 58.7255C99.3907 58.7163 98.5268 58.4858 97.6468 58.0342C97.4268 57.9213 97.0498 57.8343 96.5158 57.7733L95.4655 57.7342C95.2439 57.7687 94.6207 58.2869 93.5959 59.2888C93.2232 59.6532 92.9461 59.7055 92.7646 59.4456C92.6374 59.2784 92.8155 59.0041 93.2989 58.6225L94.4695 57.7787C95.1192 57.3621 95.6745 57.1563 96.1354 57.1613C96.6146 57.1665 97.1755 57.2923 97.8181 57.5387Z" fill="#0D131A"/>
<path d="M97.8254 61.9596L96.6124 61.6149L95.6417 61.8807C95.2356 61.9315 94.9599 61.8549 94.8146 61.6507C94.7421 61.5394 94.8823 61.3567 95.2354 61.1026C95.5882 60.867 95.8753 60.7412 96.0967 60.7252C96.2997 60.7089 96.6487 60.8232 97.1438 61.0681L98.0505 61.6029C98.1783 61.7148 98.2141 61.8165 98.1578 61.908L97.8254 61.9596Z" fill="#0D131A"/>
<path d="M107.723 57.0936C107.814 57.2051 107.756 57.3886 107.551 57.6443L107.047 58.1914L106.091 59.6178C105.941 59.8741 105.774 59.9828 105.59 59.9439C105.388 59.8865 105.343 59.7571 105.456 59.5557C105.588 59.2992 105.925 58.8055 106.468 58.0746C106.599 57.855 106.832 57.6273 107.166 57.3914C107.501 57.1372 107.686 57.0379 107.723 57.0936Z" fill="#0D131A"/>
<path d="M93.2222 40.2201L93.1426 39.9153C93.144 39.7864 93.1909 39.704 93.2835 39.6682L93.7511 39.8943L94.0998 40.8928L94.4538 41.394L94.6426 41.8381L94.4157 42.3606C94.2482 42.5061 94.1094 42.5599 93.9992 42.5218C93.8707 42.4652 93.8099 42.1238 93.8167 41.4976L93.5748 40.8594L93.2222 40.2201Z" fill="#0D131A"/>
<path d="M93.9958 42.8257C94.1609 42.9012 94.0994 43.4716 93.8113 44.5368L92.5001 48.1421L91.7708 49.1012C91.3608 49.502 91.101 49.665 90.9912 49.5901C90.8082 49.4592 90.9135 49.1011 91.307 48.516L91.6716 48.0502L92.037 47.5016L92.7462 45.8515L93.4287 44.1182C93.7154 43.1819 93.9044 42.7511 93.9958 42.8257Z" fill="#0D131A"/>
<path d="M100.467 40.2159L100.601 40.6595L100.62 41.4333L100.44 42.7576C100.43 43.6416 100.278 44.0544 99.9838 43.996C99.7998 43.9572 99.7092 43.818 99.7118 43.5786L99.7737 42.9714L100.091 41.7315C100.231 40.7383 100.356 40.2332 100.467 40.2159Z" fill="#0D131A"/>
<path d="M87.6035 61.075L87.6702 62.5678C87.6484 62.8807 87.7843 63.094 88.078 63.2077C88.3718 63.3214 88.6496 63.2047 88.9114 62.8576L89.2378 63.3584C88.8081 63.888 88.3443 64.15 87.8467 64.1446C87.5149 64.141 87.2703 63.7423 87.113 62.9486C86.9555 62.1732 86.9105 61.2241 86.978 60.1012L87.6035 61.075Z" fill="#0D131A"/>
<path d="M87.9663 63.3169C87.6361 63.166 87.5152 62.4186 87.6035 61.0749L88.9115 62.8574L88.3537 63.2935L87.9663 63.3169Z" fill="white"/>
<path d="M103.688 38.9798L103.791 39.6993C103.892 40.5662 103.892 41.4872 103.789 42.4623C103.766 42.8489 103.567 43.3717 103.191 44.0307C102.722 44.8361 102.172 45.3828 101.542 45.6706C101.591 44.566 101.787 43.4997 102.13 42.4719C102.529 41.2974 103.049 40.1334 103.688 38.9798Z" fill="white"/>
<path d="M146.461 42.0689C146.591 42.015 146.784 42.1 147.039 42.3238L147.531 42.8541C149.475 45.4909 151.308 49.8303 153.031 55.8723C154.825 62.1177 156.045 68.624 156.691 75.3912C156.758 75.9813 156.743 76.5062 156.646 76.9656C156.567 77.3884 156.445 77.6081 156.279 77.6247C155.947 77.658 155.724 76.9372 155.611 75.4624C155.069 69.341 153.92 63.1579 152.162 56.9128C150.53 51.0928 148.754 46.533 146.836 43.2334C146.419 42.5289 146.295 42.1408 146.461 42.0689Z" fill="#0D131A"/>
<path d="M154.315 47.1275C154.445 47.0737 154.718 47.3345 155.136 47.9101L155.816 48.9674C160 60.9121 161.499 72.2659 160.313 83.0287L160.187 84.4089C160.087 85.1814 159.972 85.567 159.843 85.5656C159.732 85.5644 159.616 85.2224 159.495 84.5395L159.343 83.2669C159.938 69.2005 158.384 57.7908 154.681 49.038C154.178 47.872 154.056 47.2352 154.315 47.1275Z" fill="#0D131A"/>
<path d="M38.6079 47.8885L38.9733 47.3399C39.1418 47.1023 39.2812 47.0025 39.3914 47.0405C39.52 47.0787 39.5825 47.2636 39.5789 47.5951L39.4605 48.3122C38.3594 51.2475 37.5046 55.2722 36.896 60.3863C36.2284 65.8498 36.0537 70.9042 36.3719 75.5495L36.3609 76.5717C36.3184 77.087 36.2326 77.344 36.1036 77.3426C35.9746 77.3412 35.8484 77.0819 35.7249 76.5648L35.5698 75.5684C35.0504 70.7736 35.1268 65.4326 35.799 59.5455C36.4521 53.7319 37.3883 49.8462 38.6079 47.8885Z" fill="#0D131A"/>
<path d="M34.7224 54.2842C34.8943 53.7335 35.0721 53.4867 35.2559 53.544C35.3847 53.5638 35.466 53.7121 35.4999 53.9887L35.4933 54.5965C34.1677 59.5371 33.1541 64.6008 32.4525 69.7876C31.7106 75.3056 31.3961 80.4966 31.5092 85.3607C31.4976 86.429 31.3996 86.9713 31.215 86.9877C31.086 86.9863 30.9964 86.7551 30.9461 86.294L30.9009 85.3541C30.3076 80.5769 30.4104 75.3467 31.2095 69.6636C31.8902 64.6976 33.0612 59.5711 34.7224 54.2842Z" fill="#0D131A"/>
<path d="M80.9774 39.7279C81.2182 39.62 81.4851 39.6597 81.778 39.8471L87.4006 44.1079L87.7841 44.4436C88.1137 44.6498 88.35 44.9563 88.4931 45.3631L88.8715 46.1685L89.4374 47.5285L89.3226 47.9141L88.1054 47.9561L84.6564 47.2556L84.3532 47.1694L81.4308 46.364C80.678 46.0795 80.2575 45.7526 80.1694 45.3833C80.0818 44.9587 80.0811 44.1758 80.1672 43.0347L80.4713 40.496C80.5494 40.0917 80.7181 39.8356 80.9774 39.7279Z" fill="white"/>
<path d="M80.9774 39.7279C81.2182 39.62 81.4851 39.6597 81.778 39.8471L87.4006 44.1079L87.7841 44.4436C88.1137 44.6498 88.35 44.9563 88.4931 45.3631L88.8715 46.1685L89.4374 47.5285L89.3226 47.9141L88.1054 47.9561L84.6564 47.2556L84.3532 47.1694L81.4308 46.364C80.678 46.0795 80.2575 45.7526 80.1694 45.3833C80.0818 44.9587 80.0811 44.1758 80.1672 43.0347L80.4713 40.496C80.5494 40.0917 80.7181 39.8356 80.9774 39.7279Z" fill="white"/>
<path d="M83.9454 41.4179L84.0001 41.4738L87.784 44.4436C88.1136 44.6498 88.3499 44.9563 88.493 45.3631L88.8714 46.1685L89.4373 47.5285L89.3225 47.9141L88.1053 47.9561L84.9046 47.3135C84.1256 46.0525 83.7446 44.6392 83.7615 43.0737C83.7677 42.5028 83.829 41.9508 83.9454 41.4179Z" fill="#008086"/>
<path d="M101.928 45.7853L101.233 46.137L101.266 45.64C101.296 44.4983 101.492 43.4136 101.854 42.386L102.678 40.3227C102.929 41.007 103.05 41.7175 103.042 42.4542C103.028 43.725 102.657 44.8354 101.928 45.7853Z" fill="#008086"/>
<path d="M101.884 44.7349C101.718 44.7331 101.553 44.6208 101.39 44.3979L101.854 42.386C102.064 41.7436 102.329 41.0833 102.65 40.4053C102.902 40.9238 103.024 41.5514 103.016 42.2881C103.009 42.9695 102.892 43.5485 102.666 44.025C102.458 44.5016 102.197 44.7383 101.884 44.7349Z" fill="#00666C"/>
<path d="M102.278 44.1317C102.143 44.6461 101.873 44.8643 101.468 44.7862C101.509 44.3997 101.663 43.821 101.93 43.05C102.277 43.3486 102.393 43.7091 102.278 44.1317Z" fill="#0D131A"/>
<path d="M83.9454 41.4179L84.0001 41.4738L87.784 44.4436C88.1136 44.6498 88.3499 44.9563 88.493 45.3631L89.0875 46.6405L86.5972 46.7793C85.6038 46.5843 84.7788 46.1609 84.1223 45.5091C83.8726 44.7327 83.7524 43.9209 83.7615 43.0737C83.7677 42.5028 83.829 41.9508 83.9454 41.4179Z" fill="#00666C"/>
<path d="M85.1279 47.1225L84.4647 47.0877C83.7772 45.8829 83.4415 44.5438 83.4575 43.0704C83.4631 42.5547 83.5343 41.9384 83.6711 41.2215L83.699 41.1942C83.7147 41.4522 83.8792 41.583 84.1925 41.5864L84.0381 43.0767C84.0223 44.5317 84.3856 45.8803 85.1279 47.1225Z" fill="#0D131A"/>
<path d="M86.682 46.6146C86.3687 46.6112 86.1118 46.4979 85.9114 46.2746C85.7295 46.0516 85.6401 45.7928 85.6433 45.4981C85.6465 45.2034 85.7415 44.9466 85.9282 44.7276C86.1332 44.5272 86.3647 44.4284 86.6228 44.4312C86.8624 44.4338 87.0732 44.5466 87.2551 44.7696C87.437 44.9926 87.5264 45.2514 87.5232 45.5461L87.3219 46.2623L86.682 46.6146Z" fill="#0D131A"/>
<path d="M85.6198 45.1391C85.3433 45.1361 85.1231 45.0324 84.9594 44.8279C84.8139 44.6421 84.7424 44.4294 84.745 44.1899C84.748 43.9136 84.8335 43.6842 85.0014 43.5017C85.188 43.3011 85.4011 43.2021 85.6408 43.2047C85.8621 43.2071 86.0637 43.3198 86.2457 43.5429C86.4094 43.7473 86.4898 43.9877 86.4868 44.2641L86.2313 44.8694C86.0449 45.0516 85.8411 45.1415 85.6198 45.1391Z" fill="white"/>
<path d="M102.119 43.4947L101.789 43.2424L101.684 42.7437C101.687 42.5042 101.735 42.3113 101.829 42.1649C101.904 41.9999 102.007 41.9181 102.136 41.9195L102.437 42.1992L102.541 42.7807L102.425 43.2769L102.119 43.4947Z" fill="white"/>
<path d="M81.6093 40.094C81.1515 39.8128 80.864 39.9662 80.747 40.5544L80.4433 43.0654C80.3575 44.1697 80.3587 44.9157 80.4466 45.3035C80.5348 45.6728 81.1854 46.0299 82.3983 46.3746L84.7425 46.9526L88.1636 47.6805L88.9645 47.7721C89.1122 47.7553 89.1775 47.6823 89.1605 47.5532L88.2429 45.471C88.1353 45.1935 87.9262 44.9242 87.6156 44.6629C86.3732 43.6363 85.4594 42.8988 84.8744 42.4504L81.6093 40.094ZM81.0391 39.1208C82.2665 39.8341 83.5477 40.6953 84.8825 41.7045L87.6225 44.0275L88.2798 44.6149C88.5719 44.8759 88.7538 45.1081 88.8253 45.3115L90.2304 48.3384L90.4185 48.8378C90.4534 49.0224 90.3876 49.1414 90.2211 49.1949L90.0017 49.0267L89.8673 48.6661C89.8315 48.5736 89.6942 48.48 89.4556 48.3853L88.7659 48.2397C88.1944 48.2335 87.0628 48.037 85.371 47.6502L81.0691 46.5536C80.6653 46.3834 80.3368 46.0851 80.0833 45.6587C79.7934 45.1951 79.6518 44.6501 79.6586 44.0239C79.6642 43.5082 79.7274 42.7813 79.8482 41.8432L80.0023 40.3805L80.0639 39.8009L80.014 39.3031C79.5039 38.7449 79.277 38.4201 79.3333 38.3286C79.408 38.2373 79.9766 38.5014 81.0391 39.1208Z" fill="#0D131A"/>
<path d="M103.154 42.3724C103.136 44.0484 102.596 45.3872 101.534 46.3888L101.121 46.2462C101.605 45.8278 101.988 45.2886 102.272 44.6285C102.574 43.9503 102.73 43.2243 102.738 42.4508C102.746 41.7693 102.642 41.1327 102.427 40.5409L102.737 40.0193C103.023 40.7961 103.162 41.5804 103.154 42.3724Z" fill="#0D131A"/>
<path d="M103.791 39.6993L103.688 38.9798C103.049 40.1333 102.529 41.2973 102.13 42.4719C101.787 43.4997 101.591 44.5659 101.542 45.6706C102.172 45.3827 102.721 44.8361 103.191 44.0307C103.567 43.3716 103.766 42.8488 103.789 42.4623C103.892 41.4871 103.892 40.5661 103.791 39.6993ZM95.5526 6.39859C94.8766 4.14401 93.8842 3.00962 92.5754 2.99541C91.7091 2.98601 91.0862 3.47659 90.7067 4.46715C90.4218 5.2377 90.3202 6.11154 90.4017 7.08869L90.7126 11.5681L90.8735 17.1235C90.8159 19.0386 90.5333 20.4446 90.0258 21.3417C89.6502 21.9823 88.9613 22.6011 87.9594 23.1981C87.1615 23.6684 86.2086 23.9988 85.1004 24.1894L82.5548 24.3275L83.6281 24.8089L84.9201 25.5137L85.9344 26.326L87.2493 27.4731C87.6681 27.9565 87.8767 28.2627 87.8753 28.3916C87.8553 28.5388 87.5527 28.3973 86.9674 27.9673L85.8419 27.2091L84.9643 26.5365C84.4902 26.0524 83.9958 25.7431 83.4811 25.6086C83.1315 25.5495 82.6727 25.3603 82.1046 25.041C81.4264 24.6837 80.8135 24.2534 80.2659 23.7501C77.8546 21.7161 75.6912 19.7678 73.7757 17.905L67.4279 11.6746C66.917 11.1901 66.1459 10.8962 65.1146 10.7929C64.0836 10.6712 63.3355 10.8105 62.8702 11.2107C62.4423 11.5744 62.2513 12.1894 62.2972 13.0557C62.3441 13.8298 62.5219 14.4304 62.8307 14.8574L65.3964 17.9522L68.2597 21.658C71.8643 27.5547 73.6507 31.9673 73.6189 34.8957C73.6043 36.2402 73.4708 37.5006 73.2184 38.6767L72.5567 41.0457L71.9776 43.4432C71.7825 44.4358 71.6825 45.1531 71.6777 45.5951C71.6719 46.1292 71.794 46.766 72.0441 47.5056C72.3114 48.3558 72.6991 49.152 73.2073 49.8944C74.3682 51.6384 75.0947 52.641 75.3868 52.9021L75.9113 52.9906C76.2246 52.994 76.4636 53.0519 76.6283 53.1642L78.5747 54.7326C79.7612 55.8138 80.7637 56.8655 81.5822 57.8874L85.3231 62.266C86.6517 63.8461 87.4605 64.914 87.7494 65.4697C88.0209 65.9332 88.7606 66.5675 89.9686 67.3727C91.4878 68.3838 92.8556 68.896 94.0722 68.9092C94.6989 68.916 95.2993 68.8028 95.8733 68.5696L96.9297 68.0561C97.8373 67.6607 98.7705 67.459 99.7292 67.451C101.629 67.3795 102.839 67.1624 103.359 66.7996C103.693 66.5638 103.975 66.1156 104.203 65.4549C103.514 66.1106 102.855 66.4902 102.227 66.5939C101.377 66.7689 100.283 66.5268 98.9444 65.8676L97.5671 65.3829L95.9381 65.1442L93.9985 65.5099C93.038 65.6837 92.2455 65.6659 91.6209 65.4565C90.9413 65.2281 90.4102 64.9092 90.0275 64.4998L89.1021 63.1359C88.3952 62.023 87.4043 60.7505 86.1294 59.3183C83.8158 56.7696 82.3026 55.2059 81.5899 54.6272C81.2976 54.3846 80.6923 54.1017 79.7741 53.7786L78.067 53.0969C77.7741 52.9095 77.5565 52.5756 77.4142 52.0952C77.3255 51.7811 77.2299 51.2458 77.1275 50.4895C77.0595 49.9546 77.0739 49.4758 77.1707 49.0532C77.2482 48.7041 77.3423 48.5301 77.4529 48.5313C77.6184 48.5699 77.7078 48.8288 77.721 49.3079C77.9058 50.9677 78.0976 51.9736 78.2966 52.3258C78.4232 52.5482 78.8816 52.7834 79.6716 53.0315C80.6085 53.3363 81.2597 53.6289 81.6254 53.9092L84.5019 56.3995C85.8886 57.7224 86.9275 58.8204 87.6185 59.6937C88.6003 60.9569 89.5167 62.3023 90.3676 63.7298L91.3832 64.4316C91.9153 64.6584 92.5132 64.7754 93.1768 64.7826L94.589 64.6046L96.0565 64.4271L97.6858 64.6382L99.2573 65.0697C100.652 65.6927 101.478 66.0056 101.736 66.0084C102.27 66.0142 102.976 65.5705 103.852 64.6775C104.914 63.6022 105.991 62.1035 107.081 60.1812C107.701 59.0827 108.22 58.0108 108.637 56.9654C109.11 55.7916 109.35 54.9101 109.357 54.3207C109.362 53.8418 109.172 53.4806 108.788 53.237L107.553 52.3118C107.153 51.8285 106.692 50.9486 106.172 49.6719C105.704 48.5617 105.365 47.5909 105.152 46.7597C104.851 45.6144 104.477 44.413 104.03 43.1556C103.65 44.2383 103.217 45.0625 102.731 45.6282L101.922 46.3378C101.606 46.5554 101.447 46.784 101.444 47.0234L101.303 47.2982L101.055 47.2402C100.892 46.9069 100.814 46.5008 100.819 46.0219L101.087 44.2289C101.283 43.2179 101.465 42.5291 101.635 42.1626L103.596 37.2657C104.091 35.8343 104.344 34.6029 104.355 33.5715C104.363 32.8717 104.232 32.2255 103.962 31.6332C103.745 31.1887 103.383 30.6414 102.873 29.9912C102.382 29.378 101.811 28.4876 101.16 27.3201C100.419 26.0042 99.8148 24.7451 99.3485 23.5428C98.3449 20.8978 97.498 17.398 96.8078 13.0434C96.1846 9.31581 95.7662 7.10087 95.5526 6.39859ZM96.2303 5.10733L97.6475 12.1131L99.0665 18.9531C99.5801 20.8928 100.405 22.9924 101.542 25.252L103.52 28.9759C104.333 30.5136 104.801 31.5962 104.923 32.2238C105.063 32.9253 105.112 33.5429 105.069 34.0766L104.721 35.5372L104.175 37.4102L104.355 38.7383C104.471 39.8632 104.486 41.0331 104.4 42.2478L106.436 48.2104L107.407 50.5142C107.804 51.2738 108.131 51.7654 108.386 51.9893L109.511 52.8027C110.023 53.2135 110.276 53.6952 110.27 54.2477C110.258 55.3712 109.743 56.9682 108.725 59.0386C107.725 61.1092 106.591 62.8744 105.321 64.3342C105.237 65.2912 104.803 66.2351 104.018 67.166C103.608 67.622 102.812 67.9449 101.63 68.1347L98.5568 68.4606C98.0214 68.5284 97.2535 68.7964 96.2529 69.2645C95.4004 69.6789 94.6055 69.8821 93.8682 69.8741C92.9465 69.8641 91.8347 69.5389 90.5328 68.8985C89.451 68.3525 88.6456 67.828 88.1164 67.3249L86.3143 65.2055L83.641 61.8333L77.8227 55.2218C77.3124 54.6821 76.7354 54.3442 76.0916 54.2083L75.126 54.0044L73.6515 52.2754L72.1794 50.3253L71.0412 48.1854C70.5906 47.2411 70.3676 46.5571 70.3722 46.1335C70.3786 45.5442 70.7378 43.8718 71.4498 41.1166C72.0863 38.5263 72.4131 36.4391 72.4303 34.8552C72.4419 33.787 72.0177 32.1061 71.1577 29.8127C70.4055 27.7784 69.5684 25.9273 68.6463 24.2595C67.9592 23.0179 66.7142 21.3834 64.9111 19.356L61.7145 15.7847C61.0054 14.8744 60.7035 13.812 60.8089 12.5974C60.8946 11.4931 61.2629 10.6867 61.9136 10.178C62.5089 9.68709 63.4058 9.42973 64.6043 9.4059C66.0058 9.36585 67.1443 9.77424 68.0199 10.6311L72.9432 15.6303L77.5382 20.2944C79.3637 21.9536 80.6525 22.953 81.4047 23.2927C81.8815 23.519 82.6823 23.6198 83.8071 23.5951C84.969 23.5525 85.8834 23.3874 86.5501 23.0999C87.5131 22.7051 88.2275 22.2708 88.6935 21.7969C89.4208 21.0312 89.7915 20.0037 89.8054 18.7145L89.8739 14.9575L89.799 11.6687L89.4201 5.80705C89.3925 4.95943 89.6413 4.11481 90.1666 3.2732C90.7482 2.34009 91.4821 1.81387 92.3683 1.69455C93.2543 1.59365 94.0805 1.90655 94.8469 2.63325C95.5584 3.32251 96.0195 4.1472 96.2303 5.10733Z" fill="#0D131A"/>
</svg>
