<svg width="100" height="114" viewBox="0 0 100 114" fill="none" xmlns="http://www.w3.org/2000/svg">
<g clip-path="url(#clip0_10_4372)">
<path d="M46.2912 47.4969L48.6422 51.0799L38.0171 74.2146C34.117 73.5719 31.5898 70.2497 30.4355 64.2478C30.0103 62.0289 29.8402 59.7554 29.9253 57.4274C29.9982 55.3176 30.2412 53.7959 30.6543 52.8623L46.2912 47.4969Z" fill="#E9EFF8"/>
<path d="M46.2913 47.4969L48.6423 51.0799L41.571 66.4485C41.4738 64.8479 41.2733 63.5263 40.9696 62.4836C40.5929 61.1983 40.0098 60.1616 39.22 59.3735C38.5639 58.5005 37.3125 57.8033 35.4657 57.2819C34.2264 56.9424 32.3978 56.6211 29.98 56.3179C30.1136 54.7296 30.3384 53.5777 30.6543 52.8623L46.2913 47.4969Z" fill="#C9CFD7"/>
<path d="M33.5885 18.5423C35.1679 20.5672 36.2371 22.1434 36.796 23.271L45.0701 49.152L44.414 49.2794C38.1447 53.3049 32.6225 54.2506 27.8476 52.1166C26.2438 51.3891 24.8162 50.3524 23.5648 49.0065C22.7386 48.1335 22.1311 47.309 21.7423 46.533L12.2107 23.9076C11.749 22.1859 11.4756 20.2762 11.3905 18.1785C11.2204 13.9832 12.0588 10.958 13.9056 9.10288C17.2104 5.80486 21.7848 6.77487 27.6289 12.0129C29.6458 13.8317 31.6323 16.0081 33.5885 18.5423Z" fill="#E9EFF8"/>
<path d="M34.9189 20.3065C35.8787 21.6887 36.5045 22.6769 36.7961 23.271L45.0702 49.152L44.4141 49.2794C40.0158 52.1045 35.9516 53.4019 32.2216 53.1715C35.0161 49.2672 36.4619 44.0716 36.5591 37.5847C36.5956 34.0321 36.0488 28.2726 34.9189 20.3065Z" fill="#C9CFD7"/>
<path d="M65.7372 65.721L57.2991 47.788L58.8117 43.3866L87.8622 41.877C88.7127 43.1137 89.5146 44.8052 90.2679 46.9513C91.2035 49.6067 91.7745 52.2197 91.9811 54.7902C92.5157 61.9198 90.1525 67.2002 84.8916 70.6316C80.8335 73.2749 76.4231 73.2506 71.6603 70.5589C70.178 69.7222 68.7443 68.6613 67.3592 67.376L65.7372 65.721Z" fill="#E9EFF8"/>
<path d="M69.3275 69.0311C68.4041 68.34 67.5293 67.5822 66.7031 66.7577L65.7372 65.721L57.2991 47.788L58.8117 43.3866L87.8622 41.877L88.9193 43.7321C86.7444 46.2178 84.1383 48.2427 81.1008 49.8068C78.1362 51.3467 74.9954 52.3349 71.6785 52.7714C71.958 59.2825 71.1743 64.7025 69.3275 69.0311Z" fill="#C9CFD7"/>
<path d="M95.2251 3.37378C97.4728 5.36229 98.7607 9.38782 99.0888 15.4504C99.429 21.7069 98.0196 27.6118 94.8606 33.1651C92.1755 37.8939 89.2048 41.01 85.9486 42.5136C82.9233 43.9079 79.2236 44.9264 74.8497 45.5691C69.9897 46.2845 65.9195 46.2481 62.639 45.46L56.4972 36.8026C56.8131 34.1715 57.8519 31.1523 59.6137 27.7452C61.3025 24.4836 63.4713 21.2219 66.1199 17.9603C71.9519 10.758 77.8568 5.90186 83.8345 3.39197C88.9861 1.22158 92.783 1.21551 95.2251 3.37378Z" fill="#E9EFF8"/>
<path d="M65.4092 37.8211C67.5476 40.2704 69.3579 42.9986 70.8402 46.0056C67.6812 46.1996 64.9475 46.0177 62.639 45.46L59.6501 42.0225L56.4972 36.8026C56.6916 35.2021 57.1654 33.4137 57.9187 31.4373C60.6889 33.159 63.1857 35.287 65.4092 37.8211Z" fill="#C9CFD7"/>
<path d="M25.7518 68.4855C25.9462 68.049 26.5172 67.564 27.4649 67.0305C28.4491 66.4848 29.0201 66.0847 29.1781 65.8301C29.3846 65.2117 29.5912 64.7388 29.7977 64.4114C30.1744 63.8052 30.958 63.2899 32.1487 62.8655C33.7647 62.2956 35.9152 60.9376 38.6003 58.7915C41.9173 56.1482 44.3351 53.4807 45.8539 50.7889L49.7358 51.2072L40.0948 61.9379C38.5031 63.5748 36.7596 64.9086 34.8642 65.9392C33.5399 66.6546 32.3431 67.1335 31.2739 67.376C29.9982 67.667 29.4818 68.5522 29.7248 70.0314C29.822 70.5892 29.8038 71.1894 29.6701 71.832L29.2874 73.2143C29.2145 73.481 29.2206 74.257 29.3056 75.5423C29.4028 77.0943 29.4332 78.234 29.3968 78.9615C29.2874 81.0471 28.6435 83.0962 27.4649 85.109C26.1406 87.3521 25.3508 89.1951 25.0957 90.638C24.7312 92.6871 24.9135 94.3422 25.6424 95.6032C26.0312 96.258 26.5476 96.9188 27.1916 97.5857L27.7748 99.0225C27.9206 99.4833 27.872 99.7379 27.629 99.7864C27.1673 99.8834 26.2864 100.168 24.9864 100.641C23.2732 101.272 21.7241 101.945 20.339 102.66C19.1726 103.266 17.5324 104.685 15.4183 106.916C14.1547 108.25 12.8364 109.753 11.4635 111.426C11.3541 111.56 11.2326 111.578 11.099 111.481C10.9896 111.396 10.9228 111.287 10.8985 111.154L10.5887 109.571C10.5279 109.038 10.4976 108.128 10.4976 106.843C10.4976 105.885 11.828 104.497 14.4888 102.678L18.4618 100.241C20.2236 97.9616 21.3292 96.3429 21.7788 95.385C22.0704 94.7545 22.0582 93.9118 21.7423 92.8569C21.5601 92.2143 21.1652 91.2564 20.5577 89.9833C20.096 89.0011 20.0474 87.534 20.4119 85.5818C20.7885 83.5085 21.5358 81.5199 22.6536 79.6163C23.577 78.0279 24.312 75.8272 24.8588 73.0142L25.7518 68.4855Z" fill="#6791B9"/>
<path d="M28.8865 70.086C29.0323 69.8677 29.1902 69.7101 29.3603 69.6131L29.6701 69.4676L29.7248 70.0314C29.822 70.5892 29.8038 71.1894 29.6701 71.832L29.2874 73.2142C29.2145 73.481 29.2206 74.257 29.3056 75.5423C29.4028 77.0943 29.4332 78.234 29.3968 78.9615C29.2874 81.0471 28.6435 83.0962 27.4649 85.109C26.1406 87.3521 25.3508 89.1951 25.0957 90.638C24.7312 92.6871 24.9134 94.3422 25.6424 95.6032C26.0312 96.258 26.5476 96.9188 27.1915 97.5857L27.7747 99.0225C27.9205 99.4832 27.8719 99.7379 27.6289 99.7864C27.1672 99.8834 26.2864 100.168 24.9863 100.641C23.2732 101.272 21.7241 101.945 20.339 102.66C19.2212 103.23 16.4996 105.861 12.1742 110.553C11.992 110.396 11.8583 110.196 11.7733 109.953C11.6032 109.493 11.8401 108.638 12.4841 107.389C13.0916 106.213 14.7804 104.545 17.5506 102.387C20.8432 99.8288 22.7082 98.3132 23.1456 97.8403C23.9597 96.9552 24.2027 95.5305 23.8746 93.5662L23.5466 91.3473C23.498 90.5471 23.6255 89.8862 23.9293 89.3649C24.5975 88.2251 25.3691 85.9031 26.2438 82.399C27.0822 79.0525 27.6289 76.2213 27.8841 73.9054C28.0906 72.0381 28.4248 70.765 28.8865 70.086Z" fill="#567C9D"/>
<path d="M45.8538 50.7889L49.7357 51.2072L40.0948 61.9379C38.9405 63.1262 37.7012 64.1568 36.3769 65.0298C37.033 63.8052 37.3367 62.7503 37.2881 61.8652C37.2638 61.0528 36.9662 60.5739 36.3951 60.4284C38.2662 59.131 39.9733 57.7245 41.5163 56.2088C43.3996 54.3779 44.8454 52.5713 45.8538 50.7889Z" fill="#567C9D"/>
<path d="M29.415 50.989C27.6289 48.952 26.2985 47.212 25.4237 45.7691C24.7798 44.7142 24.8041 44.011 25.4966 43.6594L26.7359 43.4593L28.3579 45.6054C29.6701 47.1089 30.8973 48.0486 32.0393 48.4245C33.2665 48.8125 34.0866 49.437 34.4997 50.2978C34.7063 50.7222 34.9189 51.7104 35.1376 53.2624C35.5628 51.8195 36.8325 49.734 38.9466 47.0059C40.4167 45.1265 41.577 43.7624 42.4275 42.9137L43.1019 45.7509C42.9561 47.1332 42.1785 48.861 40.7691 50.9344C39.87 52.256 38.8433 53.5474 37.6891 54.8084C37.3732 55.5723 36.9054 55.9421 36.2857 55.9178C35.8362 55.8936 35.01 55.5965 33.8072 55.0266C32.8352 54.578 31.3711 53.2321 29.415 50.989Z" fill="#6791B9"/>
<path d="M42.4276 42.9137L43.1019 45.7509C42.9804 47.0362 42.3 48.6246 41.0607 50.5161C40.2224 51.8014 39.2261 53.0927 38.0718 54.3901C38.3877 53.0684 38.5275 52.1105 38.491 51.5164C38.4424 50.5343 37.9989 49.8432 37.1606 49.443C38.0475 48.1456 39.1349 46.727 40.4228 45.1871C41.407 43.9989 42.0752 43.241 42.4276 42.9137Z" fill="#567C9D"/>
<path d="M26.7359 43.4593L27.5013 44.5505C28.1331 45.3872 28.7771 46.1147 29.4332 46.7331C28.1696 46.2723 27.3677 46.7209 27.0275 48.0789C26.2985 47.1089 25.7639 46.339 25.4237 45.7691C24.7798 44.7142 24.8041 44.011 25.4966 43.6594L26.7359 43.4593Z" fill="#567C9D"/>
<path d="M2.40568 16.1233L26.4079 33.0924L29.3967 40.5857C29.0322 41.689 28.3276 42.7621 27.2827 43.8049C25.6789 45.3811 23.583 46.4784 20.9951 47.0968C19.9745 47.3757 18.9843 47.4788 18.0244 47.406C17.016 47.3333 16.3538 47.0847 16.0379 46.6603C15.6855 46.1996 13.0794 41.295 8.21942 31.9465C3.33515 22.5496 0.783661 17.5298 0.564962 16.8872C0.334113 16.1839 0.382713 15.7474 0.710761 15.5777C1.06311 15.3837 1.62808 15.5655 2.40568 16.1233Z" fill="#DBDCDC"/>
<path d="M5.44925 18.2876L26.4079 33.0924L29.3968 40.5857C29.0323 41.689 28.3276 42.7621 27.2827 43.8049C25.7032 45.3569 23.6498 46.4481 21.1227 47.0786C21.4264 46.9816 21.876 46.727 22.4713 46.3148C23.905 45.3569 25.1564 43.9989 26.2256 42.2407C25.7275 41.5254 18.802 33.541 5.44925 18.2876Z" fill="#B4B4B5"/>
<path d="M64.2974 58.555C66.0349 62.726 66.5209 66.9153 65.7554 71.1227C65.0629 74.9421 63.4712 78.2704 60.9805 81.1077C58.5626 83.8722 55.7925 85.6182 52.6699 86.3457C49.3773 87.1217 46.3337 86.57 43.5393 84.6906C40.9027 82.9204 39.1714 80.4408 38.3452 77.2519C37.604 74.4268 37.6101 71.2439 38.3634 67.7034C39.0559 64.4781 40.2588 61.368 41.9719 58.3731C43.6486 55.4631 45.4954 53.2079 47.5123 51.6073L58.3925 49.9705L64.2974 58.555Z" fill="#F9BE00"/>
<path d="M64.2974 58.555C65.7311 61.9985 66.3082 65.4845 66.0288 69.0129C65.7736 72.2261 64.8442 75.2088 63.2404 77.9612C61.7095 80.5924 59.7655 82.6839 57.4084 84.236C55.027 85.8243 52.5727 86.6307 50.0455 86.6549C50.5315 86.1093 50.7624 85.0786 50.7381 83.563C50.7016 81.9261 50.896 80.7318 51.3213 79.9801C53.3139 79.6042 55.0999 77.8763 56.6794 74.7966C58.186 71.8259 59.0547 68.534 59.2856 64.9207C59.5164 61.0043 58.8846 57.8336 57.3902 55.4086C55.6406 52.5955 52.9251 51.2436 49.2437 51.3527L58.3925 49.9705L64.2974 58.555Z" fill="#D7A400"/>
<path d="M66.1928 67.1396C66.3021 69.2373 66.0531 71.4925 65.4456 73.9054C65.5428 71.735 64.9778 69.4979 63.7507 67.1942C62.4992 64.854 60.8772 63.0231 58.8846 61.7015C56.1387 59.8585 52.7914 59.0279 48.8427 59.2098C44.7603 59.3917 41.7593 60.6163 39.8396 62.8837C40.2527 61.8046 40.7751 60.6709 41.4069 59.4826L42.2088 58.0094C43.2051 56.712 44.7542 55.7117 46.8562 55.0085C49.0432 54.2931 51.3091 54.087 53.6541 54.3901C56.2906 54.7296 58.6234 55.6814 60.6524 57.2455C62.9731 59.0522 64.7044 61.5499 65.8465 64.7388L66.1928 67.1396Z" fill="#152139"/>
<path d="M44.0678 64.7206C46.6557 63.9568 49.3469 63.9446 52.1414 64.6843C55.0938 65.4603 57.5299 66.9335 59.4496 69.1039C61.6123 71.541 62.8273 74.5662 63.0946 78.1795L61.1992 80.7258C59.7047 82.5809 58.3925 83.8965 57.2626 84.6725C58.6598 81.6654 58.5383 78.9434 56.8981 76.5062C55.4523 74.3722 53.2228 72.8808 50.2096 72.0321C47.245 71.1954 44.6267 71.2743 42.3546 72.2685C39.8153 73.384 38.5092 75.3968 38.4363 78.3068C37.7559 77.1549 37.5007 75.2634 37.6708 72.6323L38.1265 69.0311C39.4022 66.9577 41.3826 65.5209 44.0678 64.7206Z" fill="#152139"/>
<path d="M65.8466 64.7388L66.1564 67.1396C66.2414 69.2372 65.9802 71.4925 65.3727 73.9054C65.4699 71.7108 64.9535 69.5222 63.8236 67.3397C62.6815 65.0844 61.1202 63.2959 59.1398 61.9743L58.9576 60.2283C58.7389 58.7248 58.3258 57.1546 57.7183 55.5177C59.5043 56.3058 61.0595 57.4213 62.3838 58.8642C63.8661 60.4647 65.0204 62.4229 65.8466 64.7388Z" fill="#0B132A"/>
<path d="M57.372 84.436C58.8543 81.2714 58.4594 78.3553 56.1874 75.6878C57.5968 73.578 58.4655 71.153 58.7935 68.4127C61.3693 70.9469 62.803 74.2025 63.0946 78.1795L61.1992 80.7985C59.7169 82.6536 58.4412 83.8661 57.372 84.436Z" fill="#0B132A"/>
<path d="M52.8704 83.8541C52.4816 84.9938 50.568 87.9705 47.1296 92.7842C43.6426 97.6827 41.7168 99.9744 41.3523 99.6591C40.9878 99.356 41.0486 96.3308 41.5346 90.5835C42.0084 84.9696 42.4397 81.5927 42.8285 80.453C43.1809 79.4102 43.9706 78.6888 45.1978 78.2886C46.4249 77.8885 47.731 77.9249 49.1161 78.3978C50.5133 78.8706 51.5765 79.6406 52.3055 80.7076C53.0345 81.7625 53.2228 82.8113 52.8704 83.8541Z" fill="#F9BE00"/>
<path d="M51.1755 79.6709C51.9652 80.168 52.512 80.7864 52.8157 81.526C53.1195 82.2657 53.1377 83.0417 52.8704 83.8541C52.4816 84.9696 51.0479 87.3521 48.5693 91.0018C45.7991 95.0637 43.5514 97.8343 41.8261 99.3135C43.4421 96.7915 45.0762 93.8754 46.7286 90.5653C48.867 86.3094 50.3493 82.6779 51.1755 79.6709Z" fill="#D7A400"/>
<path d="M49.8269 34.2018L50.8292 34.2382C51.6676 34.3352 52.4816 34.5231 53.2714 34.802C55.7985 35.7235 57.6332 37.4695 58.7753 40.04C60.2211 43.2532 60.2758 46.145 58.9393 48.7155C57.5299 51.4073 55.0088 52.7774 51.376 52.8259C48.0226 52.8623 45.5136 51.2376 43.8491 47.9517C43.2051 46.6664 42.8285 45.3569 42.7191 44.0231C42.6098 42.7379 42.7738 41.78 43.2112 41.1495L49.8269 34.2018Z" fill="#F9BE00"/>
<path d="M49.8268 34.2018L50.8292 34.2382C51.6676 34.3352 52.4816 34.5231 53.2714 34.802C55.7985 35.7235 57.6332 37.4695 58.7753 40.04C59.9903 42.7318 60.1968 45.2538 59.3949 47.6061C58.5809 50.0311 56.8981 51.6256 54.3466 52.3894C55.4158 51.0921 55.9869 49.5582 56.0598 47.788C56.1327 46.1026 55.7439 44.5081 54.8934 43.0046C54.0064 41.4526 52.7793 40.2947 51.2119 39.5308C49.4745 38.6942 47.5366 38.4698 45.3982 38.8578L49.8268 34.2018Z" fill="#D7A400"/>
<path d="M72.8814 64.3205L67.177 60.9922C64.9657 59.7433 62.7665 57.7063 60.5796 54.8811C58.7692 52.5653 57.3963 50.3403 56.4607 48.2063C56.3271 47.8668 56.4 47.594 56.6794 47.3878C56.971 47.1817 57.2323 47.2302 57.4631 47.5333C59.079 49.7159 60.9562 51.6983 63.0946 53.4807C64.6133 54.7538 67.0919 56.227 70.5303 57.9003L76.4534 60.7739C77.0488 61.1498 77.3343 61.5378 77.31 61.9379C77.2614 62.5321 77.4923 63.1686 78.0026 63.8476C78.4035 64.3933 78.9138 64.9935 79.5334 65.6482C80.1045 66.2545 80.8821 67.2366 81.8662 68.5946C83.0448 70.2073 84.0714 73.2203 84.9462 77.6339C85.6023 80.944 86.0519 84.2845 86.2949 87.6553C86.4528 89.9711 86.3374 91.7475 85.9486 92.9842C85.572 94.1482 85.4262 95.094 85.5112 95.8215C85.8757 98.9862 87.8926 101.635 91.5619 103.77C92.6554 104.4 94.004 105.037 95.6078 105.679C97.1387 106.298 97.971 106.649 98.1046 106.734C98.7486 107.146 99.1677 108.383 99.3621 110.444C99.4593 111.475 99.4897 112.463 99.4533 113.409C99.1009 112.936 98.6635 112.451 98.1411 111.954C97.1205 110.96 96.2275 110.414 95.462 110.317C94.8545 110.244 93.5362 109.365 91.5072 107.68C89.3445 105.873 87.4552 104.752 85.8393 104.315C84.8673 104.036 83.7738 103.909 82.5588 103.933L80.4265 103.751C79.9405 103.557 79.8676 103.084 80.2078 102.333C80.3779 101.957 80.8578 101.181 81.6475 100.005C82.2307 99.1317 82.5709 98.2526 82.6681 97.3675C82.7653 96.3974 82.5709 95.3304 82.0849 94.1664L79.9891 89.4558C79.0778 87.3339 78.5979 85.8183 78.5493 84.9089C78.525 84.4603 78.6526 83.0477 78.932 80.6712C79.1507 78.6827 79.1325 77.2641 78.8774 76.4153C78.5007 75.13 78.2638 74.0812 78.1666 73.2688C78.0451 72.2018 78.1362 71.341 78.44 70.6862C78.7316 70.0557 78.6951 69.1888 78.3306 68.0854C78.0755 67.3215 77.7049 66.5334 77.2189 65.721C76.9516 65.2723 76.6296 65.0844 76.253 65.1572L75.3417 65.5027C75.123 65.5512 74.3029 65.1572 72.8814 64.3205Z" fill="#6791B9"/>
<path d="M63.9329 54.1536C62.5721 53.5231 61.3389 53.6141 60.2333 54.4265C58.593 52.2682 57.3355 50.1948 56.4607 48.2063C56.3271 47.8668 56.4 47.594 56.6794 47.3878C56.971 47.1817 57.2323 47.2302 57.4631 47.5333C59.079 49.7159 60.9562 51.6983 63.0946 53.4807L63.9329 54.1536Z" fill="#567C9D"/>
<path d="M76.745 63.2656C76.9273 62.9868 76.332 62.2229 74.959 60.974C73.6954 59.81 72.6627 58.9976 71.8608 58.5369L74.6674 59.8464C75.5544 60.2586 76.1497 60.5678 76.4534 60.7739C77.0488 61.1498 77.3343 61.5378 77.31 61.9379C77.2614 62.5321 77.4923 63.1686 78.0026 63.8477C78.4035 64.3933 78.9138 64.9935 79.5335 65.6482C80.1045 66.2545 80.8821 67.2366 81.8662 68.5946C83.0448 70.2073 84.0715 73.2203 84.9463 77.6339C85.6023 80.944 86.0519 84.2845 86.2949 87.6553C86.4528 89.9711 86.3374 91.7475 85.9486 92.9842C85.572 94.1482 85.4262 95.094 85.5112 95.8215C85.8757 98.9862 87.8926 101.635 91.5619 103.77C92.6554 104.4 94.004 105.037 95.6078 105.679C97.1387 106.298 97.971 106.649 98.1046 106.734C98.7486 107.146 99.1738 108.383 99.3804 110.444C99.4776 111.475 99.514 112.463 99.4897 113.409C99.1252 112.936 98.6817 112.451 98.1593 111.954C97.1266 110.96 96.2275 110.414 95.462 110.317C95.1583 110.281 94.9456 110.147 94.8241 109.917L94.5508 109.08C94.2713 108.122 93.6031 107.328 92.546 106.698C91.6712 106.188 90.4805 105.328 88.974 104.115C87.8197 103.194 86.9996 102.678 86.5136 102.569C85.7846 102.411 85.171 101.757 84.6729 100.605C84.1383 99.3681 83.9621 98.0222 84.1444 96.5672C84.3145 95.2577 84.3266 93.5905 84.1808 91.5656L83.7616 87.4916C83.5551 85.7819 83.2513 83.8116 82.8504 81.5806C82.4373 79.3496 82.1153 77.2822 81.8845 75.3786C81.7751 74.2388 81.5078 72.8323 81.0826 71.1591C80.5844 69.2554 80.062 67.8065 79.5152 66.8122C79.1507 66.1454 78.446 65.4239 77.4011 64.6479C76.6964 64.1144 76.4777 63.6537 76.745 63.2656Z" fill="#567C9D"/>
<path d="M74.3576 41.2586C74.2118 41.5617 74.0417 42.6227 73.8473 44.4414C73.6772 46.1268 73.5861 47.4181 73.5739 48.3154C73.5739 48.8125 73.258 49.4309 72.6262 50.1705L71.2593 51.4982L70.7855 52.5531C70.6275 52.9047 70.3056 52.8138 69.8196 52.2803C68.7504 51.1042 66.8368 50.0735 64.0787 49.1884L61.2721 48.4427C60.5431 48.2123 59.9721 47.8001 59.559 47.2059C58.7935 46.1147 57.9248 44.981 56.9528 43.8049C55.6042 42.168 54.5167 41.0585 53.6905 40.4765C53.3868 40.2583 53.2471 40.04 53.2714 39.8218C53.2957 39.6035 53.4718 39.4701 53.7999 39.4216C54.6868 39.264 55.9444 39.7248 57.5724 40.8039C59.4435 42.0528 63.1614 44.884 68.7261 49.2975C68.6896 48.9701 68.6836 48.6003 68.7079 48.1881C68.7686 47.3636 68.9569 46.7452 69.2728 46.3329C69.5644 45.9571 70.093 44.8901 70.8584 43.1319C71.6481 41.301 72.1159 40.2704 72.2617 40.04L73.6468 40.0764C74.2908 40.5008 74.5277 40.8948 74.3576 41.2586Z" fill="#6791B9"/>
<path d="M62.0375 44.0959C60.859 43.72 59.9842 43.6594 59.4132 43.914C58.8178 44.1929 58.5444 44.8537 58.593 45.8964C56.564 43.144 54.9298 41.3374 53.6905 40.4765C53.3868 40.2583 53.2471 40.04 53.2714 39.8218C53.2957 39.6035 53.4718 39.4701 53.7999 39.4216C54.6868 39.264 55.9444 39.7248 57.5724 40.8039L62.0375 44.0959Z" fill="#567C9D"/>
<path d="M74.3575 41.2586C74.2117 41.5617 74.0417 42.6227 73.8473 44.4414C73.6772 46.1268 73.586 47.4182 73.5739 48.3154C73.5739 48.667 73.4038 49.0975 73.0636 49.6067C73.2701 48.467 73.1061 47.3575 72.5715 46.2784C72.0369 45.2235 71.3079 44.5324 70.3845 44.205L71.4598 41.7315L72.2617 40.04L73.6468 40.0764C74.2907 40.5008 74.5276 40.8949 74.3575 41.2586Z" fill="#567C9D"/>
<path d="M87.4248 3.37375C87.3884 7.12041 86.7505 13.6619 85.5112 22.9982C84.357 31.5828 83.5854 36.4571 83.1966 37.6211C82.7714 38.8821 81.4045 39.9127 79.096 40.713C76.8847 41.489 75.0866 41.6708 73.7015 41.2586C71.4659 40.6038 69.8135 39.4762 68.7443 37.8757C67.6751 36.2994 67.3349 34.4867 67.7237 32.4376C68.0396 30.8007 70.7126 25.7991 75.7426 17.4328C80.5662 9.40598 83.6766 4.59233 85.0738 2.99181C86.3252 1.56105 87.0299 0.851736 87.1879 0.863861C87.358 0.875986 87.437 1.71262 87.4248 3.37375Z" fill="#DBDCDC"/>
<path d="M87.1514 0.681993C87.2851 0.572867 87.3762 1.03362 87.4248 2.06425C87.4613 3.02213 87.4491 3.93152 87.3884 4.7924C86.7566 12.601 86.2706 18.0997 85.9304 21.2886C85.0677 29.3033 84.1565 34.7474 83.1966 37.6211C82.7592 38.9063 81.3802 39.9673 79.0596 40.8039C76.7997 41.6163 75.0137 41.7678 73.7015 41.2586L72.4804 40.713C73.3552 40.9312 74.0842 40.9312 74.6674 40.713C75.2384 40.5068 75.7184 40.0825 76.1072 39.4398L81.5564 21.4159C84.7883 10.5761 86.6533 3.66476 87.1514 0.681993Z" fill="#B4B4B5"/>
<path d="M35.6661 23.2892L40.4775 23.0528C41.9233 23.1619 43.0047 23.3862 43.7215 23.7257L48.3688 25.8173L46.6375 38.2758C45.5075 39.6339 44.0435 41.0889 42.2453 42.6409C40.034 44.5566 38.5153 45.4903 37.6891 45.4418C37.1666 45.4175 36.2857 44.9265 35.0464 43.9686C33.6735 42.9137 32.4038 41.6769 31.2374 40.2583C28.0177 36.354 26.8878 32.7529 27.8476 29.4548C28.8075 26.1447 31.4136 24.0895 35.6661 23.2892Z" fill="#F9BE00"/>
<path d="M43.1201 30.3642C42.5248 27.2359 41.1336 24.7746 38.9466 22.98L41.8079 23.1983C42.6463 23.3438 43.2841 23.5196 43.7215 23.7257L48.3689 25.8173L46.6375 38.2758C45.5076 39.6339 44.0435 41.0889 42.2453 42.6409C40.034 44.5566 38.5153 45.4903 37.6891 45.4418L37.4704 45.4054L40.113 42.2771C41.1215 41.0404 41.8747 39.9249 42.3729 38.9306C43.4421 36.1782 43.6912 33.3227 43.1201 30.3642Z" fill="#D7A400"/>
<path d="M27.7383 29.8913C28.2243 29.9762 29.0079 31.6434 30.0893 34.8929C31.0977 37.9363 31.6384 39.943 31.7113 40.913C31.772 41.7012 31.1949 41.7557 29.9799 41.0767C28.7649 40.3977 27.8355 39.4641 27.1915 38.2758C26.1102 36.2994 25.6849 34.3473 25.9158 32.4194C26.1345 30.5764 26.742 29.7337 27.7383 29.8913Z" fill="#E85377"/>
<path d="M45.8539 27.4724H48.2778C49.8573 28.9031 50.5012 30.7462 50.2096 33.0014C49.9666 34.9051 49.3227 36.2934 48.2778 37.1664C46.6254 38.585 45.2524 39.3974 44.1589 39.6035C42.8711 39.846 42.0752 39.2216 41.7715 37.7302C41.3219 35.5841 41.5285 33.4319 42.3911 31.2736C43.2538 29.1275 44.408 27.8604 45.8539 27.4724Z" fill="#E85377"/>
<path d="M32.7137 26.8176C33.0417 27.7028 33.0235 28.2726 32.659 28.5273C32.2945 28.7819 31.9422 28.4666 31.602 27.5815C31.2861 26.7449 30.1683 25.0837 28.2486 22.5981C26.3775 20.1731 25.1747 18.7847 24.6401 18.4331C24.2148 18.1542 22.9573 19.1728 20.8675 21.4886C19.3488 23.174 17.9212 24.914 16.5847 26.7085C16.0379 27.4481 15.4001 28.3999 14.6711 29.564C14.0757 30.4127 13.4621 30.928 12.8303 31.1099C12.077 31.3282 11.4209 30.8856 10.8621 29.7822C10.3032 28.6909 10.2242 27.7755 10.6251 27.0359C11.0139 26.3205 12.6906 24.338 15.6552 21.0885C18.6319 17.8511 20.5638 15.899 21.4507 15.2321C22.3134 14.5773 23.0606 14.2924 23.6924 14.3773C24.2999 14.4622 24.9134 14.8926 25.5331 15.6686C26.3957 16.772 27.6411 18.5483 29.2692 20.9976C31.201 23.9197 32.3492 25.8597 32.7137 26.8176Z" fill="#6791B9"/>
<path d="M32.7137 26.8176C33.0417 27.7027 33.0235 28.2726 32.659 28.5272C32.2945 28.7819 31.9422 28.4666 31.602 27.5815C31.2861 26.7449 30.1683 25.0837 28.2486 22.5981C26.3775 20.1731 25.1747 18.7847 24.6401 18.4331C24.2148 18.1542 22.9573 19.1727 20.8675 21.4886C19.3488 23.174 17.9211 24.914 16.5847 26.7085C16.0379 27.4481 15.4 28.3999 14.671 29.5639C14.0757 30.4127 13.4621 30.928 12.8303 31.1099C12.9761 30.9523 13.128 30.6855 13.2859 30.3096C13.6018 29.5336 13.693 28.6606 13.5593 27.6906C13.4378 26.6721 14.8351 24.4532 17.751 21.0339C20.2661 18.0875 22.0278 16.2385 23.0363 15.4867C23.5466 15.0987 24.0872 14.9835 24.6583 15.1412C25.0592 15.2624 25.3508 15.4382 25.5331 15.6686C26.3957 16.772 27.6411 18.5483 29.2692 20.9976C31.201 23.9197 32.3492 25.8597 32.7137 26.8176Z" fill="#567C9D"/>
<path d="M40.2224 11.7037C40.4168 10.5761 40.757 10.0911 41.2429 10.2487C41.6196 10.3699 42.0145 10.8186 42.4276 11.5946C45.3921 17.063 47.5305 20.8521 48.8427 22.9618C49.5717 24.1259 49.6021 25.3566 48.9339 26.6539C48.3993 27.6846 47.7432 28.3636 46.9656 28.691C46.5039 28.8728 45.5015 27.3633 43.9585 24.1622L41.7715 19.3061L40.9514 22.689L39.6574 27.5269C39.4751 28.0726 39.2018 28.2908 38.8373 28.1817C38.4728 28.0604 38.3452 27.7513 38.4545 27.2541L39.3111 19.7245C39.8093 15.0078 40.113 12.3342 40.2224 11.7037Z" fill="#6791B9"/>
<path d="M48.8427 22.9618C49.5717 24.1259 49.6021 25.3565 48.9338 26.6539C48.3992 27.6846 47.7431 28.3636 46.9655 28.6909C46.8562 28.7273 46.437 28.2605 45.708 27.2905C44.9426 26.2599 44.493 25.4778 44.3594 24.9443C45.951 26.4357 46.9109 26.2538 47.2389 24.3987C47.5427 22.689 47.2693 20.8339 46.4188 18.8333L48.8427 22.9618Z" fill="#567C9D"/>
<path d="M45.7262 35.966L48.1866 35.8751C48.8548 36.0206 49.031 36.3176 48.7151 36.7663C48.1927 37.518 47.3786 38.191 46.273 38.7851C45.2402 39.3307 44.3594 39.6035 43.6304 39.6035C42.7434 39.6035 42.2149 39.1852 42.0448 38.3486C41.9476 37.8029 42.3 37.3058 43.1019 36.8572C43.7944 36.4571 44.6692 36.16 45.7262 35.966Z" fill="#ED8599"/>
<path d="M28.3944 39.9127C28.1757 39.6217 28.1635 39.3428 28.3579 39.0761C28.5402 38.8457 28.8439 38.676 29.2692 38.5668C30.3262 38.3122 30.9884 38.5365 31.2557 39.2398C31.523 39.9309 31.6627 40.4523 31.6749 40.8039C31.687 41.1192 31.5898 41.3495 31.3833 41.495C31.1767 41.6405 30.7515 41.5678 30.1075 41.2768C29.4028 40.9494 28.8318 40.4947 28.3944 39.9127Z" fill="#ED8599"/>
<path d="M23.5648 49.6431C23.018 49.049 22.532 48.4245 22.1068 47.7698L21.6329 46.9513L22.125 46.6603L22.5806 47.3878C22.9694 47.9577 23.419 48.5034 23.9293 49.0247C25.5695 50.698 27.5014 51.8378 29.7248 52.444L31.2557 52.7532L32.2763 53.8445C31.3772 53.8081 30.5145 53.6747 29.6883 53.4443C27.3556 52.8017 25.3144 51.5346 23.5648 49.6431Z" fill="#0D131A"/>
<path d="M40.5504 51.8256C40.8542 51.3891 41.0303 51.0496 41.0789 50.8071C42.1238 50.2979 43.1809 49.6977 44.2501 49.0065L44.5963 49.534C43.2113 50.4312 41.8626 51.1951 40.5504 51.8256Z" fill="#0D131A"/>
<path d="M30.3627 52.735L30.9459 52.9896C30.5814 53.8262 30.3505 55.1964 30.2533 57.1C30.1561 59.2219 30.2716 61.3195 30.5996 63.3929L29.8342 63.9022C29.5061 61.7076 29.4211 59.4523 29.579 57.1364C29.7127 55.0873 29.9739 53.6201 30.3627 52.735Z" fill="#0D131A"/>
<path d="M31.7295 70.0678C31.3286 69.3403 30.9762 68.5097 30.6725 67.5761C31.0005 67.4306 31.2982 67.3336 31.5655 67.2851C31.845 68.1096 32.1791 68.8735 32.5679 69.5767C33.9165 72.0745 35.7512 73.5174 38.0718 73.9054L37.9624 74.5238C35.168 74.0509 33.0903 72.5656 31.7295 70.0678Z" fill="#0D131A"/>
<path d="M31.0005 41.3859L31.3104 41.3495C31.3954 41.8709 31.7052 42.9743 32.2398 44.6597C32.8959 46.6967 33.5156 48.3033 34.0988 49.4794L33.3516 48.9884C32.7927 47.8728 32.2581 46.3875 31.7478 44.5324C31.359 43.1622 31.1099 42.1134 31.0005 41.3859Z" fill="#0D131A"/>
<path d="M37.0694 23.1255L36.5045 23.3983C35.3745 21.1673 33.2847 18.3907 30.2351 15.0684C26.1406 10.6306 22.5199 8.15104 19.3731 7.62966C17.344 7.30229 15.6005 7.8661 14.1425 9.32111C12.5509 10.8974 11.749 13.3891 11.7368 16.7962C11.7368 18.7847 11.992 20.8763 12.5023 23.071C12.5387 23.2165 12.4233 23.2346 12.156 23.1255C11.8765 23.0043 11.7186 22.877 11.6821 22.7436C11.1475 20.5004 10.8802 18.3664 10.8802 16.3415C10.8802 12.801 11.7429 10.1699 13.4682 8.44811C14.9262 6.9931 16.858 6.45959 19.2637 6.84759C22.5685 7.3811 26.335 9.93343 30.5631 14.5046C33.7343 17.9117 35.903 20.7854 37.0694 23.1255Z" fill="#0D131A"/>
<path d="M21.56 15.1412L21.2502 15.3958L13.8145 9.21199L14.0149 8.97556L21.56 15.1412Z" fill="#0D131A"/>
<path d="M11.1719 16.1233L11.427 15.9414L16.6029 20.2882L16.3295 20.5611L11.1719 16.1233Z" fill="#0D131A"/>
<path d="M19.6829 22.8163L19.938 22.5071L28.1939 28.6364L28.0116 28.891L19.6829 22.8163Z" fill="#0D131A"/>
<path d="M31.5838 16.3234L31.7296 16.5416L26.4079 16.869L26.3532 16.5052L31.5838 16.3234Z" fill="#0D131A"/>
<path d="M20.6852 23.3438L21.1226 23.6712L22.1797 30.0186L21.8152 29.855L20.6852 23.3438Z" fill="#0D131A"/>
<path d="M41.9537 52.7714L42.7738 50.0432L43.0837 50.1342L42.2271 52.9714L42.1906 52.9896C35.1194 58.4095 31.0917 61.3317 30.1075 61.756L30.1622 61.174C31.1099 60.7739 35.0404 57.973 41.9537 52.7714Z" fill="#0D131A"/>
<path d="M35.9395 57.5366L36.1764 57.2819L37.2153 59.8464L36.9237 60.2465L35.9395 57.5366Z" fill="#0D131A"/>
<path d="M33.5703 71.2864C34.0441 70.28 34.6759 69.0554 35.4656 67.6125C36.6442 65.4785 37.4157 64.3205 37.7802 64.1387L38.3452 63.7385C38.0293 64.0174 37.3793 65.0602 36.3951 66.8668C35.5932 68.3461 34.7366 70.0011 33.8254 71.832L33.5703 71.2864Z" fill="#0D131A"/>
<path d="M69.3822 69.5949C68.4709 68.8916 67.6144 68.1278 66.8125 67.3033L65.8466 66.2302L65.9741 65.5209L66.9583 66.5576C67.7723 67.3578 68.635 68.0975 69.5462 68.7765C72.4379 70.9226 75.2749 72.0684 78.0572 72.2139L78.0026 72.6686L78.039 73.1233C75.1473 73.0021 72.2617 71.8259 69.3822 69.5949Z" fill="#0D131A"/>
<path d="M87.5888 42.0589L88.1174 41.6951C89.4539 43.6351 90.602 46.2299 91.5619 49.4794C92.8255 53.7717 93.1231 57.6153 92.4549 61.0104C92.0418 63.0959 91.2034 64.9813 89.9399 66.6667C88.7978 68.1702 87.2608 69.5828 85.329 70.9044C84.6486 71.3531 84.0228 71.7108 83.4518 71.9775L83.142 71.2318C83.6887 70.9893 84.2112 70.6983 84.7093 70.3588C88.2935 68.055 90.5109 64.7873 91.3614 60.5557C92.0296 57.2091 91.817 53.511 90.7235 49.4612C89.873 46.3208 88.8281 43.8534 87.5888 42.0589Z" fill="#0D131A"/>
<path d="M71.478 51.1163L71.6785 50.8435C73.7804 51.7407 77.2735 52.6804 82.1578 53.6626C86.7869 54.5841 90.031 55.0448 91.8899 55.0448V55.354C89.7758 55.354 86.6047 54.9599 82.3765 54.1718C77.5287 53.2624 73.8959 52.2439 71.478 51.1163Z" fill="#0D131A"/>
<path d="M82.6499 53.899H82.978C83.0387 54.9902 82.7896 56.5362 82.2307 58.5368C81.6233 60.6951 80.9186 62.332 80.1167 63.4475L79.8615 63.2656C80.5905 62.2592 81.2648 60.5253 81.8845 58.064C82.3948 56.0391 82.6499 54.6507 82.6499 53.899Z" fill="#0D131A"/>
<path d="M77.2007 61.9743C78.0026 62.2411 78.8956 62.6291 79.8797 63.1383L81.7387 64.1204C82.1396 64.3023 82.3644 64.4418 82.413 64.5388L82.6864 65.4663L84.3448 70.9772L84.035 71.0681L82.012 64.8116C79.9344 63.5263 78.2942 62.6776 77.0913 62.2653L77.2007 61.9743Z" fill="#0D131A"/>
<path d="M63.6049 45.3508C65.3423 45.6903 67.3896 45.8176 69.7467 45.7328L69.291 46.4239L64.3703 46.1147L63.6049 45.3508Z" fill="#0D131A"/>
<path d="M85.6753 2.22795C85.7846 2.17945 85.7117 2.33708 85.4566 2.70083L84.9098 3.30102L83.9621 3.68296C81.119 4.87122 78.1241 6.77486 74.9772 9.39388C71.9884 11.8795 69.1635 14.7471 66.5027 17.9966C63.8297 21.2583 61.6488 24.5078 59.9599 27.7452C58.1739 31.1523 57.1229 34.1836 56.807 36.839L56.1874 36.7663C56.4911 34.123 57.5117 31.025 59.2492 27.4724C61.0352 23.8106 63.2647 20.3307 65.9377 17.0327C68.6471 13.6983 71.5874 10.7943 74.7585 8.32081C77.7231 6.01704 80.6938 4.24071 83.6705 2.99183L85.6753 2.22795Z" fill="#0D131A"/>
<path d="M98.7789 15.4685C98.4144 8.83613 96.8957 4.68328 94.2227 3.01002C92.5096 1.95514 90.2558 1.77933 87.4613 2.48258C87.4127 2.49471 87.3762 2.37345 87.3519 2.11883C87.3398 1.85208 87.358 1.71264 87.4066 1.70051C90.5413 0.900256 92.9956 1.05182 94.7695 2.1552C96.2396 3.07671 97.3756 4.56809 98.1775 6.62936C98.9794 8.727 99.4776 11.5097 99.672 14.9775C99.8664 18.4938 99.4411 22.0525 98.3962 25.6536C97.6065 28.3454 96.5191 30.9038 95.134 33.3288C93.7853 35.6932 92.3881 37.712 90.9422 39.3853C89.3263 41.2525 87.7832 42.5257 86.3131 43.2047C84.8673 43.8716 83.0509 44.4657 80.8639 44.9871C78.6161 45.5327 76.2894 45.9268 73.8837 46.1693V45.3872C76.1436 45.0841 78.3731 44.6415 80.5723 44.0595C82.6378 43.4896 84.3873 42.8773 85.821 42.2225C89.1015 40.7069 92.0661 37.5483 94.7148 32.7468C97.7523 27.2541 99.107 21.4947 98.7789 15.4685Z" fill="#0D131A"/>
<path d="M77.6745 14.8683L77.6927 15.1775L67.9059 15.614L68.3433 15.2867L77.6745 14.8683Z" fill="#0D131A"/>
<path d="M94.7512 5.35622L96.2457 4.51959L96.4097 4.79241L94.897 5.62904C90.9483 7.79943 88.3482 9.29688 87.0968 10.1214C86.951 10.2184 86.8841 10.1699 86.8963 9.97588C86.9206 9.79401 86.9813 9.66669 87.0785 9.59394C87.8561 9.04831 89.1197 8.31474 90.8693 7.39324L94.7512 5.35622Z" fill="#0D131A"/>
<path d="M92.8558 18.4149C95.3223 16.9235 97.3817 15.8808 99.0341 15.2867L99.1434 15.5958C97.6247 16.1293 95.5349 17.2327 92.8741 18.906C89.9702 20.7126 87.5949 22.4647 85.7481 24.1622C85.6023 24.2835 85.5234 24.2713 85.5112 24.1258C85.4869 23.9803 85.5537 23.8348 85.7117 23.6893C87.5585 21.9312 89.9399 20.1731 92.8558 18.4149Z" fill="#0D131A"/>
<path d="M91.1609 29.6549C93.9675 28.212 96.033 27.3693 97.3574 27.1268L97.4303 27.436C96.3732 27.6785 94.3989 28.5151 91.5072 29.9459C88.2388 31.5828 85.8149 33.056 84.2354 34.3655L84.035 34.3473C84.035 34.226 84.0957 34.1169 84.2172 34.0199C85.821 32.6377 88.1356 31.1826 91.1609 29.6549Z" fill="#0D131A"/>
<path d="M89.8123 20.5247L90.1403 20.5065L91.0515 29.9641L90.5048 30.2369L89.8123 20.5247Z" fill="#0D131A"/>
<path d="M69.528 27.9271C69.6373 27.8664 69.7042 27.8968 69.7285 28.018C69.7406 28.1393 69.6799 28.2363 69.5462 28.309C67.7237 29.3881 65.64 30.7947 63.2951 32.5285C60.938 34.2503 58.9211 35.8508 57.2444 37.3301L57.0257 37.1118C61.6427 32.9893 65.8101 29.9277 69.528 27.9271Z" fill="#0D131A"/>
<path d="M63.5867 45.369L69.0724 38.585L69.5462 38.967L63.8236 45.5691L63.5867 45.369Z" fill="#0D131A"/>
<path d="M80.1895 44.5687L81.3559 39.9309L82.012 39.1852L80.4811 44.6415L80.1895 44.5687Z" fill="#0D131A"/>
<path d="M29.4332 66.012C29.251 66.3151 28.7224 66.7031 27.8476 67.176C26.8149 67.7459 26.2135 68.2248 26.0434 68.6128C25.934 68.8553 25.7761 69.6131 25.5695 70.8863C25.2415 72.7899 24.9499 74.2328 24.6947 75.2149C24.2209 77.0579 23.6316 78.5796 22.9269 79.78C22.1493 81.1138 21.5418 82.5324 21.1044 84.0359C20.7035 85.4303 20.503 86.6974 20.503 87.8371C20.503 88.6738 20.6184 89.3528 20.8493 89.8742L21.8334 92.1294C22.1493 92.9782 22.3073 93.7057 22.3073 94.3119C22.3073 94.7727 22.2222 95.1728 22.0521 95.5123C21.7119 96.2641 21.1713 97.1916 20.4301 98.295C19.6647 99.4227 19.0936 100.132 18.717 100.423L14.9991 102.86C12.8364 104.388 11.5485 105.625 11.1354 106.57C10.8195 107.286 10.7648 108.304 10.9714 109.626C11.1779 110.948 11.4088 111.384 11.6639 110.935C12.2714 109.893 13.4682 108.432 15.2542 106.552C17.2833 104.418 18.9296 103.024 20.1932 102.369C21.2502 101.823 22.447 101.314 23.7835 100.841L26.3168 100.023L27.392 99.7137C27.5621 99.653 27.635 99.5318 27.6107 99.3499C27.5743 99.1559 27.392 98.7558 27.064 98.1495C26.7359 97.5554 26.5112 97.1977 26.3897 97.0765C25.8551 96.4944 25.4663 95.967 25.2233 95.4941C24.798 94.6696 24.5854 93.6936 24.5854 92.5659C24.5854 91.9233 24.6522 91.2625 24.7859 90.5835C24.9681 89.5771 25.2658 88.6131 25.6789 87.6916C25.934 87.1218 26.3411 86.37 26.9 85.4364C27.5803 84.2845 28.0542 83.369 28.3215 82.69C28.7589 81.5745 29.014 80.3256 29.0869 78.9434L29.1052 78.1795L28.9958 75.6332L28.9047 73.9418L28.9776 73.1415L29.0869 72.796C29.3421 71.9836 29.4697 71.3046 29.4697 70.759L29.415 70.086L29.3421 69.3403C29.3421 68.1157 29.9617 67.3579 31.201 67.0669C31.8571 66.9335 32.9445 66.4545 34.4633 65.63C36.7232 64.3933 38.7218 62.8837 40.4593 61.1013L40.3317 62.1562C38.2662 64.266 36.2493 65.7877 34.281 66.7213C33.5642 67.0729 32.5861 67.3942 31.3468 67.6852C30.8122 67.8065 30.4477 68.1217 30.2533 68.631C30.0711 69.0918 30.0407 69.6738 30.1622 70.377C30.2473 70.8863 30.223 71.3773 30.0893 71.8502L29.6884 72.9778L29.579 73.3052C29.5304 73.4992 29.5426 74.257 29.6155 75.5787C29.7127 77.0579 29.737 78.3129 29.6884 79.3435C29.6033 80.9319 29.4636 82.1202 29.2692 82.9083C29.0748 83.6358 28.7103 84.4421 28.1757 85.3272L26.6084 87.7462C25.9644 88.8132 25.5635 89.7953 25.4055 90.6926C25.1139 92.3052 25.1686 93.6451 25.5695 94.7121C25.8004 95.3304 26.2256 95.9731 26.8453 96.64C27.7565 97.6221 28.279 98.4769 28.4126 99.2044C28.5341 99.8713 28.3276 100.259 27.793 100.368C25.0835 100.963 22.6475 101.817 20.4848 102.933C19.3184 103.527 17.5324 105.249 15.1267 108.098C12.8789 110.729 11.6396 112.045 11.4088 112.045C10.9228 112.045 10.5279 111.402 10.2242 110.117C9.94472 108.917 9.87182 107.777 10.0055 106.698C10.1999 105.146 12.9458 102.909 18.2431 99.9865C19.9563 97.804 21.0376 96.2277 21.4872 95.2577C21.6087 94.9788 21.6694 94.6636 21.6694 94.3119C21.6694 93.7906 21.4872 93.1358 21.1227 92.3477L20.0656 90.2561C19.8105 89.6983 19.6829 88.9345 19.6829 87.9645C19.6829 86.8126 19.9198 85.4788 20.3937 83.9632C20.8797 82.399 21.5418 80.8955 22.3802 79.4526C23.0484 78.325 23.5648 76.8457 23.9293 75.0149L24.6036 70.7771C24.8345 69.407 25.0106 68.6007 25.1321 68.3582C25.2779 68.0308 25.6242 67.6974 26.171 67.3579L27.556 66.6304C28.3215 66.2181 28.771 65.8968 28.9047 65.6664L29.1598 65.0662C29.3907 64.3993 29.5729 63.981 29.7066 63.8113C30.0954 63.302 30.7879 62.8655 31.7842 62.5018C33.3637 61.944 35.4839 60.6527 38.1447 58.6278C41.571 56.0088 44.0496 53.3473 45.5805 50.6434L46.1272 50.9526C44.6085 53.6323 42.2028 56.2998 38.9102 58.9552C36.1764 61.1619 33.9591 62.5624 32.2581 63.1565C31.359 63.4839 30.7211 63.8416 30.3445 64.2296C30.1136 64.46 29.9192 64.8055 29.7613 65.2663L29.4332 66.012Z" fill="#0D131A"/>
<path d="M29.0505 46.7877C28.3458 46.1208 27.6715 45.3326 27.0275 44.4233L27.5196 44.0413C29.172 46.3087 30.715 47.6667 32.1487 48.1153C33.2665 48.4791 34.0623 49.0126 34.5362 49.7159C34.8885 50.2251 35.1376 51.0011 35.2834 52.0439C35.976 50.3706 37.2638 48.3821 39.1471 46.0783C40.2163 44.7809 41.2369 43.6473 42.2089 42.6772L42.6463 43.1319C41.6986 44.1141 40.5808 45.4236 39.2929 47.0605C37.2638 49.631 36.0428 51.6134 35.6297 53.0078C35.4596 53.5898 35.2834 53.8141 35.1012 53.6808L34.8278 53.3898L34.7549 52.7896C34.7549 52.1833 34.5787 51.5225 34.2264 50.8071C33.7161 49.7401 32.9567 49.0429 31.9482 48.7155C31.0249 48.4245 30.0589 47.7819 29.0505 46.7877Z" fill="#0D131A"/>
<path d="M29.1599 51.3164C27.4103 49.243 26.0738 47.4485 25.1504 45.9328L24.9135 45.4963L25.4784 45.2417L25.6971 45.6055C26.5476 46.9877 27.8537 48.6973 29.6155 50.7344C31.5716 52.9654 33.0175 54.3052 33.953 54.7538L35.6115 55.4631L36.705 55.5359C36.9844 55.4268 37.2092 55.1479 37.3793 54.6993L37.4522 54.5901C38.3877 53.5959 39.299 52.4743 40.1859 51.2254C41.7776 48.9823 42.6463 47.1453 42.7921 45.7146L43.1566 46.2784C42.9136 48.6064 41.1761 51.5104 37.9443 54.9903L37.598 55.7541C37.4765 55.9724 37.3246 56.1179 37.1424 56.1906C36.3648 56.4938 35.1862 56.2755 33.6067 55.5359C32.6226 55.0751 31.1403 53.6686 29.1599 51.3164Z" fill="#0D131A"/>
<path d="M25.77 33.0196L16.858 26.7267L17.2225 26.1811L25.8429 32.3103L25.77 33.0196Z" fill="#0D131A"/>
<path d="M0.0182229 15.9778C0.0303729 15.6262 0.133647 15.3776 0.328046 15.2321C0.814043 14.8562 1.51266 14.9957 2.42391 15.6504L13.4682 23.5075L12.9579 23.9622L2.22344 16.3779C1.84679 16.1112 1.52481 15.9414 1.25752 15.8687C1.06312 15.8081 0.923393 15.8081 0.838343 15.8687C0.692544 15.9657 0.698619 16.2749 0.856568 16.7963C1.06312 17.4146 3.59638 22.3859 8.45635 31.7101C13.3042 41.0585 15.9103 45.9753 16.2748 46.4603C16.5421 46.824 17.1375 47.0362 18.0609 47.0968C18.9843 47.1696 19.938 47.0665 20.9222 46.7877C23.6195 46.1329 25.7639 44.9507 27.3556 43.2411C28.2061 42.3196 28.7893 41.4041 29.1052 40.4947L29.6884 40.6948C29.2388 42.0649 28.7103 43.1198 28.1028 43.8594C26.6083 45.654 24.3242 46.8604 21.2502 47.4788C20.2053 47.7698 19.1422 47.8668 18.0609 47.7698C16.9188 47.6607 16.1594 47.3515 15.7828 46.8422C15.2846 46.1753 10.1209 36.2934 0.291596 17.1964C0.0971975 16.7599 0.006073 16.3537 0.0182229 15.9778Z" fill="#0D131A"/>
<path d="M16.0561 46.4603C17.5506 46.6058 19.3609 46.1814 21.4872 45.1871C24.3545 43.8534 26.5172 41.8467 27.9752 39.167L28.1939 39.6217C26.7967 42.4469 24.6158 44.4899 21.6512 45.7509C19.5371 46.6603 17.6539 47.0301 16.0015 46.8604L16.0561 46.4603Z" fill="#0D131A"/>
<path d="M46.9838 51.6437L47.3847 51.7165L47.7128 51.862C45.1127 53.9111 42.865 56.9485 40.9696 60.974C38.9162 65.339 37.9685 69.5343 38.1265 73.5598C38.2966 77.7672 39.7303 81.0592 42.4276 83.4357L42.1542 84.5452C40.7084 83.2478 39.5663 81.6655 38.7279 79.7982C37.8774 77.9067 37.4096 75.8697 37.3246 73.6871C37.1667 69.6737 38.1265 65.4542 40.2041 61.0286C42.0995 56.9667 44.3594 53.8384 46.9838 51.6437Z" fill="#0D131A"/>
<path d="M64.0058 58.6824L64.7348 58.9552C66.7882 63.9022 67.1527 68.7219 65.8283 73.4144C64.6741 77.549 62.4506 80.9501 59.158 83.6176C56.5701 85.7395 53.8424 86.9581 50.975 87.2733L51.376 86.7823L51.704 86.2003C54.1219 85.8244 56.4121 84.7574 58.5748 82.9992C61.7459 80.4166 63.9086 77.0579 65.0629 72.9233C66.3629 68.2309 66.0106 63.4839 64.0058 58.6824Z" fill="#0D131A"/>
<path d="M60.2151 56.6817C62.8516 58.5126 64.7956 61.1741 66.047 64.6661L65.6643 64.8116C64.4372 61.4044 62.5418 58.8097 59.9782 57.0273C58.2043 55.7784 56.2117 54.9842 54.0004 54.6447C51.7162 54.2931 49.4624 54.4507 47.239 55.1176C45.0277 55.7723 43.4057 56.7787 42.3729 58.1367L42.0449 57.8821C43.1262 56.4513 44.8029 55.3965 47.0749 54.7175C49.347 54.0263 51.6798 53.8687 54.0733 54.2446C56.3332 54.5841 58.3804 55.3965 60.2151 56.6817Z" fill="#0D131A"/>
<path d="M61.4361 63.6475C63.6231 65.9149 65.0143 68.8007 65.6096 72.3049L65.2087 72.3776C64.6255 68.9705 63.2708 66.1574 61.1445 63.9385C59.0061 61.7197 56.2906 60.2889 52.998 59.6463C50.3129 59.137 47.6824 59.2583 45.1066 60.01C42.543 60.7375 40.7995 61.8591 39.8761 63.3747L39.712 62.9746C40.684 61.3983 42.4579 60.2525 45.0337 59.5371C47.6216 58.8218 50.3068 58.7248 53.0891 59.2461C56.4668 59.9009 59.2491 61.368 61.4361 63.6475Z" fill="#0D131A"/>
<path d="M37.9442 68.922C39.1835 66.8971 41.1032 65.4663 43.7033 64.6297C46.3034 63.781 49.031 63.7082 51.8863 64.4115C55.2032 65.2117 57.8701 66.8304 59.887 69.2676C61.9039 71.6926 63.0399 74.6572 63.295 78.1613L62.8759 78.1977C62.6329 74.7905 61.5333 71.8987 59.5772 69.5222C57.6089 67.1578 55.0149 65.5876 51.7951 64.8116C49.025 64.1326 46.3763 64.1993 43.8491 65.0117C41.334 65.8119 39.4812 67.1881 38.2905 69.1402L37.9442 68.922Z" fill="#0D131A"/>
<path d="M42.628 71.9411C44.6813 71.153 47.0081 71.056 49.6081 71.6501C52.2082 72.2443 54.3223 73.3598 55.9504 74.9967C57.1897 76.2334 57.9673 77.6339 58.2832 79.198C58.5991 80.7743 58.4229 82.4112 57.7547 84.1087L57.3719 83.945C58.0037 82.3324 58.1738 80.7803 57.8822 79.289C57.5785 77.7976 56.8373 76.4577 55.6588 75.2695C54.0793 73.6932 52.0321 72.6202 49.517 72.0503C47.002 71.4683 44.7603 71.5592 42.792 72.3231C41.6864 72.7475 40.7934 73.3537 40.113 74.1419C39.2139 75.1846 38.7279 76.5002 38.655 78.0886L38.254 78.0704C38.3148 76.6154 38.7279 75.3604 39.4933 74.3055C40.2466 73.2507 41.2915 72.4625 42.628 71.9411Z" fill="#0D131A"/>
<path d="M46.7286 77.7066C47.5548 77.6702 48.3871 77.7976 49.2254 78.0886C50.8778 78.6706 52.0806 79.58 52.8339 80.8167C53.5751 82.005 53.6784 83.1447 53.1438 84.236C51.1026 88.407 48.6847 92.1961 45.8903 95.6033C43.436 98.5739 41.8808 99.9804 41.2247 99.8228C40.6172 99.6773 40.5625 96.6218 41.0607 90.6562C41.5224 85.0423 41.9476 81.6715 42.3364 80.5439C42.4943 80.0953 42.7677 79.6588 43.1565 79.2344C43.5453 78.8221 43.9766 78.4948 44.4505 78.2523C45.143 77.9128 45.9024 77.7309 46.7286 77.7066ZM46.7651 78.3432C46.0118 78.3674 45.3314 78.5251 44.7239 78.8161C43.922 79.2162 43.3874 79.7921 43.1201 80.5439C42.792 81.526 42.3729 84.824 41.8626 90.438C41.3644 96.1125 41.2551 98.9922 41.5345 99.0771C42.0934 99.1862 43.9949 96.9249 47.2389 92.2931C50.3857 87.7947 52.1596 84.9514 52.5606 83.7631C52.6578 83.5085 52.7064 83.2114 52.7064 82.8719C52.7064 82.0232 52.3662 81.2108 51.6858 80.4348C51.0054 79.6345 50.1184 79.0525 49.0249 78.6888C48.2838 78.4341 47.5305 78.3189 46.7651 78.3432Z" fill="#0D131A"/>
<path d="M59.6683 39.9127C59.7898 40.2158 59.887 40.6281 59.9599 41.1495L60.1239 42.3862C59.8566 42.1195 59.4982 41.883 59.0487 41.6769L58.4837 40.1673C57.3902 37.7059 55.6528 36.0266 53.2714 35.1294C52.5181 34.8384 51.7405 34.6504 50.9386 34.5655L49.8451 34.511L50.1185 33.838H51.2484C52.1597 33.8987 53.0405 34.0745 53.891 34.3655C56.6005 35.2627 58.5262 37.1118 59.6683 39.9127Z" fill="#0D131A"/>
<path d="M59.2856 46.8604L59.8505 47.406C59.6197 48.0729 59.3524 48.6549 59.0486 49.152L58.5566 48.7337C58.8725 48.176 59.1155 47.5515 59.2856 46.8604Z" fill="#0D131A"/>
<path d="M51.376 52.5168C53.9639 52.4804 55.999 51.7044 57.4813 50.1887L57.8458 50.7707C56.3514 52.3349 54.3466 53.1351 51.8316 53.1715C49.839 53.1836 48.0651 52.6865 46.5099 51.6801C45.2828 50.892 44.3655 49.9341 43.758 48.8065C43.0047 47.4242 42.5369 46.1571 42.3547 45.0053C42.1481 43.7806 42.2878 42.8106 42.7738 42.0952L43.7033 41.3859C43.2902 42.0043 43.114 42.9258 43.1748 44.1504C43.2355 45.5206 43.6 46.824 44.2683 48.0608C44.9001 49.2369 45.6898 50.1948 46.6375 50.9344C47.9983 52.0014 49.5778 52.5289 51.376 52.5168Z" fill="#0D131A"/>
<path d="M60.9076 54.7902C63.0703 57.5305 65.2087 59.5069 67.3227 60.7194L71.6603 63.2474C73.8716 64.5448 75.0805 65.1935 75.287 65.1935L75.6333 65.0662C75.9856 64.8965 76.2712 64.8176 76.4899 64.8298C76.8787 64.8419 77.2128 65.0844 77.4922 65.5573C77.9904 66.3939 78.367 67.1942 78.6222 67.958C79.0231 69.1463 79.0596 70.0981 78.7315 70.8135C78.4399 71.4319 78.361 72.2806 78.4946 73.3598C78.5918 74.1358 78.8227 75.124 79.1872 76.3243C79.3694 76.9549 79.4423 77.7854 79.4059 78.8161L79.1143 81.7261C78.9199 83.3145 78.8348 84.3693 78.8591 84.8907C78.9199 85.982 79.7582 88.2736 81.3741 91.7656L82.3765 94.0573C82.8625 95.2213 83.0691 96.2944 82.9962 97.2765C82.9111 98.2586 82.5466 99.2286 81.9027 100.187L81.684 100.532C80.6755 102.011 80.226 102.921 80.3353 103.26L80.554 103.46L82.2125 103.624C83.6462 103.6 84.8855 103.727 85.9304 104.006C87.0482 104.309 88.2085 104.867 89.4113 105.679L92.2544 107.898L94.0405 109.317C94.6236 109.729 95.1096 109.959 95.4984 110.008C96.5798 110.153 97.8312 111.093 99.2528 112.827C99.2163 111.493 99.1009 110.311 98.9065 109.28C98.6756 108.019 98.3537 107.262 97.9406 107.007C97.8191 106.922 97.2845 106.686 96.3368 106.298C93.4937 105.194 91.3067 104.085 89.7758 102.969C87.0421 100.981 85.5173 98.6103 85.2014 95.8579L85.1467 95.0758C85.1467 94.5665 85.2621 93.9785 85.493 93.3116L85.8757 91.9839C85.9972 91.3413 86.0579 90.5774 86.0579 89.6923L85.9668 87.6916C85.7238 84.2117 85.256 80.7621 84.5635 77.3429C83.7009 73.1597 82.7167 70.3042 81.6111 68.7765C80.6026 67.4063 79.7643 66.3697 79.096 65.6664L77.7474 64.0477C77.2371 63.3444 76.9819 62.7261 76.9819 62.1926L77.0002 61.7924C77.0002 61.6712 76.9576 61.5681 76.8726 61.4832L76.2894 61.0286C75.9735 60.8345 74.959 60.3374 73.2458 59.5372C70.8644 58.4217 69.0845 57.5486 67.9059 56.9181C65.7068 55.7541 64.0362 54.6932 62.8941 53.7353C60.8165 52.0014 58.9211 50.0008 57.2079 47.7334C57.1107 47.6121 57.0014 47.5758 56.8799 47.6243C56.6976 47.7213 56.6551 47.8728 56.7523 48.079C57.6879 50.213 59.0729 52.4501 60.9076 54.7902ZM67.9059 56.2816C69.1938 56.997 70.8462 57.8215 72.8631 58.7551L75.0683 59.7009C75.9067 60.0525 76.4291 60.295 76.6357 60.4284C77.0852 60.7072 77.3768 60.9801 77.5105 61.2468C77.6077 61.4166 77.6441 61.6591 77.6198 61.9743C77.6077 62.2289 77.6259 62.4411 77.6745 62.6109C77.7595 62.9019 77.9539 63.2535 78.2577 63.6658L79.5517 65.2299L80.5905 66.2302C81.1737 66.8243 81.7812 67.5579 82.413 68.4309C83.628 70.0799 84.6668 73.1173 85.5294 77.5429C86.1734 80.8409 86.6229 84.2057 86.8781 87.6371C86.9874 89.2012 86.9327 90.5168 86.714 91.5838L86.0944 93.5117L85.821 94.4756C85.7603 94.8394 85.7603 95.2759 85.821 95.7851C86.1248 98.3678 87.601 100.556 90.2497 102.351C91.489 103.187 93.6031 104.188 96.5919 105.352C97.2359 105.594 97.8555 105.897 98.4509 106.261C98.864 106.528 99.2224 107.28 99.5261 108.516C99.842 109.802 99.9818 111.172 99.9453 112.627C99.9332 113.366 99.8481 113.761 99.6902 113.809C99.5444 113.858 99.2042 113.615 98.6696 113.082C98.1471 112.56 97.5518 112.081 96.8835 111.645C96.1302 111.148 95.5167 110.869 95.0428 110.808C94.6054 110.76 94.1133 110.481 93.5666 109.971L91.8535 108.371L89.1015 106.225C87.9351 105.449 86.8234 104.909 85.7663 104.606L83.1784 104.315L81.0096 104.333C80.5844 104.345 80.2199 104.279 79.9161 104.133C79.6489 104.012 79.4909 103.879 79.4423 103.733C79.3451 103.394 79.4909 102.872 79.8797 102.169L81.1554 100.168L81.3924 99.841C81.9756 98.9679 82.2975 98.0889 82.3583 97.2037C82.419 96.3307 82.2307 95.3607 81.7933 94.2937L80.7909 92.0203L79.0596 88.31C78.4521 86.8914 78.1301 85.8304 78.0937 85.1272C78.0815 84.7634 78.124 84.2238 78.2212 83.5085L78.4946 81.6533C78.7741 79.3617 78.7315 77.6035 78.367 76.3789C77.6016 73.8569 77.5287 71.9169 78.1483 70.5589C78.3913 70.0496 78.3731 69.3221 78.0937 68.3764C77.8628 67.5882 77.4862 66.7577 76.9637 65.8847C76.7936 65.6179 76.6296 65.4785 76.4716 65.4663C76.3623 65.4542 76.174 65.5088 75.9067 65.63L75.4146 65.8119C74.8679 65.921 73.5131 65.333 71.3504 64.0477L66.6302 61.0831C64.3825 59.81 62.2016 57.7669 60.0875 54.9539C58.4594 52.7714 57.1533 50.5585 56.1691 48.3154C56.0598 48.0729 56.0537 47.8304 56.1509 47.5879C56.2359 47.3696 56.3757 47.206 56.5701 47.0968C56.7523 46.9877 56.9406 46.9513 57.135 46.9877C57.3537 47.012 57.5421 47.1332 57.7 47.3515C59.3767 49.5582 61.2417 51.5225 63.295 53.2442C64.4371 54.2021 65.9741 55.2146 67.9059 56.2816Z" fill="#0D131A"/>
<path d="M73.9566 41.495L74.5763 41.586C74.4426 42.0952 74.2968 43.1562 74.1389 44.7688C73.9931 46.2966 73.9141 47.4788 73.902 48.3154C73.8898 48.9338 73.4949 49.6855 72.7173 50.5707L71.4598 51.7529C71.4112 51.8014 71.3262 51.9832 71.2047 52.2985C71.071 52.7714 70.8888 53.0321 70.6579 53.0806C70.3785 53.1412 70.0261 52.9472 69.6009 52.4986C68.5195 51.3346 66.6484 50.3342 63.9876 49.4976L62.2198 49.0065L60.5796 48.6792C60.0814 48.5337 59.6683 48.2245 59.3403 47.7516C56.6794 43.9322 54.7354 41.592 53.5083 40.7312C53.2288 40.5372 53.0527 40.3189 52.9798 40.0764C52.919 39.8582 52.9494 39.6581 53.0709 39.4762C53.3382 39.1003 53.9639 39.0033 54.9481 39.1852C56.0537 39.3913 57.2019 39.8885 58.3926 40.6766C59.3524 41.3192 61.0777 42.6591 63.5684 44.6961L68.3798 48.6246C68.3798 47.5212 68.5924 46.6906 69.0177 46.1329C69.3336 45.7449 69.9472 44.4778 70.8584 42.3317L71.7514 40.331L72.2799 40.6766C72.1098 41.0282 71.8304 41.6648 71.4416 42.5863L70.5121 44.8779C70.1841 45.7024 69.9229 46.236 69.7285 46.4785C69.4369 46.8422 69.2546 47.2787 69.1817 47.788L69.0359 49.2612C68.9752 49.7219 68.8719 49.9099 68.7261 49.825L68.5256 49.5522C62.9488 45.1265 59.237 42.3014 57.3902 41.0767C56.3332 40.3735 55.4219 39.937 54.6565 39.7672C54.0611 39.6338 53.7088 39.6581 53.5994 39.84C53.5751 39.8642 53.5873 39.9127 53.6359 39.9855L53.8728 40.2219C54.7233 40.816 55.835 41.9437 57.2079 43.6048C58.1799 44.7809 59.0487 45.9207 59.8141 47.0241C60.1057 47.4485 60.4581 47.7576 60.8712 47.9517C61.1385 48.085 61.6366 48.2366 62.3656 48.4063L64.1699 48.8974C66.9765 49.7825 68.9387 50.8374 70.0565 52.0621L70.4939 52.444L70.6032 52.1166C70.7247 51.6801 70.8766 51.3952 71.0589 51.2618C71.5813 50.8496 72.0552 50.3827 72.4804 49.8614C73.0029 49.2187 73.2641 48.6973 73.2641 48.2972C73.2762 47.5091 73.3491 46.3815 73.4828 44.9143C73.6407 43.2653 73.7987 42.1255 73.9566 41.495Z" fill="#0D131A"/>
<path d="M87.0968 1.04575C86.7323 0.827498 83.549 5.61691 77.5469 15.414C71.4963 25.2717 68.3252 30.9644 68.0336 32.4922C67.9485 32.9165 67.906 33.3712 67.906 33.8562C67.906 35.3112 68.3008 36.6208 69.0906 37.7848C69.9411 39.0337 71.1561 39.937 72.7356 40.4947C74.6917 41.1737 76.7694 41.1859 78.9685 40.5311C81.1312 39.8763 82.4373 38.87 82.8868 37.512C83.713 35.0384 84.7458 28.3636 85.9851 17.4874C87.2001 6.67179 87.5706 1.19125 87.0968 1.04575ZM87.3519 0.481933C87.923 0.651684 87.8379 5.19253 87.0968 14.1045C86.3192 23.5014 85.2561 31.213 83.9074 37.2391C83.5672 38.8033 82.1518 40.034 79.661 40.9312C77.3161 41.7679 75.2081 41.9558 73.337 41.495C70.9556 40.9009 69.2303 39.652 68.1611 37.7484C67.2013 36.0509 66.934 34.2079 67.3592 32.2194C67.906 29.758 71.1682 23.7864 77.146 14.3045C83.1116 4.84697 86.5136 0.239431 87.3519 0.481933Z" fill="#0D131A"/>
<path d="M67.3046 32.9105L67.7055 32.8377C67.8635 33.6622 68.3555 34.5656 69.1817 35.5477C70.1416 36.6996 71.308 37.6029 72.6809 38.2577C74.0174 38.9003 75.4329 39.2216 76.9273 39.2216C78.8956 39.2216 80.9125 38.6638 82.978 37.5483L83.1784 37.9121C81.0158 39.064 78.9563 39.6702 77.0002 39.7309C75.4572 39.7794 74.0235 39.4883 72.6991 38.8578C71.2776 38.1788 70.0261 37.1906 68.9448 35.8933C68.0214 34.7778 67.4747 33.7835 67.3046 32.9105Z" fill="#0D131A"/>
<path d="M32.2945 23.8712C34.1535 23.0225 36.3648 22.5981 38.9284 22.5981L38.819 23.3256C36.4255 23.3741 34.4025 23.7682 32.7502 24.5078C32.3614 24.6775 32.0576 24.8291 31.8389 24.9625L31.4197 24.3077L32.2945 23.8712Z" fill="#0D131A"/>
<path d="M43.5939 23.362V24.0167C43.0593 23.75 42.1542 23.5438 40.8784 23.3983L40.9878 22.7436C42.1542 22.877 43.0229 23.0831 43.5939 23.362Z" fill="#0D131A"/>
<path d="M45.6351 38.8942L46.8744 38.4759C45.4043 40.2098 44.0496 41.6709 42.8103 42.8591C40.5504 45.0053 38.8798 46.0298 37.7984 45.9328C37.2881 45.8843 36.4437 45.4357 35.2652 44.5869C33.9894 43.6776 32.8109 42.6409 31.7295 41.4769V40.8585L31.6202 40.2219C32.7501 41.5678 33.9833 42.75 35.3198 43.7685C36.4741 44.6415 37.2699 45.0962 37.7073 45.1326C38.4484 45.1689 39.7485 44.4111 41.6074 42.8591C43.2112 41.5132 44.5538 40.1916 45.6351 38.8942Z" fill="#0D131A"/>
<path d="M30.2351 25.1262L30.6907 25.7445C29.4393 26.7388 28.5949 28.0059 28.1575 29.5458L28.0481 29.9823L27.4285 29.8368L27.5378 29.3639C28.0603 27.5936 28.9594 26.181 30.2351 25.1262Z" fill="#0D131A"/>
<path d="M27.4102 30.1278C26.6205 30.4673 26.2134 31.4555 26.1891 33.0924C26.1527 34.8141 26.5779 36.4935 27.4649 38.1303C28.0116 39.1246 28.692 39.9249 29.5061 40.5311C30.2715 41.0889 30.8729 41.3011 31.3103 41.1677C31.3832 41.1677 31.4136 41.0949 31.4015 40.9494C31.3286 39.9309 30.7211 37.8454 29.579 34.6929C28.4247 31.5282 27.7018 30.0065 27.4102 30.1278ZM27.0275 29.6367L27.957 29.6731C28.4308 30.0853 29.2327 31.9223 30.3626 35.1839C31.1888 37.5483 31.6748 39.258 31.8206 40.3129C31.9421 41.1859 31.8328 41.6709 31.4926 41.7679C30.8729 41.9497 30.071 41.7315 29.0869 41.1131C28.0663 40.4705 27.2766 39.6399 26.7177 38.6214C25.8186 36.9845 25.4237 35.2385 25.533 33.3834C25.6302 31.601 26.1284 30.3521 27.0275 29.6367Z" fill="#0D131A"/>
<path d="M45.781 27.1632L45.945 27.7816C44.5842 28.1453 43.4907 29.376 42.6645 31.4736C41.8505 33.5592 41.6561 35.6204 42.0813 37.6574C42.2636 38.5426 42.622 39.0761 43.1566 39.258C43.7033 39.452 44.4141 39.355 45.2889 38.967C46.1758 38.5789 47.1053 37.9484 48.0773 37.0754C48.6605 36.5662 49.1222 35.8387 49.4624 34.8929C49.7783 34.0199 49.9423 33.1045 49.9545 32.1466C49.9788 30.3521 49.353 28.8728 48.0773 27.7088L48.4965 27.2359C49.2255 27.8907 49.7844 28.6303 50.1732 29.4548C50.5863 30.3278 50.7867 31.2372 50.7746 32.183C50.7503 33.3591 50.5863 34.3594 50.2825 35.1839C49.9545 36.0691 49.4199 36.8875 48.6787 37.6393C47.646 38.6699 46.5707 39.3731 45.4529 39.749L42.9561 39.8581C42.2028 39.5914 41.7047 38.9003 41.4617 37.7848C41 35.5659 41.2187 33.3409 42.1178 31.1099C43.029 28.891 44.2501 27.5754 45.781 27.1632Z" fill="#0D131A"/>
<path d="M31.6202 27.2541C31.7782 27.5694 31.9483 27.8301 32.1305 28.0362L32.4585 28.2726C32.738 28.1756 32.7258 27.727 32.4221 26.9268C32.0576 25.981 30.9094 24.0531 28.9776 21.1431C27.3131 18.6453 26.0798 16.8872 25.2779 15.8687C24.7069 15.1412 24.1541 14.7471 23.6195 14.6865C23.0727 14.6259 22.4106 14.8926 21.633 15.4867C20.7703 16.1294 18.8628 18.0633 15.9103 21.2886C12.9458 24.5017 11.2751 26.466 10.8985 27.1814C10.7041 27.5451 10.6676 28.0301 10.7891 28.6364C10.9106 29.2427 11.1476 29.7701 11.4999 30.2187C11.913 30.728 12.3261 30.922 12.7392 30.8007C13.1645 30.6916 13.5654 30.4188 13.9421 29.9823L15.0355 28.4363C15.5823 27.5633 16.0136 26.9207 16.3295 26.5084C17.666 24.7261 19.0997 22.9861 20.6306 21.2886C21.9549 19.8093 22.9634 18.8454 23.6559 18.3968C24.1541 18.0694 24.5429 17.9966 24.8223 18.1785C25.3569 18.5301 26.5172 19.9185 28.3033 22.3435C30.0286 24.6594 31.1342 26.2963 31.6202 27.2541ZM33.0053 26.7085C33.2118 27.2663 33.2847 27.721 33.224 28.0726C33.1632 28.3878 32.9992 28.594 32.7319 28.691C32.2338 28.8728 31.7599 28.497 31.3104 27.5633C30.873 26.6661 29.7309 25.0352 27.8841 22.6709C26.0738 20.3428 24.9377 19.0212 24.476 18.7059C24.1115 18.6574 23.1092 19.5244 21.4689 21.3068C19.9137 22.9922 18.3707 24.8534 16.8398 26.8904L15.5641 28.7637L14.3612 30.4915C13.8995 31.025 13.4075 31.3645 12.885 31.51C12.1803 31.7162 11.5485 31.4676 10.9896 30.7643C10.5644 30.243 10.2606 29.6185 10.0784 28.891C9.88398 28.0786 9.92043 27.4239 10.1877 26.9268C10.5887 26.1871 12.2897 24.1622 15.2907 20.8521C18.3039 17.5177 20.2479 15.5231 21.1227 14.8684C22.0582 14.1651 22.8662 13.8317 23.5466 13.868C24.2513 13.9165 24.9377 14.3652 25.606 15.2139C26.4565 16.2931 27.7383 18.1179 29.4514 20.6884C31.4562 23.7075 32.6408 25.7142 33.0053 26.7085Z" fill="#0D131A"/>
<path d="M42.1542 11.7401C41.9233 11.3157 41.6986 10.9944 41.4799 10.7761C41.2976 10.5943 41.1579 10.5154 41.0607 10.5397C40.9999 10.5397 40.9331 10.6003 40.8602 10.7216C40.7266 10.9398 40.6172 11.2854 40.5322 11.7583C40.4471 12.2433 40.1251 15.0442 39.5663 20.1609C39.1289 24.429 38.8616 26.8116 38.7644 27.3087C38.7279 27.4663 38.734 27.5997 38.7826 27.7088L38.9466 27.8725C39.1046 27.9089 39.2382 27.7634 39.3476 27.436L40.6233 22.6527L41.4616 19.2334C41.5588 18.8696 41.6439 18.6817 41.7168 18.6696C41.8018 18.6696 41.9173 18.8454 42.0631 19.197C42.5612 20.4095 43.357 22.0767 44.4505 24.1986C45.7627 26.7691 46.5828 28.0847 46.9109 28.1453C47.2632 28.2059 47.6399 27.9998 48.0408 27.5269C48.4053 27.0904 48.6969 26.5448 48.9156 25.8901C49.025 25.5505 49.0796 25.1989 49.0796 24.8352C49.0796 24.2289 48.9095 23.659 48.5694 23.1255C47.7675 21.8403 46.4674 19.5729 44.6692 16.3234L42.1542 11.7401ZM40.9513 9.92131C41.5953 9.82431 42.1663 10.2305 42.6645 11.1399C45.6412 16.6568 47.8282 20.5368 49.2254 22.78C49.8451 23.7621 49.9605 24.8594 49.5717 26.0719C49.3287 26.8237 48.9521 27.5148 48.4418 28.1453C47.9436 28.7758 47.5245 29.0911 47.1843 29.0911C46.7712 29.0911 46.3824 28.8789 46.0179 28.4545C45.4711 27.7876 44.6874 26.4054 43.6669 24.3077C42.9743 22.877 42.3668 21.5432 41.8444 20.3064C41.3584 22.3313 40.7083 24.6472 39.8943 27.2541C39.7728 27.63 39.6149 27.9089 39.4205 28.0908C39.2261 28.2726 39.0256 28.3333 38.819 28.2726C38.6125 28.2241 38.4606 28.0786 38.3634 27.8361C38.2784 27.5936 38.2601 27.2966 38.3087 26.9449L39.0924 19.3607L39.9125 11.6491C40.0948 10.57 40.441 9.99406 40.9513 9.92131Z" fill="#0D131A"/>
<path d="M29.2328 34.2745C29.415 34.8687 29.4697 35.4082 29.3968 35.8932C29.3117 36.3783 29.1234 36.6632 28.8318 36.7481C28.5281 36.8329 28.2122 36.6996 27.8841 36.3479C27.5561 35.9842 27.3009 35.4992 27.1187 34.8929C26.9486 34.2867 26.9 33.7471 26.9729 33.2742C27.0579 32.7892 27.2462 32.5043 27.5378 32.4194C27.8294 32.3345 28.1393 32.474 28.4673 32.8377C28.8075 33.2015 29.0627 33.6804 29.2328 34.2745Z" fill="white"/>
<path d="M43.2659 31.9829C43.5818 31.2918 44.0253 30.7765 44.5963 30.437C45.1552 30.1096 45.6655 30.049 46.1272 30.2551C46.6011 30.4733 46.8927 30.9038 47.002 31.5464C47.0992 32.189 46.9899 32.8559 46.674 33.547C46.3581 34.2382 45.9207 34.7535 45.3618 35.093C44.8029 35.4204 44.2865 35.4749 43.8127 35.2567C43.3388 35.0506 43.0472 34.6262 42.9379 33.9835C42.8407 33.3409 42.95 32.674 43.2659 31.9829Z" fill="white"/>
</g>
<defs>
<clipPath id="clip0_10_4372">
<rect width="100" height="114" fill="white"/>
</clipPath>
</defs>
</svg>
