<svg width="100" height="96" viewBox="0 0 100 96" fill="none" xmlns="http://www.w3.org/2000/svg">
<path d="M45.8125 49.5177C44.8674 48.9944 43.2134 46.8399 40.8506 43.0544C38.8203 39.7921 37.4726 37.4022 36.8075 35.8844C36.1949 34.5237 35.5299 32.6571 34.8123 30.2846C33.9546 27.5632 33.6746 26.0891 33.9721 25.8623C34.4272 25.5308 35.7924 25.3302 38.0677 25.2604L38.8553 22.6175C39.4679 20.8381 39.9842 19.9484 40.4043 19.9484C40.8243 19.9484 43.0734 21.597 47.1514 24.8941L53.1373 29.8398L54.3974 32.378C55.6401 34.4365 57.2416 36.3293 59.2019 38.0564L58.8868 41.6675C58.3442 44.3366 57.2066 46.3427 55.4738 47.686C53.4786 49.2386 51.6846 50.137 50.0919 50.3813C48.6917 50.5906 47.2652 50.3028 45.8125 49.5177Z" fill="#84CABF"/>
<path d="M86.9782 6.23663C91.1263 9.18484 93.2003 12.5081 93.2003 16.2065C93.2003 16.9043 93.0078 17.4799 92.6227 17.9335L91.7564 16.756C90.4787 19.3029 89.8399 21.5446 89.8399 23.481C89.8399 26.3246 90.2862 27.7463 91.1788 27.7463C91.5813 27.7463 91.9489 27.5544 92.2814 27.1707L92.6752 26.5688L93.4104 27.4847C93.8829 28.2871 94.1192 29.1419 94.1192 30.0491C94.1192 30.9737 93.8129 31.7761 93.2003 32.4565L92.2814 33.2154C91.7214 35.7972 89.8486 38.1872 86.6632 40.3853C83.1627 42.7927 79.2684 43.9964 74.9803 43.9964C68.4694 43.9964 62.7986 41.6675 57.968 37.0096C53.2773 32.5088 50.932 27.4323 50.932 21.7801C50.932 15.7965 53.2773 10.8857 57.968 7.04782C62.2736 3.54137 67.2705 1.78815 72.9588 1.78815C78.1395 1.78815 82.8126 3.27097 86.9782 6.23663Z" fill="#84CABF"/>
<path d="M86.3219 41.432C87.162 41.7983 87.9934 42.1995 88.816 42.6357C90.1462 43.3509 91.9752 44.4936 94.303 46.0636H95.9832C97.1209 46.1159 97.7072 46.2642 97.7422 46.5085C97.8297 46.8748 97.6897 47.7645 97.3221 49.1775L98.2935 49.5962C98.9586 49.9102 99.3174 50.1894 99.3699 50.4336C99.4574 50.7999 98.7923 51.6896 97.3746 53.1027C97.8297 53.7656 97.9347 54.3674 97.6897 54.9082C97.4622 55.3967 96.3508 55.9898 94.3555 56.6876C92.0977 57.4552 89.9361 57.839 87.8708 57.839C85.9806 57.839 84.1778 57.5773 82.4626 57.054L80.4411 56.2689C80.7036 54.0709 80.7911 51.8902 80.7036 49.7271C80.6511 48.3838 80.3886 46.9359 79.916 45.3833L79.2072 43.4469L82.5676 42.4002C83.1627 42.1908 84.0816 41.7285 85.3242 41.0133L86.3219 41.432Z" fill="#84CABF"/>
<path d="M39.5379 63.4388C40.4831 63.4388 41.577 63.9884 42.8196 65.0874C44.2723 66.3609 45.4275 68.0269 46.2851 70.0854C48.3329 75.0398 48.998 78.302 48.2804 79.872C48.0179 80.4826 47.3265 81.5381 46.2064 83.0383C44.7362 85.0096 43.7385 86.4052 43.2134 87.2251L39.853 92.0661C38.5753 93.8106 37.8227 94.7265 37.5952 94.8137C37.3151 94.9358 36.09 93.8979 33.9197 91.6998C30.2967 93.1477 28.3977 93.8281 28.2226 93.7408C28.0651 93.6711 27.8813 92.4325 27.6713 90.0251C24.8359 88.5248 23.4007 87.5479 23.3657 87.0943C23.3482 86.8152 23.9695 86.1086 25.2297 84.9747L27.12 83.3523C27.2425 81.9218 27.4788 80.3169 27.8288 78.5375C28.5464 74.9613 29.5178 72.2747 30.743 70.4779C33.9109 65.7852 36.8426 63.4388 39.5379 63.4388Z" fill="#84CABF"/>
<path d="M69.467 75.5806C70.9197 74.6386 72.4862 73.1121 74.1664 71.0013L76.2667 68.0967L78.9971 70.6349C80.7998 72.7632 81.7012 74.9264 81.7012 77.1245C81.7012 78.6771 81.5787 79.9418 81.3337 80.9188L80.9399 81.9131L83.0927 82.986C84.4929 83.7536 85.1492 84.2944 85.0617 84.6084C84.9917 84.9573 84.3091 85.5679 83.0139 86.4401C82.9089 86.5099 82.9876 86.6495 83.2502 86.8588C83.5127 87.0856 83.574 87.2426 83.434 87.3298C81.6312 88.4114 79.1984 89.493 76.1355 90.5746C73.2301 91.6213 71.4186 92.101 70.701 92.0138C70.2459 91.9615 69.3183 91.0543 67.9181 89.2924C66.6754 87.7223 65.9228 86.6495 65.6603 86.0738C65.5027 85.7423 64.3651 84.6782 62.2473 82.8813L59.0969 80.2907C63.665 78.6335 67.1217 77.0634 69.467 75.5806Z" fill="#84CABF"/>
<path d="M1.26013 49.7532C1.26013 45.0082 2.8266 41.0918 5.95953 38.004C8.93494 35.0558 12.5054 33.5817 16.671 33.5817C20.4165 33.5817 23.4094 34.8988 25.6497 37.533C27.9776 40.2544 29.1415 44.0225 29.1415 48.8374L28.6426 53.8877C28.3101 56.7312 28.1438 59.1474 28.1438 61.1361C28.1438 63.3167 28.6339 65.4537 29.614 67.5471C30.0866 68.5764 30.5679 69.3963 31.058 70.0069L29.9028 72.4143L28.6426 75.6591C27.4175 75.6416 25.9298 75.4236 24.1795 75.0049C20.6791 74.1327 17.6161 72.6585 14.9908 70.5826C11.1577 67.5297 7.99856 64.25 5.51322 60.7436C2.67783 56.7312 1.26013 53.0678 1.26013 49.7532Z" fill="#84CABF"/>
<path d="M59.2019 38.0563L61.8798 39.7834C64.0851 41.0918 66.2466 42.1472 68.3644 42.9497C70.4822 43.7521 72.9238 44.0749 75.6892 43.9179L79.2071 43.4468L80.0472 46.1159C80.5898 48.2617 80.8611 50.3027 80.8611 52.2391C80.8611 60.0545 78.1395 66.8145 72.6962 72.519C67.1655 78.3107 60.5058 81.2066 52.7172 81.2066C51.4046 81.2066 50.2494 81.0583 49.2518 80.7617L48.1491 80.2907C48.3416 79.5057 48.3854 78.4416 48.2804 77.0983C48.0529 74.4118 47.169 71.6642 45.6288 68.8555C44.1061 66.0469 42.5221 64.2936 40.8769 63.5958C40.3693 63.3691 39.888 63.2644 39.4329 63.2818L38.8816 63.3603L40.4306 61.9735C41.6382 60.6825 42.7059 59.1561 43.6335 57.3941C44.5786 55.6322 45.2262 53.8266 45.5763 51.9775L45.8125 49.7532L46.5476 50.0934C47.1777 50.3202 47.8428 50.4597 48.5429 50.5121C50.8007 50.6516 53.0235 49.823 55.2113 48.0262C57.0666 46.5084 58.283 44.3889 58.8606 41.6675L59.2019 38.0563Z" fill="#F2E100"/>
<path d="M43.6073 47.4767C44.0448 48.0873 44.8237 48.8374 45.9438 49.7271L45.55 52.1607C45.13 54.0796 44.5174 55.7805 43.7123 57.2633C42.9247 58.7636 41.857 60.2377 40.5093 61.6856L38.7241 63.4127L37.9102 63.7005L36.23 64.4071C35.7574 64.6513 35.1711 65.131 34.471 65.8463L33.5521 66.8668C33.7096 65.8725 33.9197 64.7996 34.1822 63.6482C34.6898 61.3629 35.1798 59.8452 35.6524 59.0951C35.9675 58.6066 36.7113 57.7256 37.884 56.4521C39.0041 55.2135 39.8442 54.1145 40.4043 53.155C41.0344 52.0734 41.4545 50.4162 41.6645 48.1832L41.822 45.1478L43.6073 47.4767Z" fill="#EEEEEF"/>
<path d="M41.6382 48.1047C41.4807 50.5121 41.0694 52.2566 40.4043 53.3382C39.8442 54.2802 38.9253 55.4316 37.6477 56.7923C36.405 58.1007 35.6436 59.0078 35.3636 59.5137C34.7335 60.6302 34.1034 62.9766 33.4733 66.5528L31.058 70.0069C30.5679 69.5359 30.0866 68.7858 29.6141 67.7565C28.6339 65.6805 28.1439 63.2208 28.1439 60.3773C28.1439 53.7133 29.5616 47.5203 32.3969 41.7983C33.8146 38.9373 35.2323 36.748 36.65 35.2303L39.0391 39.8357L41.6645 44.8076L41.6382 48.1047Z" fill="#CF7100"/>
<path d="M47.7816 25.4698L50.6695 23.481L52.2447 29.4996L47.7816 25.4698Z" fill="#EEEEEF"/>
<path d="M64.2688 22.6437C64.0938 22.3296 64.0588 21.5097 64.1638 20.1839C64.3038 18.7185 64.5839 17.2793 65.0039 15.8663C66.2291 11.9062 68.1194 9.92624 70.6747 9.92624C71.7073 9.92624 72.4687 10.6415 72.9588 12.072C73.5538 13.7641 73.4226 15.9099 72.565 18.5092C72.1099 19.8699 71.5323 21.1172 70.8322 22.2511C70.1496 23.3502 69.5721 23.9956 69.0995 24.1875C68.6794 24.3445 67.7868 24.1788 66.4216 23.6904C65.1089 23.2193 64.3913 22.8704 64.2688 22.6437Z" fill="#C6000B"/>
<path d="M91.7563 16.756C92.0189 16.756 92.3427 17.1311 92.7277 17.8812C93.2528 18.893 93.5153 20.1316 93.5153 21.597C93.5153 23.2543 93.2265 24.7371 92.649 26.0455C92.1064 27.2666 91.5463 27.8772 90.9687 27.8772C90.1286 27.8772 89.7086 26.6996 89.7086 24.3446C89.7086 22.4605 90.0499 20.6288 90.7324 18.8494L91.7563 16.756Z" fill="#C6000B"/>
<path d="M69.2833 24.2661C70.2109 23.3938 70.9547 22.4518 71.5148 21.44C72.0749 20.4107 72.5737 19.3466 73.0113 18.2475L72.6962 21.0998C72.3987 23.0362 72.0486 24.1091 71.6461 24.3184L70.0971 24.4754L69.2833 24.2661Z" fill="white"/>
<path d="M69.5983 12.5953C70.0359 12.6826 70.3684 13.1361 70.5959 13.956C70.8235 14.8283 70.8322 15.8401 70.6222 16.9915C70.4297 18.0207 70.0709 18.8755 69.5458 19.5559C69.0032 20.2711 68.4432 20.5677 67.8656 20.4456C67.3055 20.3235 66.9292 19.8263 66.7367 18.954C66.5441 18.1516 66.5616 17.2357 66.7892 16.2065C67.0517 15.0202 67.4805 14.0782 68.0756 13.3804C68.6182 12.7698 69.1257 12.5081 69.5983 12.5953Z" fill="#0D131A"/>
<path d="M90.4174 24.8679C90.1548 24.7807 90.0061 24.4231 89.9711 23.795C89.9361 23.2542 89.9886 22.6524 90.1286 21.9895C90.2686 21.3266 90.4874 20.7247 90.7849 20.1839C91.135 19.5733 91.4588 19.3378 91.7563 19.4774C92.0714 19.617 92.2376 20.0269 92.2551 20.7073C92.2901 21.2655 92.2201 21.9284 92.0451 22.696C91.9051 23.3066 91.6426 23.8474 91.2575 24.3184C90.9074 24.7371 90.6274 24.9202 90.4174 24.8679Z" fill="#0D131A"/>
<path d="M70.3334 10.1879C70.666 10.3798 70.946 10.7898 71.1735 11.4178C71.4186 12.1854 71.4273 12.9355 71.1998 13.6682C70.9548 14.4707 70.5085 15.0638 69.8609 15.4476C69.2833 15.814 68.7407 15.9099 68.2331 15.7355C67.603 15.5436 67.183 15.1074 66.973 14.4271C66.7629 13.7293 66.8242 12.9355 67.1567 12.0458C67.4368 11.3131 67.9619 10.7549 68.732 10.3711C69.4321 10.0222 69.9659 9.96115 70.3334 10.1879Z" fill="white"/>
<path d="M91.7038 17.6718C91.8614 17.7242 91.9839 17.9335 92.0714 18.2999C92.1589 18.6836 92.1589 19.0762 92.0714 19.4774C91.8088 20.6811 91.4763 21.2481 91.0737 21.1783C90.8287 21.126 90.6712 20.9166 90.6012 20.5503C90.5312 20.1839 90.5574 19.7478 90.6799 19.2419C90.995 18.0905 91.3363 17.5672 91.7038 17.6718Z" fill="white"/>
<path d="M59.2019 38.0563L62.4574 39.9404C65.1877 41.3186 67.9006 42.3565 70.596 43.0543C72.2937 43.473 74.2452 43.63 76.4505 43.5253L79.2334 43.2375L79.6272 44.2057C79.2072 44.5721 78.5946 44.9471 77.7895 45.3309C76.1792 46.0636 74.4027 46.4299 72.46 46.4299C70.3247 46.4299 67.6993 45.3484 64.5839 43.1852C61.7835 41.2313 59.9895 39.5217 59.2019 38.0563Z" fill="#CBBD00"/>
<path d="M68.2856 76.3133C63.525 79.5755 58.423 81.2066 52.9798 81.2066L49.5668 80.7617L48.1491 80.2907L48.4379 79.0347C48.5779 78.0403 48.5604 77.1593 48.3854 76.3918L47.9128 73.8535L47.7291 72.676C51.2646 73.9494 55.6927 74.5339 61.0134 74.4292C66.8592 74.3245 71.121 73.3214 73.7989 71.4199C72.5037 73.0598 70.666 74.6909 68.2856 76.3133Z" fill="#CBBD00"/>
<path d="M43.3447 31.0173C43.1697 31.5755 42.9596 31.9244 42.7146 32.064C42.4871 32.2035 42.3208 32.0465 42.2158 31.593C42.0583 30.7905 41.997 29.7612 42.032 28.5052L42.137 26.8566C42.137 26.2635 42.2245 25.8361 42.3996 25.5744C42.5921 25.243 42.8371 25.4785 43.1347 26.281C43.7472 27.9208 43.8173 29.4996 43.3447 31.0173Z" fill="#72B0A6"/>
<path d="M45.6288 49.5962C44.5261 48.7589 42.9597 46.744 40.9294 43.5515C39.1266 40.6905 37.8402 38.3616 37.0701 36.5648C36.4575 35.1692 35.8449 33.5206 35.2323 31.6191C34.7073 30.0142 34.3485 28.7843 34.1559 27.9295C33.9284 26.9875 33.9722 26.4118 34.2872 26.2024C34.6548 25.9408 35.3023 26.5165 36.23 27.9295L45.9963 39.7049C51.2995 46.0723 53.6536 49.4218 53.0585 49.7532C52.0959 50.294 50.9758 50.5993 49.6981 50.6691C48.0704 50.7738 46.7139 50.4161 45.6288 49.5962Z" fill="#72B0A6"/>
<path d="M87.4508 57.8128C85.508 57.8128 83.7577 57.5599 82.2 57.054L80.441 56.2689L80.8611 52.2391C82.0338 52.9369 84.2041 53.6086 87.372 54.254C91.275 55.0565 94.7143 55.2746 97.6897 54.9082C97.3571 55.3967 96.6833 55.8851 95.6681 56.3736C93.6204 57.3331 90.8812 57.8128 87.4508 57.8128Z" fill="#72B0A6"/>
<path d="M68.6269 76.2347C67.7518 76.8628 67.4805 77.7699 67.813 78.9562C68.1106 80.0901 68.8894 81.224 70.1496 82.3579C73.23 85.1317 76.8793 86.2569 81.0974 85.7336L80.3098 85.3934C79.7147 85.1666 79.4521 85.0445 79.5222 85.027L82.3575 84.7654L85.2192 84.1635C84.8516 84.8962 84.134 85.6376 83.0664 86.3877C82.9964 86.4226 83.0401 86.5709 83.1977 86.8326C83.3552 87.0768 83.3902 87.2251 83.3027 87.2774C82.5676 87.7485 81.0449 88.5509 78.7345 89.6849C76.4417 90.7839 74.4552 91.4991 72.775 91.8306L70.3859 91.9353C69.9833 91.8131 68.4956 89.8331 65.9228 85.9952L58.9656 80.5524L61.0134 79.8197L64.5313 78.4067C65.879 77.7961 67.2442 77.0721 68.6269 76.2347Z" fill="#72B0A6"/>
<path d="M23.5757 87.2774C23.5057 86.946 24.2933 87.1379 25.9385 87.8531C27.5137 88.5335 28.1963 89.1964 27.9863 89.8419L25.571 89.0307L23.5757 87.2774Z" fill="#72B0A6"/>
<path d="M33.7359 91.5951L30.3229 93.1652L28.879 93.4792L27.9863 93.5839L28.2226 92.7465C28.3276 92.9035 29.0452 92.6244 30.3754 91.9091C31.9156 91.1067 32.8432 90.6705 33.1583 90.6008C33.6484 90.4787 33.9459 90.5833 34.0509 90.9148C34.1384 91.2113 34.0334 91.4381 33.7359 91.5951Z" fill="#72B0A6"/>
<path d="M36.3087 94.0025C36.4837 94.0897 37.0263 93.5926 37.9364 92.511C38.8466 91.4294 39.5292 90.4612 39.9842 89.6064L44.2373 81.4159C46.5651 76.6709 47.6415 73.8622 47.4665 72.99L48.2016 75.6329C48.6217 77.6042 48.6042 79.1568 48.1491 80.2907C47.7465 81.3025 47.1515 82.262 46.3638 83.1692C45.1912 84.495 44.3073 85.6115 43.7122 86.5186C40.0017 92.1708 38.0065 94.9969 37.7264 94.9969L36.86 94.4997L36.3087 94.0025Z" fill="#72B0A6"/>
<path d="M30.1129 71.7863L28.6427 75.6591C27.47 75.7114 25.9823 75.5108 24.1796 75.0572C20.5741 74.1501 17.2049 72.4405 14.0719 69.9284C10.799 67.3117 8.04234 64.3896 5.80203 61.1623L3.43921 57.1063C6.81717 58.9555 8.75119 59.9062 9.24126 59.9586C9.74883 60.0284 11.4291 59.662 14.2819 58.8595C16.0322 62.4532 18.6751 65.5759 22.2105 68.2275C25.3785 70.6 28.0126 71.7863 30.1129 71.7863Z" fill="#72B0A6"/>
<path d="M1.83777 44.5982C2.22282 43.3596 2.75664 42.1734 3.43924 41.0394L4.33186 39.7049C3.77178 42.7752 3.97306 45.5403 4.93569 48C5.77581 50.1457 7.08849 51.8379 8.87373 53.0765C10.519 54.2279 12.2342 54.7774 14.0194 54.7251C15.8397 54.6553 17.2486 53.9662 18.2463 52.6578L17.905 53.94C17.6074 54.8995 17.2486 55.6933 16.8286 56.3213C16.2685 57.1761 15.3671 57.9698 14.1245 58.7025C12.7068 59.5399 11.3591 59.9586 10.0814 59.9586C8.73371 59.9586 7.40353 59.5573 6.09085 58.7549C4.81318 57.9873 3.84179 57.0365 3.1767 55.9026C1.05891 52.3264 0.612599 48.5582 1.83777 44.5982Z" fill="#72B0A6"/>
<path d="M31.5568 43.8132C32.1694 42.3478 32.8257 41.0482 33.5258 39.9142L34.3922 38.632C33.1495 41.9291 32.6945 46.2032 33.027 51.4541C33.342 56.3562 34.0509 59.3916 35.1536 60.5604L33.4733 66.5528L31.058 70.0069C30.5329 69.658 30.0166 68.9776 29.509 67.9658C28.4939 65.9422 28.0651 63.2469 28.2226 59.8801C28.5026 53.8266 29.614 48.471 31.5568 43.8132Z" fill="#A95B00"/>
<path d="M41.5594 60.4557L39.1441 63.3603L37.9889 63.7005C37.1313 63.9971 36.4575 64.3024 35.9674 64.6164L33.4733 66.5528C33.8059 64.8257 34.0597 63.6307 34.2347 62.9678L34.786 61.3716L35.1536 60.5604C35.3111 61.0489 35.9587 61.3454 37.0963 61.4501C38.479 61.5722 39.9667 61.2408 41.5594 60.4557Z" fill="#C8C9CA"/>
<path d="M90.995 9.5599C92.3252 11.287 93.1828 12.9791 93.5679 14.6364C93.9529 16.2762 93.7867 17.4974 93.0691 18.2999C92.999 18.3871 92.9028 18.2388 92.7803 17.855C92.6577 17.4538 92.6227 17.2008 92.6753 17.0962C93.0953 16.4158 93.0166 15.3604 92.439 13.9299C91.8439 12.4645 90.8813 10.9729 89.5511 9.45523C86.1906 5.63477 82.2263 3.38436 77.6582 2.70401C71.1648 1.72709 65.459 2.80868 60.5408 5.94878C55.6227 9.08888 52.7085 13.5199 51.7984 19.2419C50.9233 24.7894 52.4372 29.8485 56.3403 34.4191C60.2258 38.9548 65.3978 41.7547 71.8561 42.8188C76.3893 43.569 80.6774 42.8973 84.7204 40.8039C88.5359 38.8152 90.8988 36.2508 91.8089 33.1107L92.2814 33.1368C92.544 33.259 92.6578 33.3811 92.6227 33.5032C91.6776 36.8177 89.201 39.5217 85.193 41.6151C80.9749 43.7958 76.4768 44.4936 71.6986 43.7085C64.9777 42.5921 59.5432 39.6438 55.3951 34.8639C51.1945 30.0316 49.5581 24.7371 50.4857 18.9802C51.4658 12.8221 54.4675 8.15558 59.4907 4.98058C64.5314 1.78814 70.6397 0.732719 77.8157 1.81431C83.294 2.63423 87.6871 5.21609 90.995 9.5599Z" fill="#0D131A"/>
<path d="M92.3864 26.6211C92.3339 26.5688 92.3952 26.4641 92.5702 26.3071C92.7452 26.1676 92.8765 26.1327 92.964 26.2024C94.0317 27.2143 94.5305 28.5314 94.4605 30.1537C94.373 31.7587 93.7779 32.9624 92.6752 33.7649L92.0977 33.7125C91.8876 33.5032 91.6338 33.3113 91.3363 33.1368C90.9162 32.8926 90.5399 32.7705 90.2074 32.7705L87.372 33.948C85.5343 34.7156 84.0991 35.082 83.0664 35.0471C82.6289 35.0296 81.5437 34.5063 79.811 33.477C77.8682 32.3256 76.6693 31.6715 76.2142 31.5145C75.4791 31.2702 74.0352 30.9475 71.8824 30.5463L67.0517 29.8136C65.8265 29.6914 64.6451 29.1943 63.5075 28.322C62.4223 27.5021 61.5997 26.5339 61.0396 25.4174C60.7771 24.8766 60.7421 24.5626 60.9346 24.4754C61.1096 24.3882 61.3284 24.6149 61.591 25.1557C62.0635 26.1152 62.8249 26.9526 63.875 27.6678C64.9427 28.3831 66.0366 28.8018 67.1567 28.9239L72.0661 29.6566C74.289 30.0752 75.7767 30.4241 76.5293 30.7033C76.9843 30.8777 78.157 31.5145 80.0472 32.6135C81.745 33.6079 82.7776 34.1225 83.1452 34.1574C84.0903 34.2272 85.473 33.8783 87.2932 33.1107L90.1549 31.8808C90.9075 31.8459 91.6688 32.1599 92.439 32.8228C93.069 32.2646 93.4191 31.34 93.4891 30.0491C93.5591 28.636 93.1916 27.4934 92.3864 26.6211Z" fill="#0D131A"/>
<path d="M80.4148 28.8454C80.6248 28.7407 80.9399 29.0111 81.3599 29.6566C81.7975 30.302 81.8762 30.6858 81.5962 30.8079C81.3162 30.93 81.0011 30.6596 80.6511 29.9967C80.301 29.3164 80.2223 28.9326 80.4148 28.8454Z" fill="#0D131A"/>
<path d="M87.4245 30.5463C87.5295 30.7556 87.3283 31.0522 86.8207 31.4359C86.3306 31.8023 86.0331 31.9157 85.9281 31.7761C85.8231 31.6366 86.0243 31.34 86.5319 30.8864C87.022 30.4329 87.3195 30.3195 87.4245 30.5463Z" fill="#0D131A"/>
<path d="M90.9687 14.113L91.5726 14.0345C91.6426 14.1392 91.52 14.2962 91.205 14.5056L90.5749 15.1597L89.9448 16.1541C89.7873 16.4856 89.6123 16.599 89.4198 16.4943C89.2272 16.3896 89.201 16.1716 89.341 15.8401C89.7436 14.9853 90.2861 14.4096 90.9687 14.113Z" fill="#0D131A"/>
<path d="M72.46 8.40852C72.1274 8.23407 71.9874 8.06835 72.0399 7.91134C72.1099 7.77178 72.3112 7.77178 72.6438 7.91134C73.2738 8.19046 73.7989 8.5917 74.219 9.11505C74.674 9.69073 74.9366 10.3275 75.0066 11.0253C75.0416 11.5835 74.9628 11.8714 74.7703 11.8888C74.5603 11.8888 74.4115 11.6271 74.324 11.1038C74.0789 9.88263 73.4576 8.98421 72.46 8.40852Z" fill="#0D131A"/>
<path d="M73.09 22.1988C72.635 23.7689 72.2237 24.6324 71.8561 24.7894C71.1385 25.1034 69.6771 24.9813 67.4718 24.4231C65.1789 23.8474 63.945 23.2194 63.77 22.539C63.6125 21.911 63.6125 20.8992 63.77 19.5036C63.9275 17.9335 64.2426 16.442 64.7151 15.0289C66.0103 11.1736 67.9268 9.33312 70.4647 9.50757C73.0725 9.68202 74.2277 12.2028 73.9301 17.07C73.8251 18.8494 73.5451 20.559 73.09 22.1988ZM70.4122 10.3973C69.397 10.3275 68.4694 10.7985 67.6293 11.8103C66.7892 12.8396 66.0803 14.3747 65.5027 16.4158C65.2052 17.4625 64.9689 18.6924 64.7939 20.1054C64.6364 21.3266 64.5839 22.068 64.6364 22.3297L64.7676 22.4867L65.2665 22.8268C66.0541 23.2281 67.2267 23.5595 68.7844 23.8212L71.4623 24.0044C71.6898 23.7602 71.9611 22.9839 72.2762 21.6755C72.6437 20.2101 72.8712 18.7796 72.9588 17.384L73.0113 15.7878C73.0113 13.7293 72.7225 12.2639 72.1449 11.3916C71.7248 10.7811 71.1473 10.4496 70.4122 10.3973Z" fill="#0D131A"/>
<path d="M72.7488 12.9617C72.7313 12.8396 72.8538 12.7611 73.1163 12.7262C73.3788 12.6913 73.5189 12.7349 73.5364 12.857C73.7989 14.5666 73.6239 16.4943 73.0113 18.64C72.3112 21.1172 71.2261 22.9664 69.7558 24.1875L69.3358 24.1352C69.1258 24.0654 69.0645 23.9957 69.152 23.9259C70.5522 22.7047 71.5849 20.8992 72.2499 18.5092C72.845 16.4158 73.0113 14.5666 72.7488 12.9617Z" fill="#0D131A"/>
<path d="M92.649 18.8232C92.4214 18.0731 92.1414 17.5236 91.8088 17.1747C91.3188 18.1167 90.925 19.2855 90.6274 20.6811C90.3649 21.9895 90.2336 23.2455 90.2336 24.4492C90.2336 25.5134 90.3474 26.3595 90.5749 26.9875C90.6974 27.284 90.8112 27.4323 90.9162 27.4323C91.1438 27.4498 91.3625 27.3713 91.5726 27.1968C91.9576 26.8828 92.2814 26.2897 92.5439 25.4174C92.789 24.5452 92.9465 23.4985 93.0165 22.2773L93.0428 21.6231C93.0428 20.6113 92.9115 19.678 92.649 18.8232ZM92.0976 15.8139C92.3077 15.5872 92.4039 15.5784 92.3864 15.7878L92.0976 16.6251C92.6927 17.0787 93.1653 17.8899 93.5153 19.0587C93.8479 20.1578 93.9791 21.2481 93.9091 22.3297C93.7866 24.4754 93.3928 26.0803 92.7277 27.1445C92.1851 27.9993 91.5551 28.3918 90.8375 28.322C90.3824 28.2871 90.0236 27.947 89.7611 27.3015C89.2535 26.0629 89.2272 24.205 89.6823 21.7278C90.1724 19.0936 90.9775 17.1223 92.0976 15.8139Z" fill="#0D131A"/>
<path d="M47.729 25.9146L47.0989 25.2604C48.0791 24.0567 49.2955 23.324 50.7482 23.0624C50.9232 23.0275 51.0195 23.1758 51.037 23.5072C51.0545 23.8387 50.9845 24.0218 50.8269 24.0567C49.5668 24.4056 48.5341 25.0249 47.729 25.9146Z" fill="#0D131A"/>
<path d="M36.4137 34.6022L37.0701 35.8844C35.2323 38.3442 33.6396 41.0133 32.2919 43.8917C30.3492 47.9738 29.1852 52.5444 28.8002 57.6035C28.3626 63.2731 29.2203 67.3116 31.373 69.7191C31.4606 69.8063 31.3993 69.9459 31.1893 70.1377C30.9792 70.3296 30.8305 70.382 30.743 70.2948C28.4501 67.7478 27.4263 63.5174 27.6713 57.6035C27.8813 52.1781 28.9665 47.4156 30.9267 43.316C32.4319 40.1585 34.2609 37.2539 36.4137 34.6022Z" fill="#0D131A"/>
<path d="M40.9819 49.2822C41.2969 47.2062 41.3232 45.453 41.0607 44.0225C41.0257 43.9179 41.1919 44.0138 41.5595 44.3104C41.9095 44.6069 42.0933 44.8163 42.1108 44.9384C42.4083 46.5259 42.3821 48.2442 42.032 50.0934C41.6995 51.8553 41.1832 53.2335 40.4831 54.2279L37.7527 57.3418C36.7726 58.3536 36.1425 59.1474 35.8624 59.723C35.4249 60.6651 35.0048 61.8077 34.6023 63.151C34.2172 64.4943 33.9809 65.5497 33.8934 66.3173L33.4209 67.05L32.9745 67.4425C33.1146 66.2737 33.3859 64.8955 33.7884 63.308C34.226 61.6507 34.6635 60.3423 35.1011 59.3829C35.4161 58.7025 36.125 57.7605 37.2276 56.5568L39.643 53.6522C40.2205 52.745 40.6669 51.2884 40.9819 49.2822Z" fill="#0D131A"/>
<path d="M30.9005 44.8599C30.918 44.7378 31.0668 44.7116 31.3468 44.7814C31.6268 44.8337 31.7581 44.9122 31.7406 45.0169C31.3555 46.9708 31.4606 49.3695 32.0556 52.213C32.7207 55.3008 33.8146 58.0309 35.3373 60.4034C35.4073 60.5081 35.3198 60.6389 35.0748 60.7959L34.6285 60.8483C32.8082 58.0396 31.6006 55.1612 31.0055 52.213C30.4629 49.6311 30.4279 47.1801 30.9005 44.8599Z" fill="#0D131A"/>
<path d="M45.2875 49.5963C45.2875 49.4916 45.4538 49.5177 45.7863 49.6747L46.2851 49.9888C46.1801 55.0304 43.8785 59.505 39.3804 63.4127C39.2929 63.4825 39.0654 63.4825 38.6978 63.4127C38.3478 63.3429 38.2165 63.2731 38.304 63.2034C39.9317 61.9648 41.4545 60.0894 42.8722 57.5773C44.4824 54.7164 45.2875 52.056 45.2875 49.5963Z" fill="#0D131A"/>
<path d="M78.7345 43.63C78.682 43.5079 78.7871 43.3945 79.0496 43.2899C79.3121 43.1677 79.4609 43.1677 79.4959 43.2899C80.7386 46.0985 81.3599 48.7763 81.3599 51.3233C81.3599 63.4301 76.643 72.1875 67.2092 77.5955C63.6912 79.6191 59.972 80.8839 56.0514 81.3898C52.5509 81.8259 49.8818 81.5904 48.0441 80.6833C47.9391 80.6309 47.9478 80.4827 48.0703 80.2384C48.1928 79.9767 48.3066 79.8721 48.4116 79.9244C50.2319 80.8315 52.8397 81.0234 56.2352 80.5001C59.9632 79.9419 63.5075 78.6422 66.8679 76.6011C70.841 74.1937 73.9651 71.0536 76.2404 67.1808C78.9358 62.6451 80.2835 57.3593 80.2835 51.3233C80.2835 48.6019 79.7672 46.0375 78.7345 43.63Z" fill="#0D131A"/>
<path d="M57.5479 45.3309C57.5129 45.2437 57.5829 45.0605 57.7579 44.7814C57.9504 44.5197 58.0642 44.4412 58.0992 44.5459C58.8168 46.2555 60.112 47.7907 61.9847 49.1514C63.875 50.4946 66.1241 51.4977 68.7319 52.1606C71.0947 52.7712 73.3438 52.998 75.4791 52.841C77.6144 52.6666 79.2421 52.1345 80.3623 51.2448C80.4498 51.175 80.581 51.2535 80.7561 51.4803C80.9311 51.7071 80.9748 51.8554 80.8873 51.9251C79.6272 52.9195 77.8769 53.5388 75.6366 53.783C73.3263 54.0447 70.9372 53.8615 68.4694 53.2335C65.8965 52.5706 63.63 51.5152 61.6697 50.0672C59.7794 48.6891 58.4055 47.1103 57.5479 45.3309Z" fill="#0D131A"/>
<path d="M73.7989 53.3643C73.5013 56.7836 72.0486 61.4065 69.4408 67.2331C66.7629 73.2168 64.3826 76.9413 62.2998 78.4067L61.906 78.1712C61.7485 77.9444 61.7135 77.7961 61.801 77.7263C63.4987 76.5226 65.739 72.8155 68.5219 66.6051C71.2348 60.5342 72.7137 56.0945 72.9588 53.2858C72.9588 53.1637 73.0988 53.1201 73.3788 53.155C73.6764 53.1724 73.8164 53.2422 73.7989 53.3643Z" fill="#0D131A"/>
<path d="M54.2662 48.1832L54.5813 48.2878L54.7125 48.5757L55.1588 55.4316L55.4739 61.6333L55.3689 61.9211L52.4022 64.7995C50.1444 66.8232 48.0354 68.3234 46.0751 69.3004L45.76 69.3265L45.4975 69.1172L45.4713 68.934C45.4713 68.7596 45.55 68.6287 45.7075 68.5415C48.4029 67.1982 51.3783 64.8432 54.6338 61.4763L54.2925 55.3269L53.8724 48.628V48.6018C53.8724 48.3227 54.0037 48.1832 54.2662 48.1832Z" fill="#0D131A"/>
<path d="M67.9968 68.2537L72.1186 68.4368C73.7989 68.3845 75.1378 68.2275 76.1354 67.9658C76.258 67.9484 76.2755 68.0705 76.188 68.3322L75.8992 68.7508C74.919 69.0823 73.6413 69.3091 72.0661 69.4312C70.4384 69.5708 68.9682 69.5533 67.6555 69.3789C65.0477 69.0474 62.6061 68.2362 60.3308 66.9453C58.108 65.6718 56.3665 64.1192 55.1063 62.2875C55.0363 62.1828 55.045 61.9822 55.1326 61.6856C55.2026 61.389 55.2726 61.2844 55.3426 61.3716C56.4627 63.0289 58.2392 64.4942 60.6721 65.7677C62.9299 66.9366 65.3715 67.7652 67.9968 68.2537Z" fill="#0D131A"/>
<path d="M48.4117 77.5693C48.2891 77.5519 48.2541 77.4298 48.3066 77.203C48.3417 76.9762 48.4204 76.8715 48.5429 76.889L55.2113 77.517C58.3968 77.7089 60.6633 77.7525 62.011 77.6478L62.2998 77.7263L62.4573 77.988L62.5886 79.2964C62.6236 79.4185 62.5186 79.5057 62.2736 79.558L61.8798 79.4795L61.696 78.5113L54.765 78.302L48.4117 77.5693Z" fill="#0D131A"/>
<path d="M41.3231 64.3024C40.588 63.7965 39.7129 63.6569 38.6978 63.8837C37.7176 64.0756 36.6938 64.6077 35.6261 65.4799C34.1034 66.7185 32.6244 68.5503 31.1892 70.9751C30.1041 72.7894 29.159 75.3887 28.3539 78.773C27.9688 80.4652 27.68 81.9916 27.4875 83.3524L27.33 83.614L24.9409 85.7074C24.2583 86.4052 23.917 86.8588 23.917 87.0681C23.952 87.2775 24.3721 87.6264 25.1772 88.1148C25.9648 88.6208 26.8749 89.1005 27.9075 89.5541C28.0826 89.6064 28.1701 89.7285 28.1701 89.9204C28.1701 91.6475 28.2838 92.7203 28.5114 93.139C29.2115 92.9995 30.9792 92.354 33.8146 91.2026L34.3134 91.3073L36.0987 93.2437C36.7463 93.8543 37.1751 94.1857 37.3851 94.2381C37.7176 94.0636 38.5228 93.0954 39.8004 91.3335L42.5308 87.3037C43.1259 86.3442 44.4036 84.591 46.3638 82.044L47.3877 80.7094C47.8253 80.1512 48.0441 79.2702 48.0441 78.0665L47.9128 76.3133C47.5452 74.0106 46.7226 71.6816 45.445 69.3266C44.1498 66.9889 42.7758 65.3142 41.3231 64.3024ZM27.54 77.7002C28.2226 74.3856 29.089 71.8474 30.1391 70.0854C32.0644 66.8581 34.1997 64.6949 36.545 63.5959C38.6103 62.6015 40.3605 62.6015 41.7957 63.5959C44.7011 65.6195 46.8189 68.7334 48.1491 72.9377C49.4093 76.95 49.3742 79.8023 48.0441 81.4945C45.8738 84.1984 44.281 86.2831 43.2659 87.7485L40.4305 92.2493C39.0828 94.3776 38.1815 95.4854 37.7264 95.5726C37.0438 95.7296 35.7574 94.5695 33.8671 92.0923C32.6594 92.8599 31.4518 93.4879 30.2441 93.9764C29.0715 94.4474 28.3189 94.6218 27.9863 94.4997C27.7063 94.3951 27.5225 94.0374 27.435 93.4269C27.3825 92.9558 27.3475 91.883 27.33 90.2082L24.3633 88.9522C23.1031 88.3416 22.4468 87.8096 22.3943 87.356C22.3593 86.9722 22.6831 86.414 23.3657 85.6813C24.1358 84.8439 25.2384 83.9717 26.6736 83.0645L27.54 77.7002Z" fill="#0D131A"/>
<path d="M80.5986 74.7694C79.6885 72.1527 78.087 70.0505 75.7942 68.463C75.7242 68.4107 75.8379 68.2275 76.1355 67.9135C76.4155 67.5821 76.608 67.4512 76.713 67.521C79.2684 69.3004 80.9661 71.7253 81.8062 74.7956C82.5589 77.5344 82.4713 79.8546 81.5437 81.7561C84.3616 82.9599 85.7705 83.9019 85.7705 84.5822C85.7705 85.0009 84.9392 85.7598 83.2765 86.8588L82.4626 86.1785C83.8803 85.3237 84.5891 84.7741 84.5891 84.5299C84.5891 84.338 84.1866 84.024 83.3815 83.5879C82.6464 83.1692 81.78 82.7592 80.7824 82.358L80.4936 82.0963L80.5986 81.7038C81.4912 79.6278 81.4912 77.3164 80.5986 74.7694Z" fill="#0D131A"/>
<path d="M85.508 40.9348C85.7705 40.6731 85.9368 40.5597 86.0068 40.5946C87.2145 41.0307 88.8597 41.9204 90.9425 43.2637C93.2003 44.6942 94.7405 45.9153 95.5631 46.9271C95.7557 47.1714 95.7819 47.372 95.6419 47.529C95.4844 47.6686 95.3094 47.6162 95.1168 47.372C94.3292 46.3951 92.684 45.1826 90.1812 43.7347C87.9058 42.4263 86.2606 41.6413 85.2455 41.3796C85.1405 41.3447 85.228 41.1965 85.508 40.9348Z" fill="#0D131A"/>
<path d="M94.2767 46.0113C94.0667 45.8194 94.0142 45.7147 94.1192 45.6973L96.482 45.5926C97.4271 45.6624 98.0047 45.8368 98.2147 46.1159C98.3372 46.2904 98.346 46.6742 98.241 47.2673L97.7684 48.9159C99.1511 49.3345 99.8862 49.823 99.9737 50.3812C99.9912 50.5731 99.8249 50.9133 99.4749 51.4018C99.0548 51.9949 98.4685 52.6055 97.7159 53.2335C98.066 53.6696 98.241 54.1406 98.241 54.6466C98.241 55.1525 97.7072 55.7194 96.6395 56.3474C95.5194 56.9929 94.1367 57.4988 92.4914 57.8652C88.2034 58.8246 84.1515 58.4408 80.336 56.7138C80.2135 56.6615 80.196 56.4696 80.2835 56.1381C80.3535 55.7892 80.441 55.6409 80.5461 55.6933C81.5262 56.1294 82.7339 56.4957 84.169 56.7923L89.6035 57.3156C91.3888 57.3156 93.1653 56.9319 94.933 56.1643C96.4732 55.4839 97.2433 54.9606 97.2433 54.5942C97.2433 54.2977 97.1033 53.8877 96.8233 53.3643C96.7183 53.1899 96.7358 53.0242 96.8758 52.8672C98.0835 51.6635 98.731 50.8697 98.8186 50.4859C98.661 50.2242 98.101 49.919 97.1383 49.5701L96.8495 49.3869V49.0729C97.1646 47.9738 97.3221 47.1714 97.3221 46.6655V46.6131L96.272 46.4038L94.6967 46.3253L94.2767 46.0113Z" fill="#0D131A"/>
<path d="M14.4132 45.4094C13.8531 45.2524 13.3281 45.2524 12.838 45.4094C12.3479 45.5839 11.9629 45.8892 11.6828 46.3253C11.4728 46.6742 11.289 46.805 11.1315 46.7178C10.974 46.6306 10.9827 46.4125 11.1578 46.0636C11.5253 45.3309 12.0154 44.8512 12.628 44.6244C13.1705 44.4325 13.8444 44.4238 14.6495 44.5982C16.0147 44.8948 17.1348 45.6886 18.01 46.9795C18.8851 48.2355 19.3226 49.6573 19.3226 51.2448C19.3226 53.6871 18.3688 55.8416 16.461 57.7082C14.5707 59.5399 12.4179 60.4558 10.0026 60.4558C7.48226 60.4558 5.26821 59.348 3.36045 57.1325C1.40018 54.8821 0.420044 52.2304 0.420044 49.1776C0.420044 44.3802 2.15278 40.394 5.61826 37.219C8.8212 34.2882 12.5055 32.8228 16.671 32.8228C20.9416 32.8228 24.1796 34.3231 26.3849 37.3237C28.6077 40.3242 29.6578 44.6506 29.5353 50.3028C29.5178 50.7912 29.3603 51.2099 29.0627 51.5588C28.7652 51.8903 28.6252 51.8815 28.6427 51.5326C28.9752 45.7932 27.9776 41.3622 25.6498 38.2395C23.497 35.3611 20.5041 33.9219 16.671 33.9219C13.1705 33.9219 9.95886 35.2215 7.03595 37.8208C3.69299 40.7865 2.02151 44.5721 2.02151 49.1776C2.02151 52.0385 2.79162 54.4547 4.33183 56.426C5.87204 58.3972 7.7623 59.3829 10.0026 59.3829C12.1554 59.3829 14.0019 58.5891 15.5421 57.0016C17.0648 55.4141 17.8262 53.4952 17.8262 51.2448C17.8262 49.5875 17.4586 48.2181 16.7235 47.1365C16.0934 46.2468 15.3233 45.6711 14.4132 45.4094Z" fill="#0D131A"/>
<path d="M1.02387 52.684C0.988862 52.5793 1.12888 52.5532 1.44392 52.6055C1.75897 52.6578 1.92524 52.7189 1.94274 52.7887C4.00803 58.8072 7.69228 64.0146 12.9955 68.4107C18.3162 72.8417 23.5932 75.0573 28.8264 75.0573C28.949 75.0573 28.9665 75.2404 28.8789 75.6068C28.7914 75.9731 28.6864 76.1563 28.5639 76.1563C23.2782 76.1563 17.9137 73.871 12.4704 69.3004C6.92218 64.6426 3.10665 59.1038 1.02387 52.684Z" fill="#0D131A"/>
<path d="M58.4142 80.8141C58.3267 80.7617 58.4843 80.6396 58.8868 80.4477C59.2719 80.2558 59.4994 80.1773 59.5694 80.2122C62.1073 81.5031 64.7064 83.8146 67.3667 87.1466L69.7558 90.2867C70.4384 91.159 70.9022 91.5864 71.1472 91.5689C72.8275 91.4643 75.2516 90.7664 78.4195 89.4755C81.4474 88.2369 82.9701 87.4083 82.9876 86.9896C83.0051 86.8152 82.7601 86.5884 82.2525 86.3092C81.745 86.0301 81.1411 85.7946 80.441 85.6027C79.7584 85.3934 79.4521 85.2015 79.5221 85.027L80.6511 84.9485C81.6487 85.1404 82.5063 85.4719 83.2239 85.9429C83.889 86.3965 84.169 86.7715 84.064 87.0681C83.6965 88.1671 81.7712 89.397 78.2882 90.7577C74.8578 92.0835 72.3549 92.6418 70.7797 92.4324C70.3946 92.3801 68.9244 90.8711 66.3691 87.9055C63.4987 84.5386 60.8471 82.1748 58.4142 80.8141Z" fill="#0D131A"/>
<path d="M52.7698 28.8454C52.8923 28.9152 52.9973 29.1943 53.0848 29.6827C53.1898 30.1537 53.1898 30.3544 53.0848 30.2846C52.0697 29.6566 49.6631 27.7899 45.8651 24.6847C42.4696 21.911 40.6756 20.5415 40.4831 20.5764C40.238 20.6113 39.888 21.2917 39.4329 22.6175C39.0129 23.891 38.7503 24.9813 38.6453 25.8884C38.5753 26.5862 38.4353 26.9264 38.2253 26.909C38.0152 26.909 37.9102 26.5601 37.9102 25.8623C37.9277 24.5016 38.164 23.1234 38.6191 21.7278C39.1091 20.2799 39.6342 19.4948 40.1943 19.3727C40.7194 19.2681 42.6359 20.5852 45.9438 23.324C49.9694 26.6735 52.2447 28.5139 52.7698 28.8454Z" fill="#0D131A"/>
<path d="M59.2281 38.0302L59.6744 38.2918C59.7795 39.4083 59.6394 40.7603 59.2544 42.3478C58.8518 44.0225 58.318 45.3222 57.6529 46.2468C56.0602 48.4448 54.0824 49.9015 51.7196 50.6168C49.3918 51.332 47.379 51.1401 45.6813 50.0411C43.4935 48.628 40.7281 44.5459 37.3851 37.7947C34.0772 31.1481 32.6945 27.0747 33.2371 25.5744C33.4121 25.086 34.1297 24.8068 35.3899 24.7371L38.2515 24.9202C38.3565 24.9377 38.4003 25.086 38.3828 25.3651C38.3828 25.6442 38.3215 25.775 38.199 25.7576C37.4639 25.7053 36.6938 25.7053 35.8887 25.7576C35.0486 25.8274 34.5672 25.9233 34.4447 26.0454C33.9897 27.3364 35.2673 31.1394 38.2777 37.4545C41.3932 43.9789 44.0185 47.9302 46.1538 49.3084C47.6415 50.2853 49.4093 50.4074 51.4571 49.6747C53.5048 48.942 55.2638 47.5551 56.734 45.5141C57.4166 44.5721 57.9767 43.3247 58.4143 41.7721C58.8343 40.2195 58.9656 38.9809 58.8081 38.0563L59.2281 38.0302Z" fill="#0D131A"/>
<path d="M44.5786 25.2343C45.4362 25.7925 46.0226 26.3071 46.3376 26.7781C46.6702 27.3015 46.7139 27.6417 46.4689 27.7987C46.2239 27.9382 45.9351 27.7551 45.6025 27.2492C45.3925 26.9177 44.9374 26.5601 44.2373 26.1763C43.5722 25.8099 43.1347 25.6529 42.9247 25.7053C42.7496 25.8797 42.6184 26.4205 42.5308 27.3277C42.4433 28.3569 42.4608 29.5519 42.5834 30.9126C42.6534 31.593 42.5396 31.9419 42.2421 31.9593C41.962 31.9768 41.7957 31.6453 41.7432 30.965C41.4107 27.0747 41.6382 24.9464 42.4258 24.5801C42.8809 24.3707 43.5985 24.5888 44.5786 25.2343Z" fill="#0D131A"/>
</svg>
