<svg width="201" height="175" viewBox="0 0 201 175" fill="none" xmlns="http://www.w3.org/2000/svg">
<path d="M12.4301 35.2601C12.0833 43.2709 13.3751 50.8829 16.3054 58.0961C19.0451 64.8238 23.0505 70.8492 28.3216 76.1724C33.3674 81.2528 39.2021 85.3363 45.8257 88.4227C52.3974 91.4744 59.1857 93.2777 66.1908 93.8326L49.1549 133.054C36.5838 128.008 26.3449 120.743 18.4382 111.259C11.6065 103.092 6.75144 93.6072 3.87311 82.8047C1.41092 73.5455 0.578625 64.1475 1.37624 54.6109C2.08715 46.0799 3.89912 39.0921 6.81213 33.6476C8.44203 30.5958 9.69914 28.8186 10.5834 28.3157C12.04 27.4834 12.6555 29.7982 12.4301 35.2601Z" fill="#A586BC"/>
<path d="M1.16819 58.2262C2.03516 67.3814 4.38465 75.817 8.21665 83.533C11.9793 91.093 16.7303 97.1097 22.4696 101.583C28.3824 106.196 34.7026 108.64 41.4302 108.918C48.6434 109.213 55.7005 106.932 62.6016 102.077L49.1549 133.054C31.6248 126.032 18.7156 114.822 10.4274 99.4245C3.6824 86.9055 0.595993 73.1727 1.16819 58.2262Z" fill="#8F75A3"/>
<path d="M172.594 154.278L167.678 153.836C162.372 153.506 158.194 154.243 155.142 156.046C154.084 156.671 152.437 157.026 150.2 157.113C148.067 157.182 145.831 157 143.49 156.566C137.889 155.543 134.829 153.94 134.309 151.755C133.858 149.847 133.901 147.619 134.439 145.07C134.595 144.325 134.976 143.024 135.583 141.169L149.264 111.935C154.743 113.253 159.477 115.541 163.465 118.801C169.62 123.812 172.819 130.436 173.062 138.672C175.056 141.395 176.027 144.576 175.975 148.218C175.94 150.68 175.594 152.578 174.935 153.914C174.761 154.243 173.981 154.364 172.594 154.278Z" fill="#A586BC"/>
<path d="M171.762 130.531C172.559 132.994 172.993 135.629 173.062 138.438L173.738 139.452C172.975 141.342 171.267 143.18 168.615 144.966C167.54 145.695 166.863 146.232 166.586 146.579C166.135 147.151 166.092 147.767 166.456 148.426C164.965 149.934 164.028 151.642 163.647 153.549C160.266 153.705 157.431 154.46 155.142 155.812C154.084 156.436 152.437 156.792 150.2 156.879C148.067 156.948 145.831 156.766 143.49 156.332C137.889 155.309 134.829 153.705 134.309 151.521C133.858 149.613 133.901 147.385 134.439 144.836C134.595 144.091 134.976 142.79 135.583 140.935L147.157 116.2C149.238 116.512 151.379 117.423 153.581 118.931C154.778 119.746 156.676 121.307 159.277 123.613C161.687 125.763 163.612 127.289 165.051 128.191C167.305 129.595 169.542 130.375 171.762 130.531Z" fill="#8F75A3"/>
<path d="M183.882 154.876C187.35 157.65 186.734 159.393 182.035 160.104C178.914 160.589 174.822 160.607 169.759 160.156C166.673 159.878 164.262 159.497 162.528 159.011C160.586 158.474 158.974 157.694 157.691 156.671C156.46 155.682 157.214 154.174 159.954 152.145C162.416 150.307 165.086 148.946 167.964 148.062C169.906 147.472 171.814 147.533 173.686 148.244C176.062 149.128 179.46 151.339 183.882 154.876Z" fill="#DBDCDC"/>
<path d="M171.137 157.087C174.05 158.647 177.614 159.67 181.827 160.156C178.741 160.607 174.718 160.607 169.759 160.156C166.673 159.878 164.262 159.497 162.528 159.011C160.586 158.474 158.974 157.694 157.691 156.67C156.754 155.908 157.032 154.798 158.523 153.341C159.823 152.076 161.679 150.844 164.089 149.648C165.372 152.769 167.722 155.249 171.137 157.087Z" fill="#B4B4B5"/>
<path d="M168.745 116.408C171.346 118.905 173.227 121.168 174.389 123.197C175.36 124.896 175.516 127.974 174.857 132.43C174.267 136.435 173.487 139.236 172.516 140.831C171.822 141.993 169.742 143.094 166.274 144.134C163.656 144.932 161.375 145.435 159.433 145.643C158.497 145.747 157.361 144.542 156.026 142.027C154.344 138.889 153.339 137.155 153.009 136.826C149.871 133.687 148.709 131.104 149.524 129.075C149.871 128.191 150.755 126.205 152.177 123.119L154.622 117.579C155.679 114.787 158.428 113.149 162.867 112.663C164.011 112.524 165.97 113.773 168.745 116.408Z" fill="#A586BC"/>
<path d="M169.187 139.609C171.094 139.348 172.516 139.002 173.452 138.568C173.123 139.609 172.811 140.363 172.516 140.831C171.822 141.993 169.742 143.094 166.274 144.134C163.656 144.932 161.375 145.435 159.433 145.643C158.497 145.747 157.361 144.542 156.026 142.027C154.344 138.889 153.339 137.155 153.009 136.826C149.871 133.687 148.709 131.104 149.524 129.075C149.853 128.243 150.694 126.353 152.047 123.405L154.492 117.865C154.075 121.853 155.246 126.725 158.003 132.482C159.13 134.84 160.292 136.756 161.488 138.23C162.702 139.739 163.682 140.424 164.427 140.285L169.187 139.609Z" fill="#8F75A3"/>
<path d="M177.588 116.512L184.272 118.723C183.908 119.452 183.37 120.266 182.659 121.168C181.758 122.278 181.004 122.893 180.397 123.015C179.842 123.119 179.244 122.2 178.602 120.258L177.588 116.512Z" fill="#B4B4B5"/>
<path d="M196.574 112.247L196.652 116.174C196.618 117.891 196.375 118.81 195.924 118.931L194.494 118.957C194.147 118.888 193.462 118.645 192.439 118.229C191.676 117.9 192.135 116.807 193.817 114.952L196.574 112.247Z" fill="#DBDCDC"/>
<path d="M183.752 78.8254C184.237 79.5709 185.052 80.5766 186.197 81.8424L189.578 85.5097C192.699 89.0816 195.118 92.7836 196.834 96.6156C198.811 101.089 199.418 104.895 198.655 108.034C198.031 110.513 196.297 113.183 193.453 116.044C189.274 120.206 183.544 120.093 176.261 115.706C174.128 114.423 172.655 112.481 171.84 109.88L171.007 106.577C170.661 105.277 170.27 104.228 169.837 103.43C168.259 100.465 167.141 98.0461 166.482 96.1734C165.372 93.139 165.103 90.8329 165.676 89.255L167.704 73.2074C170.27 71.6469 173.157 71.4821 176.365 72.7132C179.4 73.875 181.862 75.9123 183.752 78.8254Z" fill="#A586BC"/>
<path d="M173.062 84.8074C172.646 85.6917 172.863 88.0759 173.712 91.9599C174.649 96.3295 176.001 100.335 177.77 103.976C179.989 108.554 182.495 111.692 185.286 113.391C188.702 115.472 192.37 115.273 196.288 112.793C195.647 113.677 194.702 114.761 193.453 116.044C189.274 120.206 183.544 120.093 176.261 115.706C174.128 114.423 172.655 112.481 171.84 109.88L171.007 106.577C170.661 105.277 170.27 104.228 169.837 103.43C168.259 100.465 167.141 98.046 166.482 96.1734C165.372 93.139 165.103 90.8329 165.676 89.255L173.062 84.8074Z" fill="#8F75A3"/>
<path d="M192.569 113.834C192.985 114.371 192.855 115.819 192.179 118.177C191.503 120.535 190.826 121.853 190.15 122.13C189.456 122.408 188.416 121.775 187.029 120.232C185.59 118.671 184.81 117.241 184.688 115.94C184.549 114.64 185.65 113.721 187.991 113.183C190.297 112.628 191.823 112.845 192.569 113.834Z" fill="#DBDCDC"/>
<path d="M184.688 115.94C184.619 115.403 184.836 114.9 185.338 114.432C185.772 114.016 186.387 113.678 187.185 113.417C187.584 116.989 188.563 119.894 190.124 122.13C189.43 122.373 188.39 121.732 187.003 120.206C185.581 118.645 184.81 117.223 184.688 115.94Z" fill="#B4B4B5"/>
<path d="M170.903 89.5151C169.759 90.2087 168.407 90.33 166.846 89.8792C165.788 89.5844 164.826 89.1076 163.959 88.4487L166.248 72.3231C169.958 73.8663 172.23 76.3892 173.062 79.8917C174.207 84.7814 173.487 87.9892 170.903 89.5151Z" fill="#A586BC"/>
<path d="M169.525 85.5357C171.137 86.3853 172.447 86.2119 173.452 85.0155C173.435 86.2293 173.236 87.1656 172.854 87.8245C172.49 88.3967 171.84 88.9602 170.903 89.5151C169.759 90.2087 168.407 90.3301 166.846 89.8792C165.788 89.5845 164.826 89.1076 163.959 88.4487L165.832 81.9985C166.941 83.6457 168.172 84.8248 169.525 85.5357Z" fill="#8F75A3"/>
<path d="M165.077 70.8406C167.21 73.2854 168.086 76.3978 167.704 80.1778C167.253 84.7901 165.832 87.8938 163.439 89.4891C161.982 90.4774 160.283 90.8415 158.341 90.5814L155.48 75.7303L160.214 68.9419C160.768 68.5258 161.505 68.4911 162.424 68.8379C163.361 69.202 164.245 69.8695 165.077 70.8406Z" fill="#A586BC"/>
<path d="M155.48 75.7303L156.598 74.1177C160.274 82.0765 163.863 84.8508 167.366 82.4406C166.655 86.0645 165.19 88.5007 162.971 89.7492C161.601 90.5294 160.058 90.8069 158.341 90.5814L155.48 75.7303Z" fill="#8F75A3"/>
<path d="M190.436 13.6206C188.668 15.6493 186.786 19.3513 184.792 24.7265L161.202 38.9795L153.191 32.9974C154.821 32.1131 156.529 30.2231 158.315 27.3274C159.962 24.6398 161.003 22.273 161.436 20.2269C161.783 18.6317 162.971 17.2532 164.999 16.0915C166.161 15.4326 168.008 14.5916 170.539 13.5686C172.204 12.8057 174.831 11.2971 178.42 9.04301C181.871 6.89293 184.09 5.3844 185.078 4.51743C186.275 3.51175 186.942 3.58977 187.081 4.75151C187.254 6.156 186.353 8.80026 184.376 12.6843C185.677 12.4762 187.02 12.1121 188.408 11.5919L190.696 10.6816C191.199 10.5082 191.494 10.6903 191.581 11.2278C191.667 11.852 191.286 12.6496 190.436 13.6206Z" fill="#A586BC"/>
<path d="M170.539 13.5686L176.807 10.2134C179.651 8.53149 182.157 6.83223 184.324 5.11563C185.694 5.77453 184.714 7.3264 181.385 9.77126C178.541 11.852 173.34 15.0251 165.78 19.2906C165.294 19.568 164.8 20.487 164.297 22.0475L162.893 27.1713C161.488 32.2691 159.936 35.5029 158.237 36.8727L153.061 33.0754C154.708 32.1737 156.46 30.3271 158.315 27.5354C160.049 24.8652 161.133 22.5417 161.566 20.565C161.913 18.9525 163.075 17.522 165.051 16.2735C165.641 15.9094 167.47 15.0077 170.539 13.5686Z" fill="#8F75A3"/>
<path d="M184.688 25.9229C182.85 32.2518 180.605 36.812 177.952 39.6037C175.403 42.2913 171.276 44.5887 165.572 46.4961L158.809 33.9857C161.93 26.4951 166.681 21.2153 173.062 18.1462C177.536 15.9961 180.839 15.2592 182.972 15.9354C185.798 16.8197 186.37 20.1489 184.688 25.9229Z" fill="#00ACA8"/>
<path d="M183.622 16.1955C180.83 17.548 178.143 19.8628 175.559 23.1399C173.27 26.0356 171.372 29.252 169.863 32.7893C168.441 36.1705 167.713 39.0054 167.678 41.2942C167.661 43.7218 168.459 44.8922 170.071 44.8055L165.572 46.4961L158.809 34.2458C161.375 26.8592 166.126 21.4927 173.062 18.1462C178.021 15.7533 181.541 15.1031 183.622 16.1955Z" fill="#009693"/>
<path d="M178.68 21.0852C177.917 25.1946 176.937 28.4111 175.741 30.7346C173.366 35.4162 169.655 38.9621 164.609 41.3723L159.407 32.8673C162.858 24.9432 167.938 19.8628 174.649 17.626C176.417 17.5046 177.492 17.5219 177.874 17.678C178.758 18.0768 179.027 19.2125 178.68 21.0852Z" fill="#008086"/>
<path d="M174.649 17.626L177.406 17.548C178.238 17.6867 178.706 18.2242 178.81 19.1605C176.14 21.6574 173.851 24.7872 171.944 28.5498C170.366 31.6536 168.979 35.3382 167.782 39.6037L164.609 41.3723L159.277 33.0754C160.404 30.4571 161.713 28.1597 163.205 26.183C166.378 21.9695 170.192 19.1172 174.649 17.626Z" fill="#00666C"/>
<path d="M88.7927 48.8109C89.0181 46.8342 88.1598 43.9992 86.2178 40.3059C84.0504 36.63 82.7846 34.3932 82.4205 33.5956C81.935 32.4859 81.8916 31.6362 82.2904 31.0467C82.6719 30.5265 83.1661 30.4138 83.7729 30.7086C84.4838 31.0727 89.4082 33.9597 98.5461 39.3696L114.88 45.0136L130.017 51.4898L143.126 84.5474L110.874 68.6298L88.7927 48.8109Z" fill="#A586BC"/>
<path d="M88.7927 48.8109C89.0181 46.8342 88.1599 43.9992 86.2178 40.3059C84.0504 36.63 82.7846 34.3932 82.4205 33.5956C82.0911 32.8673 81.9697 32.2518 82.0564 31.7489C82.1778 31.4195 83.9984 32.772 87.5183 35.8063C91.8185 38.8928 95.7372 40.1585 99.2744 39.6037L114.88 45.0136L130.017 51.4898L143.126 84.5473L110.874 68.6298L88.7927 48.8109Z" fill="#8F75A3"/>
<path d="M103.306 72.9473L92.6421 101.687L61.0671 104.496C61.1885 102.658 62.2375 100.101 64.2142 96.8237C65.8788 94.0667 67.3266 92.0813 68.5577 90.8676C68.7658 89.8099 68.4883 86.6715 67.7254 81.4523L66.477 73.2074C66.477 70.3638 67.2659 69.6182 68.8438 70.9706L73.8375 74.898C76.265 76.684 77.7129 77.4556 78.1811 77.2128C78.6666 76.9701 78.97 75.4182 79.0914 72.5572C79.1781 70.1297 79.1347 67.7629 78.9613 65.4567L103.306 72.9473Z" fill="#A586BC"/>
<path d="M99.7166 87.2263C94.3414 89.2897 90.5267 91.171 88.2726 92.8703C85.2555 95.1244 82.7587 98.4102 80.782 102.728L61.0671 104.496C61.0151 102.589 62.0208 100.005 64.0842 96.7456C65.662 94.2141 67.1532 92.2547 68.5577 90.8676C68.7658 89.8099 68.4884 86.6715 67.7254 81.4523L66.477 73.2074C66.477 70.3638 67.2659 69.6182 68.8438 70.9706L73.8376 74.898C76.2651 76.684 77.7129 77.4556 78.1811 77.2128C78.6666 76.9701 78.97 75.4182 79.0914 72.5572C79.1781 70.1297 79.1347 67.7629 78.9614 65.4567L103.306 72.9473L99.7166 87.2263Z" fill="#8F75A3"/>
<path d="M92.59 149.934L92.2519 138.308C95.8411 140.909 99.7425 142.73 103.956 143.77C107.32 144.585 110.874 145.122 114.62 145.383C118.313 145.643 122.379 145.651 126.818 145.409C121.269 147.576 115.487 149.076 109.47 149.908C103.176 150.792 97.5491 150.801 92.59 149.934Z" fill="#A586BC"/>
<path d="M152.827 97.7079C151.353 100.066 150.426 101.679 150.044 102.546C149.489 103.777 148.96 105.58 148.457 107.955C148.267 108.892 148.397 110.288 148.848 112.143C149.437 114.588 149.775 116.374 149.862 117.501C150.295 122.703 148.223 128.347 143.646 134.433C142.103 136.496 139.831 138.499 136.831 140.441C133.97 142.261 130.633 143.917 126.818 145.409C122.379 145.651 118.313 145.643 114.62 145.383C110.874 145.122 107.32 144.585 103.956 143.77C99.7425 142.73 95.8411 140.909 92.2519 138.308L91.1075 99.3725L152.827 97.7079Z" fill="#CCCCCC"/>
<path d="M91.1075 99.3725L122.604 98.5142C119.952 100.3 117.359 102.65 114.828 105.563C112.175 108.649 110.025 111.883 108.378 115.264C104.372 123.466 104.233 130.263 107.961 135.655C110.198 138.742 113.319 140.866 117.325 142.027C120.602 142.981 125.023 143.406 130.589 143.302C129.67 143.874 128.5 144.481 127.078 145.122C123.125 145.383 119.145 145.391 115.14 145.148C110.718 144.888 106.834 144.351 103.488 143.536C100.523 142.808 96.7861 141.334 92.2779 139.114L91.1075 99.3725Z" fill="#999999"/>
<path d="M92.5901 149.934L92.278 139.114C96.7862 141.334 100.523 142.808 103.488 143.536C106.834 144.351 110.718 144.888 115.14 145.148C119.145 145.391 123.125 145.383 127.078 145.122C122.258 147.273 116.406 148.816 109.522 149.752C102.794 150.671 97.1503 150.732 92.5901 149.934Z" fill="#8F75A3"/>
<path d="M91.1335 98.2541L94.2286 95.133L97.8439 86.2639L155.792 92.09C154.665 93.6332 153.512 95.4711 152.333 97.6039C149.975 101.869 148.674 105.459 148.432 108.372C148.137 111.944 147.972 114.388 147.937 115.706C146.88 113.591 144.86 111.727 141.877 110.114C139.432 108.779 136.727 107.791 133.762 107.149C131.751 106.733 127.876 107.747 122.136 110.192L115.348 113.209C112.834 114.319 110.952 115.065 109.704 115.446C107.068 116.244 104.138 115.724 100.913 113.886C98.3987 112.446 96.8729 111.181 96.3354 110.088L91.1335 98.2541Z" fill="#DBDCDC"/>
<path d="M91.2116 98.1761L94.4107 94.7949L98.026 86.6801L155.792 92.09L153.737 95.2111C152.177 97.7426 150.937 100.127 150.018 102.364C149.914 101.601 148.423 100.725 145.545 99.7366C142.198 98.5922 138.565 98.02 134.647 98.02C123.22 97.968 113.649 102.71 105.933 112.247L104.684 114.068C104.338 114.727 104.398 115.203 104.866 115.498C102.942 115.03 101.026 114.094 99.1184 112.689C97.5925 111.579 96.6648 110.712 96.3354 110.088L91.2116 98.1761Z" fill="#B4B4B5"/>
<path d="M146.585 100.751C145.631 101.237 143.325 100.82 139.666 99.5026C136.389 98.3408 134.152 97.3265 132.956 96.4595C132.158 95.8873 132.401 93.6505 133.684 89.7492C134.621 86.9402 135.54 84.6341 136.441 82.8308C136.788 82.1372 137.438 81.5216 138.392 80.9841C138.843 80.7067 139.614 80.3425 140.707 79.8917L157.561 75.08C159.052 76.8833 159.875 79.0941 160.032 81.7124C160.222 84.7814 159.442 88.0586 157.691 91.5438C156.113 94.6996 154.067 97.0404 151.553 98.5662C150.738 99.0517 149.784 99.5026 148.692 99.9187L146.585 100.751Z" fill="#DBDCDC"/>
<path d="M146.897 80.5159C144.4 82.0245 142.744 83.1862 141.929 84.0011C141.028 85.3536 140.282 87.5991 139.692 90.7375C139.103 93.8066 139.042 95.6012 139.51 96.1214C140.585 97.3351 142.12 98.4709 144.114 99.5286L146.585 100.751C145.631 101.236 143.325 100.82 139.666 99.5026C136.389 98.3408 134.152 97.3265 132.956 96.4595C132.158 95.8873 132.401 93.6505 133.684 89.7492C134.621 86.9402 135.54 84.634 136.441 82.8307C136.788 82.1372 137.438 81.5216 138.392 80.9841C138.843 80.7067 139.614 80.3425 140.707 79.8917L151.943 76.6926C150.972 77.785 149.29 79.0594 146.897 80.5159Z" fill="#B4B4B5"/>
<path d="M102.343 96.5115C99.8118 94.3788 97.9045 92.4974 96.6214 90.8675C95.6851 89.6711 95.1562 87.5384 95.0348 84.4693C94.9135 81.4349 95.2602 79.1114 96.0752 77.4989L114.256 66.0029C115.556 67.1473 119.813 69.8175 127.026 74.0137C133.251 77.6376 136.563 80.0478 136.961 81.2442C137.447 82.6487 137.083 85.1889 135.869 88.8648C134.863 91.8992 133.892 94.1707 132.956 95.6792C132.332 96.6849 128.717 97.864 122.11 99.2165C115.677 100.517 111.455 101.028 109.444 100.751C107.779 100.508 105.412 99.0951 102.343 96.5115Z" fill="#DBDCDC"/>
<path d="M114.256 66.0029C115.573 67.1819 118.348 68.9939 122.578 71.4388C117.689 72.3057 114.741 72.8953 113.735 73.2074C110.632 74.1437 108.351 75.6089 106.895 77.6029C106.011 79.1461 106.149 82.718 107.311 88.3187C108.421 93.7979 109.487 96.7889 110.51 97.2918C112.036 98.0547 114.091 98.5229 116.674 98.6963L123.125 99.0084C120.246 99.6153 117.524 100.092 114.958 100.439L109.444 100.751C107.779 100.508 105.412 99.0951 102.343 96.5115C99.8118 94.3788 97.9045 92.4974 96.6214 90.8675C95.6851 89.6711 95.1562 87.5384 95.0348 84.4693C94.9135 81.4349 95.2602 79.1114 96.0752 77.4989L114.256 66.0029Z" fill="#B4B4B5"/>
<path d="M94.0206 100.725C95.2864 103.517 96.1967 106.906 96.7516 110.895C97.2544 114.657 97.3498 118.186 97.0377 121.48C96.7256 124.879 96.0493 127.237 95.0089 128.555L55.9953 118.385C55.7873 117.969 55.9347 116.833 56.4375 114.978C56.9924 112.984 57.7986 110.869 58.8563 108.632C61.6827 102.546 65.0205 98.2801 68.8698 95.8353C72.6498 93.4251 76.6639 92.4021 80.912 92.7662C82.9407 92.9396 85.5937 93.6418 88.8708 94.8729C90.8822 95.6359 92.5988 97.5866 94.0206 100.725Z" fill="#A586BC"/>
<path d="M81.9784 96.1474C80.4699 97.7773 79.1261 100.031 77.947 102.91C76.7853 105.788 75.9963 108.744 75.5802 111.779C75.1467 115.056 75.2421 117.926 75.8663 120.388L55.9953 118.385C55.7873 117.969 55.9347 116.833 56.4375 114.978C56.9924 112.984 57.7986 110.869 58.8563 108.632C61.6827 102.546 65.0205 98.2802 68.8698 95.8353C71.9216 93.8933 74.6525 92.8356 77.0627 92.6622C78.814 92.5235 82.0131 92.9223 86.66 93.8586C85.1515 93.6159 83.591 94.3788 81.9784 96.1474Z" fill="#8F75A3"/>
<path d="M78.6752 161.352C79.8889 163.468 80.6085 165.453 80.8339 167.308C79.6549 169.944 77.1493 171.808 73.3173 172.9C69.572 173.975 65.5319 174.036 61.1971 173.082C57.3304 172.233 54.0012 170.022 51.2096 166.45C50.0999 165.028 49.2763 163.606 48.7387 162.184C48.2012 160.832 48.0365 159.774 48.2446 159.011C49.493 157.52 51.2356 156.15 53.4724 154.902C57.946 152.422 62.6623 151.824 67.6213 153.107C72.5804 154.39 76.265 157.139 78.6752 161.352Z" fill="#DBDCDC"/>
<path d="M55.8652 162.887C56.16 166.545 57.4778 169.822 59.8186 172.718C56.2987 171.574 53.3077 169.328 50.8455 165.982C48.6434 162.982 47.7764 160.659 48.2446 159.011C48.8688 158.266 49.7618 157.451 50.9235 156.566C53.2643 154.798 55.7699 153.593 58.4401 152.951C56.3941 155.795 55.5358 159.107 55.8652 162.887Z" fill="#B4B4B5"/>
<path d="M51.9638 123.457C52.7615 121.55 54.6775 119.373 57.7119 116.929L63.4599 112.767L91.3676 121.116C92.3733 122.365 93.1882 123.864 93.8124 125.616C94.3153 127.055 94.7314 128.806 95.0609 130.869C95.425 133.158 94.8441 138.005 93.3183 145.409C91.8791 152.466 91.3763 156.644 91.8097 157.945C92.9541 161.395 93.587 163.528 93.7084 164.343C93.8991 165.505 93.6217 166.398 92.8761 167.022C92.0785 167.681 90.2405 167.967 87.3622 167.88C84.5012 167.794 82.3251 167.404 80.8339 166.71C80.2444 166.45 79.6028 165.921 78.9092 165.123L76.7765 162.679C74.4877 160.355 71.3233 158.613 67.2832 157.451C63.0697 156.22 58.5875 156.228 53.8365 157.477C52.38 157.841 50.8021 158.361 49.1028 159.037L46.3719 160.078C45.2102 160.372 43.849 160.13 42.2885 159.349C40.5892 158.5 39.3668 157.321 38.6212 155.812C37.9623 154.494 38.5605 152.908 40.4158 151.053C42.774 149.059 44.3085 147.611 45.0194 146.709C45.8344 145.703 47.0308 142.062 48.6087 135.785C50.412 128.659 51.5304 124.549 51.9638 123.457Z" fill="#A586BC"/>
<path d="M51.9638 123.457C52.7615 121.55 54.6775 119.373 57.7119 116.929L63.4599 112.767L75.398 139.687C73.6814 142.842 70.8118 145.391 66.789 147.333C65.4365 147.975 62.6102 148.972 58.3101 150.324C56.4201 150.914 55.0503 151.894 54.2006 153.263C53.351 154.616 53.1863 156.029 53.7065 157.503C52.2846 157.884 50.7414 158.404 49.0768 159.063L46.3719 160.078C45.2102 160.372 43.849 160.13 42.2885 159.349C40.5892 158.5 39.3668 157.321 38.6212 155.812C37.9623 154.494 38.5605 152.908 40.4158 151.053C42.774 149.059 44.3085 147.611 45.0194 146.709C45.8344 145.703 47.0308 142.062 48.6087 135.785C50.412 128.659 51.5304 124.549 51.9638 123.457Z" fill="#8F75A3"/>
<path d="M72.485 101.817C73.7508 100.881 76.1783 100.777 79.7676 101.505C82.6806 102.095 84.7093 102.728 85.8537 103.404C86.8941 104.028 87.8564 105.337 88.7407 107.331C90.0065 110.21 90.7607 113.981 91.0035 118.645C91.2289 123.414 89.7811 128.312 86.66 133.34C85.4462 135.3 84.1371 136.99 82.7326 138.412C81.4322 139.747 80.3571 140.554 79.5075 140.831C77.7909 141.403 75.4414 141.403 72.459 140.831C69.2686 140.224 66.7197 139.158 64.8124 137.632C62.9917 136.175 61.7346 132.881 61.041 127.748C60.4168 123.171 60.4255 119.608 61.067 117.059C61.5525 115.099 63.2518 112.273 66.1648 108.58C68.7831 105.233 70.8898 102.979 72.485 101.817Z" fill="#A586BC"/>
<path d="M72.485 101.817C73.6814 100.95 75.8575 100.803 79.0133 101.375C72.1816 105.814 68.0722 111.805 66.685 119.347C66.1648 122.122 66.0608 124.922 66.3729 127.748C66.633 130.037 67.0925 131.936 67.7514 133.444C68.653 135.508 70.1962 137.077 72.381 138.152L78.7012 141.039C76.8112 141.421 74.5224 141.308 71.8348 140.701C68.9044 140.059 66.5636 139.036 64.8124 137.632C62.9917 136.175 61.7346 132.881 61.041 127.748C60.4168 123.171 60.4255 119.608 61.067 117.059C61.5525 115.099 63.2518 112.273 66.1648 108.58C68.7831 105.233 70.8898 102.979 72.485 101.817Z" fill="#8F75A3"/>
<path d="M104.892 48.3687C107.805 50.1547 110.181 52.8943 112.019 56.5876C113.926 60.4023 114.49 63.8094 113.709 66.8092C112.842 70.173 110.909 72.9907 107.909 75.2621C104.563 77.7763 100.878 78.7213 96.8555 78.0971C92.7981 77.4729 89.5383 76.0944 87.0761 73.9617C84.8913 72.0717 83.4348 69.6875 82.7065 66.8092L89.9371 49.9553C90.9427 48.4294 92.9541 47.3977 95.9712 46.8602C99.335 46.2707 102.309 46.7735 104.892 48.3687Z" fill="#A586BC"/>
<path d="M89.9371 49.9553C90.3359 49.3657 90.9861 48.8109 91.8877 48.2907C92.8067 47.7705 93.8644 47.363 95.0609 47.0683C93.691 48.1086 93.1882 50.4581 93.5523 54.1167C93.8991 57.4806 94.8614 61.0698 96.4393 64.8845C98.0866 68.8379 99.8985 71.8029 101.875 73.7796C104.147 76.0337 106.193 76.4932 108.013 75.1581C106.453 76.3718 104.762 77.2301 102.942 77.733C100.965 78.3052 98.9362 78.4265 96.8555 78.0971C92.7981 77.4729 89.5383 76.0944 87.0761 73.9616C84.8913 72.0717 83.4348 69.6875 82.7065 66.8092L89.9371 49.9553Z" fill="#8F75A3"/>
<path d="M91.0035 69.7482C89.2176 69.5401 86.3739 68.5951 82.4725 66.9132L77.1407 64.4683L80.834 46.7562C83.0187 46.8775 86.1485 47.7879 90.2232 49.4871C94.1419 51.1344 96.7168 52.5389 97.9479 53.7006C99.127 54.8103 99.8553 56.3362 100.133 58.2782C100.41 60.1335 100.228 61.9888 99.5865 63.8441C98.9276 65.7688 97.8959 67.2687 96.4914 68.3437C94.9135 69.5401 93.0842 70.0083 91.0035 69.7482Z" fill="#A586BC"/>
<path d="M88.0125 61.9975C90.7694 63.5407 94.402 64.7371 98.9103 65.5867C98.2167 67.2166 97.237 68.3697 95.9713 69.0459C94.6708 69.7569 93.0149 69.9909 91.0035 69.7482C89.2176 69.5401 86.3739 68.5951 82.4725 66.9132L77.1407 64.4683L82.4205 54.4809C82.5072 57.4806 84.3712 59.9861 88.0125 61.9975Z" fill="#8F75A3"/>
<path d="M73.0832 33.1274C74.2796 33.4222 75.346 34.766 76.2823 37.1588C76.8025 38.5113 77.4354 40.5486 78.181 43.2709L42.0544 41.1902C48.4873 37.7743 55.1283 35.3728 61.9773 33.9857C67.3005 32.9107 71.0025 32.6246 73.0832 33.1274Z" fill="#DBDCDC"/>
<path d="M60.8589 34.2198C56.4894 36.1271 52.8048 38.598 49.8051 41.6324L42.0544 41.1902C48.0538 37.9998 54.322 35.6763 60.8589 34.2198Z" fill="#B4B4B5"/>
<path d="M19.9467 80.5419C17.0857 82.2759 15.2044 83.2209 14.3027 83.3769C13.4878 83.5156 13.3664 81.8597 13.9386 78.4092C14.4414 75.2534 15.0917 72.7219 15.8893 70.8145L27.3853 77.2128C25.3392 77.6463 22.8597 78.756 19.9467 80.5419Z" fill="#B4B4B5"/>
<path d="M82.4464 51.8279C82.325 55.7293 81.38 58.9891 79.6114 61.6073C78.0335 63.9308 76.1522 65.3093 73.9675 65.7428C71.8174 66.1763 69.0691 67.0259 65.7226 68.2917C62.168 69.6442 59.4977 70.8926 57.7118 72.037C56.2553 72.9733 54.2699 75.1494 51.7557 78.5653L46.814 85.1195C45.5482 86.368 44.1437 87.2089 42.6005 87.6424C40.9533 88.1106 39.3581 88.0239 37.8148 87.3823L32.9251 85.3536C31.1218 84.4 29.7954 83.1082 28.9458 81.4783C28.6163 80.8541 28.3562 79.9871 28.1655 78.8774L27.9574 77.3949L23.0937 76.8487C20.6315 76.2938 18.6808 74.9067 17.2417 72.6872C14.9702 69.202 14.268 65.3006 15.1349 60.9831C16.262 55.4172 20.068 50.7962 26.5529 47.1203C33.1419 43.4097 41.2741 40.9648 50.9494 39.7857C59.203 38.7801 65.5145 38.8754 69.884 40.0718C73.6467 41.1122 76.3776 42.2046 78.0769 43.349C81.1113 45.395 82.5678 48.2213 82.4464 51.8279Z" fill="#A586BC"/>
<path d="M26.5529 47.1203C27.8707 46.392 29.1798 45.7418 30.4803 45.1696C25.0357 49.3484 21.8713 53.8653 20.987 58.7203C20.5882 60.8704 20.7529 62.7778 21.4812 64.4423C22.2094 66.1243 23.4318 67.3554 25.1484 68.1356C26.3622 68.6905 27.3592 68.9332 28.1395 68.8639C28.6597 68.8119 29.544 68.4998 30.7924 67.9275C30.8964 68.9332 30.4716 70.5111 29.518 72.6612C28.3389 75.3315 27.6886 76.9007 27.5673 77.3688C22.5215 77.1088 19.0796 75.5482 17.2417 72.6872C14.9702 69.202 14.268 65.3006 15.1349 60.9831C16.262 55.4172 20.068 50.7962 26.5529 47.1203Z" fill="#8F75A3"/>
<path d="M37.8149 87.3823C35.8035 86.6541 34.321 86.0472 33.3673 85.5617C31.6854 84.7294 30.4023 83.6804 29.518 82.4146C30.4717 82.4666 31.5987 82.2499 32.8992 81.7644L36.2544 80.2818C38.9593 79.1028 40.9273 78.9901 42.1584 79.9437C42.8 80.4466 43.8143 79.9004 45.2015 78.3051C48.1318 74.9413 50.0999 72.7912 51.1055 71.8549C58.7002 64.7631 68.9391 60.3762 81.8223 58.6943C80.9206 60.7057 79.6201 62.3789 77.9209 63.7141C76.5511 64.8064 75.2333 65.4827 73.9675 65.7428C71.8174 66.1762 69.0691 67.0259 65.7226 68.2917C62.1681 69.6441 59.4978 70.8926 57.7118 72.037C56.2553 72.9733 54.1919 75.1754 51.5217 78.6433L46.3459 85.2756C43.6583 87.9285 40.8146 88.6308 37.8149 87.3823Z" fill="#8F75A3"/>
<path d="M18.5682 56.3795C19.1578 56.1194 19.7647 56.3448 20.3889 57.0558C20.9958 57.7667 21.4726 58.755 21.8194 60.0208C22.6517 63.1939 22.2789 66.0809 20.701 68.6818L13.0543 71.0226C9.8292 72.063 8.19063 72.0977 8.13861 71.1267C7.99989 68.6471 9.20498 65.7428 11.7539 62.4136C14.0947 59.3619 16.3661 57.3505 18.5682 56.3795Z" fill="#DBDCDC"/>
<path d="M14.3028 63.454C11.7886 65.344 9.78586 67.286 8.29468 69.28C8.78018 66.8525 10.1847 64.2603 12.5081 61.5033C14.6582 58.9371 16.6783 57.2291 18.5683 56.3795C19.0538 56.1714 19.5566 56.2928 20.0768 56.7436C20.597 57.1945 21.0391 57.8794 21.4033 58.7983C18.4209 60.5843 16.0541 62.1362 14.3028 63.454Z" fill="#B4B4B5"/>
<path d="M31.3906 76.9527C31.9802 76.3111 32.9338 76.0944 34.2516 76.3024C35.4827 76.4932 36.7225 76.996 37.9709 77.811C39.2541 78.6606 40.173 79.6143 40.7279 80.672C41.3348 81.8684 41.3261 83.0041 40.7019 84.0792C39.4535 86.1772 37.0346 88.0585 33.4454 89.7231C29.9948 91.301 28.0268 91.6738 27.5413 90.8415C27.1598 90.1653 27.5326 87.8765 28.6597 83.9751C29.7521 80.1084 30.6624 77.7676 31.3906 76.9527Z" fill="#DBDCDC"/>
<path d="M34.0436 89.411C36.7312 86.9835 38.8379 83.8711 40.3638 80.0738C41.3175 81.4956 41.4302 82.8308 40.7019 84.0792C40.1124 85.0675 39.1847 86.0559 37.9189 87.0442C36.7919 87.9285 35.5001 88.7175 34.0436 89.411Z" fill="#B4B4B5"/>
<path d="M112.097 48.1606C113.241 46.4614 114.204 45.291 114.984 44.6494L160.084 68.6818C159.719 71.3521 158.87 73.7362 157.535 75.8343C156.113 78.0364 154.327 79.6403 152.177 80.646C147.079 82.9868 141.21 81.5823 134.569 76.4325C132.575 74.8893 130.147 72.1843 127.286 68.3177L122.813 61.9975C122.362 61.4253 121.174 61.0178 119.249 60.775L114.672 60.3849C114.966 59.4486 115.703 58.2868 116.882 56.8997C118.235 55.3218 119.596 54.1601 120.966 53.4145L116.518 52.7642C113.259 52.4001 110.9 52.4435 109.444 52.8943C110.12 51.3858 111.004 49.8079 112.097 48.1606Z" fill="#A586BC"/>
<path d="M112.071 48.0566C113.198 46.4614 114.169 45.3256 114.984 44.6494L127.13 50.7355C127.095 52.0707 127.104 53.0157 127.156 53.5705C127.243 54.5589 127.477 55.6079 127.858 56.7176C126.783 57.1338 126.09 58.4776 125.778 60.749C125.483 62.7604 125.543 64.6677 125.96 66.471L122.813 61.9975C122.362 61.4253 121.174 61.0178 119.249 60.775L114.672 60.3849C114.966 59.4486 115.703 58.2868 116.882 56.8997C118.235 55.3218 119.596 54.1601 120.966 53.4145L116.466 52.6342C113.172 52.2007 110.796 52.2094 109.34 52.6602C110.016 51.2037 110.926 49.6692 112.071 48.0566Z" fill="#8F75A3"/>
<path d="M159.953 68.6818C159.693 70.7452 159.147 72.5572 158.315 74.1177L153.893 72.063L149.498 69.9043L152.515 68.3177C153.659 67.6588 154.604 66.9566 155.35 66.211L159.953 68.6818Z" fill="#8F75A3"/>
<path d="M154.986 75.4442C153.096 77.0394 150.564 77.8977 147.391 78.0191C143.195 78.1925 139.502 75.8517 136.311 70.9966C134.022 67.5288 132.462 63.8181 131.63 59.8648C131.37 58.6163 135.878 59.8387 145.154 63.532C149.801 65.3873 154.466 67.364 159.147 69.4621C157.743 72.2884 156.356 74.2825 154.986 75.4442Z" fill="#ED8599"/>
<path d="M159.147 69.4621C158.367 71.04 157.63 72.3144 156.936 73.2854C154.665 71.6035 151.865 70.7279 148.536 70.6585C145.12 70.5718 141.539 71.3521 137.794 72.9993C136.216 71.092 134.829 68.7425 133.632 65.9509C132.696 63.7661 132.028 61.7374 131.63 59.8648C131.37 58.6163 135.878 59.8387 145.154 63.532C149.801 65.3873 154.466 67.364 159.147 69.4621Z" fill="#CE7486"/>
<path d="M157.795 72.2971C157.379 72.7132 157.023 72.8519 156.728 72.7132C156.572 72.6612 156.338 72.4444 156.026 72.063C156.096 71.6989 156.364 71.17 156.832 70.4764L157.535 69.5401C157.934 70.8752 158.02 71.7942 157.795 72.2971Z" fill="#DBDCDC"/>
<path d="M156.624 73.7276C156.208 74.1438 155.853 74.2825 155.558 74.1438L154.856 73.4935C154.925 73.1294 155.194 72.6005 155.662 71.907L156.364 70.9706C156.763 72.3058 156.85 73.2248 156.624 73.7276Z" fill="white"/>
<path d="M156.624 72.1671C156.312 72.3751 156.061 72.6699 155.87 73.0514L155.48 74.1177L154.856 73.4935C154.925 73.1294 155.194 72.6005 155.662 71.907L156.364 70.9706L156.624 72.1671Z" fill="#DBDCDC"/>
<path d="M154.934 75.5742C154.188 76.3198 153.486 76.3025 152.827 75.5222C152.896 75.1581 153.217 74.5165 153.789 73.5975L154.622 72.3231C155.055 73.9877 155.159 75.0714 154.934 75.5742Z" fill="white"/>
<path d="M154.622 72.3231L154.674 72.6092C154.171 74.1004 153.885 75.2621 153.815 76.0944C153.486 76.0771 153.156 75.8863 152.827 75.5222C152.896 75.1581 153.217 74.5165 153.789 73.5975L154.622 72.3231Z" fill="#DBDCDC"/>
<path d="M133.268 23.0099C134.551 19.1085 135.522 16.7677 136.181 15.9875C137.048 14.9644 137.837 14.6783 138.548 15.1292C139.172 15.5106 139.649 16.3602 139.979 17.678C140.36 19.2386 141.79 23.4694 144.27 30.3705L145.622 30.5525C147.062 30.8646 149.073 31.4715 151.657 32.3732C154.344 33.3095 156.902 35.0174 159.329 37.497C160.508 38.6934 162.043 40.5747 163.933 43.1409C164.887 44.4414 165.58 45.6378 166.014 46.7302C166.343 47.5451 166.542 48.4034 166.612 49.3051C166.837 52.01 166.664 54.3682 166.092 56.3795C166.23 58.599 166.204 60.2809 166.014 61.4253C165.771 62.7951 165.225 63.9655 164.375 64.9365C163.04 66.4277 161.679 67.7282 160.292 68.8379C158.644 70.1383 157.335 70.8493 156.364 70.9706C155.463 71.0747 154.691 70.8753 154.049 70.3724C152.888 69.2974 151.639 68.205 150.304 67.0953C147.859 65.0839 144.036 63.6101 138.834 62.6737L134.1 61.7634C132.765 61.3993 132.02 60.9051 131.864 60.2809L124.659 54.3508C119.561 50.2241 116.302 47.7792 114.88 47.0163C115.279 43.9992 118.001 40.2713 123.047 35.8324C125.578 33.6303 128.066 31.7229 130.511 30.1104C131.014 29.3995 131.933 27.0326 133.268 23.0099Z" fill="#A586BC"/>
<path d="M138.34 15.0251C137.75 15.1638 137.326 16.0741 137.065 17.756C136.961 18.5016 136.814 20.383 136.623 23.4C136.277 29.122 135.384 32.5552 133.944 33.6996C131.812 35.3989 130.008 38.7714 128.535 43.8171C126.957 49.1403 126.731 53.3625 127.858 56.4835C126.454 57.0384 124.087 55.7553 120.758 52.6342C117.446 49.2183 115.487 47.3457 114.88 47.0162C115.279 43.9992 118.001 40.2712 123.047 35.8323C125.578 33.6302 128.066 31.7229 130.511 30.1103C131.014 29.3994 131.933 27.0326 133.268 23.0099C134.551 19.1085 135.522 16.7677 136.181 15.9874C136.961 15.0858 137.681 14.765 138.34 15.0251Z" fill="#8F75A3"/>
<path d="M172.776 24.5704C173.192 25.4027 173.079 26.4171 172.438 27.6135C170.062 31.6189 167.921 35.3729 166.014 38.8754C162.303 45.6725 160.292 50.2327 159.98 52.5562C159.806 53.874 158.861 54.0301 157.145 53.0244C155.532 52.088 153.876 50.5622 152.177 48.4468C150.356 46.1753 149.229 44.1119 148.796 42.2566C148.293 40.0545 148.934 38.6153 150.72 37.9391C154.015 36.6907 158.081 34.2978 162.919 30.7606C165.519 28.8706 168.129 26.8072 170.747 24.5704C171.684 23.7382 172.36 23.7382 172.776 24.5704Z" fill="#A586BC"/>
<path d="M170.747 24.5704L170.929 24.4144C168.224 29.096 164.765 33.2488 160.552 36.8727C155.783 40.9475 152.29 42.1265 150.07 40.4099C149.186 39.7164 148.83 39.1355 149.004 38.6673C149.142 38.2859 149.619 38.0171 150.434 37.8611C152.896 37.4102 156.798 35.2515 162.138 31.3848C165.242 29.1133 168.112 26.8419 170.747 24.5704Z" fill="#8F75A3"/>
<path d="M142.215 49.4091C144.608 52.2354 145.987 54.3508 146.351 55.7553C144.461 55.4432 142.129 54.5242 139.354 52.9983C136.84 51.6112 135.462 50.6402 135.219 50.0853C135.011 49.6172 135.219 48.8369 135.843 47.7445C136.467 46.6001 137.239 45.6898 138.158 45.0135C139.008 45.7245 140.36 47.1896 142.215 49.4091Z" fill="white"/>
<path d="M141.669 50.4494C140.091 48.8195 138.418 47.5451 136.649 46.6261L137.352 45.7418C137.612 45.4124 137.881 45.1696 138.158 45.0135C139.372 46.0019 140.794 47.4757 142.423 49.4351C144.608 52.0187 145.917 54.1254 146.351 55.7553L145.31 55.5212C144.374 53.7006 143.16 52.01 141.669 50.4494Z" fill="#DBDCDC"/>
<path d="M127.234 27.1713C129.297 29.1133 131.656 30.7519 134.309 32.087C135.488 32.6766 136.147 33.2314 136.285 33.7516C136.407 34.2371 136.112 34.6186 135.401 34.896C133.719 35.5202 131.526 35.3815 128.821 34.4799C127.225 33.9424 120.741 32.6939 109.366 30.7346L92.7721 27.9256L92.1219 26.8592C91.515 26.0443 90.7954 25.342 89.9631 24.7525C89.0094 24.0762 88.4979 23.5474 88.4286 23.1659C88.3765 22.8712 88.6193 22.1949 89.1568 21.1372C89.625 20.2009 89.5903 18.597 89.0528 16.3255C88.5673 14.2275 87.9344 12.6236 87.1541 11.5139C86.7727 10.959 85.715 9.988 83.981 8.60085C82.6112 7.50847 81.9957 6.74553 82.1344 6.31205C82.5679 5.04627 84.5706 4.97692 88.1425 6.10398C90.6914 6.90159 95.0609 7.99397 101.251 9.38112L101.433 5.40173C101.659 2.69679 101.979 1.25762 102.395 1.08423C102.656 0.98019 103.02 1.45702 103.488 2.51473C104.268 4.266 105.438 5.99994 106.999 7.71654C108.802 9.69323 110.84 11.3058 113.111 12.5542L117.871 14.661C119.102 15.1811 119.969 15.7533 120.472 16.3776C121.027 17.0365 121.685 18.3629 122.448 20.3569C123.367 22.7324 124.963 25.0039 127.234 27.1713Z" fill="#A586BC"/>
<path d="M132.072 34.74C132.713 35.3122 132.462 35.6156 131.318 35.6503L128.379 35.4422C127.407 35.3729 115.539 32.8673 92.7721 27.9256L92.1218 26.8592C91.515 26.0443 90.7954 25.342 89.9631 24.7525C89.0094 24.0763 88.4979 23.5474 88.4286 23.166C88.3765 22.8712 88.6193 22.1949 89.1568 21.1372C89.625 20.2009 89.5903 18.597 89.0528 16.3256C88.5673 14.2275 87.9344 12.6236 87.1541 11.5139C86.7727 10.959 85.715 9.98802 83.981 8.60087C82.6112 7.50849 81.9957 6.74556 82.1344 6.31207C82.4638 5.35841 83.6342 5.07231 85.6456 5.45377C85.1601 5.97395 86.7553 6.91028 90.4313 8.26275C94.1592 9.6499 96.9769 10.2655 98.8842 10.1094C99.6125 10.0574 100.072 9.90999 100.263 9.66724L100.393 9.19908L101.251 9.38114L101.433 5.40175C101.659 2.69681 101.979 1.25764 102.395 1.08425C102.569 1.01489 102.716 1.0409 102.838 1.16228L103.202 1.83851C102.473 2.91355 102.994 4.74286 104.762 7.32643C106.41 9.71926 108.213 11.5659 110.172 12.8664C111.334 13.768 113.094 14.6436 115.452 15.4933C117.065 16.0655 118.14 16.9931 118.677 18.2762C119.423 20.0275 121.209 22.6458 124.035 26.131C126.896 29.6682 129.575 32.5379 132.072 34.74Z" fill="#8F75A3"/>
<path d="M110.614 16.3256C113.579 17.0885 116.9 19.4553 120.576 23.426C123.957 27.0846 126.515 30.7953 128.248 34.5579C124.625 35.737 121.764 37.6963 119.665 40.436C119.007 41.2856 118.469 42.1612 118.053 43.0629L117.611 44.1813C117.125 44.5801 116.137 44.7795 114.646 44.7795C111.663 44.7968 107.641 43.7998 102.578 41.7884C97.7745 39.8811 94.6188 36.6993 93.1102 32.2431C91.8618 28.6018 91.8531 25.0646 93.0842 21.6314C94.1419 18.649 96.24 16.7157 99.3784 15.8314C102.361 15.0164 106.106 15.1812 110.614 16.3256Z" fill="#00ACA8"/>
<path d="M128.248 34.5579L126.714 35.1301C121.703 30.6912 116.458 27.5095 110.978 25.5848C104.858 23.452 98.6761 22.9839 92.434 24.1803C92.6074 23.2093 92.8241 22.3597 93.0842 21.6314C94.1245 18.7011 96.1186 16.7851 99.0663 15.8834C102.031 14.9644 105.881 15.1118 110.614 16.3256C113.579 17.0885 116.9 19.4553 120.576 23.426C123.957 27.0846 126.515 30.7953 128.248 34.5579Z" fill="#009693"/>
<path d="M108.612 20.2009C111.733 19.8021 115.079 20.3483 118.651 21.8395C121.217 23.9375 123.48 26.4778 125.439 29.4601C126.792 31.5235 127.702 33.2575 128.17 34.6619C125.032 35.5983 122.535 37.0808 120.68 39.1095C120.108 39.7337 119.631 40.3753 119.249 41.0342L118.859 41.8405C113.033 42.2219 108.247 40.3319 104.502 36.1705C102.942 34.4192 101.875 32.5465 101.303 30.5525C100.748 28.5411 100.791 26.7639 101.433 25.2207C102.647 22.325 105.04 20.6517 108.612 20.2009Z" fill="#008086"/>
<path d="M109.444 20.1229C112.374 19.9322 115.443 20.5044 118.651 21.8395C121.217 23.9376 123.48 26.4778 125.44 29.4601C126.792 31.5235 127.702 33.2575 128.17 34.662L126.246 35.3382C123.315 32.0611 119.657 29.4081 115.27 27.3794C111.213 25.4894 106.869 24.2843 102.239 23.7642C103.748 21.5621 106.149 20.3483 109.444 20.1229Z" fill="#00666C"/>
<path d="M145.102 76.9267C144.634 77.3948 144.157 77.5769 143.672 77.4729C143.186 77.3688 142.909 77.022 142.84 76.4325C142.909 76.0684 143.325 75.4615 144.088 74.6119L145.206 73.4415C145.362 75.2621 145.328 76.4238 145.102 76.9267Z" fill="white"/>
<path d="M142.423 75.5742C141.973 76.025 141.487 76.1031 140.967 75.8083C140.464 75.5135 140.23 75.0887 140.265 74.5339C140.334 74.1871 140.819 73.6235 141.721 72.8433L143.048 71.7509C143.013 73.6582 142.805 74.9327 142.423 75.5742Z" fill="white"/>
<path d="M140.083 73.7276C139.632 74.1784 139.146 74.2304 138.626 73.8836C138.123 73.5715 137.872 73.0773 137.872 72.4011C137.941 72.037 138.444 71.4561 139.38 70.6585C139.849 70.2423 140.308 69.8695 140.759 69.5401C140.533 71.8289 140.308 73.2247 140.083 73.7276Z" fill="white"/>
<path d="M137.69 71.4388C137.222 71.8896 136.745 71.9329 136.259 71.5688C135.756 71.1874 135.488 70.5978 135.453 69.8002C135.522 69.4534 136.051 68.8552 137.04 68.0056L138.47 66.8352C138.175 69.3841 137.915 70.9186 137.69 71.4388Z" fill="white"/>
<path d="M135.271 67.3033C134.751 67.8409 134.101 67.9189 133.32 67.5374C132.488 67.1039 132.046 66.2543 131.994 64.9885C132.185 64.2776 132.956 63.0812 134.309 61.3993C134.985 60.5496 135.644 59.778 136.285 59.0845C136.129 63.6621 135.791 66.4017 135.271 67.3033Z" fill="white"/>
<path d="M142.84 76.4325C142.926 76.0164 143.49 75.2448 144.53 74.1177C144.322 74.5512 144.149 75.0974 144.01 75.7563L143.698 77.4729C143.178 77.3862 142.892 77.0394 142.84 76.4325Z" fill="#DBDCDC"/>
<path d="M140.265 74.5339C140.351 74.0657 141.054 73.3201 142.371 72.2971C141.66 73.3028 141.262 74.4992 141.175 75.8863C140.898 75.7996 140.672 75.6262 140.499 75.3662C140.325 75.1061 140.247 74.8286 140.265 74.5339Z" fill="#DBDCDC"/>
<path d="M137.872 72.4011C137.959 71.985 138.669 71.2307 140.005 70.1383L139.094 71.8029C138.661 72.5138 138.401 73.1207 138.314 73.6235C138.019 73.2767 137.872 72.8693 137.872 72.4011Z" fill="#DBDCDC"/>
<path d="M137.638 67.4854L136.545 69.176C136.095 69.8696 135.878 70.5285 135.895 71.1527C135.635 70.8059 135.488 70.3551 135.453 69.8002C135.54 69.3841 136.268 68.6125 137.638 67.4854Z" fill="#DBDCDC"/>
<path d="M136.285 59.0845L136.259 59.5266C134.491 61.7807 133.485 64.425 133.242 67.4594C132.462 67.0259 132.046 66.2023 131.994 64.9885C132.185 64.2776 132.956 63.0812 134.309 61.3993C134.985 60.5496 135.644 59.778 136.285 59.0845Z" fill="#DBDCDC"/>
<path d="M139.64 46.6521C141.114 48.0913 142.267 49.4524 143.1 50.7356C142.857 52.036 141.999 52.6862 140.525 52.6862C139.744 52.6862 139.077 52.3741 138.522 51.7499C137.967 51.1257 137.69 50.3801 137.69 49.5131C137.69 48.9583 137.82 48.4121 138.08 47.8746C138.444 47.1463 138.964 46.7388 139.64 46.6521Z" fill="#0D131A"/>
<path d="M6.00582 32.7113C8.19058 28.6365 9.9592 26.6772 11.3117 26.8332C12.6988 27.0066 13.3751 29.3734 13.3404 33.9337C13.2884 38.494 13.4878 42.4387 13.9386 45.7678C14.4761 49.8773 15.4038 53.3971 16.7216 56.3275L16.3054 57.0558L15.8633 57.9141C13.1757 51.1864 11.9012 43.6264 12.0399 35.2341C12.1093 30.7779 11.6671 28.6539 10.7135 28.8619C10.0025 29.0006 8.80613 30.6566 7.12421 33.8297C3.77771 40.1239 1.91373 48.204 1.53226 58.0701C1.11612 68.9939 2.72001 79.4409 6.34394 89.411C9.43035 97.89 13.9646 105.493 19.9467 112.221C27.7147 120.943 37.5635 127.74 49.493 132.612L49.0248 133.835C38.4651 129.76 29.414 124.003 21.8714 116.565C14.242 109.057 8.59806 100.274 4.93945 90.2173C1.2635 80.1605 -0.314384 69.3927 0.205798 57.9141C0.656622 47.5104 2.58996 39.1095 6.00582 32.7113Z" fill="#0D131A"/>
<path d="M43.1988 87.5384L44.3172 86.8102C47.5423 88.3534 51.1402 89.6625 55.1109 90.7375C58.3187 91.6045 62.0207 92.3761 66.2168 93.0523L66.1648 94.1967C58.1887 93.5725 50.5333 91.3531 43.1988 87.5384Z" fill="#0D131A"/>
<path d="M7.54041 47.1723C8.80619 46.8602 10.072 46.8515 11.3377 47.1463C12.5515 47.4584 13.4445 47.9699 14.0167 48.6808L13.4705 49.123C13.0023 48.5335 12.2481 48.1347 11.2077 47.9266L7.93055 48.0566C6.64743 48.4034 5.5117 49.0016 4.52336 49.8513C2.96281 51.1864 1.9658 53.0244 1.53231 55.3652L0.856079 55.2351C1.34158 52.7036 2.38194 50.6835 3.97717 49.175C5.06955 48.152 6.2573 47.4844 7.54041 47.1723Z" fill="#0D131A"/>
<path d="M2.18256 77.4989C2.18256 74.6205 2.65939 72.141 3.61305 70.0603C4.93085 67.1473 7.10694 65.2399 10.1413 64.3383L10.4014 64.9885C7.86987 65.9769 5.95387 67.7108 4.65342 70.1903C3.42232 72.5138 2.80677 75.3835 2.80677 78.7993L2.18256 77.4989Z" fill="#0D131A"/>
<path d="M11.0775 101.167C10.1759 97.7166 10.0632 94.2921 10.7394 90.8936C11.5544 86.7841 13.4357 83.8191 16.3834 81.9985L16.8255 82.5447C14.398 84.5907 12.7594 87.2783 11.9098 90.6075C11.0775 93.8846 11.0602 97.5346 11.8578 101.557L11.0775 101.167Z" fill="#0D131A"/>
<path d="M27.9834 92.8963L29.8041 90.9976L31.8588 90.6855C30.8704 91.5351 30.0121 92.4194 29.2839 93.3384C26.0934 97.3265 24.4375 101.991 24.3161 107.331C24.2121 112.36 25.4345 116.937 27.9834 121.064L27.1511 121.09C24.1341 116.114 22.8423 110.817 23.2758 105.199C23.6746 100.239 25.2438 96.1387 27.9834 92.8963Z" fill="#0D131A"/>
<path d="M52.1459 95.9913C54.6948 94.2747 57.6771 93.1823 61.093 92.7142L61.197 93.4424C58.0239 93.8932 55.1976 95.0723 52.7181 96.9797C50.2386 98.9043 48.2965 101.419 46.8921 104.522C45.0714 108.528 44.3258 113.157 44.6553 118.411C45.0021 123.804 46.4152 128.598 48.8948 132.794L47.8544 132.664C45.0107 127.878 43.4935 122.59 43.3028 116.799C43.1467 111.666 43.9877 107.184 45.8257 103.352C47.3342 100.265 49.4409 97.812 52.1459 95.9913Z" fill="#0D131A"/>
<path d="M149.108 111.389C152.125 111.874 155.064 112.802 157.925 114.172L157.144 114.458C156.815 114.545 156.572 114.657 156.416 114.796C154.058 113.721 151.665 112.915 149.238 112.377L149.108 111.389Z" fill="#0D131A"/>
<path d="M133.632 151.417C133.043 149.388 133.468 146.189 134.907 141.819C135.115 141.75 135.739 141.299 136.779 140.467C135.254 144.802 134.586 147.94 134.777 149.882C134.968 151.807 136.051 153.185 138.028 154.018C142.224 155.786 146.446 156.514 150.694 156.202C154.318 155.942 156.633 155.188 157.639 153.94L157.041 155.552C155.948 157.251 152.888 157.91 147.859 157.529C143.403 157.165 139.901 156.367 137.352 155.136C135.323 154.13 134.083 152.891 133.632 151.417Z" fill="#0D131A"/>
<path d="M173.53 138.204C174.623 139.747 175.49 141.785 176.131 144.316C176.686 146.553 176.894 148.287 176.755 149.518L175.299 148.608C175.368 145.279 174.649 142.192 173.14 139.348L173.53 138.204Z" fill="#0D131A"/>
<path d="M169.785 159.766C173.686 160.13 177.111 160.199 180.058 159.974C183.388 159.714 185.243 159.107 185.624 158.153C185.919 157.425 185.26 156.428 183.648 155.162C179.209 151.607 175.793 149.397 173.4 148.53C171.666 147.905 169.898 147.871 168.094 148.426C165.857 149.102 163.612 150.168 161.358 151.625C159.017 153.133 157.751 154.399 157.561 155.422C157.491 155.786 157.613 156.098 157.925 156.358C159.225 157.399 160.864 158.179 162.84 158.699C164.488 159.133 166.802 159.488 169.785 159.766ZM174.024 147.671C176.487 148.625 180.041 150.931 184.688 154.59C185.659 155.353 186.335 156.159 186.717 157.009C187.064 157.806 187.116 158.5 186.873 159.089C186.509 160.008 185.044 160.693 182.477 161.144L173.738 161.534C165.606 161.17 159.893 159.688 156.598 157.087C156.009 156.636 155.783 156.055 155.922 155.344C156.182 154.044 157.665 152.535 160.37 150.818C162.797 149.275 165.216 148.14 167.626 147.411C169.794 146.77 171.926 146.856 174.024 147.671Z" fill="#0D131A"/>
<path d="M171.97 140.363C172.889 138.837 173.617 136.141 174.155 132.274C174.744 128.009 174.579 125.061 173.66 123.431C172.464 121.333 170.652 119.079 168.224 116.669C165.676 114.137 163.907 112.923 162.919 113.027C158.618 113.495 155.966 115.056 154.96 117.709L152.411 123.535C151.561 125.373 150.772 127.194 150.044 128.997C149.628 130.055 149.836 131.338 150.668 132.846C151.31 133.973 152.272 135.178 153.555 136.461C153.885 136.791 154.24 137.302 154.622 137.996L155.688 140.155C157.439 143.605 158.774 145.27 159.693 145.148C161.601 144.94 163.838 144.403 166.404 143.536C169.473 142.496 171.328 141.438 171.97 140.363ZM168.875 115.42C171.701 118.038 173.773 120.622 175.091 123.171C176.045 124.991 176.166 128.113 175.455 132.534C174.813 136.522 173.981 139.357 172.958 141.039C172.178 142.34 169.984 143.562 166.378 144.706C163.76 145.521 161.653 146.015 160.058 146.189C159.087 146.293 158.246 145.937 157.535 145.122C156.945 144.464 156.07 142.99 154.908 140.701C153.885 138.724 153.165 137.519 152.749 137.086C151.067 135.404 149.897 133.93 149.238 132.664C148.527 131.277 148.388 130.055 148.822 128.997C149.012 128.494 149.429 127.584 150.07 126.266L151.657 122.911L154.284 116.799C154.682 115.724 155.549 114.727 156.884 113.808C158.445 112.715 160.274 112.056 162.372 111.831L162.502 111.675C163.89 111.519 166.014 112.767 168.875 115.42Z" fill="#0D131A"/>
<path d="M177.224 116.617L178.056 116.851C178.628 119.261 179.157 120.943 179.642 121.896C179.92 122.434 180.145 122.685 180.319 122.651C180.822 122.547 181.48 122 182.295 121.012C183.024 120.145 183.579 119.33 183.96 118.567L184.61 118.905L182.946 121.584C181.957 122.971 181.116 123.734 180.423 123.873C179.885 123.977 179.374 123.457 178.888 122.313C178.437 121.272 177.917 119.504 177.328 117.007L177.224 116.617Z" fill="#0D131A"/>
<path d="M196.262 112.585L196.912 112.689L196.964 116.07C196.912 118.342 196.661 119.53 196.21 119.634C195.725 119.772 194.962 119.651 193.921 119.269L192.309 118.567L192.595 117.891C194.173 118.481 195.256 118.706 195.846 118.567C196.089 118.498 196.227 116.504 196.262 112.585Z" fill="#0D131A"/>
<path d="M176.443 115.394C179.963 117.51 183.101 118.602 185.858 118.671L186.457 119.452C183.041 119.504 179.599 118.489 176.131 116.408C174.397 115.368 173.105 114.206 172.256 112.923C171.545 111.848 171.033 110.487 170.721 108.84L169.811 105.537L168.64 102.754C166.854 99.5112 165.693 96.893 165.155 94.899C164.566 92.7142 164.574 90.7895 165.181 89.1249L166.014 89.385C165.459 90.9456 165.788 93.3211 167.002 96.5115C167.661 98.2801 168.718 100.526 170.175 103.248C170.695 104.202 171.181 105.658 171.631 107.617C172.117 109.559 172.585 110.964 173.036 111.831C173.799 113.287 174.935 114.475 176.443 115.394Z" fill="#0D131A"/>
<path d="M175.845 71.8809C178.879 72.8172 181.524 74.7072 183.778 77.5509C185.754 80.0478 188.39 83.2035 191.685 87.0182C194.355 90.226 196.418 93.269 197.875 96.1474C200.649 101.575 200.84 106.525 198.447 110.999C197.129 113.461 195.135 115.602 192.465 117.423L192.673 116.226L193.167 115.758C196.028 112.915 197.753 110.236 198.343 107.721C199.019 104.722 198.404 101.072 196.496 96.7716C195.317 94.1187 193.254 90.9629 190.306 87.3043C186.994 83.4029 184.705 80.646 183.44 79.0334C181.255 76.2591 178.68 74.2911 175.715 73.1294C172.698 71.9676 170.227 72.0196 168.302 73.2854L167.522 72.8953C169.88 71.2134 172.655 70.8752 175.845 71.8809Z" fill="#0D131A"/>
<path d="M190.02 121.792C190.245 121.688 190.523 121.315 190.852 120.674L191.841 117.995C192.135 116.955 192.309 116.053 192.361 115.29C192.413 114.631 192.378 114.224 192.257 114.068C191.927 113.617 191.234 113.365 190.176 113.313C189.101 113.279 188.061 113.461 187.055 113.86C186.552 114.033 186.127 114.267 185.78 114.562C185.243 114.978 185 115.42 185.052 115.888C185.139 116.79 185.624 117.83 186.509 119.009C187.324 120.119 188.165 120.943 189.032 121.48C189.482 121.758 189.812 121.862 190.02 121.792ZM190.462 112.455C191.589 112.576 192.387 112.967 192.855 113.625C193.496 114.458 193.366 116.174 192.465 118.775C191.615 121.272 190.852 122.659 190.176 122.937C189.656 123.145 188.581 122.469 186.951 120.908C185.165 119.191 184.194 117.544 184.038 115.966C183.986 115.429 184.289 114.857 184.948 114.25C185.538 113.695 186.275 113.244 187.159 112.897C188.269 112.481 189.37 112.334 190.462 112.455Z" fill="#0D131A"/>
<path d="M173.556 80.0218C174.146 82.5013 174.198 84.6687 173.712 86.524C173.296 88.1713 172.533 89.3243 171.424 89.9832C170.071 90.7982 168.441 90.8762 166.534 90.2173C165.476 89.8532 164.548 89.3677 163.751 88.7608L164.193 88.1626C164.956 88.7001 165.745 89.1163 166.56 89.411C168.155 89.9659 169.542 89.8965 170.721 89.203C172.074 88.388 172.871 87.0269 173.114 85.1195C173.305 83.663 173.166 81.9551 172.698 79.9958C172.282 78.2618 171.588 76.8226 170.617 75.6782C169.612 74.4645 168.233 73.4848 166.482 72.7392L166.404 71.985C168.207 72.4011 169.768 73.3981 171.085 74.976C172.282 76.4152 173.105 78.0971 173.556 80.0218Z" fill="#0D131A"/>
<path d="M160.526 68.5258C160.647 68.3004 161.046 68.2397 161.722 68.3437C162.381 68.4651 163.031 68.6992 163.673 69.046C165.181 69.9129 166.36 71.2827 167.21 73.1554C168.181 75.2708 168.528 77.6636 168.25 80.3339C168.06 82.4146 167.531 84.3046 166.664 86.0039C165.866 87.5124 164.887 88.7435 163.725 89.6972C161.488 91.4658 159.685 91.8906 158.315 90.9716L158.393 90.2173C160.335 90.4774 161.956 90.0093 163.257 88.8129C165.615 86.6628 166.976 83.7671 167.34 80.1258C167.583 77.6636 167.245 75.4529 166.326 73.4935C165.511 71.7943 164.41 70.5545 163.023 69.7742C162.537 69.4968 161.93 69.2974 161.202 69.176C160.63 69.072 160.292 69.072 160.188 69.176L160.526 68.5258Z" fill="#0D131A"/>
<path d="M190.566 10.3175C191.485 10.0054 192.031 10.1354 192.205 10.7076C192.396 11.3492 191.945 12.2942 190.852 13.5426C189.587 14.9991 188.555 16.5596 187.757 18.2242C187.254 19.2819 186.379 21.4927 185.13 24.8565L185.494 21.7875C186.413 19.3079 187.211 17.4873 187.887 16.3256C188.338 15.5453 189.092 14.5569 190.15 13.3605C190.965 12.4415 191.347 11.774 191.294 11.3578L189.994 11.3318L187.367 12.3462C186.205 12.7103 185.243 12.9444 184.48 13.0484C183.336 13.1871 182.712 13.1785 182.607 13.0224C182.521 12.8837 183.024 12.6756 184.116 12.3982C185.885 8.89564 186.795 6.45945 186.847 5.08964C186.882 3.84121 186.275 3.74584 185.026 4.80354C183.015 6.53748 180.518 8.33211 177.536 10.1874C174.501 12.0774 171.796 13.5079 169.421 14.4789C166.647 15.6407 164.809 16.577 163.907 17.2879C162.884 18.1028 162.225 19.2212 161.93 20.6431C161.41 23.0706 160.222 25.6108 158.367 28.2637C156.616 30.7779 154.96 32.4685 153.399 33.3355L152.671 32.8673C154.353 31.931 156.044 30.1277 157.743 27.4574C159.494 24.7005 160.578 22.0476 160.994 19.4987C161.237 18.0248 162.26 16.8284 164.063 15.9094C165.086 15.3719 166.742 14.687 169.031 13.8547C171.389 12.797 173.747 11.4792 176.105 9.90132L184.974 3.37304C185.911 2.66213 186.665 2.51474 187.237 2.93089C187.74 3.27768 187.991 3.88456 187.991 4.75152C187.991 5.47978 187.653 6.61551 186.977 8.15871L185.052 12.1641C186.301 11.9387 187.532 11.5832 188.746 11.0977L190.566 10.3175Z" fill="#0D131A"/>
<path d="M172.88 17.8081C178.671 15.0511 182.59 14.5223 184.636 16.2215C186.353 17.6954 186.578 20.9638 185.312 26.0269C183.63 32.6506 181.177 37.5056 177.952 40.592C175.49 42.9502 171.51 45.0396 166.014 46.8602L165.702 46.0279C171.372 44.1379 175.455 41.8405 177.952 39.1355C180.397 36.4479 182.521 32.009 184.324 25.8189C185.659 21.1893 185.546 18.2069 183.986 16.8717C182.2 15.3806 178.611 15.9181 173.218 18.4843C170.01 20.0449 167.331 21.9869 165.181 24.3103C163.014 26.6512 161.185 29.5989 159.693 33.1534L158.653 33.5436C161.219 26.4171 165.962 21.1719 172.88 17.8081Z" fill="#0D131A"/>
<path d="M174.545 17.3399C176.018 16.6983 177.206 16.707 178.108 17.3659C179.096 18.0768 179.452 19.4466 179.174 21.4753C178.654 25.4287 177.458 28.9833 175.585 32.1391C173.053 36.4392 169.49 39.5083 164.895 41.3463L164.999 40.592C169.577 38.5113 173.036 35.1995 175.377 30.6565C176.643 28.2117 177.614 25.1686 178.29 21.5274C178.602 19.7587 178.299 18.5797 177.38 17.9901C176.513 17.4353 175.256 17.5046 173.608 18.1982L174.545 17.3399Z" fill="#0D131A"/>
<path d="M84.6833 30.6566L96.5954 37.9651L98.364 39.6817L93.3963 37.1068C89.651 35.0781 86.7207 33.3095 84.6052 31.801C83.6689 31.1247 82.9927 30.882 82.5765 31.0727C82.091 31.2981 82.1517 32.0871 82.7586 33.4395C83.3655 34.792 84.718 37.3236 86.816 41.0342C88.5846 44.4674 89.3649 47.077 89.1568 48.8629L88.0645 48.6028C87.8737 46.2273 87.1802 43.8258 85.9837 41.3983L81.6922 33.5176C80.9466 32.1304 80.8513 31.0727 81.4061 30.3445C81.9957 29.5642 83.0881 29.6682 84.6833 30.6566Z" fill="#0D131A"/>
<path d="M66.685 69.6181C67.2572 69.41 67.9074 69.6095 68.6356 70.2163C70.8724 72.1063 72.8838 73.7016 74.6697 75.002C76.5424 76.3371 77.6521 76.9614 77.9989 76.8747C78.2243 76.7186 78.4064 75.9817 78.5451 74.6639C78.6838 73.3808 78.7532 71.8289 78.7532 70.0083L78.5971 65.4827L79.3514 65.4307L79.6375 71.4128C79.6895 75.4008 79.36 77.5769 78.6491 77.941C77.7475 78.3919 74.401 76.1637 68.6096 71.2567C68.1415 70.8579 67.7513 70.6932 67.4392 70.7625C66.7803 70.8492 66.763 72.8953 67.3872 76.9007L68.5056 83.9751C68.8871 86.524 69.0951 88.5094 69.1298 89.9312L70.3782 89.307C70.9678 89.1163 70.6817 89.5844 69.5199 90.7115C67.838 92.3761 66.1561 94.5262 64.4742 97.1617C62.6362 100.075 61.5265 102.52 61.145 104.496L59.9486 105.147C60.6422 102.147 61.8386 99.2685 63.5379 96.5115C64.8903 94.3267 66.4422 92.3847 68.1935 90.6855C67.864 86.0732 67.1965 81.3916 66.1908 76.6406C65.3065 72.4271 65.4712 70.0863 66.685 69.6181Z" fill="#0D131A"/>
<path d="M86.1397 73.4155L86.868 73.6235C86.5039 75.3055 85.7583 77.0221 84.6312 78.7733L80.4958 84.2352L76.6204 89.0209C75.0425 90.9629 73.8981 92.4714 73.1872 93.5465L71.9388 93.7286L74.4877 89.9572C75.4413 88.6048 76.4383 87.2783 77.4787 85.9779L82.6545 79.3976C84.5272 76.8487 85.6889 74.8546 86.1397 73.4155Z" fill="#0D131A"/>
<path d="M149.29 102.988C149.671 102.138 150.426 100.82 151.553 99.0344L152.827 98.02L154.076 96.9797C152.515 99.2685 151.431 101.011 150.824 102.207C149.957 103.924 149.29 105.866 148.822 108.034C148.7 108.606 148.752 109.369 148.978 110.322L149.68 112.923C150.547 116.391 150.885 119.07 150.694 120.96C150.296 124.688 148.414 129.006 145.05 133.913C140.906 139.964 132.982 144.637 121.278 147.931C116.18 149.371 111.074 150.298 105.959 150.714C100.792 151.113 96.292 150.931 92.46 150.168L92.7721 148.946C101.286 150.645 111.1 149.752 122.214 146.267C127.052 144.741 131.352 142.912 135.115 140.779C138.947 138.612 141.695 136.418 143.36 134.199C146.845 129.552 148.856 125.243 149.394 121.272C149.706 118.966 149.455 116.157 148.64 112.845L147.911 110.27C147.703 109.369 147.669 108.597 147.807 107.956C148.241 105.875 148.735 104.219 149.29 102.988Z" fill="#0D131A"/>
<path d="M129.731 144.056L127.156 145.122C120.966 146.406 114.117 146.302 106.609 144.81C103.644 144.221 101.017 143.493 98.7281 142.626C96.5607 141.793 95.1562 141.013 94.5146 140.285L95.0348 139.374C95.555 139.964 96.9422 140.666 99.1963 141.481C101.676 142.383 104.467 143.137 107.571 143.744C115.825 145.391 123.211 145.495 129.731 144.056Z" fill="#0D131A"/>
<path d="M147.573 114.458L147.599 110.947C147.634 109.351 147.729 108.268 147.885 107.695L148.64 110.218C148.449 110.929 148.354 111.9 148.354 113.131L148.301 115.706C148.232 116.296 148.111 116.547 147.937 116.46L147.391 115.68C146.143 113.721 144.157 112.022 141.435 110.582C138.886 109.213 136.337 108.398 133.788 108.138C132.228 107.999 129.904 108.398 126.818 109.334C124.078 110.166 121.096 111.311 117.871 112.767L113.111 115.004C111.239 115.888 109.877 116.452 109.028 116.695C106.895 117.353 104.337 116.816 101.355 115.082C98.7542 113.573 97.0983 112.108 96.3874 110.686L96.6735 109.932C97.1763 110.938 98.5808 112.134 100.887 113.521C103.904 115.325 106.687 115.836 109.236 115.056C110.502 114.657 113.415 113.443 117.975 111.415C125.674 107.947 130.962 106.404 133.84 106.785C136.268 107.132 138.704 107.921 141.149 109.152C144.01 110.608 146.151 112.377 147.573 114.458Z" fill="#0D131A"/>
<path d="M95.6331 89.9572L96.3353 91.2317C95.7804 92.9829 95.3643 94.11 95.0869 94.6128C94.4106 95.8439 93.3529 96.8496 91.9138 97.6299L91.6797 96.9276C92.5293 96.6329 93.3443 95.6879 94.1245 94.0927C94.5233 93.243 94.9915 91.9772 95.529 90.2953L95.6331 89.9572Z" fill="#0D131A"/>
<path d="M141.071 80.5679L139.276 81.2442C138.461 81.5563 137.855 81.8771 137.456 82.2065C137.438 81.9811 137.326 81.7123 137.118 81.4002C137.724 80.8627 138.557 80.3772 139.614 79.9437L141.071 80.5679Z" fill="#0D131A"/>
<path d="M157.379 75.3922L157.951 74.924C159.754 76.7273 160.664 79.3022 160.682 82.6487C160.699 85.7525 159.971 88.7868 158.497 91.7519C157.093 94.5609 155.073 96.9277 152.437 98.8524C150.46 100.292 148.51 101.263 146.585 101.765C145.25 102.095 142.961 101.627 139.718 100.361C136.805 99.2165 134.482 98.0201 132.748 96.7716C132.575 96.6503 132.445 96.4682 132.358 96.2254L132.982 95.8613L133.19 96.1734C134.352 97.0057 136.511 97.968 139.666 99.0604C143.082 100.257 145.336 100.708 146.429 100.413C148.18 99.9621 149.923 99.1298 151.657 97.916C154.136 96.1994 156.035 94.0147 157.353 91.3617C158.913 88.258 159.693 85.2843 159.693 82.4406C159.693 79.6143 158.922 77.2648 157.379 75.3922Z" fill="#0D131A"/>
<path d="M113.996 66.289L114.49 65.7168C115.391 66.5144 116.9 67.5721 119.015 68.8899L125.179 72.5052C129.081 74.7766 131.786 76.4152 133.294 77.4209C135.774 79.0855 137.161 80.3512 137.456 81.2182C137.959 82.7267 137.568 85.4143 136.285 89.281C135.228 92.4715 134.231 94.7949 133.294 96.2515C132.601 97.3785 128.847 98.653 122.032 100.075C115.461 101.462 111.152 102.008 109.106 101.713C107.528 101.488 105.022 99.9447 101.589 97.0837C98.7629 94.7256 96.8555 92.9136 95.8672 91.6478C94.8789 90.3821 94.35 88.0673 94.2806 84.7034C94.2113 81.4783 94.5581 79.1115 95.321 77.6029L96.4134 77.655C95.6678 79.1635 95.373 81.4089 95.5291 84.3913C95.6678 87.3043 96.1273 89.3851 96.9076 90.6335C97.9132 92.2287 99.8032 94.1534 102.578 96.4075C105.577 98.835 107.883 100.161 109.496 100.387C111.421 100.647 115.591 100.127 122.006 98.8263C128.543 97.4912 132.089 96.3728 132.644 95.4712C133.58 93.9627 134.543 91.6999 135.531 88.6828C136.693 85.1282 137.057 82.6834 136.623 81.3482C136.381 80.6373 134.716 79.3542 131.63 77.4989L123.099 72.6352C119.336 70.4504 116.302 68.335 113.996 66.289Z" fill="#0D131A"/>
<path d="M88.7407 93.9626L89.2348 94.1447C90.9341 94.7863 92.4426 96.3035 93.7604 98.6963C94.7314 100.465 95.5637 102.632 96.2573 105.199C97.6791 110.331 98.2947 115.169 98.1039 119.712C97.9132 124.411 96.8902 127.662 95.0349 129.465L94.6447 128.243C95.9452 126.613 96.6474 123.44 96.7515 118.723C96.8382 113.99 96.292 109.481 95.1129 105.199C94.3673 102.494 93.4483 100.3 92.3559 98.6183C91.2462 96.9017 90.0238 95.8006 88.6887 95.3151L88.2205 95.107C85.2034 93.98 82.6112 93.3471 80.4438 93.2084C76.4557 92.9483 72.6844 93.954 69.1298 96.2254C65.4019 98.5836 62.1334 102.736 59.3244 108.684C58.3014 110.869 57.5038 112.941 56.9316 114.9C56.4114 116.686 56.238 117.778 56.4114 118.177L55.5531 118.593C55.345 118.142 55.3884 117.102 55.6831 115.472C56.0299 113.565 56.6455 111.562 57.5298 109.464C59.992 103.603 63.6939 98.9217 68.6357 95.4192C72.2249 92.8703 76.161 91.7172 80.4438 91.9599C82.7846 92.0987 85.5502 92.7662 88.7407 93.9626Z" fill="#0D131A"/>
<path d="M73.1092 172.25C76.8718 171.262 79.308 169.545 80.4177 167.1L81.6142 167.36C80.4177 170.291 77.7301 172.38 73.5513 173.628C69.4766 174.842 65.1331 174.946 60.5208 173.941C56.3594 173.022 52.9175 170.689 50.1952 166.944C49.1548 165.488 48.3832 164.031 47.8804 162.575C47.3949 161.239 47.2475 160.225 47.4382 159.531L48.6867 159.141C48.5306 159.731 48.652 160.624 49.0508 161.82C49.5016 163.155 50.2039 164.473 51.1575 165.774C53.6544 169.224 56.9662 171.4 61.093 172.302C65.3932 173.238 69.3986 173.221 73.1092 172.25Z" fill="#0D131A"/>
<path d="M51.4957 123.145C52.5534 121.29 54.2006 119.339 56.4374 117.293C58.5355 115.368 60.4775 113.946 62.2635 113.027L62.9137 112.585C62.3068 113.504 61.9167 114.154 61.7433 114.536C60.0267 115.715 58.3274 117.119 56.6455 118.749C54.6515 120.674 53.2643 122.391 52.484 123.899C51.7905 125.217 50.6374 129.231 49.0248 135.941C47.499 142.201 46.2852 145.894 45.3836 147.021C45.0194 147.489 44.1438 148.339 42.7567 149.57C41.2134 150.905 40.1818 151.92 39.6616 152.613C38.8119 153.74 38.6039 154.737 39.0374 155.604C39.7656 157.043 40.936 158.162 42.5486 158.959C43.9877 159.653 45.2188 159.878 46.2419 159.636L47.9325 159.011C51.2096 157.676 53.9319 156.775 56.0993 156.306C60.3648 155.405 64.3268 155.483 67.9855 156.54C70.0488 157.147 72.1556 158.283 74.3057 159.948C75.9356 161.213 77.3921 162.609 78.6752 164.135L79.8456 165.436L81.016 166.294C82.4378 166.935 84.5446 167.3 87.3362 167.386C90.1278 167.49 91.8705 167.256 92.564 166.684C93.1536 166.181 93.3443 165.384 93.1362 164.291C92.9975 163.546 92.3993 161.595 91.3416 158.439L91.0815 157.685C90.7867 156.801 90.8474 155.249 91.2636 153.029L92.7721 145.825L94.3066 137.606C94.7401 134.658 94.8355 132.439 94.5927 130.948C94.298 129.144 93.9598 127.67 93.5784 126.526C93.0062 124.879 92.1739 123.301 91.0815 121.792L91.6017 120.336C94.0639 123.7 95.5291 126.916 95.9972 129.985C96.2573 131.546 96.1793 133.809 95.7631 136.774L94.2026 145.227C93.6304 147.983 93.2316 150.489 93.0062 152.743C92.7461 155.24 92.7548 156.922 93.0322 157.789L93.2923 158.543C94.2806 161.474 94.8008 163.58 94.8528 164.863C94.8875 166.181 94.4627 167.204 93.5784 167.932C92.7114 168.661 90.7087 168.973 87.5703 168.869C84.4839 168.782 82.1691 168.383 80.6259 167.672C80.175 167.464 79.6288 167.022 78.9873 166.346L77.4788 164.577C73.7335 160.104 69.3899 157.607 64.4482 157.087C60.1134 156.601 54.8162 157.633 48.5567 160.182L47.0221 160.702L45.7477 161.014C44.2392 161.118 42.696 160.728 41.1181 159.844C39.4188 158.907 38.1704 157.642 37.3728 156.046C36.8006 154.902 37.0173 153.61 38.023 152.171C38.6472 151.287 39.809 150.099 41.5082 148.608L44.1872 146.059C45.3836 144.429 46.6407 140.701 47.9585 134.875C49.363 128.719 50.542 124.809 51.4957 123.145Z" fill="#0D131A"/>
<path d="M79.6895 101.947C76.239 101.254 73.9329 101.332 72.7711 102.181C71.2106 103.326 69.1559 105.571 66.607 108.918C63.8674 112.524 62.2635 115.273 61.7953 117.163C61.1364 119.764 61.0844 123.301 61.6392 127.774C62.2461 132.751 63.3992 135.915 65.0984 137.268C66.9884 138.776 69.5027 139.825 72.6411 140.415C75.5021 140.935 77.7389 140.926 79.3514 140.389C80.149 140.129 81.1807 139.357 82.4465 138.074C83.8163 136.669 85.0908 135.022 86.2698 133.132C89.3389 128.191 90.7607 123.37 90.5353 118.671C90.3099 114.354 89.625 110.79 88.4806 107.981C87.6136 105.849 86.66 104.462 85.6196 103.82C84.5272 103.161 82.5505 102.537 79.6895 101.947ZM72.1469 101.089C73.5341 100.083 76.161 99.9707 80.0277 100.751C83.1661 101.375 85.3162 102.043 86.4779 102.754C87.3622 103.291 88.2812 104.514 89.2349 106.421C90.8821 109.698 91.8358 113.955 92.0959 119.191C92.356 124.133 90.7521 129.153 87.2842 134.251C85.9664 136.175 84.5446 137.857 83.0187 139.296C81.6315 140.614 80.4958 141.42 79.6115 141.715C77.8082 142.322 75.3113 142.27 72.1209 141.559C68.8438 140.848 66.2342 139.721 64.2922 138.178C62.3675 136.635 61.0324 133.158 60.2868 127.748C59.6279 122.963 59.6192 119.287 60.2608 116.721C60.7636 114.674 62.5496 111.744 65.6186 107.929C68.3583 104.548 70.5343 102.268 72.1469 101.089Z" fill="#0D131A"/>
<path d="M89.5469 49.6952C90.6046 47.9092 92.746 46.7561 95.9711 46.236C99.4563 45.6638 102.586 46.236 105.36 47.9526C108.412 49.8426 110.866 52.6082 112.721 56.2495C114.784 60.2722 115.305 64.0262 114.282 67.5114C113.241 71.0486 110.987 73.9963 107.519 76.3545C103.947 78.7647 100.323 79.6836 96.6474 79.1114C92.798 78.5219 89.5989 77.1087 87.05 74.872C84.6052 72.7392 83.0099 70.0863 82.2643 66.9132L83.1747 66.6791C83.9203 69.6441 85.4721 72.063 87.8303 73.9356C90.2058 75.8256 93.2402 77.0567 96.9335 77.6289C100.731 78.2185 104.251 77.3342 107.493 74.976C110.476 72.7739 112.4 70.0083 113.267 66.6791C114.03 63.7487 113.458 60.4109 111.551 56.6656C109.73 53.111 107.432 50.4754 104.658 48.7589C102.179 47.233 99.361 46.7301 96.2052 47.2503C93.3962 47.7185 91.5236 48.6635 90.5872 50.0853L89.5469 49.6952Z" fill="#0D131A"/>
<path d="M98.1039 53.0243C99.4737 54.3248 100.332 56.1368 100.679 58.4602C101.008 60.8531 100.687 63.0812 99.7165 65.1446C98.8668 66.9652 97.6617 68.3263 96.1012 69.228C94.558 70.1123 92.8414 70.4418 90.9514 70.2163C89.2175 70.0083 86.3998 69.0633 82.4985 67.3814C78.8745 65.7168 76.9325 64.8671 76.6724 64.8325L77.6868 63.9221C77.8602 63.9048 79.6288 64.7284 82.9926 66.393C86.7033 68.1096 89.3909 69.0719 91.0554 69.28C92.72 69.4707 94.2199 69.176 95.555 68.3957C96.8901 67.5981 97.9392 66.3757 98.7021 64.7284C99.5864 62.8558 99.9245 60.8878 99.7165 58.8244C99.5084 56.761 98.8148 55.1658 97.6357 54.0387C96.474 52.9463 94.0985 51.6805 90.5093 50.2414C86.7639 48.7155 83.7902 47.8919 81.5881 47.7705L81.0159 46.4961C83.2701 46.6174 86.3738 47.4411 90.3272 48.9669C94.2459 50.4755 96.8381 51.8279 98.1039 53.0243Z" fill="#0D131A"/>
<path d="M62.4196 34.2718C56.056 35.5376 49.7705 37.8177 43.563 41.1122L40.4419 41.5804C46.4413 37.8177 53.2817 35.0521 60.9631 33.2835C67.5694 31.775 71.8348 31.4542 73.7595 32.3211C74.7999 32.7893 75.8402 34.2632 76.8806 36.7427C77.8169 38.9795 78.4151 41.1209 78.6752 43.1669L77.6089 42.8548C75.8923 37.0114 74.3491 33.9164 72.9792 33.5696C70.8292 33.0494 67.3093 33.2835 62.4196 34.2718Z" fill="#0D131A"/>
<path d="M15.5251 70.6585L16.2533 71.2567C15.6464 72.7306 15.1089 74.4732 14.6408 76.4845C14.1379 78.6 13.9038 80.2472 13.9385 81.4263C13.9559 82.2586 14.294 82.562 14.9529 82.3366L19.0103 80.2299C20.6402 79.3455 21.932 78.6953 22.8856 78.2792C24.4115 77.6029 25.8854 77.1174 27.3072 76.8227L27.0471 77.9931C25.9027 78.2878 24.6369 78.73 23.2498 79.3195C21.8453 79.9438 20.5622 80.6113 19.4004 81.3222C17.4064 82.5707 15.9412 83.377 15.0049 83.7411C13.9299 84.1399 13.2796 84.0792 13.0542 83.559C12.5167 82.3106 12.5254 80.3339 13.0802 77.6289C13.6004 75.028 14.4154 72.7046 15.5251 70.6585Z" fill="#0D131A"/>
<path d="M22.9118 76.4585L27.6454 76.7186L27.7495 78.3312C26.1369 78.4699 24.5417 78.3052 22.9638 77.837C20.2415 77.0394 18.0654 75.4442 16.4355 73.0513C15.8807 72.2537 15.3951 71.3521 14.979 70.3464L15.6812 70.1123L16.3575 69.8782C16.7563 70.9359 17.1811 71.7856 17.6319 72.4271C19.0884 74.5425 20.8484 75.8863 22.9118 76.4585Z" fill="#0D131A"/>
<path d="M42.8347 40.3319C49.4063 38.8234 55.7438 38.1818 61.8473 38.4072C68.3149 38.6326 73.4213 39.8117 77.1666 41.9445C81.3454 44.3026 83.3655 47.6231 83.2268 51.9059C83.1054 55.9634 82.1344 59.3012 80.3137 61.9194C78.7359 64.1909 76.8112 65.6041 74.5397 66.1589C72.1469 66.7311 69.3119 67.6068 66.0348 68.7858C62.3068 70.1383 59.6192 71.3521 57.972 72.4271C56.9142 73.1207 55.1543 75.1147 52.6921 78.4092C49.8485 82.1892 48.0798 84.426 47.3863 85.1195C45.8777 86.6281 44.5599 87.6337 43.4329 88.1366C41.4735 89.0382 39.2021 89.1596 36.6185 88.5007L38.127 86.9922C39.861 87.6337 41.5082 87.5037 43.0688 86.602C43.8317 86.1512 45.0888 85.0502 46.8401 83.2989L51.5997 77.3688C53.9579 74.4038 56.0386 72.3404 57.8419 71.1787C59.5932 70.0516 62.1941 68.8812 65.6446 67.6674C68.7831 66.5404 71.5227 65.7514 73.8635 65.3006C75.9269 64.8845 77.7128 63.5667 79.2214 61.3472C80.938 58.833 81.857 55.6599 81.9783 51.8279C82.0997 47.9439 80.1924 44.9355 76.2563 42.8028C72.7191 40.8781 67.8988 39.8291 61.7953 39.6557C56.0039 39.4996 49.9785 40.1325 43.719 41.5543C37.3381 42.9935 31.8502 45.0135 27.2552 47.6144C22.2268 50.4408 18.837 53.5358 17.0857 56.8997L15.135 58.3042C15.5338 56.3795 16.7476 54.3421 18.7763 52.192C20.6836 50.1807 23.0158 48.3687 25.7727 46.7561C30.4717 43.9992 36.159 41.8578 42.8347 40.3319Z" fill="#0D131A"/>
<path d="M21.8194 63.0118C21.8194 61.8327 21.6547 60.723 21.3252 59.6827C21.0131 58.677 20.597 57.888 20.0768 57.3158C19.5913 56.7436 19.1405 56.5529 18.7243 56.7436C16.5569 57.7146 14.3288 59.7173 12.04 62.7517C9.57781 65.9942 8.4074 68.7772 8.52878 71.1006L8.65882 71.3607C9.00561 71.5861 9.88125 71.5168 11.2857 71.1527L15.3171 69.8522L18.3862 68.8899C19.3052 68.5778 19.9728 68.2657 20.3889 67.9535C21.3426 67.2253 21.8194 65.5781 21.8194 63.0118ZM22.5217 60.1768C22.9205 61.8934 22.9378 63.6274 22.5737 65.3786C22.2616 66.9739 21.7587 68.0229 21.0651 68.5257C20.4409 68.9939 18.5249 69.7829 15.3171 70.8926L10.4274 72.5311L7.67048 72.6092C7.35837 72.3838 7.20231 72.0977 7.20231 71.7509C7.18497 68.6991 8.53745 65.4133 11.2597 61.8934C13.6872 58.7897 16.1061 56.7003 18.5163 55.6252C19.2098 55.3305 19.9554 55.6252 20.753 56.5096C21.568 57.4112 22.1575 58.6336 22.5217 60.1768Z" fill="#0D131A"/>
<path d="M27.4112 73.9356C27.81 71.9069 28.599 70.121 29.7781 68.5778C30.2462 67.9536 30.6017 67.6501 30.8444 67.6675C31.1045 67.6848 30.9398 68.231 30.3503 69.306C29.5526 70.7625 29.0238 72.4445 28.7637 74.3518C28.4169 76.7793 28.6163 79.1461 29.3619 81.4523L28.6337 83.481C27.2118 80.1692 26.8044 76.9874 27.4112 73.9356Z" fill="#0D131A"/>
<path d="M34.4078 76.7446C33.1073 76.5019 32.2057 76.6579 31.7028 77.2128C31.0786 77.9064 30.2723 79.9264 29.284 83.2729C28.2957 86.5674 27.8015 88.8475 27.8015 90.1133C27.8015 90.3907 27.8362 90.5641 27.9055 90.6335L28.4777 90.7635C29.9342 90.7808 31.9629 90.1046 34.5638 88.7348C37.4075 87.2089 39.3408 85.5877 40.3639 83.8711C40.9881 82.8134 40.9187 81.6777 40.1558 80.4639C39.6876 79.7357 39.0287 79.0594 38.1791 78.4352C36.948 77.5509 35.6909 76.9874 34.4078 76.7446ZM30.4804 76.7966C31.174 75.8603 32.3964 75.5135 34.1477 75.7563C35.7603 75.9817 37.2341 76.5799 38.5692 77.5509C40.0084 78.6086 41.0228 79.675 41.6123 80.75C42.2712 81.9638 42.3146 83.0475 41.7424 84.0012C40.598 85.9778 38.5606 87.8071 35.6302 89.4891C32.7692 91.119 30.0209 92.0813 27.3853 92.3761L26.6311 92.3241C26.423 92.2027 26.319 91.8992 26.319 91.4137C26.319 90.3214 26.8305 87.8938 27.8535 84.1312C28.9285 80.1778 29.8042 77.733 30.4804 76.7966Z" fill="#0D131A"/>
<path d="M109.444 51.4118C109.999 50.3021 110.77 49.1057 111.759 47.8226C112.799 46.4701 113.761 45.4471 114.646 44.7535L115.66 44.7795C115.123 45.1783 114.039 46.4874 112.409 48.7069C110.762 50.9263 110.086 52.0274 110.38 52.01C112.392 51.8713 114.152 51.8713 115.66 52.01C117.238 52.1661 118.963 52.5042 120.836 53.0244L122.188 52.8163C122.414 52.9203 122.058 53.2238 121.122 53.7266C120.22 54.2295 119.154 55.2005 117.923 56.6396C116.779 57.9921 115.998 59.1192 115.582 60.0208L117.221 60.1248L120.082 60.463C121.556 60.7057 122.553 61.0525 123.073 61.5033L125.023 64.2863C125.942 65.7081 127.278 67.5374 129.029 69.7742C131.439 72.8606 133.364 74.976 134.803 76.1204C141.08 81.1142 146.732 82.4493 151.761 80.1258C153.824 79.1895 155.567 77.6983 156.989 75.6523C158.306 73.7449 159.173 71.6295 159.589 69.306L160.604 68.7338C160.24 71.4735 159.338 73.9357 157.899 76.1204C156.39 78.3919 154.509 80.0565 152.255 81.1142C146.88 83.6284 140.915 82.3366 134.361 77.2388C132.176 75.5396 128.847 71.4908 124.373 65.0926C123.229 63.48 122.483 62.5177 122.136 62.2056C121.616 61.7201 120.871 61.408 119.9 61.2692L115.738 61.1132C114.732 61.1305 114.178 61.0438 114.074 60.8531C113.987 60.6797 114.169 60.1769 114.62 59.3446C115.903 57.0211 117.671 55.1051 119.926 53.5966C117.307 52.8856 114.195 52.6516 110.588 52.8943L109.158 52.7383C109.002 52.5649 109.097 52.1227 109.444 51.4118Z" fill="#0D131A"/>
<path d="M125.335 57.9141L124.633 57.9661C124.581 57.8274 124.755 57.6106 125.153 57.3159C125.899 56.7957 126.705 56.3535 127.572 55.9894C128.439 55.6426 129.037 55.5126 129.367 55.5993C129.939 55.7726 130.589 56.7263 131.318 58.4602L132.93 62.8818L132.332 63.6621L130.979 59.8647C130.216 57.9574 129.592 56.9431 129.107 56.8217C128.483 56.6656 127.225 57.0298 125.335 57.9141Z" fill="#0D131A"/>
<path d="M134.881 67.5894L135.791 69.28L135.583 69.7742L135.349 70.2683L133.996 67.5894L134.517 67.6674L134.881 67.5894Z" fill="#0D131A"/>
<path d="M158.809 69.5921L159.225 69.8002C158.289 72.1237 157.049 74.005 155.506 75.4442C153.304 77.5249 150.608 78.5739 147.417 78.5913C143.377 78.6086 139.771 76.3892 136.597 71.9329L137.378 71.7769L137.716 72.2451C137.629 72.8346 137.733 73.2854 138.028 73.5975C138.305 73.875 138.695 74.005 139.198 73.9877C141.695 76.6406 144.426 77.9064 147.391 77.785C149.975 77.681 152.09 77.1088 153.737 76.0684L154.57 75.7303L154.986 75.1321C155.731 74.4732 156.468 73.6062 157.197 72.5312C157.578 72.3404 157.734 72.089 157.665 71.7769L158.809 69.5921Z" fill="#0D131A"/>
<path d="M157.561 70.9706L158.003 70.7105L158.081 71.7249C158.081 72.089 157.985 72.3664 157.795 72.5572C157.517 72.8346 157.214 72.9646 156.884 72.9473L156.52 72.8433V72.2711C156.659 72.4098 156.789 72.4791 156.91 72.4791C157.136 72.4965 157.309 72.4098 157.431 72.219L157.613 71.6208L157.561 70.9706Z" fill="#0D131A"/>
<path d="M156.52 71.5948L156.728 71.4648L156.936 72.7392C156.988 73.3114 156.954 73.6756 156.832 73.8316L156.364 74.2738L155.74 74.4298C155.567 74.4298 155.385 74.3518 155.194 74.1957C155.055 74.1611 154.96 74.0223 154.908 73.7796L154.726 73.1294C154.934 72.5051 155.176 71.985 155.454 71.5688L156.052 71.5168L155.48 72.5312L155.116 73.4415L155.376 73.8056C155.515 73.9096 155.645 73.9617 155.766 73.9617C156.009 73.9617 156.208 73.8663 156.364 73.6756L156.494 73.0773C156.494 72.6785 156.425 72.2017 156.286 71.6468L156.52 71.5948Z" fill="#0D131A"/>
<path d="M154.7 73.7796L154.518 72.8953C154.466 72.8086 154.206 73.1901 153.737 74.0397C153.269 74.8893 153.053 75.3575 153.087 75.4442L153.373 75.7043L153.867 75.8603L154.362 75.7303L154.752 75.4962L154.804 74.95L154.7 73.7796ZM152.619 75.5222C152.602 75.4182 152.636 75.2708 152.723 75.0801L153.659 73.3375L154.414 72.1931L154.648 72.011C154.717 72.011 154.778 72.1064 154.83 72.2971L155.142 73.7536L155.272 74.82C155.272 75.2881 155.177 75.6263 154.986 75.8343C154.691 76.1985 154.31 76.3632 153.841 76.3285C153.512 76.3285 153.183 76.1811 152.853 75.8863C152.714 75.765 152.636 75.6436 152.619 75.5222Z" fill="#0D131A"/>
<path d="M139.614 17.7561C139.042 16.0221 138.392 15.2072 137.664 15.3112C136.953 15.4152 136.242 16.3082 135.531 17.9901C135.167 18.8398 134.43 20.9639 133.32 24.3624C132.297 27.4314 131.465 29.4168 130.823 30.3184L130.199 29.8763C130.511 29.4428 130.91 28.5932 131.396 27.3274L132.696 23.5301C133.58 20.6344 134.239 18.623 134.673 17.496C135.626 15.0164 136.701 13.846 137.898 13.9847C138.973 14.1061 139.805 15.1205 140.395 17.0278L142.189 22.7758C143.195 25.8796 144.053 28.2724 144.764 29.9543C146.394 30.093 148.44 30.6219 150.902 31.5409C153.469 32.5119 155.601 33.5869 157.301 34.766L156.312 35.3382C155.046 34.3845 153.365 33.4742 151.266 32.6072C148.96 31.6362 146.88 31.0554 145.024 30.8646C145.527 32.1478 145.692 32.876 145.518 33.0494C145.345 33.2401 144.877 32.4599 144.114 30.7086C143.039 28.2117 141.539 23.8942 139.614 17.7561Z" fill="#0D131A"/>
<path d="M166.326 50.2414C166.083 47.8659 165.303 45.7331 163.985 43.8431C164.072 43.6871 164.098 43.4183 164.063 43.0369C164.028 42.7421 164.106 42.586 164.297 42.5687C166.135 45.1002 167.167 47.5538 167.392 49.9293C167.583 52.062 167.132 54.3942 166.04 56.9257C165.97 56.839 165.918 56.6049 165.884 56.2235L165.701 55.2871C166.326 53.9867 166.534 52.3048 166.326 50.2414Z" fill="#0D131A"/>
<path d="M165.831 53.2584C166.872 57.5413 167.071 60.5843 166.43 62.3876C165.771 64.2603 163.56 66.7658 159.797 69.9042C158.098 71.3434 156.728 71.9763 155.688 71.8029C154.96 71.6815 153.833 70.9273 152.307 69.5401C150.278 67.7021 148.657 66.471 147.443 65.8468C144.929 64.529 141.175 63.428 136.181 62.5437L136.285 61.7894C140.776 62.3789 144.383 63.35 147.105 64.7024C148.908 65.5867 150.85 66.9912 152.931 68.9159C154.162 70.0603 155.211 70.6585 156.078 70.7105C157.014 70.7625 158.124 70.2337 159.407 69.124C162.719 66.263 164.678 64.0349 165.285 62.4396C165.927 60.7577 165.857 57.8447 165.077 53.7006C164.8 52.2267 164.774 51.4378 164.999 51.3338C165.225 51.2297 165.502 51.8713 165.831 53.2584Z" fill="#0D131A"/>
<path d="M134.361 61.3473C134.43 61.434 134.395 61.5553 134.256 61.7114L133.892 62.0755C133.476 62.1102 132.999 61.8761 132.462 61.3733C131.89 60.8531 131.56 60.3329 131.474 59.8127L130.823 58.2782C131.257 59.2319 131.829 59.9861 132.54 60.541C133.147 61.0265 133.754 61.2953 134.361 61.3473Z" fill="#0D131A"/>
<path d="M169.499 24.8825C171.042 23.6514 172.186 23.4434 172.932 24.2583C173.66 25.0213 173.652 26.1223 172.906 27.5615L165.207 41.7364C163.213 45.5337 161.661 48.9756 160.552 52.062C160.049 53.4492 159.728 53.9347 159.589 53.5185C159.468 53.1197 159.529 52.4782 159.771 51.5939C160.396 49.3224 162.641 44.6148 166.508 37.4709C168.432 33.899 170.296 30.5525 172.1 27.4314C172.759 26.2003 172.871 25.3507 172.438 24.8825C172.004 24.4144 171.285 24.6051 170.279 25.4547C167.175 28.021 164.046 30.4311 160.89 32.6853C156 36.1705 152.636 38.0431 150.798 38.3032L149.498 38.1992C149.394 38.0258 149.784 37.809 150.668 37.549C152.818 36.9247 155.861 35.2081 159.797 32.3992L169.499 24.8825Z" fill="#0D131A"/>
<path d="M153.789 66.8612C153.685 66.7051 153.685 66.5924 153.789 66.523C153.911 66.4537 154.067 66.497 154.257 66.6531L154.726 67.1733L154.96 68.1876C154.994 68.3784 154.96 68.4564 154.856 68.4217L154.596 68.0836L154.231 67.4334L153.789 66.8612Z" fill="#0D131A"/>
<path d="M159.017 66.5491L158.471 67.4854L158.289 67.7715C158.22 67.8062 158.185 67.7542 158.185 67.6155L158.289 66.8612L158.627 66.4451C158.783 66.3063 158.905 66.263 158.991 66.315C159.095 66.3497 159.104 66.4277 159.017 66.5491Z" fill="#0D131A"/>
<path d="M149.004 49.4091C148.917 48.9582 148.952 48.7675 149.108 48.8369C149.246 48.9062 149.35 49.1403 149.42 49.5391C149.68 50.7876 149.81 51.7152 149.81 52.3221C149.827 53.9346 149.411 55.1744 148.561 56.0414C148.319 56.2841 148.18 56.3448 148.145 56.2234C148.111 56.1021 148.18 55.9027 148.353 55.6252C148.718 55.1051 148.943 54.0387 149.03 52.4261C149.116 51.091 149.108 50.0853 149.004 49.4091Z" fill="#0D131A"/>
<path d="M142.241 49.9813C140.716 48.022 139.346 46.5048 138.132 45.4297C137.369 44.7535 136.996 44.3027 137.014 44.0772C137.031 43.8518 137.551 44.1639 138.574 45.0136C139.684 45.9326 140.967 47.3024 142.423 49.123C144.019 51.0997 145.284 52.955 146.221 54.6889C146.793 55.7813 147.027 56.3795 146.923 56.4836C146.802 56.6049 146.429 56.1628 145.805 55.1571C144.782 53.4752 143.594 51.7499 142.241 49.9813Z" fill="#0D131A"/>
<path d="M135.609 49.227C135.418 49.7472 135.262 50.0159 135.141 50.0333C135.02 50.0506 135.011 49.7905 135.115 49.253C135.271 48.4381 135.618 47.5971 136.155 46.7301C136.658 45.9152 137.187 45.2996 137.742 44.8835L138.054 45.0916C138.175 45.2129 138.279 45.2736 138.366 45.2736C137.204 46.0712 136.285 47.389 135.609 49.227Z" fill="#0D131A"/>
<path d="M136.675 51.4898C136.138 51.1084 135.869 50.8569 135.869 50.7356C135.886 50.5969 136.164 50.7009 136.701 51.0477C137.984 51.88 139.424 52.6776 141.019 53.4405C142.926 54.3768 144.677 55.0704 146.273 55.5212L146.507 55.9894C144.565 55.5212 142.588 54.8017 140.577 53.8306C138.912 53.0157 137.612 52.2354 136.675 51.4898Z" fill="#0D131A"/>
<path d="M142.813 50.6575L143.022 50.7616L143.256 50.7876C143.065 51.4465 142.683 51.9753 142.111 52.3741C141.574 52.7383 140.993 52.9117 140.369 52.8943C139.467 52.8596 138.73 52.5475 138.158 51.958C137.516 51.2991 137.239 50.3974 137.326 49.253C137.378 48.6115 137.577 48.0219 137.924 47.4844C138.271 46.9989 138.704 46.6175 139.224 46.34L139.51 46.6781C139.059 46.9382 138.678 47.3197 138.366 47.8225C138.036 48.3427 137.872 48.8889 137.872 49.4611C137.872 50.2934 138.123 51.013 138.626 51.6199C139.129 52.2094 139.736 52.5042 140.447 52.5042C140.967 52.5042 141.444 52.3395 141.877 52.01C142.311 51.6632 142.623 51.2124 142.813 50.6575Z" fill="#0D131A"/>
<path d="M127.624 27.0153C129.428 28.8186 131.76 30.4918 134.621 32.035C135.019 32.2604 135.15 32.4165 135.011 32.5032L134.205 32.4512C132.124 31.9137 129.826 30.4138 127.312 27.9516C124.781 25.4547 123.047 22.9665 122.11 20.487C121.365 18.545 120.723 17.2532 120.186 16.6117C119.717 16.0395 118.894 15.5106 117.715 15.0251C115.582 14.1581 114.039 13.4646 113.085 12.9444C110.623 11.5919 108.499 9.92732 106.713 7.95063C105.499 6.6155 104.407 5.04628 103.436 3.24299C103.106 2.61877 102.838 2.27198 102.63 2.20263C102.317 2.09859 102.092 2.53207 101.953 3.50308C101.832 4.35271 101.754 5.43642 101.719 6.75421C101.702 7.98531 101.728 9.05168 101.797 9.95333C101.884 10.9417 101.789 11.3491 101.511 11.1758C101.234 11.0024 101.043 10.5429 100.939 9.79727L95.5811 8.47081C92.0091 7.60384 89.4949 6.93628 88.0384 6.46811C85.2988 5.60114 83.6429 5.45376 83.0707 6.02596C82.5505 6.54614 83.0794 7.43045 84.6572 8.67888C86.0617 9.77127 86.9981 10.6469 87.4662 11.3058C88.4892 12.7623 89.2088 14.5483 89.625 16.6637C90.0411 18.7444 89.9978 20.2876 89.4949 21.2933C89.1308 22.0042 88.9574 22.507 88.9748 22.8018C88.9921 23.3393 89.3909 23.8855 90.1712 24.4404C91.541 25.3941 92.2692 26.1743 92.3559 26.7812L92.2779 27.6915C91.4629 26.8592 90.4226 26.0009 89.1568 25.1166C88.2205 24.4577 87.7263 23.8162 87.6743 23.1919C87.6396 22.8278 87.8303 22.2383 88.2465 21.4233C88.7147 20.487 88.8707 19.2559 88.7147 17.73C88.5413 15.9961 87.9517 14.1581 86.946 12.2161C86.5299 11.4358 85.3508 10.3001 83.4088 8.80893C81.7962 7.52582 81.3107 6.38142 81.9523 5.37573C82.6632 4.24867 84.6052 4.18798 87.7783 5.19367L94.8528 7.3004L100.887 8.91297C100.714 6.38142 100.731 4.3267 100.939 2.74882C101.095 1.43102 101.494 0.650751 102.135 0.407999C102.846 0.11323 103.548 0.824144 104.242 2.54074C105.005 4.44808 106.011 6.08665 107.259 7.45646C109.132 9.48517 111.395 11.1324 114.047 12.3982C114.81 12.7623 116.25 13.3085 118.365 14.0368C119.648 14.5743 120.532 15.1465 121.018 15.7534C121.469 16.3429 122.084 17.6433 122.865 19.6547C123.922 22.4637 125.509 24.9172 127.624 27.0153Z" fill="#0D131A"/>
<path d="M120.056 23.7641C116.432 19.9495 113.25 17.5913 110.51 16.6897C106.384 15.3199 102.69 15.1812 99.4304 16.2735C96.3787 17.2966 94.376 19.1259 93.4223 21.7615C92.2433 25.0906 92.2519 28.5325 93.4484 32.0871C94.9395 36.4566 98.0346 39.569 102.734 41.4243C107.259 43.2276 110.952 44.216 113.813 44.3893C115.426 44.476 116.588 44.3287 117.299 43.9472C117.854 42.2826 118.53 40.9388 119.327 39.9158C121.183 37.4883 123.983 35.633 127.728 34.3498C126.098 30.934 123.541 27.4054 120.056 23.7641ZM128.587 34.4019C128.847 35.0608 128.873 35.4162 128.665 35.4682C128.457 35.5376 128.231 35.3469 127.988 34.896C124.902 35.9884 122.44 37.6443 120.602 39.8638C119.891 40.7307 119.015 42.2046 117.975 44.2853C117.593 45.0656 117.351 45.4124 117.247 45.3257C117.177 45.2563 117.169 45.0569 117.221 44.7275C113.978 45.7331 108.915 44.8922 102.031 42.2046C97.0896 40.2626 93.8298 36.9334 92.2519 32.2171C90.9688 28.3157 91.0122 24.6571 92.382 21.2413C93.509 18.4323 95.6938 16.4729 98.9363 15.3632C102.3 14.2015 106.011 14.2795 110.068 15.5973C113.883 16.8457 117.793 19.7241 121.798 24.2323C125.058 27.9429 127.321 31.3328 128.587 34.4019Z" fill="#0D131A"/>
<path d="M105.777 20.2009C107.632 19.5593 109.808 19.3773 112.305 19.6547C114.802 19.9148 116.969 20.5564 118.807 21.5794L119.405 22.5417C117.585 21.536 115.469 20.8598 113.059 20.513C110.528 20.1662 108.404 20.2876 106.687 20.8771C104.277 21.7268 102.621 23.218 101.719 25.3507C101.182 26.6338 101.086 28.099 101.433 29.7462C101.78 31.3935 102.508 32.9974 103.618 34.5579C105.317 36.9507 107.511 38.7627 110.198 39.9938C112.886 41.2249 115.764 41.7451 118.833 41.5543L118.885 42.1526C115.695 42.3606 112.626 41.8058 109.678 40.488C106.696 39.1702 104.329 37.2802 102.578 34.818C101.381 33.1361 100.592 31.4542 100.211 29.7722C99.8293 28.021 99.9247 26.4778 100.497 25.1426C101.503 22.7151 103.262 21.0679 105.777 20.2009Z" fill="#0D131A"/>
<path d="M144.348 77.2648C144.643 77.2128 144.825 77.1001 144.894 76.9267C144.981 76.7533 145.042 76.2331 145.076 75.3661L145.024 73.9356C144.99 73.849 144.669 74.1611 144.062 74.872C143.455 75.6002 143.143 76.0597 143.126 76.2505C143.108 76.4412 143.152 76.6319 143.256 76.8227L143.672 77.2128L144.348 77.2648ZM144.972 73.1814L145.414 72.9213C145.501 72.9386 145.562 73.1554 145.597 73.5715L145.518 76.3545C145.484 76.9094 145.293 77.3082 144.946 77.5509L143.464 77.6549C143.221 77.5683 143.004 77.4035 142.814 77.1608C142.623 76.8833 142.536 76.6232 142.553 76.3805C142.588 76.1551 142.822 75.7563 143.256 75.1841L144.972 73.1814Z" fill="#0D131A"/>
<path d="M141.175 75.6523C141.556 75.791 141.903 75.7216 142.215 75.4442C142.458 75.2188 142.675 74.1264 142.866 72.167C142.831 72.063 142.441 72.3838 141.695 73.1294C140.932 73.875 140.533 74.3518 140.499 74.5599V74.6119C140.499 75.1147 140.724 75.4615 141.175 75.6523ZM140.967 76.0684C140.637 75.9123 140.386 75.6869 140.213 75.3922C140.005 75.0801 139.944 74.7593 140.031 74.4298C140.1 74.1351 140.481 73.6409 141.175 72.9473L142.684 71.6469C143.03 71.4561 143.238 71.3868 143.308 71.4388L143.36 72.4011C143.273 73.7536 143.16 74.6466 143.022 75.08C142.658 76.1898 141.973 76.5192 140.967 76.0684Z" fill="#0D131A"/>
<path d="M140.447 70.0863C140.395 69.9996 140.005 70.3117 139.276 71.0227C138.531 71.7336 138.141 72.1931 138.106 72.4011C138.106 72.7132 138.184 72.9993 138.34 73.2594C138.496 73.5195 138.687 73.6929 138.912 73.7796C139.224 73.9183 139.554 73.8143 139.901 73.4675C140.022 73.2074 140.152 72.6005 140.291 71.6469C140.447 70.6932 140.499 70.173 140.447 70.0863ZM140.551 69.28C140.707 69.1413 140.828 69.098 140.915 69.15C141.019 69.2194 141.062 69.3667 141.045 69.5922C140.924 71.5515 140.741 72.8433 140.499 73.4675C140.169 74.3171 139.58 74.5686 138.73 74.2218C138.401 74.0831 138.123 73.8316 137.898 73.4675C137.69 73.086 137.594 72.7219 137.612 72.3751C137.629 72.063 137.802 71.7162 138.132 71.3348L138.938 70.5285L140.551 69.28Z" fill="#0D131A"/>
<path d="M135.687 69.8262C135.722 70.225 135.826 70.5805 135.999 70.8926C136.173 71.2047 136.381 71.4041 136.623 71.4908C136.935 71.6122 137.222 71.5428 137.482 71.2827L137.898 69.254L138.106 67.5634C138.071 67.4941 137.681 67.7975 136.935 68.4737C136.155 69.15 135.739 69.6008 135.687 69.8262ZM136.103 71.8809C135.791 71.6555 135.548 71.3608 135.375 70.9966C135.254 70.7019 135.193 70.3117 135.193 69.8262C135.193 69.6181 135.375 69.2887 135.739 68.8379L136.883 67.7455C137.508 67.1733 137.967 66.7832 138.262 66.5751C138.487 66.419 138.635 66.341 138.704 66.341C138.791 66.341 138.825 66.471 138.808 66.7311L138.444 69.5921L138.132 71.1527C137.941 71.7249 137.629 72.0543 137.196 72.141C136.814 72.2104 136.45 72.1237 136.103 71.8809Z" fill="#0D131A"/>
<path d="M135.739 63.48C136.068 61.1219 136.155 59.9515 135.999 59.9688C135.826 59.9861 135.184 60.7144 134.074 62.1536C132.913 63.6447 132.297 64.5984 132.228 65.0146C132.141 65.4827 132.21 65.9596 132.436 66.4451C132.661 66.9306 132.956 67.2427 133.32 67.3814C133.788 67.5895 134.3 67.5374 134.855 67.2253C135.097 67.0866 135.392 65.8382 135.739 63.48ZM136.623 58.4863C136.71 58.5383 136.753 58.7984 136.753 59.2666L136.467 62.9078C136.242 64.9365 136.008 66.3323 135.765 67.0953C135.418 68.1356 134.551 68.4478 133.164 68.0316C132.575 67.8062 132.124 67.3207 131.812 66.5751C131.517 65.8295 131.491 65.1706 131.734 64.5984C132.011 63.9569 132.722 62.8992 133.866 61.4253L136.103 58.8504C136.363 58.573 136.537 58.4516 136.623 58.4863Z" fill="#0D131A"/>
<path d="M140.473 48.7849C140.473 49.0623 140.386 49.2964 140.213 49.4871C140.022 49.6779 139.797 49.7732 139.536 49.7732C139.276 49.7732 139.051 49.6779 138.86 49.4871C138.652 49.2964 138.548 49.0623 138.548 48.7849C138.548 48.5075 138.652 48.2734 138.86 48.0826C139.051 47.8919 139.276 47.7965 139.536 47.7965C139.797 47.7965 140.022 47.8919 140.213 48.0826C140.386 48.2734 140.473 48.5075 140.473 48.7849Z" fill="white"/>
</svg>
