<svg width="100" height="100" viewBox="0 0 100 100" fill="none" xmlns="http://www.w3.org/2000/svg">
<g clip-path="url(#clip0_10_4478)">
<path d="M61.0881 58.7617H43.8649V38.4991H61.0881V58.7617Z" fill="#0D131A"/>
<path d="M1.05063 59.0994C1.67603 56.748 2.71417 55.4096 4.16508 55.0844C5.86614 54.7092 7.47965 55.5847 9.00561 57.7111C10.3565 59.6123 11.282 61.9137 11.7823 64.6154C12.2827 67.2921 12.2326 70.1188 11.6322 73.0957C11.157 75.5722 10.494 77.4359 9.64351 78.6867L9.04313 79.5122C8.1926 79.162 7.09191 78.2364 5.74107 76.7355C3.78985 74.5341 2.41399 71.9825 1.61349 69.0807C0.537815 65.1532 0.350197 61.8261 1.05063 59.0994Z" fill="#0D131A"/>
<path d="M2.66414 67.4671C2.01373 64.7404 1.82612 62.2514 2.10129 60C2.40148 57.5234 3.22699 56.1476 4.57784 55.8724C5.67852 55.6472 6.80423 56.3727 7.95495 58.0488C9.18071 59.8499 10.0688 62.3264 10.6191 65.4784C10.9193 67.1044 10.9568 69.0681 10.7317 71.3696C10.5065 74.1463 9.94369 76.5228 9.04313 78.499C7.69228 77.5735 6.42899 76.0725 5.25326 73.9962C4.10254 71.97 3.2395 69.7936 2.66414 67.4671Z" fill="#F0E78E"/>
<path d="M2.70167 57.636C2.32644 63.2895 3.3896 68.055 5.89116 71.9324C6.84176 73.3833 7.77984 74.3339 8.70542 74.7842C9.60599 75.2345 10.1563 75.0344 10.3565 74.1838C10.0313 75.8349 9.59348 77.2733 9.04313 78.499C7.69229 77.5735 6.429 76.0725 5.25327 73.9962C4.10255 71.9699 3.23951 69.7936 2.66415 67.4671C2.21387 65.641 1.98873 63.8524 1.98873 62.1013C1.96371 60.2251 2.20136 58.7367 2.70167 57.636Z" fill="#C9C279"/>
<path d="M12.0075 80.7129L10.7317 81.7261L9.08067 82.4015C7.87992 82.2264 7.27954 81.4759 7.27954 80.1501C7.25453 78.8493 7.74233 77.9862 8.74296 77.561C9.74358 77.1107 10.6441 77.2608 11.4446 78.0112C12.2702 78.7617 12.4578 79.6623 12.0075 80.7129Z" fill="#0D131A"/>
<path d="M11.332 79.0619C11.5572 79.5122 11.4571 80 11.0318 80.5253L10.2814 81.1632L9.60596 81.4259C9.08063 81.5259 8.65536 81.3883 8.33016 81.0131C8.08 80.7379 8.00496 80.3127 8.10502 79.7373C8.18006 79.1369 8.44273 78.6867 8.89301 78.3865C9.21821 78.1863 9.61846 78.1238 10.0938 78.1989C10.6691 78.2739 11.0819 78.5616 11.332 79.0619Z" fill="#F0E78E"/>
<path d="M11.332 79.0619C11.5572 79.5122 11.4571 80 11.0318 80.5253L10.2814 81.1632L9.60596 81.4259C9.08063 81.5259 8.65536 81.3883 8.33016 81.0131C8.05499 80.7129 7.97994 80.2877 8.10502 79.7373L9.79357 79.8499C10.444 79.5247 10.7066 79.0244 10.5816 78.3489C10.9068 78.474 11.1569 78.7117 11.332 79.0619Z" fill="#C9C279"/>
<path d="M57.8986 81.7636C58.8743 80.838 60.1626 80.3752 61.7636 80.3752C63.5897 80.3752 65.1032 80.788 66.3039 81.6135C67.8549 82.6892 68.6304 84.3652 68.6304 86.6417C68.6304 88.1426 67.8924 89.5435 66.4165 90.8443C64.9155 92.1951 63.277 92.8205 61.5009 92.7205C60.025 92.6454 58.8117 92.1326 57.8611 91.182C56.7855 90.0563 56.2476 88.4803 56.2476 86.454C56.2476 84.4028 56.798 82.8393 57.8986 81.7636Z" fill="#0D131A"/>
<path d="M58.2739 82.439C59.1995 81.2132 60.3877 80.6003 61.8386 80.6003C63.3395 80.6003 64.6279 81.1382 65.7035 82.2139C66.8042 83.3396 67.3546 84.7654 67.3546 86.4915C67.3546 87.9424 66.6916 89.1932 65.3658 90.2439C64.115 91.2195 62.7267 91.7073 61.2007 91.7073C60.125 91.7073 59.1369 91.1444 58.2364 90.0187C57.3608 88.918 56.923 87.7423 56.923 86.4915C56.923 84.9406 57.3733 83.5897 58.2739 82.439Z" fill="#F0E78E"/>
<path d="M61.2007 91.7073C60.125 91.7073 59.1369 91.1444 58.2364 90.0187C57.3608 88.918 56.923 87.7423 56.923 86.4915C56.923 84.9406 57.3733 83.5897 58.2739 82.439C59.1995 81.2132 60.3877 80.6003 61.8386 80.6003L63.5272 80.863L62.6266 80.788C61.2758 80.788 60.125 81.2633 59.1744 82.2139C58.2238 83.1644 57.7486 84.3152 57.7486 85.666C57.7486 87.0169 58.2238 88.1801 59.1744 89.1557C60.125 90.1063 61.2758 90.5816 62.6266 90.5816C63.7023 90.5816 64.6779 90.2564 65.5534 89.606C66.404 88.9806 66.9918 88.1676 67.317 87.1669C67.0919 88.4427 66.3539 89.5309 65.1031 90.4315C63.9024 91.282 62.6016 91.7073 61.2007 91.7073Z" fill="#C9C279"/>
<path d="M55.4597 73.621L54.9719 91.0694C52.8705 94.3464 49.9812 96.6104 46.3039 97.8611C42.9518 99.0119 37.8862 99.6372 31.1069 99.7373C25.5535 99.8124 20.8005 98.6741 16.848 96.3227C12.6204 93.8211 9.95622 90.2814 8.85553 85.7035C8.45528 83.9274 8.69293 82.4765 9.56847 81.3508C10.5441 80.1251 11.945 79.8999 13.7711 80.6754L16.5103 81.6885L21.4634 82.1013C25.641 81.9762 28.8305 80.4252 31.0319 77.4484C33.2083 74.4715 34.0588 70.494 33.5835 65.5159L44.728 60.1125L55.4597 73.621Z" fill="#0D131A"/>
<path d="M18.8743 82.8893L17.6735 83.3771C16.773 83.9275 16.0225 84.7655 15.4221 85.8912C14.8217 87.0419 14.5966 88.2927 14.7467 89.6435L15.197 91.3696L13.696 90.9193C13.0206 90.6942 12.4828 90.394 12.0825 90.0188C11.4571 89.4184 10.9318 88.6304 10.5066 87.6548C10.1063 86.6792 9.86865 85.641 9.79361 84.5404C9.71856 83.3146 10.0187 82.364 10.6942 81.6886L13.5084 81.6135L15.6848 82.4766C16.9856 82.8768 18.0488 83.0144 18.8743 82.8893Z" fill="#6CBA5A"/>
<path d="M10.0563 86.1538C10.5066 87.1294 11.3071 87.7923 12.4578 88.1426L14.7467 87.9925C14.5966 89.2432 14.7467 90.3689 15.197 91.3696L13.696 90.9193C13.0206 90.6941 12.4828 90.394 12.0825 90.0187C11.0819 89.0431 10.4065 87.7548 10.0563 86.1538Z" fill="#5DA24D"/>
<path d="M25.7411 82.6641L24.878 83.8649C24.3027 84.8905 24.015 85.8912 24.015 86.8668C24.015 87.9174 24.2276 88.9306 24.6529 89.9062C25.0031 90.6566 25.3533 91.182 25.7035 91.4821C26.0788 91.8324 26.0412 92.045 25.591 92.12L21.4634 92.4578C19.6372 92.4578 18.2113 92.1075 17.1857 91.4071C16.2101 90.7317 15.7223 89.8186 15.7223 88.6679C15.7223 87.3421 16.2226 86.0913 17.2232 84.9155C18.0738 83.9149 18.9118 83.3145 19.7373 83.1144L22.7017 82.9268L24.4653 82.5516C25.2407 82.3514 25.666 82.389 25.7411 82.6641Z" fill="#6CBA5A"/>
<path d="M15.7223 88.3302C16.0975 89.3058 17.4734 89.9562 19.8499 90.2814C22.2514 90.5816 23.7898 90.2814 24.4653 89.3809C24.8155 90.3565 25.2282 91.0569 25.7035 91.4822C26.0788 91.8324 26.0412 92.045 25.591 92.1201L21.4634 92.4578C19.6372 92.4578 18.2113 92.1076 17.1857 91.4071C16.2101 90.7317 15.7223 89.8186 15.7223 88.6679V88.3302Z" fill="#5DA24D"/>
<path d="M35.1219 89.1932C33.1207 90.394 31.3321 91.1194 29.7561 91.3696C28.1301 91.5697 26.8918 91.1569 26.0413 90.1313C25.3408 89.2808 24.9906 88.1426 24.9906 86.7167C24.9906 85.8411 25.1157 85.1032 25.3658 84.5028C25.616 83.8274 26.0663 83.177 26.7167 82.5516L29.8311 80.1125C31.3571 78.8618 32.3827 77.6735 32.908 76.5478L33.2082 76.2476L33.4709 76.5478C33.646 77.4734 34.1213 78.449 34.8968 79.4746C36.3227 81.3758 38.449 82.7892 41.2758 83.7148L39.8499 85.4784C38.5241 86.8793 36.9481 88.1175 35.1219 89.1932Z" fill="#6CBA5A"/>
<path d="M31.8949 87.9925C34.7467 86.1663 35.9224 83.5397 35.4221 80.1125C36.823 81.7135 38.7742 82.9143 41.2758 83.7148L39.8499 85.4784C38.524 86.8793 36.9481 88.1176 35.1219 89.1932C33.1207 90.394 31.3321 91.1194 29.7561 91.3696C27.6297 91.6448 26.2038 90.9193 25.4784 89.1932C27.2795 89.9437 29.4184 89.5434 31.8949 87.9925Z" fill="#5DA24D"/>
<path d="M44.8405 62.1388L46.0412 75.4971L44.6529 80.2626L41.8011 82.3264C40.125 82.3264 38.424 81.5009 36.6979 79.8499C34.8968 78.1488 33.9962 76.3852 33.9962 74.5591C33.9962 74.1338 34.0838 73.4959 34.2589 72.6454L34.6716 70.469C35.0219 68.2926 35.172 66.9418 35.1219 66.4165L41.1632 62.1388H44.8405Z" fill="#6CBA5A"/>
<path d="M44.8405 62.1388L46.0412 75.4971L44.6529 80.2626L41.8011 82.3264C40.8755 82.3264 39.8624 82.0137 38.7617 81.3883C37.686 80.788 36.7354 80 35.9099 79.0243C37.686 79.0744 39.0869 78.474 40.1125 77.2232C41.0131 76.1225 41.5134 74.7092 41.6135 72.9831C41.7386 71.3571 41.4884 69.9061 40.863 68.6304C40.2126 67.2795 39.3245 66.5415 38.1988 66.4165L41.1632 62.1388H44.8405Z" fill="#5DA24D"/>
<path d="M51.4071 87.5798C52.9081 89.606 53.4584 90.9444 53.0582 91.5948C52.0075 93.2708 50.444 94.6592 48.3677 95.7599C46.3414 96.8355 44.4027 97.3734 42.5516 97.3734C40.9506 97.3734 39.3371 96.748 37.7111 95.4972C36.1351 94.2714 35.1219 92.9331 34.6717 91.4822C34.4965 90.8568 34.8092 90.344 35.6097 89.9437L39.6623 86.8668L49.0431 84.728L51.4071 87.5798Z" fill="#C9C279"/>
<path d="M40.5253 97.6735C35.9224 98.6241 32.4077 98.9619 29.9812 98.6867C28.6804 98.5366 27.6422 97.8361 26.8668 96.5854C26.0913 95.3346 26.0037 94.2714 26.6041 93.3959C26.7542 93.1957 26.9418 93.0457 27.1669 92.9456L28.2551 92.5704L30.1688 92.1576L33.7335 90.9568L34.8217 93.5835C36.0725 95.5097 37.9737 96.873 40.5253 97.6735Z" fill="#C9C279"/>
<path d="M27.6548 98.424C23.5522 98.1488 20.3377 97.2733 18.0112 95.7974C17.2858 95.272 16.7855 94.6216 16.5103 93.8461C16.2601 93.0957 16.3102 92.7079 16.6604 92.6829L20.4503 93.2458C22.2514 93.3709 23.9775 93.3333 25.6285 93.1332C25.1782 94.2089 25.2157 95.272 25.7411 96.3227C26.1413 97.1732 26.7792 97.8737 27.6548 98.424Z" fill="#C9C279"/>
<path d="M16.2101 94.8218C14.9844 94.0713 13.9712 93.1707 13.1707 92.1201C13.0456 91.97 13.0206 91.8324 13.0957 91.7073L13.5835 91.6323L15.4597 92.3077C15.2595 92.6579 15.2845 93.1332 15.5347 93.7336L16.2101 94.8218Z" fill="#C9C279"/>
<path d="M33.3208 27.7298C34.6466 28.9306 36.9606 31.3571 40.2627 35.0094C42.9143 37.661 45.1657 40.7505 47.0169 44.2777C48.7179 47.5047 49.5685 50.0438 49.5685 51.8949C49.5685 53.3208 49.1682 54.7217 48.3677 56.0976L46.8293 58.2739L45.7036 60.4128L44.015 63.1895C42.9643 64.7154 41.8887 65.7536 40.788 66.3039C39.6623 66.8543 38.0238 67.1294 35.8724 67.1294C32.2201 67.1294 28.5678 64.5028 24.9156 59.2495C21.1632 53.8962 19.287 48.3927 19.287 42.7392C19.287 39.0869 20.1751 35.5347 21.9512 32.0825C23.6273 28.8305 25.4659 26.7792 27.4672 25.9287C29.2183 25.2032 31.1695 25.8036 33.3208 27.7298Z" fill="#0D131A"/>
<path d="M27.7674 27.5422L30.6942 27.4296L36.9231 33.0957L40.863 38.1989C43.5897 41.8011 45.2408 44.09 45.8161 45.0656C47.6923 48.2927 48.6304 50.5065 48.6304 51.7073C48.6304 52.758 48.2426 53.9212 47.4672 55.197L46.0037 57.1857L44.6904 59.4747L43.0769 62.2889C41.4009 64.8155 39.237 66.0788 36.5854 66.0788C33.0081 66.0788 29.5184 63.6773 26.1163 58.8743C22.6141 53.9212 20.863 48.6304 20.863 43.0019C20.863 39.7999 21.626 36.4353 23.152 32.9081C24.7029 29.3308 26.2414 27.5422 27.7674 27.5422Z" fill="#6CBA5A"/>
<path d="M48.6304 51.7073C48.6304 52.7579 48.2426 53.9212 47.4671 55.197L46.0037 57.1857L44.6904 59.4747L43.0769 62.2889C41.4009 64.8155 39.237 66.0788 36.5853 66.0788C35.3095 66.0788 33.8837 65.6535 32.3077 64.803C35.2095 65.6285 37.2107 65.1032 38.3114 63.227C39.4872 61.1757 39.1495 58.1363 37.2983 54.1088C37.0732 53.6085 35.8599 51.8949 33.6585 48.9681C31.5072 46.1413 30.0688 43.8399 29.3433 42.0638L41.5009 39.0619L45.8161 45.0656C47.6923 48.2927 48.6304 50.5065 48.6304 51.7073Z" fill="#5DA24D"/>
<path d="M54.5591 65.591C58.7117 65.591 61.8261 66.5791 63.9024 68.5554C66.0788 70.6066 67.1669 73.7961 67.1669 78.1238C67.1669 81.2258 65.5284 84.2902 62.2514 87.3171C58.8743 90.4691 55.2845 92.045 51.4821 92.045C48.5303 92.045 46.2414 90.9819 44.6154 88.8555C42.9893 86.7042 42.1763 83.6898 42.1763 79.8124C42.1763 76.6854 43.3396 73.6085 45.666 70.5816C48.2426 67.2545 51.207 65.591 54.5591 65.591Z" fill="#0D131A"/>
<path d="M54.6716 66.4916C58.0738 66.4916 60.7755 67.4547 62.7767 69.3809C64.9531 71.4572 66.0413 74.4215 66.0413 78.2739C66.0413 81.1007 64.3902 83.9775 61.0882 86.9043C57.8111 89.8312 54.6091 91.2946 51.4822 91.2946C49.0306 91.2946 47.0294 90.3065 45.4784 88.3302C43.8774 86.304 43.0769 83.5898 43.0769 80.1876C43.0769 77.2608 44.2401 74.309 46.5666 71.3321C49.0431 68.1051 51.7448 66.4916 54.6716 66.4916Z" fill="#F0E78E"/>
<path d="M44.9906 73.7336C46.2914 71.3571 47.8924 69.5059 49.7936 68.1801L55.3471 72.1576L54.9718 76.8856C53.671 76.9856 52.3827 77.4234 51.1069 78.1989C49.9062 78.9243 49.0056 79.7624 48.4052 80.7129C47.955 81.4884 47.0044 82.1764 45.5535 82.7767L43.4897 83.4522L43.3771 83.4146C43.177 82.364 43.0769 81.2883 43.0769 80.1876C43.0769 78.1864 43.7148 76.035 44.9906 73.7336Z" fill="#C9C279"/>
<path d="M50.5816 88.2551C53.9086 88.2551 56.9731 87.3671 59.7748 85.591C62.5015 83.8649 64.5903 81.5634 66.0412 78.6866C65.8661 81.4884 64.1525 84.2901 60.9005 87.0919C57.6735 89.8936 54.534 91.2945 51.4821 91.2945C50.0562 91.2945 48.7679 90.9443 47.6172 90.2439C46.4415 89.5434 45.4784 88.5428 44.7279 87.242C46.5791 87.9174 48.5303 88.2551 50.5816 88.2551Z" fill="#C9C279"/>
<path d="M45.1782 80C47.3296 80 49.0056 80.6879 50.2064 82.0638C51.257 83.2645 51.7573 84.7029 51.7073 86.379C51.6573 87.8549 50.9944 89.2058 49.7186 90.4315C48.3677 91.7073 46.7917 92.3452 44.9906 92.3452C43.4897 92.3452 42.1764 91.8074 41.0507 90.7317C39.7749 89.5059 39.137 87.9174 39.137 85.9662C39.137 84.4653 39.6623 83.127 40.7129 81.9512C41.8887 80.6504 43.3771 80 45.1782 80Z" fill="#0D131A"/>
<path d="M45.3283 80.9756C46.8543 80.9756 48.1301 81.4884 49.1557 82.514C50.1063 83.4897 50.5816 84.6154 50.5816 85.8912C50.5816 87.292 50.0438 88.5678 48.9681 89.7186C47.8674 90.9193 46.5916 91.5197 45.1407 91.5197C43.915 91.5197 42.7892 91.0069 41.7636 89.9812C40.7129 88.9806 40.1876 87.8674 40.1876 86.6416C40.1876 84.8905 40.6754 83.5022 41.651 82.4765C42.5766 81.4759 43.8024 80.9756 45.3283 80.9756Z" fill="#F0E78E"/>
<path d="M40.3002 85.4409C40.8255 86.7667 41.6635 87.8299 42.8143 88.6304C44.015 89.4559 45.3408 89.8687 46.7917 89.8687C47.6673 89.8687 48.4803 89.7186 49.2308 89.4184C48.0801 90.8193 46.7167 91.5197 45.1407 91.5197C43.915 91.5197 42.7892 91.0069 41.7636 89.9813C40.7129 88.9806 40.1876 87.8674 40.1876 86.6417C40.1876 86.2164 40.2251 85.8162 40.3002 85.4409Z" fill="#C9C279"/>
<path d="M69.7936 74.1088C66.4415 76.3352 62.5516 77.4484 58.1238 77.4484C53.8962 77.4484 50.5691 76.2602 48.1426 73.8837C45.616 71.4322 44.3527 67.9675 44.3527 63.4897C44.3527 60.4128 45.7161 57.7236 48.4428 55.4222C51.3446 52.9456 54.9969 51.7073 59.3996 51.7073C64.7029 51.7073 68.6554 53.0957 71.257 55.8724C73.6085 58.374 74.7842 61.9137 74.7842 66.4916C74.7842 69.3434 73.1207 71.8824 69.7936 74.1088Z" fill="#0D131A"/>
<path d="M68.5553 73.3208C65.4784 75.3471 62.0637 76.3602 58.3114 76.3602C54.1088 76.3602 50.8943 75.2095 48.6679 72.9081C46.5165 70.6817 45.4409 67.5672 45.4409 63.5647C45.4409 61.0381 46.8542 58.6366 49.681 56.3602C52.6078 54.0087 55.7848 52.833 59.212 52.833C64.04 52.833 67.5922 53.8837 69.8686 55.985C72.1951 58.0863 73.3583 61.4134 73.3583 65.9662C73.3583 68.768 71.7573 71.2195 68.5553 73.3208Z" fill="#F0E78E"/>
<path d="M68.2176 68.9306C70.494 66.9793 72.045 64.4778 72.8705 61.4259C73.1957 62.7267 73.3583 64.2401 73.3583 65.9662C73.3583 68.768 71.7573 71.2195 68.5553 73.3208C65.4784 75.3471 62.0637 76.3602 58.3114 76.3602C54.1088 76.3602 50.8943 75.2095 48.6679 72.908C46.5165 70.6817 45.4409 67.5672 45.4409 63.5647C45.4409 62.0638 46.0412 60.5128 47.242 58.9118C47.6172 62.5641 49.0431 65.641 51.5197 68.1426C54.0212 70.6441 56.948 71.8949 60.3001 71.8949C63.227 71.8949 65.8661 70.9068 68.2176 68.9306Z" fill="#C9C279"/>
<path d="M72.045 58.9493C70.1188 59.7748 68.13 60.1876 66.0788 60.1876C63.6022 60.1876 61.2758 59.6122 59.0994 58.4615C56.9981 57.3608 55.2345 55.8474 53.8086 53.9212C55.6347 53.1957 57.4359 52.833 59.212 52.833C65.8411 52.833 70.1188 54.8718 72.045 58.9493Z" fill="#C9C279"/>
<path d="M50.0938 60.5253C51.8699 60.5253 53.4333 61.1632 54.7842 62.439C56.2101 63.8149 56.923 65.5285 56.923 67.5797C56.923 69.6811 56.1225 71.3696 54.5215 72.6454C53.0206 73.8462 51.1694 74.4465 48.9681 74.4465C47.1919 74.4465 45.6785 73.7961 44.4277 72.4953C43.1269 71.1445 42.4765 69.4559 42.4765 67.4296C42.4765 65.3534 43.202 63.6773 44.6529 62.4015C46.0788 61.1507 47.8924 60.5253 50.0938 60.5253Z" fill="#0D131A"/>
<path d="M49.7936 61.5009C51.6198 61.5009 53.1082 62.1388 54.2589 63.4146C55.3096 64.5903 55.8349 65.9787 55.8349 67.5797C55.8349 69.2558 55.1845 70.6691 53.8837 71.8199C52.6079 72.9456 51.0694 73.5084 49.2683 73.5084C47.6173 73.5084 46.2289 72.9331 45.1032 71.7823C44.0025 70.6316 43.4521 69.2307 43.4521 67.5797C43.4521 65.8536 44.04 64.4152 45.2157 63.2645C46.4165 62.0888 47.9425 61.5009 49.7936 61.5009Z" fill="#F0E78E"/>
<path d="M50.2439 70.9568C52.4203 70.9568 54.2464 70.1939 55.7223 68.6679C55.4471 70.0688 54.6967 71.232 53.4709 72.1576C52.2451 73.0582 50.8443 73.5084 49.2683 73.5084C47.6173 73.5084 46.2289 72.9331 45.1032 71.7824C44.0025 70.6316 43.4521 69.2308 43.4521 67.5797L43.4897 66.9418C44.1651 68.1676 45.0907 69.1432 46.2664 69.8687C47.4672 70.5941 48.793 70.9568 50.2439 70.9568Z" fill="#C9C279"/>
<path d="M66.379 66.1538C66.9293 64.9531 67.6298 63.965 68.4803 63.1895C69.4309 62.3139 70.3815 61.8762 71.3321 61.8762C72.5328 61.8762 73.5335 62.364 74.334 63.3396C75.1845 64.3402 75.6098 65.641 75.6098 67.242C75.6098 69.1182 74.8968 70.7567 73.4709 72.1576C72.07 73.5334 70.444 74.2214 68.5929 74.2214C66.8918 74.2214 65.8662 73.3208 65.516 71.5197C65.1907 69.8937 65.4784 68.1051 66.379 66.1538Z" fill="#0D131A"/>
<path d="M71.182 62.6642C72.1326 62.6642 72.9206 63.102 73.546 63.9775C74.1714 64.8531 74.4841 65.8912 74.4841 67.0919C74.4841 68.768 73.9087 70.1814 72.758 71.3321C71.5822 72.5078 70.1689 73.0957 68.5178 73.0957C67.9175 73.0957 67.4046 72.8706 66.9794 72.4203C66.5041 71.92 66.2664 71.2445 66.2664 70.394C66.2664 68.843 66.8168 67.1795 67.9174 65.4034C69.0432 63.5773 70.1313 62.6642 71.182 62.6642Z" fill="#F0E78E"/>
<path d="M66.2664 70.4691C67.2921 71.4447 68.5428 71.9325 70.0188 71.9325C71.0944 71.9325 72.07 71.6573 72.9456 71.107C71.7699 72.4328 70.2939 73.0957 68.5178 73.0957C67.9175 73.0957 67.4171 72.8831 67.0169 72.4578C66.5416 71.9575 66.2914 71.2946 66.2664 70.4691Z" fill="#C9C279"/>
<path d="M73.5084 58.1989C68.7304 58.1989 64.3777 56.9356 60.4502 54.409C56.6979 52.0075 54.8217 49.5059 54.8217 46.9043C54.8217 45.6535 54.8968 44.878 55.0469 44.5779C54.4465 45.3784 53.3958 46.1789 51.8949 46.9794C48.943 48.5553 45.2908 49.3433 40.938 49.3433C36.8855 49.3433 33.5459 47.4547 30.9193 43.6773C28.1926 39.7999 26.8292 34.7592 26.8292 28.5553C26.8292 19.7999 30.2814 12.733 37.1857 7.35459C43.3646 2.55159 50.5816 0.150085 58.8367 0.150085C66.3914 0.150085 73.6585 2.76422 80.6379 7.99249C88.1425 13.621 91.8949 20.05 91.8949 27.2795C91.8949 31.6823 90.1688 35.3471 86.7167 38.2739L87.5422 39.9625C88.0925 41.4384 88.3677 43.0269 88.3677 44.728C88.3677 48.1051 87.217 51.0694 84.9155 53.621C82.1638 56.6729 78.3614 58.1989 73.5084 58.1989Z" fill="#0D131A"/>
<path d="M73.2458 34.2214C82.4015 34.2214 86.9794 37.7486 86.9794 44.803C86.9794 48.1301 85.6785 51.0069 83.0769 53.4334C80.4503 55.8849 77.3358 57.1107 73.7336 57.1107C68.9556 57.1107 64.6279 55.7348 60.7505 52.9831C57.4484 50.6316 55.7974 48.5803 55.7974 46.8293L55.8724 44.803L55.9475 44.1276L59.9625 40.5253C61.9637 38.5741 64.1151 37.0356 66.4165 35.9099C68.793 34.7842 71.0694 34.2214 73.2458 34.2214Z" fill="#6CBA5A"/>
<path d="M70.5816 51.7824L71.4822 51.7448V56.9981C67.2295 56.5729 63.4396 55.0719 60.1126 52.4953C57.2358 50.2689 55.7974 48.3802 55.7974 46.8293L55.8724 44.803L55.9475 44.1276L57.7486 42.5891C58.6742 45.2908 60.2877 47.4922 62.5891 49.1932C64.9656 50.9193 67.6298 51.7824 70.5816 51.7824Z" fill="#5DA24D"/>
<path d="M80.1876 9.34334C86.9918 14.7467 90.394 20.7255 90.394 27.2795C90.394 30.1063 89.656 32.6079 88.1801 34.7842L85.9662 37.1857C84.8155 35.8099 83.0394 34.7717 80.6379 34.0713C78.4865 33.4459 75.9975 33.1332 73.1707 33.1332C69.7435 33.1332 66.429 34.1839 63.227 36.2852C62.4015 36.8355 59.8499 38.9368 55.5722 42.5891C53.2207 44.6154 50.9818 46.0163 48.8555 46.7917C46.6541 47.5922 43.8774 47.9925 40.5253 47.9925C37.0481 47.9925 34.1463 46.1038 31.8198 42.3265C29.5434 38.5741 28.4052 33.9587 28.4052 28.4803C28.4052 20.4253 31.5197 13.8086 37.7486 8.63039C43.5522 3.80238 50.494 1.38837 58.5741 1.38837C66.2789 1.38837 73.4834 4.04002 80.1876 9.34334Z" fill="#6CBA5A"/>
<path d="M38.6116 43.1895C44.1151 45.5409 49.8561 45.2783 55.8349 42.4015L55.5722 42.5891C53.2207 44.6154 50.9818 46.0162 48.8555 46.7917C46.6541 47.5922 43.8774 47.9925 40.5253 47.9925C37.2733 47.9925 34.5216 46.3289 32.2702 43.0019C30.0438 39.7498 28.7805 35.6348 28.4803 30.6566C29.7561 36.6354 33.1332 40.813 38.6116 43.1895Z" fill="#5DA24D"/>
<path d="M44.5403 8.96811C48.0425 8.96811 51.0194 10.2939 53.4709 12.9456C55.6723 15.3221 56.773 17.9112 56.773 20.7129C56.773 23.965 55.7098 26.6917 53.5835 28.8931C51.232 31.3446 48.0175 32.5704 43.94 32.5704C40.9381 32.5704 38.324 31.4447 36.0976 29.1933C33.8462 26.8918 32.7205 24.1526 32.7205 20.9756C32.7205 17.7236 33.8837 14.9218 36.2101 12.5704C38.5366 10.1689 41.3133 8.96811 44.5403 8.96811Z" fill="#0D131A"/>
<path d="M44.803 10.3189C47.9299 10.3189 50.5441 11.5197 52.6454 13.9212C54.4966 16.0475 55.4221 18.3364 55.4221 20.788C55.4221 23.7148 54.359 26.2164 52.2326 28.2927C49.9812 30.5191 47.142 31.5447 43.7148 31.3696C41.0131 31.2445 38.7367 30.1688 36.8855 28.1426C35.0094 26.0913 34.0713 23.5897 34.0713 20.6379C34.0713 17.7361 35.0844 15.297 37.1107 13.3208C39.162 11.3196 41.7261 10.3189 44.803 10.3189Z" fill="#F9BE00"/>
<path d="M44.2026 28.7054C42.0262 28.7054 40.1626 27.9299 38.6116 26.379C37.0606 24.828 36.2852 22.9643 36.2852 20.788C36.2852 18.5866 37.0606 16.7104 38.6116 15.1595C40.1626 13.6085 42.0262 12.833 44.2026 12.833C46.404 12.833 48.2802 13.6085 49.8311 15.1595C51.3821 16.7104 52.1576 18.5866 52.1576 20.788C52.1576 22.9643 51.3821 24.828 49.8311 26.379C48.2802 27.9299 46.404 28.7054 44.2026 28.7054Z" fill="#0D131A"/>
<path d="M94.1463 9.38085C95.9725 9.00562 97.3859 9.51844 98.3865 10.9193C99.4622 12.3702 99.6373 13.8336 98.9118 15.3096C98.0863 16.9856 96.1476 18.474 93.0957 19.7748C88.5929 21.7511 85.641 23.1395 84.2401 23.94C83.2145 24.5153 82.5391 25.0031 82.2139 25.4034C81.8637 25.8036 81.4884 26.5416 81.0882 27.6172C79.9875 30.5441 78.374 31.8449 76.2476 31.5197C74.8718 31.3196 73.8837 30.7567 73.2833 29.8311C72.9081 29.2808 72.6079 28.3427 72.3827 27.0169L71.9324 24.4653C71.7323 23.8649 71.2445 23.2645 70.469 22.6642C69.7686 22.1138 67.6173 20.9006 64.015 19.0244C60.3127 17.0732 58.0863 15.8224 57.3358 15.272C55.5097 13.9212 54.5091 12.3202 54.334 10.469C54.2089 8.96809 54.5591 7.74233 55.3846 6.79173C56.2351 5.79111 57.3733 5.25327 58.7992 5.17823C60.2251 5.12819 61.5885 5.56597 62.8893 6.49155L66.9794 9.90618L72.1576 14.2589C74.9343 16.3852 76.9106 17.4609 78.0863 17.4859C79.6873 17.5359 82.8893 15.9099 87.6923 12.6079C90.369 10.7817 92.5203 9.70606 94.1463 9.38085Z" fill="#0D131A"/>
<path d="M92.2701 11.257C93.4459 10.6316 94.4965 10.3565 95.4221 10.4315C96.2726 10.5316 96.9356 10.8943 97.4109 11.5197C98.1363 12.4953 98.2364 13.5335 97.711 14.6341C97.1607 15.8099 95.985 16.8355 94.1838 17.7111C90.2064 19.6373 86.9043 21.2758 84.2777 22.6266C83.0519 23.252 82.2139 23.7899 81.7636 24.2401C81.1132 24.8405 80.6004 25.7036 80.2251 26.8293C79.7248 28.2051 79.162 29.1682 78.5366 29.7186C77.8862 30.2689 77.0982 30.4565 76.1726 30.2814C75.247 30.1063 74.6091 29.7561 74.2589 29.2308C73.9337 28.7305 73.7085 27.8174 73.5835 26.4916C73.4584 25.3658 73.2082 24.4528 72.833 23.7523C72.3577 22.9018 71.5572 22.0763 70.4315 21.2758L66.5291 19.0619L60.2626 15.6473C57.9862 14.3465 56.5353 12.9706 55.9099 11.5197C55.3596 10.1939 55.4972 8.95559 56.3227 7.80487C57.1232 6.67917 58.2489 6.2539 59.6998 6.52908C61.3258 6.82926 63.227 7.99249 65.4034 10.0188C67.5047 11.995 69.6935 13.7961 71.97 15.4221C74.8217 17.4484 76.8855 18.4615 78.1613 18.4615C79.6372 18.4615 81.8761 17.5735 84.878 15.7974L92.2701 11.257Z" fill="#DA4E70"/>
<path d="M98.0113 13.0206C98.1113 13.8462 97.8486 14.6592 97.2233 15.4597C96.5478 16.3102 95.5347 17.0607 94.1839 17.7111C90.2064 19.6373 86.9043 21.2758 84.2777 22.6266C83.0519 23.252 82.2139 23.7899 81.7636 24.2402C81.1132 24.8405 80.6004 25.7036 80.2251 26.8293C79.7248 28.2051 79.162 29.1682 78.5366 29.7186C77.8862 30.2689 77.0982 30.4565 76.1726 30.2814C75.247 30.1063 74.6091 29.7561 74.2589 29.2308C73.9337 28.7305 73.7086 27.8174 73.5835 26.4916C73.4584 25.3659 73.2083 24.4528 72.833 23.7524C72.3577 22.9018 71.5572 22.0763 70.4315 21.2758L66.5291 19.0619L60.2627 15.6473C58.5116 14.6717 57.2483 13.621 56.4728 12.4953C55.7724 11.4947 55.4972 10.4941 55.6473 9.49344C55.5722 10.6191 58.449 12.7705 64.2777 15.9475C70.1814 19.1495 74.6466 20.9006 77.6735 21.2008C80.025 21.4509 83.965 20.4378 89.4934 18.1614C94.9719 15.9099 97.8111 14.1964 98.0113 13.0206Z" fill="#B8405F"/>
<path d="M74.5966 41.9887C77.7486 41.9887 80.3252 42.8393 82.3265 44.5403C84.2026 46.1163 85.1407 48.055 85.1407 50.3565C85.1407 51.8074 84.3527 53.2833 82.7767 54.7842C80.8005 56.6854 78.2114 57.6986 75.0094 57.8236C72.0826 57.9237 69.5685 57.3984 67.4672 56.2477C65.0406 54.9218 63.8274 53.0331 63.8274 50.5816C63.8274 48.2301 64.8906 46.2164 67.0169 44.5403C69.1432 42.8393 71.6698 41.9887 74.5966 41.9887Z" fill="#0D131A"/>
<path d="M74.4841 43.0769C76.9106 43.0269 79.0244 43.6273 80.8255 44.878C82.8018 46.2289 83.7899 47.9925 83.7899 50.1689C83.7899 52.2702 82.9393 53.8962 81.2383 55.0469C79.5873 56.1476 77.3108 56.6979 74.409 56.6979C71.4822 56.6979 69.1808 56.0725 67.5047 54.8218C66.0038 53.6961 65.2533 52.2952 65.2533 50.6191C65.2533 48.743 66.0413 47.0794 67.6173 45.6285C69.3684 44.0025 71.6573 43.152 74.4841 43.0769Z" fill="#6CBA5A"/>
<path d="M44.0901 20.4128C42.8643 20.788 41.7261 20.7755 40.6754 20.3752C39.5997 20 38.9243 19.3496 38.6492 18.424C38.349 17.4984 38.5241 16.5603 39.1745 15.6098C39.8249 14.6842 40.7505 14.0338 41.9512 13.6585C43.177 13.2833 44.3152 13.2833 45.3658 13.6585C46.4415 14.0588 47.1295 14.7217 47.4296 15.6473C47.7048 16.5979 47.5297 17.5234 46.9043 18.424C46.2539 19.3496 45.3158 20.0125 44.0901 20.4128Z" fill="#8A969D"/>
<path d="M65.5159 52.2327C67.5922 53.8087 70.419 54.7342 73.9962 55.0094C77.5234 55.2846 80.4252 54.8218 82.7017 53.621C81.1757 55.6723 78.4115 56.698 74.409 56.698C71.9825 56.698 69.9812 56.2602 68.4052 55.3846C66.9543 54.5841 65.9912 53.5335 65.5159 52.2327Z" fill="#5DA24D"/>
<path d="M65.5159 52.2327C67.5922 53.8087 70.419 54.7342 73.9962 55.0094C77.5234 55.2846 80.4252 54.8218 82.7017 53.621C81.1757 55.6723 78.4115 56.698 74.409 56.698C71.9825 56.698 69.9812 56.2602 68.4052 55.3846C66.9543 54.5841 65.9912 53.5335 65.5159 52.2327Z" fill="#5DA24D"/>
<path d="M30.469 46.8293C31.8949 47.6298 32.9956 48.843 33.7711 50.4691C34.5966 52.1951 34.9218 53.8587 34.7467 55.4597C34.5716 57.0357 33.9212 58.1363 32.7955 58.7617C31.6948 59.3871 30.3815 59.3246 28.8555 58.5741C27.3296 57.7986 26.1038 56.5854 25.1782 54.9343C24.2527 53.2833 23.8899 51.6448 24.09 50.0188C24.2652 48.3928 24.9156 47.2671 26.0413 46.6417C27.4171 45.8662 28.8931 45.9287 30.469 46.8293Z" fill="#D6E6AE"/>
<path d="M30.1313 48.5929C31.232 49.1932 32.0575 50.1063 32.6078 51.3321C33.2583 52.6329 33.5084 53.8837 33.3583 55.0844C33.2332 56.2602 32.7454 57.0857 31.8949 57.561L28.9306 57.4109C27.7798 56.8355 26.8543 55.9225 26.1538 54.6717C25.4784 53.4459 25.2157 52.2076 25.3658 50.9568C25.4909 49.7561 25.9787 48.9181 26.8292 48.4428C27.8549 47.8674 28.9556 47.9174 30.1313 48.5929Z" fill="#6CBA5A"/>
<path d="M40.4127 72.7205C40.3377 73.571 40.0625 74.2839 39.5872 74.8593C39.1369 75.4347 38.5991 75.7223 37.9737 75.7223C37.3233 75.7223 36.773 75.4096 36.3227 74.7842C35.8474 74.1338 35.6222 73.3834 35.6473 72.5328C35.6723 71.6823 35.9224 70.9569 36.3977 70.3565C36.873 69.7561 37.4234 69.4684 38.0488 69.4934C38.8242 69.4934 39.4371 69.8437 39.8874 70.5441C40.2877 71.1945 40.4628 71.92 40.4127 72.7205Z" fill="#D6E6AE"/>
<path d="M39.6998 72.7205C39.6498 73.3709 39.4496 73.9087 39.0994 74.334C38.7492 74.7592 38.3364 74.9719 37.8611 74.9719C37.3859 74.9719 36.9731 74.7342 36.6229 74.2589C36.2727 73.7586 36.1101 73.1958 36.1351 72.5704C36.1351 71.92 36.3227 71.3696 36.6979 70.9193C37.0481 70.4941 37.4609 70.2814 37.9362 70.2814C38.5116 70.3064 38.9618 70.5816 39.287 71.107C39.6122 71.5823 39.7498 72.1201 39.6998 72.7205Z" fill="#6CBA5A"/>
<path d="M32.2701 86.4165C31.4946 86.9668 30.7067 87.2545 29.9062 87.2795C29.0806 87.3046 28.4552 87.0544 28.03 86.5291C27.5797 86.0037 27.4546 85.3283 27.6547 84.5028C27.8549 83.6523 28.3177 82.9268 29.0431 82.3264C29.7686 81.7261 30.5566 81.4134 31.4071 81.3884C32.2076 81.3633 32.833 81.6135 33.2833 82.1388C33.8336 82.7892 33.9837 83.5522 33.7335 84.4278C33.4834 85.2283 32.9956 85.8912 32.2701 86.4165Z" fill="#D6E6AE"/>
<path d="M31.8198 85.8912C31.2195 86.3164 30.6191 86.5416 30.0187 86.5666C29.3683 86.5666 28.8805 86.3665 28.5553 85.9662C28.2051 85.566 28.1175 85.0531 28.2926 84.4278C28.4427 83.7774 28.7929 83.2145 29.3433 82.7392C29.8936 82.2889 30.494 82.0513 31.1444 82.0263C31.7698 82.0012 32.2576 82.2014 32.6078 82.6266C33.0081 83.1269 33.1081 83.7148 32.908 84.3902C32.7329 84.9906 32.3702 85.4909 31.8198 85.8912Z" fill="#6CBA5A"/>
<path d="M20.4503 88.4053C19.7999 88.4803 19.2245 88.3802 18.7242 88.1051C18.2239 87.8299 17.9237 87.4547 17.8236 86.9794C17.7236 86.5041 17.8862 86.0413 18.3114 85.591C18.7367 85.1657 19.262 84.8906 19.8874 84.7655C20.5378 84.6654 21.1257 84.753 21.651 85.0282C22.1764 85.2783 22.4765 85.6535 22.5516 86.1539C22.6517 86.7292 22.4765 87.242 22.0263 87.6923C21.601 88.0926 21.0757 88.3302 20.4503 88.4053Z" fill="#D6E6AE"/>
<path d="M20.3002 87.88L18.9869 87.6548C18.5866 87.4547 18.3615 87.1795 18.3114 86.8293C18.2614 86.4541 18.3865 86.1038 18.6867 85.7786C18.9869 85.4534 19.3871 85.2533 19.8874 85.1783C20.3627 85.0782 20.8005 85.1407 21.2007 85.3659C21.576 85.566 21.8011 85.8412 21.8762 86.1914C21.9512 86.6167 21.8136 86.9919 21.4634 87.3171C21.1632 87.6423 20.7755 87.8299 20.3002 87.88Z" fill="#6CBA5A"/>
<path d="M11.8949 86.1538C11.4196 85.8286 11.1069 85.4409 10.9568 84.9906C10.7817 84.5403 10.7942 84.1401 10.9943 83.7898C11.1945 83.4396 11.5447 83.2395 12.045 83.1895C12.5453 83.1394 13.0331 83.252 13.5084 83.5272C13.9837 83.8023 14.3214 84.1776 14.5215 84.6529C14.6966 85.1032 14.6841 85.5034 14.484 85.8536C14.2088 86.2789 13.8086 86.504 13.2833 86.529C12.808 86.5541 12.3452 86.429 11.8949 86.1538Z" fill="#D6E6AE"/>
<path d="M12.1201 85.666C11.7698 85.4409 11.5322 85.1657 11.4071 84.8405C11.282 84.5403 11.2945 84.2651 11.4446 84.015L12.1951 83.5647C12.5453 83.5147 12.8955 83.5897 13.2458 83.7898C13.596 83.99 13.8336 84.2526 13.9587 84.5778C14.0838 84.903 14.0713 85.2032 13.9212 85.4784C13.7461 85.7786 13.4709 85.9412 13.0957 85.9662C12.7455 85.9912 12.4203 85.8911 12.1201 85.666Z" fill="#6CBA5A"/>
<path d="M96.6604 12.2326C96.6354 12.5328 96.4728 12.783 96.1726 12.9831C95.8724 13.1832 95.5222 13.2583 95.1219 13.2082C94.7217 13.1832 94.3965 13.0456 94.1463 12.7955C93.8961 12.5453 93.7836 12.2577 93.8086 11.9324C93.8336 11.6323 93.9962 11.3821 94.2964 11.182C94.5966 11.0069 94.9468 10.9318 95.3471 10.9568C95.7473 11.0069 96.0725 11.1445 96.3227 11.3696C96.5978 11.6198 96.7104 11.9074 96.6604 12.2326Z" fill="#EDADB5"/>
<path d="M67.6548 14.484C67.5797 14.5841 66.5666 14.0463 64.6154 12.8705C62.7642 11.7448 61.4009 10.8568 60.5253 10.2064C59.3496 9.33081 58.8868 8.71793 59.1369 8.36771C59.4621 8.04251 60.2251 8.31768 61.4259 9.19323C62.5766 10.0688 63.8274 11.0694 65.1782 12.1951C66.9043 13.596 67.7298 14.359 67.6548 14.484Z" fill="#EDADB5"/>
</g>
<defs>
<clipPath id="clip0_10_4478">
<rect width="100" height="100" fill="white"/>
</clipPath>
</defs>
</svg>
