<svg width="100" height="126" viewBox="0 0 100 126" fill="none" xmlns="http://www.w3.org/2000/svg">
<g clip-path="url(#clip0_10_4316)">
<path d="M59.0687 104.543C55.0711 107.131 52.1592 108.892 50.3331 109.829C48.9266 110.568 47.7544 110.322 46.8167 109.09C45.9037 107.858 45.842 107.007 46.6316 106.539C48.5811 105.357 50.9747 103.644 53.8126 101.402C56.5764 99.2088 58.4765 97.5579 59.5129 96.4491C57.7115 94.2561 56.3666 92.79 55.4782 92.0508L58.4395 89.8332L62.6962 88.6135L61.8819 91.1638C62.2273 90.9667 63.3378 90.5355 65.2132 89.8702L64.8801 93.1966L64.2138 93.8619L67.4341 98.5189C66.2003 99.7016 63.4118 101.71 59.0687 104.543Z" fill="#763A00"/>
<path d="M98.971 33.9491C98.9217 41.3412 98.9834 46.7744 99.1561 50.2487C94.9117 51.185 89.7543 52.6511 83.6838 54.647C76.4535 57.0371 70.9136 59.2916 67.064 61.4107L70.5064 66.4004L74.9852 72.3879C70.7161 75.2216 67.6192 77.4515 65.6944 79.0778L72.5052 86.6916L64.8801 93.1966L65.2132 89.8702C63.3378 90.5355 62.2273 90.9667 61.8819 91.1638L62.6962 88.6135L58.4395 89.8332L62.104 86.7286C59.7843 85.2994 56.9218 83.2789 53.5164 80.6671L61.4377 71.6487L52.1469 60.8563L40.4871 47.8093C63.6339 32.9019 83.1903 23.3169 99.1561 19.0541C99.0574 23.2676 98.9957 28.2326 98.971 33.9491Z" fill="#FFE100"/>
<path d="M58.4394 89.7224L62.6222 88.0961L63.0663 88.1331L63.1404 88.4657L62.3631 90.5355L64.9911 89.3528C65.4106 89.2049 65.6204 89.3158 65.6204 89.6854C65.5957 90.671 65.423 91.8414 65.1022 93.1967L64.3619 93.7511L64.732 90.4616C64.1151 90.6094 63.2021 90.9421 61.9929 91.4595C61.524 91.632 61.3513 91.4965 61.4747 91.053L62.1039 89.168C60.1051 89.784 58.5875 90.2768 57.5511 90.6464L58.4394 89.7224Z" fill="#763A00"/>
<path d="M59.3278 104.396L50.2591 109.533C52.2332 108.276 55.0217 106.194 58.6245 103.287L66.2126 96.7818L67.5082 98.5189C65.6574 100.219 62.9306 102.178 59.3278 104.396Z" fill="#542400"/>
<path d="M83.3877 54.7948C77.3172 56.84 71.6785 58.9344 66.4717 61.0781C69.4083 59.0822 74.393 56.4457 81.4259 53.1686C89.1497 49.5711 94.9857 47.3288 98.934 46.4418L99.0821 50.2487C95.1585 51.0865 89.927 52.6018 83.3877 54.7948Z" fill="#F9BE00"/>
<path d="M72.9494 69.8376L75.0592 72.4249L65.0281 78.8929C68.9271 74.0881 71.5675 71.0697 72.9494 69.8376Z" fill="#F9BE00"/>
<path d="M72.3572 86.7655L69.1739 89.3158L65.2502 92.5314L65.4723 91.053C67.7673 87.6033 69.3959 85.3857 70.3583 84.4001L72.3572 86.7655Z" fill="#F9BE00"/>
<path d="M65.2502 92.5313L63.7696 93.6401L65.4723 91.0529L65.2502 92.5313Z" fill="#542400"/>
<path d="M99.7854 18.6845C99.6126 21.05 99.5509 26.2367 99.6003 34.2448L99.7483 50.6183L99.4892 50.9509C94.1837 52.0844 88.4464 53.6983 82.2772 55.7927C76.4782 57.7886 71.6909 59.7352 67.9153 61.6325C69.4946 64.0226 72.0857 67.5954 75.6885 72.351C75.8366 72.5235 75.8119 72.6713 75.6145 72.7945C71.7155 75.3571 68.6926 77.4761 66.5458 79.1517L73.1345 86.6546C73.2825 86.8025 73.2702 86.9503 73.0974 87.0982L68.2114 91.1268C66.5087 92.5313 65.423 93.48 64.9541 93.9728L68.0264 98.5189L67.9894 98.9255C67.027 99.8865 64.8801 101.439 61.5487 103.582C58.0199 105.825 54.3925 107.932 50.6663 109.903L50 109.977C49.926 109.829 50.0617 109.656 50.4072 109.459C59.3155 103.94 64.7444 100.281 66.6938 98.482L63.6956 94.0837C63.5969 93.9358 63.6092 93.8003 63.7326 93.6771L66.8419 90.6833L71.4688 86.6916C68.705 83.3652 66.5334 80.9135 64.9541 79.3365C64.7814 79.164 64.7937 79.0162 64.9911 78.893C67.977 76.5029 70.9876 74.3099 74.0228 72.314C70.8889 68.1252 68.3225 64.5277 66.3237 61.5216C66.1756 61.3245 66.2126 61.1766 66.4347 61.0781C70.3336 59.1068 75.1703 57.0863 80.9446 55.0166C87.3359 52.7004 93.1596 50.9756 98.4158 49.8421C98.1937 46.491 98.095 41.3535 98.1197 34.4296C98.1444 27.6536 98.2554 22.8364 98.4528 19.9781C90.3342 22.1957 80.4881 26.2244 68.9147 32.0642C58.1063 37.5097 49.0499 42.8566 41.7456 48.105C45.1017 51.7024 51.9001 59.5134 62.141 71.5378C62.2643 71.6857 62.2643 71.8212 62.141 71.9444L58.1063 76.4166L54.4048 80.6301C58.7973 83.9319 61.524 85.9154 62.5851 86.5807C62.8072 86.7286 62.8196 86.901 62.6222 87.0982L56.5517 92.1248C57.7115 93.2829 58.9206 94.712 60.1792 96.4122C60.3025 96.56 60.3025 96.6955 60.1792 96.8187C59.2908 97.8783 57.3907 99.4922 54.4788 101.661C51.6163 103.78 49.1116 105.443 46.9648 106.65L46.3725 106.724C46.2738 106.601 46.3602 106.441 46.6316 106.244L53.5164 101.106C56.1815 99.0117 57.9336 97.484 58.7726 96.5231C57.366 94.6997 56.1075 93.3075 54.997 92.3465C54.8243 92.1741 54.8366 92.0139 55.0341 91.8661L61.1416 86.8764C58.7479 85.2994 55.9841 83.3528 52.8502 81.0367C52.6774 80.8888 52.6651 80.741 52.8131 80.5931L60.5863 71.6857L50.111 59.5257L39.8949 48.1419C39.7468 47.9694 39.7591 47.8093 39.9319 47.6614C47.3349 42.1913 56.9218 36.5364 68.6926 30.6966C80.7842 24.6844 91.0251 20.5695 99.4152 18.3519C99.7113 18.2779 99.8347 18.3888 99.7854 18.6845Z" fill="#0D131A"/>
<path d="M9.94963 9.96186C8.44435 10.7996 7.12414 12.7339 5.98901 15.7646C5.02662 18.3272 4.47139 20.8159 4.32333 23.2306C3.1882 19.8303 2.31217 15.4074 1.69525 9.96186C1.05366 4.39317 1.14003 1.49794 1.95436 1.27618C2.74402 1.05441 3.95318 1.89218 5.58184 3.78948C6.88971 5.31718 8.34564 7.37464 9.94963 9.96186Z" fill="#0D131A"/>
<path d="M68.2485 6.48758C69.0628 7.79351 69.396 10.2083 69.2479 13.7318C69.0998 16.8365 68.6803 19.5346 67.9894 21.8261C66.1633 23.7727 63.9917 25.6947 61.4747 27.592C58.6369 29.7603 56.2186 31.2018 54.2197 31.9163C56.5147 33.7643 58.3531 35.8957 59.735 38.3105C60.648 39.8874 61.45 41.8217 62.141 44.1132C63.3255 47.8339 63.3995 51.801 62.3631 56.0145C61.45 59.7105 60.0064 62.5565 58.0323 64.5523C53.4918 68.7905 47.6187 71.39 40.4131 72.351C34.2439 73.1887 28.3091 72.7575 22.6088 71.0574C20.1658 70.2442 17.9202 68.7781 15.8721 66.6591C13.5771 64.3183 11.9731 61.5832 11.0601 58.4539C10.1717 55.4478 9.98666 52.3554 10.5049 49.1768C10.8997 46.6635 11.7017 44.2611 12.9109 41.9695C11.3809 40.2447 9.66586 37.2509 7.76575 32.9882C6.18643 29.3661 5.06364 26.3107 4.39737 23.822C4.52075 20.1999 5.23638 17.0459 6.54425 14.3601C7.53132 12.3396 8.61709 10.9105 9.80158 10.0727C11.751 12.8571 13.6882 16.7133 15.613 21.6413C17.6364 26.7911 18.7839 30.98 19.0554 34.2079C22.5841 30.98 27.0383 28.787 32.4178 27.6289C37.3285 26.5694 41.6346 26.594 45.3361 27.7028C47.8531 23.7111 51.715 19.3868 56.9218 14.7297C61.6351 10.5409 65.4107 7.79351 68.2485 6.48758Z" fill="#FFE100"/>
<path d="M25.8291 69.2093C30.5917 66.9178 34.8115 65.3655 38.4883 64.5523C41.4495 63.9117 45.3854 63.6037 50.2961 63.6283C55.1328 63.6283 57.7115 63.9363 58.0323 64.5523C59.4142 67.1888 60.7961 70.9095 62.178 75.7144C63.6586 80.9381 64.7444 86.1002 65.4353 91.2008C67.1874 104.408 65.7561 112.736 61.1416 116.186C57.7608 118.749 51.8508 118.465 43.4113 115.336C39.7098 114.005 36.983 113.131 35.231 112.712C32.9854 112.194 30.6781 111.985 28.3091 112.083C25.9155 112.182 23.7933 111.911 21.9425 111.27C20.2645 110.704 19.0553 109.952 18.315 109.016C16.637 106.847 16.0078 103.188 16.4273 98.0384C16.7481 94.1699 17.5377 90.2398 18.7962 86.2481L20.9061 80.2605L22.979 74.6795C23.2504 74.0142 23.8056 72.9054 24.6446 71.353L25.8291 69.2093Z" fill="#FFE100"/>
<path d="M25.8291 69.2093C26.6188 68.9383 27.2357 69.6775 27.6799 71.4269C28.1487 73.275 28.0624 75.1969 27.4208 77.1928C26.7298 79.3118 25.4096 81.3816 23.4602 83.4021C21.5354 85.4226 19.9807 86.3713 18.7963 86.2481C17.4884 86.2727 16.2052 86.0756 14.9467 85.6567C13.8362 85.2624 13.2563 84.8928 13.207 84.5479C13.207 84.0304 13.4784 83.5746 14.0213 83.1803L12.6888 80.741C12.2446 79.8539 12.0472 79.3365 12.0965 79.1886C12.2199 78.9915 12.7011 78.9299 13.5401 79.0038C13.5154 77.55 14.0583 77.1188 15.1688 77.7102C15.2181 76.5521 15.6993 76.392 16.6124 77.2297C17.3527 76.047 18.3397 74.8519 19.5736 73.6446C20.6347 72.585 21.6464 71.7226 22.6088 71.0573C23.3985 70.2935 24.4719 69.6775 25.8291 69.2093Z" fill="#FFE100"/>
<path d="M68.2485 6.48757C70.8148 5.157 73.4429 4.06051 76.1327 3.1981C79.4641 2.13857 81.4012 2.01536 81.9441 2.82849C82.635 3.86338 81.0804 6.84485 77.2802 11.7729C73.7761 16.2821 70.5928 19.7563 67.7303 22.1957C68.6186 19.4607 69.1245 16.701 69.2479 13.9166C69.3713 10.9844 69.0381 8.50807 68.2485 6.48757Z" fill="#0D131A"/>
<path d="M12.5037 108.794C13.8115 107.71 15.2181 106.934 16.7234 106.465C18.1053 109.743 21.0788 111.603 25.644 112.046C23.4725 113.131 20.8938 113.907 17.9079 114.375C14.8973 114.818 13.1329 114.695 12.6147 114.005C11.603 114.252 11.0107 114.116 10.838 113.599C10.6899 113.18 10.7886 112.712 11.1341 112.194C10.4185 111.258 10.875 110.124 12.5037 108.794Z" fill="#FFE100"/>
<path d="M54.5899 117.886C56.5887 117.96 58.4148 117.615 60.0681 116.851C61.6227 116.137 62.7209 115.213 63.3625 114.079C64.6457 116.198 65.4353 118.206 65.7314 120.104C66.0275 122.05 65.7314 123.282 64.8431 123.8C64.8184 124.514 64.4853 124.872 63.8437 124.872C63.2761 124.847 62.8072 124.613 62.4371 124.169C62.141 124.983 60.9565 124.625 58.8836 123.098C56.7614 121.521 55.3302 119.783 54.5899 117.886Z" fill="#FFE100"/>
<path d="M31.0112 58.306L33.5283 56.6798C34.0218 56.3102 34.7621 55.9775 35.7492 55.6819L37.822 55.3123L40.9683 54.9796C40.8943 55.6942 40.6228 56.4088 40.154 57.1233L36.0823 57.3451C34.6757 57.8625 33.7997 58.6387 33.4542 59.6736L31.0112 58.306Z" fill="#B50005"/>
<path d="M33.4172 59.6366C33.9108 58.6756 34.8115 57.9241 36.1193 57.382C37.5506 56.7906 38.9202 56.7167 40.228 57.1602C38.2045 59.8214 35.9343 60.6468 33.4172 59.6366Z" fill="#E50012"/>
<path d="M13.281 84.0305C13.6758 84.3261 14.5642 84.4863 15.9461 84.5109L19.3515 84.1413L18.8333 86.1742C17.476 86.2234 16.1312 86.014 14.7986 85.5458C13.392 85.053 12.8862 84.5479 13.281 84.0305Z" fill="#F9BE00"/>
<path d="M35.6751 73.1641C35.6505 72.8192 36.5018 72.5112 38.2292 72.2401L40.8943 72.388C40.919 72.6836 40.5858 72.9916 39.8949 73.312L38.2662 73.7924L36.6746 73.7185C36.0083 73.5953 35.6751 73.4105 35.6751 73.1641Z" fill="#F9BE00"/>
<path d="M16.4273 100.182C17.3156 106.761 20.9431 109.792 27.3097 109.274C30.5177 109.003 33.6146 109.225 36.6005 109.94C39.1669 110.556 42.2638 111.701 45.8913 113.377C49.9877 115.299 54.0346 115.521 58.0323 114.042C63.1404 112.17 65.9288 107.66 66.3977 100.515C66.3483 106.108 65.608 110.211 64.1768 112.823C61.8819 117.085 57.6251 118.65 51.4066 117.517C49.3337 117.147 45.4348 116.013 39.7098 114.116C35.0212 112.564 31.9489 111.874 30.493 112.046C25.9031 112.588 22.3497 111.936 19.8327 110.088C17.0442 108.042 15.9091 104.741 16.4273 100.182Z" fill="#F9BE00"/>
<path d="M13.7622 108.018C13.8856 107.845 14.4038 107.587 15.3168 107.242L16.9825 106.65C17.476 108.079 18.6975 109.348 20.647 110.457C22.4237 111.467 24.0771 111.972 25.607 111.972C24.0524 112.81 22.3127 113.439 20.3879 113.857C18.0929 110.432 15.8844 108.486 13.7622 108.018Z" fill="#F9BE00"/>
<path d="M57.403 121.841L55.8854 119.993C55.3919 119.254 55.0464 118.551 54.849 117.886C58.4518 118.256 61.265 116.999 63.2885 114.116C64.1028 115.373 64.5963 116.285 64.7691 116.851C63.1157 116.95 61.5981 117.455 60.2162 118.367C58.8096 119.278 57.8719 120.436 57.403 121.841Z" fill="#F9BE00"/>
<path d="M19.3145 47.107C20.4743 46.7867 21.5847 46.9838 22.6458 47.6984C23.6822 48.413 24.3855 49.4479 24.7557 50.8031C25.1505 52.109 25.0395 53.2917 24.4225 54.3513C23.855 55.3369 22.979 56.0145 21.7945 56.3841C20.61 56.7291 19.4378 56.6059 18.278 56.0145C17.1429 55.4231 16.4149 54.5484 16.0941 53.3903C15.6993 52.0351 15.798 50.7538 16.3903 49.5464C16.9825 48.2898 17.9572 47.4766 19.3145 47.107Z" fill="#0D131A"/>
<path d="M19.0924 47.6245L20.758 47.6984C21.2762 47.9448 21.6341 48.3267 21.8315 48.8442C22.0289 49.4109 22.0289 49.953 21.8315 50.4704C21.6094 51.0125 21.2022 51.3944 20.61 51.6162L18.9443 51.5423C18.4261 51.2959 18.0806 50.8893 17.9079 50.3226C17.7351 49.7312 17.7721 49.1768 18.0189 48.6594C18.241 48.1419 18.5988 47.797 19.0924 47.6245Z" fill="white"/>
<path d="M45.8173 38.754C47.1992 38.3105 48.5441 38.4583 49.8519 39.1975C51.2092 39.9367 52.0358 41.0579 52.332 42.5609C52.6034 43.8176 52.4183 45.0249 51.7767 46.183C51.1598 47.3411 50.2714 48.1173 49.1116 48.5115C47.7544 48.9797 46.4589 48.8935 45.225 48.2528C44.0406 47.6368 43.2386 46.7128 42.8191 45.4808C42.3255 43.9531 42.3996 42.5363 43.0412 41.2303C43.6334 39.9737 44.5588 39.1482 45.8173 38.754Z" fill="#0D131A"/>
<path d="M45.5582 39.3084C46.1011 39.062 46.6563 39.062 47.2239 39.3084C47.7914 39.5302 48.1863 39.9244 48.4083 40.4911C48.6058 41.0086 48.6058 41.5507 48.4083 42.1174C48.2109 42.7334 47.8284 43.14 47.2609 43.3371C46.6686 43.5588 46.1134 43.5588 45.5952 43.3371C45.0523 43.1153 44.6698 42.7334 44.4477 42.1913C44.2256 41.6492 44.2133 41.0948 44.4107 40.5281C44.6081 39.9614 44.9906 39.5548 45.5582 39.3084Z" fill="white"/>
<path d="M33.1951 52.9098C33.1704 52.8113 33.4295 52.6881 33.9724 52.5402L34.7868 52.3924L34.5647 52.8729L34.0835 53.2055L33.5653 53.1685L33.1951 52.9098Z" fill="#0D131A"/>
<path d="M58.5135 47.9202C59.4512 48.2898 60.0681 49.2631 60.3643 50.84C60.6851 52.417 60.5617 53.957 59.9941 55.4601C59.3772 57.1603 58.4148 58.4292 57.1069 59.267C55.7991 60.1048 54.5899 60.2526 53.4794 59.7105C52.369 59.1931 51.641 58.1952 51.2955 56.7168C50.9254 55.1644 51.1105 53.5874 51.8508 51.9858C52.6404 50.2856 53.6892 49.0536 54.9971 48.2898C56.2309 47.5999 57.403 47.4767 58.5135 47.9202Z" fill="#E50012"/>
<path d="M19.2774 61.9651C20.3632 63.345 21.0912 64.7125 21.4613 66.0677C21.8315 67.4969 21.6711 68.4578 20.9801 68.9506C20.3139 69.4188 19.3638 69.2833 18.13 68.5441C17.0689 67.9281 15.9337 66.9548 14.7246 65.6242C13.6635 64.4168 12.9232 63.1725 12.5037 61.8912C12.0842 60.5853 12.1458 59.6613 12.6887 59.1192C13.355 58.5032 14.3668 58.4908 15.724 59.0822C17.0318 59.6489 18.2163 60.6099 19.2774 61.9651Z" fill="#E50012"/>
<path d="M4.50838 2.12627C7.46959 4.93525 10.3444 9.0625 13.1329 14.508C16.4396 20.9884 18.5371 27.4564 19.4255 33.9122L18.6852 34.5775C17.6734 28.0971 15.4278 21.5058 11.9484 14.8037C9.30801 9.6785 6.65526 5.64982 3.99017 2.71763C3.22519 1.92914 2.66997 1.54722 2.32449 1.57186C1.88031 1.62114 1.64588 2.27411 1.6212 3.53076C1.49782 7.81816 2.37384 13.584 4.24928 20.8282C6.51954 29.6001 9.45607 36.5117 13.0589 41.563L12.6887 42.487C8.76513 37.4357 5.61884 30.5488 3.24987 21.8261C1.17702 14.163 0.35035 8.02761 0.769855 3.41988C0.893239 1.79362 1.27573 0.894253 1.91732 0.721771C2.50957 0.57393 3.37325 1.04209 4.50838 2.12627Z" fill="#0D131A"/>
<path d="M4.84153 24.5242L4.06421 22.6393C4.2863 19.6578 4.87854 17.0336 5.84094 14.7667C6.77865 12.5244 8.01249 10.8119 9.54245 9.62921L10.0977 10.4054C8.49369 11.662 7.23517 13.5717 6.32213 16.1342C5.43377 18.5983 4.94023 21.3949 4.84153 24.5242Z" fill="#0D131A"/>
<path d="M69.9512 19.3128C75.0346 14.0152 78.6991 9.40745 80.9447 5.48965C81.6603 4.25764 81.8824 3.45683 81.6109 3.08723L78.8348 3.0133C74.5164 3.85107 69.6674 6.04406 64.2878 9.59225C57.1316 14.2985 50.95 20.3724 45.7433 27.8137L44.8919 27.555C50.3701 19.4976 56.6257 13.1651 63.6586 8.55736C68.9147 5.10773 73.8994 2.98866 78.6127 2.20018C80.7349 1.83057 82.0058 1.96609 82.4253 2.60674C82.7954 3.19811 82.561 4.2946 81.722 5.89621C79.3777 10.2822 75.6268 15.1117 70.4694 20.3847C64.6457 26.323 59.3648 30.2777 54.6269 32.249L53.8496 31.6946C58.5135 29.7233 63.8807 25.5961 69.9512 19.3128Z" fill="#0D131A"/>
<path d="M68.5076 21.3826L67.138 22.5284C68.2485 19.0541 68.816 15.703 68.8407 12.4752C68.8407 9.78938 68.5446 7.94136 67.9523 6.93111L68.6926 6.41367C69.3342 7.52248 69.7044 9.3089 69.8031 11.7729C69.9018 14.8283 69.47 18.0315 68.5076 21.3826Z" fill="#0D131A"/>
<path d="M59.5869 68.9876C59.4142 68.4208 59.4142 68.1005 59.5869 68.0266C59.7843 67.9527 59.9817 68.1991 60.1792 68.7658C64.4976 80.7163 66.6321 91.4102 66.5828 100.847C66.5088 110.383 64.1891 116.038 59.6239 117.812C57.1316 118.773 53.5658 118.736 48.9266 117.701C46.1134 117.085 42.4242 115.94 37.859 114.264C35.9589 113.574 34.503 113.118 33.4912 112.896L28.9014 112.564L23.09 112.194C20.8691 111.701 19.043 110.654 17.6118 109.053C15.7857 107.057 15.3292 102.757 16.2422 96.1534C17.1552 89.402 19.2404 82.4042 22.4978 75.1599C22.7198 74.6671 22.9296 74.4577 23.127 74.5316C23.2997 74.6055 23.2751 74.8889 23.053 75.3817C20.0671 82.6752 18.1423 89.5375 17.2786 95.9686C16.4643 102.277 16.8961 106.367 18.5741 108.239C19.9314 109.767 21.5724 110.753 23.4972 111.196L28.9014 111.603L33.9354 111.936C34.9472 112.133 36.3661 112.588 38.1922 113.303C48.0876 117.048 55.0711 118.145 59.1427 116.593C63.3131 115.016 65.3613 109.558 65.2873 100.219C65.2379 91.3486 63.3378 80.9381 59.5869 68.9876Z" fill="#0D131A"/>
<path d="M22.0166 70.8726L23.09 71.2052C20.5236 72.9793 18.2657 75.2955 16.3162 78.1538C16.0448 78.5726 15.835 78.7451 15.687 78.6712C15.5389 78.5726 15.6006 78.3139 15.872 77.895C17.6488 74.8643 19.6969 72.5235 22.0166 70.8726Z" fill="#0D131A"/>
<path d="M28.087 58.7126C27.865 58.5648 27.8033 58.4292 27.902 58.306L28.4202 58.2691C29.3332 58.614 30.7028 58.1336 32.5289 56.8276C33.59 56.0638 34.5153 55.5587 35.305 55.3123C36.0947 55.0412 37.2174 54.881 38.6734 54.8318L41.1534 54.4622C41.8197 54.2158 42.2392 53.7969 42.4119 53.2055C42.5353 52.9098 42.671 52.7866 42.8191 52.8359C42.9671 52.8605 43.0165 53.033 42.9671 53.3534C42.671 54.8564 41.2398 55.6572 38.6734 55.7558L35.5641 56.1993C34.8238 56.4457 33.9725 56.9139 33.0101 57.6038C30.8879 59.1315 29.2469 59.5011 28.087 58.7126Z" fill="#0D131A"/>
<path d="M31.4184 58.0104C33.3925 59.5381 35.2186 60.0062 36.8966 59.4148C37.785 59.0945 38.5623 58.5278 39.2286 57.7147C39.8949 56.9015 40.3514 55.9899 40.5982 54.9796L41.5976 54.7948C41.4248 55.9529 40.9066 57.0247 40.0429 58.0104C39.2286 58.9467 38.2662 59.6243 37.1557 60.0432L33.9724 60.228C32.8126 59.9816 31.6898 59.4272 30.6041 58.5648L31.4184 58.0104Z" fill="#0D131A"/>
<path d="M11.1341 109.644C12.2692 108.166 14.1076 106.958 16.6494 106.022L16.9825 106.909C14.8109 107.771 13.1946 108.745 12.1335 109.829C11.2205 110.79 10.949 111.504 11.3192 111.973L10.7639 112.749C9.97429 112.034 10.0977 110.999 11.1341 109.644Z" fill="#0D131A"/>
<path d="M14.0583 109.533C14.4038 109.361 14.6135 109.361 14.6876 109.533C14.7863 109.681 14.6629 109.853 14.3174 110.051C13.4784 110.543 12.7504 111.135 12.1335 111.825C11.4673 112.539 11.2081 113.081 11.3562 113.451L12.6147 113.562L12.9479 114.375L11.4302 114.523C10.838 114.449 10.4802 114.239 10.3568 113.894C10.11 113.229 10.4432 112.416 11.3562 111.455C12.1705 110.593 13.0712 109.952 14.0583 109.533Z" fill="#0D131A"/>
<path d="M25.0888 111.936L26.6064 112.157C23.8673 113.513 20.795 114.424 17.3897 114.892C14.0336 115.336 12.2199 115.102 11.9484 114.19C11.8004 113.722 12.1088 113.131 12.8738 112.416C13.6881 111.628 14.6382 111.098 15.724 110.827C16.0694 110.753 16.2669 110.79 16.3162 110.938C16.3656 111.11 16.2298 111.258 15.909 111.381C15.0947 111.701 14.3914 112.108 13.7992 112.601C13.2316 113.094 12.9849 113.488 13.0589 113.784C13.1576 114.202 14.3914 114.301 16.7604 114.079C19.5242 113.808 22.3003 113.094 25.0888 111.936Z" fill="#0D131A"/>
<path d="M54.0717 117.849L55.1451 117.775C55.8114 119.574 57.0452 121.176 58.8466 122.58C60.4506 123.837 61.487 124.33 61.9559 124.059C62.178 123.911 62.141 123.43 61.8448 122.617C61.5734 121.804 61.1415 120.917 60.5493 119.956C60.3766 119.71 60.3642 119.537 60.5123 119.438C60.6357 119.365 60.7961 119.438 60.9935 119.66C61.7585 120.572 62.3014 121.607 62.6222 122.765C62.943 123.972 62.8689 124.699 62.4001 124.946C61.6844 125.315 60.3642 124.785 58.4394 123.356C56.2926 121.755 54.8366 119.919 54.0717 117.849Z" fill="#0D131A"/>
<path d="M63.2884 119.18C63.1404 118.835 63.1527 118.625 63.3255 118.551C63.4735 118.478 63.6339 118.601 63.8066 118.921C64.6703 120.547 65.1269 121.989 65.1762 123.245C65.2009 124.33 64.9418 124.983 64.3989 125.204L63.3995 125.241C62.9553 125.143 62.5605 124.909 62.215 124.539L62.5851 123.726C63.2021 124.342 63.6956 124.564 64.0658 124.391C64.3619 124.243 64.4606 123.726 64.3619 122.839C64.2385 121.853 63.8807 120.634 63.2884 119.18Z" fill="#0D131A"/>
<path d="M62.9923 114.449L63.6586 113.636C65.0158 115.878 65.8425 118.071 66.1386 120.215C66.4347 122.556 65.9535 123.997 64.695 124.539L64.806 123.504C65.423 122.913 65.5464 121.705 65.1762 119.882C64.806 118.108 64.0781 116.297 62.9923 114.449Z" fill="#0D131A"/>
<path d="M40.302 56.7537L39.9689 57.419C38.8831 57.074 37.6863 57.1479 36.3784 57.6407C35.0706 58.1335 34.2069 58.8358 33.7874 59.7475L33.0471 59.5257C33.5653 58.4169 34.54 57.5791 35.9713 57.0124C37.4025 56.4457 38.8461 56.3594 40.302 56.7537Z" fill="#0D131A"/>
<path d="M13.7252 39.9737C13.9966 39.5795 14.2187 39.4316 14.3914 39.5302C14.5642 39.6534 14.5272 39.9121 14.2804 40.3063C12.6024 43.1646 11.5413 46.1214 11.0971 49.1768C10.6529 52.2569 10.8503 55.3123 11.6893 58.343C12.6024 61.6448 14.2434 64.4292 16.6123 66.6961C18.9566 68.9137 21.8562 70.503 25.3109 71.4639C25.9772 71.6611 26.2856 71.8459 26.2363 72.0184L25.1628 72.1292C21.6094 71.4393 18.4878 69.8747 15.798 67.4353C13.1082 64.9959 11.2945 62.076 10.3568 58.6757C9.49311 55.571 9.35738 52.3677 9.94962 49.066C10.5419 45.7395 11.8004 42.7088 13.7252 39.9737Z" fill="#0D131A"/>
<path d="M37.9701 26.5571C41.3014 26.4585 44.2873 26.902 46.9277 27.8877C47.3719 28.0601 47.5693 28.2326 47.52 28.4051L46.7427 28.479C41.0177 26.902 34.9472 27.2224 28.5312 29.44C24.4596 30.8198 21.0295 32.8157 18.241 35.4276C17.8955 35.7479 17.6611 35.8465 17.5377 35.7233C17.3897 35.5754 17.476 35.329 17.7968 34.984C20.4126 32.0272 23.8673 29.8096 28.1611 28.3312C31.4431 27.2224 34.7127 26.631 37.9701 26.5571Z" fill="#0D131A"/>
<path d="M62.289 42.3022C63.4982 45.7272 63.8436 49.4725 63.3254 53.5381C62.7332 58.1459 61.1045 61.8419 58.4394 64.6263C58.1186 64.9712 57.8966 65.0821 57.7732 64.9589C57.6251 64.8357 57.6868 64.5893 57.9582 64.2197C60.2779 61.1889 61.6844 57.5422 62.178 53.2794C62.6222 49.4355 62.2643 45.8997 61.1045 42.6718C59.4018 37.8177 56.5887 34.0107 52.6651 31.251C52.2456 30.9554 52.0975 30.7336 52.2209 30.5858C52.3196 30.4379 52.591 30.4872 53.0352 30.7336C55.1081 31.941 56.9588 33.5549 58.5875 35.5754C60.1915 37.5959 61.4253 39.8382 62.289 42.3022Z" fill="#0D131A"/>
<path d="M16.7234 76.8971L16.2792 77.4515C15.9831 77.2297 15.7734 77.1435 15.65 77.1928L15.5019 77.6363L15.2798 78.1168L14.7246 77.9689L14.1694 77.8581C13.9966 77.932 13.8979 78.1784 13.8732 78.5973L13.7252 79.2995H13.0589L12.5037 79.4104C12.405 79.5582 12.6888 80.2112 13.355 81.3693L14.3915 83.1803L13.9843 83.6978C13.6882 83.9935 13.5524 84.2399 13.5771 84.437C13.6265 84.7327 14.3298 85.0407 15.687 85.361L18.8703 85.6937L18.6852 86.5807C17.6241 86.6793 16.3779 86.4821 14.9467 85.9893C13.5154 85.5212 12.7505 85.053 12.6517 84.5848C12.5777 84.1413 12.8738 83.6608 13.5401 83.1434C12.1335 80.8026 11.5166 79.4227 11.6894 79.0038C11.7634 78.8313 11.9855 78.7205 12.3556 78.6712L13.281 78.7451C13.2316 78.4248 13.2563 78.1045 13.355 77.7841C13.4291 77.4638 13.5524 77.2544 13.7252 77.1558L14.2804 77.0819C14.5272 77.1312 14.7369 77.2174 14.9097 77.3406C14.959 76.7739 15.1318 76.4536 15.4279 76.3796L16.0571 76.4905L16.7234 76.8971Z" fill="#0D131A"/>
<path d="M70.3213 73.5707C67.7302 76.8478 64.5593 79.1394 60.8084 80.4453C58.2173 81.3323 55.3178 80.2605 52.1099 77.2297C48.8772 74.1744 48.0382 71.5625 49.5928 69.3941C51.1721 67.2012 53.319 65.0328 56.0335 62.8891C59.1921 60.3758 62.1656 58.7372 64.9541 57.9734C65.9659 56.3718 66.6198 55.534 66.9159 55.4601L67.9893 55.6818C68.5076 55.9283 68.9641 56.3595 69.3589 56.9755C70.6668 57.1479 71.7649 57.7516 72.6532 58.7865C73.591 59.846 74.0968 61.152 74.1709 62.7043C74.3189 66.4989 73.0357 70.121 70.3213 73.5707Z" fill="#FFE100"/>
<path d="M73.7637 60.7824C75.1456 64.5031 74.1832 68.581 70.8766 73.0163C67.7673 77.2298 64.3989 79.5829 60.7714 80.0757C64.1275 78.5234 67.1874 75.6774 69.9512 71.5379C72.6903 67.423 73.9611 63.8378 73.7637 60.7824Z" fill="#F9BE00"/>
<path d="M68.2485 55.4601C68.7914 55.7065 69.2479 56.1254 69.618 56.7167C72.7273 57.0863 74.43 59.2424 74.7261 63.1848C74.9729 66.4866 73.8748 69.8254 71.4318 73.2011C68.7667 76.8232 65.3243 79.2995 61.1045 80.6301L60.3272 80.5562C60.2532 80.3591 60.4383 80.1743 60.8825 80.0018C64.7073 78.548 67.8783 76.1333 70.3953 72.7575C72.8383 69.4804 73.9611 66.3264 73.7637 63.2957C73.5169 59.9939 72.135 58.0473 69.618 57.456C69.2972 57.4313 69.0875 57.3081 68.9888 57.0863C68.816 56.766 68.5076 56.5073 68.0634 56.3102L66.9159 56.1254C66.6938 56.1993 66.3977 56.5443 66.0276 57.1603C65.6574 57.8256 65.3613 58.1952 65.1392 58.2691C62.252 59.4025 59.7103 60.7454 57.5141 62.2978C54.9477 64.1211 52.48 66.4496 50.111 69.2833C49.8149 69.6282 49.5805 69.7391 49.4078 69.6159C49.2597 69.4927 49.3214 69.234 49.5928 68.8397C52.1839 65.4887 54.9107 62.8522 57.7732 60.9302C59.8213 59.5504 62.1039 58.4539 64.621 57.6408L65.5464 56.458C65.9905 55.7434 66.3977 55.3492 66.7679 55.2753C67.2367 55.1521 67.7303 55.2137 68.2485 55.4601Z" fill="#0D131A"/>
<path d="M67.3971 57.6408L68.0634 57.5299C68.1868 57.6038 68.1251 57.7763 67.8783 58.0473C67.6069 58.3676 67.4712 58.5771 67.4712 58.6756C67.4712 58.8481 67.5452 59.0453 67.6932 59.267L67.9153 59.7105L67.6192 60.1171C67.4218 60.3389 67.3231 60.5853 67.3231 60.8563C67.3231 61.1766 67.4218 61.4846 67.6192 61.7803L67.9153 62.3347L67.7303 62.7782C67.5822 63.0247 67.5205 63.2464 67.5452 63.4435C67.5699 63.6407 67.7179 63.8871 67.9894 64.1827L68.4335 64.7372L68.2485 65.2916C68.1498 65.5872 68.1251 65.8583 68.1744 66.1047L68.7667 66.6221L69.7661 66.9548C70.0869 66.9794 70.2473 67.078 70.2473 67.2505L69.8401 67.5461L68.4706 67.3244C67.9277 67.1026 67.5945 66.8069 67.4712 66.4373C67.3971 66.2402 67.3848 65.9815 67.4341 65.6612C67.4835 65.3162 67.5945 65.0452 67.7673 64.848L67.138 64.3306C66.9406 64.0842 66.8296 63.8378 66.8049 63.5914C66.7062 63.1479 66.8789 62.729 67.3231 62.3347C66.8542 61.9405 66.5828 61.4846 66.5088 60.9672C66.4594 60.4251 66.7062 59.9693 67.2491 59.5997C66.9283 59.3533 66.7679 59.0206 66.7679 58.6017C66.7432 58.4292 66.8049 58.2444 66.9529 58.0473L67.3971 57.6408Z" fill="#0D131A"/>
<path d="M13.7252 39.9737C13.9966 39.5795 14.2187 39.4316 14.3914 39.5302C14.5642 39.6534 14.5272 39.9121 14.2804 40.3063C12.6024 43.1646 11.5413 46.1214 11.0971 49.1768C10.6529 52.2569 10.8503 55.3123 11.6893 58.343C12.6024 61.6448 14.2434 64.4292 16.6123 66.6961C18.9566 68.9137 21.8562 70.503 25.3109 71.4639C25.9772 71.6611 26.2856 71.8459 26.2363 72.0184L25.1628 72.1292C21.6094 71.4393 18.4878 69.8747 15.798 67.4353C13.1082 64.9959 11.2945 62.076 10.3568 58.6757C9.49311 55.571 9.35738 52.3677 9.94962 49.066C10.5419 45.7395 11.8004 42.7088 13.7252 39.9737Z" fill="#0D131A"/>
</g>
<defs>
<clipPath id="clip0_10_4316">
<rect width="100" height="125" fill="white" transform="translate(0 0.5)"/>
</clipPath>
</defs>
</svg>
