<svg width="100" height="96" viewBox="0 0 100 96" fill="none" xmlns="http://www.w3.org/2000/svg">
<g clip-path="url(#clip0_10_4988)">
<path d="M98.506 74.9335C97.6402 77.8934 96.4271 79.8163 94.8666 80.7022C93.2457 81.6284 90.8446 81.6737 87.6632 80.8381C84.5221 80.0126 80.3843 78.0393 75.2498 74.9184C70.2462 71.8779 67.3467 69.6429 66.5514 68.2133C66.3802 67.9113 66.4456 67.4431 66.7477 66.8089C67.0296 66.2149 67.2309 65.928 67.3517 65.9481C69.6472 64.2769 72.2245 62.5956 75.0837 60.9042C80.8222 57.5215 85.1211 55.7798 87.9803 55.6791C89.6113 55.6187 91.207 56.3134 92.7675 57.7631C94.1669 59.0618 95.4002 60.8186 96.4673 63.0335C97.464 65.1175 98.1537 67.2519 98.5363 69.4365C98.939 71.6615 98.9289 73.4938 98.506 74.9335Z" fill="#EEEEEF"/>
<path d="M42.389 79.5998C40.7379 76.5594 40.7278 74.2992 42.3588 72.8193C43.5166 71.7823 46.3355 71.0725 50.8156 70.6899C55.185 70.3174 57.7321 70.4634 58.4569 71.1279C58.9603 71.591 59.8362 72.7236 61.0846 74.5257C62.5343 76.6299 63.8381 78.7491 64.9959 80.8834C68.288 86.9744 69.2897 91.082 68.0011 93.2062C67.548 93.9613 66.6671 94.3892 65.3583 94.4899C64.0999 94.5805 62.5696 94.3539 60.7675 93.8103C56.7807 92.5921 52.8291 90.3722 48.9128 87.1505C45.9831 84.7343 43.8085 82.2174 42.389 79.5998Z" fill="#EEEEEF"/>
<path d="M98.5362 69.4365C98.9389 71.6615 98.9288 73.4938 98.506 74.9335C97.6402 77.8934 96.427 79.8163 94.8665 80.7022C93.2457 81.6284 90.8445 81.6737 87.6631 80.8381C86.9685 80.6569 86.148 80.3801 85.2016 80.0076C88.4132 79.9975 90.9804 79.2626 92.9034 77.8027C94.6853 76.4436 95.5813 74.7371 95.5914 72.6833C95.6216 66.834 93.6584 62.3942 89.7018 59.3639C88.4635 58.4175 87.1044 57.6725 85.6244 57.1288L83.767 56.5852C85.408 56.0113 86.8124 55.7093 87.9803 55.6791C89.6112 55.6187 91.207 56.3134 92.7674 57.7631C94.1668 59.0618 95.4001 60.8186 96.4673 63.0335C97.464 65.1175 98.1536 67.2519 98.5362 69.4365Z" fill="#003F4D"/>
<path d="M42.7816 73.529C42.842 74.425 43.0837 75.3965 43.5065 76.4436C44.8757 79.786 47.8507 83.2292 52.4315 86.773C56.5894 89.9946 60.1684 91.8521 63.1686 92.3454C65.8768 92.7884 67.6588 92.0887 68.5145 90.2463C68.5447 90.79 68.5196 91.3286 68.439 91.8622C68.3383 92.436 68.1923 92.884 68.0011 93.2062C67.548 93.9613 66.6671 94.3892 65.3583 94.4898C64.0999 94.5804 62.5696 94.3539 60.7675 93.8103C56.7807 92.5921 52.8291 90.3722 48.9128 87.1505C45.9831 84.7343 43.8085 82.2174 42.389 79.5998C40.7379 76.5594 40.7278 74.2992 42.3588 72.8192L42.8269 72.487L42.7816 73.529Z" fill="#003F4D"/>
<path d="M93.1903 59.1977C92.1332 58.0903 91.0056 57.2698 89.8076 56.7362C88.7505 56.263 87.8142 56.0818 86.9987 56.1925C85.0959 56.4442 82.3928 57.451 78.8892 59.2128C74.9427 61.1961 71.419 63.4714 68.3182 66.0387C67.5631 66.6629 67.1806 67.2267 67.1705 67.73C67.1504 68.2737 67.5782 68.8929 68.4541 69.5875C72.6322 72.8696 76.6391 75.4368 80.4749 77.2893C83.8274 78.9001 87.185 80.0176 90.5476 80.6418C93.3061 81.1552 95.3549 80.3398 96.6939 78.1954C97.8214 76.3832 98.2543 74.0878 97.9926 71.3091C97.4993 66.084 95.8985 62.0469 93.1903 59.1977ZM86.4853 55.2864C88.7706 54.7428 90.9905 55.4576 93.145 57.4308C95.1183 59.2229 96.6838 61.6895 97.8416 64.8306C98.9993 67.9717 99.4524 70.9819 99.2007 73.8612C98.9188 77.0225 97.8063 79.3682 95.8633 80.8985C93.6283 82.6604 89.4854 82.2979 83.4348 79.8112C77.6257 77.4252 72.31 74.0626 67.4876 69.7234C66.652 68.9684 66.1939 68.475 66.1134 68.2435C66.0329 67.9817 66.1335 67.277 66.4154 66.1293C66.657 65.1527 69.5062 63.2197 74.9629 60.3303C80.2786 57.5214 84.1194 55.8402 86.4853 55.2864Z" fill="#0D131A"/>
<path d="M49.1091 71.1279C45.6458 71.5306 43.5669 72.1397 42.8722 72.9551C41.5835 74.4653 41.6238 76.5594 42.993 79.2374C44.3219 81.8348 46.6727 84.5631 50.0454 87.4223C52.8543 89.7983 56.0457 91.6306 59.6197 92.9193C63.4253 94.2885 65.9724 94.3539 67.2611 93.1156C68.2276 92.1894 68.0917 90.0299 66.8533 86.6371C65.8667 83.9389 64.3213 80.7878 62.2172 77.1836C61.0191 75.0995 60.1382 73.7001 59.5744 72.9853C58.8093 72.0189 58.0391 71.44 57.2639 71.2487C55.2705 70.7654 52.5522 70.7252 49.1091 71.1279ZM41.8151 72.6531C42.2581 71.9987 43.9746 71.3997 46.9647 70.856C49.8743 70.3225 52.7939 70.0557 55.7236 70.0557C57.0625 70.0557 58.1952 70.4483 59.1214 71.2336C59.6046 71.6363 60.2087 72.3813 60.9336 73.4686C63.7726 77.7071 65.917 81.5177 67.3668 84.9004C69.4206 89.6926 69.6068 92.733 67.9255 94.0217C66.204 95.3405 63.5562 95.4161 59.9822 94.2482C56.69 93.181 53.3526 91.3336 49.9699 88.706C46.5167 86.028 43.9947 83.2845 42.4041 80.4757C40.6322 77.3346 40.4358 74.727 41.8151 72.6531Z" fill="#0D131A"/>
<path d="M83.1025 56.9174L83.9784 56.4795C87.3007 56.8822 90.2153 58.7296 92.7222 62.0217C95.3096 65.4246 96.422 69.1043 96.0596 73.0609C95.8482 75.3261 94.8062 77.1332 92.9336 78.4823C90.8597 79.9723 88.3075 80.4203 85.2772 79.8263L84.6731 79.328C84.3912 79.0864 84.1697 78.9404 84.0086 78.89C87.0994 79.6753 89.7069 79.4136 91.8312 78.1048C94.1568 76.6752 95.224 74.3093 95.0327 71.0071C94.7911 66.9196 93.1802 63.4312 90.2002 60.5418C89.0122 59.384 87.7437 58.4729 86.3947 57.8084C85.1362 57.1943 84.0388 56.8973 83.1025 56.9174Z" fill="#0D131A"/>
<path d="M42.3889 72.789L42.7967 72.4719L43.2044 72.1397C42.7916 73.9619 43.6121 76.358 45.6659 79.328C47.4177 81.865 49.4413 84.0296 51.7367 85.8216C55.0993 88.4392 58.4619 90.2967 61.8245 91.394C65.6502 92.6424 67.7342 92.1592 68.0765 89.9443L68.1067 90.3067C68.1269 90.6591 68.1671 90.8907 68.2275 91.0014C67.4221 93.327 64.7391 93.5737 60.1785 91.7414C58.5374 91.087 56.7957 90.2161 54.9533 89.1288C53.4432 88.2328 52.2603 87.4425 51.4045 86.7579C48.8775 84.7343 46.723 82.3734 44.9411 79.6753C43.0685 76.8564 42.2178 74.5609 42.3889 72.789Z" fill="#0D131A"/>
<path d="M94.338 66.2803L94.5796 66.6881L94.8061 67.0958C93.3564 66.9649 89.2337 66.9448 82.438 67.0354L69.2695 67.1864V66.6277C72.0482 66.6579 80.4043 66.5421 94.338 66.2803Z" fill="#0D131A"/>
<path d="M93.598 77.3497L93.2205 77.6517L92.8279 77.9084C91.217 77.3749 88.5592 76.4084 84.8543 75.009C80.0923 73.2069 74.8521 71.1631 69.1337 68.8778V68.757L82.1209 73.3176L93.598 77.3497Z" fill="#0D131A"/>
<path d="M95.4102 72.185L95.4857 72.5625L95.4706 72.925L82.9364 70.4634L69.1337 67.8962V67.277L95.4102 72.185Z" fill="#0D131A"/>
<path d="M48.9883 84.2812C48.787 84.09 48.6007 83.8332 48.4296 83.5111L53.8359 79.7206C56.4635 77.8682 58.175 76.5896 58.9704 75.8848L59.4536 76.3681C58.6885 76.9822 56.7807 78.3816 53.7302 80.5663C51.3341 82.2778 49.7535 83.5161 48.9883 84.2812Z" fill="#0D131A"/>
<path d="M55.5574 88.9627C55.2655 88.8419 54.9936 88.6557 54.7419 88.404C55.4467 87.216 56.4534 85.2478 57.7622 82.4993C59.212 79.4488 60.1533 77.5259 60.5862 76.7305C60.848 76.9923 61.1752 77.1282 61.5678 77.1383L61.4017 77.395L58.4418 83.1638C56.9317 86.0834 55.9702 88.0164 55.5574 88.9627Z" fill="#0D131A"/>
<path d="M61.7037 86.0179L62.2322 79.5847L62.4889 80.1586C62.5796 80.4304 62.6651 80.6317 62.7457 80.7626L62.3077 86.8636L61.9302 91.8924C61.598 91.6004 61.3563 91.4142 61.2053 91.3337L61.7037 86.0179Z" fill="#0D131A"/>
<path d="M87.784 67.866C88.9317 68.8526 89.2992 70.0507 88.8864 71.4601C88.4837 72.7991 87.6229 73.6649 86.304 74.0576C84.7637 74.5106 81.6427 73.9468 76.9411 72.3662C72.451 70.8661 69.179 69.3812 67.1252 67.9113C66.8332 67.6999 66.949 67.3123 67.4725 66.7485C67.8047 66.3961 67.9407 66.1947 67.8803 66.1444L76.8203 66.2652C83.1529 66.5068 86.8074 67.0404 87.784 67.866Z" fill="#0D131A"/>
<path d="M87.1799 68.3643C87.6028 68.6261 87.9098 69.0288 88.1011 69.5724C88.2924 70.106 88.3276 70.6547 88.2068 71.2185C87.9149 72.6078 86.9484 73.373 85.3074 73.5139C84.059 73.6247 80.8877 72.8343 75.7934 71.143C71.4845 69.7134 68.7914 68.7368 67.7141 68.2133C67.3819 68.0522 67.241 67.8005 67.2913 67.4582C67.3316 67.126 67.5178 66.9246 67.8501 66.8542C68.736 66.6729 71.5902 66.6528 76.4126 66.7938C82.1713 66.9649 85.7604 67.4884 87.1799 68.3643Z" fill="#EEEEEF"/>
<path d="M60.1936 85.0061C58.8445 85.429 57.571 85.2679 56.3729 84.5229C55.346 83.8786 54.7973 82.8768 54.7269 81.5177C54.6665 80.1988 55.0692 79.0813 55.935 78.1652C56.5491 77.5208 57.2589 76.9117 58.0643 76.3379C58.8294 75.7842 59.5593 75.3462 60.254 75.0241C60.7976 74.7623 61.3514 74.873 61.9152 75.3563C62.4387 75.7993 62.7004 76.2976 62.7004 76.8513L62.791 79.3884C62.8313 80.677 62.781 81.6838 62.64 82.4087C62.3883 83.6973 61.5729 84.5632 60.1936 85.0061Z" fill="#0D131A"/>
<path d="M60.994 83.7678C60.0175 84.533 58.8848 84.7041 57.5962 84.2813C56.2371 83.8383 55.5273 82.907 55.4669 81.4875C55.4065 80.219 56.076 78.9203 57.4754 77.5913C58.6533 76.4738 59.8362 75.7238 61.0242 75.3412C61.4471 75.2103 61.7491 75.3513 61.9303 75.764C62.0511 76.0258 62.1266 76.4486 62.1568 77.0326C62.2575 78.6736 62.2575 79.9623 62.1568 80.8985C61.9958 82.3181 61.6081 83.2745 60.994 83.7678Z" fill="#EEEEEF"/>
<path d="M89.8528 21.0967C92.6315 25.8386 94.6903 30.1526 96.0293 34.0387C98.0932 40.0692 98.2593 44.6399 96.5277 47.7508C93.6785 52.8753 88.7202 57.6272 81.6527 62.0066C79.0553 63.6074 76.5082 64.9464 74.0114 66.0236C71.8066 66.98 70.2864 67.4733 69.4508 67.5035C68.1822 67.5539 66.6016 66.7032 64.7089 64.9514C63.1786 63.5318 62.1568 62.3237 61.6433 61.327C59.5593 58.0953 57.8226 53.3182 56.4333 46.9957C54.7923 39.5558 54.2537 32.2215 54.8174 24.9929C55.2403 19.5967 56.5843 14.6232 58.8495 10.0727C61.4571 4.81736 64.5025 2.09909 67.9859 1.91788C71.3384 1.73666 75.4813 4.11766 80.4144 9.06087C84.2703 12.9268 87.4165 16.9388 89.8528 21.0967Z" fill="#EEEEEF"/>
<path d="M1.66035 37.3459C2.37516 35.4935 5.92903 35.564 12.322 37.5573C17.1243 39.0574 21.9165 41.0206 26.6986 43.4469C30.1618 45.1987 34.0127 47.6048 38.2512 50.6654C42.7212 53.8871 45.6962 56.4744 47.1762 58.4276L59.6953 72.5474C57.3696 73.5945 53.1463 74.6918 47.0251 75.8396C39.9275 77.1685 34.9943 77.4554 32.2257 76.7003C28.6718 75.7338 25.2992 74.1734 22.1077 72.0189C18.1914 69.3711 14.411 65.7568 10.7665 61.176C7.01131 56.4442 4.30311 51.7628 2.64195 47.1317C1.12174 42.8529 0.794537 39.591 1.66035 37.3459Z" fill="#EEEEEF"/>
<path d="M79.6443 13.8329C78.4261 12.5644 77.0922 12.3379 75.6424 13.1534C75.1894 13.4051 74.7565 13.7474 74.3437 14.1803L73.8453 14.7541C74.238 13.848 74.4796 12.9017 74.5702 11.915C74.7615 9.94179 74.1222 8.77394 72.6523 8.41151C71.1825 8.04907 69.9945 8.24036 69.0884 8.98536C68.7964 9.21692 68.5548 9.48874 68.3635 9.80084L68.1521 10.2086C68.3836 8.336 68.0917 7.39467 67.2762 7.38461C67.0144 7.37454 66.7225 7.46515 66.4003 7.65643L65.9775 7.92826C66.3903 5.78385 66.1235 4.42975 65.1771 3.86597C64.8851 3.69482 64.5428 3.60924 64.1502 3.60924L63.6519 3.66965C65.0311 2.57227 66.4758 1.98835 67.986 1.91788C71.3385 1.73666 75.4813 4.11766 80.4145 9.06087C84.2704 12.9268 87.4165 16.9388 89.8529 21.0967C92.6316 25.8386 94.6904 30.1526 96.0294 34.0387C98.0933 40.0692 98.2594 44.6399 96.5277 47.7508L94.7005 50.7409C95.1032 49.8952 95.4203 48.9187 95.6519 47.8112C96.1351 45.6165 95.9841 43.8999 95.1988 42.6616C94.4035 41.4233 93.6232 40.9451 92.8581 41.227C92.6366 41.2975 92.4252 41.4384 92.2238 41.6498C92.546 41.1767 92.8027 40.5625 92.994 39.8074C93.4873 37.8443 93.2255 35.6545 92.2087 33.2383C91.1919 30.8221 90.1147 29.5385 88.977 29.3874C88.6146 29.3371 88.2672 29.4025 87.935 29.5838L87.5877 29.8556C87.8998 29.6039 88.086 29.1357 88.1464 28.4511C88.2672 27.0517 87.638 25.2144 86.2587 22.9391C84.8795 20.6538 83.5354 19.506 82.2267 19.496C81.8139 19.496 81.4313 19.6118 81.0789 19.8433L80.6712 20.1755C80.9934 19.6218 81.1897 18.9423 81.2602 18.1368C81.4011 16.5361 80.8625 15.1015 79.6443 13.8329Z" fill="#003F4D"/>
<path d="M11.4612 37.3459L8.44091 37.1043C6.35691 37.1446 5.14376 37.6983 4.80146 38.7654C4.45916 39.8225 4.75615 40.779 5.69244 41.6347C6.15556 42.0676 6.6539 42.3898 7.18749 42.6012C6.75458 42.5509 6.40221 42.6566 6.13039 42.9183C5.85856 43.1801 5.74278 43.4972 5.78305 43.8697C5.86359 44.8262 6.67404 45.3648 8.21439 45.4856C7.19756 45.6769 6.58343 46.145 6.37201 46.89C6.09012 47.8767 6.26127 48.8784 6.88546 49.8952C7.6204 51.0631 8.78825 51.8332 10.389 52.2057C9.66413 52.6084 9.347 53.2125 9.43761 54.0179C9.51815 54.7428 9.90575 55.5281 10.6004 56.3737C11.2649 57.1993 12.0804 57.9091 13.0469 58.5031C14.0637 59.1272 15.0352 59.4846 15.9614 59.5753C15.1258 60.1692 15.3171 61.2112 16.5353 62.7013C17.7837 64.2416 19.4549 65.3641 21.549 66.0689C21.1161 66.3407 20.9902 66.7434 21.1714 67.277C21.3426 67.8106 21.7705 68.3693 22.4551 68.9533C24.076 70.3426 26.16 71.2437 28.7071 71.6564C27.7104 71.7873 27.3882 72.0793 27.7406 72.5323C28.0325 72.9149 28.8782 73.4887 30.2776 74.2539C31.3347 74.8378 32.9053 75.4771 34.9893 76.1718L37.7982 77.0325C35.3819 77.1634 33.5244 77.0527 32.2257 76.7003C28.6718 75.7338 25.2992 74.1733 22.1077 72.0189C18.1914 69.3711 14.411 65.7568 10.7665 61.176C7.01131 56.4442 4.30311 51.7628 2.64195 47.1317C1.12174 42.8529 0.794537 39.591 1.66035 37.3459C1.97245 36.5506 3.17553 36.1982 5.2696 36.2888C6.9811 36.3693 9.04497 36.7217 11.4612 37.3459Z" fill="#003F4D"/>
<path d="M95.4857 44.7456C95.375 43.6583 94.9873 42.8026 94.3229 42.1784C93.6383 41.5341 93.0695 41.5391 92.6164 42.1935C91.8412 43.2707 87.8997 47.5696 80.792 55.0901L69.3602 67.1562L70.1605 67.1713C72.4862 66.4162 75.4511 65.037 79.0553 63.0335C82.3273 61.2113 84.8492 59.6105 86.6211 58.2312C89.6414 55.8653 91.8613 53.6857 93.2809 51.6923C94.9722 49.3163 95.7072 47.0008 95.4857 44.7456ZM66.0378 9.46861C65.5747 10.6767 65.0411 12.4084 64.4371 14.6635C63.8028 17.0798 63.2592 19.4708 62.8061 21.8367C61.7289 27.4545 60.9638 33.2887 60.5107 39.3393C59.9973 46.2658 60.0375 51.9641 60.6315 56.4342C60.7825 57.5114 61.15 58.2363 61.7339 58.6088C62.338 59.0014 62.6904 58.4729 62.791 57.0231C63.2541 50.3181 64.8297 41.9972 67.5178 32.0604C69.8132 23.5935 71.7764 17.714 73.4074 14.4219C74.2228 12.7607 74.4041 11.3764 73.951 10.269C73.5483 9.3025 72.8083 8.77395 71.7311 8.68334C70.4424 8.57259 69.4508 9.07597 68.7561 10.1935C68.3232 10.8882 67.85 12.2221 67.3366 14.1954C66.5412 17.4875 65.8113 20.241 65.1469 22.4559L64.4522 22.2293L66.2342 15.3582C66.8282 13.0628 67.3164 11.2405 67.699 9.89145C67.9004 8.73368 67.7946 8.06921 67.3819 7.89806C66.959 7.72691 66.511 8.25043 66.0378 9.46861ZM65.6754 5.93487C65.5949 4.80729 65.2073 4.23847 64.5126 4.2284C61.8245 5.83923 59.6801 8.70851 58.0794 12.8362C56.6598 16.521 55.7537 20.9457 55.3611 26.1104C54.9987 30.8523 55.1044 35.6495 55.6782 40.5021C56.242 45.244 57.1481 49.2358 58.3965 52.4776C58.7187 53.3031 58.9553 53.6454 59.1063 53.5045C59.2573 53.3736 59.2976 52.9357 59.2271 52.1907C58.7237 47.1266 59.2069 39.7017 60.6768 29.916C61.9051 21.7612 63.1333 15.7055 64.3616 11.7489L65.0411 9.71024C65.5345 8.27056 65.7459 7.01211 65.6754 5.93487ZM90.019 30.505C89.2941 29.6291 88.6246 29.5687 88.0105 30.3237C84.1848 35.0354 80.3641 40.6884 76.5485 47.2827C73.055 53.3031 70.1052 59.1575 67.699 64.8457C67.3064 65.782 67.0949 66.5219 67.0647 67.0656C65.8063 66.4011 64.5025 65.3289 63.1535 63.849C62.0158 62.6107 61.2607 61.5838 60.8882 60.7683L59.1818 57.1741C58.467 55.6237 57.8579 54.1136 57.3545 52.6437C55.945 48.5059 54.9131 43.316 54.2587 37.0741C53.2519 27.3588 54.1832 19.0882 57.0525 12.2624C58.2304 9.48371 59.655 7.14802 61.3262 5.2553C62.8363 3.55387 64.3817 2.37092 65.9623 1.70646C68.7007 0.568817 72.0734 1.3994 76.0803 4.1982C79.7248 6.75538 83.3643 10.5207 86.9987 15.4941C90.5525 20.387 93.3514 25.4007 95.3951 30.5352C97.5798 36.0321 98.4405 40.6179 97.9774 44.2926C97.2727 49.8801 92.8681 55.3066 84.7637 60.572C81.9346 62.4143 78.9144 64.0604 75.7028 65.5101C73.0852 66.6981 71.1723 67.4129 69.9642 67.6546C69.34 67.7955 68.6252 67.7099 67.8198 67.3978L68.6051 66.673C71.0515 64.0453 74.701 60.2146 79.5536 55.1807C83.9733 50.5094 87.8897 46.1652 91.3026 42.1482C92.0778 41.232 92.5107 40.0692 92.6013 38.6597C92.6919 37.2402 92.4251 35.6948 91.8009 34.0236C91.1868 32.3725 90.5928 31.1996 90.019 30.505ZM85.1412 22.2747C84.2754 21.2377 83.4901 20.5732 82.7854 20.2813C82.0907 19.9994 81.5923 20.1302 81.2903 20.6739C77.6962 27.2279 74.5349 33.9833 71.8066 40.9401C68.4843 49.4271 66.6067 56.3486 66.1738 61.7046C66.063 63.0838 66.0479 64.0352 66.1285 64.5588C66.2593 65.344 66.6016 65.1024 67.1554 63.8339C70.4877 56.2026 73.795 49.709 77.077 44.353C78.3053 42.3395 79.8355 39.9937 81.6679 37.3157L86.7117 29.9311C87.3158 29.025 87.5323 27.9578 87.3611 26.7296C87.1497 25.2899 86.4097 23.8049 85.1412 22.2747ZM74.842 10.269C75.1642 11.165 75.2346 12.1265 75.0534 13.1534C75.7078 12.3882 76.473 12.051 77.3488 12.1416C78.1341 12.212 78.8993 12.6047 79.6443 13.3195C80.3691 14.0041 80.9279 14.8347 81.3205 15.8112C81.7333 16.8381 81.8642 17.8097 81.7132 18.7258C82.1964 18.5647 82.8458 18.7862 83.6612 19.3903C84.4566 19.9742 85.2419 20.7846 86.0171 21.8216C87.8897 24.3285 88.7202 26.6088 88.5088 28.6626C89.3142 28.7733 90.0995 29.2566 90.8647 30.1123C91.5895 30.9379 92.1936 31.9748 92.6768 33.2232C93.7742 36.1026 93.8396 38.6245 92.8731 40.7891C94.2927 40.779 95.2642 41.4888 95.7877 42.9184C96.2106 44.0862 96.3163 45.5913 96.1049 47.4337C97.2828 43.6483 97.0311 39.1883 95.3498 34.0538C93.7792 29.2717 91.0056 24.0113 87.0289 18.2728C83.1226 12.6248 79.3926 8.45178 75.8387 5.75365C71.6103 2.55214 68.0816 1.83734 65.2526 3.60924C65.8164 3.65958 66.209 4.11263 66.4305 4.96838C66.6218 5.70331 66.657 6.50369 66.5362 7.36951C66.8483 7.19836 67.1956 7.16312 67.5782 7.2638C68.2024 7.42488 68.4994 8.06418 68.4692 9.18168C69.3048 8.36621 70.1756 7.89806 71.0817 7.77725C71.9073 7.65644 72.6674 7.83262 73.3621 8.3058C74.0265 8.76891 74.5198 9.42331 74.842 10.269ZM80.3238 16.0982C79.8406 14.5981 79.0503 13.6668 77.9529 13.3044L76.3068 13.3799C75.5216 13.7524 74.7564 14.6182 74.0114 15.9773C71.4643 20.6991 68.9726 28.582 66.5362 39.6262C65.5093 44.2473 64.719 48.521 64.1653 52.4474C63.6015 56.4543 63.385 59.3387 63.5159 61.1005C63.6065 62.1778 63.7827 62.7919 64.0445 62.9429C64.3465 63.114 64.6485 62.4899 64.9505 61.0703C66.7929 52.1705 69.3753 43.764 72.6976 35.8509C73.8554 33.0823 75.1893 30.1878 76.6995 27.1675L80.0218 20.6135C80.7366 19.1839 80.8373 17.6788 80.3238 16.0982Z" fill="#0D131A"/>
<path d="M47.8104 59.6659L47.5688 59.5602L47.0251 58.8504L47.8104 59.6659Z" fill="#0D131A"/>
<path d="M6.14545 42.4049C4.79639 41.6096 4.14199 40.5575 4.18226 39.2487C4.2326 37.8996 5.05311 37.1899 6.6438 37.1194C4.89203 36.5355 3.59331 36.5959 2.74762 37.3006C1.96235 37.9449 1.60998 39.1027 1.69052 40.7739C1.8516 44.1567 3.4876 48.4858 6.5985 53.7612C9.91075 59.3789 13.8623 64.2064 18.4531 68.2435C23.8091 72.9451 29.1148 75.6734 34.3701 76.4285C32.6787 75.8949 30.9672 75.1348 29.2356 74.1482C27.1717 72.9703 26.5324 72.1548 27.3177 71.7017C25.5961 71.3494 23.935 70.5238 22.3342 69.2251C20.6932 67.9062 20.1395 66.8894 20.6731 66.1746C19.0421 65.7417 17.5269 64.6292 16.1275 62.8372C15.5637 62.1123 15.1862 61.4579 14.9949 60.874C14.8036 60.2599 14.8691 59.8773 15.1912 59.7263C13.4797 59.4746 11.8437 58.3722 10.2833 56.4191C9.59865 55.5734 9.18588 54.8032 9.04493 54.1085C8.89392 53.3333 9.10534 52.7846 9.6792 52.4625L9.66409 52.4474C8.70767 52.1554 7.89722 51.647 7.23276 50.9221C6.57836 50.1973 6.13035 49.3113 5.88873 48.2643C5.75785 47.6803 5.79309 47.1115 5.99444 46.5578C6.18572 46.0444 6.44748 45.7121 6.77971 45.5611C5.9139 45.2087 5.45582 44.65 5.40548 43.8848C5.34508 43.17 5.59173 42.6767 6.14545 42.4049ZM0.814637 37.1194C1.49924 35.9415 3.03959 35.4633 5.43568 35.6848C11.5467 36.2385 18.9867 38.8863 27.7556 43.6281C35.6487 47.8968 41.8302 52.2209 46.3002 56.6003C46.4311 56.9224 46.4412 57.2144 46.3304 57.4762C46.2398 57.6574 46.3959 58.0249 46.7986 58.5786C45.3287 56.7966 43.0836 54.773 40.0633 52.5078C37.0632 50.2728 33.7358 48.1133 30.0813 46.0293C21.5842 41.2069 14.406 38.4131 8.54659 37.6479C7.76131 37.5573 7.04651 37.6328 6.40218 37.8745C5.66724 38.1664 5.24943 38.6245 5.14876 39.2487C5.03801 39.9031 5.26453 40.5273 5.82832 41.1213C6.47265 41.8059 7.43914 42.2791 8.7278 42.5408C9.90572 42.7724 11.582 43.2305 13.7566 43.9151C16.2131 44.6903 18.7149 45.5712 21.262 46.5578L19.7972 46.7239C13.6861 44.499 9.44261 43.2808 7.06664 43.0694C6.83509 43.0492 6.61863 43.1147 6.41728 43.2657C6.21593 43.4167 6.11022 43.5979 6.10015 43.8093C6.04981 44.353 6.57333 44.7205 7.6707 44.9117C11.1541 45.5057 16.3993 47.036 23.4064 49.5026C30.7055 52.0598 36.9172 54.6019 42.0416 57.1288C37.1588 55.0851 31.1283 52.8753 23.9501 50.4993C17.1242 48.2441 12.1055 46.7692 8.89392 46.0746C7.57506 45.7826 6.84515 46.2004 6.70421 47.328C6.60353 48.1737 6.89046 49.0697 7.56499 50.016C8.27979 51.0027 9.12044 51.5715 10.0869 51.7225C16.2584 52.6689 22.3695 53.9575 28.4201 55.5885C31.3095 56.3637 38.5029 58.493 50.0001 61.9764L51.767 63.8188C45.5452 61.4629 38.2361 59.1726 29.8396 56.9476C22.2688 54.9442 16.0923 53.575 11.3102 52.84C10.394 52.6991 9.92082 52.9155 9.89062 53.4894C9.87048 54.0028 10.1826 54.6925 10.8269 55.5583C11.4612 56.404 12.2112 57.154 13.077 57.8084C14.0335 58.5333 14.8791 58.946 15.6141 59.0467L30.5796 60.5116C37.7881 61.327 45.4344 62.7516 53.5187 64.7853L54.2738 65.5857C47.0452 63.9144 41.0701 62.7365 36.3484 62.0519C31.4756 61.3371 25.0374 60.7179 17.0336 60.1944C16.198 60.1441 15.8758 60.4461 16.0671 61.1005C16.2181 61.5838 16.6108 62.1828 17.245 62.8976C17.8592 63.5822 18.6193 64.1762 19.5253 64.6796C20.512 65.2434 21.4684 65.5655 22.3946 65.6461L38.9911 66.975L56.1766 68.4398L56.826 69.1194L40.6674 67.9415L22.3795 66.673C22.2184 66.6629 22.0574 66.7082 21.8963 66.8089C21.6949 66.9398 21.6144 67.121 21.6547 67.3525C21.7654 68.017 22.8678 68.9331 24.9619 70.101C25.8478 70.5943 27.368 70.9869 29.5225 71.2789L34.8382 71.6715C41.3419 71.8326 46.4211 71.8175 50.0756 71.6262C53.0254 71.4752 55.7689 71.1531 58.3059 70.6597L59.2422 71.6564L59.1063 71.7924C58.9553 71.6514 58.6734 71.6111 58.2606 71.6715L45.3639 72.3813C39.3838 72.5323 34.7225 72.482 31.38 72.2303C29.5175 72.0994 28.5107 72.1246 28.3597 72.3058C28.1584 72.5575 29.0493 73.232 31.0327 74.3294C32.3616 75.0744 33.8868 75.6332 35.6084 76.0057C36.8165 76.2674 37.934 76.4084 38.9609 76.4285C41.5886 76.4788 44.8404 76.1365 48.7165 75.4016C51.4851 74.8781 54.2084 74.2287 56.8864 73.4535C53.997 75.1247 49.9951 76.358 44.8807 77.1534C40.0784 77.8883 36.0866 78.0041 32.9052 77.5007C29.7843 77.0175 26.3814 75.5325 22.6967 73.0458C19.2133 70.7101 15.8507 67.7552 12.6089 64.1812C9.37717 60.6072 6.69917 56.8973 4.5749 53.0514C2.32982 48.9942 0.970685 45.2591 0.497506 41.8461C0.195477 39.5809 0.301187 38.0053 0.814637 37.1194Z" fill="#0D131A"/>
<path d="M69.6774 27.8471C70.1807 30.4445 70.2411 33.0722 69.8586 35.7301L69.2243 40.9099C68.8015 44.1919 68.3887 47.0612 67.986 49.5177C66.6973 57.2899 65.4238 61.176 64.1653 61.176C63.6519 60.9042 63.0629 60.4008 62.3985 59.6659C61.0595 58.1859 59.9973 56.2731 59.212 53.9273C58.3664 51.3903 57.7573 48.1334 57.3848 44.1567C57.0928 41.0156 56.972 37.799 57.0223 34.5068C57.0727 31.1543 57.6264 28.3656 58.6835 26.1406C60.0426 23.3016 62.0612 21.9173 64.7392 21.9877C67.2964 22.0582 68.9424 24.0113 69.6774 27.8471Z" fill="#EEEEEF"/>
<path d="M24.6598 46.8296C26.2002 47.0713 27.5543 47.4639 28.7221 48.0076C34.511 50.6855 39.9224 54.0985 44.9562 58.2463C46.718 59.6961 48.208 61.0552 49.4262 62.3237C50.4833 63.401 50.9817 64.0201 50.9213 64.1812C50.8206 64.4732 47.1912 63.8188 40.0331 62.218C31.5159 60.3052 26.7992 59.2783 25.883 59.1373C22.6715 58.6339 20.0287 57.8336 17.9548 56.7362C15.0452 55.1959 13.7868 53.2578 14.1794 50.9221C14.5922 48.4958 16.5604 47.0864 20.0841 46.6937L24.6598 46.8296Z" fill="#EEEEEF"/>
<path d="M64.7392 21.9877C67.2158 22.0582 68.8518 23.9459 69.6471 27.6508C70.2613 30.51 70.3066 33.339 69.783 36.1378C69.6924 34.8089 69.3803 33.4749 68.8467 32.1359C67.7896 29.468 66.1788 28.1189 64.0143 28.0887C61.8397 28.0485 60.0225 29.2264 58.5627 31.6225C58.0995 32.3775 57.7019 33.2031 57.3696 34.0991C57.1985 34.5521 57.0777 34.9297 57.0072 35.2317L57.0223 34.5068C57.0726 31.1543 57.6264 28.3656 58.6835 26.1406C60.0426 23.3016 62.0612 21.9173 64.7392 21.9877Z" fill="#003F4D"/>
<path d="M24.1464 48.1586C21.0757 48.6821 19.4851 50.011 19.3743 52.1454C19.2736 54.2797 20.3307 56.0868 22.5456 57.5668C23.643 58.3017 24.7555 58.8252 25.883 59.1373C22.6715 58.6339 20.0287 57.8336 17.9548 56.7362C15.0452 55.1958 13.7868 53.2578 14.1794 50.9221C14.5922 48.4958 16.5604 47.0864 20.0841 46.6937L24.6598 46.8296C26.2002 47.0713 27.5543 47.4639 28.7221 48.0076L24.1464 48.1586Z" fill="#003F4D"/>
<path d="M63.3197 60.4965L62.6854 59.8773L61.9907 58.7598C62.5243 59.535 62.9623 60.1089 63.3046 60.4814L63.3197 60.4965C63.8734 60.8891 64.3969 60.8388 64.8902 60.3455C65.5949 59.6407 66.4306 56.1724 67.397 49.9405C67.9206 46.5377 68.4189 42.8026 68.8921 38.7353C69.2243 35.8962 68.9928 33.5857 68.1974 31.8037C67.4222 30.0519 66.2141 29.0401 64.5731 28.7683C62.8314 28.4763 61.3263 29.0099 60.0577 30.369C58.8798 31.6275 58.1701 33.2635 57.9284 35.277C57.6163 37.8946 57.6918 41.5492 58.155 46.2407C58.6483 51.1638 59.3278 54.4156 60.1937 55.9962L59.952 55.664C58.5728 53.9223 57.5811 49.9959 56.977 43.8849C56.4233 38.2872 56.383 33.5253 56.8562 29.5989C57.0978 27.5451 57.9586 25.6473 59.4386 23.9056C61.14 21.9022 63.0277 21.0716 65.1016 21.4139C67.1051 21.7461 68.6052 23.2563 69.6019 25.9443C70.5784 28.572 70.8553 31.708 70.4324 35.3525C70.0599 38.4936 69.4508 42.4653 68.6052 47.2676C67.4474 53.8619 66.4155 58.3017 65.5094 60.5871C65.0966 61.6341 64.3667 61.6039 63.3197 60.4965ZM64.0445 27.4696C65.2828 27.4796 66.3903 27.983 67.3668 28.9797C68.4038 30.0368 69.174 31.547 69.6774 33.5102C69.778 29.8053 69.2092 26.9561 67.9709 24.9627C66.8735 23.2009 65.4792 22.3854 63.7878 22.5163C62.1367 22.6472 60.7021 23.6237 59.4839 25.446C58.155 27.4293 57.4603 29.9462 57.3999 32.9967C58.2355 31.2248 59.2574 29.8455 60.4655 28.8589C61.6233 27.9226 62.8163 27.4595 64.0445 27.4696Z" fill="#0D131A"/>
<path d="M13.6206 51.798C13.7012 49.6536 14.713 48.068 16.656 47.0411C18.3071 46.1652 20.2804 45.8329 22.5758 46.0444C26.3914 46.3967 31.1887 48.375 36.9675 51.9792C41.6691 54.919 45.5602 57.904 48.6409 60.9344C50.3826 62.656 51.4196 63.8389 51.7518 64.4832C52.1143 65.1578 51.7619 65.3541 50.6947 65.0722C41.7043 62.7466 33.4438 60.9696 25.9132 59.7414C22.1076 59.1172 19.0622 58.04 16.7768 56.5097C14.6123 55.0499 13.5602 53.4793 13.6206 51.798ZM18.8457 51.7376C19.0874 50.5597 19.782 49.6184 20.9297 48.9136C22.2285 48.1082 23.9903 47.7005 26.2152 47.6904C23.0439 46.9958 20.4062 46.9806 18.3021 47.6451C16.4295 48.2391 15.2868 49.2308 14.874 50.6201C14.4613 51.9792 14.864 53.3182 16.0822 54.6371C17.401 56.0768 19.4045 57.1137 22.0925 57.748C20.9146 57.0835 20.0236 56.1875 19.4196 55.0599C18.8155 53.9324 18.6242 52.8249 18.8457 51.7376ZM22.1076 49.3818C20.6982 50.1167 19.9632 51.2846 19.9028 52.8853C19.8424 54.3955 20.8693 55.7798 22.9835 57.0382C24.9367 58.2161 27.3831 59.0417 30.3228 59.5149C33.2727 60.0082 36.0513 60.5518 38.6588 61.1458C40.3099 61.5284 43.295 62.2784 47.614 63.3959C48.8221 63.708 49.5017 63.8339 49.6527 63.7735C49.9749 63.6527 49.5168 63.0134 48.2785 61.8556C44.8958 58.6742 41.6338 56.0264 38.4927 53.9122C34.3449 51.1436 30.6198 49.4623 27.3176 48.8683C25.2236 48.4958 23.4869 48.667 22.1076 49.3818Z" fill="#0D131A"/>
<path d="M51.1024 51.9641C54.0019 50.303 57.0675 49.6788 60.2992 50.0916C63.098 50.4439 65.4992 51.4557 67.5026 53.1269C69.2544 54.5868 70.231 56.6808 70.4323 59.4092C70.5934 61.6341 70.2612 63.9094 69.4356 66.235C71.0263 66.5874 72.4559 67.0404 73.7244 67.5941C75.0735 68.1781 75.9897 68.7721 76.4729 69.3761C78.1039 71.3997 78.8841 73.6599 78.8136 76.1567C78.7432 78.6535 77.8471 80.5915 76.1256 81.9707C74.2933 83.4507 72.3502 84.2913 70.2964 84.4927C68.1419 84.7041 65.9623 84.1907 63.7575 82.9523C62.489 82.2375 61.5074 81.0194 60.8127 79.2978C60.2086 77.8078 59.8663 76.0711 59.7858 74.0878C56.9568 74.6113 54.5506 74.6566 52.5673 74.2237C50.3021 73.7304 48.4043 72.5877 46.874 70.7957C44.4578 67.9667 43.7128 64.589 44.639 60.6626C45.5552 56.7966 47.7097 53.8971 51.1024 51.9641Z" fill="#7C70A2"/>
<path d="M76.1257 81.9707C74.2934 83.4507 72.3503 84.2913 70.2965 84.4927C68.142 84.7041 65.9624 84.1906 63.7576 82.9523C62.4891 82.2375 61.5075 81.0193 60.8128 79.2978C60.2087 77.8078 59.8664 76.0711 59.7859 74.0878L60.0124 74.0123L61.5377 73.3931C63.0478 72.7488 63.9086 72.4266 64.12 72.4266C64.563 72.4367 64.5328 73.0256 64.0294 74.1935C63.375 75.7036 63.6116 77.0527 64.7392 78.2407C65.7963 79.3582 67.2813 80.0277 69.1941 80.2492C71.2076 80.4908 73.045 80.1334 74.7061 79.177C76.6291 78.0897 77.9378 76.3731 78.6325 74.0274C78.9345 75.5778 78.8691 77.0577 78.4362 78.4672C77.9932 79.9169 77.223 81.0848 76.1257 81.9707Z" fill="#655B86"/>
<path d="M60.254 50.3634C56.3276 49.9204 52.8744 50.907 49.8944 53.3233C46.8237 55.81 45.1626 58.8403 44.9109 62.4143C44.6793 65.6863 45.6156 68.5053 47.7198 70.8712C49.1594 72.5021 51.1629 73.529 53.7301 73.9519C56.1464 74.3445 58.5374 74.1431 60.9033 73.3478C61.6282 73.1062 61.9353 73.1414 61.8245 73.4535C61.7138 73.7656 61.2658 74.0374 60.4805 74.269C58.0039 75.0744 55.5322 75.2606 53.0657 74.8277C50.3877 74.3646 48.2835 73.2371 46.7533 71.445C44.4478 68.757 43.5366 65.5504 44.0199 61.8254C44.5031 58.0601 46.27 55.0096 49.3205 52.6739C51.2837 51.1637 53.413 50.167 55.7084 49.6838C57.8226 49.2308 59.9167 49.2459 61.9906 49.7291C63.984 50.1922 65.7308 51.0228 67.2308 52.2208C68.7511 53.439 69.8333 54.8837 70.4777 56.555C70.981 57.8738 71.2227 59.2934 71.2025 60.8136C71.1723 62.5553 70.7898 64.2517 70.0548 65.9028C69.481 67.2015 69.0078 67.8911 68.6353 67.9717C68.2728 68.0623 68.3987 67.4935 69.0128 66.2652C69.9088 64.4832 70.3317 62.6409 70.2813 60.7381C70.231 58.8353 69.7125 57.0533 68.7259 55.3922C66.9842 52.4725 64.1602 50.7963 60.254 50.3634Z" fill="#0D131A"/>
<path d="M77.8169 72.8797C77.1122 70.8259 75.9041 69.3006 74.1926 68.3039C73.1657 67.6999 71.5045 67.1411 69.2091 66.6277L69.4205 66.2954L69.6168 65.9632C71.8619 66.225 73.8352 66.975 75.5366 68.2133C77.2582 69.4718 78.3707 70.992 78.874 72.774C79.3674 74.5358 79.3976 76.2624 78.9647 77.9538C78.5015 79.7659 77.5753 81.2308 76.186 82.3483C74.6456 83.5967 72.9241 84.4121 71.0213 84.7947C69.1286 85.1672 67.3466 85.0464 65.6754 84.4323C63.8934 83.7779 62.4688 82.6402 61.4017 81.0194C60.2237 79.2273 59.5844 76.9822 59.4838 74.2841C59.5542 74.1633 59.6851 74.123 59.8764 74.1633C60.0677 74.1935 60.1986 74.1532 60.269 74.0425C60.3697 76.4386 60.9335 78.4722 61.9604 80.1435C62.9168 81.6939 64.1854 82.8164 65.766 83.5111C67.2862 84.1756 68.9121 84.3568 70.6437 84.0548C72.4257 83.7527 74.0919 82.9775 75.6423 81.7291C76.7196 80.8633 77.4897 79.6904 77.9529 78.2105C78.4864 76.4889 78.4411 74.712 77.8169 72.8797Z" fill="#0D131A"/>
<path d="M48.203 60.572C49.3205 61.6693 50.1209 63.0335 50.6041 64.6645C51.188 66.6579 51.3441 68.3945 51.0723 69.8745C50.8105 71.2739 50.2367 72.1649 49.3507 72.5474C48.2835 73.0105 47.1006 72.7236 45.8019 71.6866C44.483 70.6295 43.587 69.2201 43.1138 67.4582C42.55 65.344 42.5349 63.4865 43.0685 61.8858C43.5316 60.5166 44.2313 59.6709 45.1676 59.3487C46.0636 59.0467 47.0754 59.4545 48.203 60.572Z" fill="#0D131A"/>
<path d="M47.6594 60.9495C48.6158 61.916 49.3457 63.255 49.8491 64.9665C50.3525 66.6578 50.5136 68.2032 50.3323 69.6026C50.1612 70.9618 49.7333 71.7923 49.0487 72.0944C48.354 72.3964 47.4983 72.1397 46.4815 71.3242C45.223 70.3174 44.3371 68.7318 43.8236 66.5672C43.441 64.9363 43.431 63.4614 43.7934 62.1425C44.1256 60.9445 44.629 60.2297 45.3036 59.9981C45.9882 59.7565 46.7734 60.0736 47.6594 60.9495Z" fill="#ED85A7"/>
<path d="M46.6174 60.8287C47.1812 61.6945 47.5033 62.9479 47.5839 64.5889C47.6342 65.636 47.5134 66.5521 47.2214 67.3374C46.9496 68.0522 46.5922 68.5304 46.1492 68.7721C45.6962 69.0237 45.2633 68.9734 44.8505 68.621C44.3975 68.2385 44.0552 67.5539 43.8236 66.5672C43.441 64.9363 43.431 63.4614 43.7934 62.1425C44.1256 60.9445 44.629 60.2297 45.3036 59.9981C45.7264 59.8471 46.1643 60.1239 46.6174 60.8287Z" fill="#F6C8D6"/>
<path d="M58.6533 60.7532C57.2136 59.4947 56.2521 57.9594 55.7689 56.1472C55.2756 54.2948 55.5071 52.8752 56.4636 51.8886C57.3898 50.9422 58.8748 50.605 60.9185 50.8768C62.9723 51.1587 64.7039 51.949 66.1134 53.2477C67.4322 54.4659 68.2981 55.9912 68.7108 57.8235C69.1438 59.6659 68.9374 61.0502 68.0917 61.9764C67.2359 62.9429 65.8969 63.3456 64.0747 63.1845C62.1115 63.0134 60.3044 62.2029 58.6533 60.7532Z" fill="#0D131A"/>
<path d="M58.8042 59.8018C57.5659 58.6239 56.7555 57.2597 56.3729 55.7093C56.0004 54.179 56.1866 53.0565 56.9317 52.3417C57.6968 51.5967 58.8193 51.2846 60.2993 51.4054C61.9604 51.5463 63.5562 52.2259 65.0864 53.4441C66.7375 54.7428 67.7342 56.3335 68.0765 58.2161C68.3987 59.9075 68.142 61.1156 67.3064 61.8405C66.5714 62.4748 65.4942 62.7113 64.0746 62.5503C62.2524 62.3489 60.4956 61.4328 58.8042 59.8018Z" fill="#ED85A7"/>
<path d="M59.9519 59.3488C58.4116 59.0467 57.3545 58.2312 56.7806 56.9023C56.3779 55.9761 56.1866 55.1002 56.2068 54.2747C56.2269 53.429 56.4685 52.7847 56.9316 52.3417C57.4551 51.8383 58.1951 51.5312 59.1515 51.4205C60.1684 51.3097 61.2355 51.4608 62.3531 51.8735C63.4907 52.2964 64.2206 53.2075 64.5428 54.6069C64.875 56.0566 64.583 57.2799 63.6669 58.2766C62.7306 59.2934 61.4923 59.6508 59.9519 59.3488Z" fill="#F6C8D6"/>
<path d="M52.9751 66.9901C53.0355 66.8189 53.5237 66.673 54.4399 66.5521C55.3259 66.4414 55.8494 66.4313 56.0105 66.5219C56.1615 66.6126 56.1162 67.1159 55.8745 68.0321C55.6329 68.9583 55.3762 69.4315 55.1044 69.4516C54.8023 69.4818 54.3493 69.1244 53.7452 68.3794C53.1714 67.6445 52.9147 67.1814 52.9751 66.9901Z" fill="#0D131A"/>
<path d="M53.9717 67.715C54.012 67.6042 54.2234 67.4884 54.606 67.3676L55.3007 67.2468C55.3913 67.2871 55.4013 67.5791 55.3309 68.1227C55.2604 68.6664 55.1648 68.9583 55.0439 68.9986C54.9332 69.0288 54.7167 68.8375 54.3946 68.4247C54.0926 68.022 53.9516 67.7854 53.9717 67.715Z" fill="white"/>
<path d="M57.5056 66.084C57.4854 65.9028 57.7573 65.4799 58.321 64.8155C58.8848 64.151 59.2422 63.8238 59.3932 63.8339C59.5543 63.8439 59.7909 64.2718 60.103 65.1175C60.4151 65.9632 60.4957 66.4766 60.3446 66.6578L58.8194 66.5823C57.9636 66.3709 57.5257 66.2048 57.5056 66.084Z" fill="#0D131A"/>
<path d="M58.3663 65.7065C58.3563 65.5957 58.4972 65.4044 58.7892 65.1326C59.0811 64.8507 59.2775 64.7148 59.3781 64.7249C59.4688 64.7349 59.6097 64.9866 59.801 65.4799C60.0023 65.9732 60.0678 66.2551 59.9973 66.3256C59.9369 66.4062 59.65 66.3407 59.1365 66.1293C58.6331 65.9179 58.3764 65.7769 58.3663 65.7065Z" fill="white"/>
<path d="M52.7334 67.3978C52.4314 66.9951 52.4263 66.4313 52.7183 65.7065C53.0606 64.8507 53.7502 64.0906 54.7872 63.4261C55.7336 62.812 56.7353 62.51 57.7924 62.52C58.7488 62.5402 59.368 62.7768 59.6499 63.2298C60.0325 63.8137 60.0022 64.5084 59.5593 65.3138C59.1566 66.0286 58.5223 66.6931 57.6565 67.3072C56.841 67.8811 55.9551 68.1982 54.9986 68.2586C53.9617 68.3089 53.2066 68.022 52.7334 67.3978Z" fill="#0D131A"/>
<path d="M61.3866 75.764C61.4168 76.1969 61.442 76.4235 61.4622 76.4436L62.2172 76.3983L62.9421 76.3832C63.0126 76.4738 63.0277 76.7658 62.9874 77.2591L62.9421 78.0292L63.6821 78.2709C64.125 78.3715 64.3667 78.4672 64.4069 78.5578C64.4774 78.6887 64.412 78.9152 64.2106 79.2374C64.0093 79.5595 63.7676 79.8465 63.4857 80.0982C62.8313 80.6619 62.0461 80.8532 61.1299 80.672C60.3446 80.5109 59.7507 80.1686 59.3479 79.6451C58.8244 78.9404 58.6281 78.1903 58.759 77.395C58.8798 76.6701 59.2171 76.1063 59.7708 75.7036L60.5561 75.2053C60.8883 75.0341 61.1199 74.9888 61.2507 75.0694C61.3111 75.0996 61.3564 75.3311 61.3866 75.764Z" fill="#0D131A"/>
<path d="M59.9218 79.2676C59.5795 78.8649 59.3932 78.3816 59.363 77.8178C59.3227 77.2943 59.4234 76.8866 59.665 76.5946C60.0677 76.1013 60.4302 75.8647 60.7523 75.8849C60.8228 75.8849 60.8832 76.0661 60.9336 76.4285L61.0695 77.0175L61.7641 76.9722L62.4588 76.942C62.489 76.9722 62.4789 77.2138 62.4286 77.6668C62.3783 78.1199 62.3732 78.3716 62.4135 78.4219L63.0629 78.6031C63.4354 78.6635 63.6367 78.7189 63.6669 78.7692C63.7072 78.8699 63.6468 79.026 63.4857 79.2374C63.3045 79.4891 63.0427 79.7156 62.7004 79.9169C62.3179 80.1384 61.8547 80.1988 61.3111 80.0982C60.7272 79.9774 60.2641 79.7005 59.9218 79.2676Z" fill="#5DC1CF"/>
<path d="M71.7613 68.9986C72.466 69.512 72.9039 70.2319 73.0751 71.1581C73.2462 72.0742 73.1204 72.9048 72.6975 73.6498C72.3452 74.2841 71.8972 74.7069 71.3535 74.9184L69.8434 74.9788C69.2091 74.8781 68.8618 74.7422 68.8014 74.571C68.751 74.4502 68.8064 74.2237 68.9675 73.8915L69.2091 73.3327C69.199 73.2924 68.9725 73.2119 68.5295 73.0911C68.0866 72.9703 67.8449 72.8545 67.8047 72.7437C67.7644 72.633 67.8802 72.3914 68.152 72.0189L68.5446 71.3997C68.5346 71.3594 68.303 71.2739 67.85 71.143C67.3969 71.002 67.1503 70.8712 67.11 70.7504C67.0295 70.4987 67.2862 70.0607 67.8802 69.4365C68.5245 68.7519 69.1437 68.3996 69.7377 68.3794C70.4726 68.3593 71.1471 68.5657 71.7613 68.9986Z" fill="#0D131A"/>
<path d="M71.0667 69.2855C71.7009 69.6077 72.1187 70.1765 72.3201 70.992C72.5214 71.8074 72.4963 72.5424 72.2446 73.1968C72.0029 73.8612 71.6002 74.2639 71.0365 74.4049L70.0851 74.4502C69.7226 74.42 69.5213 74.3697 69.481 74.2992C69.4307 74.2186 69.5011 73.9972 69.6924 73.6347C69.8938 73.2723 69.9794 73.0709 69.9491 73.0307C69.9189 72.9904 69.7025 72.925 69.2998 72.8343C68.9071 72.7437 68.6857 72.6582 68.6353 72.5776C68.585 72.5071 68.6706 72.2806 68.892 71.8981C69.1135 71.4953 69.2142 71.2638 69.1941 71.2034C69.1739 71.1329 68.9575 71.0171 68.5447 70.8561C68.1319 70.6849 67.9104 70.5641 67.8802 70.4936C67.84 70.3728 67.9809 70.1412 68.3031 69.7989C68.6957 69.3862 69.1437 69.1395 69.6471 69.059C70.1404 68.9784 70.6136 69.0539 71.0667 69.2855Z" fill="#5DC1CF"/>
<path d="M58.9553 63.5923C59.2774 64.005 59.2573 64.5587 58.8949 65.2534C58.5425 65.9481 57.9988 66.5169 57.2639 66.9599C56.4887 67.4331 55.6883 67.6797 54.8628 67.6999C54.1077 67.72 53.6144 67.5639 53.3828 67.2317C53.1009 66.829 53.0808 66.3256 53.3224 65.7216C53.6043 65.0068 54.1983 64.3775 55.1044 63.8339C55.8695 63.3708 56.6498 63.1291 57.4451 63.109C58.1801 63.0889 58.6834 63.25 58.9553 63.5923Z" fill="#5DC1CF"/>
<path d="M59.1666 64.2114C59.1868 64.6544 59.0207 65.1376 58.6683 65.6612C58.3059 66.1847 57.8377 66.6176 57.2639 66.9599C56.6095 67.3626 55.9249 67.5992 55.2101 67.6697C54.5657 67.7401 54.0573 67.6747 53.6848 67.4733C54.7016 67.423 55.8041 67.0304 56.992 66.2954C58.1397 65.6008 58.8646 64.9061 59.1666 64.2114Z" fill="#50A8B4"/>
<path d="M57.0072 86.6371C54.9635 85.3988 54.0473 84.1554 54.2587 82.907C54.4299 81.8701 55.638 81.2207 57.8831 80.9589C60.0879 80.7072 62.5545 80.9086 65.2828 81.563C67.9407 82.1973 70.2814 83.0782 72.305 84.2058C74.54 85.434 75.5568 86.5515 75.3555 87.5583C75.1239 88.7261 73.5584 89.4208 70.6589 89.6423C68.142 89.8235 65.7157 89.6423 63.38 89.0986C60.8933 88.5147 58.769 87.6942 57.0072 86.6371Z" fill="#0D131A"/>
<path d="M82.8609 73.9821C83.626 78.14 83.762 81.3214 83.2686 83.5262C82.876 85.288 82.131 86.3049 81.0336 86.5767C80.0269 86.8183 78.8993 86.0028 77.6509 84.1303C76.2213 82.006 75.139 79.1367 74.4041 75.5224C73.8202 72.6733 73.649 70.2067 73.8906 68.1227C74.1524 65.8877 74.8521 64.5437 75.9897 64.0906C77.1676 63.6174 78.4462 64.3222 79.8255 66.2048C81.2652 68.1781 82.277 70.7705 82.8609 73.9821Z" fill="#0D131A"/>
<path d="M76.2464 64.8759C77.1726 64.6141 78.2599 65.495 79.5083 67.5186C80.7265 69.502 81.5521 71.6766 81.985 74.0425C82.6394 77.6064 82.8558 80.4354 82.6343 82.5295C82.4229 84.4826 81.8642 85.5649 80.9581 85.7763C80.1023 85.9777 79.0956 85.0061 77.9378 82.8617C76.7397 80.667 75.8638 78.0947 75.3101 75.1449C74.847 72.7186 74.6658 70.5389 74.7665 68.6059C74.8873 66.3609 75.3806 65.1175 76.2464 64.8759Z" fill="#5DC1CF"/>
<path d="M79.5385 70.0859C80.0218 70.0356 80.5 70.393 80.9732 71.1581C81.4262 71.9031 81.7635 72.8646 81.985 74.0425C82.579 77.2641 82.8105 79.8767 82.6796 81.8801C82.6394 82.7359 82.5186 83.496 82.3172 84.1605C82.146 84.7041 81.8793 84.9608 81.5168 84.9306C81.1645 84.9105 80.7869 84.6135 80.3842 84.0396C79.4177 82.6704 78.7482 80.4807 78.3757 77.4705C78.114 75.3563 78.119 73.5794 78.3908 72.1397C78.6324 70.8208 79.015 70.1362 79.5385 70.0859Z" fill="#50A8B4"/>
<path d="M55.0894 83.0279C55.331 82.2929 56.4183 81.855 58.3513 81.714C60.4252 81.563 62.776 81.8348 65.4037 82.5295C68.4944 83.345 70.8502 84.2259 72.4711 85.1723C73.8806 85.9978 74.5652 86.7479 74.5249 87.4224C74.4746 88.1372 73.3672 88.5751 71.2026 88.7362C68.9978 88.9074 66.5715 88.7161 63.9237 88.1624C61.3766 87.6288 59.207 86.8485 57.415 85.8216C55.6028 84.7746 54.8276 83.8433 55.0894 83.0279Z" fill="#5DC1CF"/>
<path d="M58.3814 84.8853C58.4216 84.3215 59.217 84.0044 60.7674 83.9339C62.3279 83.8735 64.2055 84.0849 66.4003 84.5682C68.8064 85.1018 70.7243 85.8568 72.1539 86.8334C72.8184 87.2865 73.1456 87.6741 73.1355 87.9962C73.1254 88.3486 72.6925 88.5751 71.8368 88.6758C70.7998 88.7966 69.6018 88.8167 68.2426 88.7362C66.813 88.6557 65.3734 88.4644 63.9236 88.1623C62.5745 87.8804 61.3463 87.4475 60.2389 86.8636C58.9502 86.1891 58.331 85.5297 58.3814 84.8853Z" fill="#50A8B4"/>
<path d="M30.1266 36.3341C28.8782 36.9583 27.3077 37.1546 25.4149 36.9231C23.3309 36.6714 22.3141 35.9113 22.3645 34.6427C22.4148 33.4246 23.4065 32.9061 25.3394 33.0873C26.6684 33.2081 28.249 33.6209 30.0813 34.3256C34.5715 36.0673 38.5834 39.289 42.1172 43.9906C45.0066 47.8364 46.9396 51.647 47.9161 55.4224C48.1678 56.3788 48.2484 56.9476 48.1577 57.1288C48.0571 57.3 47.8205 56.9577 47.448 56.1019C42.686 44.9369 36.9122 38.3476 30.1266 36.3341Z" fill="#003F4D"/>
<path d="M53.4735 52.1755C53.5641 53.2226 53.5037 53.7058 53.2923 53.6253C53.0809 53.5548 52.9147 53.0514 52.7939 52.1151C52.2805 48.2995 50.8408 43.1902 48.4749 36.7872C45.9882 30.0922 44.03 26.3722 42.6004 25.6272C39.701 24.7815 37.8535 23.6992 37.0582 22.3804C36.4541 21.3837 36.4894 20.5078 37.1639 19.7527C37.8284 19.0278 38.7798 19.053 40.0181 19.8282C41.2363 20.5934 42.4494 21.9122 43.6575 23.7848C46.5168 28.2246 48.9129 33.6209 50.8458 39.9736C52.3258 44.8463 53.2017 48.9136 53.4735 52.1755Z" fill="#003F4D"/>
<path d="M53.2168 53.3082C53.2268 50.0462 52.356 45.6316 50.6042 40.0642C48.6712 33.9128 46.3305 28.7079 43.582 24.4493C42.5249 22.8183 41.4225 21.5347 40.2748 20.5984C38.9056 19.4909 37.9039 19.3097 37.2696 20.0547C36.736 20.689 36.9273 21.5498 37.8435 22.6371C38.9106 23.8955 40.597 24.7664 42.9025 25.2496C45.2382 28.4612 47.3675 32.7651 49.2904 38.1614C51.0522 43.1147 52.361 48.1636 53.2168 53.3082ZM53.5037 50.9221C53.705 52.4927 53.6748 53.4441 53.4131 53.7763C53.1413 54.1085 52.8543 53.5095 52.5523 51.9792C51.6965 47.5495 50.3777 42.8781 48.5957 37.9651C46.5721 32.4178 44.5636 28.3756 42.5702 25.8386C40.0634 25.3654 38.2663 24.4291 37.179 23.0297C36.1722 21.7411 36.0917 20.6135 36.9374 19.647C37.6321 18.8517 38.6741 18.8466 40.0634 19.6319C41.4628 20.4373 42.7414 21.7964 43.8992 23.7093C49.0337 32.2869 52.2352 41.3579 53.5037 50.9221Z" fill="#0D131A"/>
<path d="M22.6966 34.3105C22.5557 34.7031 22.6865 35.0958 23.0892 35.4884C23.4819 35.8811 24.0457 36.1881 24.7806 36.4096C26.5726 36.9432 28.3194 36.7972 30.0208 35.9717C34.5915 37.3207 38.7444 40.7135 42.4795 46.1501C44.7246 49.422 46.5569 52.9709 47.9764 56.7966C46.9395 52.1755 44.7095 47.7307 41.2865 43.462C37.7528 39.0524 33.9623 36.1479 29.9151 34.7484C27.8814 34.0437 26.326 33.6259 25.2487 33.495C23.799 33.3138 22.9483 33.5856 22.6966 34.3105ZM23.9953 36.9382C23.2604 36.6663 22.7167 36.2838 22.3644 35.7905C22.012 35.2971 21.9113 34.7736 22.0623 34.2199C22.3342 33.2031 23.346 32.75 25.0977 32.8608C26.6179 32.9614 28.5308 33.4699 30.8363 34.386C34.4304 35.8056 37.8333 38.4382 41.0449 42.2841C44.3873 46.291 46.7432 50.7057 48.1124 55.5281C48.4043 56.5348 48.4245 57.1036 48.1728 57.2345C47.911 57.3654 47.5637 56.9325 47.1308 55.9358C42.5802 45.2339 36.9071 38.7805 30.1114 36.5757C27.7757 37.4717 25.737 37.5926 23.9953 36.9382Z" fill="#0D131A"/>
</g>
<defs>
<clipPath id="clip0_10_4988">
<rect width="99.6226" height="96" fill="white"/>
</clipPath>
</defs>
</svg>
