<svg width="100" height="116" viewBox="0 0 100 116" fill="none" xmlns="http://www.w3.org/2000/svg">
<g clip-path="url(#clip0_10_4707)">
<path d="M91.2907 75.6669C90.948 81.5084 88.9396 86.4112 85.2655 90.3751C82.0293 93.8648 77.8507 96.3209 72.7298 97.7434C67.9897 99.071 63.3257 99.3081 58.7378 98.4546C54.1119 97.6011 50.6663 95.8373 48.4009 93.1631C48.8007 92.2337 49.229 90.8966 49.6859 89.1518C50.3521 86.6103 50.6282 84.6094 50.514 83.149C52.7413 85.5577 55.5016 87.4069 58.7949 88.6966C62.2787 90.0621 65.7909 90.5647 69.3318 90.2044C77.9935 89.3319 84.5231 83.9266 88.9206 73.9884L89.4346 74.8419C89.9295 75.3919 90.5482 75.6669 91.2907 75.6669Z" fill="#EF8200"/>
<path d="M48.4009 93.2485C53.4456 97.7624 59.604 99.6685 66.8761 98.9667C73.5199 98.3219 79.6021 95.7425 85.1228 91.2286C79.5069 97.7339 72.3682 101.081 63.7065 101.271C60.2608 101.328 57.015 100.844 53.9692 99.8202C51.1136 98.834 48.9815 97.5632 47.5728 96.008L48.4009 93.2485Z" fill="#DDD583"/>
<path d="M49.2575 90.4604C53.1791 94.614 58.7378 96.6434 65.9337 96.5486C72.7298 96.4537 79.012 94.5666 84.7801 90.8872C80.0209 95.6287 74.0434 98.3029 66.8475 98.9098C59.4232 99.5357 53.2743 97.6486 48.4009 93.2485L49.2575 90.4604Z" fill="#CF7100"/>
<path d="M40.5768 25.625C40.3484 26.8388 39.7011 29.1337 38.6351 32.5096C37.6642 35.6011 37.1597 37.4124 37.1216 37.9434C37.0645 38.6831 37.2549 40.4564 37.6927 43.2634C38.0354 45.5583 38.3685 47.5213 38.6922 49.1524C40.3293 57.706 42.1664 63.614 44.2033 66.8761C46.621 70.7262 48.2581 73.7134 49.1148 75.8376C50.6948 79.7636 51.0946 83.3387 50.3141 86.5629L48.1153 94.2157C47.5442 96.0744 47.2397 97.6106 47.2016 98.8245L48.8578 102.352C49.8477 104.856 50.1047 106.515 49.6288 107.331C48.9625 108.431 48.1534 109.332 47.2016 110.033C46.0403 110.887 44.7554 111.38 43.3466 111.513C41.6904 111.664 39.9391 111.399 38.0925 110.716C36.0937 109.995 35.0847 109.133 35.0657 108.127L35.1513 103.632C35.1323 101.47 34.9039 99.9055 34.466 98.9383L32.667 97.0606C31.4106 95.5813 30.6491 94.32 30.3826 93.2769L26.0708 92.5088L24.7287 93.5045C23.7959 94.2821 23.2819 94.9649 23.1867 95.5528L24.1291 97.4305C24.7192 98.796 24.8905 99.7064 24.643 100.162C24.3004 100.787 22.7584 101.594 20.0171 102.58C17.0474 103.642 14.5155 104.173 12.4215 104.173C10.137 104.173 8.00493 103.509 6.02511 102.181C4.02625 100.854 3.68359 99.8297 4.99713 99.1089L8.56652 97.1175C7.02454 96.1123 5.94897 94.6804 5.33979 92.8217C4.15951 89.1233 5.93945 85.1784 10.6796 80.9869C9.72776 79.4317 9.0234 76.8049 8.56652 73.1065C8.01445 68.8581 8.10012 64.9037 8.82351 61.2432L7.0531 63.1209C6.15837 63.9933 5.48257 64.3631 5.02568 64.2304C4.70206 64.1355 4.44506 63.6424 4.2547 62.751L4.08337 61.4139C2.08451 62.0777 1.00893 62.1536 0.856638 61.6415C0.685307 61.0536 0.675789 60.4846 0.828083 59.9346C1.0946 58.9863 1.82751 57.8767 3.02683 56.606C3.76926 54.937 4.80676 53.0688 6.13933 51.0015C8.80448 46.9049 11.6314 43.8988 14.6202 41.9832C13.3447 41.7366 12.3263 41.2909 11.5648 40.6461C10.2132 39.5271 8.53796 37.5451 6.53911 34.7002C3.75974 30.7932 2.39861 27.5595 2.45572 24.9991C2.47476 23.7094 3.03634 22.268 4.14048 20.6748C5.13039 19.1955 5.91089 18.4179 6.48199 18.342L9.53739 10.6323C9.40413 10.3857 9.31847 10.0918 9.2804 9.75037C9.18521 9.08656 9.34702 8.52706 9.76583 8.07187C11.5172 6.17527 13.2305 4.77178 14.9058 3.86141C18.7892 1.73721 23.32 1.05443 28.498 1.81307C32.2482 2.34412 35.4369 5.00886 38.0639 9.80727C40.8052 14.8333 41.6429 20.1058 40.5768 25.625Z" fill="#EF8200"/>
<path d="M2.54138 59.9914C3.77877 59.0811 4.75916 58.5879 5.48256 58.5121C6.05366 58.4552 6.2821 58.6259 6.16788 59.0242C6.03462 59.4035 5.6063 59.7354 4.8829 60.0199L3.16959 60.219L2.54138 59.9914Z" fill="#CF7100"/>
<path d="M4.94 64.4011C6.38679 62.1251 7.80503 60.2096 9.19471 58.6544L8.99483 61.0156C6.74849 63.3295 5.39688 64.458 4.94 64.4011Z" fill="#CF7100"/>
<path d="M18.7322 41.4142C21.4354 40.94 23.5675 40.3331 25.1285 39.5935L26.7561 39.565C26.8513 40.0012 26.5658 40.6555 25.8995 41.528C24.1671 43.8608 22.3015 45.0177 20.3027 44.9988C18.7798 44.9798 17.6185 44.6953 16.819 44.1453C16.1527 43.6901 15.5911 42.941 15.1342 41.8978L18.7322 41.4142Z" fill="#CF7100"/>
<path d="M30.8966 94.5855C28.7074 90.944 28.1934 87.3879 29.3546 83.9171C29.1452 86.0603 30.0019 87.9379 31.9246 89.55C33.695 91.0104 35.9413 91.9398 38.6636 92.338C41.4049 92.7553 43.8226 92.4803 45.9166 91.513C48.1058 90.5078 49.4765 88.9052 50.0285 86.7051L49.4289 89.4078L48.3438 93.7036C48.0773 94.4622 47.8298 95.439 47.6013 96.6339C47.3539 97.8477 47.2396 98.6348 47.2587 98.9951C47.2968 99.5072 47.9535 101.252 49.229 104.23C48.0868 102.219 45.593 101.3 41.7475 101.47C37.8641 101.641 35.6082 102.855 34.98 105.112C34.98 101.622 34.8372 99.5831 34.5517 98.9951C33.2191 97.8761 32.0007 96.4063 30.8966 94.5855Z" fill="#CF7100"/>
<path d="M12.6499 92.5088C13.8302 91.7691 14.4869 90.7354 14.6202 89.4078C14.7535 88.1181 14.3537 86.781 13.4209 85.3965C15.2675 87.7293 17.8755 89.5785 21.245 90.9441C23.1106 91.6837 24.7858 92.1579 26.2707 92.3665C25.5473 92.651 24.8144 93.2769 24.0719 94.2442L23.1582 95.5813C23.6151 96.1882 23.9672 96.9278 24.2147 97.8003C24.4432 98.6158 24.5383 99.346 24.5003 99.9909C24.4622 100.56 23.7388 101.138 22.3301 101.726C21.4544 102.106 19.6364 102.722 16.8761 103.575L13.221 104.173L11.0223 104.088C12.983 103.575 13.6874 102.684 13.1353 101.413C12.6404 100.237 11.165 98.9003 8.7093 97.402C7.43383 96.6244 6.43441 95.2778 5.71101 93.3622L4.99713 90.7165C5.98704 92.101 7.25298 92.9355 8.79496 93.22C10.2037 93.4855 11.4887 93.2484 12.6499 92.5088Z" fill="#CF7100"/>
<path d="M21.3021 46.0798C22.9202 48.1851 24.4337 50.7645 25.8424 53.818C29.7068 62.0872 31.3726 70.5176 30.8395 79.1092L29.3261 83.6611C28.5646 87.2267 28.8216 90.3087 30.0971 92.907C27.0512 92.7933 23.8721 91.9967 20.5597 90.5173C13.9539 87.5397 10.0419 82.618 8.82353 75.7523C7.85266 70.328 8.10014 64.2019 9.56597 57.3741C10.4036 53.562 11.5077 49.93 12.8784 46.4781C13.3352 45.9281 13.8968 45.3686 14.5631 44.7996C15.8957 43.6996 17.076 43.1686 18.1039 43.2065C18.7893 43.2255 19.8553 44.1832 21.3021 46.0798Z" fill="#FFF697"/>
<path d="M20.7024 44.9703L18.161 44.8281C17.4757 44.6384 16.8475 44.2591 16.2764 43.6901L16.9902 43.4056L18.4466 43.4341C19.1319 43.6996 19.8838 44.2117 20.7024 44.9703Z" fill="#DDD583"/>
<path d="M19.1319 82.836C23.1867 83.6705 26.6895 83.405 29.6402 82.0395C29.2404 82.324 28.9834 83.6516 28.8692 86.0223C28.736 88.9052 29.1452 91.219 30.0971 92.9639C27.0893 93.1536 23.7769 92.3191 20.1599 90.4604C14.525 87.5776 10.7843 82.8171 8.93774 76.179C11.0889 79.6687 14.487 81.8877 19.1319 82.836Z" fill="#DDD583"/>
<path d="M5.53967 27.4172L6.88176 28.5836C7.98589 29.4371 9.08051 30.082 10.1656 30.5182L11.5648 30.8596C10.1561 31.2768 8.94725 31.9501 7.9383 32.8795C6.92935 31.2104 6.12981 29.3897 5.53967 27.4172Z" fill="#922F00"/>
<path d="M11.5648 30.8596L20.6739 31.7415C24.5954 31.9881 27.0607 32.0544 28.0696 31.9407C27.3843 33.3631 25.3855 34.8614 22.0731 36.4356C18.418 38.1995 15.3055 38.8158 12.7356 38.2848C12.3358 38.19 11.7076 37.6874 10.8509 36.777C9.80389 35.6959 8.83302 34.3968 7.93829 32.8795C8.94724 31.9501 10.1561 31.2768 11.5648 30.8596Z" fill="#ED8599"/>
<path d="M8.10961 32.9364C7.97635 32.7278 8.5189 32.3105 9.73725 31.6846L11.5933 30.8311L22.1587 31.7131L28.0696 31.9407C27.3653 32.9269 26.2897 33.8847 24.8429 34.814C24.1385 35.2882 23.4913 35.658 22.9012 35.9235C21.4544 34.6528 19.1224 33.6761 15.9052 32.9933C12.6308 32.2915 10.0323 32.2726 8.10961 32.9364Z" fill="#CE7486"/>
<path d="M28.8406 14.6151C27.9078 16.6066 27.3082 18.6549 27.0417 20.7601C26.7371 23.055 26.8703 25.1792 27.4414 27.1327C26.3754 27.0758 25.7948 26.9431 25.6996 26.7345C25.2046 25.4448 25.2617 23.4533 25.8709 20.7601C26.5182 17.8773 27.5081 15.829 28.8406 14.6151Z" fill="white"/>
<path d="M31.2678 13.6479C33.0002 13.7996 33.8949 15.7911 33.952 19.6222C34.0091 22.7706 33.7616 24.9991 33.2096 26.3077C33.0573 26.6681 32.3148 26.9241 30.9823 27.0759C29.8401 27.1897 28.6598 27.2086 27.4414 27.1328C26.8703 25.1793 26.7371 23.0551 27.0417 20.7602C27.3082 18.6549 27.9078 16.6066 28.8406 14.6152C29.6021 13.8945 30.4112 13.572 31.2678 13.6479Z" fill="#0D131A"/>
<path d="M6.53912 18.2851C6.90082 16.7299 7.3577 15.2126 7.90977 13.7332C9.0139 10.7556 10.0514 9.46587 11.0223 9.86415C11.917 10.2435 11.8694 12.4056 10.8795 16.3505C9.87055 20.2955 8.97583 22.1447 8.19532 21.8981C7.64325 21.7085 7.20541 21.0541 6.88178 19.9351L6.53912 18.2851Z" fill="#0D131A"/>
<path d="M4.3689 26.45C4.5783 26.9241 5.39688 27.5785 6.82464 28.413C6.0822 29.0957 5.55869 29.3897 5.25411 29.2949C4.96855 29.2001 4.67348 28.2518 4.3689 26.45Z" fill="white"/>
<path d="M8.05255 33.0501L8.73787 32.8795L9.53742 32.9648C9.65164 33.1545 9.54694 33.7234 9.22331 34.6717L8.05255 33.0501Z" fill="white"/>
<path d="M17.9897 37.9718L18.1896 37.0615C18.3609 36.4546 18.5513 36.1321 18.7607 36.0942C19.1033 36.0563 19.4936 36.4166 19.9314 37.1753L17.9897 37.9718Z" fill="white"/>
<path d="M18.6465 31.5139L22.1302 31.77C21.1022 33.0028 20.3883 33.6191 19.9886 33.6191C19.5698 33.6191 19.1224 32.9174 18.6465 31.5139Z" fill="white"/>
<path d="M10.3369 102.637C10.5654 102.314 10.9747 101.982 11.5648 101.641L12.3644 101.214C12.9926 101.328 13.497 101.802 13.8778 102.637L14.249 103.888C13.6398 104.457 12.5071 104.875 10.8509 105.14L8.28097 105.226C8.16675 105.112 8.27146 104.875 8.59508 104.514L9.08052 103.974L6.05368 104.4L4.36892 104.23C4.2547 104.116 4.39748 103.841 4.79725 103.405L5.42546 102.807L3.16961 103.006C1.62763 103.063 0.818572 102.921 0.742425 102.58C0.647242 102.257 1.28497 101.584 2.65562 100.56C4.06434 99.5167 4.98762 99.1469 5.42546 99.4504C5.90138 99.7538 6.2726 100.446 6.53911 101.527L7.16733 100.901C7.66228 100.484 8.14772 100.294 8.62364 100.332C9.09955 100.37 9.52788 100.768 9.90862 101.527L10.3369 102.637Z" fill="white"/>
<path d="M84.6659 49.636L84.98 50.8308C85.0371 51.3998 84.9705 51.9024 84.7801 52.3386C84.6469 52.68 84.6278 53.0593 84.723 53.4766C84.8182 53.9318 85.0276 54.349 85.3512 54.7284L85.5796 53.7895L87.4357 55.6387L87.4072 57.2034L87.9497 58.1707C88.1591 58.5311 88.2829 59.1475 88.3209 60.0199L89.8915 60.9872L88.8064 62.8079C88.597 63.1493 88.4828 63.6993 88.4637 64.458C88.4447 64.8373 88.4542 65.1787 88.4923 65.4821L91.0337 63.9459L91.0908 64.5148V65.3968C90.8814 66.5347 90.9195 67.2649 91.205 67.5874C91.8523 68.346 92.2425 68.9529 92.3758 69.4081C92.5471 69.996 92.4424 70.6788 92.0617 71.4564C91.6619 72.272 91.4525 73.1254 91.4334 74.0168C91.4334 74.7945 91.5572 75.3065 91.8047 75.5531L90.5197 75.4678C90.0247 75.2402 89.5203 74.7755 89.0063 74.0737C88.5494 73.4099 87.7308 72.9263 86.5505 72.6228L84.3232 72.2246C83.8473 72.1297 83.3238 71.6745 82.7527 70.859C82.1245 69.9676 81.877 69.1426 82.0103 68.3839C82.1054 67.796 82.4005 67.0089 82.8955 66.0226C83.3143 65.1312 83.5237 64.5623 83.5237 64.3157C83.5046 64.0691 83.2952 63.576 82.8955 62.8364C82.4957 62.1346 82.2958 61.6415 82.2958 61.357C82.2958 61.0915 82.4957 60.4751 82.8955 59.5078C83.2952 58.5785 83.4761 58.0095 83.438 57.8009L83.0668 56.7198C82.8574 56.1888 82.7527 55.7715 82.7527 55.468C82.7527 55.1646 82.905 54.7473 83.2096 54.2163L83.695 53.2206C83.7331 52.7085 83.6474 52.0352 83.438 51.2007C83.1334 49.911 83.4666 48.8015 84.4374 47.8721L84.466 48.5549C84.485 49.067 84.5517 49.4273 84.6659 49.636Z" fill="#EFE908"/>
<path d="M93.5465 50.6886C94.1176 51.1248 94.4222 51.6843 94.4603 52.3671C94.5174 53.524 94.4127 54.8042 94.1462 56.2077L95.1171 55.3827C95.8214 54.8517 96.2593 54.643 96.4306 54.7568C96.7162 54.9655 96.5924 56.6819 96.0594 59.9061L96.5734 59.5078C96.9351 59.2613 97.154 59.1949 97.2301 59.3087C97.3444 59.4794 97.2777 60.9492 97.0303 63.7183L99.3432 59.9346L99.3147 61.0725C99.2956 61.8881 99.3052 62.3812 99.3432 62.5519L99.4003 63.7752L99.1433 65.283C98.7055 66.4968 98.5532 67.2649 98.6865 67.5874C98.7626 67.796 98.7436 68.0805 98.6293 68.4408C98.4961 68.8581 98.2867 69.19 98.0011 69.4366L96.7162 70.5176C96.1641 71.0297 95.85 71.447 95.7738 71.7694L95.317 72.7082L94.1747 73.6186L91.7761 75.5247C91.5477 75.2591 91.4335 74.7471 91.4335 73.9884C91.4525 73.097 91.6619 72.253 92.0617 71.4564C92.4424 70.6788 92.5471 69.9961 92.3758 69.4081C92.2425 68.9529 91.8523 68.346 91.205 67.5874C90.9195 67.2649 90.8814 66.5348 91.0908 65.3968V64.5149L91.0337 63.9459L88.4923 65.4821C88.4542 65.1787 88.4447 64.8373 88.4637 64.458C88.4828 63.6993 88.597 63.1493 88.8064 62.8079L89.8915 60.9872L88.321 60.0199C88.2829 59.1475 88.1591 58.5311 87.9497 58.1707L87.4072 57.2034L87.4357 55.6388L85.6082 53.818C86.3697 52.6231 86.7695 51.8361 86.8075 51.4567L86.7219 49.7782C86.6838 48.8679 86.8551 48.1377 87.2359 47.5877C87.5976 47.0566 88.2829 46.279 89.2918 45.2548L90.8624 43.6332C91.0527 43.3487 91.2526 42.7608 91.462 41.8694C91.6905 40.8642 91.7761 40.0771 91.719 39.5081L92.4329 41.0728C92.9088 42.2866 93.0897 43.3298 92.9754 44.2022L92.2616 47.3601C91.976 48.517 91.957 49.2662 92.2044 49.6075L93.5465 50.6886Z" fill="#E50020"/>
<path d="M6.22502 100.702L6.48201 101.612L5.2827 102.807L2.76985 102.95L0.942322 102.807C1.1898 102.504 2.14164 102.058 3.79783 101.47C4.63545 101.186 5.44451 100.93 6.22502 100.702Z" fill="#DBDCDC"/>
<path d="M4.62592 104.514C6.73899 102.997 8.49037 102.058 9.88006 101.698L10.1371 102.637L9.10907 104.002L4.62592 104.514Z" fill="#DBDCDC"/>
<path d="M8.48083 105.453C9.09001 105.036 9.76582 104.6 10.5082 104.144C11.9741 103.234 13.0116 102.694 13.6208 102.523L13.9634 103.149C14.1538 103.623 14.1538 103.974 13.9634 104.201C13.6588 104.6 12.7355 104.913 11.1936 105.14L8.48083 105.453Z" fill="#DBDCDC"/>
<path d="M85.4655 53.8465L85.7796 53.3628C86.008 53.8559 86.5791 54.4913 87.4929 55.2689C87.7213 55.4586 87.807 55.8474 87.7499 56.4353C87.6928 57.0233 87.7308 57.3741 87.8641 57.4879C88.1687 57.7535 88.359 58.0474 88.4352 58.3699L88.4923 59.394C88.4923 59.8492 88.854 60.1906 89.5774 60.4182C90.5102 60.7027 90.5483 61.3381 89.6916 62.3243C89.3489 62.6846 89.1015 63.1398 88.9492 63.6898C88.835 64.145 88.8064 64.5433 88.8635 64.8847L90.4912 63.9174C90.9671 63.5381 91.2336 63.3579 91.2907 63.3769C91.3859 63.3959 91.4525 63.7088 91.4906 64.3157L91.3193 66.0796C91.2431 66.7434 91.3668 67.2365 91.6905 67.5589C92.3187 68.1848 92.6899 68.7917 92.8041 69.3797C92.9755 70.1193 92.7756 70.9823 92.2045 71.9685C92.0331 72.291 91.9189 72.7082 91.8618 73.2203C91.7857 73.8651 91.8142 74.5195 91.9475 75.1833C91.9855 75.4298 91.8904 75.61 91.6619 75.7238C91.4144 75.8376 91.2907 75.8186 91.2907 75.6669L91.0051 73.9884C90.929 73.3436 91.0908 72.5849 91.4906 71.7125C91.8332 70.9538 91.9855 70.328 91.9475 69.8348C91.8904 69.2469 91.6048 68.6969 91.0908 68.1848C90.6149 67.7107 90.434 67.1796 90.5483 66.5917C90.7196 65.7192 90.7482 65.0744 90.6339 64.6571L89.4061 65.4537C88.835 65.7951 88.4733 65.9184 88.321 65.8235C88.2067 65.7287 88.1496 65.3304 88.1496 64.6287C88.1116 63.4338 88.4066 62.476 89.0348 61.7553C89.2442 61.5277 89.3109 61.3381 89.2347 61.1863C89.1586 61.0346 88.873 60.8165 88.3781 60.532C88.1496 60.3992 88.0069 60.2475 87.9498 60.0768L87.8926 59.4225C87.8926 58.8725 87.6642 58.3509 87.2073 57.8578C86.9979 57.6492 86.9218 57.2888 86.9789 56.7767L86.9218 55.6672L86.2079 54.8137L85.4655 53.8465Z" fill="#EFE908"/>
<path d="M31.6105 14.416C32.0483 14.4919 32.3815 14.8996 32.6099 15.6393C32.8193 16.398 32.8574 17.3083 32.7241 18.3704C32.5528 19.6412 32.2006 20.6084 31.6676 21.2722C31.2297 21.8033 30.8109 22.0309 30.4112 21.955C29.9543 21.8412 29.6116 21.3386 29.3832 20.4472C29.1928 19.6127 29.1643 18.7308 29.2975 17.8014C29.4879 16.6635 29.821 15.7816 30.2969 15.1557C30.7158 14.5867 31.1536 14.3401 31.6105 14.416Z" fill="white"/>
<path d="M10.908 10.4047C11.0603 10.4236 11.1555 10.8124 11.1936 11.5711C11.2126 12.3108 11.1555 13.0125 11.0223 13.6763C10.7748 14.8143 10.4797 15.6772 10.137 16.2652C9.83246 16.7773 9.54691 17.0049 9.28039 16.948C9.05195 16.8911 8.90918 16.5971 8.85207 16.066C8.77592 15.4022 8.89014 14.5108 9.19473 13.3918C9.46124 12.4246 9.76583 11.6659 10.1085 11.1159C10.4131 10.6228 10.6796 10.3857 10.908 10.4047Z" fill="white"/>
<path d="M26.8703 21.4429C27.2892 20.7222 27.746 20.3334 28.241 20.2765C28.0697 21.6421 28.1077 22.7516 28.3552 23.6051C28.6217 24.4585 29.0881 24.9327 29.7544 25.0275C30.2684 25.1034 30.7919 24.8758 31.3249 24.3447C31.9532 23.7378 32.4005 22.8464 32.667 21.6705C33.2191 22.3723 33.5142 23.2921 33.5522 24.4301L32.924 26.45C32.1054 26.9052 30.9728 27.1612 29.526 27.2181L27.5842 27.1328C27.1273 26.1844 26.8703 24.9517 26.8132 23.4344L26.8703 21.4429Z" fill="#007F78"/>
<path d="M10.1371 16.8626C10.3465 17.242 10.4512 17.6213 10.4512 18.0006L9.82295 19.9067C9.30896 21.1585 8.80449 21.7938 8.30953 21.8128C7.79554 21.8318 7.36721 21.3766 7.02455 20.4472L6.53912 18.5696C6.48201 18.3041 6.54864 17.7635 6.739 16.948L7.02455 15.81L7.36722 15.4686L8.10965 15.0419C7.76699 16.104 7.63373 17.0428 7.70988 17.8584C7.78602 18.5791 8.00495 18.9963 8.36664 19.1101C8.67123 19.2239 8.99486 19.0817 9.33752 18.6834C9.71825 18.2472 9.98477 17.6403 10.1371 16.8626Z" fill="#007F78"/>
<path d="M26.1565 1.07338C32.8764 1.7372 37.4548 5.63472 39.8915 12.766C40.9004 15.7436 41.3668 18.9394 41.2907 22.3533C41.2336 25.6724 40.6815 28.6974 39.6345 31.4286C38.7778 33.6666 38.2543 35.089 38.0639 35.6959C37.5119 37.346 37.1978 38.702 37.1216 39.7641C36.9884 41.8125 36.7599 42.8177 36.4363 42.7798C36.1317 42.7418 36.0651 41.7082 36.2364 39.6788C36.4078 37.2891 37.1787 34.4536 38.5494 31.1725C39.5583 28.7449 40.1009 25.9474 40.177 22.78C40.2532 19.5368 39.8153 16.4643 38.8635 13.5625C36.5791 6.52613 32.3149 2.69498 26.0708 2.0691C23.2914 1.80358 20.455 2.20186 17.5614 3.26396C14.6488 4.34503 12.3453 5.84335 10.651 7.75892C10.2132 8.25204 9.92765 8.70722 9.79439 9.12448C9.6421 9.59863 9.67065 10.1107 9.88006 10.6607C9.91813 10.7745 9.82295 10.8788 9.5945 10.9737L9.19473 10.9452C8.69978 9.54173 8.97581 8.26152 10.0228 7.10459C11.8504 5.05626 14.2585 3.47259 17.2473 2.35359C20.2551 1.21563 23.2248 0.788893 26.1565 1.07338Z" fill="#0D131A"/>
<path d="M32.6385 26.0517C33.4571 23.9654 33.7236 21.5188 33.438 18.7118C33.1525 15.81 32.4196 14.2927 31.2393 14.16C29.9448 14.0082 28.6884 15.1462 27.47 17.5739C26.1565 20.2101 25.6806 23.1499 26.0423 26.3931C26.2517 26.7345 27.3368 26.8577 29.2976 26.7629C31.2774 26.6681 32.391 26.431 32.6385 26.0517ZM25.2713 26.6207C24.7573 23.6051 25.1571 20.5989 26.4706 17.6023C27.8222 14.5488 29.4403 13.1168 31.325 13.3065C33.3238 13.4962 34.3233 15.554 34.3233 19.4799C34.3233 22.818 33.9425 25.1603 33.1811 26.5069C32.8574 27.0948 31.4868 27.4267 29.0691 27.5026C26.6514 27.5785 25.3855 27.2845 25.2713 26.6207Z" fill="#0D131A"/>
<path d="M10.7367 10.234C10.1656 10.234 9.38508 11.3056 8.39517 13.4487C7.40526 15.6109 6.9103 17.3178 6.9103 18.5696V18.598C6.9103 19.2808 7.09115 19.9446 7.45285 20.5895C7.77647 21.1964 8.04299 21.4714 8.25239 21.4145C9.0329 21.2059 9.82292 19.2903 10.6225 15.6678C11.422 12.0452 11.4601 10.234 10.7367 10.234ZM7.88118 12.9082C9.02338 10.4426 10.0133 9.26672 10.8509 9.38052C12.1073 9.53224 12.2882 11.6659 11.3935 15.7816C10.5178 19.8782 9.48978 22.0309 8.3095 22.2395C7.89069 22.3154 7.44333 21.8981 6.96741 20.9877C6.51053 20.1153 6.27257 19.2998 6.25354 18.5411C6.2345 17.1376 6.77705 15.26 7.88118 12.9082Z" fill="#0D131A"/>
<path d="M8.13817 25.9663C7.96684 25.5301 7.98588 25.2362 8.19528 25.0844C8.40468 24.9517 8.60457 25.1129 8.79494 25.5681L8.93771 26.4215C8.95675 26.7629 8.91868 26.9621 8.82349 27.019C8.6712 27.1138 8.44276 26.7629 8.13817 25.9663Z" fill="#0D131A"/>
<path d="M15.5911 27.4741C16.067 27.2655 16.3335 27.3034 16.3906 27.5879C16.4478 27.8535 16.2383 28.1095 15.7624 28.3561C15.0961 28.6785 14.7154 28.7923 14.6202 28.6974C14.5631 28.6216 14.6393 28.4319 14.8487 28.1285C15.0771 27.825 15.3246 27.6069 15.5911 27.4741Z" fill="#0D131A"/>
<path d="M6.482 17.7161C6.57719 17.6402 6.65333 17.7445 6.71044 18.029C6.76756 18.3135 6.74852 18.4937 6.65333 18.5696C4.42604 20.5989 3.19817 22.5145 2.96973 24.3163C2.66514 26.5732 3.84542 29.7975 6.51056 33.989C9.15667 38.1615 11.5077 40.5417 13.5637 41.1297C14.4774 41.3763 15.8576 41.3763 17.7042 41.1297C19.5317 40.8642 21.4163 40.409 23.3581 39.7641C24.6716 39.3279 25.3569 39.2331 25.414 39.4796C25.4902 39.7072 24.862 40.0676 23.5294 40.5607C21.5496 41.3004 19.5222 41.803 17.4472 42.0685C15.6006 42.2771 14.23 42.2582 13.3352 42.0116C11.165 41.4047 8.67123 38.9486 5.85379 34.6433C2.94117 30.2242 1.64667 26.6965 1.9703 24.0602C2.12259 23.0171 2.60803 21.9266 3.42661 20.7886C4.22615 19.6317 5.24462 18.6075 6.482 17.7161Z" fill="#0D131A"/>
<path d="M29.1833 12.3961C28.5551 12.8703 28.1077 13.2496 27.8412 13.5341C27.5176 13.8944 27.232 14.3401 26.9846 14.8712C26.718 15.4971 26.4515 15.7816 26.185 15.7247C25.9185 15.6488 25.909 15.279 26.1565 14.6152C26.5943 13.4962 27.3938 12.6237 28.5551 11.9978C29.1262 11.7133 29.4784 11.628 29.6116 11.7418C29.7258 11.8746 29.5831 12.0927 29.1833 12.3961Z" fill="#0D131A"/>
<path d="M11.8504 8.7831C11.679 8.38481 11.66 8.14773 11.7933 8.07187C11.9265 7.996 12.1169 8.12877 12.3644 8.47016C13.0116 9.2857 13.2781 10.3762 13.1639 11.7418C13.1068 12.3866 12.9355 12.6901 12.6499 12.6522C12.3644 12.6332 12.2501 12.3108 12.3073 11.6849C12.3834 10.6038 12.2311 9.63657 11.8504 8.7831Z" fill="#0D131A"/>
<path d="M3.16958 24.1741C3.30283 23.4533 3.43609 23.093 3.56935 23.093C3.72164 23.112 3.78827 23.4913 3.76923 24.231C3.76923 24.8379 3.94056 25.3405 4.28322 25.7388C4.8924 26.4215 5.89183 27.2845 7.28151 28.3276C8.65216 29.3518 9.62303 29.9682 10.1941 30.1768C11.1079 30.4992 13.8873 30.8406 18.5322 31.201L27.1844 31.5993C27.6794 31.5803 28.0696 31.495 28.3552 31.3432L29.2689 30.5466C29.7068 30.0915 29.9733 29.9303 30.0685 30.063C30.1827 30.1768 30.078 30.4992 29.7544 31.0303C29.4879 31.4665 29.1738 31.7889 28.8121 31.9976C28.4313 32.2062 27.9459 32.32 27.3558 32.3389L18.8749 31.9407C14.0015 31.5993 11.0127 31.2294 9.90858 30.8311C9.28037 30.6225 8.19528 29.9397 6.6533 28.7828C5.11132 27.6259 4.10238 26.744 3.62646 26.137C3.45513 25.9094 3.32187 25.606 3.22669 25.2267C3.1315 24.8284 3.11247 24.4775 3.16958 24.1741Z" fill="#0D131A"/>
<path d="M6.0251 28.8966L6.48198 28.9251C7.22441 30.9734 8.34758 32.9648 9.85148 34.8994C11.2412 36.6822 12.3548 37.6874 13.1924 37.915C14.9057 38.3702 17.3044 37.9813 20.3883 36.7486C23.5865 35.4589 26.0613 33.7993 27.8126 31.77L28.3552 31.7415C28.6217 31.7984 28.7169 31.8648 28.6407 31.9407C26.8894 34.1597 24.2813 35.9994 20.8166 37.4598C17.4662 38.8633 14.8486 39.309 12.964 38.7969C11.9741 38.5314 10.7272 37.4313 9.22327 35.4968C7.64322 33.4864 6.45342 31.3906 5.65388 29.2095C5.63484 29.0957 5.75858 28.9914 6.0251 28.8966Z" fill="#0D131A"/>
<path d="M4.11194 26.5922C4.11194 26.4784 4.2452 26.4215 4.51171 26.4215C4.75919 26.4215 4.88293 26.4784 4.88293 26.5922C4.88293 26.8198 4.94955 27.256 5.08281 27.9009C5.21607 28.6026 5.33029 28.963 5.42547 28.9819C5.53969 29.0009 5.72054 28.9155 5.96802 28.7259L6.45346 28.2138L6.996 28.7543L6.05369 29.4087L5.25414 29.6647C5.04474 29.5888 4.79726 29.1526 4.51171 28.356C4.2452 27.5974 4.11194 27.0095 4.11194 26.5922Z" fill="#0D131A"/>
<path d="M22.1017 31.6846C22.3111 31.8174 22.3872 31.9312 22.3301 32.026L21.1593 33.2493C20.5882 33.6855 20.1694 33.9036 19.9029 33.9036C19.6745 33.9036 19.3699 33.6381 18.9892 33.1071C18.5894 32.576 18.3324 32.1019 18.2182 31.6846C18.1991 31.5708 18.3133 31.4855 18.5608 31.4286C18.8273 31.3717 18.9701 31.4001 18.9892 31.5139L19.446 32.6234C19.6745 33.0407 19.8363 33.2493 19.9315 33.2493C20.0838 33.2683 20.3788 33.0786 20.8167 32.6803L21.7019 31.6277L22.1017 31.6846Z" fill="#0D131A"/>
<path d="M7.99544 33.1071C7.90026 32.9364 7.90977 32.832 8.02399 32.7941L8.9092 32.6234C9.34705 32.6045 9.62308 32.6519 9.7373 32.7657C9.85152 32.8795 9.86104 33.2019 9.76586 33.7329C9.68971 34.245 9.58501 34.6054 9.45175 34.814C9.35657 34.9468 9.17572 34.8424 8.9092 34.5011L9.28042 33.5907L9.33753 33.1071C9.24235 33.0122 8.89968 33.0786 8.30955 33.3062C8.19533 33.3441 8.09062 33.2777 7.99544 33.1071Z" fill="#0D131A"/>
<path d="M18.6465 35.8097C18.7988 35.7718 19.0272 35.8951 19.3318 36.1796L20.1885 37.1184C20.2646 37.2132 20.217 37.3175 20.0457 37.4313C19.8934 37.5262 19.7792 37.5262 19.703 37.4313C19.2461 36.7106 18.932 36.3692 18.7607 36.4072C18.6655 36.4261 18.5703 36.6253 18.4752 37.0046L18.3609 37.915C18.3609 38.0288 18.2562 38.0857 18.0468 38.0857C17.8374 38.0857 17.7327 38.0193 17.7327 37.8865C17.7327 37.5831 17.8279 37.1848 18.0183 36.6917C18.2467 36.1416 18.4561 35.8477 18.6465 35.8097Z" fill="#0D131A"/>
<path d="M14.2204 41.6702C14.3156 41.6133 14.4298 41.7366 14.5631 42.0401L14.6488 42.5522C12.3453 44.2022 10.4416 45.985 8.93773 47.9006C7.49094 49.7403 5.6539 52.6706 3.4266 56.6914C2.39861 57.8293 1.71329 58.8914 1.37063 59.8777C1.08508 60.6553 1.07556 61.1389 1.34207 61.3286C1.70377 61.6131 2.64609 61.5087 4.16903 61.0156L4.5688 60.9872L4.62591 61.5277C4.62591 62.8743 4.8258 63.6045 5.22557 63.7183C5.51112 63.7942 6.01559 63.4812 6.73899 62.7795C7.48142 62.0967 8.12867 61.3286 8.68074 60.4751C8.79496 60.551 8.87111 60.6837 8.90918 60.8734L8.85207 61.3855C8.52844 62.0303 7.94782 62.7415 7.11021 63.5191C6.15837 64.3916 5.46353 64.7519 5.02568 64.6002C4.26421 64.3916 3.893 63.4622 3.91203 61.8122C3.15056 62.1157 2.42717 62.2769 1.74185 62.2958C1.0946 62.3148 0.66627 62.2105 0.456866 61.9829C0.152278 61.6605 0.133241 61.0441 0.399756 60.1337C0.742417 58.9578 1.53244 57.6586 2.76983 56.2362C4.88291 52.1964 6.85321 49.067 8.68074 46.848C10.2037 44.9703 12.0502 43.2444 14.2204 41.6702Z" fill="#0D131A"/>
<path d="M3.65505 58.0569C3.04587 58.9483 2.83647 59.4983 3.02684 59.707C3.2172 59.8776 3.81686 59.7923 4.82581 59.4509C5.39691 59.2043 5.72054 59.1664 5.79668 59.3371C5.85379 59.5268 5.60632 59.7449 5.05425 59.9914C3.6836 60.6173 2.74129 60.788 2.22729 60.5035C1.63716 60.1621 1.94174 59.2138 3.14106 57.6586C3.54083 57.1465 3.81686 56.9474 3.96916 57.0612C4.14049 57.156 4.03578 57.4879 3.65505 58.0569Z" fill="#0D131A"/>
<path d="M14.3347 41.7271L14.7915 41.784C15.039 41.9358 15.1342 42.059 15.0771 42.1539C9.95621 53.7611 7.9288 63.9838 8.99486 72.822C10.3845 84.5241 17.4186 91.1622 30.0971 92.7364C30.2113 92.7553 30.3065 92.9071 30.3826 93.1915C30.4778 93.495 30.4588 93.6372 30.3255 93.6183C16.8094 92.101 9.328 85.2922 7.88121 73.1918C6.81515 64.164 8.9663 53.6758 14.3347 41.7271Z" fill="#0D131A"/>
<path d="M11.9075 47.8152C12.6309 46.26 13.5161 45.0367 14.5631 44.1453C15.5911 43.2729 16.6381 42.8366 17.7042 42.8366C19.1319 42.8366 20.7405 44.1168 22.53 46.6773C24.2243 49.086 25.8138 52.2248 27.2987 56.0939C30.7443 65.1028 32.0008 72.784 31.068 79.1377L30.5825 79.9342L30.1542 80.361C31.1251 73.4384 29.8306 65.4631 26.2707 56.4353C24.843 52.7938 23.32 49.7782 21.7019 47.3885C20.0647 44.9798 18.7322 43.7755 17.7042 43.7755C16.9617 43.7755 16.0956 44.1737 15.1057 44.9703C13.9063 45.9376 12.926 47.2462 12.1645 48.8963C12.1074 49.0101 12.0407 48.8868 11.9646 48.5265C11.8694 48.1471 11.8504 47.9101 11.9075 47.8152Z" fill="#0D131A"/>
<path d="M36.4649 39.4512C36.4458 39.3184 36.5696 38.8538 36.8361 38.0572C37.1216 37.2796 37.2739 36.9477 37.293 37.0615C38.4542 45.3307 39.5583 51.4852 40.6053 55.5249C41.995 61.0061 43.8892 65.6718 46.2878 69.5219C50.1903 75.7807 51.6467 81.6033 50.6567 86.9896C50.4473 88.0896 49.8572 90.1759 48.8863 93.2484C48.0868 95.733 47.6585 97.7813 47.6013 99.3934C47.5442 100.911 47.3634 101.631 47.0588 101.556C46.7732 101.48 46.6685 100.664 46.7447 99.1089C46.8589 97.3261 47.2872 95.1735 48.0297 92.651C48.9054 89.7302 49.4289 87.7198 49.6002 86.6198C50.3617 81.6696 48.8292 75.9893 45.0028 69.5788C42.6232 65.5959 40.8338 61.1389 39.6345 56.2077C39.3489 55.0697 38.2924 49.4842 36.4649 39.4512Z" fill="#0D131A"/>
<path d="M34.2376 98.6253C34.5803 98.796 34.7706 98.9382 34.8087 99.052C35.3227 100.361 35.5606 102.276 35.5226 104.799C35.5035 107.151 35.6273 108.526 35.8938 108.924C36.3507 109.607 37.2454 110.147 38.578 110.545C39.9105 110.944 41.3097 111.095 42.7756 111.001C46.5258 110.773 48.715 109.246 49.3432 106.42C49.4955 105.719 49.1434 104.363 48.2867 102.352C47.3729 100.19 46.9065 99.0046 46.8875 98.796C46.8685 98.6822 46.9541 98.4546 47.1445 98.1132C47.3158 97.7718 47.411 97.6675 47.4301 97.8003C47.4872 98.4641 48.0297 99.896 49.0577 102.096C49.9715 104.088 50.3617 105.567 50.2285 106.534C49.7906 109.645 47.4205 111.37 43.1182 111.712C41.4049 111.845 39.7678 111.693 38.2068 111.257C36.6457 110.82 35.5892 110.214 35.0371 109.436C34.5993 108.791 34.4565 107.16 34.6088 104.543C34.7611 101.831 34.4946 99.8296 33.8093 98.5399L34.2376 98.6253Z" fill="#0D131A"/>
<path d="M30.8395 78.1989C31.5439 76.9281 32.0007 76.3592 32.2101 76.4919C32.4005 76.6436 32.1721 77.3833 31.5248 78.711C29.7354 82.4093 29.1262 85.9939 29.6973 89.4647C30.2684 92.9545 32.0198 96.0744 34.9514 98.8245C35.9985 99.8107 36.4363 100.408 36.265 100.617C36.1127 100.825 35.5035 100.456 34.4374 99.5072C31.2012 96.6623 29.2404 93.476 28.5551 89.9483C27.8317 86.1931 28.5932 82.2766 30.8395 78.1989Z" fill="#0D131A"/>
<path d="M10.4226 80.5886C10.5178 80.5317 10.6606 80.655 10.8509 80.9584C11.0223 81.2429 11.0603 81.4231 10.9651 81.499C9.57546 82.4852 8.30951 83.9741 7.16731 85.9655C5.94896 88.0518 5.39689 89.863 5.51111 91.3993C5.6063 92.5941 6.13933 93.789 7.1102 94.9838C8.043 96.1597 9.19472 97.0701 10.5654 97.715C11.7456 98.2839 12.2787 98.6633 12.1645 98.8529C12.0693 99.0615 11.3744 98.9003 10.0799 98.3693C8.53796 97.7244 7.24346 96.7572 6.19644 95.4675C5.13038 94.1778 4.54976 92.8407 4.45457 91.4562C4.30228 89.5027 4.94001 87.3785 6.36777 85.0836C7.56708 83.149 8.91869 81.6507 10.4226 80.5886Z" fill="#0D131A"/>
<path d="M22.7869 95.9226C22.7108 95.8278 22.7965 95.695 23.0439 95.5243C23.2724 95.3536 23.4247 95.3157 23.5008 95.4105C24.1481 96.3209 24.605 97.2218 24.8715 98.1132C25.138 99.0425 25.157 99.8012 24.9286 100.389C24.7001 101.034 23.4723 101.793 21.245 102.665C18.8654 103.613 16.4953 104.201 14.1347 104.429C14.0015 104.448 13.9253 104.315 13.9063 104.031C13.8682 103.746 13.9158 103.594 14.0491 103.575C16.3525 103.348 18.5513 102.807 20.6453 101.954C22.53 101.176 23.6436 100.465 23.9863 99.8201C24.1576 99.4788 24.1386 98.9477 23.9292 98.227C23.7007 97.4494 23.32 96.6813 22.7869 95.9226Z" fill="#0D131A"/>
<path d="M8.33809 96.8046C8.45231 96.7667 8.60461 96.8805 8.79497 97.146C8.98534 97.4115 9.02342 97.5538 8.90919 97.5727C8.3952 97.7624 7.74795 98.0658 6.96745 98.4831C6.18694 98.9193 5.58728 99.2986 5.16848 99.6211L4.62593 99.5357C4.35941 99.4029 4.27375 99.2986 4.36893 99.2228C4.86389 98.8245 5.4921 98.3788 6.25357 97.8857C7.11022 97.3546 7.80506 96.9943 8.33809 96.8046Z" fill="#0D131A"/>
<path d="M22.8727 97.0606C22.4729 97.971 22.1778 98.3883 21.9874 98.3124C21.7971 98.2365 21.8352 97.7244 22.1017 96.7761C22.4063 95.752 22.9583 94.7847 23.7579 93.8743C24.5193 92.945 25.2332 92.4045 25.8995 92.2527C26.0137 92.2338 26.2231 92.3286 26.5277 92.5372C26.8323 92.7459 26.9275 92.8596 26.8133 92.8786C26.3183 92.9924 25.6615 93.4571 24.843 94.2726C23.9482 95.183 23.2915 96.1123 22.8727 97.0606Z" fill="#0D131A"/>
<path d="M6.33923 99.8486C6.62478 100.323 6.81515 100.863 6.91034 101.47C6.92937 101.584 6.81515 101.66 6.56768 101.698C6.3202 101.717 6.17742 101.669 6.13935 101.556L5.71102 100.418C5.46354 100.038 5.26366 99.8486 5.11136 99.8486C4.54026 99.8297 3.76927 100.19 2.7984 100.93C1.84656 101.631 1.40872 102.106 1.48487 102.352C1.56101 102.542 2.04645 102.627 2.94118 102.608L5.33981 102.352C5.45403 102.333 5.53969 102.447 5.5968 102.694C5.65391 102.94 5.62536 103.073 5.51114 103.092L1.68475 103.291C0.828098 103.196 0.380734 103.035 0.342661 102.807C0.266514 102.314 0.894726 101.546 2.2273 100.503C3.54083 99.4598 4.53074 98.9477 5.19703 98.9667C5.61584 98.9857 5.99657 99.2796 6.33923 99.8486Z" fill="#0D131A"/>
<path d="M9.7944 102.75C9.77537 102.257 9.65163 101.802 9.42319 101.385C9.15667 100.949 8.88064 100.75 8.59509 100.787C8.0811 100.863 7.31963 101.375 6.31068 102.324C5.32077 103.234 4.86389 103.794 4.94003 104.002C4.99714 104.173 5.56825 104.173 6.65334 104.002L9.19475 103.462C9.30897 103.424 9.36608 103.528 9.36608 103.775C9.36608 104.04 9.30897 104.182 9.19475 104.201C8.26195 104.505 7.19589 104.704 5.99657 104.799C4.75919 104.894 4.07386 104.808 3.94061 104.543C3.75024 104.144 4.25471 103.319 5.45403 102.068C6.65334 100.778 7.66229 100.076 8.48087 99.9624C8.99486 99.8866 9.45174 100.133 9.85151 100.702C10.2703 101.271 10.4892 101.954 10.5083 102.75C10.5083 102.864 10.3941 102.921 10.1656 102.921C9.91814 102.921 9.7944 102.864 9.7944 102.75Z" fill="#0D131A"/>
<path d="M7.8241 105.624C7.61469 105.282 8.10965 104.429 9.30896 103.063C10.5273 101.679 11.4982 100.958 12.2216 100.901C12.7546 100.844 13.3067 101.243 13.8778 102.096C14.4489 102.912 14.6583 103.594 14.506 104.144C14.3727 104.657 13.2496 105.093 11.1365 105.453L7.8241 105.624ZM8.79497 105.026L11.1365 104.77C12.6594 104.448 13.4685 104.144 13.5637 103.86C13.6779 103.538 13.5827 103.101 13.2781 102.551C12.9735 102.001 12.6499 101.736 12.3072 101.755C11.8313 101.793 11.0984 102.314 10.1085 103.319C9.15667 104.268 8.71882 104.837 8.79497 105.026Z" fill="#0D131A"/>
<path d="M88.4352 73.903C88.4732 73.7892 88.6255 73.7892 88.8921 73.903C89.1586 74.0168 89.2728 74.1306 89.2347 74.2444C87.1407 79.1946 84.2852 83.1016 80.6682 85.9654C77.4129 88.5259 73.7578 90.0811 69.703 90.6311C65.9528 91.1432 62.2977 90.7449 58.7379 89.4362C55.2161 88.1465 52.332 86.1741 50.0857 83.5188C50.0095 83.424 50.0381 83.1585 50.1713 82.7223C50.3236 82.286 50.4378 82.1153 50.514 82.2102C52.9507 85.093 55.9395 87.1793 59.4803 88.469C62.964 89.7587 66.5334 90.1095 70.1885 89.5216C73.9958 88.8957 77.4415 87.331 80.5254 84.8275C83.8949 82.0964 86.5315 78.4549 88.4352 73.903Z" fill="#0D131A"/>
<path d="M90.948 75.6953C90.9671 75.5815 91.1194 75.5436 91.4049 75.5815C91.6905 75.6195 91.8237 75.6953 91.8047 75.8091C91.0051 82.3904 88.6636 87.8621 84.7801 92.2243C81.3916 96.0175 77.0988 98.7107 71.9018 100.304C67.2378 101.707 62.5642 102.049 57.8812 101.328C53.3314 100.626 49.8477 99.0805 47.43 96.6908C47.3539 96.6149 47.392 96.3873 47.5443 96.008C47.6966 95.6287 47.8108 95.4769 47.8869 95.5528C50.1523 97.8098 53.4837 99.3176 57.8812 100.076C62.431 100.873 66.9617 100.645 71.4734 99.3934C76.5372 97.9899 80.7253 95.4675 84.0377 91.826C87.845 87.6345 90.1485 82.2576 90.948 75.6953Z" fill="#0D131A"/>
<path d="M90.3198 80.8162L90.2341 82.2386C88.4066 87.1888 85.4845 91.1432 81.4677 94.1019C77.9459 96.7192 73.853 98.3882 69.189 99.1089C64.9438 99.7727 60.8604 99.5736 56.9389 98.5115C53.0744 97.4873 50.1808 95.8468 48.2581 93.5898C48.182 93.495 48.22 93.2958 48.3723 92.9924C48.5246 92.7079 48.6388 92.613 48.715 92.7079C50.6187 94.9269 53.4932 96.558 57.3386 97.6011C61.2602 98.6443 65.3341 98.8244 69.5602 98.1417C74.2052 97.402 78.2695 95.695 81.7533 93.0208C85.7129 89.9673 88.5684 85.8991 90.3198 80.8162Z" fill="#0D131A"/>
<path d="M96.1736 56.2077V55.3258C96.1165 55.212 95.9166 55.2879 95.5739 55.5534C94.6411 56.331 94.1081 56.6629 93.9749 56.5491C93.8606 56.4543 93.8606 55.8569 93.9749 54.7568C94.2033 52.405 93.7084 50.9446 92.49 50.3757C91.976 50.1481 91.7 49.7972 91.6619 49.323C91.6238 48.9627 91.738 48.1661 92.0046 46.9333C92.3091 45.4729 92.4614 44.3729 92.4614 43.6332C92.4614 42.8556 92.3091 41.8694 92.0046 40.6745C91.8523 41.7177 91.6714 42.5142 91.462 43.0642C91.2526 43.6143 90.9671 44.041 90.6054 44.3445C89.1966 45.5583 88.2258 46.5919 87.6927 47.4454C87.2359 48.1851 87.036 48.9532 87.0931 49.7498C87.1692 50.5084 87.1597 51.0869 87.0645 51.4852L86.5505 52.5947L86.0651 53.3628C85.9128 53.6473 85.8081 54.0077 85.751 54.4439C85.6558 55.0887 85.5511 55.4206 85.4369 55.4396C85.3417 55.4586 85.1133 55.193 84.7516 54.643C84.3708 54.093 84.3232 53.2301 84.6088 52.0542C84.7611 51.4852 84.7135 50.8688 84.466 50.205C84.2185 49.5601 84.1614 49.0386 84.2947 48.6403C84.0282 48.8868 83.8283 49.3325 83.695 49.9774C83.5618 50.6791 83.6094 51.286 83.8378 51.7981C84.0472 52.2533 84.0853 52.8223 83.952 53.5051L83.6094 54.5292C83.3619 55.0034 83.2381 55.4301 83.2381 55.8094L83.4666 56.8336C83.695 57.5543 83.7426 58.1043 83.6094 58.4837C83.0573 59.7923 82.7813 60.7027 82.7813 61.2148C82.7813 61.632 82.9812 62.1441 83.3809 62.751C83.7807 63.339 83.9615 63.8795 83.9235 64.3726L83.438 65.8804L82.8669 66.9899C82.6956 67.4072 82.6004 67.8529 82.5814 68.327C82.5433 69.1046 82.7622 69.8633 83.2381 70.603C83.7141 71.3995 84.2947 71.8737 84.98 72.0254L87.6642 72.7935C88.4066 73.097 89.0443 73.5522 89.5774 74.1591C90.1485 74.766 90.6434 75.0979 91.0622 75.1548C91.5191 75.2307 92.0141 74.9936 92.5471 74.4436C93.0611 73.8936 93.6227 73.4668 94.2319 73.1634C94.6887 72.9548 95.06 72.4806 95.3455 71.7409C95.6311 70.9823 95.9166 70.5271 96.2022 70.3754C96.9446 69.9581 97.4776 69.5693 97.8013 69.209C98.2581 68.6969 98.4485 68.0994 98.3724 67.4167C98.3152 66.9994 98.4104 66.3546 98.6579 65.4821C98.9054 64.6097 99.0101 63.9648 98.972 63.5476V61.9544C99.0291 61.3475 99.1148 60.8639 99.229 60.5035L98.5437 61.8406L97.6585 63.4338C97.2206 64.2873 96.916 64.7045 96.7447 64.6856C96.5734 64.6856 96.5258 64.2493 96.6019 63.3769L96.8304 61.6131L96.9731 59.9061C96.402 60.3613 96.0308 60.551 95.8595 60.4751C95.7072 60.3992 95.6596 60.0673 95.7167 59.4794L96.1736 56.2077ZM93.1182 42.4668L93.261 44.316C93.2419 44.8281 93.004 45.9376 92.5471 47.6445C92.2425 48.7256 92.3377 49.3799 92.8327 49.6075C93.8606 50.0627 94.4889 50.7929 94.7173 51.7981C94.9457 52.6706 94.8886 53.9128 94.546 55.5249C95.7643 54.3111 96.4972 53.9508 96.7447 54.4439C97.0303 54.956 96.9065 56.6155 96.3735 59.4225C96.9636 58.9294 97.3349 58.825 97.4871 59.1095C97.6965 59.4699 97.6585 60.513 97.3729 62.2389L98.2581 60.9872L98.8292 59.8777C99.1338 59.1 99.3432 58.7018 99.4574 58.6828C99.6097 58.6828 99.6954 59.1285 99.7144 60.0199L99.6002 61.6131C99.5621 62.3338 99.6097 62.9217 99.743 63.3769C99.9143 63.9079 99.8191 64.6381 99.4574 65.5675C99.0767 66.5158 98.953 67.1986 99.0862 67.6158C99.3337 68.4693 99.0386 69.2184 98.201 69.8633C97.0398 70.7357 96.364 71.3806 96.1736 71.7978L95.6596 72.9358C95.3741 73.4099 95.0504 73.7229 94.6887 73.8746C93.9653 74.1781 93.4133 74.5384 93.0325 74.9557C92.1188 75.885 91.4144 76.3212 90.9195 76.2643C90.5007 76.2264 89.8439 75.7143 88.9492 74.7281C87.8641 73.5143 86.3887 72.7935 84.5231 72.5659C83.7617 72.4711 83.0859 71.997 82.4957 71.1435C81.9436 70.3469 81.6391 69.5219 81.5819 68.6684C81.5248 68.0805 81.7723 67.2649 82.3244 66.2218C82.8764 65.1976 83.143 64.5528 83.1239 64.2873C83.1049 63.9459 82.9716 63.6329 82.7241 63.3484L82.153 62.6372C81.7723 61.9165 81.9912 60.5225 82.8098 58.4552C83.0383 57.9242 83.0287 57.4121 82.7813 56.919C82.4957 56.331 82.3529 55.8569 82.3529 55.4965C82.372 55.1741 82.5338 54.7189 82.8384 54.1309L83.2381 53.1637C83.3143 52.7654 83.2953 52.3007 83.181 51.7697C82.9716 50.8403 82.9811 50.0343 83.2096 49.3515C83.3428 48.9911 83.6474 48.4506 84.1233 47.7299C84.4089 47.2937 84.5898 47.085 84.6659 47.104C84.7611 47.123 84.8182 47.398 84.8372 47.929L84.8087 48.7256C84.8277 49.1998 84.9419 49.7024 85.1513 50.2334C85.3798 50.8403 85.3607 51.561 85.0942 52.3955C84.9229 52.8887 84.9514 53.4197 85.1799 53.9887L86.0937 52.2249C86.3411 51.7886 86.4554 51.3429 86.4363 50.8877L86.3221 49.6644C86.3221 48.223 86.7219 47.0756 87.5214 46.2221C87.9973 45.691 88.9111 44.8755 90.2627 43.7755C90.7957 43.1306 91.1289 42.059 91.2621 40.5607C91.4144 39.2141 91.5477 38.5314 91.6619 38.5124C91.8142 38.4745 92.1473 39.1572 92.6613 40.5607C92.8517 41.0728 93.004 41.7082 93.1182 42.4668Z" fill="#0D131A"/>
<path d="M28.8407 14.5582L29.3832 14.4729C29.6307 14.4919 29.7164 14.5488 29.6402 14.6436C28.4028 15.9902 27.6414 18.1334 27.3558 21.0731C27.0893 23.7852 27.2987 25.7767 27.984 27.0474C28.0411 27.1612 27.9555 27.256 27.727 27.3319L27.2987 27.275C26.4992 25.7387 26.2612 23.5671 26.5848 20.7601C26.9084 17.9152 27.6604 15.8479 28.8407 14.5582Z" fill="#0D131A"/>
<path d="M11.936 30.6604C12.0693 30.6604 12.2692 30.7553 12.5357 30.9449C12.8022 31.1346 12.8784 31.2294 12.7641 31.2294C11.9836 31.2863 11.146 31.5044 10.2513 31.8837C9.45175 32.2441 8.75691 32.6614 8.16677 33.1355C8.09062 33.2114 7.98592 33.1545 7.85266 32.9648C7.71941 32.7751 7.69085 32.6424 7.767 32.5665C9.17572 31.4096 10.5654 30.7742 11.936 30.6604Z" fill="#0D131A"/>
<path d="M35.751 109.521C35.8652 109.123 36.1127 108.763 36.4934 108.44C36.9503 108.08 37.3977 107.966 37.8355 108.099C38.4257 108.289 38.873 108.696 39.1776 109.322C39.4441 109.872 39.5203 110.346 39.4061 110.745C39.2157 111.389 38.7302 112.205 37.9497 113.191C37.1883 114.121 36.6838 114.595 36.4363 114.614C36.1317 114.633 35.8938 113.94 35.7224 112.537C35.5511 111.152 35.5606 110.147 35.751 109.521Z" fill="white"/>
<path d="M41.5477 110.545C41.4715 109.995 41.5191 109.512 41.6904 109.095C41.8998 108.583 42.2711 108.27 42.8041 108.156C43.8321 107.966 44.5555 108.355 44.9743 109.322C45.2217 109.91 45.2789 110.934 45.1456 112.395C45.0123 113.836 44.8125 114.614 44.5459 114.728C44.2794 114.841 43.775 114.471 43.0325 113.618C42.2139 112.67 41.719 111.646 41.5477 110.545Z" fill="white"/>
<path d="M47.0303 109.948C47.1635 108.715 47.5443 107.805 48.1725 107.217C48.7626 106.667 49.2671 106.629 49.6859 107.103C50.0666 107.539 50.4188 108.639 50.7424 110.403C51.0851 112.129 51.1517 113.04 50.9423 113.134C50.6948 113.248 49.9714 112.812 48.7721 111.826C47.5728 110.839 46.9922 110.214 47.0303 109.948Z" fill="white"/>
<path d="M31.4963 42.0401L37.9783 52.0826C37.1407 55.0603 35.2941 58.0379 32.4386 61.0156C31.4296 62.0587 29.8972 63.3959 27.8412 65.0269L25.4997 67.0753C24.5288 67.8718 23.8816 68.2132 23.5579 68.0994C23.2724 68.0236 23.0249 67.4451 22.8155 66.364L22.5871 64.7709L21.1308 65.6813C20.1028 66.2313 19.4555 66.3735 19.189 66.108C18.9415 65.8614 18.8939 65.2735 19.0462 64.3442L19.3318 63.0355C17.9231 63.0355 17.2282 62.8174 17.2473 62.3812C17.2663 62.0777 17.628 61.632 18.3324 61.0441C19.2081 60.3044 19.8077 59.6975 20.1313 59.2233C20.9118 55.4491 23.044 51.4567 26.5277 47.2463C28.26 45.141 29.9162 43.4056 31.4963 42.0401Z" fill="#EF8200"/>
<path d="M23.7007 68.0425C24.7858 66.0321 25.6044 64.695 26.1565 64.0312L31.582 59.1095C34.4946 56.5112 36.522 54.2352 37.6642 52.2817C37.4358 54.2352 36.1888 56.6439 33.9235 59.5078C31.8294 62.1631 29.9543 63.9079 28.2981 64.7424C25.8614 66.6959 24.329 67.796 23.7007 68.0425Z" fill="#CF7100"/>
<path d="M38.7493 108.696C39.4727 109.777 39.4536 111.02 38.6922 112.423C38.0449 113.618 37.3786 114.32 36.6933 114.528L38.1496 111.371C38.5875 110.176 38.7873 109.284 38.7493 108.696Z" fill="#DBDCDC"/>
<path d="M42.0616 108.668L42.7755 111.427C43.0801 112.527 43.4323 113.523 43.8321 114.415C43.4894 114.49 43.042 114.073 42.49 113.163C41.9189 112.233 41.5952 111.361 41.5191 110.545C41.462 109.844 41.5381 109.322 41.7475 108.981L42.0616 108.668Z" fill="#DBDCDC"/>
<path d="M47.4872 108.497L48.972 110.46C49.981 111.845 50.514 112.764 50.5711 113.22L48.8863 111.996C47.7632 111.067 47.2016 110.365 47.2016 109.891C47.2016 109.417 47.2492 109.047 47.3444 108.782L47.4872 108.497Z" fill="#DBDCDC"/>
<path d="M37.6642 108.554C36.9408 108.497 36.4649 108.772 36.2364 109.379C36.008 109.948 35.9604 110.877 36.0937 112.167C36.1888 113.381 36.3316 114.026 36.522 114.102C36.7123 114.177 37.1312 113.77 37.7784 112.878C38.4257 111.968 38.8064 111.228 38.9206 110.659C38.9968 110.204 38.9111 109.758 38.6636 109.322C38.4161 108.867 38.083 108.611 37.6642 108.554ZM37.8355 107.843C38.4637 107.995 38.9587 108.383 39.3204 109.009C39.644 109.559 39.7773 110.138 39.7202 110.745C39.644 111.314 39.1491 112.186 38.2353 113.362C37.3215 114.538 36.6933 115.107 36.3507 115.069C35.9318 115.05 35.6177 114.206 35.4083 112.537C35.218 110.887 35.2465 109.73 35.494 109.066C35.6463 108.668 35.9604 108.336 36.4363 108.07C36.9313 107.805 37.3977 107.729 37.8355 107.843Z" fill="#0D131A"/>
<path d="M44.5174 109.379C44.3842 109.076 44.1653 108.848 43.8607 108.696C43.5751 108.545 43.28 108.497 42.9755 108.554C42.7089 108.611 42.471 108.772 42.2616 109.038C42.0141 109.341 41.8999 109.683 41.9189 110.062C41.938 110.972 42.3092 111.949 43.0326 112.992C43.6798 113.921 44.1081 114.348 44.3175 114.272C44.5079 114.215 44.6602 113.571 44.7744 112.338C44.9267 111.01 44.8411 110.024 44.5174 109.379ZM44.1748 107.957C44.6126 108.184 44.9458 108.535 45.1742 109.009C45.4978 109.711 45.574 110.896 45.4026 112.565C45.2313 114.196 44.9648 115.059 44.6031 115.154C44.1081 115.287 43.3943 114.68 42.4615 113.333C41.5096 111.968 41.0527 110.858 41.0908 110.005C41.1289 109.493 41.2907 109.028 41.5763 108.611C41.8999 108.137 42.3187 107.852 42.8327 107.757C43.3086 107.663 43.756 107.729 44.1748 107.957Z" fill="#0D131A"/>
<path d="M47.5728 109.806C47.5918 110.242 48.0772 110.839 49.0291 111.598C49.9238 112.338 50.4283 112.67 50.5425 112.594C50.6948 112.461 50.6186 111.636 50.3141 110.119C49.9904 108.507 49.6002 107.558 49.1433 107.274C48.7055 107.236 48.3247 107.52 48.0011 108.127C47.6775 108.677 47.5347 109.237 47.5728 109.806ZM46.7732 109.863C46.7161 109.123 46.9636 108.355 47.5157 107.558C48.0868 106.705 48.6864 106.335 49.3146 106.449C50 106.601 50.5615 107.805 50.9994 110.062C51.4372 112.281 51.4658 113.485 51.0851 113.675C50.8376 113.808 50.0761 113.352 48.8006 112.309C47.4871 111.228 46.8113 110.413 46.7732 109.863Z" fill="#0D131A"/>
<path d="M29.6687 43.0927C30.6587 42.334 31.2298 42.0116 31.382 42.1254C31.5534 42.2582 31.1917 42.7513 30.297 43.6048C28.0887 45.729 26.1469 48.0808 24.4717 50.6601C22.5871 53.543 21.2926 56.3215 20.5882 58.9957C20.455 59.4509 20.1599 59.9345 19.703 60.4466L18.4466 61.5846C17.9897 61.9639 17.8374 62.2294 17.9897 62.3812C18.142 62.5329 18.6274 62.6088 19.446 62.6088C19.5602 62.6088 19.6078 62.7415 19.5888 63.007C19.5698 63.2726 19.5031 63.4053 19.3889 63.4053C18.3228 63.4053 17.5519 63.2536 17.0759 62.9501C16.4287 62.5139 16.6476 61.8501 17.7327 60.9587L19.1319 59.7639C19.4555 59.4414 19.6554 59.1095 19.7316 58.7681C20.5311 55.8094 21.8066 52.9266 23.5579 50.1196C25.3855 47.1799 27.4224 44.8376 29.6687 43.0927Z" fill="#0D131A"/>
<path d="M36.6362 53.8464C37.1692 52.5188 37.5214 51.9024 37.6927 51.9972C37.8831 52.0921 37.7498 52.8412 37.2929 54.2447C36.6076 56.4069 35.4559 58.4647 33.8378 60.4182C32.3339 62.2579 30.6586 63.7372 28.8121 64.8562C28.4504 65.0838 27.5747 65.8235 26.185 67.0753C24.8334 68.1753 23.8816 68.64 23.3295 68.4693C23.0249 68.3744 22.7584 68.0141 22.5299 67.3882C22.3015 66.7623 22.1968 66.108 22.2158 65.4252C21.4734 65.9563 20.75 66.2977 20.0457 66.4494L18.8178 66.3925C18.5703 66.1839 18.4942 65.7097 18.5893 64.97C18.6845 64.2493 18.913 63.5381 19.2747 62.8363C19.7887 61.8501 20.1504 61.3949 20.3598 61.4708C20.5692 61.5277 20.4454 62.0872 19.9885 63.1493C19.4365 64.439 19.2937 65.2166 19.5602 65.4821L20.6168 65.3114C21.1879 65.1028 21.7399 64.8278 22.2729 64.4864C22.5395 64.3157 22.7108 64.2493 22.7869 64.2873C22.8821 64.3062 22.9392 64.4674 22.9583 64.7709C23.0725 66.4399 23.32 67.3313 23.7007 67.4451C24.0243 67.5399 24.7192 67.1322 25.7852 66.2218L28.4694 64.0312C29.9733 63.1019 31.4963 61.6984 33.0382 59.8207C34.6373 57.8672 35.8366 55.8758 36.6362 53.8464Z" fill="#0D131A"/>
</g>
<defs>
<clipPath id="clip0_10_4707">
<rect width="100" height="115" fill="white" transform="translate(0 0.5)"/>
</clipPath>
</defs>
</svg>
