<svg width="200" height="247" viewBox="0 0 200 247" fill="none" xmlns="http://www.w3.org/2000/svg">
<path d="M131.539 209.659L132.79 214.223L129.476 214.192L126.568 213.88C126.401 213.629 126.829 213.077 127.85 212.223C128.85 211.41 130.08 210.555 131.539 209.659Z" fill="#C8C9CA"/>
<path d="M157.863 176.707C158.718 175.977 159.593 175.717 160.49 175.925C161.011 176.05 162.063 176.582 163.647 177.52C165.315 178.52 166.357 179.281 166.774 179.802C167.149 180.281 167.013 181.23 166.367 182.647L164.585 185.992C164.293 186.576 164.22 187.639 164.366 189.181C164.491 190.765 164.377 191.953 164.022 192.745C163.71 193.433 162.48 195.33 160.333 198.435C158.353 201.311 157.301 203.031 157.176 203.594C157.009 204.323 157.123 204.761 157.519 204.907L160.364 205.188L165.773 204.938L171.463 205.188C172.318 205.417 173.923 206.043 176.278 207.064C178.508 208.002 180.3 208.804 181.655 209.471C183.302 210.326 184.5 211.076 185.251 211.722C186.397 212.744 187.022 213.89 187.126 215.161C187.231 216.641 186.397 217.84 184.625 218.757C182.791 219.674 181.228 219.58 179.936 218.475C180.29 219.893 179.852 221.216 178.623 222.446C177.372 223.717 175.705 224.416 173.62 224.541C171.807 224.645 170.317 224.155 169.15 223.071L166.555 219.726C165.763 218.684 164.241 217.798 161.99 217.068C160.26 216.485 157.968 215.964 155.112 215.505L148.203 214.817C145.806 214.817 143.075 215.078 140.012 215.599C137.177 216.099 135.176 215.974 134.009 215.224C133.696 215.015 132.988 214.078 131.883 212.41C131.279 211.493 131.206 210.503 131.664 209.44C131.956 208.773 132.56 207.929 133.477 206.908C133.957 206.407 135.27 206.168 137.417 206.189C139.751 206.209 141.273 206.022 141.981 205.626C145.608 202.479 146.587 199.519 144.92 196.747C144.211 195.538 143.805 194.485 143.701 193.589C143.576 192.589 143.795 191.62 144.357 190.682C144.732 190.015 145.045 188.827 145.295 187.118C145.504 185.513 145.764 184.523 146.077 184.147L157.863 176.707Z" fill="#D7A400"/>
<path d="M148.672 188.806C146.942 192.683 146.452 196.632 147.202 200.655C147.536 203.052 146.869 205.126 145.201 206.876C143.409 208.752 140.887 209.753 137.636 209.878C136.01 209.94 135.301 210.691 135.51 212.129C135.593 212.796 136.062 214.057 136.916 215.912C135.395 215.891 134.249 215.516 133.477 214.786L131.883 212.41C131.279 211.493 131.206 210.503 131.664 209.44C131.956 208.773 132.56 207.929 133.477 206.908C133.957 206.407 135.27 206.168 137.417 206.189C139.751 206.209 141.273 206.022 141.981 205.626C145.608 202.479 146.587 199.519 144.92 196.747C144.211 195.538 143.805 194.485 143.701 193.589C143.576 192.589 143.795 191.62 144.357 190.682C144.732 190.015 145.045 188.827 145.295 187.118C145.504 185.513 145.764 184.523 146.077 184.148L154.331 178.926L151.329 183.835C150.162 185.752 149.276 187.409 148.672 188.806Z" fill="#B08600"/>
<path d="M169.837 219.538C171.442 221.143 173.089 222.175 174.777 222.633L178.06 222.946C176.809 223.926 175.329 224.457 173.62 224.541C171.807 224.645 170.317 224.155 169.15 223.071L166.555 219.726C165.763 218.684 164.241 217.798 161.99 217.068C160.26 216.485 157.968 215.964 155.112 215.505L150.454 214.911C154.101 213.994 157.822 214.046 161.615 215.068C165.054 216.006 167.795 217.496 169.837 219.538Z" fill="#B08600"/>
<path d="M179.529 214.661C182.28 215.912 184.813 216.078 187.126 215.161C187.231 216.641 186.397 217.84 184.625 218.757C182.791 219.674 181.228 219.58 179.936 218.475C180.04 218.496 180.071 218.402 180.029 218.194C179.925 217.777 179.54 217.214 178.873 216.506C177.018 214.546 174.673 212.869 171.838 211.472C173.089 211.722 174.464 212.191 175.965 212.879L179.529 214.661Z" fill="#B08600"/>
<path d="M174.339 222.133C174.048 220.883 174.444 219.768 175.527 218.788C176.611 217.808 177.726 217.517 178.873 217.913C179.894 218.267 180.874 219.424 181.812 221.383C182.666 223.155 183.187 224.895 183.375 226.604C183.396 226.792 183.333 226.896 183.187 226.917C183.041 226.958 182.885 226.896 182.718 226.729C178.216 224.061 175.423 222.529 174.339 222.133Z" fill="#EEEEEF"/>
<path d="M174.339 222.133C174.193 221.487 174.256 220.831 174.527 220.164C177.674 221.685 180.154 223.655 181.968 226.072C181.197 225.718 179.8 224.989 177.778 223.884C176.028 222.925 174.881 222.342 174.339 222.133Z" fill="#C8C9CA"/>
<path d="M183 213.88C183.937 212.775 185 212.337 186.188 212.566C187.189 212.754 188.252 213.661 189.377 215.286C190.399 216.745 191.17 218.309 191.691 219.976C191.774 220.268 191.733 220.476 191.566 220.601L190.878 220.507C186.814 218.798 183.948 217.756 182.28 217.381C181.822 216.172 182.062 215.005 183 213.88Z" fill="#EEEEEF"/>
<path d="M185.907 217.412L188.877 219.538C185.376 218.288 183.177 217.569 182.28 217.381C181.884 216.36 182.03 215.328 182.718 214.286C183.343 215.224 184.406 216.266 185.907 217.412Z" fill="#C8C9CA"/>
<path d="M54.317 120.494C58.1103 120.598 61.4035 121.265 64.1964 122.495L91.0521 127.966L131.508 179.051C126.38 188.868 119.284 195.851 110.217 199.998C102.568 203.479 93.9597 204.782 84.3929 203.906C76.306 203.198 68.6463 201.124 61.4139 197.685C54.8068 194.517 50.5965 191.307 48.7832 188.055C47.5744 190.473 45.2087 192.787 41.6863 194.996C36.4548 198.268 30.1603 199.905 22.8029 199.905C14.7368 199.905 8.62986 196.643 4.48217 190.119C2.6897 187.326 1.52251 184.241 0.980605 180.865C0.459539 177.551 0.605438 174.383 1.4183 171.36C6.12874 175.237 10.2764 177.363 13.8614 177.738C15.9456 177.947 18.0091 177.488 20.0516 176.363C17.4046 171.736 15.9144 166.827 15.5809 161.637C15.1015 154.384 16.9252 146.912 21.0521 139.221C25.6583 130.613 32.7552 124.892 42.3429 122.057C46.303 120.869 50.2943 120.348 54.317 120.494Z" fill="#D7A400"/>
<path d="M54.9422 120.306C58.423 120.577 61.5077 121.307 64.1964 122.495L91.0521 127.966L131.508 179.051C126.38 188.868 119.284 195.851 110.217 199.998C102.568 203.479 93.9597 204.782 84.3929 203.906C76.306 203.198 68.6463 201.124 61.4139 197.685C54.8068 194.517 50.5965 191.307 48.7832 188.055C47.5744 190.473 45.2087 192.787 41.6863 194.996C36.4548 198.268 30.1603 199.905 22.8029 199.905C16.5501 199.905 11.3603 197.789 7.23341 193.558C3.50257 189.723 1.31409 184.971 0.667969 179.302C6.00369 187.847 12.7359 192.328 20.8645 192.745C25.033 192.953 28.3053 192.141 30.6814 190.306C32.5989 188.827 33.9537 186.628 34.7457 183.71C34.9958 182.793 35.2251 180.635 35.4335 177.238C35.6836 172.819 35.9129 169.693 36.1213 167.859C37.0384 159.689 39.0393 155.291 42.124 154.666C42.4158 158 43.6143 161.502 45.7194 165.17C47.6994 168.63 50.2005 171.725 53.2227 174.456C56.2658 177.228 59.3192 179.156 62.3831 180.239C65.6971 181.427 68.5733 181.438 71.0119 180.271C75.5139 178.124 78.3277 173.466 79.4532 166.296C80.3286 160.752 80.1514 155.145 78.9217 149.476C77.5461 143.16 74.7219 137.71 70.4492 133.125C64.0922 126.33 55.1507 122.38 43.6247 121.276C47.3555 120.359 51.128 120.035 54.9422 120.306Z" fill="#B08600"/>
<path d="M76.358 131.905C77.1709 134.74 78.3589 137.012 79.9221 138.721C73.1483 141.743 67.7292 145.787 63.6649 150.851C60.3717 154.936 58.0061 159.605 56.5679 164.858C54.8588 171.235 54.838 177.947 56.5054 184.992C57.3391 188.535 58.3396 191.432 59.5067 193.683L58.5376 196.215L52.3786 192.12C46.8969 184.366 44.0728 176.457 43.906 168.39C43.7601 161.471 45.563 154.791 49.3147 148.35C52.5453 142.785 56.7868 138.075 62.0391 134.219C66.9163 130.634 71.4287 128.623 75.5764 128.185L76.358 131.905Z" fill="#A4725D"/>
<path d="M57.4433 188.65C58.152 190.755 58.8398 192.432 59.5068 193.683L58.5376 196.215L52.3786 192.12C45.438 182.303 42.7597 172.298 44.3437 162.106C46.7198 167.213 50.3256 171.829 55.1611 175.956C55.2861 180.208 56.0469 184.439 57.4433 188.65Z" fill="#815847"/>
<path d="M76.8896 131.999C78.0776 134.875 79.4428 137.168 80.9852 138.877C80.0056 139.023 79.0676 139.294 78.1714 139.69C77.7754 139.878 76.9938 140.295 75.8266 140.941C74.8887 139.065 73.784 137.335 72.5126 135.751C71.4496 134.438 69.8656 132.77 67.7605 130.749C70.6368 129.29 73.2421 128.435 75.5765 128.185L76.8896 131.999Z" fill="#815847"/>
<path d="M155.55 149.601C156.113 150.164 156.321 151.018 156.175 152.164C156.029 153.227 155.623 154.259 154.956 155.26C153.288 157.761 151.59 158.219 149.86 156.635C149.109 155.947 148.557 155.134 148.203 154.197L147.327 151.664C146.389 149.392 143.888 147.141 139.824 144.911L148.828 138.033L151.798 143.817C153.34 146.714 154.591 148.642 155.55 149.601Z" fill="#D7A400"/>
<path d="M155.55 149.601C156.113 150.164 156.321 151.018 156.175 152.164C156.029 153.227 155.623 154.259 154.956 155.26C153.288 157.761 151.59 158.219 149.86 156.635C149.109 155.947 148.557 155.134 148.203 154.197L147.327 151.664C146.389 149.392 143.888 147.141 139.824 144.911L148.828 138.033L151.798 143.817C153.34 146.714 154.591 148.642 155.55 149.601Z" fill="#B08600"/>
<path d="M129.1 111.459L135.635 111.74C139.49 112.115 142.711 112.803 145.295 113.804C147.525 114.679 148.932 115.763 149.516 117.055C150.099 118.306 150.318 120.682 150.172 124.183L149.985 131.28C149.839 134.177 149.505 136.512 148.984 138.283C147.525 143.14 144.243 145.015 139.136 143.911C136.406 143.306 134.04 141.253 132.039 137.752C130.351 134.792 129.08 131.124 128.225 126.747C127.454 122.849 127.162 119.327 127.35 116.18C127.537 113.053 128.121 111.48 129.1 111.459Z" fill="#A4725D"/>
<path d="M134.947 111.584C134.342 113.418 135.801 116.388 139.324 120.494C142.742 124.475 146.316 127.518 150.047 129.623C149.881 134.709 149.224 138.335 148.078 140.503C146.389 143.692 143.409 144.828 139.136 143.911C136.406 143.306 134.04 141.253 132.039 137.752C130.351 134.792 129.08 131.124 128.225 126.747C127.454 122.849 127.162 119.327 127.35 116.18C127.537 113.053 128.121 111.48 129.1 111.459C131.497 111.417 133.446 111.459 134.947 111.584Z" fill="#815847"/>
<path d="M190.784 124.558C191.826 125.038 192.723 125.778 193.473 126.778C194.473 128.133 194.88 129.644 194.692 131.311C194.463 133.104 193.671 134.302 192.316 134.907C191.107 135.449 189.607 135.469 187.814 134.969C186.751 135.907 185.949 137.043 185.407 138.377C184.886 139.669 184.771 140.67 185.063 141.378C185.292 141.962 186.47 142.129 188.596 141.879L192.973 141.16C193.723 141.055 194.588 141.253 195.568 141.754C196.11 142.045 196.881 142.566 197.881 143.317C198.694 143.921 199.246 145.276 199.538 147.381C199.872 149.757 199.59 151.987 198.694 154.072C198.527 154.447 198.037 154.739 197.225 154.947L194.505 155.072C191.983 154.718 190.482 153.446 190.003 151.258C188.94 151.133 188.106 151.529 187.502 152.446L185.751 154.884C184.459 155.906 182.604 156.687 180.186 157.229C177.122 157.896 174.933 157.469 173.62 155.947C171.557 155.426 168.243 155.989 163.678 157.636C158.134 159.637 154.82 160.7 153.736 160.825C152.444 160.991 151.298 160.616 150.297 159.699C149.359 158.845 148.765 157.729 148.515 156.354C148.244 154.937 148.432 153.613 149.078 152.383C149.808 150.966 151.016 149.924 152.705 149.257L159.458 146.568C162.438 145.318 164.533 144.255 165.742 143.379L165.898 143.223C165.836 141.618 165.513 140.545 164.929 140.003C164.179 139.294 163.512 138.523 162.928 137.689C162.324 136.793 161.969 136.043 161.865 135.438C161.49 133.396 161.803 131.801 162.803 130.655C163.491 129.884 164.585 129.269 166.086 128.81C167.336 128.435 168.649 128.508 170.025 129.029C171.484 129.571 172.193 130.405 172.151 131.53C172.068 133.177 172.099 134.271 172.245 134.813C172.495 135.834 173.151 136.418 174.214 136.564C176.695 134.959 178.581 133.208 179.873 131.311C180.623 130.228 181.405 128.779 182.218 126.966C182.843 125.84 184.26 125.038 186.47 124.558C188.471 124.141 189.909 124.141 190.784 124.558Z" fill="#D7A400"/>
<path d="M165.836 135.72C166.878 136.991 167.493 138.106 167.68 139.065C167.972 140.607 167.67 141.952 166.773 143.098C165.94 144.14 165.325 144.411 164.929 143.911L165.742 143.379L165.898 143.223C165.836 141.618 165.513 140.545 164.929 140.003C164.179 139.294 163.512 138.523 162.928 137.689C162.324 136.793 161.969 136.043 161.865 135.438C161.49 133.396 161.802 131.801 162.803 130.655C163.491 129.884 164.585 129.269 166.086 128.81L165.742 130.686C165.429 131.999 165.315 132.645 165.398 132.624C164.981 133.792 165.127 134.823 165.836 135.72Z" fill="#B08600"/>
<path d="M184.688 133.406C185.23 134.094 186.157 134.73 187.47 135.313C186.595 136.209 185.918 137.22 185.438 138.346C184.959 139.45 184.802 140.368 184.969 141.097C183.448 140.951 182.468 140.44 182.03 139.565C181.697 138.481 181.718 137.304 182.093 136.032C182.531 134.511 183.396 133.635 184.688 133.406Z" fill="#B08600"/>
<path d="M189.534 151.227C188.679 151.247 187.97 151.706 187.408 152.602L185.751 154.884C184.459 155.906 182.604 156.687 180.186 157.229C177.122 157.896 174.933 157.469 173.62 155.947C171.557 155.426 168.243 155.989 163.678 157.636C158.134 159.637 154.82 160.699 153.736 160.825C152.507 160.97 151.412 160.637 150.454 159.824C149.557 159.074 148.943 158.063 148.609 156.791C147.817 153.728 148.818 151.393 151.61 149.788L151.829 151.758C151.954 152.821 152.548 153.592 153.611 154.072C154.403 154.447 156.54 153.894 160.021 152.415C163.626 150.914 166.273 150.393 167.962 150.851C171.38 153.165 174.308 154.072 176.747 153.571C178.122 153.28 180.415 151.977 183.625 149.663C184.542 148.996 186.209 148.309 188.627 147.6C191.107 146.87 192.191 146.818 191.878 147.444C190.69 149.048 189.909 150.309 189.534 151.227Z" fill="#B08600"/>
<path d="M168.712 132.124C168.003 132.583 167.211 132.979 166.336 133.312C164.564 134 163.22 134.063 162.303 133.5C161.198 132.791 161.959 131.092 164.585 128.404C167.211 125.715 168.879 124.569 169.587 124.965C169.962 125.152 169.973 126.101 169.619 127.81L168.712 132.124Z" fill="#EEEEEF"/>
<path d="M162.303 133.5C161.573 133.02 161.761 131.999 162.866 130.436C163.887 128.998 165.221 127.685 166.867 126.497C165.846 127.914 165.137 129.206 164.741 130.373L163.928 133.875C163.262 133.875 162.72 133.75 162.303 133.5Z" fill="#C8C9CA"/>
<path d="M188.033 130.967C188.617 130.467 189.753 130.373 191.441 130.686C193.212 131.04 194.182 131.666 194.348 132.562C194.515 133.479 193.942 134.75 192.629 136.376C191.316 138.044 190.357 138.658 189.753 138.221L188.658 133.844L188.033 130.967Z" fill="#EEEEEF"/>
<path d="M189.971 130.561C190.409 131.749 190.555 133.052 190.409 134.469C190.347 135.178 190.086 136.48 189.627 138.377C189.586 138.377 189.534 138.2 189.471 137.846C189.409 137.512 189.346 137.335 189.284 137.314L188.596 133.343L188.033 130.967C188.408 130.655 189.054 130.519 189.971 130.561Z" fill="#C8C9CA"/>
<path d="M196.099 153.009C197.621 153.446 198.215 154.332 197.881 155.666C197.443 157.479 195.849 159.074 193.098 160.449L192.66 160.356C192.535 160.231 192.493 160.085 192.535 159.918C192.889 158.438 192.994 156.937 192.848 155.416L192.504 153.603C193.442 152.811 194.64 152.613 196.099 153.009Z" fill="#EEEEEF"/>
<path d="M192.504 153.603C193.004 153.186 193.661 152.946 194.473 152.883C193.952 155.426 193.379 157.344 192.754 158.636C192.941 157.427 192.952 156.229 192.785 155.041L192.504 153.603Z" fill="#C8C9CA"/>
<path d="M155.206 181.74C154.664 182.303 153.215 182.845 150.86 183.366C148.192 183.949 146.17 183.908 144.795 183.241C143.19 182.449 140.793 181.521 137.604 180.458C134.269 179.333 131.831 178.655 130.288 178.426C128.162 178.134 126.756 177.447 126.068 176.363L132.915 159.105C134.207 159.105 135.457 159.313 136.666 159.73C138.896 160.501 141.272 161.971 143.794 164.139L151.485 171.017C153.945 173.143 155.727 174.393 156.832 174.768C157.957 175.164 158.113 176.342 157.3 178.301C156.654 179.864 155.956 181.011 155.206 181.74Z" fill="#D7A400"/>
<path d="M150.36 183.46L144.795 183.241C143.19 182.449 140.793 181.521 137.604 180.458C134.269 179.333 131.831 178.655 130.288 178.426C128.162 178.134 126.756 177.447 126.068 176.363L129.913 166.671C130.288 170.068 133.029 172.924 138.136 175.237C139.553 175.883 141.741 176.78 144.701 177.926C147.265 178.989 149.193 179.989 150.485 180.927C151.423 181.657 152.903 182.001 154.924 181.959C153.882 182.563 152.361 183.064 150.36 183.46Z" fill="#B08600"/>
<path d="M140.668 123.058C140.96 124.35 141.7 127.205 142.888 131.624C143.763 135.667 143.774 138.367 142.919 139.721L137.636 145.255C134.259 148.694 132.123 151.216 131.226 152.821C130.122 154.801 125.745 155.895 118.096 156.104C110.717 156.312 105.371 155.708 102.057 154.29C100.16 153.478 98.2637 151.987 96.367 149.82C94.5121 147.673 92.1777 146.026 89.3639 144.88C87.5923 144.13 85.6435 142.942 83.5175 141.316C81.3708 139.648 79.7867 138.085 78.7654 136.626C77.1814 134.334 75.7537 129.488 74.4823 122.088C74.1488 120.004 76.4415 116.992 81.3603 113.053C85.4663 109.739 89.7703 106.936 94.2724 104.643C98.295 102.58 103.568 101.975 110.092 102.83C117.345 103.789 123.525 106.394 128.631 110.646C133.196 114.418 136.573 117.618 138.761 120.244C139.845 121.557 140.481 122.495 140.668 123.058Z" fill="#A4725D"/>
<path d="M106.684 102.517C112.207 102.767 117.376 104.091 122.191 106.488C116.376 109.552 111.363 114.22 107.153 120.494C105.34 122.912 104.985 126.476 106.09 131.186C107.111 135.584 108.466 138.116 110.154 138.783L116.095 138.627L123.285 137.377C127.391 137.106 130.601 137.116 132.915 137.408C137.041 137.929 139.105 139.325 139.105 141.597C139.105 142.368 138.959 143.035 138.667 143.598L137.636 145.568C134.384 148.611 132.248 151.028 131.226 152.821C130.122 154.78 125.745 155.874 118.096 156.104C110.717 156.312 105.371 155.708 102.057 154.29C100.16 153.478 98.2637 151.987 96.367 149.82C94.5121 147.673 92.1777 146.026 89.3639 144.88C87.5923 144.13 85.6435 142.942 83.5175 141.316C81.3708 139.648 79.7867 138.085 78.7654 136.626C77.1814 134.334 75.7537 129.488 74.4823 122.088C74.1488 120.004 76.4415 116.992 81.3603 113.053C85.4663 109.739 89.7703 106.936 94.2724 104.643C97.4404 103.017 101.578 102.309 106.684 102.517Z" fill="#815847"/>
<path d="M60.4759 114.96C58.746 110.208 57.7664 105.831 57.5371 101.829C57.4121 99.5159 58.8606 97.2023 61.8828 94.8888C63.9462 93.3048 66.3536 91.9396 69.1048 90.7932C70.5638 90.1679 73.2837 90.5848 77.2647 92.0438C79.3698 92.7941 81.9334 93.7946 84.9556 95.0451L94.3973 109.802C95.0643 113.824 94.0013 117.659 91.2084 121.307C89.0199 124.183 85.8936 126.799 81.8292 129.154C80.7246 128.612 79.0884 128.102 76.9208 127.622L68.6984 125.621C65.4886 124.725 62.7478 121.171 60.4759 114.96Z" fill="#A4725D"/>
<path d="M69.1048 90.7932L72.0749 90.6057C70.0531 91.3768 68.0939 92.94 66.1972 95.2952C64.4048 97.5463 63.5085 99.4117 63.5085 100.892C63.6336 101.663 64.1755 102.205 65.1343 102.517L68.3545 102.924C67.9376 103.882 68.2815 104.476 69.3862 104.706C70.7826 104.977 71.5851 105.394 71.7935 105.956C72.252 107.123 72.6272 108.718 72.919 110.74C73.2733 113.095 73.3046 114.867 73.0128 116.055C72.1166 119.035 72.8252 121.036 75.1387 122.057C76.8895 122.849 79.4115 123.037 82.7046 122.62C84.2678 122.349 86.1124 121.588 88.2383 120.338C90.8228 118.816 92.5945 117.878 93.5532 117.524C92.5945 119.692 91.0834 121.828 89.0199 123.933C86.894 126.101 84.6013 127.789 82.1419 128.998C81.0789 128.456 79.3906 127.966 77.0771 127.528L68.6984 125.621C65.4886 124.725 62.7478 121.171 60.4759 114.96C58.746 110.208 57.7664 105.831 57.5371 101.829C57.4121 99.5159 58.8606 97.2024 61.8828 94.8888C63.9462 93.3048 66.3536 91.9396 69.1048 90.7932Z" fill="#815847"/>
<path d="M62.258 81.7892C62.9666 82.2686 63.5398 83.0606 63.9775 84.1652L65.1968 87.3854C66.0097 89.0112 68.4691 92.3564 72.5751 97.4212C73.117 98.0881 73.117 98.9114 72.5751 99.891C72.0749 100.829 71.2724 101.611 70.1678 102.236C68.9797 102.903 67.823 103.153 66.6975 102.986C65.4052 102.778 64.3943 101.996 63.6649 100.641C62.7478 98.9114 61.6535 97.244 60.3821 95.6391C59.0482 93.93 57.7455 92.5753 56.4741 91.5748C54.0981 89.7407 52.7329 88.636 52.3786 88.2608C51.0238 86.9269 50.534 85.7493 50.9092 84.728L62.258 81.7892Z" fill="#D7A400"/>
<path d="M56.4741 91.5748C54.0981 89.7407 52.7329 88.636 52.3786 88.2608C51.0238 86.9269 50.534 85.7493 50.9092 84.728L61.0387 82.1018C61.1637 83.2482 60.7886 84.405 59.9132 85.5721C58.9961 86.781 58.5376 87.4792 58.5376 87.6668C58.746 90.0846 60.2154 92.6795 62.9458 95.4516C66.6766 99.2449 68.8338 101.621 69.4174 102.58C68.3128 103.038 67.2811 103.142 66.3223 102.892C65.2176 102.601 64.3318 101.85 63.6649 100.641C62.7478 98.9114 61.6535 97.244 60.3821 95.6391C59.0482 93.93 57.7455 92.5753 56.4741 91.5748Z" fill="#B08600"/>
<path d="M66.8225 53.9955C65.7596 56.1215 64.707 59.1749 63.6649 63.1558C62.5602 67.3661 62.1017 70.3466 62.2893 72.0974C62.6227 75.2863 62.7582 77.3184 62.6957 78.1938C62.5498 80.549 61.7369 82.1435 60.2571 82.9772C57.3183 84.6446 55.4841 85.5617 54.7546 85.7284C52.587 86.2704 50.7841 85.4783 49.346 83.3524C47.887 81.2056 47.0637 77.9646 46.8761 73.6293C46.7719 70.6905 46.9491 67.4078 47.4076 63.7811L49.0021 52.8075L50.0963 45.2103L70.1365 45.4917C70.3449 46.242 70.0948 47.378 69.3862 48.8995L66.8225 53.9955Z" fill="#D7A400"/>
<path d="M65.7283 45.4292C62.8937 47.305 60.2884 50.2959 57.9123 54.4019C55.828 58.0494 54.1398 62.1658 52.8475 66.7512C51.6387 71.0656 51.0134 74.9841 50.9717 78.5065C50.9092 82.1539 51.4823 84.5925 52.6912 85.8222C51.4615 85.6138 50.3464 84.7905 49.346 83.3524C47.887 81.2056 47.0637 77.9646 46.8761 73.6293C46.7719 70.6905 46.9491 67.4078 47.4076 63.7811L49.0021 52.8075L50.0963 45.2103L65.7283 45.4292Z" fill="#B08600"/>
<path d="M99.2433 27.3586C101.661 28.0256 102.703 28.5258 102.37 28.8593C101.87 29.3595 99.16 30.4329 94.2411 32.0795L94.4287 26.2644C95.575 26.4103 97.1799 26.775 99.2433 27.3586Z" fill="#EEEEEF"/>
<path d="M94.3662 28.109C95.8668 29.0261 97.8156 29.6305 100.213 29.9223L96.3045 31.3604L94.2411 32.0795L94.3662 28.109Z" fill="#C8C9CA"/>
<path d="M95.3353 29.7347C95.3979 31.6939 94.8143 33.0383 93.5846 33.7677C92.8967 34.1638 91.0209 34.5598 87.957 34.9558C84.6431 35.3726 82.5796 35.7374 81.7668 36.05C80.5162 36.5294 78.9843 37.6132 77.171 39.3015C75.5452 40.8021 74.2426 42.2507 73.263 43.6472C72.5126 44.7101 71.5539 45.3771 70.3867 45.6481L66.4474 46.2108C65.8847 46.315 64.4361 47.1175 62.1017 48.6181C60.3093 49.7853 58.5481 50.098 56.8181 49.5561C53.9835 48.6598 52.2119 47.9512 51.5032 47.4301C50.0442 46.3671 48.7728 44.3662 47.689 41.4274L80.2974 26.7334C81.0685 27.0668 82.0586 27.0564 83.2674 26.7021L86.4876 25.3577C87.6548 24.795 89.093 24.5136 90.8021 24.5136C92.6362 24.5345 93.7826 24.9305 94.2411 25.7016C94.9081 26.8063 95.2728 28.1507 95.3353 29.7347Z" fill="#D7A400"/>
<path d="M63.1647 40.8959C62.1226 42.5217 61.4869 44.0015 61.2576 45.3354C61.0492 46.5651 61.1742 47.7532 61.6328 48.8995C60.0487 49.8374 58.4438 50.0563 56.8181 49.5561C53.9835 48.6598 52.2119 47.9512 51.5032 47.4301C50.0442 46.3671 48.7728 44.3662 47.689 41.4274L76.6707 28.3591L74.8574 31.8294C74.1488 33.0591 73.3984 34.0283 72.6064 34.7369C71.3767 35.7165 69.5425 36.7482 67.104 37.8321C65.2698 38.6449 63.9567 39.6662 63.1647 40.8959Z" fill="#B08600"/>
<path d="M127.506 5.38006C129.215 7.56854 129.069 10.2364 127.068 13.3836C124.65 17.177 119.992 20.1471 113.093 22.2939C109.404 23.4402 105.84 23.4611 102.401 22.3564L98.6805 21.1996L94.4286 21.3872C89.8641 22.6378 79.943 26.7438 64.6653 33.7052C48.9708 40.8334 40.3524 44.6372 38.81 45.1166C37.226 45.6168 36.0067 45.596 35.1521 45.0541C34.4018 44.5747 34.0162 43.7722 33.9954 42.6467C33.9745 41.5838 34.2663 40.4895 34.8708 39.364C35.5169 38.1968 36.3402 37.311 37.3406 36.7066C38.9872 35.727 41.5091 34.7786 44.9065 33.8615L54.8797 31.1728C59.2775 29.7972 66.562 27.1606 76.7332 23.2631C87.6339 19.0737 93.251 16.6559 93.5845 16.0098L96.836 9.56944C98.4617 6.92242 100.556 4.94237 103.12 3.62928C107.351 1.50333 111.884 0.575832 116.72 0.846787C121.722 1.11774 125.317 2.62883 127.506 5.38006Z" fill="#C6DCDB"/>
<path d="M126.443 14.2903C123.838 17.6459 119.388 20.3138 113.093 22.2939C109.404 23.4402 105.84 23.461 102.401 22.3564L98.6806 21.1996L94.4287 21.3872C89.8641 22.6378 79.943 26.7438 64.6654 33.7052C48.9709 40.8334 40.3524 44.6372 38.8101 45.1166C36.6424 45.7835 35.1834 45.523 34.4331 44.335C34.5373 43.3554 36.2673 42.1361 39.6229 40.6771C40.811 40.1768 43.2287 39.2702 46.8762 37.9571C49.8775 36.8316 50.8363 35.0496 49.7525 32.611L54.8797 31.1728L63.1022 28.3278C63.6232 29.6826 64.2277 30.756 64.9155 31.548L66.8851 30.2662C68.0732 29.1615 68.292 27.9735 67.5417 26.7021L75.3264 23.6695C78.4945 22.4397 80.214 21.9812 80.4849 22.2939C80.7351 22.5648 80.7663 22.9191 80.5787 23.3568L80.2036 24.6074L88.2697 21.1371C92.7925 19.3446 95.8564 18.5526 97.4613 18.761L103.339 19.9178C105.923 20.2513 108.685 19.9699 111.624 19.0737C115.751 17.8231 119.169 16.2912 121.878 14.4779C125.255 12.1852 127.35 9.53815 128.163 6.5368C129.142 8.95455 128.569 11.539 126.443 14.2903Z" fill="#A7BAB9"/>
<path d="M79.9847 27.7025C79.3803 30.0994 78.8384 31.6209 78.359 32.267C77.5878 33.2883 76.2226 33.9449 74.2634 34.2367C72.0541 34.5701 70.7722 33.8198 70.4179 31.9857C70.0636 30.2557 70.0636 28.828 70.4179 27.7025L71.0432 26.5457L69.5425 25.7954L63.8837 28.0464L62.1955 24.5136C62.529 22.9712 62.8416 21.7102 63.1334 20.7306C63.6753 18.9382 64.3736 17.771 65.2281 17.2291C66.5412 16.3745 67.8543 15.7597 69.1674 15.3845C70.8765 14.8634 72.2104 14.8947 73.1691 15.4783C74.3989 16.2286 75.9621 17.5104 77.8587 19.3237C79.9013 21.283 80.9018 22.5856 80.8601 23.2317C80.7976 24.128 80.5058 25.6182 79.9847 27.7025Z" fill="#D7A400"/>
<path d="M62.9146 26.3582C64.2068 29.0677 64.8321 30.8602 64.7904 31.7356C64.7279 32.611 64.4674 33.8928 64.0088 35.5811C63.4878 37.4986 62.9771 38.8325 62.4769 39.5828C61.935 40.3957 61.1534 40.9376 60.1321 41.2086L57.3809 41.0523C56.1512 40.4895 55.4425 40.0726 55.2549 39.8017C54.7547 39.0097 54.8485 37.5507 55.5363 35.4247C55.182 34.6952 54.6922 34.0908 54.0669 33.6114C53.525 33.2363 53.1602 32.6631 52.9727 31.8919L46.97 33.3613C47.366 30.881 47.7411 28.828 48.0955 27.2023C48.7833 24.1593 49.6587 22.2522 50.7216 21.481C52.3057 20.3347 53.6917 19.626 54.8798 19.355C56.4846 18.9799 57.8707 19.3134 59.0379 20.3555C60.2259 21.4185 61.5181 23.4194 62.9146 26.3582Z" fill="#D7A400"/>
<path d="M62.1955 24.5136C62.529 22.9712 62.8416 21.7103 63.1334 20.7307C63.6753 18.9382 64.3736 17.771 65.2281 17.2291C65.4157 17.104 65.5512 17.3437 65.6345 17.9482C65.7387 18.8236 66.0931 19.5009 66.6975 19.9803L70.7618 22.7628C72.6585 24.0967 73.6068 25.0868 73.6068 25.7329C73.6068 26.254 73.1066 27.7442 72.1062 30.2036C71.5017 32.5172 72.0541 33.8824 73.7632 34.2992C71.8665 34.4451 70.7514 33.6739 70.4179 31.9857C70.0636 30.2557 70.0636 28.828 70.4179 27.7025L71.0432 26.5458L69.5425 25.7954L63.8837 28.0464L62.1955 24.5136Z" fill="#B08600"/>
<path d="M50.7216 21.481C50.8259 21.4184 51.0551 22.1271 51.4095 23.6069C52.0556 25.5453 53.056 27.3169 54.4108 28.9218C55.974 30.8185 56.9744 32.2566 57.4121 33.2362C57.7456 34.0074 57.8394 34.862 57.6935 35.7999C57.6101 36.3835 57.4434 37.0504 57.1933 37.8008C57.0266 38.4052 57.0787 38.968 57.3496 39.489C57.558 39.9893 57.9124 40.3957 58.4126 40.7083C58.7461 40.8959 59.2254 41.0835 59.8507 41.2711C58.9128 41.4378 58.0895 41.3649 57.3809 41.0522C56.1512 40.4895 55.4425 40.0726 55.2549 39.8017C54.7547 39.0096 54.8485 37.5507 55.5363 35.4247L54.1294 34.0491C53.5875 33.5072 53.2019 32.7881 52.9727 31.8919L46.97 33.3613C47.366 30.881 47.7411 28.828 48.0955 27.2023C48.7833 24.1593 49.6587 22.2522 50.7216 21.481Z" fill="#B08600"/>
<path d="M101.182 155.666C101.182 155.02 101.369 154.322 101.744 153.571L102.276 152.602L109.06 149.788C114.042 147.871 117.668 146.777 119.94 146.506C124.359 147.777 127.079 148.684 128.1 149.226C130.559 150.56 131.977 152.56 132.352 155.228C132.831 158.584 133.019 162.148 132.915 165.921C132.769 170.047 132.289 172.517 131.476 173.33C130.372 174.435 128.371 175.779 125.474 177.363C121.993 179.26 118.689 180.604 115.563 181.396C112.145 182.251 108.998 182.303 106.121 181.553C103.349 180.844 101.192 179.489 99.6497 177.488L101.182 155.666Z" fill="#D7A400"/>
<path d="M99.6497 177.488L101.182 155.666C101.182 155.02 101.369 154.322 101.744 153.571L102.276 152.602L105.183 151.352C105.308 157.229 105.621 161.533 106.121 164.264C106.976 168.995 108.591 172.413 110.967 174.518C111.884 175.331 115.292 175.498 121.191 175.018C123.546 174.81 125.109 174.8 125.88 174.987C126.985 175.237 127.11 175.883 126.255 176.926C122.441 179.093 118.877 180.583 115.563 181.396C112.145 182.251 108.998 182.303 106.121 181.553C103.349 180.844 101.192 179.489 99.6497 177.488Z" fill="#B08600"/>
<path d="M106.184 181.615C107.935 181.615 110.238 181.021 113.093 179.833L120.784 176.613C121.243 177.988 120.44 180.052 118.377 182.803C116.251 185.638 114.292 187.055 112.499 187.055C110.957 187.055 109.446 186.148 107.966 184.335L106.184 181.615Z" fill="#D7A400"/>
<path d="M120.346 179.458C119.284 178.728 117.772 179.354 115.813 181.334C114.333 182.793 112.906 184.658 111.53 186.93C110.196 186.576 108.904 185.586 107.653 183.96L106.184 181.615C107.935 181.615 110.238 181.021 113.093 179.833L120.784 176.613C121.013 177.217 120.868 178.166 120.346 179.458Z" fill="#B08600"/>
<path d="M114.938 155.76L117.283 156.573L115.501 159.386C114.313 161.346 113.76 162.544 113.844 162.982L114.781 165.201C115.282 166.327 115.48 167.213 115.375 167.859C115.209 168.797 114.886 169.912 114.406 171.204C113.885 172.642 113.448 173.507 113.093 173.799L111.217 173.705L110.436 173.455C111.811 171.037 112.551 169.172 112.656 167.859C112.676 167.567 112.385 166.869 111.78 165.764C111.134 164.639 110.801 163.868 110.78 163.451C110.78 162.784 111.29 161.471 112.312 159.511C113.354 157.49 114.229 156.239 114.938 155.76Z" fill="#ED8599"/>
<path d="M122.035 155.009L124.223 155.791L122.629 158.105C121.587 159.751 121.097 160.772 121.159 161.168L122.035 163.232C122.493 164.295 122.67 165.129 122.566 165.733C122.42 166.588 122.129 167.64 121.691 168.891C121.211 170.225 120.805 171.027 120.472 171.298L118.721 171.235L118.002 170.985C119.273 168.713 119.961 166.963 120.065 165.733C120.107 165.441 119.836 164.785 119.252 163.763C118.648 162.7 118.346 161.981 118.346 161.606C118.325 161.002 118.762 159.876 119.659 158.23C120.576 156.541 121.368 155.468 122.035 155.009Z" fill="#ED8599"/>
<path d="M125.818 169.453L125.161 169.235C126.308 167.088 126.922 165.441 127.006 164.295C127.047 164.024 126.808 163.409 126.287 162.45C125.745 161.45 125.474 160.772 125.474 160.418C125.453 159.835 125.807 158.855 126.537 157.479C127.308 156.062 127.996 155.145 128.6 154.728L130.539 155.447L129.226 157.386C128.35 158.74 127.944 159.605 128.006 159.98L128.788 161.95C129.205 162.951 129.361 163.732 129.257 164.295L128.475 167.265C128.037 168.516 127.673 169.276 127.381 169.547L125.818 169.453Z" fill="#ED8599"/>
<path d="M74.4197 168.578C74.9824 166.494 75.8474 165.139 77.0146 164.514C77.7441 164.138 80.0785 163.242 84.0177 161.825C87.8528 160.449 90.4373 159.376 91.7712 158.605C94.1473 156.917 95.898 155.801 97.0235 155.26C98.9619 154.342 100.608 154.54 101.963 155.854C103.652 157.5 104.704 159.063 105.121 160.543C105.6 162.231 105.486 164.472 104.777 167.265L103.183 173.58C102.682 174.998 101.797 176.133 100.525 176.988L96.2107 179.552C94.2098 180.656 92.5007 181.688 91.0834 182.647L87.0191 185.929C85.0599 187.222 83.5905 187.243 82.6108 185.992L73.7319 173.705C73.7944 171.725 74.0237 170.016 74.4197 168.578Z" fill="#D7A400"/>
<path d="M73.7319 173.705C73.8361 170.683 74.2946 168.338 75.1075 166.671C76.0454 170.819 78.1818 173.163 81.5166 173.705C84.1636 174.08 87.9049 173.705 92.7404 172.58C97.7426 171.413 101.442 170.954 103.839 171.204C103.464 172.809 103.089 173.966 102.714 174.674C102.255 175.55 101.526 176.321 100.525 176.988L96.2107 179.552C94.2098 180.656 92.5007 181.688 91.0834 182.647L87.0191 185.93C85.0599 187.222 83.5905 187.243 82.6108 185.992L73.7319 173.705Z" fill="#B08600"/>
<path d="M95.4291 236.483C96.242 237.63 96.7943 239.443 97.0861 241.923C97.357 244.445 97.1382 245.915 96.4295 246.332C95.8251 246.665 94.512 246.092 92.4903 244.612L89.6453 242.298L95.4291 236.483Z" fill="#EEEEEF"/>
<path d="M93.3969 238.547C93.6679 241.256 94.6683 243.476 96.3983 245.206L96.0544 245.894L95.6792 246.644C94.3453 245.998 92.9384 245.081 91.4586 243.893L89.6453 242.298L93.3969 238.547Z" fill="#C8C9CA"/>
<path d="M70.6368 174.487C71.5955 173.737 73.1587 173.434 75.3264 173.58C77.3064 173.705 79.2135 174.143 81.0477 174.893C82.465 175.477 83.1424 176.738 83.0798 178.676C83.059 179.76 82.8402 181.365 82.4233 183.491C82.3816 184.033 82.6943 185.419 83.3612 187.649C83.9865 189.754 84.1428 192.036 83.8302 194.496C83.5801 196.497 82.4963 199.623 80.5787 203.875C78.8071 207.731 77.963 210.607 78.0463 212.504C78.1297 214.755 78.8175 217.496 80.1098 220.726C80.7767 222.331 81.4229 223.717 82.0481 224.884L85.9249 226.51C88.822 227.782 91.0626 228.907 92.6466 229.887C94.3974 230.991 95.4291 232.284 95.7418 233.763C96.0127 234.931 95.846 236.379 95.2415 238.109C94.7205 239.589 93.2198 240.85 90.7395 241.892C88.4677 242.83 86.5502 243.205 84.987 243.018C83.2362 242.788 80.8497 241.673 77.8275 239.672C74.2634 237.296 72.398 236.077 72.2312 236.014C70.9807 235.493 68.8235 235.254 65.7596 235.295L57.631 235.483C55.109 235.483 51.0655 236.004 45.5005 237.046C40.1023 238.047 35.7462 239.068 32.4322 240.11C29.2016 241.131 26.7109 240.881 24.9601 239.36C23.1676 237.817 22.5215 235.264 23.0217 231.7C23.4803 228.449 25.0956 226.364 27.8677 225.447C29.8477 224.78 32.7969 224.666 36.7154 225.103C40.2169 225.499 42.8848 225.385 44.7189 224.759C45.636 224.447 46.2092 224.092 46.4385 223.696L39.2477 221.696C38.0806 221.404 37.424 220.685 37.2781 219.538C37.1531 218.517 37.4032 216.506 38.0285 213.504C38.5704 210.899 40.0606 209.044 42.4992 207.939C44.3334 207.106 46.5114 206.762 49.0334 206.908C50.7008 206.991 52.8476 207.992 55.4738 209.909C56.7868 210.889 57.9332 211.847 58.9128 212.785C58.8711 208.45 58.7148 204.084 58.4438 199.686C58.2771 196.976 59.288 194.215 61.4764 191.401C64.0609 188.608 65.7179 186.638 66.4474 185.492C67.1769 184.346 67.9585 182.24 68.7922 179.177C69.5009 176.467 70.1157 174.904 70.6368 174.487Z" fill="#D7A400"/>
<path d="M66.4474 185.492C67.1769 184.345 67.9585 182.24 68.7922 179.176C69.5008 176.467 70.1157 174.904 70.6367 174.487C71.0536 174.174 71.5851 173.935 72.2312 173.768C71.6893 175.56 71.1265 178.301 70.543 181.99C69.8551 185.304 68.6984 188.014 67.0726 190.119C64.2172 193.287 62.925 197.779 63.1959 203.594C63.3418 206.532 64.1859 211.347 65.7283 218.038C64.707 217.767 63.4981 216.995 62.1017 215.724L58.9128 212.598C58.9128 209.45 58.7564 205.146 58.4438 199.686C58.2771 196.976 59.2879 194.214 61.4764 191.401C64.0609 188.608 65.7179 186.638 66.4474 185.492Z" fill="#B08600"/>
<path d="M24.9601 239.36C23.1676 237.817 22.5215 235.264 23.0217 231.7C23.1676 230.845 23.3865 230.053 23.6783 229.324C24.1785 227.99 24.7725 227.292 25.4603 227.229C26.6692 227.125 28.2428 227.688 30.1812 228.918C32.4947 230.397 33.5785 232.106 33.4326 234.045C33.3493 235.004 34.8395 235.41 37.9034 235.264L49.0334 234.107C61.3305 232.711 69.8448 233.096 74.576 235.264L83.0486 238.922C87.1129 240.548 89.8537 241.454 91.271 241.642C90.1664 242.142 89.0304 242.528 87.8632 242.799L84.987 243.018C83.2362 242.788 80.8497 241.673 77.8275 239.672C74.2634 237.296 72.398 236.077 72.2313 236.014C70.9807 235.493 68.8235 235.254 65.7596 235.295L57.631 235.483C55.109 235.483 51.0655 236.004 45.5005 237.046C40.1023 238.047 35.7462 239.068 32.4322 240.11C29.2016 241.131 26.7109 240.881 24.9601 239.36Z" fill="#B08600"/>
<path d="M38.0285 213.504C38.3828 211.899 38.8934 210.659 39.5604 209.784C40.2274 208.909 41.1653 208.252 42.3742 207.814C41.9156 210.336 41.7593 212.629 41.9052 214.692C42.0511 217.048 42.5826 218.382 43.4997 218.694C44.9378 219.174 46.6782 220.049 48.7208 221.32C51.4095 222.946 53.3687 224.593 54.5984 226.26L49.221 226.604C46.1779 226.437 43.7289 225.989 41.8739 225.26C43.458 225.135 44.6981 224.843 45.5944 224.384L46.4385 223.696C43.979 222.925 41.9469 222.342 40.342 221.946C39.0498 221.612 38.2161 220.851 37.8409 219.663C37.4032 218.309 37.4657 216.256 38.0285 213.504Z" fill="#B08600"/>
<path d="M42.3429 209.065C43.6351 209.961 43.8019 211.493 42.8431 213.661C41.926 215.703 41.0402 216.766 40.1857 216.85C38.5183 216.975 36.5591 217.475 34.308 218.35C32.1404 219.205 30.869 219.632 30.4938 219.632C30.2437 215.255 31.859 212.045 35.3398 210.003C36.632 209.252 37.9972 208.794 39.4353 208.627C40.7484 208.481 41.7176 208.627 42.3429 209.065Z" fill="#EEEEEF"/>
<path d="M22.6466 239.547C20.2913 240.86 18.9157 241.559 18.5197 241.642C18.3738 237.619 19.3951 234.451 21.5836 232.138C23.4594 230.158 25.2206 229.491 26.8672 230.137C28.3679 230.72 29.2537 231.929 29.5246 233.763C29.7956 235.472 29.5559 236.452 28.8056 236.702C27.2215 237.202 25.1685 238.151 22.6466 239.547Z" fill="#EEEEEF"/>
<path d="M35.7775 214.098C37.9243 213.202 40.3524 212.869 43.062 213.098C42.7285 214.015 42.2491 214.87 41.6238 215.662C41.0194 216.412 40.54 216.808 40.1857 216.85C38.5183 216.975 36.5591 217.496 34.3081 218.413C32.1196 219.288 30.8482 219.726 30.4938 219.726L30.4313 219.069L30.4001 218.475C31.7965 216.474 33.589 215.015 35.7775 214.098Z" fill="#C8C9CA"/>
<path d="M22.6466 239.547C20.2914 240.86 18.9158 241.559 18.5197 241.642C18.6031 239.683 18.9574 237.838 19.5827 236.108C22.1881 233.545 25.2207 232.033 28.6805 231.575C29.3267 232.471 29.6289 233.524 29.5872 234.733C29.5664 235.879 29.3058 236.535 28.8056 236.702C27.2216 237.202 25.1686 238.151 22.6466 239.547Z" fill="#C8C9CA"/>
<path d="M132.665 88.636L137.323 96.3895C140.324 101.725 141.554 104.768 141.012 105.519C140.658 106.019 138.49 106.957 134.509 108.332C130.716 109.625 128.694 110.729 128.444 111.646C128.319 112.417 128.413 115.148 128.725 119.837C128.996 123.839 128.819 126.247 128.194 127.059C127.339 128.206 126.443 129.154 125.505 129.904C124.484 130.697 123.629 131.093 122.941 131.093C122.233 131.093 120.92 130.405 119.002 129.029C117.126 127.716 115.99 126.716 115.594 126.028L113.781 118.9C112.593 114.648 111.217 112.261 109.654 111.74C108.008 111.177 103.631 110.51 96.5234 109.739L84.2054 108.614C80.3912 108.426 81.3186 102.111 86.9879 89.6677C83.8823 85.2699 80.0368 78.5378 75.4514 69.4712C70.6576 59.9878 68.8547 55.2461 70.0428 55.2461C71.1057 55.2461 76.629 57.8931 86.6127 63.1871L105.809 73.598C109.123 72.7643 112.718 72.7852 116.595 73.6606C118.533 74.0983 120.138 74.6193 121.409 75.2238L132.071 66.9388C137.927 62.5619 140.741 60.9361 140.512 62.0616C140.283 63.2705 137.667 72.1286 132.665 88.636Z" fill="#D7A400"/>
<path d="M113.719 118.931C112.468 114.679 111.061 112.282 109.498 111.74C107.81 111.136 103.443 110.458 96.3983 109.708L84.2053 108.614C82.4337 108.53 81.6209 107.311 81.7668 104.956C81.9752 101.913 83.7468 96.8168 87.0816 89.6677C84.5805 86.1036 81.3395 80.5595 77.3585 73.0353C73.2108 65.2193 70.741 59.8627 69.949 56.9656C71.9916 61.1133 76.8687 65.9175 84.5805 71.3783L92.1151 76.8495C94.3453 78.6837 95.575 80.1947 95.8043 81.3828C95.5333 82.9251 94.3349 86.8644 92.2089 93.2006C90.4998 99.0365 90.2185 102.444 91.3648 103.424C92.4903 104.383 95.971 105.769 101.807 107.582C108.206 109.583 111.613 110.688 112.03 110.896C112.927 111.355 114.386 113.804 116.407 118.243C118.408 122.683 119.794 125.1 120.565 125.496C122.4 126.434 123.577 126.914 124.098 126.934C125.515 126.976 127.1 125.955 128.85 123.871L128.569 125.59C128.444 126.424 128.319 126.914 128.194 127.059C127.339 128.206 126.443 129.154 125.505 129.904C124.484 130.697 123.629 131.093 122.941 131.093C122.233 131.093 120.92 130.405 119.002 129.029C117.126 127.716 115.99 126.716 115.594 126.028L113.719 118.931Z" fill="#B08600"/>
<path d="M129.694 83.8839C128.944 82.6959 129.444 80.7262 131.195 77.975C132.758 75.4947 135.009 72.8581 137.948 70.0652L132.883 88.1045L131.164 86.1349L129.694 83.8839Z" fill="#B08600"/>
<path d="M130.288 96.4207C130.643 96.775 131.049 97.4003 131.508 98.2966C132.029 99.3178 132.289 100.152 132.289 100.798L128.35 103.736L126.318 105.175C126.422 103.987 126.818 102.621 127.506 101.079C128.215 99.495 129.142 97.9422 130.288 96.4207Z" fill="white"/>
<path d="M130.288 96.4207L131.258 97.7651C130.153 98.4529 128.579 100.537 126.537 104.018C127.037 101.183 128.288 98.6509 130.288 96.4207Z" fill="#DBDCDC"/>
<path d="M101.901 93.2006C104.298 94.2219 106.934 96.056 109.81 98.703C112.541 101.267 114.333 103.476 115.188 105.331C108.956 103.393 104.193 101.746 100.9 100.391C100.567 99.4534 100.629 97.9735 101.088 95.9518L101.901 93.2006Z" fill="white"/>
<path d="M101.682 93.7633L101.932 93.2006C104.517 94.3886 107.184 96.254 109.936 98.7968C112.603 101.256 114.354 103.403 115.188 105.237L113.625 104.8C110.123 100.047 105.965 96.9001 101.15 95.3578L101.682 93.7633Z" fill="#DBDCDC"/>
<path d="M118.158 82.8522L120.315 86.1036L123.598 87.3854L122.129 89.0112L123.223 93.013L119.221 91.0121L115.438 93.732L115.594 90.1054C114.99 89.3759 113.969 88.5318 112.53 87.573L116.47 86.1662L118.158 82.8522Z" fill="#ED8599"/>
<path d="M113.969 110.958L114.969 114.304C106.299 119.806 99.0037 128.967 93.0843 141.785C91.0001 146.328 89.3118 150.841 88.0196 155.322C86.9358 159.095 86.4251 161.658 86.4876 163.013C85.383 160.053 84.9453 156.333 85.1746 151.852L85.8311 146.005L84.5493 147.412C83.5071 148.621 82.5796 149.913 81.7668 151.289C82.7047 141.493 87.5298 132.343 96.242 123.839C101.453 118.774 107.362 114.481 113.969 110.958Z" fill="#D7A400"/>
<path d="M84.643 143.692C84.6847 144.067 85.4038 143.681 86.8002 142.535C88.1342 141.472 88.7282 141.149 88.5823 141.566C87.0191 146.235 86.1854 150.195 86.0812 153.446C86.0395 155.405 86.1124 158.574 86.3 162.951C85.1328 160.158 84.7055 156.489 85.0182 151.946L85.831 146.005L84.518 147.319C83.4967 148.486 82.6213 149.768 81.8918 151.164C82.267 147.329 83.2153 143.661 84.7368 140.159C86.0707 137.095 87.9257 133.99 90.3018 130.842C89.2597 132.635 88.0508 135.084 86.6752 138.189C85.2996 141.337 84.6222 143.171 84.643 143.692Z" fill="#B08600"/>
<path d="M128.444 111.959L128.913 111.084C135.582 113.668 141.356 117.639 146.233 122.995C151.84 129.144 154.393 135.365 153.893 141.66C153.518 140.513 152.892 138.992 152.017 137.095L151.11 135.126C151.402 136.001 151.538 137.45 151.517 139.471C151.454 142.598 150.829 145.286 149.641 147.537C148.765 141.285 147.161 135.74 144.826 130.905C141.074 123.047 135.655 117.43 128.569 114.054L128.444 111.959Z" fill="#D7A400"/>
<path d="M153.205 134.594C153.872 136.949 154.101 139.305 153.893 141.66C153.518 140.513 152.892 138.992 152.017 137.095L150.829 134.563L151.517 138.158C151.704 141.18 151.089 144.255 149.672 147.381C148.818 142.942 148.078 139.69 147.452 137.627C145.973 132.749 143.94 128.518 141.356 124.934C142.711 126.372 144.472 128.883 146.64 132.468C148.64 135.803 149.703 137.512 149.828 137.595C150.12 137.783 150.193 137.074 150.047 135.469L149.672 131.468L151.392 133.093L153.205 134.594Z" fill="#B08600"/>
<path d="M101.432 9.85079C101.244 9.55899 101.192 9.21509 101.275 8.81908C101.38 8.31885 101.651 7.79779 102.088 7.25588C102.526 6.71397 103.068 6.24501 103.714 5.849C104.673 5.24456 105.621 4.89024 106.559 4.78602C107.476 4.70265 108.101 4.91108 108.435 5.4113C108.623 5.68226 108.664 6.02616 108.56 6.44301C108.477 6.94324 108.216 7.4643 107.778 8.00621L106.121 9.41309C105.183 10.0175 104.246 10.3719 103.308 10.4761C102.391 10.5594 101.765 10.351 101.432 9.85079Z" fill="#E4EEEE"/>
<path d="M126.849 212.129C127.871 211.107 129.413 209.982 131.477 208.752L131.57 210.315L128.663 212.097C127.725 212.723 127.277 213.181 127.318 213.473C127.36 213.681 128.215 213.775 129.882 213.754L132.852 213.723L133.008 214.911H127.756C125.422 214.786 125.119 213.859 126.849 212.129Z" fill="#0D131A"/>
<path d="M145.608 183.772L146.921 184.022C146.754 184.252 146.556 184.679 146.327 185.304C146.118 185.95 145.973 186.534 145.889 187.055C145.681 188.868 145.337 190.171 144.858 190.963C144.378 191.776 144.191 192.61 144.295 193.464C144.378 194.319 144.753 195.309 145.42 196.434C146.212 197.726 146.41 199.165 146.014 200.749C145.535 202.75 144.128 204.615 141.794 206.345L139.449 207.783C138.969 207.95 139.022 207.648 139.605 206.876C136.145 206.814 134.249 206.96 133.915 207.314C132.998 208.335 132.404 209.18 132.133 209.846C131.841 210.638 131.925 211.378 132.383 212.066L132.915 212.942C133.519 214.005 134.155 214.682 134.822 214.974C135.864 215.432 137.563 215.453 139.918 215.036C143.003 214.494 145.754 214.223 148.171 214.223L155.206 214.911C158.145 215.391 160.479 215.922 162.209 216.506C164.564 217.277 166.169 218.236 167.024 219.382L167.774 220.414C168.649 221.706 169.379 222.56 169.962 222.977C170.921 223.686 172.13 224.009 173.589 223.947C174.694 223.884 175.705 223.623 176.622 223.165L177.56 223.696C173.537 226.489 169.942 225.624 166.774 221.102L166.054 220.07C165.325 219.09 163.814 218.236 161.521 217.506C159.916 217.006 157.749 216.527 155.018 216.068L148.14 215.411C145.827 215.391 143.148 215.651 140.105 216.193C137.354 216.672 135.343 216.662 134.071 216.162C133.175 215.828 132.404 215.099 131.758 213.973C131.258 213.286 130.851 212.441 130.539 211.441C130.33 210.753 130.434 209.919 130.851 208.94C131.226 208.106 131.747 207.325 132.414 206.595C133.061 205.886 134.791 205.553 137.604 205.595L139.855 205.563C140.626 205.501 141.22 205.355 141.637 205.126C143.951 203.125 145.108 201.218 145.108 199.404C145.108 198.591 144.878 197.799 144.42 197.028L143.169 195.152C142.794 194.548 142.606 193.996 142.606 193.495C142.606 192.349 142.805 191.432 143.201 190.744C144.097 189.223 144.607 187.941 144.732 186.899C144.962 185.273 145.254 184.231 145.608 183.772Z" fill="#0D131A"/>
<path d="M180.311 218.038C181.374 218.955 182.395 219.246 183.375 218.913C183.854 218.746 184.25 218.475 184.563 218.1L186.251 218.507C185.813 219.007 185.292 219.413 184.688 219.726L180.749 219.601L180.436 218.632L180.311 218.038Z" fill="#0D131A"/>
<path d="M160.833 174.987C161.396 175.112 162.47 175.685 164.054 176.707C165.7 177.749 166.763 178.562 167.243 179.145C167.472 179.479 167.586 179.843 167.586 180.239C167.586 181.282 166.992 182.876 165.804 185.023L165.117 186.242C164.95 186.596 164.866 187.086 164.866 187.712L164.929 189.025L165.085 189.994L165.242 190.963C165.242 191.963 165.117 192.745 164.866 193.308C164.491 194.121 163.272 195.757 161.209 198.216C159.791 199.863 158.78 201.374 158.176 202.75C157.863 203.437 157.697 203.969 157.676 204.344L159.301 204.532L160.396 204.625L164.366 204.438L168.087 204.25L171.619 204.625C172.516 204.876 174.235 205.522 176.778 206.564C179.258 207.564 181.134 208.387 182.406 209.034C184.49 210.076 186.053 211.337 187.095 212.817L186.189 212.691L185.313 212.629C184.604 211.837 183.302 210.962 181.405 210.003C180.05 209.357 178.279 208.565 176.09 207.627C173.714 206.605 172.12 205.98 171.307 205.751C170.431 205.522 169.327 205.407 167.993 205.407L164.491 205.626L160.333 205.782L157.519 205.563L157.488 206.001L157.207 206.658C156.936 206.866 156.717 206.532 156.55 205.657C156.363 204.677 156.519 203.635 157.019 202.531C157.415 201.718 158.478 200.061 160.208 197.56C162.021 194.975 163.116 193.287 163.491 192.495C163.824 191.765 163.908 190.64 163.741 189.118C163.616 187.534 163.72 186.398 164.054 185.711L164.741 184.429C166.096 181.99 166.617 180.573 166.305 180.177C165.929 179.698 164.939 178.979 163.335 178.02C161.813 177.124 160.813 176.613 160.333 176.488C159.729 176.321 158.801 176.79 157.551 177.895L157.457 176.269C158.707 175.164 159.833 174.737 160.833 174.987Z" fill="#0D131A"/>
<path d="M159.145 207.877C158.916 207.668 158.853 207.491 158.958 207.345C159.062 207.199 159.249 207.199 159.52 207.345L162.897 208.221L167.43 208.533C168.222 208.367 169.493 208.867 171.244 210.034L174.871 212.692L178.216 215.224C179.154 215.828 179.8 216.339 180.155 216.756C180.613 217.277 180.811 217.881 180.749 218.569L179.529 218.6C179.571 218.1 179.352 217.6 178.873 217.1C178.498 216.704 177.872 216.235 176.997 215.693L174.121 213.598C170.473 210.743 168.118 209.419 167.055 209.628L162.647 209.378C160.938 208.961 159.77 208.46 159.145 207.877Z" fill="#0D131A"/>
<path d="M175.871 219.163C175.038 219.934 174.683 220.799 174.808 221.758L179.06 224.165C181.353 225.52 182.583 226.166 182.749 226.104C183.104 225.895 182.77 224.666 181.749 222.415C180.686 220.08 179.675 218.746 178.716 218.413C177.758 218.079 176.809 218.329 175.871 219.163ZM175.058 218.663C175.642 218.121 176.299 217.725 177.028 217.475L179.06 217.412C180.144 217.788 181.124 218.788 181.999 220.414C182.812 221.914 183.354 223.603 183.625 225.478C183.729 226.437 183.698 227.01 183.531 227.198C183.281 227.448 182.739 227.271 181.905 226.666L178.404 224.572C177.049 223.863 175.85 223.311 174.808 222.915L174.433 222.946C174.141 222.904 173.933 222.665 173.808 222.227C173.662 221.685 173.683 221.101 173.87 220.476C174.1 219.768 174.496 219.163 175.058 218.663Z" fill="#0D131A"/>
<path d="M189.502 216.599C188.085 214.411 186.949 213.233 186.095 213.067L184.688 213.254C184.208 213.463 183.781 213.786 183.406 214.223C182.864 214.89 182.593 215.578 182.593 216.287L182.718 216.943C183.093 217.027 184.625 217.631 187.314 218.757C189.752 219.778 191.045 220.237 191.191 220.132C191.42 219.903 190.857 218.725 189.502 216.599ZM182.437 213.817C182.958 213.192 183.562 212.712 184.25 212.379C184.98 212.025 185.657 211.91 186.282 212.035C187.345 212.243 188.377 213.015 189.377 214.348C190.253 215.516 191.013 216.975 191.66 218.725C192.243 220.101 192.368 220.893 192.035 221.102C191.785 221.247 191.128 221.081 190.065 220.601C187.543 219.434 185.042 218.58 182.562 218.038C182.228 218.246 181.968 218.09 181.78 217.569C181.613 217.068 181.561 216.495 181.624 215.849C181.707 215.036 181.978 214.359 182.437 213.817Z" fill="#0D131A"/>
<path d="M64.4465 122.307L65.1656 123.683C62.2893 122.412 58.9649 121.651 55.1924 121.401C51.1072 121.13 47.095 121.505 43.1557 122.526C33.4847 125.027 26.294 130.686 21.5836 139.502C17.5818 146.964 15.9769 154.603 16.7689 162.419C17.4359 168.734 19.4889 174.383 22.9279 179.364C24.1368 181.136 24.7412 182.209 24.7412 182.584C24.7412 182.918 24.2931 182.595 23.3969 181.615L21.0521 178.833L19.9579 177.394C17.9986 178.478 15.7476 178.895 13.2048 178.645C9.64074 178.27 6.27465 176.519 3.10657 173.393L2.0436 172.517C1.81433 172.538 1.63716 173.143 1.51211 174.331C1.19947 177.082 1.35579 179.77 1.98107 182.397C2.5855 184.939 3.58595 187.253 4.98241 189.337C6.71235 191.922 8.77577 194.048 11.1727 195.715C14.6117 198.112 18.4885 199.31 22.8029 199.31C29.8269 199.31 35.8608 197.831 40.9047 194.871C44.4897 192.766 46.8449 190.567 47.9704 188.274C43.5309 184.064 40.863 177.968 39.9668 169.985C39.008 161.564 40.467 153.988 44.3438 147.256C45.1149 145.922 45.6256 145.286 45.8757 145.349C46.1467 145.391 45.8132 146.256 44.8752 147.944C43.3537 150.716 42.2491 154.009 41.5613 157.823C40.7067 162.596 40.6963 167.442 41.53 172.361C42.3429 177.238 44.3021 181.678 47.4076 185.679C50.2214 189.327 53.8897 192.505 58.4126 195.215L57.9749 196.809C54.5567 194.433 51.4615 191.88 48.6895 189.15C46.4384 192.651 43.1974 195.382 38.9664 197.341C34.4018 199.446 29.014 200.488 22.8029 200.467C15.2995 200.426 9.36979 197.57 5.01367 191.901C0.907671 186.544 -0.676371 180.312 0.261549 173.205C0.532503 171.162 0.865986 170.141 1.262 170.141C1.55379 170.141 2.63761 170.975 4.51345 172.642C6.91036 174.789 9.69285 176.133 12.8609 176.675C15.5705 177.134 17.6964 176.946 19.2388 176.113C16.3833 170.944 14.9244 165.233 14.8618 158.98C14.7785 151.977 16.498 145.193 20.0204 138.627C24.314 130.624 31.0983 125.069 40.3732 121.963C49.1688 119.004 57.1933 119.118 64.4465 122.307Z" fill="#0D131A"/>
<path d="M80.5162 204.563C80.9747 203.958 81.131 203.417 80.9851 202.937C91.2189 204.396 100.525 203.344 108.904 199.779C118.45 195.715 125.818 188.712 131.008 178.77L132.039 179.302C126.433 190.036 118.908 197.466 109.467 201.593C101.109 205.24 91.4586 206.23 80.5162 204.563Z" fill="#0D131A"/>
<path d="M60.0383 134.813C65.5199 130.624 70.6889 128.268 75.5452 127.747L75.639 128.623C70.9911 129.102 66.0097 131.489 60.6949 135.782C54.9423 140.43 50.6174 145.964 47.7203 152.383C45.1983 157.927 44.0833 163.597 44.3751 169.391C44.7294 177.019 47.5119 184.512 52.7225 191.87C51.6596 191.328 50.9926 190.848 50.7216 190.432C46.0529 183.22 43.5726 175.852 43.2808 168.328C43.0515 162.429 44.1354 156.823 46.5323 151.508C49.4502 145.026 53.9523 139.461 60.0383 134.813Z" fill="#0D131A"/>
<path d="M80.1723 138.189L81.3916 138.971C77.4732 140.034 73.586 142.222 69.7301 145.536C65.3532 149.288 61.935 153.79 59.4755 159.042C57.2662 163.69 56.0365 168.568 55.7864 173.674C55.4321 180.365 56.7973 187.138 59.882 193.996L59.1004 194.339C55.9531 187.316 54.4837 180.448 54.6921 173.737C54.8797 168.484 56.0678 163.534 58.2562 158.886C60.799 153.467 64.2068 148.84 68.4796 145.005C72.3563 141.545 76.2539 139.273 80.1723 138.189Z" fill="#0D131A"/>
<path d="M152.955 144.911C153.664 146.37 154.362 147.506 155.05 148.319L154.581 148.6C154.33 148.705 154.164 148.798 154.08 148.882L152.83 147.068L152.048 145.349L151.11 143.473L151.579 141.566L152.955 144.911Z" fill="#0D131A"/>
<path d="M148.328 152.977L148.578 153.853L148.109 155.197L147.39 153.259C146.494 150.341 143.523 147.496 138.48 144.724L138.98 143.942C142.294 145.755 144.618 147.35 145.952 148.725C146.994 149.83 147.786 151.247 148.328 152.977Z" fill="#0D131A"/>
<path d="M149.547 115.804C150.402 116.805 150.923 118.306 151.11 120.306C151.319 122.266 151.246 125.121 150.891 128.873C150.224 127.81 149.766 127.185 149.516 126.997C149.808 124.1 149.828 121.734 149.578 119.9C149.37 118.316 148.984 117.232 148.422 116.649C147.129 115.294 145.024 114.231 142.106 113.46C139.105 112.668 135.541 112.251 131.414 112.209C130.205 111.688 129.465 111.302 129.194 111.052C135.009 111.219 139.532 111.678 142.763 112.428C146.014 113.178 148.276 114.304 149.547 115.804Z" fill="#0D131A"/>
<path d="M145.545 142.504C146.4 141.858 147.129 140.868 147.734 139.534L148.265 141.535C147.786 142.285 147.244 142.889 146.64 143.348C145.722 144.036 144.597 144.484 143.263 144.692L139.011 144.473L139.98 143.317L143.2 143.598C143.993 143.473 144.774 143.108 145.545 142.504Z" fill="#0D131A"/>
<path d="M191.034 124.027C192.181 124.548 193.16 125.371 193.973 126.497C195.057 127.956 195.484 129.581 195.255 131.374C195.151 132.374 194.828 133.198 194.286 133.844L194.004 131.687L194.098 131.249C194.286 129.748 193.921 128.383 193.004 127.153C192.316 126.215 191.493 125.528 190.534 125.09C189.763 124.735 188.45 124.756 186.595 125.152C184.552 125.569 183.26 126.267 182.718 127.247L181.936 128.81C180.894 130.957 179.696 132.708 178.341 134.063C176.736 135.667 175.444 136.605 174.464 136.876C173.401 137.21 172.589 136.876 172.026 135.876C171.713 135.355 171.536 134.698 171.494 133.906L171.526 131.843L171.557 131.499C171.598 130.999 171.359 130.54 170.838 130.123C170.4 129.769 169.785 129.508 168.993 129.342L169.712 128.279C170.442 128.508 171.057 128.81 171.557 129.185C172.349 129.811 172.745 130.561 172.745 131.436L172.682 133.25C172.682 134.271 172.87 135.021 173.245 135.501C173.579 135.938 173.922 136.095 174.277 135.97L175.215 135.313C176.215 134.521 177.174 133.594 178.091 132.531C179.112 131.363 179.883 130.269 180.405 129.248L181.968 126.153C182.656 124.881 184.146 124.079 186.438 123.745C188.419 123.433 189.95 123.527 191.034 124.027Z" fill="#0D131A"/>
<path d="M168.806 124.715C170.119 124.256 170.65 124.735 170.4 126.153L169.306 131.624L169.587 131.749C169.671 131.916 169.473 132.176 168.993 132.531C168.014 133.239 167.013 133.771 165.992 134.125C164.408 134.646 163.095 134.573 162.053 133.906C161.49 133.51 161.292 132.937 161.459 132.187C161.667 131.186 162.49 129.884 163.929 128.279C165.554 126.465 167.18 125.277 168.806 124.715ZM169.087 128.216C169.483 126.507 169.608 125.642 169.462 125.621C168.712 125.455 167.399 126.278 165.523 128.091C163.668 129.884 162.626 131.322 162.397 132.406L162.365 132.656C162.365 132.864 162.438 133 162.584 133.062C163.23 133.479 164.21 133.489 165.523 133.093C166.461 132.802 167.378 132.374 168.274 131.812L169.087 128.216Z" fill="#0D131A"/>
<path d="M193.848 132.656C193.744 132.176 193.233 131.77 192.316 131.436L190.159 131.061L188.627 131.249L189.315 135C189.669 136.96 189.898 137.96 190.003 138.002C190.482 138.106 191.264 137.439 192.347 136.001C193.473 134.542 193.973 133.427 193.848 132.656ZM190.034 130.248C190.868 130.228 191.701 130.363 192.535 130.655C193.765 131.072 194.442 131.707 194.567 132.562C194.692 133.271 194.453 134.156 193.848 135.219C193.223 136.366 192.431 137.251 191.472 137.877C190.597 138.46 190.013 138.7 189.721 138.596C189.471 138.512 189.273 138.054 189.127 137.22L187.939 131.436L187.283 131.343C187.241 131.218 187.429 131.04 187.845 130.811C188.429 130.457 189.158 130.269 190.034 130.248Z" fill="#0D131A"/>
<path d="M196.662 153.79C196.182 153.477 195.578 153.332 194.849 153.352C194.14 153.373 193.546 153.54 193.066 153.853C193.171 154.895 193.15 156.239 193.004 157.886C192.9 159.199 192.889 159.887 192.973 159.949C193.223 160.095 193.952 159.636 195.161 158.574C196.433 157.448 197.183 156.448 197.412 155.572C197.516 155.114 197.516 154.77 197.412 154.54C197.329 154.29 197.079 154.04 196.662 153.79ZM192.191 153.259C192.983 152.758 193.827 152.477 194.723 152.415C195.641 152.331 196.464 152.508 197.193 152.946C198.152 153.55 198.496 154.468 198.225 155.697C197.912 157.24 196.589 158.73 194.255 160.168C193.442 160.668 192.9 160.856 192.629 160.731C192.358 160.606 192.254 160.105 192.316 159.23L192.222 155.697L192.035 153.759L191.878 153.634C191.837 153.53 191.941 153.405 192.191 153.259Z" fill="#0D131A"/>
<path d="M153.518 172.08C154.956 173.205 156.123 173.914 157.019 174.206C157.707 174.456 158.145 174.945 158.332 175.675C158.541 176.592 158.238 177.853 157.426 179.458C156.8 180.688 156.206 181.594 155.644 182.178C154.956 182.845 153.393 183.439 150.954 183.96L144.545 183.772C143.065 183.064 140.668 182.188 137.354 181.146C133.998 180.083 131.529 179.437 129.945 179.208C127.944 178.916 126.485 178.082 125.568 176.707L126.537 176.05C127.162 176.967 128.444 177.572 130.382 177.863C131.966 178.093 134.457 178.78 137.854 179.927C141.002 180.99 143.409 181.917 145.076 182.709C146.306 183.314 148.213 183.324 150.798 182.741C153.007 182.261 154.341 181.792 154.799 181.334C155.237 180.896 155.748 180.114 156.331 178.989C157.04 177.613 157.321 176.592 157.175 175.925C157.113 175.654 156.925 175.456 156.613 175.331C155.758 175.039 154.539 174.247 152.955 172.955L147.984 168.672C143.961 165.191 140.783 162.784 138.448 161.45C136.427 160.283 134.582 159.699 132.915 159.699V158.511C135.082 158.511 137.198 159.042 139.261 160.105C142.033 161.544 145.201 164.107 148.765 167.796C150.454 169.505 152.038 170.933 153.518 172.08Z" fill="#0D131A"/>
<path d="M79.2344 136.282C80.2765 137.783 81.9127 139.367 84.1428 141.034C84.122 141.535 83.9865 142.024 83.7364 142.504C81.0894 140.753 79.2031 139.075 78.0776 137.47C77.5565 136.72 76.9521 135.094 76.2643 132.593C75.4723 129.717 74.9304 127.945 74.6386 127.278C74.4301 126.82 74.6907 126.674 75.4202 126.841C76.1288 127.007 76.5665 127.414 76.7333 128.06L77.765 132.468C78.2027 134.24 78.6925 135.511 79.2344 136.282Z" fill="#0D131A"/>
<path d="M97.1173 149.757C97.8885 150.674 98.5242 151.352 99.0244 151.789C99.8581 152.498 100.838 153.102 101.963 153.603L101.557 154.228C99.2016 153.165 97.4195 151.935 96.2106 150.539L94.3973 148.569C93.6053 147.84 92.6882 147.183 91.6461 146.599L91.5523 145.224C92.8654 145.912 94.0117 146.683 94.9913 147.537L97.1173 149.757Z" fill="#0D131A"/>
<path d="M141.512 125.277C144.097 132.614 144.503 137.689 142.732 140.503L137.26 146.287C133.926 149.684 132.029 151.758 131.57 152.508L131.226 151.758C131.497 151.383 133.134 149.601 136.135 146.412C139.157 143.202 141.054 141.045 141.825 139.94C142.763 138.565 143.086 136.803 142.794 134.657C142.607 133.281 141.7 129.456 140.074 123.183L140.762 124.089L141.512 125.277Z" fill="#0D131A"/>
<path d="M59.4756 115.179C57.4538 110.219 56.3492 105.925 56.1616 102.298C56.0574 100.297 57.3496 98.0778 60.0383 95.6392L60.8199 96.5458C59.0275 98.2758 58.1312 99.9536 58.1312 101.579V101.798C58.3397 105.8 59.3297 110.166 61.1013 114.898C63.2898 120.838 65.8743 124.225 68.8548 125.059L76.7958 126.903C79.5887 127.487 81.2666 127.924 81.8293 128.216C82.142 128.383 82.934 128.049 84.2054 127.216C85.6227 126.299 87.0191 125.152 88.3948 123.777C92.209 119.963 94.0848 116.18 94.0223 112.428L93.7409 109.458L94.9602 109.708C95.8147 114.814 93.8243 119.754 88.9888 124.527C87.3422 126.153 85.6018 127.518 83.7677 128.623C82.142 129.602 81.2353 129.977 81.0477 129.748C80.9435 129.644 80.9852 129.467 81.1728 129.217C80.3182 128.904 78.7759 128.518 76.5457 128.06C73.8362 127.539 71.1683 126.914 68.5421 126.184C65.0823 125.225 62.0601 121.557 59.4756 115.179Z" fill="#0D131A"/>
<path d="M69.3237 91.3247L68.1357 91.8249L67.5104 90.8245L68.8547 90.2305C70.1261 89.7094 72.1687 89.8345 74.9825 90.6056C76.8166 91.1059 79.2239 91.9708 82.2044 93.2006L84.0803 93.7633L85.4872 94.0759L84.7994 95.6391L81.4541 94.3261C78.5361 93.1172 76.3268 92.2939 74.8261 91.8562C72.2208 91.0642 70.3867 90.887 69.3237 91.3247Z" fill="#0D131A"/>
<path d="M62.8207 102.861C62.4456 103.57 62.3622 104.174 62.5706 104.674L64.1338 107.176C64.6966 108.364 64.9988 109.708 65.0405 111.209C65.0613 112.438 64.9363 113.366 64.6653 113.991C64.4569 114.47 64.2902 114.679 64.1651 114.616C64.0609 114.575 64.0192 114.345 64.04 113.929C64.1443 111.219 63.8316 109.062 63.1021 107.457L61.4764 104.581C61.1638 103.83 61.268 103.007 61.789 102.111C62.0391 101.631 62.529 101.027 63.2584 100.297C63.3835 100.714 63.6128 101.079 63.9462 101.392C63.4877 101.871 63.1125 102.361 62.8207 102.861Z" fill="#0D131A"/>
<path d="M75.0137 95.2952C74.6594 95.0868 74.253 95.0139 73.7944 95.0764C73.3567 95.1598 72.5647 95.5037 71.4184 96.1081C71.2933 95.6496 71.1683 95.3474 71.0432 95.2015C72.2312 94.6596 73.0858 94.3261 73.6069 94.201C74.5656 94.0134 75.5661 94.4303 76.6082 95.4516L79.1718 97.9527C79.818 98.3695 80.1098 98.6405 80.0472 98.7656C79.9639 98.8698 79.5991 98.7551 78.953 98.4216L77.3585 97.3274L76.2956 96.327L75.0137 95.2952Z" fill="#0D131A"/>
<path d="M61.7578 82.1956L62.3831 80.8826C63.3418 81.5287 64.1651 82.873 64.8529 84.9156L65.7283 87.1354C66.2077 88.0733 67.4166 89.8241 69.3549 92.3877L73.0441 97.046C73.6902 97.8172 73.7632 98.7551 73.2629 99.8598C72.8044 100.839 72.1479 101.673 71.2933 102.361C70.2929 103.153 69.1986 103.57 68.0106 103.611C67.0518 103.653 66.1347 103.434 65.2594 102.955C64.3214 102.476 63.6128 101.798 63.1334 100.923C62.1746 99.1511 61.0596 97.4525 59.7882 95.8267C58.5168 94.2219 57.287 92.9609 56.099 92.0438L55.0673 91.2622C53.1498 90.0116 51.8263 88.9278 51.0968 88.0108C50.1797 86.8436 49.94 85.6868 50.3777 84.5404L51.4719 84.9469C51.201 85.6764 51.5553 86.5622 52.5349 87.6043C53.0977 88.2088 54.1815 89.1154 55.7864 90.3243L56.8181 91.1059C58.0895 92.0855 59.3817 93.409 60.6948 95.0764C62.0079 96.723 63.1751 98.4842 64.1964 100.36C64.9676 101.798 66.0722 102.486 67.5104 102.423C68.4691 102.403 69.4175 102.069 70.3554 101.423C71.2308 100.819 71.8352 100.141 72.1687 99.3908C72.5022 98.7447 72.4813 98.2132 72.1062 97.7964C68.0419 92.7941 65.5616 89.4176 64.6653 87.6668L63.7274 85.2908C63.2272 83.811 62.5707 82.7792 61.7578 82.1956Z" fill="#0D131A"/>
<path d="M61.0387 82.2269L61.6952 82.1018C61.7994 82.7271 61.5598 83.5712 60.9762 84.6342C60.3092 85.8014 59.4963 86.6455 58.5376 87.1666C57.7664 87.5834 56.9223 87.7189 56.0052 87.573C54.8588 87.4063 53.7646 86.8227 52.7225 85.8222C52.9517 85.718 53.1706 85.6034 53.379 85.4783C54.8588 86.9373 56.422 87.2187 58.0686 86.3225C58.944 85.8639 59.6943 85.1344 60.3196 84.134C60.8824 83.2794 61.1221 82.6437 61.0387 82.2269Z" fill="#0D131A"/>
<path d="M66.2911 53.7141L67.5729 51.1505L69.1674 47.899C69.5634 46.8986 69.6989 46.1482 69.5738 45.648L70.6993 45.3354C70.8869 46.044 70.7723 46.9507 70.3554 48.0553L68.6359 51.7132L67.3228 54.2456C66.3224 56.3299 65.3011 59.3312 64.2589 63.2496C63.1751 67.439 62.7166 70.3674 62.8833 72.0348L63.0084 73.2229C63.3002 75.8699 63.3627 77.8082 63.196 79.038C62.925 81.1639 62.0392 82.6542 60.5385 83.5087L59.413 84.1652C57.1829 85.4992 55.4529 86.2495 54.2232 86.4162C52.0764 86.708 50.2839 85.8014 48.8458 83.6963C47.3868 81.5287 46.4697 78.4544 46.0946 74.4734C45.8028 71.1803 45.8966 67.6579 46.3759 63.9062L49.5023 45.2103L50.7842 46.4296L48.0017 63.8437C47.4181 68.304 47.293 72.1911 47.6265 75.5051C47.9391 78.8191 48.6791 81.3306 49.8462 83.0397C51.0134 84.7697 52.4307 85.52 54.0981 85.2907C55.1194 85.1448 56.6931 84.4362 58.819 83.1648L59.9445 82.477C61.1534 81.7892 61.862 80.4969 62.0705 78.6003C62.1747 77.5164 62.0913 75.7657 61.8204 73.3479L61.6953 72.1599C61.5286 70.3674 61.9975 67.3244 63.1022 63.0308C64.1651 59.0082 65.2281 55.9026 66.2911 53.7141Z" fill="#0D131A"/>
<path d="M102.307 27.8276C103.037 28.1402 103.422 28.3903 103.464 28.5779C103.485 28.7863 103.203 29.0886 102.62 29.4846C101.87 29.9848 99.1287 31.0061 94.3974 32.5484L95.0227 31.0165L99.5247 29.6409C100.963 29.2032 101.682 28.901 101.682 28.7342C101.682 28.4424 100.661 28.0568 98.618 27.5775C96.9089 27.1606 95.4917 26.8896 94.3661 26.7646L94.4912 25.7954L97.6176 26.452C99.8269 26.973 101.39 27.4316 102.307 27.8276Z" fill="#0D131A"/>
<path d="M83.2049 26.1081L86.2375 24.8262C87.488 24.2218 89.02 23.93 90.8333 23.9508C92.855 23.9717 94.1577 24.4615 94.7413 25.4202C95.2206 26.1914 95.5854 27.0772 95.8355 28.0777C96.169 29.3699 96.2107 30.5267 95.9606 31.548C95.6479 32.9028 95.0852 33.8198 94.2723 34.2992C93.8971 34.5285 91.8754 34.9349 88.2071 35.5185C84.372 36.123 82.0793 36.5815 81.329 36.8941C79.8283 37.5403 78.2443 38.9263 76.5769 41.0522L74.5135 44.0536C73.8673 44.9915 72.9398 45.648 71.731 46.0232L68.4795 46.5547L66.5411 46.8048C65.8533 46.9299 64.8425 47.4509 63.5085 48.368C60.6739 50.4106 58.079 51.0567 55.7238 50.3064L54.6921 49.9937C52.5036 49.3268 50.8571 48.4618 49.7524 47.3988C48.3559 46.0649 47.4805 44.137 47.1262 41.615L48.2517 41.2086C49.2105 43.8347 50.2943 45.6585 51.5032 46.6798C52.2952 47.3467 53.7854 48.0137 55.9739 48.6806L57.0056 48.9933C58.1103 49.3476 59.1733 49.3372 60.1946 48.962L62.8207 47.4301C63.5502 46.909 64.1026 46.5443 64.4777 46.3358C65.1239 45.9815 65.7387 45.7523 66.3223 45.648L68.3545 45.3667L70.8556 44.8977C71.5851 44.6059 72.2312 44.0744 72.7939 43.3032C75.6702 39.1972 78.2443 36.717 80.5161 35.8624C81.1623 35.6331 82.1836 35.3726 83.58 35.0808L87.363 34.4555L90.8645 33.9553L93.3031 33.2362C93.9492 32.8611 94.3765 32.2358 94.5849 31.3604C94.7934 30.5059 94.7934 29.5158 94.5849 28.3903C94.3974 27.4107 94.116 26.6187 93.7408 26.0143C93.3865 25.4307 92.386 25.1285 90.7395 25.1076C89.1346 25.1076 87.7902 25.3681 86.7064 25.8892L83.3299 27.2961C82.0377 27.6504 80.9538 27.64 80.0785 27.2648L80.5161 26.2018L83.2049 26.1081Z" fill="#0D131A"/>
<path d="M55.1298 37.4256L55.036 38.7075C45.7194 42.9385 40.1857 45.325 38.4349 45.8669C35.8087 46.7006 34.1309 46.2838 33.4014 44.6163C33.1721 44.0536 33.0575 43.4804 33.0575 42.8968C33.0575 41.688 33.3701 40.4374 33.9954 39.1451C34.6832 37.7487 35.5377 36.7378 36.559 36.1125C37.7471 35.4039 39.3936 34.7473 41.4987 34.1429L47.4389 32.6422L53.0039 31.1416L53.5354 32.142L47.7203 33.7052L42.1553 35.2372C40.3003 35.8416 38.7892 36.4877 37.622 37.1755C36.7049 37.7383 35.9546 38.5616 35.371 39.6454C34.8291 40.6458 34.5581 41.615 34.5581 42.5529C34.5581 43.0532 34.6311 43.4596 34.777 43.7722C35.298 44.9603 36.5903 45.2312 38.6537 44.5851C40.3628 44.0432 45.8549 41.6567 55.1298 37.4256Z" fill="#0D131A"/>
<path d="M70.2303 31.7981L64.6966 34.2679L64.7279 33.0486L70.3241 30.5163C70.2616 30.954 70.2303 31.3812 70.2303 31.7981Z" fill="#0D131A"/>
<path d="M128.663 4.50464C129.955 6.13037 130.236 8.12084 129.507 10.4761C128.861 12.5186 127.506 14.5404 125.443 16.5413C122.462 19.3759 118.46 21.5852 113.437 23.1692C110.811 23.9821 108.331 24.3156 105.996 24.1697C104.371 24.0655 102.641 23.6903 100.807 23.0442L97.899 21.9187C96.8152 21.606 95.7105 21.606 94.585 21.9187C93.1052 22.3355 90.9688 23.1171 88.1759 24.2635L79.7346 27.8276L80.0785 26.2331C86.7065 23.4193 91.4378 21.6165 94.2724 20.8244L98.2429 20.5743C99.0557 20.6994 100.192 21.012 101.651 21.5122C103.568 22.1584 105.121 22.5335 106.309 22.6378C108.289 22.8253 110.488 22.5335 112.906 21.7624C117.845 20.22 121.649 18.2087 124.317 15.7284C126.047 14.1235 127.172 12.477 127.694 10.7887C127.985 9.8091 128.079 8.8816 127.975 8.00621C127.871 7.13082 127.568 6.38048 127.068 5.7552C125.026 3.17071 121.628 1.71173 116.876 1.37824C112.145 1.04476 107.643 1.96184 103.37 4.12948C101.369 5.12992 99.556 6.81818 97.9302 9.19424C97.7218 9.50688 96.836 11.0492 95.2728 13.8213L94.116 15.916C93.6992 16.4787 93.0843 16.979 92.2715 17.4167C90.6249 18.3129 86.5189 20.0428 79.9535 22.6065L79.4845 21.5748L87.8945 18.3233C90.083 17.4688 91.5003 16.8331 92.1464 16.4162C92.7717 16.0202 93.2719 15.3324 93.6471 14.3528L94.5225 11.9142C95.2728 10.2885 96.0231 8.95455 96.7735 7.91242C98.295 5.82815 100.129 4.24411 102.276 3.16029C106.57 0.992656 111.363 -0.0598983 116.657 0.00262968C122.368 0.0860003 126.37 1.58667 128.663 4.50464Z" fill="#0D131A"/>
<path d="M63.3523 27.64L69.6364 25.3265L70.1366 26.3269L63.6649 28.703L63.3523 27.64Z" fill="#0D131A"/>
<path d="M77.89 18.6672C80.2453 20.8974 81.3916 22.4293 81.3291 23.263C81.2666 24.3677 81.0581 25.91 80.7038 27.8901C80.2244 30.4329 79.7242 32.0586 79.2031 32.7673C78.7238 33.4134 77.765 33.997 76.3268 34.5181C74.7845 35.06 73.4714 35.2371 72.3876 35.0495C71.2829 34.8411 70.4805 34.2784 69.9803 33.3613C69.5843 32.611 69.3446 31.5167 69.2612 30.0786C69.1987 29.099 69.5634 27.9735 70.3554 26.7021C68.688 25.6599 67.7293 24.8679 67.4791 24.326C67.3124 23.93 67.2707 23.5444 67.3541 23.1692C67.4375 22.7732 67.625 22.8253 67.9168 23.3256C68.3754 24.055 69.5009 24.9825 71.2933 26.108C71.606 26.3165 71.7206 26.5145 71.6373 26.7021L71.3871 26.9209L70.8557 28.0151C70.5639 29.0364 70.5743 30.3287 70.8869 31.8919C71.0953 32.9132 71.6685 33.528 72.6064 33.7365C73.4818 33.9449 74.5344 33.8094 75.7641 33.33C76.8688 32.9132 77.5983 32.4651 77.9526 31.9857C78.4111 31.3812 78.9009 29.9535 79.422 27.7025C79.8597 25.7641 80.1098 24.326 80.1723 23.3881C80.1932 22.9087 79.2865 21.7207 77.4524 19.824C75.5974 17.9273 74.0863 16.6142 72.9191 15.8847C72.0854 15.3637 70.8557 15.3637 69.2299 15.8847C67.9794 16.2599 66.7392 16.8435 65.5095 17.6355C64.8842 18.0315 64.2277 19.3133 63.5399 21.481C63.1856 22.5856 62.8938 23.6382 62.6645 24.6386L61.9767 23.2318L62.8521 19.4488C63.3315 17.8856 63.9672 16.8539 64.7592 16.3537C65.8222 15.6659 66.9789 15.1135 68.2295 14.6967C70.2929 14.0089 71.9186 14.0193 73.1067 14.728C74.2947 15.4575 75.8892 16.7705 77.89 18.6672Z" fill="#0D131A"/>
<path d="M54.3483 18.6985C56.3492 18.1774 58.0062 18.5109 59.3193 19.6989C60.5907 20.8244 61.9767 22.9712 63.4774 26.1393C64.9155 29.099 65.6033 31.0478 65.5408 31.9857C65.4783 32.9861 65.2698 34.2784 64.9155 35.8624C64.457 37.8425 63.9672 39.2285 63.4461 40.0205C62.8208 40.9585 62.0288 41.6254 61.07 42.0214L57.7561 42.1465C56.568 41.7922 55.7031 41.3128 55.1612 40.7083C54.6818 40.1247 54.4421 39.3744 54.4421 38.4573C54.4421 37.7278 54.6297 36.7378 55.0048 35.4873L53.8168 34.268C53.1082 33.4968 52.5246 32.2983 52.066 30.6726C51.9201 30.1307 51.9827 29.6409 52.2536 29.2032C52.5246 28.7655 52.733 28.9218 52.8789 29.6722C53.0039 30.2974 53.4833 31.2666 54.317 32.5797L55.974 35.2059C56.245 35.6853 56.2658 36.0396 56.0366 36.2689L55.6301 36.4877L55.5676 38.1447C55.7552 39.3536 56.4326 40.1769 57.5998 40.6145C58.8503 41.0939 59.8195 41.1773 60.5073 40.8647C60.9867 40.6771 61.5077 40.156 62.0705 39.3015C62.529 38.5928 63.0084 37.3214 63.5086 35.4873C63.9672 33.8198 64.2277 32.5589 64.2902 31.7043C64.3319 30.9331 63.7692 29.2866 62.602 26.7646C61.3097 23.9925 60.08 22.0854 58.9128 21.0433C56.9119 19.2717 54.2858 19.5426 51.0343 21.8562C50.2631 22.4189 49.4815 24.4406 48.6895 27.9214C48.2935 29.6722 47.9809 31.3604 47.7516 32.9861L46.501 33.2362C46.6886 31.4646 46.9596 29.62 47.3139 27.7025C48.0642 23.8675 48.8979 21.6269 49.815 20.9808C51.4407 19.8136 52.9518 19.0528 54.3483 18.6985Z" fill="#0D131A"/>
<path d="M100.338 145.818C98.1491 146.631 96.7318 146.943 96.0857 146.756C95.377 146.547 94.8872 145.87 94.6163 144.724C94.5121 144.161 94.5225 143.796 94.6475 143.629C94.7934 143.463 94.9602 143.671 95.1478 144.255C95.3354 144.88 95.5125 145.307 95.6793 145.536L96.3045 146.037C96.909 146.203 98.6181 145.693 101.432 144.505C103.558 143.588 105.298 142.764 106.653 142.035C107.362 141.639 107.695 141.514 107.653 141.66L106.809 142.41C104.892 143.765 102.734 144.901 100.338 145.818Z" fill="#0D131A"/>
<path d="M129.1 136.47C134.519 136.387 137.542 137.512 138.167 139.846L138.261 140.534L137.76 139.815C136.802 138.252 134.332 137.377 130.351 137.189C127.141 137.022 123.733 137.283 120.128 137.971L119.127 138.064C119.085 138.002 119.398 137.856 120.065 137.627C122.066 136.939 125.078 136.553 129.1 136.47Z" fill="#0D131A"/>
<path d="M101.025 152.79C100.984 152.727 101.036 152.633 101.182 152.508L101.401 152.352C102.526 151.873 104.85 150.997 108.372 149.726C113.187 147.996 116.762 146.891 119.096 146.412L121.691 145.943L123.129 146.005C123.608 146.193 123.15 146.422 121.753 146.693C125.484 147.735 127.933 148.6 129.1 149.288C131.289 150.58 132.571 152.529 132.946 155.134C133.425 158.553 133.655 162.044 133.634 165.608C133.592 170.006 133.092 172.684 132.133 173.643C131.278 174.497 129.778 175.56 127.631 176.832C125.192 178.291 122.723 179.51 120.221 180.49C120.597 179.864 120.815 179.322 120.878 178.864C122.983 177.926 125.005 176.811 126.943 175.519C128.611 174.435 129.819 173.507 130.57 172.736C131.028 172.298 131.435 171.277 131.789 169.672C132.164 167.942 132.352 166.056 132.352 164.013C132.352 160.991 132.154 158.094 131.758 155.322C131.445 153.029 130.32 151.279 128.381 150.07C127.172 149.319 124.88 148.486 121.503 147.569L119.878 147.1C116.543 147.537 110.801 149.528 102.651 153.071C102.068 154.051 101.776 154.916 101.776 155.666L101.025 155.416C101.025 154.686 101.098 154.082 101.244 153.603L101.463 153.04C101.234 152.998 101.088 152.915 101.025 152.79Z" fill="#0D131A"/>
<path d="M107.184 182.397C107.789 183.439 108.445 184.314 109.154 185.023C110.238 186.065 111.353 186.586 112.499 186.586C113.27 186.586 114.177 186.19 115.219 185.398C116.24 184.606 117.231 183.553 118.189 182.24C118.856 181.323 119.388 180.406 119.784 179.489C120.18 178.593 120.388 177.863 120.409 177.301C119.263 177.717 117.752 178.343 115.876 179.176L111.968 181.021C110.425 181.667 108.831 182.126 107.184 182.397ZM99.1808 177.832L100.119 177.113C100.952 178.197 101.974 179.114 103.183 179.864C104.496 180.677 105.725 181.084 106.872 181.084C108.497 181.084 110.874 180.354 114 178.895C117.105 177.478 119.054 176.644 119.846 176.394L121.097 176.081C121.493 176.123 121.649 176.509 121.566 177.238C121.357 178.989 120.545 180.854 119.127 182.834C118.085 184.273 117.043 185.461 116.001 186.398C114.625 187.649 113.427 188.274 112.405 188.274C110.988 188.274 109.613 187.503 108.279 185.961C107.424 184.96 106.674 183.783 106.028 182.428C102.484 181.573 100.202 180.041 99.1808 177.832Z" fill="#0D131A"/>
<path d="M116.689 156.76L115.063 156.197C114.396 156.698 113.573 157.896 112.593 159.793C111.655 161.627 111.186 162.836 111.186 163.419V163.451C111.186 163.826 111.509 164.555 112.155 165.639C112.76 166.723 113.062 167.442 113.062 167.796V167.89C112.958 169.078 112.27 170.86 110.999 173.236L112.906 173.424C113.198 173.111 113.573 172.309 114.031 171.017L114.969 167.796L115 167.453C115 166.786 114.688 165.827 114.062 164.576C113.708 163.826 113.51 163.315 113.468 163.044L113.437 162.919C113.437 162.106 114.521 160.053 116.689 156.76ZM114.625 155.635L115.97 155.666L117.439 156.229C117.731 156.333 117.752 156.594 117.502 157.01L116.876 157.823L115.657 159.887L114.563 161.919C114.271 162.502 114.156 162.961 114.219 163.294L115.125 165.139C115.667 166.369 115.876 167.307 115.751 167.953L114.719 171.423C114.073 173.174 113.531 174.101 113.093 174.206L111.436 174.268C110.686 174.164 110.259 173.914 110.154 173.518C110.113 173.33 110.415 172.611 111.061 171.361C111.791 169.943 112.197 168.766 112.28 167.828L111.343 165.796C110.717 164.503 110.405 163.722 110.405 163.451C110.384 163.18 110.53 162.607 110.842 161.731C111.217 160.752 111.78 159.626 112.531 158.355C113.385 156.937 114.083 156.031 114.625 155.635Z" fill="#0D131A"/>
<path d="M120.784 161.231V161.106C120.784 160.314 121.722 158.605 123.598 155.979C122.827 155.666 122.337 155.489 122.129 155.447C121.524 155.927 120.795 156.948 119.94 158.511C119.127 160.033 118.721 161.054 118.721 161.575V161.606C118.742 161.96 119.044 162.638 119.627 163.638C120.19 164.68 120.472 165.368 120.472 165.702V165.764C120.388 166.806 119.752 168.474 118.564 170.767L120.284 170.923C120.555 170.61 120.909 169.86 121.347 168.672L122.191 165.67L122.222 165.358C122.222 164.733 121.931 163.836 121.347 162.669L120.784 161.231ZM124.38 155.416C124.671 155.541 124.723 155.76 124.536 156.072L124.004 156.792L122.535 159.011C121.785 160.22 121.43 160.981 121.472 161.294L122.347 163.107C122.868 164.316 123.077 165.212 122.973 165.796L121.847 169.453L121.253 171.017C120.961 171.496 120.503 171.725 119.878 171.704L118.439 171.579C117.71 171.413 117.449 171.142 117.658 170.767C118.908 168.536 119.586 166.848 119.69 165.702L118.815 163.795C118.231 162.586 117.939 161.856 117.939 161.606L117.97 161.231C118.116 160.439 118.7 159.209 119.721 157.542C120.722 155.937 121.43 155.009 121.847 154.759C122.118 154.613 122.962 154.832 124.38 155.416Z" fill="#0D131A"/>
<path d="M128.694 155.166C128.152 155.603 127.537 156.479 126.849 157.792C126.182 159.042 125.849 159.907 125.849 160.387C125.849 160.679 126.12 161.325 126.662 162.325C127.162 163.242 127.412 163.888 127.412 164.264V164.326C127.329 165.285 126.766 166.848 125.724 169.016L127.162 169.172C127.412 168.88 127.735 168.172 128.131 167.046C128.506 165.962 128.757 165.024 128.882 164.232V163.951C128.882 163.346 128.621 162.502 128.1 161.419L127.6 160.074V159.949C127.6 159.178 128.381 157.74 129.945 155.635L128.694 155.166ZM128.319 154.572L129.382 154.697L130.414 155.072C130.726 155.26 130.862 155.447 130.82 155.635L130.414 156.291C128.871 158.521 128.131 159.803 128.194 160.137L129.007 161.95C129.507 163.117 129.715 163.92 129.632 164.357L128.694 167.546C128.277 168.776 127.892 169.516 127.537 169.766L126.13 169.829L124.817 169.422C124.734 169.297 124.817 168.995 125.067 168.515L125.568 167.484C126.214 166.108 126.568 165.035 126.631 164.264L125.849 162.482C125.328 161.335 125.067 160.647 125.067 160.418C125.047 159.668 125.484 158.521 126.38 156.979L127.35 155.541C127.808 154.936 128.131 154.613 128.319 154.572Z" fill="#0D131A"/>
<path d="M74.326 173.737L73.1379 173.705C73.2422 170.996 73.3985 169.11 73.6069 168.047C74.0446 165.983 74.8679 164.628 76.0768 163.982C76.5561 163.732 77.4107 163.388 78.6404 162.951L82.2358 161.7L85.4872 160.574L85.6748 161.856L83.0174 162.794C79.9743 163.878 78.0672 164.628 77.296 165.045C75.4827 166.004 74.4927 168.901 74.326 173.737Z" fill="#0D131A"/>
<path d="M91.4899 158.073L93.6783 156.635C95.6167 155.301 97.0653 154.509 98.024 154.259C99.6498 153.801 101.098 154.186 102.37 155.416C104.1 157.125 105.194 158.751 105.652 160.293C106.194 162.127 106.09 164.493 105.34 167.39L104.621 170.485C104.141 172.549 103.735 173.945 103.401 174.674C102.88 175.779 102.036 176.717 100.869 177.488L96.836 179.864L93.991 181.928L90.7395 184.335L89.2701 185.523L86.8628 187.336C86.0291 187.774 85.1641 187.962 84.2679 187.899C83.9344 187.857 83.653 187.712 83.4238 187.461L82.7672 186.586L83.0799 185.617C83.4133 186.055 83.8093 186.284 84.2679 186.305C84.914 186.367 85.7373 186.065 86.7377 185.398L89.1763 183.428L90.7395 182.147C92.3027 181.104 94.1473 180 96.2732 178.833C97.8573 177.957 99.1704 177.176 100.213 176.488C101.192 175.842 101.901 175.06 102.338 174.143C102.63 173.497 103.005 172.184 103.464 170.204L104.214 167.109C104.902 164.42 105.017 162.273 104.558 160.668C104.162 159.293 103.151 157.823 101.526 156.26C100.588 155.343 99.5247 155.051 98.3367 155.385C97.503 155.614 96.1795 156.354 94.3662 157.604L92.0839 159.105C90.9375 159.751 89.3326 160.47 87.2692 161.262L87.4255 159.855C89.2597 159.188 90.6145 158.594 91.4899 158.073Z" fill="#0D131A"/>
<path d="M95.8043 235.702C96.638 236.869 97.232 238.151 97.5864 239.547C97.9824 241.131 98.024 242.757 97.7114 244.424C97.4196 245.904 96.9611 246.738 96.3358 246.926C95.7522 247.092 94.856 246.759 93.6471 245.925C92.8342 245.362 91.74 244.664 90.3644 243.83L88.6136 242.767L89.8641 241.861C93.3657 244.612 95.3249 245.915 95.7418 245.769C96.4504 245.498 96.7631 244.299 96.6797 242.173C96.5963 239.943 96.0544 238.151 95.054 236.796L95.8043 235.702Z" fill="#0D131A"/>
<path d="M23.7721 230.918L22.8342 231.325L22.2401 231.356C22.8446 227.146 25.0226 224.718 28.7743 224.072C30.0457 223.863 31.5568 223.853 33.3076 224.04L36.7779 224.509C40.6129 224.947 43.3954 224.759 45.1254 223.947L39.0914 222.258C38.3411 222.071 37.7262 221.289 37.2469 219.914C36.9134 218.955 36.7466 218.246 36.7466 217.788L38.3098 217.225C38.3515 218.434 38.5912 219.403 39.0289 220.132C39.4249 220.778 39.946 221.185 40.5921 221.352C42.5305 221.831 44.917 222.54 47.7516 223.478C51.4824 224.686 53.8272 225.635 54.7859 226.323C56.4742 227.531 56.2032 227.75 53.9731 226.979C50.9092 225.791 48.4394 224.916 46.5635 224.353C45.6048 225.249 44.8336 225.77 44.25 225.916L36.6528 225.697L28.1178 226.01C25.7834 226.76 24.3348 228.396 23.7721 230.918Z" fill="#0D131A"/>
<path d="M75.3264 174.174C73.2838 174.028 71.8457 174.289 71.012 174.956C70.5743 175.31 70.0219 176.748 69.355 179.27L68.3545 182.709C67.9168 183.981 67.4479 185.012 66.9476 185.804L64.4153 188.868C62.6228 190.828 61.3722 192.401 60.6636 193.589C59.4547 195.632 58.9128 197.654 59.0379 199.654L59.6631 212.473L61.9454 214.286L66.0097 217.725C67.2394 218.788 67.8022 219.434 67.698 219.663C67.5938 219.893 66.8538 219.622 65.4782 218.85L57.5997 212.629C53.3478 209.273 50.4819 207.564 49.0021 207.502C46.1675 207.335 43.8123 207.804 41.9365 208.909L40.6859 208.471L39.3415 208.096C40.6129 207.241 42.2387 206.616 44.2187 206.22L48.4394 205.845C49.8358 205.907 51.6387 206.647 53.848 208.064C55.3696 209.023 56.8598 210.138 58.3188 211.41L57.9436 206.189L57.3809 199.092L57.3496 198.435C57.3496 196.413 58.0583 194.454 59.4756 192.557L63.5399 188.087L65.9472 185.179C66.6767 184.054 67.4375 181.98 68.2295 178.958L69.0423 175.675C69.355 174.591 69.6989 173.893 70.074 173.58C71.1579 172.705 72.9503 172.392 75.4514 172.642C77.494 172.872 79.4637 173.372 81.3603 174.143C82.9027 174.768 83.6739 176.186 83.6739 178.395L83.0173 183.835C83.0173 184.377 83.3195 185.825 83.924 188.181C84.5076 190.432 84.7577 192.026 84.6743 192.964C84.4451 195.799 83.1945 199.602 80.9226 204.375C79.0468 208.335 78.3798 211.722 78.9217 214.536C79.2135 216.037 79.745 217.777 80.5162 219.757C81.3291 221.883 82.1107 223.478 82.861 224.541C87.9883 226.562 91.542 228.188 93.522 229.418C94.7726 230.231 95.6584 231.127 96.1795 232.106C96.638 232.94 96.8673 233.888 96.8673 234.951C96.8673 236.223 96.6484 237.338 96.2107 238.297C95.2311 240.36 93.6471 241.902 91.4586 242.924C89.4786 243.841 87.4568 244.164 85.3934 243.893C83.059 243.601 79.9013 242.08 75.9204 239.328C74.0237 237.828 72.8461 236.984 72.3876 236.796C70.6576 236.087 67.2082 235.816 62.0392 235.983L57.631 236.077C55.1715 236.077 50.9301 236.702 44.9065 237.953C39.4041 239.078 34.9125 240.183 31.4318 241.267C29.7435 241.809 28.1699 241.777 26.7109 241.173C25.6271 240.714 24.6996 240.006 23.9284 239.047L25.1477 238.203C26.0023 238.912 27.0131 239.412 28.1803 239.704L32.2446 239.547C35.5169 238.505 39.873 237.484 45.313 236.483C50.9196 235.441 55.0256 234.92 57.631 234.92L61.9767 234.795C64.6862 234.691 66.6663 234.67 67.9168 234.733C69.8969 234.795 71.408 235.045 72.4501 235.483L75.9829 237.671C77.963 239.047 79.4637 240.027 80.4849 240.61C82.3191 241.673 83.8406 242.278 85.0495 242.424C86.8211 242.653 88.6136 242.361 90.4269 241.548C92.3861 240.673 93.6367 239.464 94.1786 237.922C94.8455 235.983 95.0331 234.441 94.7413 233.294C94.4495 232.19 93.6471 231.221 92.334 230.387C90.7916 229.428 89.0409 228.521 87.0816 227.667L83.3612 226.135C81.9856 225.614 81.0581 225.218 80.5787 224.947C79.7242 224.509 79.7971 224.186 80.7976 223.978C80.1515 223.061 79.5158 221.685 78.8905 219.851C78.0151 217.35 77.5357 214.901 77.4523 212.504C77.3481 209.919 78.1714 206.72 79.9222 202.906C81.9439 198.466 83.059 195.642 83.2674 194.433C83.5384 192.787 83.5488 191.244 83.2987 189.806L82.4546 186.774C81.996 185.356 81.798 184.252 81.8606 183.46L82.1419 181.365C82.4546 179.635 82.5588 178.384 82.4546 177.613C82.2878 176.571 81.7355 175.852 80.7976 175.456C79.0468 174.727 77.2231 174.299 75.3264 174.174Z" fill="#0D131A"/>
<path d="M42.0302 209.471C41.5925 209.159 40.9568 209.013 40.1231 209.034C39.2269 209.034 38.3098 209.232 37.3719 209.628C33.4118 211.295 31.2337 214.453 30.8377 219.101C30.9419 219.205 32.2029 218.809 34.6206 217.913C37.3093 216.912 39.1539 216.381 40.1544 216.318C40.4462 216.256 40.8839 215.818 41.4675 215.005C42.1344 214.046 42.5721 213.098 42.7805 212.16L42.9056 211.253C42.9056 210.482 42.6138 209.888 42.0302 209.471ZM32.7135 211.503C33.9224 210.107 35.2042 209.127 36.559 208.565C37.7054 208.064 38.8934 207.846 40.1231 207.908C41.2069 207.971 42.0406 208.21 42.6242 208.627C43.8748 209.461 44.2499 210.816 43.7497 212.692C43.4579 213.796 42.9473 214.87 42.2178 215.912C41.4883 216.954 40.8526 217.496 40.3107 217.537C38.2056 217.683 35.8712 218.277 33.3076 219.319C31.7652 219.945 30.7752 220.174 30.3375 220.007C29.8789 219.82 29.7122 219.111 29.8373 217.881C30.1082 215.484 31.067 213.358 32.7135 211.503Z" fill="#0D131A"/>
<path d="M20.8333 233.795C20.0621 235.066 19.5202 236.577 19.2076 238.328C18.9366 239.891 18.9158 240.735 19.145 240.86C19.2701 240.902 20.4894 240.266 22.8029 238.953C25.4082 237.473 27.357 236.556 28.6493 236.202L28.8994 235.764L29.0557 234.608C29.0557 233.795 28.8785 233.044 28.5242 232.357C28.1074 231.523 27.4925 230.95 26.6796 230.637C25.8876 230.324 24.908 230.481 23.7408 231.106C22.5528 231.731 21.5836 232.628 20.8333 233.795ZM20.3956 241.329C19.3535 241.975 18.6865 242.194 18.3947 241.986C18.1237 241.777 18.0091 241.038 18.0508 239.766C18.155 237.536 18.7282 235.545 19.7703 233.795C20.6665 232.315 21.8442 231.096 23.3031 230.137C24.5745 229.345 25.8355 229.188 27.0861 229.668C28.1491 230.085 28.9515 230.825 29.4934 231.888C29.9519 232.784 30.1604 233.743 30.1187 234.764C30.077 236.14 29.6914 236.952 28.9619 237.202C26.2524 238.078 23.3969 239.453 20.3956 241.329Z" fill="#0D131A"/>
<path d="M130.789 86.1349C130.455 85.6138 130.309 85.2595 130.351 85.0719C130.372 84.8844 130.528 84.9469 130.82 85.2595L132.477 87.4167C137.583 71.222 140.064 62.8328 139.918 62.2492C139.751 61.5614 133.884 65.9071 122.316 75.2863L122.91 75.9116C123.285 76.3701 123.473 76.6932 123.473 76.8808C123.473 77.0684 123.264 77.0371 122.848 76.787L121.159 75.7553C119.763 74.9633 117.637 74.338 114.781 73.8794C110.696 73.2333 107.111 73.5355 104.027 74.7861C102.922 75.2446 102.516 75.2134 102.807 74.6923L103.558 73.942L104.12 73.5668C92.8237 67.3974 84.7889 63.0517 80.0159 60.5297C73.7631 57.2366 70.5325 55.6942 70.3241 55.9026C69.9906 56.2153 72.0228 60.7486 76.4206 69.5025C80.9851 78.6316 84.5805 85.0719 87.2066 88.8236C87.3942 88.511 87.6131 88.1879 87.8632 87.8544C88.3426 87.1666 88.7386 86.7393 89.0512 86.5726C89.3639 86.4059 89.3847 86.5726 89.1138 87.0728L87.488 89.8241C86.1749 92.0542 84.9452 95.0243 83.7989 98.7343C82.8193 101.944 82.3295 104.06 82.3295 105.081C82.3295 105.956 82.4649 106.644 82.7359 107.144C83.0694 107.707 83.5696 107.999 84.2366 108.02L96.2732 109.239C103.276 110.073 107.632 110.771 109.342 111.334C109.863 111.5 110.363 111.844 110.842 112.365L110.655 112.803L110.373 113.022L109.779 112.397L109.154 111.896C107.549 111.355 103.224 110.729 96.1794 110.021L84.1115 108.989L82.8297 108.864C82.4962 108.739 82.2044 108.468 81.9543 108.051C81.6 107.426 81.4228 106.623 81.4228 105.644C81.4228 103.872 81.8188 101.684 82.6108 99.0782C83.5071 96.1602 84.7785 93.1172 86.425 89.9491C82.2357 83.8631 78.1401 76.5265 74.1383 67.9393C70.47 60.0816 68.886 55.8089 69.3862 55.121C69.9698 54.2665 74.2113 55.9131 82.1106 60.0608C86.8002 62.541 94.5433 66.8971 105.34 73.1291C108.633 72.2329 112.072 72.1182 115.657 72.7852C117.595 73.1395 119.481 73.7231 121.316 74.536C133.029 64.7816 139.532 60.4047 140.824 61.4051C141.054 61.5927 140.293 64.7087 138.542 70.753L133.321 88.5422C135.989 92.7316 137.865 95.8476 138.949 97.8902C141.012 101.684 141.887 104.195 141.575 105.425C141.471 105.862 140.866 106.321 139.761 106.8L135.791 108.27C131.247 109.916 128.871 111.115 128.663 111.865L128.913 116.93L129.194 122.745C129.194 125.142 128.882 126.757 128.256 127.591C127.485 128.633 126.599 129.498 125.599 130.186C124.515 130.915 123.525 131.28 122.629 131.28C121.816 131.28 120.482 130.603 118.627 129.248C116.855 127.935 115.751 126.903 115.313 126.153C114.959 125.528 114.656 124.465 114.406 122.964L113.844 120.088C113.593 119.129 113.083 117.816 112.312 116.148L113.062 115.648C114.146 117.92 114.927 120.473 115.407 123.308C115.594 124.475 115.834 125.288 116.126 125.746C116.459 126.33 117.522 127.268 119.315 128.56C121.149 129.852 122.358 130.498 122.941 130.498C123.504 130.498 124.234 130.144 125.13 129.436C126.026 128.727 126.891 127.82 127.725 126.716C128.121 126.194 128.319 124.871 128.319 122.745C128.11 115.784 128.037 112.115 128.1 111.74C128.288 111.011 129.048 110.292 130.382 109.583C131.341 109.083 133.05 108.384 135.509 107.488L138.636 106.3C139.699 105.842 140.324 105.477 140.512 105.206L140.574 104.956C140.574 102.976 137.312 96.7021 130.789 86.1349Z" fill="#0D131A"/>
<path d="M79.5782 67.7204C79.1614 67.3036 79.0363 67.1056 79.2031 67.1264C79.3698 67.1264 79.7658 67.3661 80.3911 67.8455L89.145 74.5047C94.2931 78.6107 96.69 81.0597 96.3357 81.8517C95.4812 83.6859 94.5849 85.1761 93.647 86.3225C93.2302 86.8227 92.9592 87.0311 92.8341 86.9478C92.7091 86.8852 92.8029 86.5934 93.1155 86.0724L95.4603 81.7579C95.6688 81.2994 93.1885 78.9233 88.0195 74.6298L79.5782 67.7204Z" fill="#0D131A"/>
<path d="M129.038 82.6021C128.934 81.7058 129.486 80.2468 130.695 78.2251C131.82 76.3076 132.863 74.9528 133.821 74.1608C134.655 73.473 135.093 73.1707 135.134 73.2541L134.196 74.4734C132.758 76.12 131.612 77.7249 130.757 79.2881C129.965 80.7471 129.58 81.883 129.601 82.6958C129.622 83.1752 129.549 83.4253 129.382 83.4462C129.215 83.4462 129.1 83.1648 129.038 82.6021Z" fill="#0D131A"/>
<path d="M101.432 93.2631L102.151 93.5757C101.776 94.4511 101.494 95.5766 101.307 96.9522C101.119 98.3487 101.098 99.5263 101.244 100.485L100.306 100.016C100.14 98.974 100.192 97.7755 100.463 96.4208C100.671 95.2953 100.994 94.2427 101.432 93.2631Z" fill="#0D131A"/>
<path d="M125.911 105.143C125.974 103.976 126.453 102.455 127.35 100.579C128.329 98.4737 129.444 96.8376 130.695 95.6704L131.476 95.0139L130.945 95.8267L130.57 96.3269C130.862 96.5771 131.185 97.046 131.539 97.7338C131.977 98.5675 132.3 99.4429 132.508 100.36C132.779 100.193 132.946 100.152 133.008 100.235L132.383 100.891C130.445 102.434 128.496 103.966 126.537 105.487C126.453 105.8 126.266 108.239 125.974 112.803L125.443 119.4C125.338 119.4 125.495 114.648 125.911 105.143ZM128.381 99.9223C127.631 101.486 127.12 102.955 126.849 104.331L131.914 100.673C131.872 100.068 131.633 99.2866 131.195 98.3278L130.288 96.6709C129.601 97.6088 128.965 98.6926 128.381 99.9223Z" fill="#0D131A"/>
<path d="M108.591 103.017L114.875 105.081C115.48 105.248 115.688 105.383 115.501 105.487L114.5 105.519C113.5 105.331 111.092 104.539 107.278 103.143C103.443 101.746 100.744 100.662 99.1808 99.8911C98.5972 99.6201 98.3471 99.4325 98.4305 99.3283L99.3997 99.5472C102.13 100.652 105.194 101.809 108.591 103.017Z" fill="#0D131A"/>
<path d="M121.222 122.37C121.389 123.266 121.409 123.652 121.284 123.527L120.847 122.432L117.752 111.803C116.835 108.864 116.063 106.905 115.438 105.925C113.416 102.736 110.988 99.9848 108.154 97.6713C105.423 95.4411 102.234 93.5444 98.5868 91.9812C98.1908 91.8145 97.9719 91.6478 97.9302 91.481L98.7118 91.5123C102.505 92.8462 105.923 94.7429 108.966 97.2023C111.926 99.5992 114.344 102.392 116.22 105.581C117.012 106.915 117.95 109.479 119.033 113.272C119.971 116.565 120.701 119.598 121.222 122.37Z" fill="#0D131A"/>
<path d="M121.003 126.528C121.378 125.84 121.785 125.444 122.222 125.34C122.764 125.173 122.827 125.33 122.41 125.809L121.91 126.528L121.347 126.966L120.972 126.903C120.909 126.82 120.92 126.695 121.003 126.528Z" fill="#0D131A"/>
<path d="M125.286 125.434C125.161 124.913 125.297 124.819 125.693 125.152L126.162 125.684C126.328 125.955 126.412 126.194 126.412 126.403L126.318 126.778C126.276 126.799 126.182 126.747 126.037 126.622C125.703 126.372 125.453 125.976 125.286 125.434Z" fill="#0D131A"/>
<path d="M119.252 85.0094C118.669 84.0715 118.335 83.6442 118.252 83.7276L117.502 85.1032L116.751 86.5101L114.875 87.1041C113.792 87.4167 113.312 87.6251 113.437 87.7294L115.907 89.8553L116.001 89.9804L115.845 91.5123C115.761 92.5127 115.761 92.9921 115.845 92.9504L119.19 90.5431C121.295 91.7311 122.441 92.3043 122.629 92.2626C122.796 92.2209 122.483 91.1059 121.691 88.9174L122.91 87.5418C123.014 87.4376 122.066 87.0624 120.065 86.4163L119.252 85.0094ZM112.312 87.8857L111.874 87.3229C111.916 87.2187 112.114 87.0937 112.468 86.9478L114.188 86.4163L116.157 85.9473L116.908 84.3841L117.783 82.7271C117.929 82.4562 118.085 82.3415 118.252 82.3832L118.783 82.8522L120.597 85.791C122.994 86.5622 124.213 87.0415 124.255 87.2291L123.535 88.1671L122.566 89.105C123.608 92.0855 124.036 93.6382 123.848 93.7633C123.723 93.8467 122.973 93.5132 121.597 92.7629L119.284 91.481C116.637 93.5861 115.209 94.597 115 94.5136C114.855 94.4719 114.844 93.7842 114.969 92.4502L115.188 90.2305L112.312 87.8857Z" fill="#0D131A"/>
<path d="M113.75 110.802C114.25 110.552 114.531 110.521 114.594 110.708C114.656 110.875 114.448 111.073 113.969 111.302C112.781 111.844 110.988 112.918 108.591 114.523C105.09 116.878 101.817 119.473 98.7744 122.307C89.4994 130.895 84.0699 139.971 82.4858 149.538C83.132 148.579 83.8093 147.662 84.518 146.787L85.5184 145.693L86.0812 144.63C86.4147 144.192 86.4876 144.682 86.3 146.099C85.8623 149.205 85.6435 152.196 85.6435 155.072C85.6226 158.094 85.8519 160.439 86.3313 162.106C86.769 154.811 89.8016 146.12 95.4291 136.032C101.494 125.132 107.956 117.816 114.813 114.085C115.376 113.772 115.678 113.689 115.719 113.835C115.74 113.981 115.511 114.2 115.032 114.491C108.383 118.576 102.224 125.84 96.5546 136.282C91.7191 145.245 88.624 153.571 87.2692 161.262C87.0191 162.7 86.7794 163.461 86.5501 163.545C86.2792 163.649 85.8832 162.888 85.3621 161.262C84.9453 159.928 84.7264 157.782 84.7056 154.822C84.6847 152.05 84.8202 149.611 85.112 147.506L82.9548 150.257C82.1836 151.425 81.7042 151.914 81.5166 151.727C81.3707 151.581 81.3916 150.872 81.5792 149.601C82.7672 141.576 86.4564 133.99 92.6466 126.841C98.3784 120.233 105.413 114.887 113.75 110.802Z" fill="#0D131A"/>
<path d="M128.913 111.427L129.194 111.052C136.406 113.804 142.461 117.941 147.359 123.464C152.673 129.488 155.008 135.563 154.362 141.691C154.299 142.358 154.174 142.681 153.987 142.66C153.82 142.618 153.643 142.327 153.455 141.785L151.954 138.096C152.184 141.18 151.694 144.067 150.485 146.756C150.006 147.84 149.683 148.329 149.516 148.225C149.37 148.163 149.203 147.464 149.016 146.13C148.203 140.461 146.567 135.178 144.107 130.28C140.376 122.818 135.228 117.524 128.663 114.398L128.381 113.585C135.635 117.065 141.21 122.776 145.108 130.717C147.65 135.886 149.224 141.253 149.828 146.818C150.495 144.63 150.923 142.129 151.11 139.315L150.954 137.189C150.808 136.189 150.62 135.376 150.391 134.75C149.412 131.957 149.703 131.937 151.267 134.688C152.225 136.522 153.069 138.492 153.799 140.597C153.549 134.532 150.704 128.55 145.264 122.651C140.324 117.274 134.874 113.533 128.913 111.427Z" fill="#0D131A"/>
<path d="M106.778 100.485C106.778 101.152 106.695 101.652 106.528 101.986L106.09 102.392C105.652 102.392 105.434 101.736 105.434 100.423C105.434 99.7347 105.517 99.1198 105.684 98.5779C105.83 98.0777 105.986 97.8276 106.153 97.8276C106.319 97.8276 106.465 98.0881 106.59 98.6092L106.778 100.485Z" fill="#0D131A"/>
<path d="M129.038 102.392C129.038 103.163 128.902 103.549 128.631 103.549C128.319 103.549 128.162 103.163 128.162 102.392L128.288 101.235C128.371 100.923 128.475 100.766 128.6 100.766C128.725 100.766 128.829 100.923 128.913 101.235L129.038 102.392Z" fill="#0D131A"/>
<path d="M183.156 130.53C183.197 130.467 183.323 130.498 183.531 130.624L184.406 131.561C184.781 132.02 185.042 132.416 185.188 132.749C185.376 133.25 185.73 133.656 186.251 133.969C186.834 134.323 187.699 134.604 188.846 134.813L189.033 135.751L188.033 135.626C187.262 136.355 186.636 137.22 186.157 138.221C185.74 139.096 185.532 139.867 185.532 140.534C185.532 140.805 185.563 141.014 185.626 141.159C185.876 141.597 187.835 141.472 191.503 140.784L192.879 140.565C193.713 140.44 194.776 140.743 196.068 141.472C197.256 142.139 198.173 142.869 198.819 143.661C199.819 144.911 200.184 147.027 199.913 150.007C199.663 152.946 198.986 154.947 197.881 156.01V155.26L197.819 154.478L198.131 153.853C198.965 151.893 199.319 149.934 199.194 147.975C199.111 146.349 198.788 145.203 198.225 144.536C197.641 143.786 196.849 143.077 195.849 142.41C194.682 141.639 193.744 141.305 193.035 141.41L189.002 142.035C186.272 142.348 184.781 142.202 184.531 141.597C184.198 140.826 184.302 139.836 184.844 138.627C185.344 137.481 186.115 136.387 187.158 135.344C185.824 135.073 184.927 134.375 184.469 133.25C184.135 132.395 183.729 131.603 183.25 130.874L183.156 130.53Z" fill="#0D131A"/>
<path d="M189.565 151.821C189.106 151.821 188.731 151.956 188.439 152.227C188.21 152.435 187.929 152.842 187.595 153.446C187.053 154.363 186.564 154.989 186.126 155.322C184.688 156.489 182.76 157.375 180.342 157.98C177.216 158.772 174.913 158.407 173.433 156.885C170.911 156.302 166.909 157.042 161.427 159.105C157.53 160.522 154.831 161.335 153.33 161.544C152.017 161.71 150.871 161.387 149.891 160.574C148.932 159.762 148.265 158.605 147.89 157.104C147.452 155.437 147.577 153.874 148.265 152.415C149.036 150.768 150.443 149.538 152.486 148.725L154.018 148.131C155.206 147.673 157.269 146.912 160.208 145.849C162.793 144.87 164.575 144.025 165.554 143.317L165.273 141.628C165.085 140.899 164.887 140.43 164.679 140.222C163.908 139.513 163.23 138.763 162.647 137.971C161.98 137.033 161.584 136.199 161.459 135.469C161.292 134.573 161.229 133.865 161.271 133.344C161.334 132.739 161.552 132.218 161.928 131.78L161.959 132.624C162.001 132.854 162.115 133.125 162.303 133.437C162.261 134.042 162.303 134.667 162.428 135.313C162.532 135.897 162.824 136.595 163.303 137.408C163.824 138.262 164.429 139.013 165.116 139.659C165.387 139.93 165.596 140.284 165.742 140.722C165.929 141.285 166.075 142.139 166.179 143.285C166.242 144.098 166.232 144.703 166.148 145.099C166.044 145.474 165.94 145.516 165.836 145.224L165.679 144.161C164.575 144.932 162.845 145.828 160.489 146.85L154.455 149.226L152.924 149.82C151.235 150.487 150.079 151.529 149.453 152.946C148.932 154.113 148.838 155.343 149.172 156.635C149.443 157.719 149.953 158.605 150.704 159.293C151.558 160.064 152.538 160.376 153.643 160.231C155.018 160.064 157.478 159.313 161.021 157.98C163.626 157 165.565 156.333 166.836 155.979C168.962 155.374 170.744 155.103 172.182 155.166L170.525 153.352L168.024 151.227C167.086 150.351 166.555 149.288 166.43 148.038C166.367 147.266 166.44 146.891 166.648 146.912C166.836 146.933 166.982 147.298 167.086 148.006C167.169 148.632 167.482 149.278 168.024 149.945C168.462 150.507 169.17 151.195 170.15 152.008L171.901 153.54L174.589 156.072L174.652 156.104C175.965 157.083 177.883 157.25 180.405 156.604C182.405 156.083 183.917 155.405 184.938 154.572C185.709 153.988 186.251 153.415 186.564 152.852C186.96 152.144 187.324 151.654 187.658 151.383C188.158 150.903 188.794 150.664 189.565 150.664C189.586 150.268 189.721 149.872 189.971 149.476L190.815 148.382C191.399 147.548 191.691 146.672 191.691 145.755C191.691 145.443 191.764 145.234 191.91 145.13C192.056 144.984 192.191 145.109 192.316 145.505L192.535 146.912C192.514 147.475 192.285 148.069 191.847 148.694C191.034 149.882 190.69 150.935 190.815 151.852C190.941 152.727 191.441 153.342 192.316 153.696L192.254 154.259L192.379 154.822C190.92 154.072 189.982 153.071 189.565 151.821Z" fill="#0D131A"/>
</svg>
