<svg width="101" height="112" viewBox="0 0 101 112" fill="none" xmlns="http://www.w3.org/2000/svg">
<path d="M83.4301 79.8202C82.8442 79.2862 82.1394 79.0192 81.3158 79.0192C80.4498 79.0192 79.7025 79.2099 79.0742 79.5913C78.3865 80.0066 77.7157 80.7144 77.0619 81.7146C76.51 82.5622 75.6227 84.2617 74.4 86.813C72.9905 89.7542 72.1414 91.8521 71.8527 93.1066L71.3814 92.7633C70.4474 92.1021 69.7766 91.5258 69.3691 91.0342C68.6728 90.1781 68.1973 89.1058 67.9426 87.8174L67.9044 87.5886L61.7145 88.237L61.8928 88.9871C62.3938 91.0299 62.5891 92.3649 62.4787 92.9921L62.4405 93.1447L63.625 94.467L66.7454 96.603C67.9936 97.5269 69.0507 98.4466 69.9167 99.362C70.0526 99.4976 70.0314 99.8706 69.8531 100.481L69.3691 102.007L69.0379 103.291C68.97 104.045 69.2162 104.774 69.7766 105.478C70.3965 106.257 71.1777 106.694 72.1201 106.787C72.5192 106.83 72.9735 106.749 73.4829 106.546C74.0009 106.342 74.4212 106.084 74.7438 105.77C75.1599 105.372 75.3679 105.037 75.3679 104.766V104.689L75.2151 103.736C75.0453 102.897 75.0156 102.363 75.1259 102.134C75.7797 102.032 76.3741 101.807 76.909 101.46C77.4864 101.078 77.9279 100.595 78.2336 100.01C79.6516 97.2896 80.955 95.2553 82.1437 93.9076C83.6721 92.1869 85.7396 90.6358 88.3463 89.2542L89.2888 89.0634C91.2502 88.4616 92.2309 87.4191 92.2309 85.9357L92.2055 85.5289C92.146 85.0288 91.9932 84.5753 91.7469 84.1684C91.5007 83.7531 91.1823 83.4183 90.7917 83.164C90.2143 82.7826 89.5902 82.6385 88.9195 82.7317V82.6427C88.9195 81.9392 88.7581 81.3204 88.4355 80.7864C88.1128 80.2355 87.6543 79.8159 87.0599 79.5277C86.4571 79.2395 85.8203 79.1209 85.1495 79.1717C84.4872 79.2311 83.9141 79.4472 83.4301 79.8202Z" fill="#0D131A"/>
<path d="M83.7103 80.227C83.982 80.5491 84.1815 80.939 84.3089 81.3967C84.4532 81.8883 84.4787 82.3418 84.3853 82.7571C84.2749 83.2403 84.0584 83.6683 83.7357 84.0413C83.4301 84.4058 83.0649 84.677 82.6404 84.855C82.0036 85.1178 80.887 86.2917 79.2907 88.3769C77.7878 90.3349 76.892 91.6826 76.6033 92.42C76.3571 93.0388 76.1915 93.3185 76.1066 93.2591C76.0217 93.1998 76.0812 92.8735 76.2849 92.2801C76.6416 91.263 77.5331 89.7924 78.9596 87.8683C80.4625 85.8425 81.5833 84.6728 82.322 84.3592C82.6956 84.2066 83.0182 83.9608 83.29 83.6217C83.5617 83.2827 83.7485 82.8928 83.8504 82.452C83.9438 82.0791 83.9565 81.7146 83.8886 81.3586C83.8206 81.0111 83.6763 80.7059 83.4555 80.4432L83.4046 80.4813L83.239 80.3033C82.6956 79.7523 82.0588 79.4938 81.3286 79.5277C80.6578 79.5532 79.9912 79.7608 79.3289 80.1507C78.5732 80.5915 77.9492 81.2145 77.4567 82.0197C75.5462 85.1051 74.0646 88.2243 73.0117 91.3774L72.1966 94.111C72.0098 94.7891 71.8909 95.1451 71.8399 95.179C71.6192 95.3061 71.6192 94.806 71.8399 93.6787L71.0885 93.1701C70.163 92.5175 69.4837 91.9326 69.0507 91.4156C68.3119 90.5256 67.7982 89.4321 67.5096 88.1353L62.3386 88.682L62.3768 88.86C62.8013 90.5552 63.0136 91.7716 63.0136 92.509L62.9881 92.9031L64.0707 93.6406C65.2 94.3865 66.2656 95.1917 67.2676 96.0563C68.4987 97.1158 69.5007 98.1541 70.2734 99.1713C70.6215 98.6118 70.8338 98.3533 70.9102 98.3957C70.9951 98.4381 70.8677 98.8449 70.5281 99.6163L70.3116 100.672C70.2182 101.223 70.1163 101.672 70.0059 102.019L69.7002 103.202V103.405C69.7002 104.058 69.9125 104.664 70.337 105.223C70.8125 105.859 71.4239 106.215 72.1711 106.291C72.4768 106.317 72.8419 106.249 73.2664 106.088C73.7249 105.918 74.0985 105.694 74.3872 105.414C74.6589 105.16 74.7863 104.905 74.7693 104.651L74.6292 103.761C74.5528 103.397 74.574 102.731 74.6929 101.765C74.8118 100.807 74.9519 100.18 75.1132 99.8833C75.266 99.612 75.3679 99.5569 75.4189 99.718C75.4698 99.8706 75.4571 100.078 75.3807 100.341L75.1896 101.46C75.6821 101.417 76.1915 101.163 76.718 100.697C77.151 100.324 77.4652 99.9511 77.6605 99.5781C79.0615 96.8997 80.4328 94.8357 81.7743 93.3863C83.3621 91.6741 85.5146 90.1018 88.2317 88.6693C87.977 88.5676 87.8199 88.4743 87.7604 88.3896C87.6331 88.2285 88.0491 88.2031 89.0086 88.3133C89.5605 88.3726 90.1506 88.148 90.779 87.6394C91.5007 87.0631 91.8106 86.3807 91.7087 85.5924C91.6068 84.7109 91.212 84.0413 90.5242 83.5836C90.0148 83.2361 89.4714 83.1174 88.894 83.2276C88.7411 83.7192 88.4991 84.1896 88.168 84.6389C87.735 85.2237 87.2425 85.6221 86.6906 85.834C86.1387 86.0544 85.0009 86.9741 83.2772 88.593C81.5451 90.2204 80.437 91.4113 79.953 92.1657C79.486 92.9031 79.2101 93.204 79.1252 93.0684C79.0402 92.9328 79.2143 92.5514 79.6473 91.9241C80.1993 91.1189 81.2097 89.9577 82.6786 88.4404C84.3768 86.6859 85.6165 85.639 86.3976 85.3C87.6118 84.766 88.2147 83.8421 88.2062 82.5283C88.2062 81.2738 87.7519 80.4262 86.8434 79.9854C86.3255 79.7312 85.7736 79.6294 85.1877 79.6803C84.6103 79.7227 84.1178 79.9049 83.7103 80.227Z" fill="#F19963"/>
<path d="M70.9229 98.561C70.8805 98.739 70.7488 99.0908 70.5281 99.6163L70.3116 100.672C70.2182 101.223 70.1163 101.672 70.0059 102.019L69.7002 103.202V103.405C69.7002 104.058 69.9125 104.664 70.337 105.223C70.8125 105.859 71.4239 106.215 72.1711 106.291C72.4173 106.317 72.7357 106.266 73.1263 106.139L72.6296 105.643C72.3579 105.406 72.0055 105.228 71.5725 105.109C71.2328 105.016 71.1225 104.134 71.2413 102.464C71.3857 100.523 71.2795 99.2221 70.9229 98.561Z" fill="#D18456"/>
<path d="M70.2734 99.1713C70.5366 98.739 70.7276 98.489 70.8465 98.4211C70.1248 97.0989 68.9403 95.4799 67.293 93.5643C65.1788 91.0808 63.8202 89.4237 63.2174 88.593L62.3386 88.682L62.3768 88.86C62.8013 90.5553 63.0136 91.7716 63.0136 92.509L62.9881 92.9032L64.0707 93.6406C65.2 94.3865 66.2656 95.1917 67.2676 96.0563C68.4988 97.1158 69.5007 98.1542 70.2734 99.1713Z" fill="#D18456"/>
<path d="M71.8399 93.6787L71.4451 93.4117C71.4875 93.9796 71.564 94.5051 71.6743 94.9883C71.6574 94.751 71.7126 94.3144 71.8399 93.6787ZM78.4501 83.3674C78.7218 82.9606 78.9426 82.3376 79.1124 81.4984C79.2652 80.7356 79.4818 80.2101 79.762 79.9219C78.811 80.3796 78.0425 81.0789 77.4567 82.0197C75.5462 85.1051 74.0645 88.2243 73.0117 91.3774L72.1965 94.111C72.0097 94.7891 71.8909 95.1451 71.8399 95.179L71.7126 95.1663L71.7508 95.2807C71.9291 95.9419 72.0862 96.1071 72.222 95.7766C72.5277 95.0137 73.2876 93.3778 74.5018 90.8689C76.0642 87.6564 77.3803 85.1559 78.4501 83.3674Z" fill="#D18456"/>
<path d="M68.4266 81.6637L68.6558 81.2314L52.7353 85.7704L52.8881 86.012L53.6778 86.7367C54.875 87.7369 55.7836 88.5549 56.4034 89.1906C57.6346 90.4705 58.4794 91.6826 58.9379 92.8269L58.9634 92.9159L59.804 92.776C60.5173 92.9879 61.0394 93.1701 61.3706 93.3227C61.931 93.5685 62.3853 93.8737 62.7334 94.2381L63.2301 94.7594L63.09 94.0601C63.0391 93.755 62.8947 93.2676 62.657 92.598L62.3386 91.5809C62.6273 91.8097 62.9796 92.0555 63.3957 92.3183C64.1514 92.8099 64.6821 93.1998 64.9877 93.488L65.4462 93.9203L65.3444 93.2973C65.3104 93.0769 65.2 92.6997 65.0132 92.1657L64.7585 91.352C65.1151 91.53 65.4462 91.7419 65.7519 91.9877C66.0916 92.259 66.3293 92.5132 66.4652 92.7506L66.86 92.6234C66.809 92.1912 66.6137 91.5936 66.2741 90.8307C66.0194 90.2713 65.8623 89.7966 65.8029 89.4067L66.6689 89.572L67.968 89.839L67.6369 89.0507L67.344 88.2752L67.9298 88.6947L69.2544 89.6737L68.5921 87.4106C68.1846 86.1137 67.9468 85.1517 67.8789 84.5244C67.777 83.4734 67.9596 82.5198 68.4266 81.6637Z" fill="#0D131A"/>
<path d="M67.1529 87.5759L68.1718 88.3514L68.503 88.6057L68.1973 87.5377L67.6879 85.745C67.5265 85.0754 67.4459 84.4694 67.4459 83.9269C67.4459 83.2234 67.586 82.541 67.8662 81.8799L53.7797 85.7196L54.2637 86.1392C55.359 87.0546 56.2421 87.8683 56.9129 88.5803C58.0931 89.8348 58.9252 91.0511 59.4092 92.2293L59.9187 92.3819L61.2687 92.8396C61.7612 93.0345 62.1772 93.2592 62.5169 93.5134L62.2622 92.7379C62.0074 92.0513 61.8503 91.5003 61.7909 91.085L61.7145 90.5256L62.1348 90.907L63.6122 91.9623C64.0792 92.2674 64.4656 92.5387 64.7712 92.776L64.6184 92.3056C64.4061 91.7207 64.2872 91.2884 64.2618 91.0087L64.2363 90.6654L64.542 90.7926C65.1194 90.996 65.684 91.352 66.2359 91.8606L65.892 91.0087L65.5227 90.106L65.3189 89.1779L65.3062 88.9363L65.5354 88.949C65.8326 88.9575 66.2444 89.0295 66.7708 89.1652L67.2676 89.2669L67.2548 89.216C66.9746 88.5718 66.8218 88.0802 66.7963 87.7412L66.7454 87.1944L67.1529 87.5759Z" fill="#C9C279"/>
<path d="M15.7106 97.9761L15.9398 98.1542C16.5087 98.6034 17.672 99.1247 19.4296 99.718C21.391 100.379 22.6095 100.536 23.085 100.188C23.5265 99.8579 25.9294 96.6751 30.2938 90.64L37.0823 81.1425L37.1842 81.0153L35.9233 78.7649L15.7106 97.9761Z" fill="#0D131A"/>
<path d="M35.7959 79.5786L16.5002 97.9126C17.1201 98.2771 18.0541 98.6415 19.3023 99.006C20.6778 99.4129 21.7222 99.5866 22.4354 99.5273C23.1062 98.9085 25.5219 95.8232 29.6824 90.2713L36.5856 80.9772L35.7959 79.5786Z" fill="#E85377"/>
<path d="M35.7959 79.5786L29.173 85.8849C30.6674 85.8679 32.0302 85.7323 33.2614 85.478L36.5856 80.9772L35.7959 79.5786Z" fill="#C94768"/>
<path d="M4.42614 88.86C5.38561 90.2755 6.09885 91.2461 6.56585 91.7716L6.69321 91.9114L36.5473 76.2348L34.7897 74.3403L34.6369 74.4039L18.347 80.0872C8.07299 83.715 2.90625 85.6687 2.84682 85.9485C2.77889 86.2451 3.30533 87.2156 4.42614 88.86Z" fill="#0D131A"/>
<path d="M7.15173 90.9833L35.7322 76.0949L34.6496 74.9252L19.315 80.494C9.99195 83.9014 4.82946 85.8679 3.82753 86.3934C3.88696 87.0207 4.99503 88.5506 7.15173 90.9833Z" fill="#E85377"/>
<path d="M20.6651 79.9854C20.9962 80.2228 21.425 80.6847 21.9514 81.3713C22.4269 81.9901 22.8727 82.4181 23.2888 82.6554L31.682 78.2436L35.7322 76.0949L34.6496 74.9252L20.6651 79.9854Z" fill="#C94768"/>
<path d="M8.98577 95.8529L8.97303 96.2979C10.1533 97.0268 11.3293 97.7049 12.501 98.3321C14.819 99.5866 16.1351 100.087 16.4493 99.8324C16.9588 99.4256 23.7558 92.6234 36.8403 79.426L36.9677 79.2989L35.8214 77.0103L8.98577 95.8529Z" fill="#0D131A"/>
<path d="M16.0417 99.0314C16.8654 98.3533 20.2957 95.0434 26.3328 89.1016L36.3563 79.1971L35.6303 77.7604L9.87732 95.8274C12.535 97.5311 14.5898 98.5991 16.0417 99.0314Z" fill="#E85377"/>
<path d="M29.3513 86.1391L36.3563 79.1971L35.6303 77.7604L24.8935 85.3C26.4304 85.7153 27.9163 85.995 29.3513 86.1391Z" fill="#C94768"/>
<path d="M2.61757 92.2166C2.5836 92.5641 3.64072 93.56 5.78893 95.2044C7.92015 96.8234 9.10888 97.5905 9.35512 97.5057C9.66079 97.404 18.4871 90.7883 35.8341 77.6587L34.0892 75.7897L33.9236 75.8787L17.8503 83.9904C7.72911 89.1609 2.65153 91.903 2.61757 92.2166Z" fill="#0D131A"/>
<path d="M5.64884 94.0729L9.27872 96.7429L35.0827 77.5952L33.9873 76.4128L19.0348 84.1812C9.96648 88.9109 4.82946 91.619 3.62375 92.3056C3.82753 92.5938 4.50257 93.1829 5.64884 94.0729Z" fill="#E85377"/>
<path d="M21.3146 82.986C22.6052 83.7065 23.9256 84.3337 25.2756 84.8677L35.0827 77.5952L33.9873 76.4128L21.3146 82.986Z" fill="#C94768"/>
<path d="M78.1826 23.7248C78.0298 21.6312 77.6265 20.8048 76.9727 21.2455C76.4038 21.6439 75.8307 22.2033 75.2533 22.9238C74.4466 23.941 73.9414 24.9623 73.7376 25.988C73.1178 29.0394 72.9735 32.1247 73.3046 35.2439C73.5339 37.4732 73.899 39.1896 74.3999 40.3932C74.5782 40.8085 75.4146 41.1264 76.909 41.3468L84.0541 41.6138C87.0854 41.4443 88.9407 40.9399 89.6199 40.1008C90.8936 38.5157 91.8106 37.2019 92.371 36.1594C93.0757 34.8371 93.4324 33.5741 93.4409 32.3705C93.3814 29.4378 93.271 26.4245 93.1097 23.3307C92.9908 21.1269 92.9272 18.3297 92.9187 14.9393L92.9441 7.47598C93.08 5.61969 93.1607 4.14484 93.1861 3.05141C93.2456 1.01713 92.9993 0.0847475 92.4474 0.254271C92.0738 0.152557 91.5941 0.533985 91.0082 1.39856C90.4138 2.28008 89.9511 3.30993 89.6199 4.48812C88.584 4.22536 87.5864 4.9755 86.6269 6.73855C85.8457 8.17102 85.3617 9.59502 85.1749 11.0105C83.5786 10.4511 82.063 12.4939 80.628 17.1388C79.762 19.9275 78.985 23.4324 78.2973 27.6535C78.3058 26.1193 78.2676 24.8098 78.1826 23.7248Z" fill="#0D131A"/>
<path d="M75.5208 23.4451C74.8075 24.3944 74.349 25.3861 74.1452 26.4202C73.5424 29.4378 73.3853 32.4214 73.674 35.3711C73.8778 37.4817 74.2259 39.1133 74.7184 40.2661C74.7693 40.3932 74.9646 40.5161 75.3042 40.6348L76.96 41.0035C79.1506 41.3171 81.5451 41.3595 84.1433 41.1307C86.9878 40.8679 88.7199 40.3551 89.3398 39.5922C91.5729 36.8544 92.7022 34.2183 92.7276 31.6839C92.7361 30.6922 92.6809 27.8315 92.5621 23.1018L92.3455 11.0105C92.3031 6.88265 92.3158 4.44575 92.3838 3.69984C92.5196 2.24194 92.4389 1.47484 92.1418 1.39856C91.921 1.33923 91.6238 1.55113 91.2502 2.03427C90.7917 2.6276 90.3417 3.50913 89.9002 4.67884L89.8619 4.76784L89.7728 4.78055C88.7963 4.9416 87.8708 5.83584 86.9963 7.46327C86.5208 8.34479 86.0113 9.59079 85.4679 11.2013L85.4297 11.3157H85.3023C83.8164 11.2903 82.2965 13.7611 80.7427 18.7281C79.5285 22.6102 78.7685 26.0007 78.4629 28.8995L78.3482 29.3827C78.2633 29.603 78.1912 29.4462 78.1317 28.9122L77.6859 25.187C77.5331 23.5765 77.3888 22.5848 77.2529 22.2118C77.2274 22.1271 77.168 22.0889 77.0746 22.0974C76.684 22.1228 76.1661 22.5721 75.5208 23.4451Z" fill="#F0E78E"/>
<path d="M77.6859 25.1869C77.5331 23.5765 77.3888 22.5848 77.2529 22.2118C77.2274 22.127 77.168 22.0889 77.0746 22.0974C76.684 22.1228 76.1661 22.572 75.5208 23.4451C74.8075 24.3944 74.349 25.3861 74.1452 26.4202C73.5424 29.4377 73.3853 32.4214 73.674 35.3711C73.8778 37.4816 74.2259 39.1133 74.7184 40.2661C74.7693 40.3932 74.9646 40.5161 75.3042 40.6348L76.96 41.0035L81.1502 41.2578C82.5003 37.7741 83.2942 34.0742 83.532 30.1582L84.4617 20.3937C84.8353 16.7913 85.2217 13.5746 85.6207 10.7435L85.4297 11.3157H85.3023C83.8164 11.2902 82.2965 13.7611 80.7427 18.7281C79.5285 22.6102 78.7685 26.0007 78.4629 28.8995L78.3482 29.3826C78.2633 29.603 78.1912 29.4462 78.1317 28.9122L77.6859 25.1869Z" fill="#C9C279"/>
<path d="M86.1047 28.4672C85.7566 28.8741 85.3023 29.531 84.7419 30.4379C84.1815 31.3449 83.8928 31.8831 83.8758 32.0526C83.8419 32.4595 83.9438 32.8918 84.1815 33.3495L84.9075 34.4811C85.5188 35.4135 85.5783 36.2653 85.0858 37.0366C84.2791 38.3165 83.5829 39.7363 82.997 41.2959L82.8951 41.5375L83.1626 41.5248C84.5296 41.4485 85.7226 41.3002 86.7415 41.0798C88.202 40.7746 89.1529 40.3508 89.5945 39.8084C90.8002 38.325 91.679 37.0239 92.2309 35.9051C92.8507 34.6421 93.1649 33.3919 93.1734 32.1544L93.0588 29.9039L92.7531 29.3318L92.1927 28.0095C91.9634 27.4755 91.8191 27.3484 91.7597 27.6281C91.5898 28.3486 91.4073 29.0309 91.212 29.6751C90.9318 30.6159 90.7662 30.955 90.7153 30.6922C90.4775 29.5395 90.0912 28.6198 89.5563 27.9332C88.5883 26.6957 87.4378 26.8737 86.1047 28.4672Z" fill="#0D131A"/>
<path d="M83.0989 34.7989C82.9376 35.6211 83.0013 36.8163 83.29 38.3844C83.5532 39.8084 83.5956 40.7365 83.4173 41.1688C84.9542 41.0671 86.2448 40.8764 87.2892 40.5966C88.3421 40.3169 89.0256 39.9821 89.3397 39.5922C91.5729 36.8544 92.7022 34.2183 92.7276 31.6839L92.6894 30.3235L92.3073 29.1157C92.0611 28.3952 91.9507 28.179 91.9762 28.4672C92.0017 28.8063 91.7809 29.5607 91.3139 30.7304C90.8469 31.8916 90.6049 32.3154 90.5879 32.0018C90.5455 30.9338 90.1676 29.8785 89.4544 28.8359C88.7411 27.8018 88.1468 27.4458 87.6713 27.7679C86.9835 28.2426 86.1259 29.2216 85.0985 30.7049C83.9692 32.3408 83.3027 33.7055 83.0989 34.7989Z" fill="#BF794E"/>
<path d="M89.0213 28.3019C88.4694 27.7086 88.0194 27.5306 87.6713 27.7679C86.9835 28.2426 86.1259 29.2216 85.0985 30.7049C83.9692 32.3408 83.3027 33.7055 83.0989 34.7989C82.9376 35.6211 83.0013 36.8163 83.29 38.3844C83.5532 39.8084 83.5956 40.7365 83.4173 41.1688C85.3278 41.0416 86.8179 40.7916 87.8878 40.4186L89.4926 35.7525C90.002 33.9556 90.261 32.1967 90.2695 30.4761C89.9638 29.603 89.5478 28.8783 89.0213 28.3019Z" fill="#965E3A"/>
<path d="M85.4679 11.1758L85.1495 11.1122C84.708 13.0618 84.2452 16.1768 83.7612 20.4572C83.3282 24.263 83.0904 26.8779 83.048 28.3019C83.014 29.4632 83.0735 30.0099 83.2263 29.9421C83.3791 29.8743 83.4598 29.2894 83.4683 28.1875C83.4768 26.9161 83.6933 24.3351 84.1178 20.4445C84.5933 16.181 85.0433 13.0914 85.4679 11.1758Z" fill="#0D131A"/>
<path d="M90.1039 4.10668C90.3672 3.30145 90.3459 3.17007 90.0403 3.71254L89.4926 4.75511C89.0511 6.72159 88.5671 10.8071 88.0406 17.0117C87.5736 22.5127 87.3401 26.0176 87.3401 27.5264C87.3401 27.7891 87.4675 27.84 87.7222 27.6789L88.1171 27.3611C88.0661 25.7337 88.2784 21.8643 88.7539 15.753C89.2548 9.20934 89.7049 5.32725 90.1039 4.10668Z" fill="#0D131A"/>
<path d="M94.2942 50.3358L93.8357 48.2252C93.6065 47.1487 93.3942 46.3732 93.1989 45.8985C92.1036 43.2455 90.1676 40.8382 87.3911 38.6768C84.4278 36.3713 81.5111 35.2016 78.6412 35.1677C75.5844 35.1337 72.9395 36.1636 70.7064 38.2572C69.3478 39.5286 67.603 41.902 65.4717 45.3772C63.9688 47.8099 62.8013 49.5814 61.9692 50.6918C60.5258 52.6159 59.0059 54.2009 57.4096 55.4469C53.3 58.6763 45.4034 65.1945 33.7199 75.0015L30.1664 78.6123L34.9426 79.6167C34.8407 79.9134 34.7261 80.5873 34.5987 81.6383C34.4628 82.7317 34.4374 83.3166 34.5223 83.3929C34.6242 83.4776 34.9893 83.3166 35.6176 82.9097L36.6747 82.1596C37.0144 81.8884 37.5535 81.9901 38.2922 82.4647C38.6913 82.719 40.2876 83.9015 43.0811 86.012C46.2737 88.4277 49.4706 89.75 52.6716 89.9789C56.2463 90.2332 61.0904 89.2838 67.2039 87.1309C71.8145 85.5119 75.2236 82.7699 77.4312 78.9047C78.8577 76.4043 79.7747 73.3656 80.1823 69.7886L80.3479 68.3646L80.5262 67.3093C80.8488 67.0127 81.5366 66.5422 82.5895 65.898C83.8037 65.1521 84.6273 64.6181 85.0603 64.296L87.4548 62.6559C88.3888 61.9948 89.0086 61.4353 89.3143 60.9776L89.4416 60.558C90.5964 58.795 91.5474 57.121 92.2946 55.5359C93.0928 53.8576 93.6149 52.3743 93.8612 51.0859C93.8782 50.9673 93.9546 50.8401 94.0904 50.7045C94.2093 50.5773 94.2772 50.4544 94.2942 50.3358Z" fill="#0D131A"/>
<path d="M92.7404 46.0892C91.7469 43.682 89.9384 41.4146 87.3147 39.2871C84.3768 36.9138 81.4856 35.7101 78.6412 35.6762C75.7033 35.6423 73.1688 36.6213 71.0375 38.6132C69.7384 39.8253 68.0233 42.1648 65.892 45.6315C64.4061 48.0557 63.2259 49.8484 62.3513 51.0096C60.8909 52.9507 59.3455 54.5612 57.7153 55.8411C53.6141 59.062 45.7303 65.5717 34.0638 75.3702L31.1471 78.3326L33.1849 78.7649L35.7195 79.337C36.3308 79.5066 36.5516 79.6379 36.3818 79.7312L35.6176 79.7439L35.2355 81.4095C35.0657 82.2401 34.9978 82.6724 35.0317 82.7063L35.6431 82.3122L36.3563 81.7782C36.6535 81.5324 36.8955 81.3883 37.0823 81.3459C37.354 81.2866 37.6851 81.3417 38.0757 81.5112C38.806 81.8248 40.398 82.9098 42.8519 84.766C46.1209 87.2411 49.271 88.6354 52.3023 88.949C55.877 89.322 60.6446 88.4574 66.6053 86.3553C71.0206 84.7957 74.3533 81.9858 76.6033 77.9258C77.843 75.6965 78.8195 72.7765 79.5327 69.1656C79.6601 68.5469 79.7917 68.068 79.9276 67.7289C78.7643 68.2205 78.7813 67.9747 79.9785 66.9915L83.7103 64.1943C86.3425 62.2787 87.96 60.8632 88.5628 59.9478C90.0657 57.6592 91.2078 55.5359 91.9889 53.5779C92.7701 51.6199 93.1607 49.9035 93.1607 48.4286C93.1607 47.5556 93.0206 46.7758 92.7404 46.0892Z" fill="#F0E78E"/>
<path d="M66.6053 86.3553C70.2394 85.0669 73.139 82.9352 75.3042 79.96C69.4625 83.4607 63.7608 85.2237 58.1992 85.2492C53.6141 85.2746 48.3667 84.0498 42.457 81.5747C41.5145 81.2103 40.0159 80.4983 37.9611 79.4388C36.1695 78.6589 34.7642 78.4767 33.7453 78.892C34.4331 79.0277 35.0912 79.176 35.7195 79.337C36.3308 79.5066 36.5516 79.6379 36.3818 79.7312L35.6176 79.7439L35.2355 81.4095C35.0657 82.2401 34.9978 82.6724 35.0317 82.7063L35.6431 82.3122L36.3563 81.7782C36.6535 81.5324 36.8955 81.3883 37.0823 81.3459C37.354 81.2866 37.6851 81.3417 38.0757 81.5112C38.8059 81.8248 40.398 82.9098 42.8519 84.766C46.1209 87.2411 49.271 88.6354 52.3023 88.949C55.877 89.322 60.6446 88.4574 66.6053 86.3553Z" fill="#C9C279"/>
<path d="M80.3351 47.9201C81.5408 48.0557 82.8612 48.4541 84.2961 49.1152C85.1622 49.5136 86.4571 50.2171 88.1807 51.2258C90.0742 52.3192 91.4498 53.0609 92.3073 53.4508L92.4602 53.5271L92.5239 53.3618C93.6956 50.2934 93.8951 47.8184 93.1225 45.9366C92.0271 43.2836 90.1039 40.8848 87.3529 38.7404C84.4065 36.4518 81.5026 35.2906 78.6412 35.2567C75.4995 35.2228 72.7655 36.2314 70.4389 38.2826C68.8936 39.6473 67.0468 42.0588 64.8986 45.5171C63.4212 47.8904 62.2494 49.6619 61.3834 50.8316C59.9144 52.832 58.4752 54.4086 57.0657 55.5613C54.3231 57.816 44.6732 63.9485 28.1159 73.9589C27.4196 74.3488 27.2286 74.5437 27.5427 74.5437L29.122 74.2767L30.7778 73.9335L32.1915 73.641L31.249 74.353C30.8584 74.6497 30.366 74.9972 29.7716 75.3956C29.1263 75.8279 28.8588 76.0483 28.9692 76.0567L30.1409 75.8406L31.9368 75.4846L33.4269 75.1922C32.8326 75.8448 31.9071 76.7518 30.6504 77.913C30.0306 78.4894 29.7504 78.8496 29.8098 78.9937C29.8777 79.1378 30.3278 79.0234 31.1599 78.6505C32.3486 77.9554 33.652 77.201 35.0699 76.3873C37.9314 74.7599 40.8013 73.2554 43.6797 71.8737C53.0198 67.4153 62.2876 64.33 71.4833 62.6178C71.772 62.5584 71.8357 62.4101 71.6744 62.1728L71.0758 61.0539L72.6933 61.4226L72.6041 61.0666C72.0522 59.3205 71.6531 57.3541 71.4069 55.1672C71.1607 53.0312 71.1861 51.8403 71.4833 51.5945C74.4042 48.7974 77.3548 47.5725 80.3351 47.9201Z" fill="#0D131A"/>
<path d="M92.8168 46.0638C91.7469 43.4701 89.8619 41.1179 87.1618 39.0074C84.2749 36.7612 81.4347 35.6211 78.6412 35.5872C75.6099 35.5533 72.9522 36.6171 70.6682 38.7785C69.2926 40.0839 67.4883 42.5335 65.2552 46.1274C63.8033 48.4583 62.6782 50.162 61.8801 51.2385C60.5045 53.0863 59.0993 54.5993 57.6643 55.7775C56.085 57.0744 51.4489 60.1343 43.7562 64.9572L29.5423 73.7428L31.1344 73.5266L32.8411 73.1961C33.3505 73.0689 33.5203 73.0816 33.3505 73.2342L32.9557 73.5012L30.523 75.2685L34.3057 74.7345C34.4841 74.7006 34.2081 75.0523 33.4779 75.7898L31.6311 77.6588C35.8426 75.0396 40.5933 72.5476 45.8831 70.1828C54.6373 66.2837 63.107 63.6222 71.2923 62.1982L70.6172 60.8886L70.4007 60.5326C70.3158 60.3207 70.4347 60.2868 70.7573 60.4309C71.4281 60.7276 71.9078 60.9056 72.1965 60.9649C71.8484 59.8122 71.5512 58.4772 71.305 56.9599C71.0418 55.3834 70.9102 54.078 70.9102 53.0439C70.9102 52.1116 71.0248 51.5479 71.254 51.3529C74.2429 48.488 77.2953 47.242 80.4115 47.6149C81.6597 47.759 83.014 48.1659 84.4744 48.8355C85.349 49.2339 86.6439 49.9332 88.359 50.9334C90.0318 51.9166 91.3394 52.6244 92.2819 53.0566C92.9272 51.3021 93.2498 49.7679 93.2498 48.4541C93.2498 47.581 93.1055 46.7843 92.8168 46.0638Z" fill="#BF794E"/>
<path d="M93.2498 48.4541C93.2498 47.581 93.1055 46.7843 92.8168 46.0638C91.7469 43.4701 89.8619 41.1179 87.1618 39.0074C84.2749 36.7612 81.4347 35.6211 78.6412 35.5872C75.6948 35.5533 73.1008 36.5577 70.8592 38.6005C69.4242 39.9058 67.6624 42.241 65.5736 45.6061C70.1332 43.8685 74.8712 43.5294 79.7874 44.5889C84.7377 45.6569 89.068 47.9709 92.7786 51.5309C93.0927 50.3697 93.2498 49.3441 93.2498 48.4541Z" fill="#965E3A"/>
<path d="M56.6454 61.4226C55.0576 61.804 52.7226 62.5076 49.6404 63.5332C46.4053 64.6181 44.0364 65.3513 42.5335 65.7328L33.134 71.5432C37.0823 70.9159 40.4702 70.8608 43.2976 71.3779C52.2471 67.1483 60.9588 64.2028 69.4327 62.5415C66.2147 60.5326 61.9522 60.1597 56.6454 61.4226Z" fill="#965E3A"/>
<path d="M93.5682 48.8736V48.7719L90.7662 46.9538C88.618 45.5044 87.1364 44.5593 86.3212 44.1185C84.5466 43.1353 82.8781 42.5165 81.3158 42.2622C79.2695 42.2368 76.96 42.9149 74.3872 44.2965C72.9862 45.0509 71.0715 46.3138 68.6431 48.0854L68.1973 48.4159C67.5605 48.8736 67.76 50.624 68.7959 53.6669C69.7724 56.5573 70.9399 59.062 72.2984 61.1811L72.6041 61.0666C72.2475 59.0578 72.0564 57.2566 72.031 55.6631C71.997 53.2728 72.3664 51.7513 73.139 51.0986C76.1618 48.9118 78.6412 47.8692 80.5771 47.9709C81.579 48.3524 82.7253 48.844 84.0159 49.4458L87.5821 51.1749L92.4602 53.5271L92.5239 53.3618C93.1522 51.7259 93.5003 50.2298 93.5682 48.8736Z" fill="#0D131A"/>
<path d="M90.5879 47.2335C88.7029 45.9706 87.2637 45.0763 86.2703 44.5508C84.5891 43.6693 82.9758 43.1056 81.4305 42.8598C79.4436 42.8344 77.2147 43.4786 74.7438 44.7924C73.3428 45.5298 71.4876 46.7419 69.178 48.4286L68.7323 48.7592C68.5624 48.8779 68.4775 49.183 68.4775 49.6746C68.4775 50.7511 68.8257 52.3277 69.5219 54.4044C70.2606 56.5743 71.1309 58.5195 72.1329 60.2402L71.7126 57.6719C71.5682 56.6209 71.4961 55.7182 71.4961 54.9638C71.4961 52.6583 71.8951 51.1622 72.6933 50.4756C74.0094 49.5178 75.3892 48.7846 76.8326 48.2761C78.2421 47.7845 79.503 47.5726 80.6153 47.6404H80.6408L80.6663 47.6531C82.2626 48.2549 84.6146 49.3314 87.7222 50.8825L92.2819 53.0694C92.8508 51.5013 93.1649 50.1281 93.2244 48.9499L90.5879 47.2335Z" fill="#152139"/>
<path d="M81.3285 42.8979L81.1884 42.8216L80.8955 42.7708C80.6747 43.0844 80.4964 43.6523 80.3606 44.4745C80.2417 45.2204 80.1823 45.9917 80.1823 46.7885C80.1823 47.1869 80.212 47.5344 80.2714 47.8311L80.2969 47.9709L80.195 47.9836C80.2035 48.026 80.403 48.1362 80.7936 48.3142L83.6338 49.4585C85.315 50.1366 86.6354 50.713 87.5949 51.1876L90.1549 52.4463L90.0785 52.1031C89.6369 50.1705 88.2105 48.1616 85.799 46.0765C84.4235 44.8898 82.9333 43.8303 81.3285 42.8979Z" fill="#0D131A"/>
<path d="M81.3031 43.2666C81.0993 43.6396 80.921 44.1482 80.7681 44.7923C80.5983 45.4959 80.5134 46.1655 80.5134 46.8012L80.5898 47.6403H80.6535L80.6663 47.6531C82.1691 48.2294 84.5296 49.3059 87.7477 50.8825L89.6454 51.8106C89.136 50.0561 87.7817 48.2294 85.5825 46.3308C84.2749 45.2034 82.8484 44.1821 81.3031 43.2666Z" fill="white"/>
<path d="M80.5898 45.7332C82.9333 45.64 85.2004 46.4282 87.3911 48.0981C86.4571 47.0555 85.3023 46.0256 83.9268 45.0085C83.0437 44.3558 82.1692 43.7752 81.3031 43.2666C80.9719 43.8684 80.7342 44.6906 80.5898 45.7332Z" fill="#DBDCDC"/>
<path d="M86.6269 46.5851C86.3297 46.4325 86.0028 46.4579 85.6462 46.6614C85.2896 46.8563 85.0009 47.1742 84.7801 47.6149C84.5594 48.0642 84.4787 48.488 84.5381 48.8864C84.5976 49.2932 84.7801 49.5729 85.0858 49.7255C85.383 49.8696 85.7099 49.8442 86.0665 49.6492C86.4231 49.4458 86.7118 49.1237 86.9326 48.6829C87.2043 48.132 87.2637 47.6234 87.1109 47.1572C87.0175 46.8775 86.8562 46.6868 86.6269 46.5851Z" fill="#0D131A"/>
<path d="M86.334 47.6912C86.2491 47.6065 86.0877 47.7929 85.85 48.2507C85.4764 48.9372 85.3787 49.2339 85.5571 49.1407C85.7354 49.0389 85.9307 48.7931 86.1429 48.4032C86.3552 48.0133 86.4189 47.776 86.334 47.6912Z" fill="white"/>
<path d="M94.2433 45.7332L94.1796 45.3899L93.9503 45.6569L92.5748 47.4878C91.7427 48.6321 91.3011 49.2932 91.2502 49.4712L91.2375 49.5602L91.3139 49.7382L93.8739 49.6619L93.9758 49.6492L94.0013 49.5475C94.1966 48.9372 94.3239 48.4117 94.3834 47.9709C94.4853 47.1996 94.4386 46.4537 94.2433 45.7332Z" fill="#0D131A"/>
<path d="M94.014 46.9411L93.9503 46.2036C92.5069 48.1362 91.7215 49.2424 91.5941 49.5221C91.8573 49.7001 92.112 49.8187 92.3583 49.8781C92.8338 49.9883 93.2795 49.8442 93.6956 49.4458C93.9079 48.7423 94.014 47.9074 94.014 46.9411Z" fill="white"/>
<path d="M92.4856 49.7382C92.2988 49.45 92.2309 49.0304 92.2818 48.4795L91.5941 49.5221L92.4856 49.7382Z" fill="#0D131A"/>
<path d="M92.6257 48.0726C92.6172 48.8779 92.6724 49.3822 92.7913 49.5856C92.8677 49.7128 93.0036 49.7297 93.1989 49.6365C93.6149 48.6787 93.6956 47.7124 93.4409 46.7376L93.0333 47.3861L92.6257 48.0726Z" fill="#0D131A"/>
<path d="M92.97 48.2888L92.9319 49.0771L93.0082 49.1406C93.0844 48.9372 93.131 48.7422 93.148 48.5558L93.1607 47.8692L93.059 48.0726L92.97 48.2888Z" fill="white"/>
<path d="M12.3864 69.7378L11.5713 69.8395C11.2062 69.9412 11.4864 70.0726 12.4119 70.2336C13.4647 70.4201 15.3115 70.2124 17.9522 69.6106C20.4231 69.0512 22.7199 68.3604 24.8426 67.5382C20.4103 69.7929 16.963 71.3864 14.5006 72.3188L13.8129 72.7002C13.5157 72.9206 13.7789 72.9545 14.6025 72.8019C17.6678 72.234 21.0811 71.2677 24.8426 69.9031C26.9484 69.1402 29.865 67.9705 33.5925 66.3939C32.4632 67.1229 30.8075 68.0934 28.6253 69.3055L23.6963 71.9755L22.1043 72.8273L22.2444 73.2978C24.5539 73.035 27.3602 72.2171 30.6631 70.8439C34.0765 69.4199 37.579 67.5891 41.1707 65.3513C49.6361 60.0622 56.4034 54.006 61.4725 47.1826C62.8311 45.3603 64.6778 44.0168 67.0128 43.1522C69.3563 42.2792 71.9249 41.9825 74.7184 42.2622C78.0723 42.6098 81.0993 43.6862 83.7994 45.4917C86.508 47.2971 88.5076 49.5856 89.7983 52.3574C89.8237 52.4082 89.9766 52.226 90.2568 51.8106C90.554 51.3699 90.728 51.1453 90.779 51.1368C91.0762 51.0944 91.7385 50.3443 92.7659 48.8864C93.7848 47.4539 94.3706 46.4749 94.5235 45.9494L94.7018 45.4281C94.7952 45.1653 94.8419 44.9577 94.8419 44.8051C94.8419 43.6862 94.549 42.4318 93.9631 41.0417C93.3008 39.4566 92.4644 38.2784 91.454 37.5071C90.2653 35.8458 89.0298 34.5659 87.7477 33.6674C86.1854 32.5824 84.2027 31.773 81.7998 31.239C80.1186 30.866 78.5266 30.7134 77.0237 30.7812C76.1576 30.8151 75.041 30.9592 73.674 31.2135L72.2093 31.4551C69.696 31.2941 66.4397 32.1841 62.4405 34.1251C59.4686 35.566 56.6242 37.2867 53.9071 39.2871C51.8862 40.7789 49.6234 42.6479 47.1186 44.8941L40.4574 51.0732C34.4968 56.7184 29.9626 60.681 26.855 62.9611C21.667 66.7753 16.8441 69.0342 12.3864 69.7378Z" fill="#0D131A"/>
<path d="M47.4497 45.2755L40.8141 51.4292C35.3034 56.6421 31.1089 60.3504 28.2305 62.5542C23.4331 66.2074 18.9839 68.5892 14.8827 69.6996C17.8376 69.4199 21.2722 68.4833 25.1865 66.8898C26.4432 66.3727 27.8017 65.7667 29.2621 65.0716C30.6122 64.419 31.4655 64.0121 31.8222 63.8511C32.7222 63.4527 33.0321 63.4061 32.7519 63.7112L32.0642 64.2961L26.7658 67.1059C22.7496 69.1911 19.3957 70.81 16.704 71.9628C19.056 71.4203 22.5118 70.2675 27.0715 68.5045C30.2811 67.2585 33.0576 66.1142 35.4011 65.0716L35.6813 65.4658C34.7982 66.3982 30.8839 68.7122 23.9383 72.4078L23.6709 72.5476C26.0908 72.073 28.8885 71.1194 32.0642 69.6869C35.3671 68.2036 38.7041 66.3685 42.075 64.1816C49.963 59.079 56.293 53.3152 61.0649 46.8902C62.4829 44.9916 64.3976 43.593 66.8091 42.6945C69.2375 41.7876 71.8909 41.4782 74.7693 41.7664C78.1827 42.1139 81.2691 43.2073 84.0287 45.0467C86.7882 46.8775 88.843 49.2042 90.1931 52.0268C90.5582 51.7895 91.2502 50.8062 92.2691 49.0771C93.2711 47.3818 93.8697 46.2079 94.065 45.5552C94.1159 45.3687 94.1414 45.1102 94.1414 44.7797C94.1414 43.6947 93.8952 42.508 93.4027 41.2197C92.8168 39.6855 92.0526 38.5709 91.1101 37.8758L91.0592 37.825C89.9129 36.206 88.7157 34.96 87.4675 34.087C85.9561 33.0359 84.0329 32.2519 81.6979 31.7348C80.0507 31.3788 78.4968 31.2305 77.0364 31.2898C76.1703 31.3237 75.0792 31.4636 73.7631 31.7094L71.9546 31.8874C69.8149 31.9891 66.8303 32.9172 63.0009 34.6718C59.5111 36.2738 56.5817 37.9479 54.2128 39.6939C52.2004 41.1773 49.9461 43.0378 47.4497 45.2755Z" fill="#EFE908"/>
<path d="M91.1101 37.8758L91.0337 37.7995C92.3753 40.4017 93.08 42.0757 93.1479 42.8216C93.1989 43.5167 93.1395 44.3643 92.9696 45.3645C92.7574 46.6359 92.4007 47.8692 91.8998 49.0643L91.2502 50.7045C91.8106 49.8653 92.3838 48.9118 92.9696 47.8438C93.5725 46.7503 93.9376 45.9875 94.065 45.5552C94.1159 45.3687 94.1414 45.1102 94.1414 44.7796C94.1414 43.6947 93.8952 42.508 93.4027 41.2196C92.8168 39.6854 92.0526 38.5708 91.1101 37.8758Z" fill="#E85377"/>
<path d="M88.3845 43.8769C87.0939 41.3934 85.4764 39.749 83.532 38.9438C78.9129 36.9773 74.2386 36.456 69.5092 37.3799C65.4675 38.1597 61.222 40.0415 56.7728 43.0251C53.4868 45.2204 49.5852 48.4074 45.068 52.5862L34.102 62.783C30.9094 65.5717 27.1818 67.9917 22.9194 70.0429C25.1355 69.2546 27.6149 68.3053 30.3575 67.1949L35.4011 65.0716L35.6813 65.4657C34.7982 66.3981 30.8839 68.7121 23.9383 72.4077L23.6708 72.5476C26.0908 72.0729 28.8885 71.1194 32.0641 69.6869C35.3671 68.2036 38.7041 66.3685 42.075 64.1816C49.963 59.079 56.293 53.3152 61.0649 46.8902C62.4829 44.9915 64.3976 43.593 66.8091 42.6945C69.2375 41.7875 71.8909 41.4782 74.7693 41.7664C78.1827 42.1139 81.2691 43.2073 84.0287 45.0466C86.7882 46.8775 88.843 49.2042 90.1931 52.0268C90.3544 51.9166 90.5964 51.6326 90.9191 51.1749C90.1549 48.0811 89.31 45.6484 88.3845 43.8769Z" fill="#CEC90C"/>
<path d="M88.1935 45.3264C86.9962 43.1056 85.867 41.5756 84.8056 40.7365C81.5026 38.3886 77.7241 37.3969 73.4702 37.7614C68.6558 38.1852 64.4358 40.3678 60.8102 44.3092C55.427 50.1747 48.1545 56.214 38.9927 62.427C33.9406 65.8429 29.3258 68.6867 25.1483 70.9583L20.3594 73.4885C20.0792 73.6241 20.1089 73.6792 20.4485 73.6537L22.2953 73.4376C24.6218 73.1918 27.4196 72.412 30.6886 71.0982C34.1359 69.7166 37.6342 67.9323 41.1834 65.7455C49.7083 60.4733 56.4501 54.273 61.4088 47.1445C62.6994 45.2882 64.542 43.9193 66.9364 43.0378C69.2884 42.1817 71.8824 41.8977 74.7184 42.1859C78.0893 42.525 81.1333 43.6014 83.8504 45.4153C86.5675 47.2293 88.5756 49.5305 89.8747 52.3192C89.9171 52.4209 89.9893 52.476 90.0912 52.4845C90.244 52.5099 90.4563 52.3573 90.728 52.0268L90.779 51.9632L90.7662 51.8742C90.2568 49.7552 89.3992 47.5725 88.1935 45.3264Z" fill="#0D131A"/>
<path d="M84.3216 41.1434C81.0696 38.8294 77.41 37.8376 73.3428 38.1682C68.7068 38.5412 64.6141 40.6644 61.0649 44.5381C55.7411 50.3358 48.613 56.2903 39.6805 62.4016C34.1954 66.1566 28.5064 69.6657 22.6137 72.929C24.9912 72.5222 27.8187 71.6067 31.0962 70.1827C34.484 68.6994 37.9356 66.8431 41.4509 64.6139C49.7125 59.3756 56.276 53.4847 61.1413 46.9411C62.5254 45.0763 64.508 43.682 67.0892 42.7581C69.645 41.8426 72.3664 41.5333 75.2533 41.8299C78.6242 42.169 81.63 43.2666 84.2706 45.1229C86.8434 46.9283 88.8048 49.2635 90.1549 52.1285L90.4223 51.8742C89.9299 49.8908 89.0341 47.7844 87.735 45.5552C86.5123 43.4446 85.3745 41.974 84.3216 41.1434Z" fill="#E85377"/>
<path d="M61.1414 46.9411C62.2622 45.4323 63.799 44.2202 65.7519 43.3048C67.6624 42.4148 69.7681 41.902 72.0692 41.7663C69.3521 41.3002 66.7369 41.2705 64.2236 41.6773C63.0943 42.5165 62.0414 43.4701 61.0649 44.5381C55.5628 50.5138 48.1884 56.6378 38.9418 62.9102C34.9426 66.6227 30.4169 69.7505 25.3648 72.2933C30.8754 70.7083 36.887 67.7246 43.3995 63.3425C50.7951 58.3754 56.7091 52.9083 61.1414 46.9411Z" fill="#C94768"/>
<path d="M86.3085 37.1638C85.7481 36.7569 85.3108 36.473 84.9966 36.3119C84.657 36.1255 84.6867 36.2145 85.0858 36.5789L86.3339 37.6978L87.5312 38.8802C88.1425 39.5414 88.7539 40.3593 89.3652 41.3341C90.2058 42.6818 90.6728 43.8176 90.7662 44.7415C90.8426 45.5213 90.8469 46.6741 90.779 48.1998C90.728 49.717 90.728 50.8104 90.779 51.4801L91.1228 51.4546C91.0549 50.6579 91.0549 49.5771 91.1228 48.2125C91.1908 46.7292 91.1823 45.5594 91.0974 44.7033C91.004 43.754 90.52 42.5546 89.6454 41.1052C89.051 40.1304 88.5119 39.3634 88.0279 38.8039L87.3783 38.0665C87.0981 37.7698 86.7415 37.4689 86.3085 37.1638Z" fill="#0D131A"/>
<path d="M90.5497 36.6679L89.6072 35.8034C90.0487 36.3713 90.5667 37.2231 91.1611 38.3589C91.7979 39.588 92.3031 40.7365 92.6767 41.8045C92.9993 42.7284 93.0121 44.0083 92.7149 45.6442C92.4687 46.9919 92.0823 48.2676 91.5559 49.4712L91.887 49.2678C92.5154 47.8184 92.9484 46.6275 93.1861 45.6951C93.5597 44.2202 93.5852 43.0208 93.2626 42.0969C92.872 40.9866 92.4262 39.9313 91.9252 38.9311C91.4413 37.9902 90.9827 37.2359 90.5497 36.6679Z" fill="#0D131A"/>
<path d="M81.838 34.5319C82.2965 34.854 82.6064 35.0278 82.7678 35.0532C82.9546 35.0871 82.7083 34.8244 82.029 34.265C80.7214 33.1885 78.9511 32.4214 76.718 31.9637C74.9688 31.6077 73.0923 31.4636 71.0885 31.5314L70.5281 31.5441L69.3181 32.0527L71.4578 31.8365C72.4937 31.7518 73.8777 31.8662 75.6099 32.1798C78.1317 32.6375 80.2077 33.4216 81.838 34.5319Z" fill="#0D131A"/>
<path d="M84.0669 54.951L84.0414 55.2181C83.982 56.3878 84.1772 57.8669 84.6273 59.6553C85.1197 61.5709 85.6759 62.8 86.2957 63.3425C86.5759 63.5968 87.5864 64.0248 89.327 64.6266C90.9318 65.186 91.921 65.4912 92.2946 65.542C92.4729 65.5759 92.5875 65.5548 92.6385 65.4785C92.6894 65.4107 92.6554 65.3132 92.5366 65.186C92.0526 64.6436 91.8998 63.4738 92.0781 61.6769C92.2818 59.6341 92.9102 57.9092 93.9631 56.5022L94.3961 55.9173L84.0669 54.951Z" fill="#0D131A"/>
<path d="M86.6269 62.9738C86.8561 63.1772 87.5991 63.5205 88.8558 64.0036C90.1294 64.4868 91.1398 64.8089 91.887 64.9699C91.471 64.0206 91.2629 63.067 91.2629 62.1092C91.2629 60.2614 92.0016 58.3373 93.4791 56.3369L84.5381 55.4978V55.6249C84.5381 56.837 84.7546 58.2356 85.1877 59.8206C85.6377 61.4735 86.1174 62.5245 86.6269 62.9738Z" fill="#922F00"/>
<path d="M87.4548 55.3579L84.1433 55.0401L84.1306 55.2181C84.0626 56.3793 84.2537 57.8499 84.7037 59.6299C85.1877 61.5286 85.7354 62.7492 86.3467 63.2916C86.6269 63.5374 87.4335 63.9104 88.7666 64.4105L88.8685 64.4486L88.9449 64.3723C89.7431 63.5247 90.2271 62.5584 90.3969 61.4735C90.5752 60.3377 90.3884 59.1892 89.8365 58.0279C89.6412 57.6126 89.3822 57.2015 89.0596 56.7946C88.7114 56.3454 88.3718 56.0064 88.0406 55.7775L87.4548 55.3579Z" fill="#0D131A"/>
<path d="M84.4617 55.4088V55.5868C84.4617 56.7734 84.6697 58.1635 85.0858 59.7571C85.5358 61.4693 86.0283 62.5627 86.5632 63.0373C86.7925 63.2408 87.5312 63.5798 88.7794 64.0545C89.6115 63.1221 90.0275 62.0075 90.0275 60.7106C90.0275 59.9817 89.828 59.1637 89.4289 58.2568C89.2846 57.9093 89.0808 57.5321 88.8176 57.1252C88.4779 56.6166 88.1553 56.2564 87.8496 56.0445L87.3274 55.6758L84.4617 55.4088Z" fill="#ED8599"/>
<path d="M88.7411 55.396L84.0669 54.951L84.0414 55.2181C83.9735 56.4471 84.1263 57.9304 84.4999 59.668C84.9245 61.6091 85.4382 62.8424 86.041 63.3679C86.3467 63.6391 87.2892 64.046 88.8685 64.5885C90.4223 65.1309 91.5304 65.4446 92.1927 65.5293L92.3328 65.0589C90.694 64.3554 89.5223 63.1094 88.8175 61.3209C88.1213 59.5324 88.0703 57.655 88.6647 55.6885L88.7411 55.396Z" fill="#0D131A"/>
<path d="M84.5381 55.4978V55.6249C84.5381 56.837 84.7546 58.2356 85.1877 59.8206C85.6377 61.4735 86.1174 62.5245 86.6269 62.9738C86.8052 63.1263 87.3189 63.3764 88.168 63.7239L90.6771 64.6266C89.7516 63.9146 89.0341 63.0034 88.5246 61.893C88.0152 60.7827 87.7604 59.5875 87.7604 58.3076C87.7604 57.5193 87.8793 56.6971 88.117 55.8411L84.5381 55.4978Z" fill="#F19963"/>
<path d="M92.4856 48.8228C91.9847 48.6024 91.2587 48.6066 90.3077 48.8355C89.6115 48.9965 89.1275 49.1618 88.8558 49.3314C88.0576 49.7721 86.4061 51.6581 83.9013 54.9892C83.7824 55.1926 83.7272 55.3198 83.7357 55.3706C83.7527 55.4384 83.8588 55.4893 84.0541 55.5232L88.4991 56.4386C91.2842 57.0235 92.7574 57.3498 92.9187 57.4176C93.1055 57.4939 93.8569 58.3415 95.173 59.9605C96.4806 61.571 97.334 62.6898 97.733 63.317C97.9113 63.5883 98.0557 63.5883 98.1661 63.317C98.5397 62.4864 98.9303 61.2573 99.3378 59.6299C99.9152 57.3329 99.9959 55.8453 99.5798 55.1672C98.9175 54.0907 97.6778 52.7854 95.8608 51.2512C94.2815 49.9204 93.1564 49.111 92.4856 48.8228Z" fill="#0D131A"/>
<path d="M90.5242 49.3949C89.794 49.5051 89.31 49.6195 89.0723 49.7382C88.6138 50.001 87.6967 50.9545 86.3212 52.5989C84.9796 54.2094 84.3513 55.0316 84.4362 55.0655L88.652 55.8156C91.454 56.3242 92.9993 56.6675 93.288 56.8455C93.7126 57.1167 94.4088 57.833 95.3768 58.9942C96.4891 60.325 97.3382 61.5455 97.9241 62.6559C98.1788 61.9778 98.425 61.0793 98.6628 59.9605C98.926 58.6721 99.0576 57.6041 99.0576 56.7565C99.0576 56.1038 98.9727 55.6376 98.8029 55.3579C98.1491 54.2814 97.0155 53.0397 95.4023 51.6326C94.0098 50.4121 93.0375 49.6831 92.4856 49.4458L90.5242 49.3949Z" fill="#F19963"/>
<path d="M67.2803 83.876C66.9237 83.5455 66.5246 83.2742 66.0831 83.0623C65.5991 82.8335 65.1533 82.7148 64.7457 82.7063C63.7778 82.6809 62.9075 83.0326 62.1348 83.7616C61.5659 84.3126 60.6531 86.0417 59.3965 88.949C58.1738 91.7801 57.3968 93.9118 57.0657 95.3443L56.5944 95.001C55.6604 94.3399 54.9897 93.7635 54.5821 93.2719C53.8858 92.4158 53.4103 91.3435 53.1556 90.0552L53.1174 89.8263L46.9275 90.4747L47.1058 91.2122C47.1822 91.5343 47.2714 92.3098 47.3733 93.5389C47.4582 94.6069 47.5643 95.2553 47.6917 95.4842C47.8445 95.7554 48.112 96.0139 48.4941 96.2597L49.0163 96.5522L52.2004 98.6754C53.4825 99.5993 54.4675 100.519 55.1552 101.434C55.3081 101.638 55.3463 102.24 55.2699 103.24L55.0151 105.478L54.9132 106.24C54.8368 107.054 55.0533 107.902 55.5628 108.783C56.1572 109.8 56.9213 110.356 57.8554 110.449C58.229 110.483 58.7002 110.36 59.2691 110.08C59.787 109.817 60.2328 109.504 60.6064 109.139C61.1329 108.639 61.3791 108.165 61.3451 107.715C61.3281 107.469 61.1456 107.016 60.7975 106.355L60.3262 105.465C60.1988 105.168 60.1691 104.927 60.2371 104.74C60.2965 104.579 60.4324 104.456 60.6446 104.371C60.9843 104.227 61.4513 103.778 62.0456 103.024C62.6315 102.295 62.9839 101.735 63.1028 101.345C63.3745 100.464 63.7353 99.6205 64.1853 98.8153C64.7288 97.849 65.3231 97.0904 65.9684 96.5394C67.0638 95.6071 68.2865 94.751 69.6365 93.9712C70.2394 93.6236 71.547 92.9371 73.5593 91.9114L74.0815 91.708C74.9391 91.6656 75.6396 91.3266 76.183 90.6909C76.8029 89.9704 76.9939 89.0592 76.7562 87.9573C76.6798 87.6098 76.5014 87.275 76.2212 86.9529C75.9665 86.6562 75.6566 86.4019 75.2915 86.19C74.9603 85.9951 74.591 85.8595 74.1834 85.7832L73.0499 85.7323L73.0881 85.3636C73.0881 84.8126 72.9565 84.3295 72.6933 83.9142C72.4385 83.4904 72.0649 83.1725 71.5725 82.9606C70.8847 82.647 70.1248 82.5834 69.2926 82.7699C68.4775 82.9479 67.8067 83.3166 67.2803 83.876Z" fill="#0D131A"/>
<path d="M67.5605 84.2956C67.8237 84.9652 67.8789 85.6348 67.7261 86.3045C67.5393 87.1012 67.0765 87.6522 66.3378 87.9573C65.6925 88.2285 64.7627 89.3389 63.5485 91.2884C62.5041 92.9498 61.8164 94.2212 61.4852 95.1027C61.2475 95.73 61.0564 96.0478 60.9121 96.0563C60.7677 96.0648 60.789 95.7554 60.9758 95.1282C61.2475 94.2382 61.8885 92.9201 62.899 91.174C64.0877 89.1228 65.0344 87.9531 65.7392 87.6649C66.359 87.4106 66.7921 86.9232 67.0383 86.2027C67.2506 85.5586 67.2633 84.944 67.0765 84.3592C66.4397 83.715 65.7137 83.3844 64.8986 83.3675C64.4486 83.3505 64.0367 83.4141 63.6631 83.5582C63.2386 83.7107 62.9032 83.9523 62.657 84.2829C61.1795 86.2409 59.8168 88.9956 58.5686 92.5472C57.9487 94.3187 57.435 95.9376 57.0275 97.404C56.9341 97.5142 56.8789 97.404 56.8619 97.0734C56.8364 96.7429 56.8577 96.3487 56.9256 95.891L56.3015 95.4079C55.376 94.7552 54.6967 94.1703 54.2637 93.6533C53.525 92.7633 53.0113 91.6699 52.7226 90.373L47.5516 90.9197L47.5898 91.0977C47.7172 91.5978 47.8488 92.3098 47.9846 93.2337C48.1205 94.1068 48.1884 94.6662 48.1884 94.912C48.1884 95.107 48.371 95.3273 48.7361 95.5732L49.2837 95.8783C50.6932 96.8107 51.7716 97.5735 52.5188 98.1669C53.8094 99.1755 54.8198 100.163 55.5501 101.129C55.7029 100.451 55.8218 100.146 55.9067 100.214C56.0001 100.299 55.9661 101.045 55.8048 102.452L55.6647 104.003L55.5118 105.541L55.3972 106.495C55.3972 107.198 55.618 107.906 56.0595 108.618C56.569 109.432 57.1846 109.872 57.9063 109.94C58.1865 109.974 58.5601 109.872 59.0271 109.635C59.5026 109.406 59.9144 109.118 60.2625 108.771C60.6701 108.381 60.8654 108.042 60.8484 107.753C60.8314 107.575 60.6658 107.19 60.3517 106.596C59.9186 105.791 59.7106 105.045 59.7276 104.359C59.7531 103.359 59.8168 102.841 59.9186 102.808C60.029 102.774 60.0927 103.13 60.1097 103.876C60.4069 103.748 60.8739 103.35 61.5107 102.68C62.1645 101.994 62.5338 101.498 62.6188 101.193C62.9075 100.269 63.2895 99.3874 63.765 98.5483C64.3339 97.5312 64.958 96.7344 65.6373 96.158C66.826 95.1493 68.0402 94.2509 69.2799 93.4626C70.3158 92.8014 71.6107 92.0767 73.1645 91.2884L72.5659 91.0087L73.7376 91.0596C74.2896 91.1698 74.8542 90.9324 75.4316 90.3476C76.0769 89.6949 76.3061 88.9236 76.1193 88.0336C75.9835 87.4403 75.6226 86.9698 75.0368 86.6223C74.3575 86.2239 73.7461 86.0968 73.2027 86.2409C73.0499 86.9953 72.6593 87.6395 72.031 88.1735C71.4281 88.7075 70.7531 89.0084 70.0059 89.0762C69.6493 89.1185 68.6855 90.017 67.1147 91.7716C66.0703 92.9413 65.0769 94.1153 64.1344 95.2934C63.6844 95.8529 63.4169 96.0987 63.332 96.0309C63.2641 95.9715 63.3575 95.7045 63.6122 95.2299C63.9349 94.6196 64.8816 93.4117 66.4524 91.6063C68.1676 89.6314 69.2629 88.6227 69.7384 88.5803C70.4092 88.5125 71.0078 88.2413 71.5342 87.7666C71.9843 87.3513 72.2984 86.8851 72.4767 86.368L72.4513 86.3807L72.5277 85.9739C72.6381 85.3636 72.5914 84.8381 72.3876 84.3973C72.1923 83.965 71.8527 83.6387 71.3687 83.4183C70.7573 83.1471 70.078 83.0962 69.3308 83.2657C68.5836 83.4437 67.9935 83.787 67.5605 84.2956Z" fill="#F19963"/>
<path d="M64.7712 83.3675C63.8118 83.3844 63.107 83.6896 62.657 84.2829C61.29 86.0798 60.0248 88.5591 58.8615 91.7207C58.5813 92.4751 58.0082 94.2678 57.1421 97.0989L57.1549 97.671C57.1803 97.7558 57.278 97.7303 57.4478 97.5947C58.2375 95.5689 59.0866 93.4965 59.9951 91.3775C61.8206 87.1478 63.4127 84.4778 64.7712 83.3675Z" fill="#D18456"/>
<path d="M52.4296 94.0093C52.9985 94.1534 53.3127 94.2 53.3721 94.1492C53.4486 94.0813 53.5038 93.9033 53.5377 93.6152C53.5717 93.3015 53.6439 93.0812 53.7542 92.954C53.2957 92.242 52.9518 91.3817 52.7226 90.373L47.5516 90.9197L47.5898 91.0977C47.7172 91.5978 47.8488 92.3098 47.9846 93.2337C48.1205 94.1068 48.1884 94.6662 48.1884 94.912C48.1884 95.107 48.371 95.3273 48.7361 95.5732L49.2838 95.8783C50.6933 96.8107 51.7716 97.5735 52.5188 98.1669C53.8094 99.1755 54.8198 100.163 55.5501 101.129L55.7284 100.494C55.4397 99.985 54.9897 99.4001 54.3783 98.739L52.8372 97.0989C51.6909 95.8359 51.2537 94.8315 51.5254 94.0856C51.5933 93.9076 51.8947 93.8822 52.4296 94.0093Z" fill="#D18456"/>
<path d="M55.5119 105.541L55.3972 106.495C55.3972 107.198 55.618 107.906 56.0595 108.618C56.569 109.432 57.1846 109.872 57.9063 109.94C58.2375 109.974 58.7172 109.817 59.3455 109.47L57.5369 108.529C56.9681 108.207 56.6666 107.703 56.6327 107.016C56.5732 105.363 56.5095 104.079 56.4416 103.164C56.3312 101.477 56.1699 100.718 55.9576 100.888L55.8048 102.452L55.6647 104.003L55.5119 105.541Z" fill="#D18456"/>
<path d="M5.15211 16.465C4.07376 16.7193 3.26712 17.2236 2.73219 17.978C2.29916 18.5798 2.13783 19.1434 2.24821 19.669C2.3501 20.1182 6.34933 21.0845 14.2459 22.5678L28.1795 25.0471L12.7303 24.1698C7.25362 24.0003 3.93791 24.0172 2.78314 24.2207C1.83216 24.3902 1.10619 24.8564 0.605217 25.6192C0.206146 26.2295 0.00660706 26.8864 0.00660706 27.59C0.00660706 28.3443 0.231613 28.9546 0.681633 29.4208C1.02127 29.7768 1.44582 30.0141 1.95528 30.1328L9.72448 31.0991L22.55 32.6757L10.7307 31.951L3.26712 31.4424C2.22274 31.4 1.76847 31.5907 1.90433 32.0145L2.65578 34.6464C3.22467 36.2653 3.81903 37.1808 4.43887 37.3927C4.83795 37.5368 7.79704 37.9902 13.3162 38.7531L26.3582 40.6094C22.5458 40.5585 19.4339 40.5839 17.0224 40.6857C13.8723 40.8213 12.2123 41.084 12.0425 41.4739C11.9067 41.7791 11.8387 42.2114 11.8387 42.7708C11.8387 43.2285 11.9364 43.7456 12.1317 44.3219C12.293 44.8051 12.4883 45.2416 12.7175 45.6315C12.9383 46.0129 13.2185 46.2248 13.5581 46.2672L29.0838 48.1871C23.8534 48.2634 20.958 48.4583 20.3976 48.7719C20.0664 48.9499 19.9009 49.2296 19.9009 49.6111V49.6619C19.9179 50.1366 20.2278 50.6833 20.8306 51.3021C21.3571 51.853 21.8665 52.2345 22.359 52.4464C22.7326 52.6074 24.2737 52.7642 26.9823 52.9168L33.5798 53.1838C28.9182 54.3281 26.4346 55.0274 26.129 55.2816C26.0101 55.3834 25.9507 55.5232 25.9507 55.7012C25.9507 56.0487 26.2054 56.5658 26.7148 57.2523L28.0522 58.8543L28.1286 58.9561L35.2737 58.8162C33.1765 59.24 31.9453 59.6002 31.5802 59.8969L31.3127 60.1003C31.1768 60.2105 31.1089 60.3292 31.1089 60.4563L31.1344 60.7233C31.2702 61.2573 31.7627 61.8549 32.6118 62.5161C33.4354 63.1687 34.1826 63.5586 34.8534 63.6858C35.7365 63.8638 37.9696 63.8892 41.5528 63.7621C37.9951 65.0504 36.1865 66.0125 36.127 66.6482L36.1143 66.7499C36.1143 67.3178 36.5643 67.8052 37.4644 68.212C38.2455 68.5596 39.1668 68.78 40.2282 68.8732C40.899 68.924 41.9433 68.8223 43.3613 68.568C42.4953 69.0427 42.0622 69.4708 42.0622 69.8522V69.9158C42.0877 70.0938 42.2023 70.259 42.4061 70.4116C42.9665 70.8354 44.0746 71.1363 45.7303 71.3143C47.4709 71.5008 49.097 71.4669 50.6083 71.2126L50.8758 71.1745L36.178 17.6728L35.9997 17.6601L28.7654 17.3168L13.0359 16.5667C8.28951 16.3802 5.66156 16.3463 5.15211 16.465Z" fill="#0D131A"/>
<path d="M3.10155 19.2621C3.57704 19.6096 7.18993 20.4615 13.9402 21.8177C19.3999 22.9196 25.5728 24.0893 32.459 25.3268L32.3953 25.8227L18.5381 25.0471C9.20654 24.6148 3.96762 24.6063 2.82135 25.0217C2.04018 25.3098 1.50526 25.793 1.21656 26.4711C1.03825 26.8779 0.961838 27.3145 0.987309 27.7806C1.01278 28.179 1.10618 28.5266 1.26751 28.8232C1.42883 29.1199 1.61563 29.2936 1.82791 29.3445C2.64304 29.5395 11.5373 30.7388 28.5107 32.9426L28.4725 33.4385L2.82135 32.2688C3.11853 33.2012 3.44968 34.0361 3.81479 34.7735C4.32424 35.7991 4.79124 36.384 5.21579 36.5281C6.13281 36.8417 14.403 38.2233 30.0263 40.6729L29.9754 41.1815C25.7044 41.0798 21.926 41.0671 18.64 41.1433C15.0058 41.2281 13.0402 41.4103 12.743 41.6901C12.6411 41.9443 12.5902 42.3088 12.5902 42.7835C12.5902 43.2497 12.6369 43.7116 12.7303 44.1693C12.8322 44.6779 12.9723 45.0763 13.1506 45.3645C13.2949 45.6188 13.4435 45.7502 13.5963 45.7586L32.9811 48.1743L32.9557 48.6829C30.2471 48.666 27.7805 48.6956 25.5558 48.7719C22.7963 48.8651 21.2339 49.0135 20.8688 49.2169C20.716 49.3017 20.6396 49.4331 20.6396 49.6111V49.6492C20.6566 50.0052 20.8858 50.446 21.3273 50.9715C21.7519 51.4801 22.1637 51.8191 22.5628 51.9886C22.8939 52.1327 24.5369 52.2811 27.4918 52.4336L35.4648 52.7388L35.5157 53.2346L30.0645 54.6078C28.0012 55.1587 26.8762 55.5105 26.6894 55.663L26.6766 55.7393C26.6766 55.9258 26.838 56.2818 27.1606 56.8073L28.3578 58.4475L38.4069 58.244L38.4578 58.7526L34.535 59.4773C33.0236 59.8079 32.149 60.0749 31.9113 60.2783C31.8434 60.3461 31.8264 60.4521 31.8603 60.5962C31.9707 61.0369 32.3613 61.5455 33.0321 62.1219C33.7284 62.7237 34.3694 63.0839 34.9553 63.2026C35.6006 63.3298 37.1629 63.3679 39.6423 63.317L43.234 63.2026L43.3231 63.6858C41.6844 64.2198 40.2324 64.7749 38.9673 65.3513C37.5917 65.9786 36.8912 66.4278 36.8658 66.699C36.8318 67.1059 37.1714 67.4704 37.8847 67.7925C38.547 68.0891 39.3409 68.2798 40.2664 68.3646C40.9966 68.4324 42.1768 68.2968 43.8071 67.9577L46.0742 67.4365L46.2143 67.9196C45.2208 68.2502 44.359 68.6104 43.6288 69.0003C42.8986 69.3817 42.5462 69.6657 42.5717 69.8522L42.699 70.0175C43.149 70.3565 44.3633 70.6362 46.3416 70.8566C48.371 71.077 49.6701 71.0431 50.239 70.7549C53.075 68.6274 51.5338 59.2654 45.6157 42.6691C42.6438 34.3624 39.3706 26.1914 35.7959 18.1559L28.7399 17.8127L14.5643 17.1261C9.13861 16.8972 6.17951 16.8421 5.68704 16.9608C4.9738 17.1219 4.35821 17.4482 3.84026 17.9398C3.34779 18.406 3.10155 18.8425 3.10155 19.2494V19.2621Z" fill="#F0E78E"/>
<path d="M17.0861 24.9835L16.9206 25.1361C16.4366 26.6025 16.8272 27.9587 18.0923 29.2047C18.5423 29.6454 19.1791 30.1498 20.0028 30.7177C20.9368 31.3364 21.616 31.7984 22.0406 32.1035L28.5107 32.9427L26.0143 33.0825C23.968 33.1588 21.9769 33.1503 20.041 33.0571C19.3192 34.2353 20.7627 35.8585 24.3713 37.9266C25.5006 38.5708 26.7785 39.2235 28.205 39.8846L30.0263 40.6729L29.9754 41.1815L25.6068 41.1052C24.5794 41.8935 25.4879 43.3048 28.3324 45.3391C29.2324 45.9917 30.2641 46.6571 31.4273 47.3352L32.9812 48.1744L32.9557 48.6829H29.6315C29.5466 49.6492 30.4678 50.7087 32.3953 51.8615C34.3227 52.8108 35.2737 53.2897 35.2482 53.2982L33.4015 53.7559C32.9514 54.9511 33.6604 56.142 35.5284 57.3286C36.4624 57.922 37.4389 58.3966 38.4578 58.7526L36.6238 59.0705C36.9379 60.2487 37.787 61.126 39.1711 61.7023C39.9267 61.9736 40.4787 62.1855 40.8268 62.338C41.4381 62.6008 41.8966 62.9017 42.2023 63.2408L43.234 63.2026L43.3231 63.6858L41.6546 64.2706C41.6801 64.5588 42.1004 64.9233 42.9156 65.364C43.7052 65.7963 44.3972 66.0506 44.9916 66.1269C45.2463 66.6355 45.5392 67.0932 45.8704 67.5L46.0742 67.4365L46.2015 67.856C47.2799 69.0342 48.7785 69.8479 50.6975 70.2972C52.9136 67.3983 51.1051 57.8796 45.2718 41.7409C42.3509 33.6631 39.1923 25.8015 35.7959 18.156L28.7399 17.8127L17.7484 17.266C16.7125 17.8678 16.3517 18.7493 16.6658 19.9105C16.9375 20.9277 17.6041 21.8728 18.6654 22.7458L32.459 25.3268L32.3953 25.8227L27.5045 25.5175L17.0861 24.9835Z" fill="#C9C279"/>
<path d="M19.8754 20.5463C20.4018 21.7923 23.3906 23.39 28.8418 25.3395C30.5485 25.9498 32.3995 26.5601 34.3949 27.1704L36.8658 27.8951L34.0255 27.5137L27.8102 26.967C21.7986 26.6618 18.8437 27.3145 18.9456 28.925C19.0475 30.5354 21.8623 32.2561 27.3899 34.087C29.1135 34.6633 31.007 35.2143 33.0703 35.7398L35.6431 36.3501L33.0448 36.1467C30.99 36.011 29.1602 35.9644 27.5554 36.0068C22.4014 36.134 20.4315 37.0918 21.6457 38.8802C22.8515 40.6687 25.9379 42.0164 30.9051 42.9234C32.4505 43.2116 34.0935 43.4362 35.8341 43.5972L37.9866 43.7625L35.6558 43.6354C33.8218 43.576 32.2042 43.5803 30.8032 43.6481C26.3285 43.8854 24.8893 44.7754 26.4856 46.3181C28.0734 47.8607 30.8499 49.022 34.8152 49.8018L38.6616 50.3739L40.2791 50.5138L38.5979 50.5901L35.0444 50.9206C31.6905 51.3614 30.3787 52.0141 31.1089 52.8786C31.8391 53.7517 34.0553 54.4934 37.7573 55.1036L43.0939 55.7648L38.9545 56.2352C36.3733 56.7184 35.5327 57.3583 36.4327 58.1551C37.3243 58.9518 38.8781 59.5282 41.0942 59.8842L44.151 60.1766L41.5655 61.5498C39.9777 62.5839 39.5404 63.3933 40.2536 63.9782C40.9669 64.5631 42.4316 64.7495 44.6477 64.5376L47.7681 64.0545L45.7812 65.5421C44.567 66.627 44.2189 67.3899 44.7369 67.8306C45.2633 68.2799 46.4096 68.3265 48.1757 67.9705L50.6593 67.2966L49.1182 69.2292C48.2012 70.56 48.0144 71.327 48.5578 71.5305C49.1012 71.7339 49.9588 71.5686 51.1305 71.0346L52.7226 70.17V72.1153C52.8075 73.3783 53.0537 73.9377 53.4613 73.7936L54.9005 73.2723C55.2232 73.1198 55.4482 72.9333 55.5755 72.7129C55.6689 72.5518 55.9364 71.3906 56.3779 69.2292C56.4034 69.0851 56.6454 68.657 57.1039 67.945C57.6473 67.1059 58.0549 66.3897 58.3266 65.7963C59.2946 63.6603 59.2394 61.7956 58.161 60.2021C56.1996 57.2947 55.2614 52.8575 55.3463 46.8902C55.4227 42.0758 56.1487 36.4857 57.5242 30.1201C57.8469 28.6537 57.503 27.2001 56.4926 25.7591C55.5755 24.4453 54.1745 23.2459 52.2895 22.161C50.498 21.1269 48.4814 20.3089 46.2398 19.7071C43.9812 19.1053 41.7947 18.8044 39.6805 18.8044C37.4644 18.8129 34.6029 18.7663 31.0962 18.6645C27.8611 18.5798 25.6874 18.5459 24.5751 18.5628C22.6901 18.5967 21.3868 18.7451 20.6651 19.0078C19.8329 19.3214 19.5697 19.8343 19.8754 20.5463Z" fill="#F0E78E"/>
<path d="M19.8754 20.5463C20.4018 21.7923 23.3906 23.39 28.8418 25.3395C30.5485 25.9498 32.3995 26.5601 34.3949 27.1704L36.8658 27.8951L34.0255 27.5137L27.8102 26.967C21.7986 26.6618 18.8437 27.3145 18.9456 28.925C19.0475 30.5354 21.8623 32.2561 27.3899 34.087C29.1135 34.6633 31.007 35.2143 33.0703 35.7398L35.6431 36.3501L33.0448 36.1467C30.99 36.011 29.1602 35.9644 27.5554 36.0068C22.4014 36.134 20.4315 37.0918 21.6457 38.8802C22.8515 40.6687 25.9379 42.0164 30.9051 42.9234C32.4505 43.2116 34.0935 43.4362 35.8341 43.5972L37.9866 43.7625L35.6558 43.6354C33.8218 43.576 32.2042 43.5803 30.8032 43.6481C26.3285 43.8854 24.8893 44.7754 26.4856 46.3181C28.0734 47.8607 30.8499 49.022 34.8152 49.8018L38.6616 50.3739L40.2791 50.5138L38.5979 50.5901L35.0444 50.9206C31.6905 51.3614 30.3787 52.0141 31.1089 52.8786C31.8391 53.7517 34.0553 54.4934 37.7573 55.1036L43.0939 55.7648L38.9545 56.2352C36.3733 56.7184 35.5327 57.3583 36.4327 58.1551C37.3243 58.9518 38.8781 59.5282 41.0942 59.8842L44.151 60.1766L41.5655 61.5498C39.9777 62.5839 39.5404 63.3933 40.2536 63.9782C40.9669 64.5631 42.4316 64.7495 44.6477 64.5376L47.7681 64.0545L45.7812 65.5421C44.567 66.627 44.2189 67.3899 44.7369 67.8306C45.2633 68.2799 46.4096 68.3265 48.1757 67.9705L50.6593 67.2966L49.1182 69.2292C48.2012 70.56 48.0144 71.327 48.5578 71.5305C49.1012 71.7339 49.9588 71.5686 51.1305 71.0346L52.7226 70.17V72.1153C52.8075 73.3783 53.0537 73.9377 53.4613 73.7936L54.9005 73.2723C55.2232 73.1198 55.4482 72.9333 55.5755 72.7129C55.6689 72.5518 55.9364 71.3906 56.3779 69.2292C56.4034 69.0851 56.6454 68.657 57.1039 67.945C57.6473 67.1059 58.0549 66.3897 58.3266 65.7963C59.2946 63.6603 59.2394 61.7956 58.161 60.2021C56.1996 57.2947 55.2614 52.8575 55.3463 46.8902C55.4227 42.0758 56.1487 36.4857 57.5242 30.1201C57.8469 28.6537 57.503 27.2001 56.4926 25.7591C55.5755 24.4453 54.1745 23.2459 52.2895 22.161C50.498 21.1269 48.4814 20.3089 46.2398 19.7071C43.9812 19.1053 41.7947 18.8044 39.6805 18.8044C37.4644 18.8129 34.6029 18.7663 31.0962 18.6645C27.8611 18.5798 25.6874 18.5459 24.5751 18.5628C22.6901 18.5967 21.3868 18.7451 20.6651 19.0078C19.8329 19.3214 19.5697 19.8343 19.8754 20.5463Z" fill="#F0E78E"/>
<path d="M28.9564 21.805C32.5141 23.0425 35.1548 24.0511 36.8785 24.831C39.672 26.0939 41.8924 27.4713 43.5396 28.9631C45.518 30.7431 46.8384 32.8155 47.5007 35.1804C48.0526 37.1299 48.6257 39.9016 49.2201 43.4955C49.9673 48.0557 50.4767 50.9842 50.7484 52.2811C51.4362 55.5444 52.2641 58.261 53.232 60.4309C54.4293 63.1094 55.9449 65.2496 57.7789 66.8516C58.4242 65.7243 58.8191 64.6902 58.9634 63.7493C59.1502 62.4525 58.8827 61.2701 58.161 60.2021C56.1996 57.2947 55.2614 52.8574 55.3463 46.8902C55.4227 42.0757 56.1487 36.4857 57.5242 30.1201C57.8469 28.6537 57.503 27.2 56.4926 25.7591C55.5755 24.4453 54.1745 23.2459 52.2895 22.161C50.498 21.1269 48.4814 20.3089 46.2397 19.7071C43.9812 19.1053 41.7947 18.8044 39.6805 18.8044L28.1668 18.5882C24.6091 18.512 22.2783 18.6052 21.1745 18.868C22.7283 19.563 25.3223 20.542 28.9564 21.805Z" fill="#C9C279"/>
<path d="M24.5497 17.9907C22.8175 18.1856 21.4547 18.4823 20.4613 18.8807C19.5103 19.2536 19.0348 19.6562 19.0348 20.0885C19.0348 20.6903 19.1919 21.1862 19.506 21.5761C19.8796 22.0423 20.5759 22.517 21.5948 23.0001C23.4204 23.8731 27.7635 25.3438 34.6241 27.412C28.3154 26.6067 23.9001 26.3736 21.3783 26.7127C19.3065 26.9839 18.2706 27.7129 18.2706 28.8995C18.2706 30.2472 19.4381 31.4424 21.7731 32.4849C23.8279 33.4088 27.7083 34.5786 33.4142 35.9941C28.5064 35.655 25.0124 35.7144 22.9321 36.1721C21.3358 36.5281 20.5377 37.1341 20.5377 37.9902C20.5377 39.143 21.2424 40.0966 22.6519 40.8509C24.5539 41.8681 27.9503 42.7242 32.8411 43.4192C29.7419 43.4446 27.6149 43.6523 26.4601 44.0422C25.645 44.3135 25.2374 44.733 25.2374 45.3009C25.2374 46.3859 26.0313 47.3183 27.6191 48.0981C29.6824 49.1067 33.1085 49.895 37.8974 50.4629C34.9001 50.6748 32.8156 50.9673 31.6438 51.3402C30.7523 51.6284 30.3065 52.0056 30.3065 52.4718C30.3065 53.1753 30.9561 53.7474 32.2552 54.1882C33.8854 54.7476 36.8742 55.2647 41.2216 55.7393L37.6809 56.2479C36.3138 56.5361 35.5539 56.8879 35.4011 57.3032C35.1888 57.905 35.677 58.4856 36.8658 59.0451C38.3262 59.7147 40.5211 60.1385 43.4505 60.3165C41.5145 61.2404 40.2791 62.0795 39.7442 62.8339C39.3281 63.4188 39.3621 63.9061 39.8461 64.296C40.4404 64.7877 41.591 64.9826 43.2976 64.8809C44.2316 64.83 45.4586 64.6648 46.9785 64.385C45.6963 65.292 44.8387 66.0888 44.4057 66.7753C44.0151 67.3856 44.0024 67.8476 44.3675 68.1612C45.0977 68.7799 47.0209 68.6019 50.1371 67.6272C49.0078 68.9495 48.3115 70.0048 48.0483 70.793C47.8445 71.4118 47.9167 71.789 48.2648 71.9246C48.8422 72.145 49.5555 72.1111 50.4046 71.8229C51.2536 71.5347 51.9669 71.0855 52.5443 70.4752C52.4763 72.2128 52.5273 73.3698 52.6971 73.9462C52.8499 74.4632 53.1514 74.637 53.6014 74.4675C54.7137 74.0691 55.5331 73.0986 56.0595 71.5559C56.2293 71.0643 56.3609 70.543 56.4543 69.992L56.5435 69.2419C56.535 69.0554 56.5138 68.9113 56.4798 68.8096C56.4119 68.6147 56.3185 68.7503 56.1996 69.2165L55.6265 71.5178C55.1934 72.5518 54.4547 73.2554 53.4103 73.6283L53.283 73.6156C53.0962 73.48 52.9688 72.9672 52.9009 72.0772C52.8499 71.3228 52.8542 70.6278 52.9136 69.992C52.9561 69.5343 52.9051 69.3521 52.7608 69.4453C52.6589 69.5131 52.5358 69.6954 52.3914 69.992C52.2471 70.2802 51.7419 70.6193 50.8758 71.0092C49.9078 71.4584 49.1564 71.5813 48.6215 71.3779C48.5111 71.3355 48.4516 71.2719 48.4431 71.1872C48.3582 70.8481 48.6342 70.2167 49.271 69.2928C49.721 68.6486 50.2262 68.0171 50.7866 67.3983L51.0286 67.1949C51.122 67.0762 50.9819 67.055 50.6083 67.1313L47.7554 67.7925C46.227 68.0807 45.259 68.051 44.8515 67.7035C44.7241 67.5848 44.6647 67.4534 44.6732 67.3093C44.7071 66.894 45.1402 66.3261 45.9723 65.6056C46.5582 65.0886 47.1865 64.6181 47.8573 64.1943L48.2012 63.9528C48.3455 63.8087 48.1884 63.7875 47.7299 63.8892C43.892 64.7368 41.4381 64.7241 40.3683 63.851C40.1645 63.6815 40.0796 63.495 40.1135 63.2916C40.173 62.8339 40.7376 62.2702 41.8075 61.6006C42.5717 61.1175 43.3783 60.6937 44.2274 60.3292L44.4821 60.2148C44.5925 60.13 44.4864 60.0622 44.1637 60.0113L40.8395 59.6681C38.8357 59.346 37.4049 58.7992 36.5473 58.0279C36.3181 57.8245 36.2289 57.6465 36.2799 57.4939C36.4157 57.0955 37.2818 56.7395 38.8781 56.4259C40.1857 56.1716 41.5952 56.0063 43.1066 55.9301L43.6161 55.8156C43.8453 55.7309 43.6755 55.6546 43.1066 55.5868L37.2988 54.8748C33.9619 54.3153 31.941 53.6161 31.2363 52.7769C31.0919 52.6074 31.0537 52.4591 31.1216 52.3319C31.3254 51.8573 32.4802 51.4631 34.5859 51.1495C36.3096 50.8867 38.2116 50.7299 40.2918 50.6791L40.9159 50.5519C41.1876 50.4587 40.9796 50.3909 40.2918 50.3485C37.8974 50.179 35.8766 49.9247 34.2293 49.5856C30.7226 48.8567 28.1795 47.7294 26.6002 46.2036C26.1162 45.7459 25.9422 45.3603 26.078 45.0466C26.3667 44.4194 27.8102 44.021 30.4084 43.8515C32.2934 43.7244 34.4628 43.7286 36.9167 43.8642L37.9738 43.9405L38.5342 43.8515C38.8484 43.7752 38.8484 43.7201 38.5342 43.6862L37.0823 43.5464C34.1869 43.326 31.5589 42.9446 29.1984 42.4021C25.2841 41.5121 22.8133 40.3042 21.7859 38.7785C21.5821 38.4903 21.4802 38.2233 21.4802 37.9775C21.4802 37.8249 21.5184 37.6851 21.5948 37.5579C22.1043 36.7188 24.1506 36.2568 27.7338 36.1721L35.6303 36.5154L36.3436 36.4899C36.6238 36.4306 36.2799 36.278 35.3119 36.0322L31.8349 35.1931C29.7801 34.676 27.9757 34.159 26.4219 33.6419C21.6415 32.0484 19.2046 30.4719 19.1112 28.9122C19.1027 28.6156 19.2216 28.3486 19.4678 28.1112C20.5377 27.145 23.7685 26.844 29.1602 27.2085L34.5987 27.7298L37.0441 28.0604L37.7064 28.0731C38.0035 28.0392 37.804 27.9248 37.1077 27.7298C34.1614 26.9415 31.2617 26.0388 28.4088 25.0217C23.3397 23.2162 20.5462 21.7032 20.0282 20.4827C19.9433 20.2877 19.9646 20.1097 20.0919 19.9487C20.7797 19.0587 23.9043 18.5882 29.4659 18.5374C34.085 18.495 37.4813 18.6391 39.655 18.9697L39.7187 18.6391C33.8345 17.7322 28.7781 17.516 24.5497 17.9907Z" fill="#0D131A"/>
<path d="M13.711 15.4987C12.8619 15.6936 12.4034 15.825 12.3354 15.8928C12.2081 16.0115 12.6284 16.1344 13.5964 16.2615C18.9456 16.9651 24.66 18.1856 30.7395 19.9232C36.5389 21.5761 41.7693 23.4324 46.4308 25.4921L46.6473 25.5811L46.711 25.4031C47.0591 24.386 47.3606 23.2374 47.6153 21.9575C47.7596 21.254 47.9507 20.1309 48.1884 18.5882L48.2139 18.4102L47.2969 17.9652C42.2533 16.2531 37.0695 15.1257 31.7457 14.5832C25.3181 13.9391 19.3065 14.2442 13.711 15.4987Z" fill="#0D131A"/>
<path d="M47.7554 18.7027C42.7627 17.0074 37.5493 15.8547 32.1151 15.2444C25.4752 14.49 19.7183 14.7358 14.8445 15.9818C17.6805 16.3717 21.1533 17.0329 25.2629 17.9652C33.5331 19.847 40.5721 22.2076 46.3799 25.0471C46.8808 23.5129 47.3393 21.3981 47.7554 18.7027Z" fill="#F0E78E"/>
<path d="M56.085 21.8812C54.5142 21.0675 52.4891 20.1987 50.0097 19.2748C46.486 17.9695 42.9198 16.9184 39.3111 16.1217C38.6064 16.2827 38.0205 16.5624 37.5535 16.9608C38.1394 17.3761 39.1286 17.8211 40.5211 18.2958L42.4443 18.868L40.4447 19.0968C38.9927 19.3172 37.9441 19.5842 37.2988 19.8978C38.2583 20.2284 39.5362 20.7115 41.1325 21.3472L43.2467 22.1991H41.5655C40.3003 22.2076 39.2942 22.2288 38.547 22.2627C41.7311 23.3646 44.4609 24.4241 46.7365 25.4412C49.1904 26.5347 50.931 27.5009 51.9584 28.3401C53.2066 29.3657 53.9156 30.5948 54.0854 32.0272C54.1533 32.6121 54.0726 33.7479 53.8434 35.4346L52.5697 44.4109C51.9839 49.7001 52.0051 53.1202 52.6334 54.6713C53.1344 55.9004 54.0811 58.3627 55.4736 62.0583C56.8492 65.2454 58.144 67.1356 59.3583 67.7289C60.8781 68.4663 62.4023 67.9154 63.9306 66.076C65.3656 64.3469 66.3463 62.1134 66.8727 59.3756C67.2888 57.2142 66.6605 56.5191 64.9877 57.2905C64.1556 57.6719 63.2811 58.2695 62.364 59.0832C60.9121 57.3456 59.8253 55.9089 59.1035 54.7731C57.7704 52.6794 57.1464 50.9503 57.2313 49.5856C57.3077 48.1532 57.936 44.7034 59.1163 39.2362C60.2116 34.1675 60.9673 30.9719 61.3833 29.6497C61.74 28.5138 61.447 27.2128 60.5045 25.7464C59.5026 24.1698 58.0294 22.8814 56.085 21.8812Z" fill="#BF794E"/>
<path d="M43.2467 22.1991H41.5655C40.3003 22.2076 39.2942 22.2288 38.547 22.2627C41.7311 23.3646 44.4609 24.4241 46.7365 25.4412C49.1903 26.5347 50.931 27.501 51.9584 28.3401C53.2066 29.3657 53.9156 30.5948 54.0854 32.0272C54.1533 32.6121 54.0726 33.7479 53.8434 35.4347L52.5697 44.4109C51.9839 49.7001 52.0051 53.1202 52.6334 54.6713C53.1344 55.9004 54.0811 58.3627 55.4736 62.0583C56.8492 65.2454 58.144 67.1356 59.3582 67.7289C60.1819 68.1358 61.0394 68.1315 61.931 67.7162C62.7546 67.3348 63.54 66.6355 64.2872 65.6183C63.8797 65.8133 63.5018 65.9447 63.1537 66.0125L62.2749 65.9743C59.6342 64.6097 57.7535 62.5754 56.6327 59.8715C55.6817 57.6083 55.2359 54.7688 55.2953 51.3529C55.3293 49.0305 55.6392 45.8731 56.2251 41.8808C56.9129 37.2443 57.3077 34.2692 57.4096 32.9554C57.6813 29.2598 56.1657 26.5855 52.8627 24.9327C51.657 24.3309 49.9885 23.7545 47.8573 23.2035L42.266 21.805L43.2467 22.1991Z" fill="#965E3A"/>
<path d="M37.1969 19.7198L36.9931 19.8597C36.9082 19.9614 36.9846 20.0419 37.2224 20.1013C37.5875 20.186 39.239 20.8133 42.1768 21.983L40.1008 21.9703L37.9611 21.9957L38.4833 22.4025C41.7608 23.5299 44.5713 24.6318 46.9148 25.7082C49.1904 26.7593 50.8249 27.6917 51.8183 28.5054C53.2363 29.6666 53.9368 31.1033 53.9198 32.8155C53.9028 33.6886 53.5674 36.4942 52.9136 41.2324C52.2683 45.8943 51.9457 49.0644 51.9457 50.7426L51.9966 53.0439C52.0476 53.7814 52.1579 54.3493 52.3278 54.7476L53.3721 57.5321C54.493 60.6089 55.2953 62.6644 55.7793 63.6985C56.8067 65.9108 57.8256 67.2839 58.8361 67.8179C60.2541 68.5553 61.3961 68.7037 62.2622 68.2629C63.349 67.7204 64.4571 66.3897 65.5864 64.2706C66.5883 62.3804 67.1444 60.8759 67.2548 59.7571C67.3312 58.8416 67.3185 58.3754 67.2166 58.3585C67.1147 58.3331 66.9534 58.7145 66.7326 59.5028C66.1128 61.749 65.3826 63.5332 64.542 64.8555C63.7863 66.0421 62.916 66.8855 61.931 67.3856C61.0819 67.8094 60.1819 67.7713 59.2309 67.2712C58.2714 66.7711 57.2737 65.4446 56.2378 63.2916C55.635 62.0372 54.8496 60.0707 53.8816 57.3922L52.8372 54.5951C52.5146 53.7983 52.3532 52.5184 52.3532 50.7554C52.3532 49.2212 52.7056 46.2927 53.4104 41.9698C54.1491 37.4774 54.5439 34.3963 54.5948 32.7265C54.6288 31.6077 54.4887 30.7346 54.1745 30.1074C53.8858 29.5225 53.2787 28.8487 52.3532 28.0858C50.5616 26.611 46.4053 24.725 39.8843 22.428L41.6037 22.3644L43.2467 22.4025C43.892 22.4449 44.1 22.3941 43.8708 22.25C43.7519 22.1737 43.5694 22.0932 43.3231 22.0084L41.4381 21.2583C40.0117 20.6903 38.8272 20.2369 37.8847 19.8978C38.5809 19.652 39.5447 19.4444 40.7758 19.2748L42.457 19.0714L42.9538 19.0205C43.183 18.9527 43.0302 18.8341 42.4953 18.6645C39.5574 17.7406 38.0418 17.1685 37.9484 16.9481C37.8974 16.821 38.0587 16.6811 38.4323 16.5285C38.721 16.4014 39.0437 16.2997 39.4003 16.2234C42.7797 16.9693 46.1803 17.9864 49.6022 19.2748C52.0476 20.1987 54.1788 21.1269 55.9958 22.0593C57.8044 22.9916 59.129 23.9664 59.9696 24.9835C60.8696 26.0685 61.3154 27.3187 61.3069 28.7342C61.2984 29.3361 61.0819 30.3829 60.6574 31.8747C60.1394 33.697 59.821 34.9346 59.7021 35.5872C59.5578 36.3925 59.0781 38.6217 58.2629 42.2749C57.5072 45.8434 57.0912 48.2761 57.0148 49.5729V49.8145C57.0148 51.23 57.7365 53.0821 59.1799 55.3706C60.3857 57.2778 61.3961 58.5577 62.2112 59.2104C62.7377 59.6342 63.0051 59.7867 63.0136 59.6681C63.0306 59.5579 62.8693 59.3163 62.5296 58.9433C61.6551 58.0025 60.7083 56.748 59.6894 55.1799C58.1101 52.7642 57.3586 50.9037 57.4351 49.5984C57.503 48.3524 58.2714 44.8983 59.7404 39.2362C61.2687 33.5148 62.1093 30.2939 62.2622 29.5734C62.5848 28.0816 62.3853 26.7 61.6635 25.4285C60.8739 24.03 59.4729 22.8136 57.4605 21.7795C55.7114 20.8811 53.4316 19.9105 50.6211 18.868C46.9275 17.5118 43.3656 16.4565 39.9352 15.7021L38.7635 15.9564C37.9399 16.1853 37.4262 16.4353 37.2224 16.7065C36.8827 17.1643 38.254 17.8508 41.3362 18.7663C39.3494 19.0205 37.9696 19.3384 37.1969 19.7198Z" fill="#0D131A"/>
<path d="M42.8391 79.2989C41.2174 79.6295 40.8438 80.5534 41.7183 82.0706C42.6693 83.7235 43.3061 84.9864 43.6288 85.8595C44.1977 87.3682 44.4524 88.9617 44.393 90.64L45.9086 91.975C46.452 92.526 46.8256 93.0812 47.0294 93.6406C47.1058 93.3185 47.1695 92.7972 47.2205 92.0767C47.2629 91.3902 47.3351 90.8689 47.437 90.5129C47.6068 90.8773 47.9379 91.4283 48.4304 92.1657C48.8974 92.8777 49.2201 93.4372 49.3984 93.844C49.4578 93.6152 49.5045 93.2083 49.5385 92.6234C49.5809 92.0894 49.6446 91.6911 49.7295 91.4283C50.0352 91.725 50.3154 92.0979 50.5701 92.5472C50.8588 93.0388 51.0202 93.4668 51.0541 93.8313C51.173 93.4414 51.2324 92.8269 51.2324 91.9877C51.2324 91.1655 51.3004 90.5637 51.4362 90.1823C51.657 90.284 51.916 90.5722 52.2131 91.0469C52.5188 91.5385 52.7693 91.8394 52.9646 91.9496C52.9985 91.0596 53.1132 90.3391 53.3085 89.7882L53.6906 90.5892L54.1109 91.3902C54.1278 89.9238 54.3231 88.699 54.6967 87.7157C55.1213 86.5799 55.8812 85.4441 56.9765 84.3083C57.52 83.7404 56.8704 82.9775 55.0279 82.0197C53.3127 81.1297 51.2324 80.3966 48.787 79.8202C46.1888 79.2014 44.2062 79.0277 42.8391 79.2989Z" fill="#F0E78E"/>
<path d="M42.5207 83.0242C42.0622 82.1342 41.7141 81.5069 41.4763 81.1424C41.3235 80.9221 41.2004 80.8797 41.107 81.0153C41.0136 81.1509 41.039 81.3459 41.1834 81.6002L41.9476 83.075C42.5589 84.338 43.0387 85.8552 43.3868 87.6267C43.5736 88.5337 43.7392 89.4703 43.8835 90.4366C43.9514 90.6739 44.3335 91.1019 45.0298 91.7207C45.8449 92.4497 46.3671 92.971 46.5964 93.2846C46.9954 93.8525 47.2289 93.8482 47.2969 93.2719L47.5389 91.1231L48.112 92.0131L48.9271 93.3736C49.1564 93.8059 49.3135 94.0262 49.3984 94.0347C49.5003 94.0432 49.5809 93.7889 49.6404 93.2719L49.8442 91.886L50.3536 92.5471C50.5149 92.7845 50.6381 93.0472 50.723 93.3354C50.8843 93.844 51.0201 94.0729 51.1305 94.022C51.2324 93.9796 51.3046 93.7592 51.347 93.3609L51.4744 91.7589L51.5763 90.5637L52.2131 91.3139L52.8499 92.1403L53.0919 92.4709C53.1599 92.5048 53.1853 92.3352 53.1684 91.9623C53.1514 91.5978 53.1641 91.2927 53.2066 91.0469L53.3594 90.3857L53.6141 90.9324C53.8094 91.3732 53.9665 91.5597 54.0854 91.4919C54.1958 91.4325 54.3019 91.1316 54.4038 90.5891C54.5991 89.572 54.9217 88.4955 55.3718 87.3597C55.9322 85.9611 56.5095 84.9991 57.1039 84.4736C57.8511 83.8124 58.1143 83.4903 57.8936 83.5073C57.6813 83.5242 57.3332 83.7362 56.8492 84.143C56.0086 84.8381 55.3166 85.8128 54.7731 87.0673C54.2722 88.2285 53.992 89.4025 53.9325 90.5891L53.3976 89.572C53.1938 89.1397 53.0707 89.0168 53.0283 89.2033L52.7863 91.5046C52.124 90.64 51.7037 90.1357 51.5254 89.9916C51.364 89.856 51.2706 89.8051 51.2452 89.839L51.2324 90.106L51.0032 92.9413C50.706 92.2801 50.3324 91.7249 49.8824 91.2757L49.7423 91.0469C49.6404 90.9536 49.5724 91.0596 49.5385 91.3647L49.2838 93.1956L48.4686 91.8479L47.628 90.4239C47.5941 90.2967 47.5516 90.2035 47.5007 90.1441C47.3988 90.0255 47.3096 90.1272 47.2332 90.4493C47.1228 90.9663 47.0209 91.8055 46.9275 92.9667C46.5794 92.3819 45.9383 91.6868 45.0043 90.8816L44.5968 90.3603C44.5968 88.2836 43.9047 85.8382 42.5207 83.0242Z" fill="#0D131A"/>
<path d="M94.6636 86.6732C94.2305 85.9442 93.5088 85.3551 92.4984 84.9059C91.5729 84.4821 90.9191 84.3719 90.537 84.5753C90.0954 84.8126 89.845 85.2873 89.7855 85.9993C89.7346 86.6944 89.8917 87.1054 90.2568 87.2326C91.0209 87.4954 91.5644 87.703 91.887 87.8556C92.7446 88.2794 93.5555 88.8431 94.3197 89.5466L95.0457 90.2077C95.1645 90.2586 95.2622 90.0848 95.3386 89.6864C95.449 89.1779 95.4362 88.6608 95.3004 88.1353C95.19 87.703 94.9777 87.2156 94.6636 86.6732Z" fill="#0D131A"/>
<path d="M93.2116 88.1353C93.9249 88.6184 94.515 89.1524 94.982 89.7373V89.7246C95.0924 88.9448 94.9353 88.148 94.5107 87.3343C93.8569 86.0883 92.6809 85.2958 90.9827 84.9567C90.7025 85.0245 90.469 85.2703 90.2822 85.6942C90.07 86.1773 90.1549 86.5799 90.537 86.902C91.4625 87.1309 92.354 87.542 93.2116 88.1353Z" fill="#EEEEEF"/>
<path d="M90.2186 85.8594C90.0997 86.2663 90.2058 86.6138 90.537 86.902C91.7087 87.1902 92.7956 87.7454 93.7975 88.5676C92.804 87.0842 91.6111 86.1815 90.2186 85.8594Z" fill="#C8C9CA"/>
<path d="M88.5119 79.6167C87.493 79.7185 86.8689 79.9516 86.6396 80.316C86.3764 80.7398 86.3976 81.2738 86.7033 81.918C87.0175 82.5537 87.3613 82.8335 87.7349 82.7572L89.4544 82.4902C90.4138 82.4224 91.3988 82.5029 92.4092 82.7317L93.3644 82.9479C93.4918 82.9309 93.4918 82.7317 93.3644 82.3503C93.2031 81.8502 92.9356 81.4095 92.562 81.028C92.2479 80.6975 91.8191 80.3796 91.2757 80.0745C90.5285 79.6591 89.6072 79.5066 88.5119 79.6167Z" fill="#0D131A"/>
<path d="M87.8114 82.3376C88.7199 82.0664 89.6964 81.9731 90.7407 82.0579C91.5983 82.1257 92.3752 82.2952 93.0715 82.5665C92.7743 81.829 92.2394 81.2145 91.4667 80.7229C90.278 79.9685 88.8642 79.871 87.2255 80.4305C87.0217 80.6254 86.941 80.9517 86.9835 81.4095C87.0429 81.935 87.3189 82.2444 87.8114 82.3376Z" fill="#EEEEEF"/>
<path d="M87.009 81.562C87.1024 81.9859 87.3699 82.2444 87.8114 82.3376C88.6265 82.1003 89.5011 82.0028 90.4351 82.0452C91.1993 82.0791 91.9337 82.202 92.6385 82.4139C91.7469 81.9138 90.8384 81.5875 89.9129 81.4349C88.9279 81.2654 87.96 81.3078 87.009 81.562Z" fill="#C8C9CA"/>
<path d="M81.4559 80.405C81.1502 80.8119 81.1205 81.3501 81.3668 82.0198C81.6215 82.6724 81.9399 82.9776 82.322 82.9352L84.0541 82.8335C85.0136 82.8504 85.9858 83.02 86.9708 83.342L87.9133 83.6345C88.0406 83.6345 88.0576 83.4353 87.9642 83.0369C87.8538 82.5283 87.6288 82.0664 87.2892 81.6511C87.009 81.3035 86.6099 80.9518 86.092 80.5958C85.3872 80.1126 84.4829 79.8753 83.3791 79.8838C82.3517 79.8922 81.7106 80.066 81.4559 80.405Z" fill="#0D131A"/>
<path d="M87.6585 83.2276C87.4208 82.4647 86.9411 81.8078 86.2193 81.2569C85.107 80.4008 83.706 80.1762 82.0163 80.583C81.7955 80.761 81.6894 81.0789 81.6979 81.5366C81.7064 82.0621 81.9526 82.3927 82.4366 82.5283C83.3706 82.3503 84.3513 82.3503 85.3787 82.5283C86.2278 82.6724 86.9878 82.9097 87.6585 83.2403V83.2276Z" fill="#EEEEEF"/>
<path d="M86.2957 82.7317C85.124 82.2995 83.6296 82.0621 81.8125 82.0197C81.9314 82.274 82.1394 82.4436 82.4366 82.5283C83.6593 82.291 84.9457 82.3588 86.2957 82.7317Z" fill="#C8C9CA"/>
<path d="M73.6103 104.041C73.0159 103.982 72.498 104.058 72.0564 104.27C71.4026 104.575 71.1309 105.13 71.2413 105.935C71.3177 106.461 71.7295 106.974 72.4767 107.474C73.1645 107.931 73.899 108.241 74.6801 108.402C75.2066 108.504 75.7415 108.512 76.2849 108.427C76.701 108.359 77.0746 108.254 77.4057 108.109C77.6689 107.991 77.8048 107.91 77.8133 107.868L77.4312 107.601L75.3806 106.368C74.6249 105.783 74.2046 105.181 74.1197 104.562C74.1028 104.443 74.0476 104.333 73.9542 104.232C73.8523 104.113 73.7376 104.049 73.6103 104.041Z" fill="#0D131A"/>
<path d="M72.0947 104.905C71.8399 105.143 71.6956 105.465 71.6616 105.872C72.3749 107.016 73.4108 107.724 74.7693 107.995C75.6354 108.165 76.3953 108.118 77.0491 107.855C76.2425 107.542 75.508 107.075 74.8457 106.457C74.124 105.77 73.7419 105.105 73.6995 104.46C72.9777 104.435 72.4428 104.583 72.0947 104.905Z" fill="#EEEEEF"/>
<path d="M71.6616 105.872C72.3239 106.923 73.2749 107.609 74.5146 107.931C73.4362 107.041 72.7188 105.969 72.3621 104.715L72.0947 104.905C71.8399 105.143 71.6956 105.465 71.6616 105.872Z" fill="#C8C9CA"/>
<path d="M79.3417 92.9795C79.4521 92.4624 79.4393 91.9496 79.3035 91.441C79.1931 91.0003 78.9808 90.5129 78.6666 89.9789C78.2336 89.2499 77.5119 88.6566 76.5015 88.1989C75.5759 87.7751 74.9221 87.6649 74.54 87.8683C74.09 88.1056 73.8395 88.5803 73.7886 89.2923C73.7377 89.9874 73.8947 90.3985 74.2598 90.5256C74.9986 90.7799 75.5377 90.9918 75.8774 91.1613C76.7434 91.5766 77.5586 92.1361 78.3228 92.8396L79.0487 93.5007C79.1591 93.5516 79.2568 93.3778 79.3417 92.9795Z" fill="#0D131A"/>
<path d="M78.9851 93.0303C79.0954 92.2505 78.9384 91.4537 78.5138 90.64C77.86 89.394 76.684 88.6015 74.9858 88.2625C74.7056 88.3303 74.4721 88.5718 74.2853 88.9872C74.0731 89.4703 74.158 89.8772 74.5401 90.2077C75.4656 90.4366 76.3571 90.8434 77.2147 91.4283C77.9279 91.9199 78.5181 92.4539 78.9851 93.0303Z" fill="#EEEEEF"/>
<path d="M74.4127 88.771C74.2598 89.0084 74.1834 89.2415 74.1834 89.4703C74.1834 89.75 74.3023 89.9958 74.54 90.2077C75.4655 90.4366 76.3571 90.8434 77.2147 91.4283C77.9279 91.9199 78.518 92.4539 78.985 93.0303L78.9978 92.4073C78.4628 91.797 77.7369 91.1528 76.8198 90.4747L74.4127 88.771Z" fill="#C8C9CA"/>
<path d="M76.425 84.855C76.1024 84.5245 75.6736 84.2108 75.1386 83.9142C74.3999 83.4904 73.4829 83.3336 72.3876 83.4437C71.3687 83.5455 70.7446 83.7786 70.5153 84.143C70.2436 84.5668 70.2648 85.1008 70.579 85.745C70.8847 86.3807 71.2243 86.6605 71.5979 86.5842L73.3173 86.3172C74.2768 86.2494 75.2618 86.3299 76.2722 86.5587L77.2274 86.7749C77.3548 86.7579 77.3548 86.5587 77.2274 86.1773C77.0661 85.6772 76.7986 85.2365 76.425 84.855Z" fill="#0D131A"/>
<path d="M76.9472 86.3935C76.6416 85.656 76.1024 85.0415 75.3297 84.5499C74.1495 83.7955 72.7357 83.698 71.0885 84.2575C70.8847 84.4524 70.804 84.7787 70.8465 85.2365C70.9059 85.762 71.1819 86.0714 71.6744 86.1646C72.5914 85.8934 73.5721 85.8001 74.6165 85.8849C75.4656 85.9527 76.2425 86.1222 76.9472 86.3935Z" fill="#EEEEEF"/>
<path d="M76.8836 86.2536C75.975 85.6179 75.0155 85.1813 74.0051 84.944C72.9522 84.6897 71.9036 84.6685 70.8592 84.8804C70.8253 85.1771 70.8635 85.4356 70.9739 85.656C71.1097 85.9273 71.3432 86.0968 71.6744 86.1646C72.5914 85.8934 73.5721 85.8001 74.6165 85.8849C75.4656 85.9527 76.2425 86.1222 76.9472 86.3934L76.8836 86.2536Z" fill="#C8C9CA"/>
<path d="M66.3251 83.5836C65.2977 83.5921 64.6566 83.7658 64.4019 84.1049C64.0962 84.5033 64.0665 85.0373 64.3127 85.7069C64.5674 86.368 64.8859 86.6774 65.2679 86.635L67.0001 86.5333C67.9511 86.5503 68.9233 86.7155 69.9167 87.0292L70.8465 87.3343C70.9739 87.3258 70.9951 87.1266 70.9102 86.7367C70.7913 86.2197 70.562 85.7577 70.2224 85.3509C69.9337 84.9949 69.5346 84.6431 69.0252 84.2956C68.3289 83.8125 67.4289 83.5751 66.3251 83.5836Z" fill="#0D131A"/>
<path d="M68.3247 86.2155C69.1653 86.3596 69.9252 86.5969 70.6045 86.9275C70.3667 86.1646 69.887 85.5077 69.1653 84.9568C68.053 84.0922 66.652 83.8633 64.9623 84.2702C64.7415 84.4482 64.6311 84.766 64.6311 85.2238C64.6396 85.7493 64.8858 86.0841 65.3698 86.2282C66.3038 86.0417 67.2888 86.0375 68.3247 86.2155Z" fill="#EEEEEF"/>
<path d="M67.5223 85.3C66.5798 84.9779 65.6288 84.8465 64.6693 84.9059C64.6184 85.1941 64.6396 85.4526 64.733 85.6814C64.8434 85.9527 65.0557 86.1349 65.3698 86.2282L67.9044 86.1519C68.6516 86.2451 69.3606 86.4231 70.0314 86.6859C69.2757 86.0671 68.4393 85.6052 67.5223 85.3Z" fill="#C8C9CA"/>
<path d="M58.3393 107.563C57.4478 107.792 57.0784 108.436 57.2313 109.495C57.2992 110.021 57.711 110.534 58.4667 111.034C59.146 111.491 59.8805 111.801 60.6701 111.962L62.2749 112C62.691 111.932 63.0603 111.822 63.383 111.669L63.7905 111.428C63.7905 111.385 63.6632 111.296 63.4084 111.161C62.4065 110.635 61.6805 110.19 61.2305 109.826C60.4578 109.19 60.0757 108.529 60.0842 107.842C59.9484 107.707 59.7149 107.605 59.3837 107.537L58.3393 107.563Z" fill="#0D131A"/>
<path d="M57.6516 109.432C58.3648 110.576 59.3965 111.284 60.7465 111.555C61.6126 111.733 62.3725 111.691 63.0263 111.428C62.2197 111.106 61.4895 110.635 60.8357 110.017C60.1055 109.322 59.7191 108.656 59.6767 108.02C58.9549 107.995 58.4243 108.143 58.0846 108.465C57.7959 108.745 57.6516 109.067 57.6516 109.432Z" fill="#EEEEEF"/>
<path d="M58.0846 108.465C57.7959 108.745 57.6516 109.067 57.6516 109.432C58.3648 110.576 59.3965 111.284 60.7465 111.555L60.9758 111.593C59.9569 110.754 59.0398 109.678 58.2247 108.364L58.0846 108.465Z" fill="#C8C9CA"/>
</svg>
