<svg width="100" height="130" viewBox="0 0 100 130" fill="none" xmlns="http://www.w3.org/2000/svg">
<path d="M65.8654 107.627L67.5262 108.765C69.6532 110.137 70.9062 111.172 71.285 111.873L71.6346 113.054L71.5909 113.405L70.5856 114.324L70.1923 114.499L70.4108 114.893L70.4982 115.286L70.1049 117.518C67.9487 116.497 65.8508 116.001 63.8112 116.03L59.0909 115.943C57.6049 115.797 56.7599 115.564 56.5559 115.243C55.4196 113.405 55.9732 111.566 58.2168 109.728C60.4895 107.861 63.039 107.161 65.8654 107.627Z" fill="#FFFBDA"/>
<path d="M65.8654 107.627L66.9144 108.328C65.8654 108.824 65.137 109.276 64.729 109.684C63.8549 110.939 63.549 112.15 63.8112 113.317C64.0152 114.28 64.6125 115.272 65.6032 116.293L63.3304 116.249L59.7465 115.812L57.8671 115.33C57.0804 115.068 56.6434 114.849 56.556 114.674C55.9732 113.682 55.8712 112.806 56.25 112.048C56.6579 111.318 57.5612 110.589 58.9598 109.859L62.7623 109.115L65.8654 107.627Z" fill="#DCD9BD"/>
<path d="M56.5996 101.938C58.6975 102.025 60.3584 102.594 61.5822 103.645C62.1358 104.112 63.3013 104.914 65.0787 106.052C65.8654 106.519 66.0693 107.088 65.6905 107.759L63.986 109.466C63.0827 110.137 61.6696 110.487 59.7465 110.516C58.4062 110.574 57.4592 111.027 56.9056 111.873C56.2646 112.806 56.3228 113.944 57.0804 115.286L55.2447 114.674C53.1177 113.769 51.5734 112.996 50.6119 112.354C49.0385 111.304 48.1498 110.195 47.9458 109.028C47.6836 107.569 48.3829 106.023 50.0437 104.389C51.8502 102.609 54.0355 101.792 56.5996 101.938Z" fill="#914897"/>
<path d="M56.5996 101.938C58.6975 102.025 60.3584 102.594 61.5822 103.645C62.1358 104.112 63.3013 104.914 65.0787 106.052C65.8945 106.519 66.113 107.248 65.7342 108.24C65.3846 109.057 64.8018 109.772 63.986 110.385C63.0536 111.085 61.5239 111.464 59.3968 111.523C58.3479 111.552 57.6777 111.975 57.3864 112.792C57.0658 113.609 57.2261 114.601 57.8671 115.768L55.2447 114.674C53.1177 113.769 51.5734 112.996 50.6119 112.354C49.0385 111.304 48.1498 110.195 47.9458 109.028C47.6836 107.569 48.3829 106.023 50.0437 104.389C51.8502 102.609 54.0355 101.792 56.5996 101.938Z" fill="#7F3C83"/>
<path d="M31.25 118.613C29.2395 118.846 27.7827 118.861 26.8794 118.656C25.9761 118.423 25.306 118.044 24.8689 117.518C24.3736 116.906 24.3444 116.716 24.7815 116.949L28.4965 115.374C30.9732 114.324 32.5612 114.032 33.2605 114.499L34.7028 115.812L36.1014 117.168L36.757 117.825L31.25 118.613Z" fill="#7F3C83"/>
<path d="M52.3164 122.727C53.1032 122.318 53.7296 121.545 54.1958 120.407C54.5455 119.59 54.9971 119.006 55.5507 118.656C56.1626 118.306 56.993 118.19 58.042 118.306L59.8339 118.35L63.1556 119.794L66.1276 121.195C68.109 122.274 69.056 123.398 68.9685 124.565L67.7885 124.258L66.4773 124.127C67.468 125.061 67.8613 126.184 67.6574 127.497C66.8998 127.147 65.7926 126.826 64.3357 126.534C64.5688 127.293 64.6125 127.876 64.4668 128.285C59.9213 126.826 56.6142 126.024 54.5455 125.878C53.38 125.79 52.433 125.528 51.7046 125.09C51.0053 124.652 50.4079 123.967 49.9126 123.033L52.3164 122.727Z" fill="#FFFBDA"/>
<path d="M62.4563 121.282C63.5344 121.516 64.7436 121.968 66.0839 122.639C67.4825 123.339 68.3566 123.937 68.7063 124.433L66.5647 124.215C65.3701 122.902 64.0006 121.924 62.4563 121.282Z" fill="#DCD9BD"/>
<path d="M58.6539 122.639C61.8299 122.843 64.4085 124.244 66.3899 126.84L64.292 126.403C63.651 125.557 62.8205 124.783 61.8007 124.083C60.6935 123.295 59.6445 122.814 58.6539 122.639Z" fill="#DCD9BD"/>
<path d="M63.8549 112.223L67.5263 112.923C68.7209 113.069 69.6824 114.382 70.4109 116.862C70.6148 117.533 70.5274 117.883 70.1486 117.912L68.4004 117.343C67.0892 116.643 65.035 116.322 62.2378 116.381L57.8235 116.249C57.0367 116.074 56.4249 115.461 55.9878 114.411L56.0752 114.017C56.1918 113.871 56.2646 113.857 56.2937 113.973C56.6434 114.82 57.5321 115.345 58.9598 115.549L62.4563 115.637L65.8217 115.768C67.2786 115.943 68.5169 116.322 69.5367 116.906C69.3036 115.739 68.9977 114.893 68.6189 114.367C68.1236 113.725 67.4534 113.39 66.6084 113.361C65.7052 113.332 64.6853 113.054 63.549 112.529C63.0245 112.296 62.8205 112.15 62.9371 112.092L63.8549 112.223Z" fill="#0D131A"/>
<path d="M65.2098 111.041C64.9184 110.924 64.8164 110.808 64.9039 110.691C65.0204 110.574 65.2826 110.574 65.6906 110.691L69.4493 111.304C70.4108 111.333 71.2267 111.639 71.8969 112.223C72.4796 112.748 73.0624 113.609 73.6451 114.805C74.1696 115.826 74.4027 116.424 74.3444 116.599L72.9021 116.468L70.8042 115.768L70.4109 115.33C70.236 115.068 70.2069 114.951 70.3234 114.98C71.8094 115.243 72.8001 115.52 73.2955 115.812L72.0717 113.273C71.4307 112.34 70.5857 111.858 69.5367 111.829C67.7011 111.741 66.2587 111.479 65.2098 111.041Z" fill="#0D131A"/>
<path d="M59.6154 104.783L60.1835 104.214L61.8881 106.621C62.7331 107.788 63.3741 108.474 63.8112 108.678C65.2098 109.32 67.1328 109.684 69.5804 109.772C70.7168 109.801 72.1591 110.56 73.9073 112.048C75.6264 113.302 75.6847 113.857 74.0821 113.711L72.8147 113.798L72.5087 113.404C72.3922 113.142 72.3922 113.011 72.5087 113.011L74.3007 113.142L72.1154 111.347C71.0955 110.706 70.236 110.37 69.5367 110.341L65.6905 109.947C64.3502 109.655 63.4615 109.291 63.0244 108.853C61.5967 107.569 60.4603 106.212 59.6154 104.783Z" fill="#0D131A"/>
<path d="M69.1871 117.737L71.4161 117.256C71.9114 116.935 72.2756 116.322 72.5087 115.418C72.6253 114.893 72.975 114.382 73.5577 113.886C74.1405 113.332 74.7378 113.04 75.3497 113.011L76.4423 113.054L77.4913 112.967L79.9388 113.93L81.8182 114.63C83.6247 115.126 84.7611 116.191 85.2273 117.825L83.3916 117.737C84.1492 118.934 84.4843 120.057 84.3969 121.107C83.3479 120.611 82.2698 120.319 81.1626 120.232C81.7453 121.632 81.8036 122.216 81.3374 121.983L78.8462 121.02L75.9178 120.188L72.2028 119.619C70.3089 119.182 69.3036 118.554 69.1871 117.737Z" fill="#FFFBDA"/>
<path d="M80.1136 115.637C82.1533 115.987 83.7267 116.716 84.8339 117.825L83.2168 117.65C82.0804 116.629 81.046 115.957 80.1136 115.637Z" fill="#DCD9BD"/>
<path d="M70.7168 119.138C70.0466 118.817 69.5804 118.438 69.3182 118C70.1923 118.087 70.9499 117.956 71.5909 117.606C72.2902 117.197 72.6981 116.614 72.8147 115.855C74.2133 117.022 75.7721 117.941 77.4913 118.613C78.1031 118.846 78.7587 119.298 79.458 119.969C80.1573 120.64 80.5798 121.253 80.7255 121.807C79.8805 121.311 78.5548 120.845 76.7482 120.407L72.8584 119.707C72.0717 119.678 71.3578 119.488 70.7168 119.138Z" fill="#DCD9BD"/>
<path d="M75.5682 116.512C76.9376 116.424 78.5111 116.818 80.2885 117.693C82.0658 118.598 83.3479 119.663 84.1346 120.888C83.0857 120.392 82.0804 120.159 81.1189 120.188C80.0699 118.642 78.2197 117.416 75.5682 116.512Z" fill="#DCD9BD"/>
<path d="M55.7255 78.8299C56.2791 77.6044 57.1824 76.3936 58.4353 75.1973C59.8922 73.8552 61.3199 73.0528 62.7185 72.7902C64.8456 72.4401 66.3607 72.7173 67.264 73.6218C67.7011 74.0594 67.9779 76.131 68.0944 79.8365L68.2255 84.782C68.3129 86.8243 68.546 88.6187 68.9248 90.1651C69.6241 93.0244 71.4598 99.4725 74.4318 109.509C74.7815 110.706 75.5099 111.639 76.6171 112.31C77.229 112.69 77.4621 112.981 77.3164 113.186L76.486 113.317C75.6119 113.2 74.8397 113.361 74.1696 113.798C73.412 114.265 72.9749 114.936 72.8584 115.812C72.7418 116.599 72.3194 117.183 71.5909 117.562C70.9208 117.942 70.1195 118.087 69.1871 118L68.4878 116.118L67.3951 114.28C64.2191 110.428 61.655 107.117 59.7028 104.345C58.9452 103.266 58.3333 102.142 57.8671 100.975C57.4301 99.9248 57.2115 99.0932 57.2115 98.4805C57.2407 97.576 56.8328 94.1331 55.9878 88.1519C55.2885 83.1043 55.2011 79.9969 55.7255 78.8299Z" fill="#914897"/>
<path d="M57.3427 86.445C58.042 83.9358 59.4988 81.3974 61.7133 78.8298C63.8403 76.379 65.7634 74.9056 67.4825 74.4095C67.7739 75.5766 67.9633 77.5752 68.0507 80.4054L68.1818 85.7448C66.0839 86.5034 64.4085 87.9476 63.1556 90.0775C61.757 92.4701 61.4219 94.9939 62.1504 97.649C62.7914 99.9539 64.1171 102.915 66.1276 106.533C67.9342 109.801 69.595 112.354 71.1101 114.192L72.8147 115.855C72.6981 116.614 72.2902 117.197 71.5909 117.606C70.9499 117.956 70.1923 118.087 69.3182 118L69.0997 117.518C68.9831 117.022 67.5991 115.024 64.9476 111.523C62.3543 108.08 60.5332 105.818 59.4843 104.739C58.4353 103.689 57.6486 101.033 57.1241 96.7736C56.5705 92.4263 56.6434 88.9834 57.3427 86.445Z" fill="#7F3C83"/>
<path d="M31.9056 113.798C33.4791 114.674 34.4115 115.316 34.7028 115.724C35.3147 116.512 36.116 117.241 37.1067 117.912L36.2763 118.087C35.9849 118.262 35.8246 118.481 35.7955 118.744C35.7081 119.678 35.3002 120.349 34.5717 120.757C33.8433 121.166 32.6195 121.443 30.9004 121.589C29.3561 121.676 28.38 121.837 27.9721 122.07C27.4476 122.391 26.9231 123.193 26.3986 124.477C24.4464 123.981 22.4068 122.741 20.2798 120.757C19.4056 119.969 18.9831 118.919 19.0123 117.606C19.0414 116.293 19.5368 115.111 20.4983 114.061C21.285 113.273 22.334 112.763 23.6451 112.529L27.4476 112.31C28.584 112.31 30.07 112.806 31.9056 113.798Z" fill="#914897"/>
<path d="M67.3514 76.2915C67.2349 75.1828 67.0163 74.4679 66.6958 74.147C65.5594 73.0091 64.2337 72.5714 62.7185 72.834C61.3199 73.0966 59.8922 73.899 58.4353 75.2411C57.1824 76.4374 56.2791 77.6482 55.7255 78.8736C54.7931 80.8869 55.2885 87.4371 57.2115 98.5243C57.6195 100.888 59.7319 104.272 63.549 108.678L67.3077 113.711V113.755C68.4441 115.272 69.0997 116.293 69.2745 116.818C69.5659 117.723 69.9883 118.335 70.542 118.656C71.0956 118.977 72.13 119.254 73.6451 119.488L77.7098 120.232C78.6131 120.494 79.7203 120.918 81.0315 121.501C80.711 120.246 80.0554 119.225 79.0647 118.438C78.2197 117.737 76.9959 117.168 75.3934 116.731C74.9563 116.585 74.8106 116.483 74.9563 116.424L75.8741 116.468C78.9044 117.285 80.7692 118.686 81.4685 120.67C81.7599 121.487 81.7745 121.953 81.5122 122.07C81.2791 122.187 80.6235 122.012 79.5455 121.545C78.0594 120.874 76.0635 120.407 73.5577 120.144C72.0425 119.998 70.9062 119.692 70.1486 119.225C69.3619 118.758 68.8083 118.029 68.4878 117.037C68.3712 116.599 67.6282 115.461 66.2587 113.623L62.1941 108.503L57.7797 103.689C56.4394 102.084 55.6527 100.698 55.4196 99.5309C55.0408 96.6132 54.7349 93.5788 54.5018 90.4277C54.0356 84.0963 54.1812 80.1283 54.9388 78.5235C55.5507 77.2106 56.5268 75.9268 57.8671 74.6722C59.4406 73.1841 61.014 72.2942 62.5874 72.0025C64.5688 71.6524 66.1276 72.0462 67.264 73.1841L67.6136 73.5343C68.0216 73.9427 68.2838 74.8035 68.4004 76.1164L68.5315 80.3617C68.6772 84.8257 69.0997 88.4874 69.799 91.3468C71.5472 98.4368 73.31 104.666 75.0874 110.035C75.3788 110.968 76.0344 111.741 77.0542 112.354C77.8992 112.879 79.1958 113.405 80.9441 113.93C82.9837 114.542 84.3094 115.432 84.9213 116.599L85.4895 117.956L84.4843 118.087L83.3479 118.044C83.2022 118.073 83.0857 117.985 82.9983 117.781C82.9108 117.606 82.9254 117.504 83.042 117.475L84.7465 117.606C84.3386 116.264 83.0128 115.243 80.7692 114.542C78.4091 113.842 76.588 112.981 75.3059 111.96C74.8689 111.668 74.5338 111.143 74.3007 110.385L71.4161 100.756L68.6189 90.3839C68.0361 88.0206 67.6719 84.5631 67.5262 80.0115L67.3514 76.2915Z" fill="#0D131A"/>
<path d="M82.0367 116.424C83.3188 117.241 84.1492 118.277 84.528 119.532C84.7902 120.407 84.8485 120.932 84.7028 121.107L83.479 120.976L81.25 120.538C81.1334 120.538 81.0169 120.436 80.9003 120.232C80.7838 119.998 80.7838 119.882 80.9003 119.882C82.0076 119.853 83.1002 120.101 84.1783 120.626C84.1492 119.225 83.4062 118.014 81.9493 116.993C81.0169 116.322 79.6474 115.68 77.8409 115.068C77.4038 114.922 77.2727 114.82 77.4475 114.761L78.3217 114.849C79.8951 115.345 81.1334 115.87 82.0367 116.424Z" fill="#0D131A"/>
<path d="M38.3741 9.15535C39.3939 12.4815 39.1608 15.8952 37.6748 19.3964C36.451 22.3141 34.8047 24.7212 32.736 26.6177C30.7255 28.4267 28.5693 29.55 26.2675 29.9877L22.8584 30.294C21.7803 30.2065 20.8624 29.8564 20.1049 29.2436C15.1223 36.7421 12.6311 45.4952 12.6311 55.5029C12.6311 62.7679 13.782 70.3539 16.0839 78.2608C17.2494 82.2289 18.444 85.5113 19.6678 88.108C21.0373 90.8507 21.722 93.0535 21.722 94.7166C21.722 95.446 21.5326 95.9129 21.1538 96.1171C20.338 96.6715 18.8519 95.4898 16.6958 92.5721C10.81 84.5193 6.57048 76.2768 3.97724 67.8447C1.32573 59.1208 0.495307 50.3823 1.48598 41.6292C2.30183 34.5684 4.05009 27.741 6.73074 21.1471C9.09088 15.3117 11.7715 10.6142 14.7727 7.05461C17.5116 3.84515 20.775 1.8903 24.5629 1.19006C27.9429 0.548164 30.8857 1.00041 33.3916 2.54678C35.7809 4.00563 37.4417 6.20848 38.3741 9.15535Z" fill="#0D131A"/>
<path d="M37.2377 9.59306C38.141 12.4816 37.8933 15.5743 36.4947 18.8713C35.3001 21.7307 33.7849 24.0648 31.9493 25.8738C30.1428 27.6536 28.1905 28.7477 26.0926 29.1562C24.898 29.3896 23.7616 29.375 22.6835 29.1124C21.6055 28.8498 20.7168 28.383 20.0175 27.7119L19.6678 27.318L19.3619 27.7557C12.0483 38.4636 9.76105 51.7537 12.5 67.6259C13.8694 75.5912 16.0111 82.5499 18.9248 88.502C19.7698 90.2234 20.3525 91.8282 20.6731 93.3162C20.9353 94.5708 20.9499 95.271 20.7168 95.4169L20.0612 95.0668C19.391 94.5416 18.5023 93.535 17.3951 92.047C11.655 84.2276 7.5466 76.0143 5.06991 67.4071C2.62236 58.7707 1.89392 50.0614 2.88459 41.2792C3.64217 34.3934 5.40499 27.7703 8.17306 21.4097C10.5041 16.0703 13.1993 11.5771 16.2587 7.92998C18.9394 4.7497 21.926 2.88238 25.2185 2.32802C27.9574 1.86119 30.4487 2.32802 32.6923 3.72851C34.9067 5.09982 36.4219 7.05467 37.2377 9.59306Z" fill="#914897"/>
<path d="M36.5822 8.01752C38.243 11.2853 38.2139 14.9033 36.4947 18.8713C35.3001 21.7307 33.785 24.0648 31.9493 25.8738C30.1428 27.6536 28.1906 28.7477 26.0926 29.1562C24.898 29.3896 23.7616 29.375 22.6836 29.1124C21.6055 28.8498 20.7168 28.383 20.0175 27.7119L19.6678 27.318L19.3619 27.7557C12.0484 38.4636 9.76106 51.7537 12.5 67.6259C13.8695 75.5912 16.0111 82.5499 18.9248 88.502L19.7552 90.3401C13.1702 82.4332 9.48426 71.6378 8.69754 57.9538C7.85255 43.8613 10.5332 31.9863 16.7395 22.3288C16.7978 22.1829 17.0309 22.2996 17.4388 22.6789C18.0216 23.2333 18.648 23.6126 19.3182 23.8168C21.7949 24.6046 25.2622 23.4375 29.7203 20.3156C31.7016 20.3156 33.5082 18.7838 35.1399 15.7202C36.7424 12.715 37.2232 10.1474 36.5822 8.01752Z" fill="#7F3C83"/>
<path d="M21.1975 8.98037C22.8292 7.87165 24.4901 7.3027 26.1801 7.27352C27.8992 7.24434 29.2104 7.75494 30.1136 8.80531C31.1334 10.0016 31.7162 11.4458 31.8619 13.1381C31.9784 14.6845 31.687 16.2892 30.9877 17.9523C30.6964 18.7109 30.4341 19.0318 30.201 18.9151C29.9388 18.7984 29.9825 18.317 30.3321 17.4708C30.7401 16.3913 30.9003 15.1513 30.8129 13.7508C30.6964 12.0585 30.2156 10.7018 29.3706 9.68062C28.7296 8.92202 27.6806 8.60107 26.2238 8.71778C24.7377 8.80531 23.2954 9.34508 21.8968 10.3371C18.2546 12.8755 16.6958 16.7268 17.2203 21.8911C17.4242 24.0502 18.2984 25.9467 19.8426 27.5806L19.6678 28.8061C18.7063 28.2225 17.905 27.391 17.264 26.3114C16.5355 25.1152 16.0985 23.7585 15.9528 22.2413C15.3409 16.2017 17.0891 11.7814 21.1975 8.98037Z" fill="#0D131A"/>
<path d="M39.2482 119.094C41.0839 119.823 42.3368 120.48 43.007 121.063C43.6771 121.676 44.1288 122.624 44.3619 123.908L41.4336 123.252C41.8415 123.923 42.1183 124.652 42.264 125.44L42.5262 127.716C40.1078 126.549 38.5198 125.951 37.7622 125.921L37.9808 128.022C38.039 128.81 37.9808 129.233 37.8059 129.291C37.6602 129.35 37.2669 129.16 36.6259 128.722L34.7902 127.541C33.275 126.695 30.405 125.732 26.1801 124.652C26.5006 123.368 26.9085 122.493 27.4038 122.026C27.9574 121.472 28.8607 121.224 30.1136 121.282C31.9201 121.399 33.3042 121.209 34.2657 120.713C35.1398 120.276 35.6206 119.619 35.708 118.744C35.7954 118.073 36.1597 117.752 36.8007 117.781C36.8298 118.014 37.6457 118.452 39.2482 119.094Z" fill="#FFFBDA"/>
<path d="M21.9406 119.707C22.6982 120.582 24.3299 121.603 26.8357 122.77L26.2675 124.477C23.9365 123.602 22.3631 122.829 21.5472 122.158C19.8281 120.815 18.9248 119.459 18.8374 118.087C18.75 116.833 19.3036 115.491 20.4983 114.061L21.9406 115.024L21.2413 116.556C20.9208 117.752 21.1539 118.802 21.9406 119.707Z" fill="#7F3C83"/>
<path d="M34.6154 127.409C33.246 126.68 31.9348 126.155 30.6819 125.834L26.2675 124.477L26.8357 122.77L30.4196 124.171C34.324 125.367 36.7716 127.03 37.7623 129.16L34.6154 127.409Z" fill="#DCD9BD"/>
<path d="M35.7517 68.5888C35.0524 69.6683 34.3094 70.4123 33.5227 70.8208C28.4528 73.4759 24.9417 75.8684 22.9895 77.9983C21.2704 79.8948 19.4493 83.7024 17.5262 89.4211C15.37 95.7817 14.6416 100.537 15.3409 103.689C16.0111 106.752 17.06 109.232 18.4878 111.129C19.8864 112.996 21.7366 114.367 24.0385 115.243L26.792 115.637L28.8899 115.068C30.1719 114.601 31.2209 114.426 32.0367 114.542L32.299 114.586C39.8164 115.753 44.8135 115.447 47.2902 113.667C47.873 113.229 48.8199 112.631 50.1311 111.873C52.9575 110.21 55.0262 108.751 56.3374 107.496C58.581 105.337 60.169 102.726 61.1014 99.6622C61.7133 97.5614 62.1212 95.3294 62.3252 92.9661L62.5 87.014C62.5 84.8257 62.5437 83.3231 62.6311 82.5062C62.7477 80.989 63.0536 79.7781 63.5489 78.8736C64.0734 77.8233 65.0204 76.627 66.3899 75.2849C56.3374 74.2637 46.6346 70.5874 37.2815 64.256L37.0629 65.569C36.8007 66.5902 36.3636 67.5968 35.7517 68.5888ZM21.6783 77.6044C23.4848 75.6204 27.229 73.082 32.9108 69.9893C33.9015 69.4641 34.7028 68.5888 35.3147 67.3634C35.9557 66.0796 36.2471 64.6353 36.1888 63.0306C46.183 70.1206 56.3665 74.1324 66.7395 75.0661C65.4283 76.2915 64.5105 77.9254 63.986 79.9678C63.4907 81.8935 63.243 84.5194 63.243 87.8455C63.2721 94.5271 62.5583 99.4288 61.1014 102.551C59.4406 106.139 56.0315 109.466 50.8741 112.529L48.0769 114.367C45.4545 116.264 40.1515 116.614 32.1678 115.418L31.9056 115.374C31.2063 115.286 30.2885 115.447 29.1521 115.855L26.8794 116.468C25.8887 116.585 24.8543 116.439 23.7762 116.03C21.2121 115.038 19.1434 113.667 17.5699 111.916C15.88 109.991 14.6853 107.482 13.986 104.389C13.2576 101.033 13.9569 96.0734 16.0839 89.5086C18.0361 83.5274 19.9009 79.5593 21.6783 77.6044Z" fill="#0D131A"/>
<path d="M22.9895 77.9983C24.9417 75.8684 28.4528 73.4759 33.5227 70.8208C34.3095 70.4123 35.0525 69.6683 35.7518 68.5888C36.3637 67.5967 36.8007 66.5901 37.063 65.5689L37.2815 64.256C46.6346 70.5874 56.3374 74.2637 66.3899 75.2848C65.0204 76.627 64.0734 77.8232 63.549 78.8736C63.0536 79.7781 62.7477 80.9889 62.6311 82.5061C62.5437 83.3231 62.5 84.8257 62.5 87.014L62.3252 92.9661C62.1212 95.3294 61.7133 97.5614 61.1014 99.6622C60.169 102.726 58.581 105.337 56.3374 107.496C55.0262 108.751 52.9575 110.21 50.1311 111.873C48.82 112.631 47.873 113.229 47.2902 113.667C44.8135 115.447 39.8165 115.753 32.299 114.586L32.0367 114.542C31.2209 114.426 30.1719 114.601 28.8899 115.068L26.792 115.637L24.0385 115.243C21.7366 114.367 19.8864 112.996 18.4878 111.129C17.06 109.232 16.0111 106.752 15.3409 103.689C14.6416 100.537 15.3701 95.7816 17.5262 89.4211C19.4493 83.7024 21.2704 79.8948 22.9895 77.9983Z" fill="#914897"/>
<path d="M33.2605 74.6284C27.0542 77.0792 22.4504 80.347 19.4493 84.4318C20.8187 81.2807 21.9988 79.1362 22.9895 77.9983C24.9417 75.8684 28.4528 73.4759 33.5227 70.8208C34.3094 70.4123 35.0524 69.6683 35.7517 68.5888C36.3636 67.5967 36.8007 66.5901 37.0629 65.5689L37.2815 64.256L40.4283 66.6193L43.6626 68.7638C42.905 70.0184 41.5355 71.1271 39.5542 72.09L33.2605 74.6284Z" fill="#7F3C83"/>
<path d="M49.8689 71.7399L55.7255 73.2717L65.9965 74.8034C64.8019 75.9122 63.9423 77.3564 63.4178 79.1362C62.8642 80.9744 62.5583 83.6003 62.5 87.014L62.2815 92.9661C62.1066 95.3877 61.7133 97.6198 61.1014 99.6622C60.169 102.726 58.581 105.337 56.3374 107.496C55.0262 108.751 52.9575 110.21 50.1311 111.873C48.8199 112.631 47.873 113.229 47.2902 113.667C44.8135 115.447 39.831 115.753 32.3427 114.586V110.647C32.4883 107.525 33.479 104.301 35.3147 100.975C36.4219 98.9911 38.447 96.0588 41.3899 92.1783C44.391 88.2394 46.8386 84.1838 48.7325 80.0115L49.8252 75.81C50.204 73.7677 50.2185 72.4109 49.8689 71.7399Z" fill="#FFFBDA"/>
<path d="M49.8252 104.739C55.4196 103.426 59.4551 100.552 61.9318 96.1172L61.1014 99.6622C60.169 102.726 58.581 105.337 56.3374 107.496C55.0262 108.751 52.9574 110.21 50.1311 111.873C48.8199 112.631 47.873 113.229 47.2902 113.667C44.8135 115.447 39.831 115.753 32.3427 114.586V110.647C32.4592 108.43 32.9982 106.125 33.9598 103.732C39.3211 105.629 44.6095 105.964 49.8252 104.739Z" fill="#DCD9BD"/>
<path d="M49.5629 85.4822L51.7482 101.5C52.3893 105.76 53.5693 109.553 55.2884 112.879C56.891 116.001 58.4644 117.796 60.0087 118.262C60.2418 118.467 60.169 118.642 59.7902 118.788L58.7849 118.875C57.8234 118.583 56.993 118.583 56.2937 118.875C55.5361 119.225 55.0116 119.882 54.7203 120.845C54.1666 122.683 52.6224 123.616 50.0874 123.646L48.3391 121.239L44.493 115.768L38.9423 108.372C37.0775 105.775 36.0722 104.024 35.9266 103.12C33.8578 91.7115 33.1731 84.709 33.8724 82.1123L47.465 76.2477C48.1352 77.0063 48.8345 80.0845 49.5629 85.4822Z" fill="#914897"/>
<path d="M74.0385 70.5145C70.6003 72.2067 68.2984 73.4759 67.1329 74.322C65.2681 75.6642 64.0589 77.692 63.5053 80.4054L49.9563 76.8604C50.5099 76.0143 50.8013 75.066 50.8305 74.0157C50.8887 72.8778 50.5828 72.1046 49.9126 71.6961C47.9604 70.9083 46.0082 70.0184 44.056 69.0264C40.1807 67.0132 37.602 65.0584 36.32 63.1619L35.0962 55.678L41.1277 49.332L78.3217 42.7234L83.8287 44.9555L85.7518 49.5508C86.8881 52.9937 87.0775 55.6926 86.32 57.6474C85.4167 60.0108 83.9016 62.3012 81.7745 64.5186C79.6183 66.8236 77.0397 68.8222 74.0385 70.5145Z" fill="#FFFBDA"/>
<path d="M82.0367 39.266C83.2314 43.6717 83.9452 46.108 84.1783 46.5748C83.5665 45.9329 82.9837 45.6995 82.4301 45.8745L76.1801 47.1437C76.2675 47.5522 76.5734 48.3692 77.0979 49.5946C77.7098 50.8492 77.1125 52.6144 75.306 54.8902C73.5286 57.1368 71.8532 58.2747 70.2797 58.3039C68.5606 58.3623 66.4773 57.7641 64.0297 56.5095C61.4074 55.1382 60.0379 53.7815 59.9214 52.4393C59.8922 52.06 59.7465 51.5932 59.4843 51.0389L43.8811 52.133C40.5886 52.7749 38.4324 54.2046 37.4126 56.422C36.3637 58.7561 36.7133 61.6155 38.4616 65L35.9266 62.199C34.2366 59.9524 33.4353 57.7933 33.5227 55.7217C33.6393 53.7085 34.0764 51.885 34.8339 50.2511L36.4074 47.1437L37.9371 42.5046C38.8112 40.1996 39.6708 38.7408 40.5158 38.1281L43.7063 29.8564L47.8147 26.6178C51.5152 24.4295 55.7838 23.3354 60.6206 23.3354C63.3304 23.3354 66.2442 23.9043 69.3619 25.0422C73.0915 26.4136 75.9324 28.2517 77.8846 30.5567C79.662 32.6574 81.0461 35.5605 82.0367 39.266Z" fill="#914897"/>
<path d="M75.2186 54.7589C76.9377 52.5123 77.331 50.4845 76.3986 48.6755L77.0105 48.6318C77.9138 50.4699 77.4476 52.6144 75.6119 55.0653C73.8345 57.3994 72.0571 58.5957 70.2797 58.654C68.2984 58.6832 66.1276 58.1434 63.7675 57.0347C60.8246 55.6342 59.3095 53.8836 59.222 51.7829C59.5134 52.133 59.7465 52.1768 59.9213 51.9142C59.9505 53.4022 61.2471 54.8465 63.8112 56.2469C66.2588 57.5891 68.4295 58.2018 70.3234 58.0851C71.9551 57.9684 73.5869 56.8597 75.2186 54.7589Z" fill="#914897"/>
<path d="M82.4738 16.7268C85.4458 20.6949 86.9318 24.838 86.9318 29.1562C86.9027 33.7662 84.9796 36.1732 81.1626 36.3775L79.7203 33.4014C78.38 31.1256 76.7337 29.3313 74.7815 28.0183C75.9179 23.5834 76.7191 20.7824 77.1853 19.6154C78.38 16.756 79.7786 15.5598 81.3811 16.0266L82.4738 16.7268Z" fill="#FDEABE"/>
<path d="M37.6748 42.5922C34.5863 43.8468 31.8036 44.2844 29.3269 43.9051C27.0251 43.555 25.7285 42.6651 25.4371 41.2354C24.7961 37.9676 24.8689 34.8895 25.6556 32.0009C26.2384 29.7835 27.5496 26.7929 29.5892 23.0291L30.6381 23.5105L33.3042 25.4799C36.1888 28.2225 38.6072 32.3219 40.5595 37.778L37.6748 42.5922Z" fill="#FDEABE"/>
<path d="M81.25 47.3188C80.4924 47.7565 79.4435 48.0337 78.1031 48.1504H76.3549C75.4516 44.5908 75.5099 41.0458 76.5297 37.5154C79.2104 39.762 80.7838 43.0298 81.25 47.3188Z" fill="#BA0031"/>
<path d="M77.5787 34.6269C79.0647 35.6189 80.3467 37.6613 81.4248 40.754C82.3572 43.4383 82.7069 45.1451 82.4738 45.8746C82.299 46.4873 81.891 46.9687 81.25 47.3188C80.7838 43.0298 79.2104 39.762 76.5297 37.5154L77.229 35.4146L77.5787 34.6269Z" fill="white"/>
<path d="M45.8916 39.8349C47.028 40.1559 48.2372 40.6227 49.5193 41.2354C48.2372 42.9569 47.5525 45.0284 47.4651 47.4501C47.4068 49.6384 47.8293 51.8412 48.7326 54.0587C46.3141 54.1462 44.8136 53.8982 44.2308 53.3147C43.5315 52.6728 43.2984 50.6887 43.5315 47.3626C43.7646 43.7446 44.5513 41.2354 45.8916 39.8349Z" fill="white"/>
<path d="M59.5717 51.1264C59.5425 51.6807 58.2896 52.2789 55.8129 52.9208C53.4236 53.5627 51.0635 53.942 48.7325 54.0587C47.8292 51.8412 47.4067 49.6384 47.465 47.4501C47.5524 45.0284 48.2372 42.9569 49.5192 41.2354C51.9668 42.49 54.1958 44.1677 56.2063 46.2684C58.0711 48.1649 59.1929 49.7842 59.5717 51.1264Z" fill="#BA0031"/>
<path d="M61.1014 59.8357C63.345 60.9444 65.6468 61.5134 68.007 61.5425C70.4254 61.5717 72.6544 61.0319 74.694 59.9232C74.1696 62.4616 73.0041 65.6565 71.1975 69.5078C70.6439 70.2373 69.5221 70.777 67.8321 71.1272C66.9289 71.3022 66.0839 71.3022 65.2972 71.1272L64.3794 70.777C64.0006 70.4269 62.9079 66.7798 61.1014 59.8357Z" fill="white"/>
<path d="M64.0735 61.0611C64.0152 64.0955 64.3503 66.3713 65.0787 67.8885C66.0985 69.9893 67.8905 70.7333 70.4546 70.1206L68.1381 71.0396C66.419 71.4773 65.1661 71.346 64.3794 70.6458C62.602 66.1233 61.5385 62.5492 61.1888 59.9232L64.0735 61.0611Z" fill="#DBDCDC"/>
<path d="M76.7483 29.6814L74.9126 28.1058C75.5245 24.021 76.2966 21.0304 77.229 19.1339C77.7244 18.0835 78.4674 17.1499 79.4581 16.3329C80.303 15.6619 81.2646 15.5889 82.3427 16.1141L84.8776 20.797C82.9254 19.484 81.2937 19.5278 79.9825 20.9283C78.6422 22.358 77.5641 25.2756 76.7483 29.6814Z" fill="#DACAA5"/>
<path d="M39.0297 39.8349C37.8642 36.2462 35.9994 33.1096 33.4353 30.4254C30.7547 27.6536 28.6131 26.7783 27.0105 27.7994L29.2832 22.9853L30.507 23.4667C31.5268 23.9627 32.5175 24.6483 33.479 25.5237C36.6259 28.3246 38.986 32.4969 40.5595 38.0405L39.0297 39.8349Z" fill="#DACAA5"/>
<path d="M44.8864 32.92L43.6189 29.944C45.4837 27.9891 47.8584 26.4281 50.743 25.2611L54.5455 24.1232C51.7483 25.0568 49.4027 26.5449 47.5088 28.5872C45.9936 30.192 45.1195 31.6362 44.8864 32.92Z" fill="#7F3C83"/>
<path d="M77.1416 52.2205C76.6171 53.8252 75.641 55.2987 74.2133 56.6408C72.7855 57.9538 71.4743 58.6248 70.2797 58.654C68.5897 58.6832 66.6375 58.231 64.4231 57.2973C61.7133 56.1594 60.0524 54.7297 59.4405 53.0083L59.528 52.7019C59.0035 49.7842 57.0221 46.9395 53.5839 44.1677C50.437 41.6293 47.5087 40.185 44.7989 39.8349C43.75 39.7182 43.2109 39.4994 43.1818 39.1784C43.1235 38.7991 44.2016 38.5657 46.4161 38.4782C49.2424 38.3615 51.7919 38.8867 54.0647 40.0537C56.1917 41.1333 57.94 42.738 59.3094 44.8679C60.3875 46.5018 61.1597 48.0482 61.6259 49.5071C62.0046 50.7617 62.5728 51.8558 63.3304 52.7895C64.933 54.7735 67.1474 55.6926 69.9738 55.5467C72.771 55.4008 75.1602 54.2921 77.1416 52.2205Z" fill="#7F3C83"/>
<path d="M38.5489 65.3064L38.4615 65C37.2086 62.5783 36.6841 60.4193 36.8881 58.5228C37.0629 56.6846 37.8788 55.1966 39.3357 54.0587L40.9528 54.5401L40.6031 56.5971C40.5157 58.0851 40.8508 59.1501 41.6084 59.7919C41.958 60.1129 42.4679 61.7614 43.1381 64.7374C44.3036 67.8302 46.3869 70.0039 49.3881 71.2585C48.1935 71.0251 46.6346 70.4123 44.7115 69.4203C42.4388 68.2532 40.3846 66.8819 38.5489 65.3064Z" fill="#DCD9BD"/>
<path d="M35.9266 62.199C34.2366 59.9524 33.4353 57.7933 33.5227 55.7218C33.6393 53.5335 34.2366 51.4036 35.3147 49.332C35.6352 51.5203 36.9755 53.0959 39.3357 54.0587C37.8788 55.1966 37.063 56.6846 36.8881 58.5228C36.6842 60.4193 37.2086 62.5783 38.4616 65L35.9266 62.199Z" fill="#7F3C83"/>
<path d="M75.8304 40.5352L76.486 37.7342C78.0012 38.4344 79.1958 39.9662 80.0699 42.3296L80.9441 45.6557C80.7984 45.3348 80.5361 45.1743 80.1573 45.1743C79.7494 45.2035 79.2978 45.4952 78.8025 46.0496C78.2488 46.7207 77.6078 47.0124 76.8794 46.9249L76.0053 46.6186C75.5391 44.8096 75.4808 42.7818 75.8304 40.5352Z" fill="#990024"/>
<path d="M53.278 43.6425C55.9586 45.6266 57.8671 47.7856 59.0035 50.1198L58.3479 49.8572C57.8234 49.7405 57.3135 49.8864 56.8182 50.2949C56.0315 50.9659 55.3613 51.3744 54.8077 51.5203C53.9044 51.7537 52.8846 51.5641 51.7483 50.9513C50.9615 50.5429 50.1894 50.4699 49.4318 50.7325C48.6451 50.9659 48.1498 51.4911 47.9458 52.3081C47.0425 47.0854 47.5816 43.4383 49.5629 41.3667L53.278 43.6425Z" fill="#990024"/>
<path d="M71.8969 18.3461C72.6544 16.8289 73.7471 15.2096 75.1748 13.4882C76.3403 12.0877 77.6369 11.5479 79.0647 11.8689C80.5216 12.1898 82.0076 13.3715 83.5227 15.4139C85.1836 17.6021 86.4948 20.0822 87.4563 22.854C88.447 25.7425 88.884 28.4268 88.7675 30.9068C88.6509 33.2993 88.0682 35.2542 87.0192 36.7714C85.912 38.3469 84.3531 39.3973 82.3427 39.9225L81.0752 36.5525C82.6777 36.4942 84.0035 35.9106 85.0525 34.8019C86.218 33.5473 86.9318 31.7238 87.1941 29.3312C87.3397 27.9016 86.7861 25.655 85.5332 22.5914C84.5134 20.1405 83.377 17.8793 82.1241 15.8078C78.6859 14.9908 76.2383 19.0464 74.7815 27.9745C73.9365 27.3326 72.2756 26.4281 69.799 25.2611C70.0612 22.8102 70.7605 20.5052 71.8969 18.3461Z" fill="#914897"/>
<path d="M75.7867 42.8548L75.9179 41.7169C76.7046 41.6001 77.2582 42.2129 77.5787 43.555C77.8992 45.0138 77.637 45.8162 76.792 45.9621C76.5589 45.9913 76.3404 45.9037 76.1364 45.6995L75.7867 44.9117V42.8548Z" fill="white"/>
<path d="M56.2063 46.6186L56.4248 47.4939C56.5123 48.2525 56.3666 48.8944 55.9878 49.4195C55.609 49.9447 55.1428 50.1927 54.5892 50.1636C54.1813 50.1636 53.817 49.901 53.4965 49.3758C53.1177 48.7922 52.9283 48.1212 52.9283 47.3626C52.9283 45.8454 53.38 45.0138 54.2832 44.868L56.2063 46.6186Z" fill="white"/>
<path d="M76.792 28.9811C79.4144 31.432 81.148 34.408 81.993 37.9093C83.1585 42.5192 84.5134 46.4873 86.0577 49.8134C89.8747 58.1872 84.1929 66.1087 69.0123 73.578C67.1766 74.4825 65.7489 75.9268 64.729 77.9108C64.2337 78.9028 63.9132 79.8073 63.7675 80.6242C63.7675 80.741 63.651 80.7993 63.4179 80.7993C63.1556 80.7993 63.0391 80.741 63.0682 80.6242C63.2722 79.1362 63.7821 77.7649 64.5979 76.5103C65.5886 74.9347 66.9435 73.7239 68.6626 72.8778C74.7815 69.8434 79.3269 66.6631 82.299 63.3369C86.2325 58.902 87.1504 54.3942 85.0525 49.8134C84.2075 47.8586 83.4353 45.7141 82.736 43.3799L81.3374 38.3031C80.405 34.9478 78.6859 32.0885 76.1801 29.7251C73.6451 27.3618 70.5128 25.6987 66.7832 24.7359C62.5292 23.6855 58.2751 23.6855 54.021 24.7359C49.7378 25.8154 46.3578 27.7265 43.8811 30.4691C43.8229 30.5567 43.6917 30.4837 43.4878 30.2503C43.2838 29.9877 43.2255 29.8127 43.313 29.7251C45.6148 27.1867 48.8345 25.3194 52.972 24.1232C57.6049 22.7519 62.2669 22.6497 66.9581 23.8168C70.8916 24.8088 74.1696 26.5303 76.792 28.9811Z" fill="#0D131A"/>
<path d="M77.4476 34.977L77.4913 34.5393C77.5787 34.3059 77.6661 34.2184 77.7535 34.2767C79.2687 35.4438 80.5653 37.5591 81.6434 40.6227C82.5758 43.2486 82.9546 45.1014 82.7797 46.1809C82.5175 47.6397 80.4487 48.3838 76.5734 48.4129L76.4423 47.9315L76.5734 47.7127L79.5455 47.5376C81.0606 47.1 81.8619 46.5894 81.9493 46.0058C82.1533 45.043 81.8328 43.3362 80.9878 40.8853C80.0262 38.1135 78.8462 36.144 77.4476 34.977Z" fill="#0D131A"/>
<path d="M76.3549 37.7342C76.2384 37.6759 76.2529 37.5592 76.3986 37.3841C76.5152 37.1799 76.6172 37.1069 76.7046 37.1653C78.074 38.1573 79.225 39.6599 80.1574 41.6731C81.0898 43.6863 81.5123 45.5974 81.4249 47.4064L81.0752 47.5377L80.7693 47.2751C80.9149 46.0205 80.5362 44.3428 79.6329 42.242C78.6422 39.9954 77.5496 38.4928 76.3549 37.7342Z" fill="#0D131A"/>
<path d="M45.6294 39.7474L46.0664 39.8349C46.2704 39.9516 46.3287 40.0538 46.2413 40.1413C44.8426 41.9794 44.0705 44.547 43.9248 47.844C43.8083 50.82 44.0851 52.5707 44.7552 53.0958C45.6876 53.8253 48.2372 53.8544 52.4038 53.1834C56.5414 52.5123 58.785 51.7683 59.1346 50.9513C59.1637 50.8346 59.2512 50.8638 59.3968 51.0389L59.528 51.4328C59.0909 52.4539 56.7016 53.3147 52.3601 54.0149L44.1433 53.7961C43.2692 53.0958 42.905 51.1702 43.0507 48.0191C43.1964 44.5762 44.0559 41.819 45.6294 39.7474Z" fill="#0D131A"/>
<path d="M49.2133 40.9728L49.6066 41.0604L49.7378 41.4105C48.5723 42.9277 47.9749 45.0722 47.9458 47.844C47.8875 50.324 48.2372 52.3664 48.9947 53.9711L48.7762 54.2337C48.5431 54.3505 48.412 54.3505 48.3829 54.2337C47.4505 52.3081 47.0134 50.1198 47.0717 47.6689C47.1591 44.9555 47.873 42.7235 49.2133 40.9728Z" fill="#0D131A"/>
<path d="M74.5629 54.8465L73.6451 55.8093C73.4994 55.7801 73.5868 55.4884 73.9073 54.934C74.5192 53.8545 74.8834 52.7603 75 51.6516C75.0291 51.4474 75.1165 51.4328 75.2622 51.6078C75.437 51.8121 75.5099 52.1622 75.4807 52.6582L75.1311 53.8836L74.5629 54.8465Z" fill="#0D131A"/>
<path d="M68.9685 55.8093C69.493 56.247 69.6969 56.5387 69.5804 56.6846C69.493 56.8013 69.187 56.6846 68.6626 56.3345C67.9633 55.8676 67.4679 55.3862 67.1766 54.8902C66.8269 54.3942 66.7249 54.1316 66.8706 54.1024L67.6136 54.5839L68.9685 55.8093Z" fill="#0D131A"/>
<path d="M76.7046 57.9976C75.1603 60.4776 72.6544 61.7906 69.1871 61.9364C66.7395 62.024 64.292 61.5426 61.8444 60.4922C61.2034 60.2004 60.6352 60.2004 60.1399 60.4922C59.6154 60.8423 58.9452 61.6593 58.1294 62.9431C57.6923 63.6433 57.4009 63.9497 57.2553 63.8621C57.0804 63.7454 57.1678 63.3515 57.5175 62.6805C58.2459 61.1633 58.8724 60.215 59.3969 59.8357L62.0192 59.7919C64.3502 60.784 66.725 61.2216 69.1434 61.1049C70.7459 61.0466 72.0426 60.7986 73.0332 60.3609C74.1113 59.8649 75.1311 58.9896 76.0927 57.735C76.588 57.1223 76.9085 56.8597 77.0542 56.9472C77.1999 57.0347 77.0833 57.3848 76.7046 57.9976Z" fill="#0D131A"/>
<path d="M74.3007 59.967L74.7378 59.7044L75.0874 59.7482L73.1207 65.8316L71.5472 69.5516C71.081 70.3102 70.0029 70.9083 68.313 71.346L64.2046 71.1272C63.7675 70.777 63.0682 68.8368 62.1067 65.3064L60.7081 59.8795L61.1014 59.7919C61.3928 59.8211 61.5531 59.8941 61.5822 60.0108L62.6749 64.2998L64.4231 69.9893L64.6853 70.5582C64.7728 70.6457 64.9622 70.7333 65.2535 70.8208C66.0985 71.0542 67.0746 71.0542 68.1818 70.8208C69.3182 70.5582 70.1923 70.106 70.8042 69.4641C71.5618 68.2678 72.7273 65.1021 74.3007 59.967Z" fill="#0D131A"/>
<path d="M69.0123 66.6631L68.0944 71.1271C68.0653 71.2439 67.9196 71.3022 67.6574 71.3022C67.3951 71.3022 67.2786 71.2439 67.3077 71.1271L68.3567 66.5756C68.5898 65.5252 68.7937 65 68.9686 65C69.1725 65 69.1871 65.5544 69.0123 66.6631Z" fill="#0D131A"/>
<path d="M76.5297 61.3237L76.7482 62.5054C76.6026 62.5345 76.3549 62.199 76.0052 61.4988L74.8252 59.7044C74.7377 59.6169 74.796 59.4856 75 59.3105C75.2331 59.1354 75.3788 59.0917 75.4371 59.1792C75.9033 59.7044 76.2675 60.4192 76.5297 61.3237Z" fill="#0D131A"/>
<path d="M44.6678 39.266C48.2226 39.762 51.6463 41.4397 54.9388 44.299C57.94 46.9249 59.5717 49.3028 59.8339 51.4328C59.9796 52.3664 59.965 52.9791 59.7902 53.2709C59.6154 53.5627 59.3969 53.1104 59.1346 51.9142C58.6393 49.4925 56.8328 47.027 53.715 44.5178C50.5973 41.9794 47.5233 40.4768 44.493 40.01C43.2692 39.8349 42.6573 39.6161 42.6573 39.3535L44.6678 39.266Z" fill="#0D131A"/>
<path d="M75.2185 42.6797C75.2768 39.6745 76.0052 36.8881 77.4038 34.3205C77.8992 33.4744 78.2488 33.0659 78.4528 33.0951C78.6859 33.1243 78.5548 33.6057 78.0594 34.5393C76.7774 36.9319 76.0927 39.5869 76.0052 42.5046C75.947 44.8971 76.2529 46.8374 76.9231 48.3254C77.2436 49.0257 77.331 49.4196 77.1853 49.5071C77.0396 49.6238 76.7774 49.3466 76.3986 48.6756C75.5536 47.2751 75.1603 45.2764 75.2185 42.6797Z" fill="#0D131A"/>
<path d="M99.257 41.1479L90.9528 46.9249L82.8672 53.9711C82.4301 54.3796 82.0076 54.0733 81.5997 53.0521C81.1626 52.0017 81.2792 51.1118 81.9493 50.3824C84.1638 47.9607 86.3491 46.108 88.5053 44.8242C90.1952 43.8613 91.9581 43.0298 93.7937 42.3296C96.0373 41.4834 97.8584 41.0895 99.257 41.1479Z" fill="#FFFBDA"/>
<path d="M98.3392 41.5856C96.5327 41.6439 94.1434 42.4463 91.1714 43.9926C88.1702 45.5682 85.6352 47.348 83.5665 49.332C82.6632 50.2365 82.1241 50.6012 81.9493 50.4262C81.7745 50.2511 82.1387 49.7113 83.042 48.8068C84.9359 46.9103 87.1358 45.2618 89.6416 43.8614C92.4097 42.315 95.0321 41.3667 97.5088 41.0166L99.8252 40.9728C99.9417 41.1771 99.3444 41.7168 98.0332 42.5922C91.7395 46.7353 87.1795 50.2073 84.3532 53.0083C83.479 53.8544 82.9837 54.1754 82.8672 53.9711C82.7506 53.7669 83.0857 53.2417 83.8724 52.3956C85.7372 50.4116 88.3304 48.2379 91.6521 45.8746L98.3392 41.5856Z" fill="#0D131A"/>
<path d="M60.1398 125.659C61.3053 126.155 62.1212 126.549 62.5874 126.84L64.2045 128.241L59.965 126.928L55.8129 126.009L52.3164 125.309C51.4423 124.959 50.743 124.404 50.2185 123.646C52.0833 123.616 53.4091 123.047 54.1958 121.939C55.944 123.485 57.9254 124.725 60.1398 125.659Z" fill="#DCD9BD"/>
<path d="M54.1958 121.939C53.4091 123.047 52.0833 123.616 50.2185 123.646L50.0874 123.471L45.236 116.949L38.8549 108.59C37.5146 107.044 36.4948 105.016 35.7954 102.507C35.0379 99.8226 34.5717 96.3214 34.3968 92.0032C34.3094 90.1651 35.3147 90.9237 37.4126 94.279C39.3648 97.3718 40.7197 99.9685 41.4773 102.069C42.264 104.258 43.954 107.452 46.5472 111.654C49.053 115.709 51.1072 118.642 52.7098 120.451L54.1958 121.939Z" fill="#7F3C83"/>
<path d="M45.0175 33.6203C45.338 34.8457 44.8281 36.1003 43.4878 37.3841C42.1475 38.6387 41.1568 38.8867 40.5158 38.1281C39.7873 34.9478 38.345 31.8259 36.1888 28.7623C33.9161 25.582 31.7162 23.6709 29.5892 23.029C29.1521 23.1458 28.3654 24.59 27.229 27.3618C25.947 30.4837 25.0583 33.5036 24.563 36.4212C24.359 38.5512 24.6941 40.3164 25.5682 41.7169C26.5297 43.2632 28.0449 44.0948 30.1137 44.2115L33.785 43.7738L37.7623 42.811L36.8007 46.0496C35.0816 46.6332 33.0565 46.9979 30.7255 47.1438C26.6172 47.348 23.7908 45.612 22.2465 41.9357C20.8771 38.5803 21.0373 33.8683 22.7273 27.7995C24.563 21.2638 27.2873 17.9231 30.9004 17.7772C34.1638 17.6605 37.5 20.2572 40.9091 25.5674C42.5991 28.2517 43.9685 30.936 45.0175 33.6203Z" fill="#914897"/>
<path d="M44.6241 31.4758C45.2069 32.8471 45.3671 33.5619 45.1049 33.6203C44.8718 33.6494 44.493 33.0805 43.9685 31.9134C42.366 28.4122 40.4283 25.3778 38.1556 22.8102C35.4749 19.7758 32.9982 18.3024 30.7255 18.3899C29.0355 18.4483 27.535 19.4257 26.2238 21.3222C24.8834 23.2187 23.7908 25.9467 22.9458 29.5063C21.1101 37.2382 21.5472 42.3587 24.257 44.868C25.539 46.035 27.3018 46.6769 29.5454 46.7936C31.7599 46.9103 34.1929 46.5019 36.8444 45.5682L36.9755 45.9183C36.9755 46.1809 36.9172 46.3268 36.8007 46.356C34.0035 47.3188 31.4831 47.7419 29.2395 47.6252C26.9668 47.4793 25.1311 46.779 23.7325 45.5244C22.1882 44.0948 21.2558 41.9649 20.9353 39.1347C20.6439 36.3337 20.9644 33.0075 21.8968 29.1562C22.8584 25.2173 24.1696 22.2121 25.8304 20.1405C27.3164 18.3024 28.9336 17.3541 30.6818 17.2958C33.2459 17.2083 35.9848 18.813 38.8986 22.11C41.317 24.8818 43.2255 28.0037 44.6241 31.4758Z" fill="#0D131A"/>
<path d="M72.7273 15.9391C74.7378 12.788 76.5588 11.227 78.1905 11.2562C80.0845 11.2853 81.9784 12.54 83.8724 15.02C85.6498 17.2958 87.0629 20.0822 88.1119 23.3792C88.9569 25.9759 89.3502 28.4414 89.292 30.7755C89.2045 33.0513 88.7092 34.9624 87.8059 36.5088C86.553 38.5803 84.6591 39.8349 82.1241 40.2726C82.0076 40.3018 81.9202 40.1851 81.8619 39.9225C81.8327 39.6599 81.8765 39.514 81.993 39.4848C84.324 39.0472 86.0285 37.9093 87.1066 36.0711C88.8549 33.1534 88.8986 29.0687 87.2378 23.8168C86.3636 21.045 85.2127 18.6087 83.785 16.508C81.9493 13.7654 80.0699 12.3795 78.1468 12.3503C76.8648 12.3211 75.2914 13.78 73.4266 16.7268C71.5035 19.7321 70.4108 22.606 70.1486 25.3486L69.7552 25.3048L69.3182 24.9547C69.6096 22.037 70.7459 19.0318 72.7273 15.9391Z" fill="#0D131A"/>
<path d="M37.4126 42.5484C37.704 41.498 38.1702 40.506 38.8112 39.5723L40.0787 38.0406C38.9423 34.4226 37.4854 31.359 35.7081 28.8498C33.9015 26.3406 31.9639 24.6338 29.8951 23.7293C28.38 23.0874 27.6807 22.606 27.7972 22.285C27.9138 21.9641 28.715 22.11 30.2011 22.7227C32.3281 23.598 34.324 25.3486 36.1888 27.9745C37.9954 30.5129 39.5251 33.664 40.778 37.4278L40.9091 38.1718L40.5157 38.8283C39.4085 40.258 38.6364 41.7168 38.1993 43.2049C37.4126 45.9475 36.5822 48.0336 35.7081 49.4633C32.9983 53.9857 33.4208 58.4206 36.9755 62.768C39.6562 66.065 43.3712 68.6471 48.1206 70.5144C49.461 71.0688 50.0729 71.4627 49.9563 71.6961C49.8398 71.9295 49.1259 71.7982 47.8147 71.3022C42.803 69.3182 38.8403 66.6193 35.9266 63.2056C32.0513 58.5957 31.7016 53.9566 34.8776 49.2882C35.4895 48.4421 36.3345 46.1955 37.4126 42.5484Z" fill="#0D131A"/>
<path d="M37.1066 123.558C38.7675 124.346 40.1078 125.148 41.1276 125.965C41.8269 126.49 42.2931 127.147 42.5262 127.935C41.3898 126.943 39.7436 126.213 37.5874 125.746C37.3543 125.309 36.8298 124.827 36.014 124.302L33.479 122.727C33.9743 122.406 35.1836 122.683 37.1066 123.558Z" fill="#DCD9BD"/>
<path d="M37.4126 120.845L40.4283 121.501C41.2442 121.647 41.8706 121.851 42.3077 122.114L44.2308 123.864L41.3899 123.427C41.2442 123.223 40.6906 122.829 39.729 122.245L37.4126 120.845Z" fill="#DCD9BD"/>
<path d="M33.3916 81.981C33.4791 81.1348 33.6684 80.7555 33.9598 80.8431C34.2221 80.9306 34.324 81.5871 34.2658 82.8125C34.2075 83.6586 34.426 86.6347 34.9214 91.7406C35.4167 97.0216 35.8392 100.625 36.1888 102.551L36.2763 103.032C36.4219 103.907 38.4324 106.971 42.3077 112.223L49.2133 121.676C50.6702 124.01 52.1562 125.25 53.6714 125.396L58.785 126.184C60.3293 126.534 62.063 127.059 63.986 127.76C63.986 126.563 63.3596 125.498 62.1067 124.565C61.0286 123.748 59.6446 123.12 57.9546 122.683C57.4884 122.566 57.3427 122.478 57.5175 122.42L58.5228 122.508C60.2127 122.858 61.5968 123.441 62.6749 124.258C63.8695 125.192 64.5397 126.33 64.6853 127.672C64.7436 128.197 64.6271 128.474 64.3357 128.504C64.0443 128.533 63.345 128.328 62.2378 127.891C59.6445 126.899 56.9639 126.315 54.1958 126.14C52.7972 126.023 51.7046 125.659 50.9179 125.046C50.1894 124.463 49.2425 123.252 48.077 121.414L41.4773 112.748C37.6894 107.671 35.6789 104.491 35.4458 103.207L35.3584 102.726C33.5519 92.6889 32.8963 85.774 33.3916 81.981Z" fill="#0D131A"/>
<path d="M47.0717 76.5103C46.6929 75.8684 46.5181 75.4162 46.5472 75.1536C46.6055 74.8618 46.9988 75.139 47.7273 75.9851C49.0093 77.4732 50.1311 82.1706 51.0926 90.0776L52.0979 101.457C52.3601 103.47 53.1323 106.139 54.4143 109.466C55.7838 112.996 57.0513 115.389 58.2168 116.643L60.5769 118.35L63.3304 119.532C64.8164 120.144 65.8945 120.64 66.5647 121.02C67.6136 121.662 68.3275 122.376 68.7063 123.164L69.187 124.608L68.1381 124.565L66.6084 124.477L66.3461 124.215C66.2587 124.01 66.2733 123.908 66.3898 123.908L68.444 124.127C68.0653 122.551 66.2879 121.239 63.1119 120.188C61.1597 119.517 59.3386 118.481 57.6486 117.081C56.4539 116.089 55.1136 113.609 53.6276 109.641C52.2873 106.139 51.5006 103.441 51.2675 101.544L50.1748 90.7341C49.2133 83.0605 48.1789 78.3193 47.0717 76.5103Z" fill="#0D131A"/>
<path d="M60.7517 121.063C60.2273 120.947 60.0379 120.845 60.1836 120.757L61.1014 120.801C62.8496 121.18 64.2774 121.807 65.3846 122.683C66.6958 123.704 67.4679 125.017 67.701 126.622C67.7593 127.176 67.7156 127.512 67.5699 127.628L66.6521 127.453L64.3357 126.797L64.0297 126.49C63.9423 126.286 63.9569 126.184 64.0734 126.184C65.2972 126.242 66.3024 126.534 67.0891 127.059C67.06 125.513 66.3753 124.185 65.035 123.077C63.8986 122.143 62.4709 121.472 60.7517 121.063Z" fill="#0D131A"/>
<path d="M37.0192 117.737C37.6311 118.146 38.4615 118.525 39.5105 118.875C40.8508 119.313 41.8852 119.794 42.6136 120.319C43.3712 120.903 43.9102 121.618 44.2308 122.464C44.5804 123.31 44.697 123.835 44.5804 124.039L43.7063 123.996C42.8904 123.704 42.1911 123.558 41.6084 123.558L41.1276 123.252C40.9236 123.018 40.8799 122.902 40.9965 122.902C41.958 122.872 42.9633 123.091 44.0122 123.558C43.7208 122.508 43.2255 121.676 42.5262 121.063C41.8269 120.451 40.7488 119.882 39.2919 119.357L36.2325 118.131C35.5332 117.723 34.7902 117.081 34.0035 116.205C33.9161 116.118 33.9598 115.987 34.1346 115.812C34.3386 115.607 34.4697 115.549 34.528 115.636L37.0192 117.737Z" fill="#0D131A"/>
<path d="M37.4126 121.195C37.0921 120.932 37.0047 120.786 37.1504 120.757C37.2669 120.699 37.5146 120.801 37.8934 121.063C38.447 121.443 39.1609 121.837 40.035 122.245C41.6084 122.975 42.5554 124.419 42.8759 126.578C43.0216 127.512 43.007 128.022 42.8322 128.11C42.6282 128.226 42.0746 128.008 41.1714 127.453C40.2098 126.899 39.0589 126.432 37.7186 126.053L37.4563 125.703C37.3689 125.498 37.3835 125.411 37.5 125.44C39.2483 125.819 40.8217 126.432 42.2203 127.278C42.0163 124.915 41.2296 123.383 39.8602 122.683L37.4126 121.195Z" fill="#0D131A"/>
<path d="M37.5874 128.854L37.3252 126.009C37.1212 125.396 36.6404 124.9 35.8829 124.521L33.6101 123.077L33.2168 122.464C33.3625 122.435 33.6684 122.581 34.1346 122.902L36.451 124.215C37.1212 124.565 37.5728 124.988 37.8059 125.484C37.9808 125.863 38.0973 126.476 38.1556 127.322C38.2721 128.752 38.2284 129.51 38.0245 129.598C37.8205 129.714 37.1066 129.364 35.8829 128.547C34.7465 127.789 33.5373 127.161 32.2552 126.665L27.0542 125.046C22.9749 123.879 20.2797 122.231 18.9685 120.101C17.5991 117.942 18.0798 115.885 20.4108 113.93L20.8479 114.017L21.0227 114.324C18.9831 115.987 18.7209 117.883 20.236 120.013C21.6055 121.968 23.8636 123.398 27.0105 124.302C29.8951 125.119 31.891 125.761 32.9982 126.228C34.3386 126.782 35.8683 127.657 37.5874 128.854Z" fill="#0D131A"/>
<path d="M35.3147 87.014C38.3159 91.2738 40.1661 94.4978 40.8654 96.6861C41.7978 99.4871 41.6084 102.303 40.2972 105.133L37.3689 111.785C36.6405 113.361 35.8683 114.513 35.0525 115.243L32.8235 116.906C31.9785 117.314 30.9732 117.475 29.8077 117.387L26.5735 116.906L23.4703 116.03C24.1113 116.147 24.3736 116.089 24.257 115.855L22.9895 114.892C18.9394 112.646 16.7978 108.517 16.5647 102.507C16.3316 96.4381 18.1964 91.4051 22.1591 87.4079C24.1405 85.4238 25.8887 84.1692 27.4039 83.644C30.3759 82.5937 33.0128 83.717 35.3147 87.014Z" fill="#914897"/>
<path d="M38.243 91.3905C39.9621 94.104 40.982 96.4381 41.3025 98.393C41.7104 100.61 41.3753 102.857 40.2972 105.133L37.3689 111.785C36.6405 113.361 35.8683 114.513 35.0525 115.243L32.8235 116.731L29.8077 117.387C28.1177 117.533 26.7337 117.533 25.6556 117.387C24.5775 117.241 24.3153 117.037 24.8689 116.774C29.0356 115.432 32.6486 112.208 35.7081 107.102C39.088 101.529 39.933 96.2922 38.243 91.3905Z" fill="#7F3C83"/>
<path d="M22.3776 86.6201C24.1841 85.2488 25.204 84.4902 25.4371 84.3443C27.2144 83.2648 28.817 82.8125 30.2447 82.9876C32.3135 83.2502 34.12 84.5048 35.6643 86.7514C38.8112 91.2155 40.7488 94.527 41.4773 96.6861C42.4679 99.5746 42.2931 102.449 40.9528 105.308L38.6364 109.903L37.1066 113.317C36.5822 114.221 35.9848 114.965 35.3147 115.549C33.9744 116.716 32.3135 117.387 30.3322 117.562L29.1958 117.431C28.9336 117.285 29.1084 117.125 29.7203 116.949L32.1678 116.293C33.2459 115.914 34.12 115.447 34.7902 114.893C35.373 114.367 35.8974 113.682 36.3636 112.836L37.8496 109.597L39.9038 104.958C41.1859 102.244 41.3753 99.5309 40.472 96.8174C39.7727 94.6875 37.9371 91.4926 34.965 87.2328C33.7121 85.453 32.1387 84.461 30.2447 84.2568C28.9918 84.1109 27.5058 84.5194 25.7867 85.4822C24.9126 85.9782 23.9656 86.5763 22.9458 87.2766L21.9406 87.4079C21.7366 87.2912 21.8823 87.0286 22.3776 86.6201Z" fill="#0D131A"/>
<path d="M25.6556 56.1594C22.2174 55.9552 19.2016 55.9406 16.6084 56.1157C19.9884 54.2775 24.3735 53.3293 29.764 53.2709C34.3969 53.2126 38.6364 53.8399 42.4825 55.1528C43.8811 55.6196 44.3473 56.5971 43.8811 58.0851C43.3858 59.6023 42.8322 60.2004 42.2203 59.8795C38.0536 57.8371 32.5321 56.5971 25.6556 56.1594Z" fill="#FFFBDA"/>
<path d="M28.3217 55.9843C33.1585 56.4512 37.2961 57.3994 40.7343 58.8291C41.7832 59.2667 42.2786 59.6023 42.2203 59.8357C42.1912 60.0691 41.5793 59.9524 40.3846 59.4856C36.9173 58.1434 32.8817 57.2389 28.278 56.7721L18.5752 56.5095L15.9091 56.2907C15.8217 56.0865 16.5793 55.6634 18.1819 55.0215C24.4464 52.3664 32.0222 52.1184 40.9091 54.2775C42.0455 54.5693 42.57 54.8173 42.4825 55.0215L40.6469 54.9777C36.8007 54.0733 33.0857 53.621 29.5018 53.621C25.102 53.6502 21.2996 54.3796 18.0944 55.8093C21.3287 55.5759 24.7378 55.6342 28.3217 55.9843Z" fill="#0D131A"/>
<path d="M83.1731 16.2892C83.2314 16.5518 83.0711 16.6101 82.6923 16.4642L80.6381 16.2892C78.1323 17.1937 76.3549 21.1617 75.306 28.1934L74.9126 28.2371C74.6504 28.1204 74.5338 28.0037 74.563 27.887C75.0874 24.2982 75.845 21.4389 76.8357 19.309C77.8264 17.2083 78.9773 15.9245 80.2885 15.4576L82.5612 15.6765C82.94 15.8224 83.144 16.0266 83.1731 16.2892Z" fill="#0D131A"/>
<path d="M37.9808 42.1545C38.0973 42.1253 38.1265 42.2858 38.0682 42.6359L37.806 43.2049C34.6591 44.1969 32.0804 44.5908 30.0699 44.3865C26.6609 44.1239 24.7523 42.3879 24.3444 39.1784C24.0822 37.0777 24.4901 34.1892 25.5682 30.5129C26.5297 27.1576 27.5787 24.6338 28.715 22.9415L29.6766 23.2479C28.5111 25.086 27.5058 27.3472 26.6609 30.0315C25.7867 32.7158 25.2914 35.225 25.1748 37.5591C25.0583 39.3973 25.4808 40.8561 26.4423 41.9357C27.2873 42.8693 28.4528 43.4237 29.9388 43.5987L34.0472 43.2924L37.9808 42.1545Z" fill="#0D131A"/>
<path d="M82.299 15.8953C83.4936 17.5 84.5426 19.309 85.4458 21.3222C86.3782 23.3938 86.9755 25.334 87.2378 27.143C87.6166 29.7106 87.2669 31.9718 86.1888 33.9266C85.0816 35.9398 83.5373 36.9464 81.556 36.9464L81.2063 36.5963C81.0898 36.3337 81.0898 36.2024 81.2063 36.2024C83.1585 36.2024 84.6445 35.2396 85.6643 33.3139C86.5676 31.5341 86.859 29.5209 86.5385 27.2743C86.2471 25.407 85.6061 23.3646 84.6154 21.1471C83.6247 18.988 82.5466 17.2228 81.3811 15.8515L82.299 15.8953Z" fill="#0D131A"/>
</svg>
