<svg width="200" height="189" viewBox="0 0 200 189" fill="none" xmlns="http://www.w3.org/2000/svg">
<path d="M155.643 175.555C155.747 176.469 155.518 177.228 154.957 177.83C154.354 178.495 153.492 178.818 152.37 178.797C151.913 179.192 151.341 179.451 150.655 179.576L148.286 179.514C147.268 179.867 145.824 179.846 143.954 179.451C144.057 179.244 143.985 178.911 143.735 178.454C143.216 177.581 142.042 176.594 140.213 175.493L137.782 173.872L151.341 171.565C153.98 171.981 155.414 173.311 155.643 175.555Z" fill="#FFF8B0"/>
<path d="M148.754 175.306C146.738 176.365 145.169 177.758 144.047 179.483L143.954 179.451C144.057 179.244 143.985 178.911 143.735 178.454C143.216 177.581 142.042 176.594 140.213 175.493L137.782 173.872L151.341 171.565C152.879 171.794 154.053 172.459 154.864 173.56C152.702 173.705 150.666 174.287 148.754 175.306Z" fill="#DDD698"/>
<path d="M142.582 177.269C144.639 179.306 146.115 182.059 147.008 185.53C141.418 183.286 137.511 181.872 135.288 181.291C128.638 179.545 122.466 179.223 116.772 180.324L136.285 173.903C138.696 174.381 140.795 175.503 142.582 177.269Z" fill="#EF8200"/>
<path d="M144.452 179.576C142.81 179.327 141.221 179.337 139.683 179.607C138.083 179.898 136.649 180.47 135.381 181.322C128.669 179.535 122.466 179.202 116.772 180.324L136.285 173.903C139.693 174.589 142.416 176.48 144.452 179.576Z" fill="#CF7100"/>
<path d="M112.751 29.1108C114.205 30.3369 115.764 31.9163 117.427 33.8489C122.726 40.0001 128.118 48.4372 133.605 59.1603C139.091 69.8625 134.176 83.5988 118.86 100.369C111.213 108.744 103.015 116.048 94.266 122.283L98.1313 25.7131L104.085 25.5573C106.6 25.7859 108.937 26.5444 111.099 27.8328L112.751 29.1108Z" fill="#FFF8B0"/>
<path d="M107.078 63.5243C107.95 66.5375 108.678 70.5171 109.26 75.463L110.6 87.4329C111.161 91.6514 111.909 94.7686 112.844 96.7843C114.029 99.3612 115.691 100.743 117.832 100.93C112.782 107.019 107.337 112.401 101.498 117.077C98.5885 119.425 96.1779 121.161 94.266 122.283C96.2194 117.108 98.2144 110.78 100.251 103.299C104.345 88.3368 106.62 75.0785 107.078 63.5243Z" fill="#DDD698"/>
<path d="M115.369 71.5666C114.122 80.3154 111.275 89.2616 106.828 98.4053C102.838 106.572 98.1625 113.794 92.801 120.07L90.2449 121.379L55.8003 28.051C60.8086 23.0428 66.6065 19.9464 73.1941 18.7619C80.3635 17.4735 87.1797 18.7827 93.6426 22.6895C102.89 28.2796 109.291 35.6049 112.844 44.6655C115.941 52.5831 116.782 61.5501 115.369 71.5666Z" fill="#FFF8B0"/>
<path d="M92.801 120.07L90.2449 121.379L87.8447 59.9395C92.4581 73.0524 96.5311 82.5805 100.064 88.5239C103.389 94.0932 106.132 96.3376 108.293 95.2569C104.116 104.629 98.9521 112.9 92.801 120.07Z" fill="#DDD698"/>
<path d="M53.0572 27.7704C59.2708 27.625 65.3804 29.2667 71.3861 32.6956C80.1557 37.7038 86.7849 44.7174 91.2736 53.7364C95.035 61.3007 97.1754 69.9872 97.6949 79.7958C98.1313 87.755 97.4975 95.7141 95.7935 103.673C94.3596 110.427 92.6659 115.269 90.7125 118.199L22.135 60.0642C22.0519 54.5364 23.3923 49.2892 26.1562 44.3226C28.8785 39.4598 32.5671 35.553 37.2221 32.602C42.0848 29.5264 47.3632 27.9159 53.0572 27.7704Z" fill="#FFF8B0"/>
<path d="M22.135 60.0642C22.0934 56.5938 22.6337 53.1857 23.7559 49.8399C24.8365 46.5773 26.4055 43.5537 28.4628 40.769C25.595 49.0399 27.1536 57.4458 33.1385 65.9868C38.0844 73.0316 45.6695 79.7231 55.8938 86.0613C64.3933 91.3397 73.0797 95.4647 81.9532 98.4364C90.2449 101.242 95.0661 101.928 96.4169 100.494C95.7103 104.484 94.8167 108.12 93.7361 111.404C92.7386 114.417 91.7307 116.682 90.7125 118.199L22.135 60.0642Z" fill="#DDD698"/>
<path d="M22.2596 60.0642C27.7458 57.7991 33.6892 56.7393 40.0898 56.8847C46.137 57.0302 51.5401 58.1939 56.299 60.3759C70.7626 67.0259 80.7687 77.7385 86.3172 92.5138C89.6214 101.304 91.1384 110.77 90.8683 120.911L85.1639 125.961L27.0912 118.573C24.8261 119.238 22.2181 119.093 19.2671 118.137C16.2747 117.16 13.4484 115.518 10.7885 113.212C4.42947 107.663 1.3227 100.722 1.46817 92.3891C1.61363 84.1183 3.70213 77.1255 7.73365 71.4107C11.2664 66.3817 16.1084 62.5995 22.2596 60.0642Z" fill="#FFF8B0"/>
<path d="M1.46817 92.3892C1.6552 82.8922 4.33595 75.1305 9.51044 69.104C8.18045 77.7905 8.7831 85.5626 11.3184 92.4203C13.542 98.3637 16.8773 102.884 21.3245 105.98C25.4807 108.869 29.4914 109.824 33.3567 108.848C37.4298 107.83 40.1002 104.91 41.3678 100.089C57.2445 114.864 70.2846 122.688 80.4881 123.561C83.5845 123.81 86.2653 123.395 88.5304 122.314L90.8683 120.911L85.0392 126.148L27.0912 118.573C24.8261 119.238 22.2181 119.093 19.2671 118.137C16.2747 117.16 13.4484 115.518 10.7885 113.212C4.42947 107.663 1.3227 100.722 1.46817 92.3892Z" fill="#DDD698"/>
<path d="M21.5739 121.223C26.8315 117.939 32.8892 115.789 39.7469 114.77C45.7527 113.898 51.9662 113.939 58.3875 114.895C64.1855 115.768 69.3911 117.254 74.0045 119.353C78.4724 121.41 81.4857 123.613 83.0443 125.961L53.8988 183.535C43.155 185.177 33.1178 183.545 23.7871 178.641C16.3267 174.734 10.7885 169.788 7.17263 163.803C3.59829 157.881 2.56963 151.272 4.08664 143.978C5.97772 134.897 11.8068 127.312 21.5739 121.223Z" fill="#FFF8B0"/>
<path d="M55.925 156.571C62.2424 151.335 68.6638 144.581 75.189 136.31C80.3427 129.286 82.9611 125.836 83.0443 125.961L53.8988 183.535C43.155 185.177 33.1178 183.545 23.7871 178.641C16.3267 174.734 10.7885 169.788 7.17262 163.803C5.67639 161.31 4.62694 158.535 4.02429 155.48C11.7133 165.331 20.5244 169.809 30.4578 168.915C38.3754 168.209 46.8644 164.094 55.925 156.571Z" fill="#DDD698"/>
<path d="M58.3875 130.98C62.6891 129.857 66.9181 129.411 71.0743 129.639L149.97 159.938C154.77 160.333 159.394 161.559 163.841 163.616C169.784 166.38 174.211 170.235 177.12 175.181C165.441 168.967 146.593 170.193 120.575 178.859C112.907 181.415 105.779 183.452 99.1911 184.969C91.0241 186.86 84.4053 187.774 79.3348 187.712C69.3806 187.566 60.8604 186.029 53.7741 183.098C43.3212 178.776 37.3259 171.783 35.7881 162.12C34.0425 151.231 37.4713 142.71 46.0747 136.559C49.5867 134.066 53.6909 132.206 58.3875 130.98Z" fill="#FFF8B0"/>
<path d="M70.0457 174.277C76.7788 175.441 85.0289 175.669 94.796 174.963C100.802 174.526 109.104 173.529 119.702 171.97C129.594 170.495 136.109 169.695 139.247 169.57C144.587 169.321 147.455 170.152 147.85 172.064C139.891 173.165 130.799 175.43 120.575 178.859C112.907 181.415 105.779 183.452 99.1912 184.969C91.0242 186.86 84.4054 187.774 79.3349 187.712C69.3807 187.566 60.8605 186.029 53.7742 183.098C43.3213 178.776 37.326 171.783 35.7882 162.12C34.9777 157.112 35.3206 152.55 36.8168 148.436C38.1676 144.716 40.3912 141.453 43.4875 138.648C37.3363 148.103 37.9494 156.312 45.3267 163.273C51.1454 168.76 59.385 172.427 70.0457 174.277Z" fill="#DDD698"/>
<path d="M163.841 163.616C169.784 166.38 174.211 170.235 177.12 175.181C168.371 170.547 155.747 170.027 139.247 173.622C137.127 172.812 138.176 170.952 142.395 168.043C144.556 166.567 147.071 165.019 149.938 163.398C150.312 163.024 149.408 162.577 147.226 162.058C145.003 161.538 143.195 161.393 141.803 161.621C142.239 160.915 143.725 160.416 146.26 160.125L149.97 159.938C154.77 160.333 159.394 161.559 163.841 163.616Z" fill="#EF8200"/>
<path d="M156.983 169.695C165.379 170.193 171.551 171.762 175.499 174.402C166.854 170.516 154.77 170.256 139.247 173.622C137.522 172.957 137.906 171.596 140.4 169.539L147.445 169.476C151.144 169.456 154.323 169.528 156.983 169.695Z" fill="#CF7100"/>
<path d="M106.579 30.9499C106.579 30.7421 106.953 30.6071 107.701 30.5447L111.255 30.6694L119.671 37.4336L114.465 43.1692C113.759 40.6339 112.231 37.922 109.883 35.0334L106.579 30.9499Z" fill="#DDD698"/>
<path d="M176.528 24.7468C181.702 31.1474 183.625 38.3584 182.295 46.3799C181.962 43.5537 181.484 41.4132 180.861 39.9585C180.029 38.0882 178.71 36.6024 176.902 35.501C179.271 38.9507 180.715 43.5121 181.235 49.1853C181.962 57.4146 179.811 64.9893 174.782 71.9094C175.572 65.6128 175.375 60.2824 174.19 55.9184C172.985 51.5336 170.74 47.9696 167.457 45.2265C168.766 46.3487 169.306 49.0814 169.078 53.4247C168.828 57.9965 167.8 61.5397 165.992 64.0542C166.117 60.7915 165.805 57.7887 165.057 55.0456L163.935 51.8973L164.34 54.765C164.464 57.0094 164.163 58.9836 163.436 60.6876C163.27 56.0119 161.378 51.3362 157.763 46.6604C154.105 41.9431 150.25 39.2312 146.198 38.5246L127.838 34.7217C126.051 36.5297 123.754 37.7869 120.949 38.4935C117.624 39.3247 115.161 38.7532 113.561 36.779C111.733 34.4931 110.995 31.5838 111.348 28.051C111.701 24.2896 113.218 21.1517 115.899 18.6372C118.331 16.3305 122.248 14.3251 127.651 12.6211C131.288 11.4573 135.433 10.4806 140.088 9.69094C141.979 9.35844 144.161 8.51681 146.634 7.16604C149.377 5.6698 151.559 3.98654 153.18 2.11624C153.097 4.17357 152.432 6.14777 151.185 8.03884L149.377 10.2832L153.118 9.37922C156.194 8.79735 159.238 8.58954 162.251 8.75579C171.852 9.23375 179.209 13.2341 184.321 20.7568C181.91 19.0528 178.523 18.0034 174.159 17.6085L168.33 17.5462L170.948 19.3541C173.047 20.9543 174.907 22.7518 176.528 24.7468Z" fill="#FFF8B0"/>
<path d="M147.071 11.9353C144.39 12.5588 142.54 12.725 141.522 12.4341C141.148 12.3302 141.19 12.1951 141.647 12.0288L144.203 11.0625C147.549 9.50395 150.396 7.02061 152.744 3.61252C152.619 5.10875 152.017 6.66733 150.936 8.28826L149.377 10.2832L150.811 9.87801L154.645 9.12989C152.463 10.3352 149.938 11.2703 147.071 11.9353Z" fill="#DDD698"/>
<path d="M178.024 16.05C181.183 17.6293 183.282 19.1983 184.321 20.7569C181.91 19.0528 178.523 18.0034 174.159 17.6085L168.33 17.5462L168.984 17.9514L170.699 19.1671C168.205 17.8579 165.129 17.089 161.472 16.8604L158.635 16.6422C157.97 16.5175 157.7 16.237 157.825 15.8006C158.116 14.8239 159.654 14.1277 162.438 13.7121C165.181 13.3173 168.215 13.3069 171.54 13.6809C173.099 13.868 175.26 14.6576 178.024 16.05Z" fill="#DDD698"/>
<path d="M177.369 31.6669C178.97 32.6644 180.113 33.9736 180.798 35.5945C181.63 37.5272 182.159 39.2728 182.388 40.8313C182.658 42.577 182.627 44.4265 182.295 46.3799C181.962 43.5537 181.484 41.4132 180.861 39.9585C180.029 38.0882 178.71 36.6024 176.902 35.501C175.759 34.1295 174.917 32.9865 174.377 32.0721C173.67 30.9292 173.598 30.3785 174.159 30.42C175.094 30.4824 176.164 30.898 177.369 31.6669Z" fill="#DDD698"/>
<path d="M158.573 36.218C157.783 34.0775 157.565 33.0592 157.918 33.1631C163.779 34.7841 168.569 38.1922 172.288 43.3874C176.445 49.2269 178.138 56.0327 177.369 63.8048C177.12 66.2985 176.788 68.1065 176.372 69.2287C176.123 69.8937 175.593 70.7872 174.782 71.9094C175.572 65.6128 175.374 60.2824 174.19 55.9184C172.985 51.5336 170.74 47.9696 167.457 45.2265C168.766 46.3487 169.306 49.0814 169.078 53.4247C168.828 57.9965 167.8 61.5397 165.992 64.0542C166.117 60.7916 165.805 57.7887 165.057 55.0456L163.935 51.8973L164.34 54.765C164.464 57.0094 164.163 58.9836 163.436 60.6876C163.269 56.0119 161.378 51.3362 157.763 46.6604C154.105 41.9431 150.25 39.2312 146.198 38.5247L127.838 34.7217C126.051 36.5297 123.754 37.7869 120.949 38.4935C117.624 39.3247 115.161 38.7532 113.561 36.779C112.044 34.8672 111.119 32.5709 110.787 29.8901C110.413 26.8353 111.088 24.4767 112.813 22.8142C112.543 25.7027 113.062 27.6354 114.372 28.6121C115.847 29.6927 118.466 29.7135 122.227 28.6744L128.399 27.0535L135.818 26.7418C142.26 27.5315 149.887 31.4175 158.698 38.4C159.342 38.9195 159.3 38.1922 158.573 36.218Z" fill="#DDD698"/>
<path d="M156.235 115.705C155.196 117.784 154.001 121.711 152.65 127.488C151.3 133.328 150.624 137.536 150.624 140.113C150.624 142.565 148.712 144.165 144.889 144.913L140.618 145.038C139.247 144.809 138.384 144.342 138.031 143.635C138.924 141.869 139.475 140.082 139.683 138.274C139.891 136.383 139.849 133.567 139.558 129.826L156.64 95.631L156.235 115.705Z" fill="#FFF8B0"/>
<path d="M156.64 95.631L156.235 115.705C155.612 116.932 154.874 119.062 154.022 122.096C153.211 124.984 152.495 127.987 151.871 131.104C149.066 131.915 146.53 133.255 144.265 135.125C142.042 136.975 140.223 139.23 138.81 141.89C139.35 140.477 139.673 138.908 139.777 137.183C139.88 135.416 139.808 132.964 139.558 129.826L156.64 95.631Z" fill="#DDD698"/>
<path d="M127.464 89.7707C132.493 88.3369 137.023 87.4017 141.055 86.9653C153.918 85.5938 159.321 89.5318 157.264 98.7793C155.456 106.946 151.497 114.853 145.387 122.501C142.333 126.345 139.465 129.359 136.784 131.541L134.82 141.017C130.124 142.555 125.001 144.092 119.453 145.63C108.356 148.706 100.708 150.244 96.5104 150.244C89.6942 150.244 84.9665 148.571 82.3273 145.225C80.457 142.856 79.7504 139.947 80.2076 136.497C80.644 131.385 83.491 126.626 88.7486 122.22C90.9722 120.371 94.9206 117.836 100.594 114.615C103.669 112.89 107.68 109.159 112.626 103.424C117.115 98.2079 119.951 94.3322 121.136 91.7969L127.464 89.7707Z" fill="#FFF8B0"/>
<path d="M129.396 114.085C132.763 107.061 135.309 102.021 137.033 98.9664C140.088 93.5633 143.06 89.4486 145.948 86.6224C149.938 86.7471 152.9 87.6718 154.832 89.3967C157.118 91.4332 157.929 94.5608 157.264 98.7793C155.809 108.131 148.692 119.602 135.911 133.193C129.511 139.988 123.256 145.848 117.146 150.774L110.756 151.272L103.524 151.023C108.532 147.864 111.14 142.918 111.348 136.185C111.41 134.086 111.234 131.936 110.818 129.733L110.163 127.052L112.314 129.359C113.811 131.354 114.735 133.536 115.089 135.905C117.354 134.741 119.775 132.039 122.352 127.8C123.972 125.099 126.321 120.527 129.396 114.085Z" fill="#DDD698"/>
<path d="M121.136 91.7969L125.593 90.2695C129.209 89.1057 132.649 88.2121 135.911 87.5887C133.895 89.1265 129.812 91.9423 123.661 96.0362C118.445 99.5067 114.174 102.634 110.849 105.419C113.197 102.842 115.369 100.224 117.364 97.5636C119.297 94.9868 120.554 93.0645 121.136 91.7969Z" fill="#DDD698"/>
<path d="M121.728 108.1C121.77 105.502 122.819 103.788 124.877 102.956C126.685 102.229 128.939 102.26 131.641 103.05C134.238 103.819 136.483 105.066 138.374 106.79C140.431 108.619 141.481 110.51 141.522 112.464C141.605 115.955 141.138 119.217 140.119 122.252C139.766 123.291 138.956 125.088 137.688 127.644C136.919 129.203 135.963 133.66 134.82 141.017L122.227 144.82C122.456 143.677 122.653 142.16 122.819 140.269C123.152 136.487 123.173 132.756 122.882 129.078L122.133 121.223C121.801 117.087 121.666 112.713 121.728 108.1Z" fill="#FFF8B0"/>
<path d="M126.529 102.52C129.563 102.125 132.784 102.987 136.192 105.107C139.704 107.331 141.481 109.783 141.522 112.464C141.605 115.893 140.857 119.228 139.278 122.47C138.488 124.132 137.605 125.576 136.628 126.803L136.223 123.249C135.849 120.153 135.07 117.784 133.885 116.142C133.532 115.643 133.262 116.007 133.075 117.233C132.95 118.106 132.888 119.134 132.888 120.319C132.888 120.714 132.545 120.35 131.859 119.228C131.132 118.043 130.373 116.568 129.583 114.802C127.422 109.876 126.404 105.783 126.529 102.52Z" fill="#DDD698"/>
<path d="M126.809 25.5573C126.477 20.9231 126.726 18.5437 127.557 18.419C128.513 18.2943 130.747 20.0815 134.259 23.7805C137.522 27.2301 140.628 30.9811 143.579 35.0334C146.447 37.9428 148.899 40.9872 150.936 44.1667C153.076 47.5332 154.895 51.2842 156.391 55.4196C158.116 60.2616 159.664 65.8517 161.035 72.19C162.573 79.4218 163.207 84.7833 162.937 88.2745C162.708 91.4332 162.854 95.4959 163.373 100.463C163.643 102.936 163.934 105.097 164.246 106.946L163.249 104.453C162.397 102.52 161.482 100.889 160.506 99.5586C161.711 106.77 160.62 113.305 157.233 119.166C157.295 118.334 157.243 117.358 157.077 116.235C156.744 113.991 156.027 112.152 154.926 110.718C155.092 113.191 154.23 116.142 152.339 119.571C150.24 123.394 147.704 125.982 144.733 127.332C146.79 123.675 146.416 119.737 143.611 115.518L139.839 110.593C138.322 108.702 137.335 107.196 136.877 106.073C136.94 106.572 136.836 108.027 136.566 110.437C136.545 112.952 137.127 114.989 138.311 116.547C136.628 115.944 134.955 114.157 133.293 111.186L131.329 106.946L131.173 109.471C131.132 111.425 131.319 113.097 131.734 114.49C129.303 112.682 127.64 109.253 126.747 104.203C126.456 102.624 126.269 100.982 126.186 99.2781L126.123 97.1896C125.458 97.9169 124.804 98.7793 124.159 99.7768C122.871 101.772 122.289 103.434 122.414 104.764C121.167 101.938 120.627 98.6131 120.793 94.7893C120.938 91.2981 121.531 88.846 122.57 87.4329C124.98 84.2118 126.736 80.0244 127.838 74.8707C128.669 70.9846 128.96 67.9922 128.711 65.8933C128.108 66.0803 126.778 66.818 124.721 68.1065C122.726 69.3533 121.541 70.0183 121.167 70.1015L119.889 70.2885C119.577 70.2261 119.162 69.956 118.642 69.478C117.707 69.6443 116.304 69.478 114.434 68.9793C112.481 68.4805 111.161 67.8779 110.475 67.1713C109.644 66.3609 109.291 65.6751 109.415 65.114C109.623 64.1996 110.828 62.2254 113.031 59.1914C114.05 57.7991 114.683 55.9599 114.933 53.674C115.161 51.4712 115.016 49.1541 114.496 46.7228C114.122 44.9772 114.6 43.1692 115.93 41.2989C116.761 40.1352 117.749 39.1169 118.891 38.2441L121.541 37.9012C123.682 37.3817 125.749 36.4154 127.744 35.0023L126.809 25.5573Z" fill="#FFF8B0"/>
<path d="M131.049 60.8747C131.734 60.6669 131.869 60.8124 131.454 61.3111C131.121 61.7267 130.55 62.2462 129.739 62.8697C129.157 63.3269 129.033 63.6074 129.365 63.7113L130.519 63.5243L133.199 62.1216C134.758 61.3527 135.911 61.0202 136.659 61.1241C137.179 61.1864 137.698 61.7475 138.218 62.8073C138.821 63.9919 139.174 65.3634 139.278 66.922C139.569 71.2029 138.021 75.0993 134.633 78.6113C132.285 81.0219 130.539 82.1545 129.396 82.009C128.503 81.8843 127.557 80.7933 126.56 78.736C127.017 77.7177 127.516 75.65 128.056 72.5329C128.617 69.3118 128.835 67.0986 128.711 65.8933C128.108 66.0804 126.778 66.8181 124.721 68.1065C122.726 69.3534 121.541 70.0184 121.167 70.1015L119.047 69.8833C118.133 69.6547 117.416 69.3949 116.897 69.104C118.767 68.7092 121.188 67.3896 124.16 65.1452C127.318 62.7554 129.615 61.3319 131.049 60.8747Z" fill="#DDD698"/>
<path d="M126.186 99.2781L126.123 97.1896C125.458 97.9169 124.804 98.7793 124.16 99.7768C122.871 101.772 122.289 103.434 122.414 104.764L121.728 102.925C121.603 102.198 121.666 101.2 121.915 99.9327C122.185 98.6235 123.037 97.1065 124.471 95.3816C125.864 93.7191 126.664 93.0749 126.871 93.449L127.059 97.3143C127.1 99.808 127.287 101.408 127.62 102.115C127.952 102.842 128.461 102.468 129.147 100.993C129.874 99.4131 130.28 98.6442 130.363 98.6858L132.046 103.393C133.023 106.24 133.719 107.383 134.134 106.822C134.467 106.344 135.038 104.951 135.849 102.645C136.493 100.774 136.836 100.026 136.878 100.4C136.961 101.086 137.626 102.416 138.873 104.39C140.306 106.635 141.72 108.349 143.112 109.534C144.504 110.739 145.678 112.079 146.634 113.555C147.278 114.552 147.943 115.83 148.629 117.389C149.128 118.573 150.313 116.952 152.183 112.526C154.032 108.162 155.051 104.743 155.238 102.271C155.279 101.855 155.56 102.603 156.079 104.515C156.661 106.697 157.087 107.653 157.357 107.383C157.565 107.175 158.074 103.788 158.885 97.2207C159.612 91.3605 160.048 89.1473 160.194 90.5812C160.339 92.2229 160.849 92.2645 161.721 90.7059L162.937 88.2745C162.708 91.4332 162.854 95.4959 163.373 100.463C163.644 102.936 163.935 105.097 164.246 106.946L163.249 104.453C162.397 102.52 161.482 100.889 160.506 99.5586C161.254 104.047 160.89 108.806 159.415 113.835C158.666 116.35 157.846 118.417 156.952 120.038C157.056 119.062 157.046 117.939 156.921 116.672C156.692 114.137 156.027 112.152 154.926 110.718C155.092 113.191 154.23 116.142 152.339 119.571C150.24 123.394 147.704 125.982 144.733 127.332C146.79 123.675 146.416 119.737 143.611 115.518L139.839 110.593C138.322 108.702 137.335 107.196 136.878 106.073C136.94 106.572 136.836 108.027 136.566 110.437C136.545 112.952 137.127 114.989 138.311 116.547C136.628 115.944 134.955 114.157 133.293 111.186L131.329 106.946L131.173 109.471C131.132 111.425 131.319 113.097 131.734 114.49C129.303 112.682 127.64 109.253 126.747 104.203C126.456 102.624 126.269 100.982 126.186 99.2781Z" fill="#DDD698"/>
<path d="M121.416 40.6132C118.465 42.3172 116.564 42.7225 115.712 41.8289C116.73 40.2287 117.707 39.0962 118.642 38.4312L121.635 37.9013C123.921 37.3194 125.832 36.4466 127.37 35.2828C126.29 37.1531 124.305 38.9299 121.416 40.6132Z" fill="#DDD698"/>
<path d="M124.534 54.2663C124.534 51.357 125.001 49.2997 125.936 48.0944C126.851 46.8891 128.742 45.8812 131.61 45.0707C131.61 48.084 131.049 50.1621 129.926 51.305C129.407 51.8246 127.609 52.8117 124.534 54.2663Z" fill="#E50044"/>
<path d="M124.627 54.2352L124.534 54.2663C124.534 51.357 125.001 49.2997 125.936 48.0944C126.851 46.8891 128.742 45.8812 131.61 45.0707L131.578 46.3176C129.417 46.754 127.724 47.7619 126.497 49.3412C125.458 50.692 124.835 52.3233 124.627 54.2352Z" fill="#C6003A"/>
<path d="M134.82 28.3939C137.21 31.511 138.675 33.7034 139.215 34.9711L130.83 35.6257C130.269 35.501 129.812 33.4852 129.459 29.5784C129.105 25.7339 129.116 23.5103 129.49 22.9077C130.446 23.1571 132.223 24.9858 134.82 28.3939Z" fill="#FFF8B0"/>
<path d="M134.415 27.8328C133.688 27.2925 133.147 27.9575 132.794 29.8278C132.462 31.6357 132.482 33.5684 132.856 35.6257C131.755 35.7088 131.08 35.7088 130.83 35.6257C130.269 35.501 129.812 33.4852 129.459 29.5784C129.105 25.7339 129.116 23.5103 129.49 22.9077C130.404 23.1571 132.046 24.7988 134.415 27.8328Z" fill="#DDD698"/>
<path d="M85.3197 125.867L83.3871 128.299C82.0155 130.46 81.1115 132.85 80.6751 135.468C80.3634 139.874 81.3713 143.417 83.6988 146.098C85.9847 148.737 89.185 150.088 93.2996 150.15C98.3702 150.233 103.659 149.703 109.166 148.56C112.657 147.833 117.374 146.555 123.318 144.726C129.552 142.814 134.051 141.557 136.815 140.954C141.803 139.832 146.416 139.323 150.655 139.427C162.251 139.718 172.839 143.22 182.419 149.932C190.378 155.501 195.968 161.839 199.189 168.947C190.108 160.738 177.317 157.32 160.817 158.691C149.055 159.689 138.062 162.525 127.838 167.201C120.585 170.547 112.221 172.749 102.745 173.809C92.7697 174.931 84.4885 174.391 77.9009 172.188C68.4039 169.03 62.6684 163.284 60.6942 154.951C59.8629 151.418 59.8941 147.843 60.7877 144.228C61.6605 140.674 63.2398 137.567 65.5258 134.907C68.5182 131.437 72.0822 128.953 76.2176 127.457C79.127 126.397 82.161 125.867 85.3197 125.867Z" fill="#FFF8B0"/>
<path d="M80.7375 138.928C79.3867 137.162 78.4308 135.25 77.8697 133.193C77.2878 131.073 77.1839 128.995 77.558 126.958C80.0517 126.231 82.6389 125.867 85.3197 125.867L83.4494 128.704C82.0986 131.032 81.1739 133.286 80.6751 135.468C80.592 136.632 80.6128 137.785 80.7375 138.928Z" fill="#DDD698"/>
<path d="M77.7762 172.126C70.5236 169.715 65.3699 165.725 62.3151 160.156C59.4681 154.961 58.9797 149.589 60.85 144.04C60.9331 152.519 64.7673 158.722 72.3523 162.65C78.3788 165.767 85.7353 167.118 94.4218 166.702C102.776 166.287 110.673 165.237 118.112 163.554C122.414 162.577 128.17 160.915 135.381 158.566C141.969 156.426 147.039 155.023 150.593 154.358C156.266 153.278 162.116 152.976 168.143 153.454C173.566 153.891 179.603 155.678 186.253 158.816C193.319 162.141 197.631 165.518 199.189 168.947C190.108 160.738 177.317 157.32 160.817 158.691C149.055 159.689 138.062 162.525 127.838 167.201C120.627 170.547 112.242 172.739 102.682 173.778C92.6658 174.88 84.3638 174.329 77.7762 172.126Z" fill="#DDD698"/>
<path d="M199.19 168.947C192.706 163.086 184.227 159.668 173.754 158.691C165.42 157.922 156.308 158.701 146.416 161.029L142.551 162.058L139.652 162.681C139.423 162.328 141.242 161.102 145.107 159.003C149.18 156.779 151.279 155.574 151.404 155.387C151.674 154.971 149.783 154.171 145.73 152.987L138.374 150.961C137.688 150.753 138.301 150.254 140.213 149.464C141.834 148.799 143.195 148.342 144.296 148.093L139.621 146.971C136.005 146.098 134.54 145.131 135.226 144.072C135.911 143.012 138.228 142.097 142.177 141.329L150.998 139.427C163.218 139.947 173.941 143.511 183.167 150.119C190.565 155.439 195.906 161.715 199.19 168.947Z" fill="#EF8200"/>
<path d="M182.357 157.008C186.056 158.421 189.506 160.135 192.706 162.151C195.116 163.647 196.727 164.842 197.537 165.736L199.19 168.947C192.706 163.086 184.227 159.668 173.754 158.691C165.42 157.922 156.308 158.701 146.416 161.029L142.551 162.058L139.652 162.681C139.423 162.328 141.242 161.102 145.107 159.003C149.18 156.779 151.279 155.574 151.404 155.387C151.549 155.2 151.154 154.899 150.219 154.483C160.755 151.989 171.468 152.831 182.357 157.008Z" fill="#CF7100"/>
<path d="M151.996 171.409C153.534 171.638 154.749 172.303 155.643 173.404C156.433 174.381 156.775 175.43 156.671 176.552C156.588 177.425 156.11 178.101 155.238 178.579C154.469 178.994 153.596 179.161 152.619 179.077V178.36C153.43 178.423 154.084 178.215 154.583 177.737C154.999 177.342 155.238 176.823 155.3 176.178C155.383 175.222 155.092 174.35 154.427 173.56C153.658 172.666 152.609 172.116 151.279 171.908L151.996 171.409Z" fill="#0D131A"/>
<path d="M151.84 174.838C151.57 174.63 151.476 174.506 151.559 174.464C151.642 174.422 151.881 174.506 152.276 174.713C152.879 175.025 153.305 175.555 153.554 176.303C153.804 177.072 153.762 177.758 153.43 178.36C153.056 179.088 152.391 179.597 151.435 179.888L147.85 179.794L148.785 178.984C150.718 179.524 152.017 179.14 152.682 177.83C152.889 177.415 152.879 176.854 152.65 176.147C152.422 175.503 152.152 175.067 151.84 174.838Z" fill="#0D131A"/>
<path d="M147.164 175.306L146.603 174.994L147.04 174.932C147.393 174.973 147.881 175.191 148.505 175.586C149.232 176.043 149.7 176.511 149.907 176.989C150.24 177.779 150.115 178.527 149.533 179.233C149.18 179.69 148.723 179.992 148.162 180.137L144.546 179.919L144.016 179.108C146.634 179.67 148.276 179.524 148.941 178.672C149.232 178.319 149.263 177.841 149.035 177.238C148.598 176.282 147.975 175.638 147.164 175.306Z" fill="#0D131A"/>
<path d="M115.494 180.823L116.71 179.95C122.092 178.89 127.557 178.994 133.106 180.262C136.244 180.968 140.462 182.413 145.762 184.595L146.728 184.938L146.323 183.847C144.972 181.145 143.289 178.901 141.273 177.114C139.506 175.555 137.823 174.609 136.223 174.277L137.782 173.872C139.631 174.246 141.543 175.451 143.517 177.488C145.803 179.877 147.299 182.672 148.006 185.873C148.131 186.455 148.089 186.735 147.881 186.714L146.665 186.153C143.257 184.553 139.122 183.171 134.259 182.007C126.923 180.22 120.668 179.825 115.494 180.823Z" fill="#0D131A"/>
<path d="M103.524 24.4351C106.496 24.7676 109.124 25.6092 111.41 26.96L110.912 28.1445C108.854 26.9392 106.62 26.2119 104.21 25.9625C102.88 25.8378 100.843 25.8586 98.1001 26.0249L97.0403 24.8715C98.682 24.2481 100.843 24.1026 103.524 24.4351Z" fill="#0D131A"/>
<path d="M114.372 48.1567L114.777 52.0843C114.902 53.3935 114.881 54.6819 114.714 55.9496L114.496 54.2975C112.377 41.1015 105.207 30.7941 92.9879 23.3753C86.6704 19.5516 79.9686 18.2943 72.8822 19.6035C66.6271 20.7465 61.2864 23.5311 56.86 27.9575L55.6755 27.7393C59.4161 23.0012 64.7049 19.8217 71.5418 18.2008C79.4594 16.3305 86.9094 17.5046 93.8919 21.7232C98.8378 24.7156 103.077 28.5394 106.61 33.1943C110.018 37.6415 112.605 42.6289 114.372 48.1567Z" fill="#0D131A"/>
<path d="M114.839 68.8858L116.086 69.291C115.089 78.4347 112.585 87.4329 108.574 96.2856C104.875 104.453 100.23 111.799 94.6401 118.324L92.2087 119.851C97.9027 113.181 102.776 105.502 106.828 96.8155C111.296 87.1731 113.966 77.8632 114.839 68.8858Z" fill="#0D131A"/>
<path d="M53.8676 26.4613C59.9772 26.3989 65.8063 27.9471 71.3548 31.1058C77.7138 34.7218 83.065 39.5222 87.4082 45.5071C91.7307 51.4921 94.8167 58.3186 96.6662 65.9868C98.9937 75.8163 99.3365 86.3731 97.6948 97.6572C96.2817 107.487 94.0893 114.427 91.1176 118.48L90.6812 117.326C93.2581 112.879 95.1803 106.177 96.448 97.2208C97.9858 86.2484 97.6221 76.0137 95.357 66.5168C91.7618 51.3674 83.6988 40.2287 71.1678 33.1008C65.6816 29.9837 60.0707 28.3731 54.3352 28.2692C48.5996 28.1653 43.2485 29.5888 38.2818 32.5397C33.3775 35.4491 29.5226 39.3663 26.7171 44.2914C23.9117 49.2165 22.5505 54.4741 22.6337 60.0642H21.1998C21.0959 54.2456 22.457 48.7386 25.2832 43.5433C28.1718 38.2649 32.1098 34.1399 37.0973 31.1682C42.3133 28.0926 47.9034 26.5236 53.8676 26.4613Z" fill="#0D131A"/>
<path d="M16.3059 61.7163C23.1221 57.4354 30.9253 55.4716 39.7157 55.8249C48.5269 56.1989 56.8185 58.8381 64.5907 63.7425C72.9031 69.0001 79.3972 76.1695 84.0729 85.2509C89.2682 95.3712 91.6891 107.04 91.3359 120.257L90.2449 120.911C90.5981 108.276 88.2914 97.0025 83.3248 87.09C78.8568 78.1126 72.6225 70.9639 64.6218 65.6439C57.0783 60.6357 49.0153 57.903 40.4327 57.4458C31.767 56.9886 23.9741 58.9316 17.054 63.2749C12.9186 65.8517 9.59359 69.1767 7.07909 73.2498C3.79568 78.6113 2.09163 84.9911 1.96695 92.3891C1.8007 100.805 4.93864 107.694 11.3808 113.056C13.9784 115.217 16.7423 116.765 19.6724 117.7C22.5194 118.594 24.9508 118.74 26.9666 118.137L25.4391 119.29C24.1092 119.685 22.1453 119.529 19.5477 118.823C16.5552 118.012 13.7394 116.661 11.1002 114.77C3.82685 109.575 0.127823 102.052 0.00313676 92.2021C-0.0799875 85.5106 1.48898 79.3698 4.71005 73.7797C7.59861 68.7923 11.4639 64.7711 16.3059 61.7163Z" fill="#0D131A"/>
<path d="M23.413 95.7557C22.5194 96.109 22.031 96.1817 21.9479 95.9739C21.844 95.7661 22.3843 95.3608 23.5688 94.7582C25.0027 94.0309 26.8938 93.7191 29.2421 93.823C31.9228 93.9269 34.5412 94.5815 37.0973 95.7868C43.8511 98.9456 48.3606 104.91 50.6258 113.679L49.0672 114.053C46.6566 106.053 42.8017 100.577 37.5025 97.626C35.3413 96.4207 32.9515 95.631 30.3331 95.2569C27.6107 94.8621 25.304 95.0283 23.413 95.7557Z" fill="#0D131A"/>
<path d="M20.0776 120.412C25.0858 117.233 30.8941 115.061 37.5025 113.898C43.5498 112.838 49.7841 112.692 56.2054 113.461C62.3151 114.209 67.8324 115.695 72.7576 117.919C77.745 120.163 81.4129 122.844 83.7611 125.961L82.639 126.241C81.1843 124.039 78.2957 121.94 73.9733 119.945C69.443 117.825 64.3412 116.319 58.668 115.425C44.3914 113.139 32.1098 115.207 21.8232 121.628C12.2639 127.592 6.52834 135.021 4.61648 143.916C3.03712 151.148 4.02422 157.694 7.57778 163.554C11.2145 169.539 16.6175 174.412 23.787 178.173C32.7229 182.828 42.4172 184.356 52.8701 182.756L55.1768 184.221C44.807 185.447 35.3413 184.418 26.7795 181.135C17.5527 177.602 10.5391 171.866 5.73866 163.928C4.38789 161.684 3.41118 158.951 2.80853 155.73C2.12275 151.989 2.11236 148.238 2.77736 144.477C4.4814 134.689 10.2481 126.667 20.0776 120.412Z" fill="#0D131A"/>
<path d="M72.1341 129.109L71.0431 130.138C66.2843 129.868 61.6605 130.398 57.1718 131.728C52.5999 133.058 48.6411 135.084 45.2954 137.806C37.6688 143.978 34.6555 152.062 36.2556 162.058C37.7934 171.742 43.955 178.703 54.7404 182.943C61.702 185.686 69.9106 187.109 79.3659 187.213C84.769 187.275 91.8865 186.247 100.718 184.127C106.787 182.672 113.353 180.771 120.419 178.423C133.033 174.204 143.912 171.731 153.056 171.004C162.199 170.277 169.774 171.274 175.78 173.996C172.413 169.092 167.498 165.414 161.035 162.962C157.316 161.569 153.617 160.717 149.938 160.406L151.965 159.47C155.435 159.741 159.186 160.748 163.217 162.494C169.639 165.258 174.356 169.206 177.369 174.339L178.211 175.991L176.902 175.617C168.423 171.877 157.95 171.004 145.481 172.999C139.454 173.976 131.641 176.064 122.04 179.264C113.499 182.111 106.797 184.138 101.934 185.343C92.5619 187.691 84.5196 188.792 77.8074 188.647C67.7285 188.439 58.9901 186.631 51.5921 183.223C41.5964 178.61 35.7985 171.575 34.1983 162.12C33.4502 157.569 33.7931 153.195 35.227 148.997C36.6609 144.861 39.0611 141.245 42.4276 138.149C49.7633 131.374 59.6655 128.361 72.1341 129.109Z" fill="#0D131A"/>
<path d="M105.644 29.9837C106.267 29.7135 108.085 29.6824 111.099 29.8902L111.223 31.0123L107.95 30.7941C107.306 30.7941 107.129 30.9604 107.42 31.2929C109.332 33.4957 110.662 35.1166 111.41 36.1557C113.198 38.6494 114.33 40.9561 114.808 43.0757L114.247 44.759C113.956 42.5562 112.782 39.9794 110.725 37.0285C109.353 35.075 107.836 33.2671 106.174 31.6046C105.322 30.7526 105.145 30.2123 105.644 29.9837Z" fill="#0D131A"/>
<path d="M184.851 20.414L185.505 21.5673C185.464 21.7544 184.996 21.5881 184.103 21.0686C182.128 19.9256 179.5 19.0736 176.216 18.5125L169.545 17.9514C174.678 20.9231 178.46 24.9442 180.892 30.0148C183.053 34.5451 183.832 39.1273 183.23 43.7615C182.98 45.6733 182.762 46.5669 182.575 46.4422C182.513 46.3799 182.232 45.4863 181.734 43.7615C181.359 42.4315 180.902 41.195 180.362 40.0521C179.676 38.639 178.949 37.5895 178.18 36.9037C180.757 42.0574 182.045 47.6164 182.045 53.5805C182.045 56.7185 181.401 60.0434 180.113 63.5554C178.783 67.1921 177.11 70.0495 175.094 72.1276L173.941 73.1563C173.837 73.1147 173.837 72.6056 173.941 71.6289C174.606 66.2882 174.689 61.9034 174.19 58.4745C173.504 53.8819 171.738 50.0893 168.891 47.0969C169.473 49.0295 169.764 50.7959 169.764 52.396C169.764 54.6819 169.545 56.6873 169.109 58.4121C168.569 60.4279 167.686 62.3294 166.459 64.1165L165.649 65.114L165.587 63.4619L165.306 59.1291C165.14 57.2796 164.953 56.1158 164.745 55.6379C164.745 58.2563 164.485 60.3032 163.966 61.7787L163.56 62.5891C163.457 62.506 163.28 61.8722 163.031 60.6877C161.804 54.7858 159.934 50.214 157.42 46.9722C155.155 44.042 151.892 41.6314 147.632 39.7404L146.385 38.2753C150.874 39.3143 154.749 41.86 158.012 45.9123C161.067 49.736 162.937 54.0169 163.623 58.755C163.851 57.7575 163.966 56.7185 163.966 55.6379L163.935 53.3312L163.685 51.305C163.145 49.8919 163.072 49.3204 163.467 49.5906C163.841 49.8607 164.236 50.5049 164.651 51.5232C165.192 52.8324 165.576 54.0481 165.805 55.1703C166.2 57.1029 166.397 59.607 166.397 62.6826C167.166 61.2903 167.748 59.5967 168.143 57.6017C168.517 55.7729 168.704 53.9234 168.704 52.0531C168.704 48.936 168.174 46.7436 167.114 45.4759L165.493 44.2291L164.651 43.4186C164.61 43.1692 165.057 43.2627 165.992 43.6991C166.969 44.1563 167.862 44.7278 168.673 45.4136C174.304 50.2348 176.517 58.568 175.312 70.4132C179.032 64.8231 180.892 58.8901 180.892 52.6142C180.892 49.2061 180.341 45.7253 179.24 42.1717C178.388 39.4702 177.442 37.2986 176.403 35.6569C175.51 34.2438 175.219 33.5684 175.53 33.6307C175.821 33.6931 176.351 34.2126 177.12 35.1893C178.679 35.8959 180.019 37.2674 181.141 39.304L182.295 41.7353C182.295 35.127 180.009 29.2771 175.437 24.1857C173.276 21.7751 170.626 19.6347 167.488 17.7644C166.615 17.2449 166.179 16.902 166.179 16.7357C166.179 16.5071 166.885 16.6526 168.299 17.1721L174.252 16.9851C177.411 17.2968 180.3 18.1177 182.918 19.4477C177.785 12.8601 170.979 9.40002 162.501 9.06752C159.778 8.94283 156.921 9.16103 153.928 9.72212L149.346 10.7508L147.632 10.7196C147.86 10.491 148.359 10.252 149.128 10.0027C150.146 9.00518 151.05 7.57128 151.84 5.70099C152.63 3.87226 152.817 3.12414 152.401 3.45663C151.404 4.49569 150.229 5.49318 148.879 6.44911C146.219 8.27784 143.309 9.48314 140.151 10.065C128.035 12.2886 120.035 15.2395 116.149 18.9177C114.652 20.3309 113.52 22.0037 112.751 23.9364C112.023 25.7028 111.66 27.5419 111.66 29.4537C111.66 31.9267 112.429 34.1295 113.966 36.0621C115.276 37.6623 117.499 38.2129 120.637 37.7142C123.588 37.2362 125.895 36.1556 127.557 34.4724L128.118 35.0023C126.207 36.9141 123.775 38.2026 120.824 38.8675C117.375 39.6157 114.787 38.9611 113.063 36.9037C110.901 34.3061 109.956 31.2305 110.226 27.677C110.496 23.9779 112.034 20.788 114.839 18.1073C117.188 15.8837 121.094 13.8991 126.56 12.1535C130.799 10.8027 135.464 9.73251 140.556 8.94283C142.676 8.61034 144.982 7.65441 147.476 6.07505C149.616 4.68272 151.456 3.15531 152.993 1.49283C153.741 0.682364 154.219 0.287524 154.427 0.308305C154.677 0.349867 154.645 0.973299 154.334 2.1786C153.544 5.29576 152.308 7.74792 150.624 9.53509C156.921 7.62324 162.833 7.32191 168.361 8.63112C175.115 10.2313 180.611 14.1589 184.851 20.414Z" fill="#0D131A"/>
<path d="M140.462 134.97C140.462 136.965 140.244 138.741 139.808 140.3L138.717 140.643C139.07 139.396 139.278 137.952 139.34 136.31C139.382 134.731 139.299 132.58 139.091 129.857L140.4 128.361L140.494 131.915L140.462 134.97Z" fill="#0D131A"/>
<path d="M156.453 113.804L156.796 116.797C155.84 118.688 154.739 122.22 153.492 127.395C152.204 132.715 151.497 136.757 151.372 139.521L150.157 139.427C150.302 136.539 151.144 132.008 152.682 125.836C154.199 119.81 155.456 115.799 156.453 113.804Z" fill="#0D131A"/>
<path d="M145.73 120.818L146.042 122.096C144.754 124.589 143.153 126.792 141.242 128.704L136.348 133.037L136.441 131.603C138.561 129.67 140.41 127.769 141.99 125.899C143.237 124.402 144.483 122.709 145.73 120.818Z" fill="#0D131A"/>
<path d="M107.358 125.15C106.901 124.818 106.735 124.589 106.859 124.465C106.963 124.34 107.285 124.413 107.826 124.683C110.943 126.158 113.25 128.538 114.746 131.821C116.678 136.061 116.72 141.079 114.87 146.877L113.592 147.033C114.839 141.339 114.839 136.684 113.592 133.068C112.553 130.055 110.475 127.416 107.358 125.15Z" fill="#0D131A"/>
<path d="M121.354 119.041C121.022 115.176 120.928 112.058 121.074 109.689C121.136 108.858 121.292 108.245 121.541 107.85C121.832 107.435 121.988 107.757 122.009 108.817C122.05 110.521 122.279 113.7 122.695 118.355L123.567 127.862L123.63 128.735C123.734 129.94 123.713 131.748 123.567 134.159C123.567 137.858 123.297 141.464 122.757 144.976L121.385 145.163C122.362 139.136 122.663 133.702 122.289 128.86L122.227 127.987L121.354 119.041Z" fill="#0D131A"/>
<path d="M142.426 113.461C142.177 117.223 141.595 120.392 140.68 122.968L138.592 127.488C138.197 128.32 137.615 130.47 136.846 133.941C136.202 136.892 135.735 139.282 135.444 141.11L134.228 141.266C135.496 133.556 136.503 128.943 137.252 127.426C138.124 125.743 138.821 124.059 139.34 122.376C140.234 119.488 140.805 116.173 141.054 112.432L142.426 113.461Z" fill="#0D131A"/>
<path d="M151.996 44.3537C153.845 47.1592 155.445 50.3387 156.796 53.8922C158.396 58.0692 159.861 63.545 161.191 70.3197C162.584 77.3021 163.238 82.7571 163.155 86.6847C163.072 90.363 163.301 94.3322 163.841 98.5923L164.714 106.853C164.735 108.079 164.662 108.546 164.496 108.255L163.841 106.541C163.342 105.357 162.469 103.704 161.223 101.585L161.347 104.078C161.264 108.11 160.921 111.279 160.319 113.586C159.841 115.435 159.03 117.202 157.887 118.885C157.16 119.986 156.723 120.506 156.578 120.444C156.474 120.402 156.464 119.789 156.547 118.604C156.692 116.422 156.287 114.344 155.331 112.37C154.957 115.446 154.188 118.012 153.024 120.07C151.404 122.958 148.775 125.431 145.138 127.488L143.611 128.268C143.465 128.268 143.579 128.008 143.954 127.488C144.411 126.886 144.785 126.179 145.076 125.369C145.429 124.392 145.606 123.426 145.606 122.47C145.606 120.724 145.034 118.864 143.891 116.89C143.226 115.747 142.021 114.085 140.275 111.903C138.883 110.199 137.875 108.837 137.252 107.819C137.168 109.482 137.262 111.082 137.532 112.619C137.802 114.137 138.208 115.394 138.748 116.391C138.956 116.765 138.987 116.952 138.841 116.952L137.937 116.641C136.254 116.038 134.872 114.978 133.792 113.461C132.981 112.339 132.275 110.843 131.672 108.972V111.061C131.713 112.453 131.89 113.555 132.202 114.365L132.451 115.331L131.454 114.895C129.272 113.711 127.692 111.04 126.716 106.884C126.071 104.12 125.749 101.076 125.749 97.7507C123.921 100.057 122.985 102.426 122.944 104.858C122.902 105.793 122.83 106.292 122.726 106.354C122.601 106.396 122.31 105.99 121.853 105.138C121.375 104.266 120.907 102.987 120.45 101.304C119.931 99.3508 119.671 97.6883 119.671 96.3168C119.671 94.3633 119.827 92.6385 120.138 91.1423C120.429 89.6253 120.855 88.4927 121.416 87.7446C123.64 84.7937 125.448 80.9076 126.84 76.0864C127.942 72.2211 128.492 69.0624 128.492 66.6102L125.001 68.7299C123.027 69.8521 121.749 70.4755 121.167 70.6002C119.879 70.8911 118.819 70.7041 117.988 70.0391C116.637 70.2261 114.891 69.8521 112.751 68.9169C110.59 67.961 109.343 66.9947 109.01 66.018C108.719 65.1867 109.135 63.8983 110.257 62.1527L113.249 57.7263C114.122 56.2301 114.59 54.6715 114.652 53.0506C114.694 51.7206 114.455 49.7984 113.935 47.2839C113.52 45.3512 113.914 43.3978 115.12 41.4236C115.889 40.1767 116.772 39.1585 117.769 38.3688L119.702 38.3064C118.642 39.0753 117.676 40.0209 116.803 41.1431C115.224 43.1173 114.611 44.946 114.964 46.6293C115.504 49.0814 115.702 51.2427 115.556 53.1129C115.411 55.004 114.912 56.7392 114.06 58.3186L111.13 62.9943C110.195 64.5945 110.091 65.7582 110.818 66.4856C111.483 67.1506 112.585 67.7636 114.122 68.3247C115.639 68.8858 116.803 69.104 117.614 68.9793L119.172 68.9169C119.629 69.3326 119.962 69.5715 120.17 69.6339L121.229 69.5715C121.749 69.4053 123.422 68.4805 126.248 66.7973C129.344 64.927 131.651 63.6593 133.168 62.9943C134.186 62.5579 134.841 62.3813 135.132 62.4644C135.444 62.5475 135.205 62.7657 134.415 63.119C133.833 63.41 132.95 63.8983 131.765 64.5841L129.77 65.7998C129.77 68.5221 129.272 71.8263 128.274 75.7123C126.986 80.7206 125.219 84.7313 122.975 87.7446C122.331 88.5966 121.874 89.7396 121.603 91.1734C121.354 92.4203 121.229 94.0412 121.229 96.0362C121.229 98.4676 121.552 100.712 122.196 102.769C122.487 101.481 123.017 100.276 123.785 99.1534L125.749 96.6597C125.874 95.6622 126.03 95.1322 126.217 95.0699C126.425 95.0076 126.529 95.5998 126.529 96.8467C126.529 99.2365 126.736 101.606 127.152 103.954C127.879 108.089 129.137 111.134 130.924 113.087C130.425 111.404 130.467 109.482 131.048 107.32C130.778 106.406 130.633 105.595 130.612 104.889C130.591 104.078 130.986 104.712 131.797 106.79C132.69 109.18 133.366 110.77 133.823 111.56C134.55 112.869 135.6 114.085 136.971 115.207C136.597 114.313 136.337 112.848 136.192 110.812C136.046 108.505 136.171 106.562 136.566 104.982C136.857 103.819 137.085 103.684 137.252 104.577L137.439 106.292C137.73 107.019 138.218 107.829 138.904 108.723L140.992 111.279C142.821 113.523 144.089 115.269 144.795 116.516C146 118.594 146.603 120.568 146.603 122.439C146.603 123.644 146.343 124.891 145.824 126.179C148.276 124.662 150.344 122.355 152.027 119.259C153.565 116.412 154.375 113.731 154.458 111.217C154.5 109.596 154.625 108.765 154.832 108.723C155.04 108.681 155.217 109.523 155.362 111.248C156.048 112.038 156.578 113.077 156.952 114.365C157.264 115.466 157.44 116.599 157.482 117.763C158.272 116.578 158.937 114.708 159.477 112.152C160.038 109.596 160.298 107.102 160.256 104.671L159.945 97.5636C159.882 96.3999 159.903 95.8284 160.007 95.8492C160.152 95.8907 160.443 97.0337 160.88 99.2781C161.358 99.7976 161.815 100.463 162.251 101.273L163.218 103.268L162.594 98.3117C162.366 96.2336 162.251 94.3218 162.251 92.5762C162.251 89.5837 162.137 86.6328 161.908 83.7234C161.617 79.6296 160.911 74.9434 159.789 69.6651C158.646 64.2828 157.357 59.5862 155.923 55.5755C154.51 51.5855 152.785 47.9696 150.749 44.7278C148.712 41.4859 146.208 38.3584 143.237 35.3451H143.205L143.174 35.314C139.953 30.8876 136.753 26.9912 133.573 23.6246C130.394 20.2581 128.42 18.6787 127.651 18.8866C127.173 19.032 127.017 20.5698 127.183 23.4999L128.305 35.8439C128.388 36.6959 128.337 37.07 128.15 36.9661C127.942 36.8829 127.775 36.4881 127.651 35.7815C126.799 31.1474 126.269 27.2821 126.061 24.1857C125.77 19.7594 126.196 17.463 127.339 17.2968C128.295 17.1721 130.664 19.0736 134.446 23.0012C138.311 26.9912 141.522 30.9396 144.078 34.8464C147.362 38.1506 150.001 41.3197 151.996 44.3537Z" fill="#0D131A"/>
<path d="M129.552 23.9987C129.511 25.9314 129.677 28.2589 130.051 30.9812C130.384 33.3502 130.674 34.8049 130.924 35.3452L138.623 34.5036C138 33.3398 136.691 31.5111 134.696 29.0174C132.95 26.8353 131.62 25.2768 130.706 24.3416L129.708 23.4065C129.604 23.3857 129.552 23.5831 129.552 23.9987ZM128.742 22.9701L128.929 22.0038C129.033 21.9206 129.334 22.0869 129.833 22.5025C132.015 24.2897 134.207 26.6483 136.41 29.5784C138.197 31.9475 139.278 33.6411 139.652 34.6594C139.922 35.3452 139.953 35.7296 139.745 35.8128C139.558 35.9167 139.299 35.6985 138.966 35.1582L134.571 35.8439C132.825 36.0102 131.662 36.0206 131.08 35.8751C131.08 36.2907 130.986 36.5193 130.799 36.5609C130.591 36.6024 130.332 36.218 130.02 35.4075C129.563 34.223 129.199 32.093 128.929 29.0174C128.7 26.2535 128.638 24.2377 128.742 22.9701Z" fill="#0D131A"/>
<path d="M115.681 64.4594C116.097 65.1036 115.941 65.9141 115.213 66.8908C114.59 67.7428 114.05 68.2312 113.592 68.3559C113.073 68.4806 112.231 68.2831 111.068 67.7636C109.696 67.1402 108.989 66.3505 108.948 65.3946C108.927 64.7088 109.935 64.1997 111.972 63.8672C114.008 63.5347 115.245 63.7321 115.681 64.4594Z" fill="#0D131A"/>
<path d="M130.737 61.2799C131.215 60.989 131.506 60.9059 131.61 61.0306C131.713 61.1345 131.474 61.3942 130.893 61.8099C130.248 62.2463 129.282 63.0255 127.994 64.1477C126.165 65.7063 124.378 67.0155 122.632 68.0753C120.263 69.4677 118.403 70.1119 117.052 70.008C115.348 69.8625 114.476 69.6547 114.434 69.3846C114.413 69.1352 115.099 69.0105 116.491 69.0105C118.299 68.9897 120.066 68.5325 121.79 67.6389C123.287 66.8493 125.344 65.3946 127.962 63.2749L130.737 61.2799Z" fill="#0D131A"/>
<path d="M92.9567 150.68C88.655 150.493 85.3301 149.205 82.9818 146.815C80.4673 144.238 79.3867 140.674 79.74 136.123C79.8854 134.19 80.2907 132.445 80.9557 130.886C81.5583 129.452 82.4831 127.956 83.7299 126.397C80.9453 126.564 78.0463 127.322 75.033 128.673C71.812 130.148 69.0377 132.091 66.7102 134.502C60.9331 140.425 59.2083 147.469 61.5358 155.636C63.0112 160.832 66.1803 164.967 71.0431 168.043C75.4487 170.827 81.0076 172.583 87.7199 173.311C93.975 173.996 100.677 173.737 107.826 172.531C114.808 171.368 121.416 169.445 127.651 166.765C138.852 161.985 149.897 159.138 160.786 158.224C176.31 156.914 188.633 159.907 197.756 167.201C193.973 160.198 188.633 154.327 181.733 149.589C172.839 143.459 162.48 140.227 150.655 139.895C146.561 139.791 142.125 140.238 137.345 141.235C134.477 141.838 130.144 142.991 124.346 144.695L109.353 148.903C103.306 150.296 97.8403 150.888 92.9567 150.68ZM121.354 89.9266L121.261 92.2956C120.097 94.8101 117.322 98.6338 112.938 103.767C108.054 109.482 104.023 113.233 100.843 115.02C93.8607 118.968 88.8421 122.605 85.7872 125.93C83.8962 127.966 82.5558 130.315 81.7661 132.975C80.9764 135.614 80.8517 138.128 81.3921 140.518C81.9531 143.074 83.1896 145.121 85.1015 146.659C87.2004 148.384 89.9435 149.319 93.3308 149.464C98.6299 149.714 104.241 149.09 110.163 147.594C113.426 146.784 117.53 145.537 122.476 143.853C129.105 141.921 133.698 140.674 136.254 140.113C141.699 138.908 146.769 138.357 151.466 138.461C163.477 138.71 174.169 142.326 183.541 149.308C191.043 154.899 196.405 161.382 199.626 168.76L200 170.006C199.917 170.131 199.532 169.902 198.847 169.321C194.399 165.58 188.934 162.837 182.45 161.091C175.655 159.263 168.288 158.681 160.35 159.346C154.427 159.824 148.619 160.883 142.925 162.525C138.602 163.772 133.895 165.507 128.804 167.731C121.759 170.806 114.496 172.947 107.015 174.152C99.5547 175.337 92.593 175.493 86.1301 174.62C79.3971 173.705 73.7862 171.742 69.2975 168.728C64.4971 165.486 61.3072 161.258 59.7278 156.042C58.7303 152.779 58.5537 149.423 59.1979 145.973C59.8421 142.503 61.2344 139.302 63.3749 136.372C68.2376 129.722 75.3552 126.013 84.7274 125.244C88.0316 121.587 93.2476 117.856 100.376 114.053C103.285 112.516 107.316 108.63 112.47 102.395C117.104 96.8051 120.066 92.6489 121.354 89.9266Z" fill="#0D131A"/>
<path d="M127.557 47.128C127.516 46.2968 127.983 45.7669 128.96 45.5383C129.916 45.2889 130.435 45.3513 130.519 45.7253C130.872 47.1384 130.487 47.9905 129.365 48.2814C128.222 48.5515 127.62 48.1671 127.557 47.128Z" fill="white"/>
<path d="M126.154 48.2502C125.282 49.3723 124.824 51.253 124.783 53.8922L125.905 53.3935C128.066 52.4168 129.448 51.5647 130.051 50.8374C130.924 49.7568 131.371 47.9385 131.391 45.3824C128.794 46.1513 127.048 47.1072 126.154 48.2502ZM124.814 54.1728L124.658 54.6403C124.575 54.6403 124.513 54.4845 124.471 54.1728C124.118 51.4505 124.44 49.3827 125.438 47.9696C126.518 46.4526 128.555 45.4239 131.547 44.8836L132.202 44.946C132.223 45.0707 132.087 45.1746 131.797 45.2577C131.963 48.2294 131.474 50.3075 130.331 51.492C129.583 52.2609 127.744 53.1545 124.814 54.1728Z" fill="#0D131A"/>
<path d="M112.47 65.6751C112.47 65.8414 112.356 65.9765 112.127 66.0804L111.317 66.2674L110.538 66.0804C110.309 65.9765 110.195 65.8414 110.195 65.6751C110.195 65.5089 110.309 65.3634 110.538 65.2387C110.745 65.114 111.005 65.0517 111.317 65.0517C111.649 65.0517 111.92 65.114 112.127 65.2387C112.356 65.3634 112.47 65.5089 112.47 65.6751Z" fill="white"/>
</svg>
